<svg width="152" height="152" viewBox="0 0 152 152" fill="none" xmlns="http://www.w3.org/2000/svg">
<g filter="url(#filter0_d)">
<circle cx="76" cy="76" r="70" fill="white"/>
</g>
<path d="M62.3281 99.2422C66.1035 99.2422 69.1641 96.1816 69.1641 92.4062C69.1641 88.6309 66.1035 85.5703 62.3281 85.5703C58.5527 85.5703 55.4922 88.6309 55.4922 92.4062C55.4922 96.1816 58.5527 99.2422 62.3281 99.2422Z" fill="#E07275"/>
<path d="M62.3281 101.977C59.0658 101.98 55.9382 103.278 53.6314 105.585C51.3246 107.891 50.0271 111.019 50.0234 114.281C50.0234 115.369 50.4556 116.412 51.2248 117.181C51.9939 117.951 53.0372 118.383 54.125 118.383H70.5312C71.6191 118.383 72.6623 117.951 73.4315 117.181C74.2007 116.412 74.6328 115.369 74.6328 114.281C74.6292 111.019 73.3316 107.891 71.0249 105.585C68.7181 103.278 65.5904 101.98 62.3281 101.977Z" fill="#E07275"/>
<path d="M106.078 99.2422C109.854 99.2422 112.914 96.1816 112.914 92.4062C112.914 88.6309 109.854 85.5703 106.078 85.5703C102.303 85.5703 99.2422 88.6309 99.2422 92.4062C99.2422 96.1816 102.303 99.2422 106.078 99.2422Z" fill="#E07275"/>
<path d="M106.078 101.977C102.816 101.98 99.6882 103.278 97.3814 105.585C95.0746 107.891 93.7771 111.019 93.7734 114.281C93.7734 115.369 94.2056 116.412 94.9748 117.181C95.744 117.951 96.7872 118.383 97.875 118.383H114.281C115.369 118.383 116.412 117.951 117.181 117.181C117.951 116.412 118.383 115.369 118.383 114.281C118.379 111.019 117.082 107.891 114.775 105.585C112.468 103.278 109.34 101.98 106.078 101.977Z" fill="#E07275"/>
<path d="M106.078 63.6953C109.854 63.6953 112.914 60.6348 112.914 56.8594C112.914 53.084 109.854 50.0234 106.078 50.0234C102.303 50.0234 99.2422 53.084 99.2422 56.8594C99.2422 60.6348 102.303 63.6953 106.078 63.6953Z" fill="#E07275"/>
<path d="M97.875 82.8359H114.281C115.369 82.8359 116.412 82.4038 117.181 81.6346C117.951 80.8654 118.383 79.8222 118.383 78.7344C118.383 75.471 117.086 72.3412 114.779 70.0336C112.471 67.7261 109.342 66.4297 106.078 66.4297C102.815 66.4297 99.685 67.7261 97.3774 70.0336C95.0698 72.3412 93.7734 75.471 93.7734 78.7344C93.7734 79.8222 94.2056 80.8654 94.9748 81.6346C95.744 82.4038 96.7872 82.8359 97.875 82.8359Z" fill="#E07275"/>
<path d="M89.6719 110.18H78.7344C78.3718 110.18 78.024 110.324 77.7676 110.58C77.5112 110.837 77.3672 111.184 77.3672 111.547C77.3672 111.909 77.5112 112.257 77.7676 112.514C78.024 112.77 78.3718 112.914 78.7344 112.914H89.6719C90.0345 112.914 90.3822 112.77 90.6386 112.514C90.895 112.257 91.0391 111.909 91.0391 111.547C91.0391 111.184 90.895 110.837 90.6386 110.58C90.3822 110.324 90.0345 110.18 89.6719 110.18Z" fill="#E07275"/>
<path d="M89.6719 69.1641H78.7344C78.3718 69.1641 78.024 69.3081 77.7676 69.5645C77.5112 69.8209 77.3672 70.1686 77.3672 70.5312C77.3672 70.8939 77.5112 71.2416 77.7676 71.498C78.024 71.7544 78.3718 71.8984 78.7344 71.8984H89.6719C90.0345 71.8984 90.3822 71.7544 90.6386 71.498C90.895 71.2416 91.0391 70.8939 91.0391 70.5312C91.0391 70.1686 90.895 69.8209 90.6386 69.5645C90.3822 69.3081 90.0345 69.1641 89.6719 69.1641Z" fill="#E07275"/>
<path d="M97.3706 62.4156C96.2633 56.4072 93.3572 50.8768 89.0371 46.5567C84.717 42.2365 79.1866 39.3304 73.1782 38.2232C72.9772 36.9403 72.3246 35.7714 71.3379 34.9273C70.3512 34.0832 69.0954 33.6193 67.7969 33.6193C66.4984 33.6193 65.2426 34.0832 64.256 34.9273C63.2693 35.7714 62.6166 36.9403 62.4157 38.2232C56.4063 39.3309 50.8753 42.238 46.5551 46.5594C42.2348 50.8809 39.3293 56.4127 38.2233 62.4224C36.9404 62.6234 35.7716 63.276 34.9274 64.2627C34.0833 65.2494 33.6194 66.5051 33.6194 67.8036C33.6194 69.1021 34.0833 70.3579 34.9274 71.3446C35.7716 72.3313 36.9404 72.9839 38.2233 73.1849C39.3298 79.1955 42.2363 84.728 46.5578 89.0496C50.8794 93.3711 56.4119 96.2776 62.4225 97.3841C62.6235 98.667 63.2761 99.8358 64.2628 100.68C65.2495 101.524 66.5053 101.988 67.8038 101.988C69.1023 101.988 70.3581 101.524 71.3447 100.68C72.3314 99.8358 72.9841 98.667 73.185 97.3841C79.1947 96.2781 84.7265 93.3726 89.048 89.0523C93.3694 84.7321 96.2765 79.2011 97.3842 73.1917C98.6671 72.9908 99.836 72.3381 100.68 71.3514C101.524 70.3648 101.988 69.109 101.988 67.8105C101.988 66.512 101.524 65.2562 100.68 64.2695C99.836 63.2828 98.6671 62.6302 97.3842 62.4292L97.3706 62.4156ZM67.7969 36.3515C68.5221 36.3515 69.2176 36.6396 69.7304 37.1524C70.2432 37.6652 70.5313 38.3607 70.5313 39.0859L70.5204 39.2855C70.4593 39.9656 70.146 40.5984 69.642 41.0592C69.138 41.52 68.4798 41.7755 67.7969 41.7755C67.114 41.7755 66.4558 41.52 65.9518 41.0592C65.4478 40.5984 65.1345 39.9656 65.0735 39.2855C65.0735 39.2513 65.0735 39.1187 65.0626 39.0859C65.0626 38.3607 65.3506 37.6652 65.8634 37.1524C66.3762 36.6396 67.0717 36.3515 67.7969 36.3515ZM39.086 70.5312C38.3608 70.5312 37.6653 70.2431 37.1525 69.7303C36.6397 69.2175 36.3516 68.522 36.3516 67.7968C36.3516 67.0716 36.6397 66.3761 37.1525 65.8633C37.6653 65.3505 38.3608 65.0624 39.086 65.0624L39.2856 65.0734C39.9658 65.1344 40.5985 65.4477 41.0593 65.9517C41.5201 66.4557 41.7756 67.1139 41.7756 67.7968C41.7756 68.4797 41.5201 69.1379 41.0593 69.6419C40.5985 70.1459 39.9658 70.4592 39.2856 70.5202C39.2514 70.523 39.1188 70.5312 39.086 70.5312ZM67.7969 99.2421C67.0717 99.2421 66.3762 98.954 65.8634 98.4412C65.3506 97.9285 65.0626 97.233 65.0626 96.5078L65.0735 96.3081C65.1217 95.6191 65.4297 94.9741 65.9353 94.5036C66.4408 94.033 67.1063 93.772 67.7969 93.7734C68.5025 93.7772 69.1796 94.0518 69.6885 94.5406C70.1974 95.0294 70.4991 95.6949 70.5313 96.3997V96.5078C70.5313 97.233 70.2432 97.9285 69.7304 98.4412C69.2176 98.954 68.5221 99.2421 67.7969 99.2421ZM72.9458 94.6579C72.5659 93.5966 71.8673 92.6786 70.9456 92.0296C70.0239 91.3806 68.9242 91.0322 67.7969 91.0322C66.6697 91.0322 65.5699 91.3806 64.6483 92.0296C63.7266 92.6786 63.028 93.5966 62.6481 94.6579C57.2771 93.6152 52.3403 90.991 48.4715 87.1222C44.6028 83.2534 41.9785 78.3166 40.9358 72.9456C41.9971 72.5657 42.9151 71.8671 43.5641 70.9455C44.2132 70.0238 44.5615 68.9241 44.5615 67.7968C44.5615 66.6695 44.2132 65.5698 43.5641 64.6481C42.9151 63.7265 41.9971 63.0279 40.9358 62.648C41.9785 57.277 44.6028 52.3402 48.4715 48.4714C52.3403 44.6026 57.2771 41.9784 62.6481 40.9357C63.028 41.997 63.7266 42.915 64.6483 43.564C65.5699 44.213 66.6697 44.5614 67.7969 44.5614C68.9242 44.5614 70.0239 44.213 70.9456 43.564C71.8673 42.915 72.5659 41.997 72.9458 40.9357C78.3168 41.9784 83.2535 44.6026 87.1223 48.4714C90.9911 52.3402 93.6153 57.277 94.6581 62.648C93.5967 63.0279 92.6788 63.7265 92.0297 64.6481C91.3807 65.5698 91.0324 66.6695 91.0324 67.7968C91.0324 68.9241 91.3807 70.0238 92.0297 70.9455C92.6788 71.8671 93.5967 72.5657 94.6581 72.9456C93.6153 78.3166 90.9911 83.2534 87.1223 87.1222C83.2535 90.991 78.3168 93.6152 72.9458 94.6579ZM96.5079 70.5312L96.3083 70.5202C95.6281 70.4592 94.9954 70.1459 94.5346 69.6419C94.0737 69.1379 93.8182 68.4797 93.8182 67.7968C93.8182 67.1139 94.0737 66.4557 94.5346 65.9517C94.9954 65.4477 95.6281 65.1344 96.3083 65.0734C96.3424 65.0734 96.4751 65.0734 96.5079 65.0624C97.2331 65.0624 97.9286 65.3505 98.4414 65.8633C98.9542 66.3761 99.2422 67.0716 99.2422 67.7968C99.2422 68.522 98.9542 69.2175 98.4414 69.7303C97.9286 70.2431 97.2331 70.5312 96.5079 70.5312Z" fill="#0B0B0B"/>
<path d="M67.7969 66.4297C69.4193 66.4297 71.0053 65.9486 72.3543 65.0472C73.7033 64.1458 74.7547 62.8647 75.3756 61.3658C75.9964 59.8668 76.1589 58.2175 75.8424 56.6262C75.5259 55.035 74.7446 53.5733 73.5974 52.4261C72.4501 51.2789 70.9885 50.4976 69.3972 50.1811C67.806 49.8645 66.1566 50.027 64.6577 50.6479C63.1587 51.2687 61.8776 52.3202 60.9762 53.6692C60.0749 55.0182 59.5938 56.6041 59.5938 58.2266C59.5959 60.4015 60.4609 62.4867 61.9988 64.0247C63.5367 65.5626 65.6219 66.4275 67.7969 66.4297ZM67.7969 52.7578C68.8785 52.7578 69.9358 53.0786 70.8351 53.6795C71.7345 54.2804 72.4354 55.1345 72.8493 56.1338C73.2633 57.1331 73.3716 58.2326 73.1605 59.2935C72.9495 60.3543 72.4287 61.3287 71.6639 62.0936C70.899 62.8584 69.9246 63.3792 68.8638 63.5902C67.8029 63.8012 66.7034 63.6929 65.7041 63.279C64.7048 62.8651 63.8507 62.1642 63.2498 61.2648C62.6489 60.3655 62.3281 59.3082 62.3281 58.2266C62.3281 56.7762 62.9043 55.3852 63.9299 54.3596C64.9555 53.334 66.3465 52.7578 67.7969 52.7578Z" fill="#0B0B0B"/>
<path d="M67.7969 69.1641C64.5346 69.1677 61.4069 70.4652 59.1001 72.772C56.7934 75.0788 55.4958 78.2065 55.4922 81.4688C55.4922 82.5566 55.9243 83.5998 56.6935 84.369C57.4627 85.1382 58.5059 85.5703 59.5938 85.5703H76C77.0878 85.5703 78.131 85.1382 78.9002 84.369C79.6694 83.5998 80.1016 82.5566 80.1016 81.4688C80.0979 78.2065 78.8004 75.0788 76.4936 72.772C74.1868 70.4652 71.0592 69.1677 67.7969 69.1641ZM76 82.8359H59.5938C59.2311 82.8359 58.8834 82.6919 58.627 82.4355C58.3706 82.1791 58.2266 81.8314 58.2266 81.4688C58.2266 78.9305 59.2349 76.4963 61.0296 74.7015C62.8244 72.9067 65.2587 71.8984 67.7969 71.8984C70.3351 71.8984 72.7693 72.9067 74.5641 74.7015C76.3589 76.4963 77.3672 78.9305 77.3672 81.4688C77.3672 81.8314 77.2231 82.1791 76.9667 82.4355C76.7104 82.6919 76.3626 82.8359 76 82.8359Z" fill="#0B0B0B"/>
<defs>
<filter id="filter0_d" x="0" y="0" width="152" height="152" filterUnits="userSpaceOnUse" color-interpolation-filters="sRGB">
<feFlood flood-opacity="0" result="BackgroundImageFix"/>
<feColorMatrix in="SourceAlpha" type="matrix" values="0 0 0 0 0 0 0 0 0 0 0 0 0 0 0 0 0 0 127 0"/>
<feMorphology radius="2" operator="dilate" in="SourceAlpha" result="effect1_dropShadow"/>
<feOffset/>
<feGaussianBlur stdDeviation="2"/>
<feColorMatrix type="matrix" values="0 0 0 0 0.441667 0 0 0 0 0.185868 0 0 0 0 0.193282 0 0 0 0.25 0"/>
<feBlend mode="normal" in2="BackgroundImageFix" result="effect1_dropShadow"/>
<feBlend mode="normal" in="SourceGraphic" in2="effect1_dropShadow" result="shape"/>
</filter>
</defs>
</svg>
