<svg width="676" height="163" viewBox="0 0 676 163" fill="none" xmlns="http://www.w3.org/2000/svg">
<path d="M553.317 86.8124L600.1 48.2487L611.134 56.5153L567.332 80.8947L612.511 62.9432L617.526 60.857L639.109 79.3585L616.895 80.7767L553.317 86.8124Z" fill="#D84E52"/>
<path d="M611.876 63.2607L611.133 56.5157L567.33 80.8951L611.876 63.2607Z" fill="#D84E52"/>
<path d="M615.364 80.9229L553.315 86.8128L615.499 87.9841L615.364 80.9229Z" fill="#D84E52"/>
<path d="M550 82.1639L593.698 47.5178L603.701 55.3132L562.992 76.967L604.855 61.2487L609.504 59.4179L629.029 76.8104L608.574 77.7258L550 82.1639Z" stroke="#0B0B0B" stroke-width="2" stroke-linecap="round" stroke-linejoin="round"/>
<path d="M604.135 61.3763L603.701 55.3132L562.992 76.967L604.135 61.3763Z" stroke="#0B0B0B" stroke-width="2" stroke-linecap="round" stroke-linejoin="round"/>
<path d="M607.166 77.8332L550 82.1639L607.166 84.3293V77.8332Z" stroke="#0B0B0B" stroke-width="2" stroke-linecap="round" stroke-linejoin="round"/>
<path d="M629 57C662.666 22.3333 732.3 -31.7 741.5 29.5C753 106 638.737 193.309 552 120.5C517.666 87.6667 463.9 29 413.5 57C373.5 79.2222 376 120.5 300.5 173C297 177 200.864 189 186.5 99.5C173.5 18.5 264 43 234 89.5C217.871 114.5 148.5 152 -15.5 81.5" stroke="black" stroke-opacity="0.3" stroke-width="2" stroke-linecap="round" stroke-linejoin="round" stroke-dasharray="4 6"/>
</svg>
