<svg width="653" height="149" viewBox="0 0 653 149" fill="none" xmlns="http://www.w3.org/2000/svg">
<path d="M119.333 122.201C81.5 97 36.5 88 -12 100C-62.5683 107.94 -35.9999 -7.5 142 -7.5C225.584 -7.5 279 51.8345 361.5 42C427.5 34.1325 515.5 -13 651.5 -24" stroke="black" stroke-opacity="0.3" stroke-width="2" stroke-linecap="round" stroke-linejoin="round" stroke-dasharray="4 6"/>
<path d="M143.238 148.697L131.685 111.991L189.447 94.7856L201 131.491L143.238 148.697Z" fill="#CA4246"/>
<path d="M125.601 108.06L137.154 144.765M125.601 108.06L183.364 90.854M125.601 108.06L153.327 118.586M137.154 144.765L194.916 127.56M137.154 144.765L153.327 118.586M194.916 127.56L183.364 90.854M194.916 127.56L170.656 113.795M183.364 90.854L170.656 113.795M153.327 118.586L164.88 122.971L170.656 113.795" stroke="#0B0B0B" stroke-width="2" stroke-linecap="round" stroke-linejoin="round"/>
</svg>
