<svg width="264" height="193" viewBox="0 0 264 193" fill="none" xmlns="http://www.w3.org/2000/svg">
<path fill-rule="evenodd" clip-rule="evenodd" d="M234 6.00001L30 6C13.4315 6 7.58692e-06 19.4315 6.86269e-06 36L0 163C0 179.569 13.4315 193 30 193H172.837C180.448 193 187.774 190.108 193.331 184.909L229.359 151.206V116.047C229.364 111.967 230.987 108.055 233.873 105.169C236.758 102.284 240.67 100.661 244.75 100.656H250.906V82.1875C250.906 67.4928 245.069 53.4001 234.678 43.0094C224.287 32.6187 210.195 26.7812 195.5 26.7812C180.805 26.7812 166.713 32.6187 156.322 43.0094C145.931 53.4001 140.094 67.4928 140.094 82.1875V100.656H146.25C150.33 100.661 154.242 102.284 157.127 105.169C160.013 108.055 161.636 111.967 161.641 116.047V165.297C161.636 169.377 160.013 173.289 157.127 176.174C154.242 179.06 150.33 180.683 146.25 180.688H124.703C118.991 180.68 113.515 178.408 109.475 174.368C105.436 170.329 103.164 164.853 103.156 159.141V125.281C103.226 121.605 104.251 118.01 106.131 114.849C108.01 111.689 110.68 109.072 113.877 107.256C118.91 104.218 121.625 96.6701 121.625 91.1295V82.1875C121.625 62.5946 129.408 43.8042 143.262 29.95C157.117 16.0957 175.907 8.3125 195.5 8.3125C215.093 8.3125 233.883 16.0957 247.738 29.95C254.822 37.0348 260.319 45.4104 264 54.5241V36C264 19.4315 250.569 6.00001 234 6.00001ZM264 97.5781H257.062V124.972C261.52 119.614 264 112.833 264 105.785V97.5781ZM250.906 131.05V106.812H244.75C242.847 106.82 240.993 107.416 239.441 108.518C237.89 109.62 236.716 111.174 236.082 112.969H241.672C242.488 112.969 243.271 113.293 243.848 113.87C244.426 114.448 244.75 115.231 244.75 116.047C244.75 116.863 244.426 117.646 243.848 118.223C243.271 118.801 242.488 119.125 241.672 119.125H235.516V125.281H241.672C242.488 125.281 243.271 125.606 243.848 126.183C244.426 126.76 244.75 127.543 244.75 128.359C244.75 129.176 244.426 129.959 243.848 130.536C243.271 131.113 242.488 131.438 241.672 131.438H235.516V137.594H241.672C242.279 137.594 242.868 137.773 243.367 138.103L250.906 131.05ZM237.33 143.75H235.516V145.447L237.33 143.75ZM118.547 165.297V159.141H124.703V165.297H118.547ZM124.703 174.531H133.938V97.5781H126.935C125.684 103.644 122.149 108.996 117.06 112.525C114.774 113.798 112.858 115.643 111.5 117.879C110.142 120.115 109.388 122.666 109.313 125.281V159.141C109.317 163.221 110.94 167.133 113.826 170.018C116.711 172.903 120.623 174.526 124.703 174.531ZM127.781 91.4219H133.938V85.2656H127.781V91.4219ZM151.531 108.545C149.987 107.446 148.145 106.841 146.25 106.812H140.094V174.531H146.25C148.145 174.502 149.987 173.898 151.531 172.799C153.075 171.699 154.249 170.157 154.896 168.375H149.328C148.512 168.375 147.729 168.051 147.152 167.473C146.574 166.896 146.25 166.113 146.25 165.297C146.25 164.48 146.574 163.698 147.152 163.12C147.729 162.543 148.512 162.219 149.328 162.219H155.484V156.062H149.328C148.512 156.062 147.729 155.738 147.152 155.161C146.574 154.584 146.25 153.801 146.25 152.984C146.25 152.168 146.574 151.385 147.152 150.808C147.729 150.231 148.512 149.906 149.328 149.906H155.484V143.75H149.328C148.512 143.75 147.729 143.426 147.152 142.848C146.574 142.271 146.25 141.488 146.25 140.672C146.25 139.855 146.574 139.073 147.152 138.495C147.729 137.918 148.512 137.594 149.328 137.594H155.484V131.438H149.328C148.512 131.438 147.729 131.113 147.152 130.536C146.574 129.959 146.25 129.176 146.25 128.359C146.25 127.543 146.574 126.76 147.152 126.183C147.729 125.606 148.512 125.281 149.328 125.281H155.484V119.125H149.328C148.512 119.125 147.729 118.801 147.152 118.223C146.574 117.646 146.25 116.863 146.25 116.047C146.25 115.231 146.574 114.448 147.152 113.87C147.729 113.293 148.512 112.969 149.328 112.969H154.896C154.249 111.187 153.075 109.644 151.531 108.545ZM153.128 37.6147C164.554 26.7322 179.721 20.6507 195.5 20.625C211.279 20.6507 226.446 26.7322 237.872 37.6147C249.298 48.4971 256.111 63.3502 256.906 79.1094H263.142C262.312 61.7278 254.824 45.3325 242.229 33.3246C229.635 21.3168 212.901 14.6181 195.5 14.6181C178.099 14.6181 161.365 21.3168 148.771 33.3246C136.176 45.3325 128.688 61.7278 127.858 79.1094H134.094C134.889 63.3502 141.702 48.4971 153.128 37.6147ZM263.219 91.4219V85.2656H257.062V91.4219H263.219Z" fill="#D84E52"/>
<path d="M33.4419 78.96C28.8019 78.96 24.6685 77.8133 21.0419 75.52C17.4152 73.2267 14.5619 69.92 12.4819 65.6C10.4552 61.2267 9.44188 56.0267 9.44188 50C9.44188 43.9733 10.4552 38.8 12.4819 34.48C14.5619 30.1067 17.4152 26.7733 21.0419 24.48C24.6685 22.1867 28.8019 21.04 33.4419 21.04C38.0819 21.04 42.2152 22.1867 45.8419 24.48C49.4685 26.7733 52.2952 30.1067 54.3219 34.48C56.4019 38.8 57.4419 43.9733 57.4419 50C57.4419 56.0267 56.4019 61.2267 54.3219 65.6C52.2952 69.92 49.4685 73.2267 45.8419 75.52C42.2152 77.8133 38.0819 78.96 33.4419 78.96ZM33.4419 68C36.8552 68 39.5219 66.5333 41.4419 63.6C43.4152 60.6667 44.4019 56.1333 44.4019 50C44.4019 43.8667 43.4152 39.3333 41.4419 36.4C39.5219 33.4667 36.8552 32 33.4419 32C30.0819 32 27.4152 33.4667 25.4419 36.4C23.5219 39.3333 22.5619 43.8667 22.5619 50C22.5619 56.1333 23.5219 60.6667 25.4419 63.6C27.4152 66.5333 30.0819 68 33.4419 68ZM88.07 22V78H75.11V32.4H63.91V22H88.07Z" fill="white"/>
</svg>
