<svg width="264" height="193" viewBox="0 0 264 193" fill="none" xmlns="http://www.w3.org/2000/svg">
<path fill-rule="evenodd" clip-rule="evenodd" d="M234 6.00001L30 6C13.4315 6 7.58692e-06 19.4315 6.86269e-06 36L0 163C0 179.569 13.4315 193 30 193H165.325C146.46 189.984 132 173.598 132 153.897V44.9995C132.003 32.262 142.369 21.9 155.103 21.9C172.952 21.9 190.646 24.5826 207.697 29.873L249.811 42.9438C254.499 44.3986 259.232 45.6716 264 46.7617V36C264 19.4315 250.569 6.00001 234 6.00001ZM264 99.887V105.785C264 114.089 260.558 122.021 254.494 127.694L220.701 159.306L207.697 155.27C197.022 151.96 186.004 149.707 174.902 148.459V64.799C174.902 62.9776 173.427 61.499 171.602 61.499H155.103C146.005 61.499 138.603 54.0976 138.603 45.0001C138.603 35.9026 146.005 28.5006 155.103 28.5006C172.289 28.5006 189.327 31.0842 205.734 36.1794L247.854 49.2502C253.184 50.903 258.57 52.3291 264 53.5267V92.0431C262.061 93.1908 260.166 94.4596 258.365 95.8216L262.352 101.085C262.892 100.676 263.442 100.276 264 99.887ZM215.151 164.498L193.331 184.909C187.898 189.991 180.775 192.869 173.349 192.996C174.281 192.412 174.9 191.376 174.9 190.197V155.108C185.338 156.326 195.7 158.461 205.738 161.576L215.151 164.498ZM168.303 186.732C151.651 185.072 138.603 170.978 138.603 153.898V61.1529C142.798 65.436 148.645 68.099 155.103 68.099H168.303V186.732ZM234.302 134.098C234.302 128.455 227.21 124.198 217.802 124.198C208.394 124.198 201.303 128.455 201.303 134.098C201.303 139.741 208.394 143.998 217.802 143.998C227.21 143.998 234.302 139.741 234.302 134.098ZM227.702 134.098C227.702 134.92 224.191 137.398 217.802 137.398C211.413 137.398 207.902 134.92 207.902 134.098C207.902 133.277 211.413 130.798 217.802 130.798C224.191 130.798 227.702 133.277 227.702 134.098ZM192.527 105.758L186.039 104.537L184.818 111.025L191.306 112.246L192.527 105.758ZM205.504 108.197L199.016 106.976L197.795 113.463L204.283 114.684L205.504 108.197ZM245.073 112.166C242.941 113.077 240.727 113.872 238.499 114.526L236.638 108.196C238.618 107.612 240.584 106.906 242.482 106.094L245.073 112.166ZM210.846 115.938L212.057 109.451C214.08 109.83 216.149 110.091 218.211 110.226L217.772 116.81C215.453 116.658 213.123 116.364 210.846 115.938ZM230.589 109.593C228.556 109.939 226.48 110.17 224.418 110.275L224.755 116.866C227.078 116.747 229.415 116.49 231.698 116.1L230.589 109.593ZM248.036 103.319C249.825 102.293 251.571 101.148 253.227 99.9169L257.164 105.213C255.299 106.599 253.333 107.89 251.32 109.041L248.036 103.319ZM188.102 50.2333L180.535 42.6664L175.869 47.3326L183.436 54.8995L175.869 62.4664L180.535 67.1326L188.102 59.5657L193.676 65.1395C190.211 68.6012 188.102 73.089 188.102 77.9996C188.102 88.9191 198.468 97.799 211.202 97.799C215.564 97.799 219.716 96.7863 223.356 94.8491C225.979 96.7466 229.243 97.799 232.652 97.799C240.839 97.799 247.501 91.8785 247.501 84.599C247.501 77.418 241.017 71.5572 232.982 71.4023C229.774 63.6084 221.082 58.1995 211.202 58.1995C206.744 58.1995 202.592 59.3051 199.058 61.1891L192.769 54.8995L200.335 47.3326L195.669 42.6664L188.102 50.2333ZM221.851 88.0567C218.871 90.0834 215.089 91.1985 211.202 91.1985C202.104 91.1985 194.703 85.279 194.703 77.999C194.703 70.719 202.104 64.799 211.202 64.799C219.155 64.799 225.979 69.346 227.418 75.6128C227.804 77.2955 229.424 78.391 231.131 78.1371C231.625 78.0611 232.134 77.9984 232.652 77.9984C237.202 77.9984 240.901 80.9584 240.901 84.5985C240.901 88.2385 237.202 91.1985 232.652 91.1985C230.094 91.1985 227.708 90.2249 226.111 88.522C225.464 87.8386 224.593 87.4858 223.708 87.4858C223.062 87.4858 222.418 87.6742 221.851 88.0567Z" fill="#D84E52"/>
<path d="M33.4028 78.96C28.7628 78.96 24.6295 77.8133 21.0028 75.52C17.3761 73.2267 14.5228 69.92 12.4428 65.6C10.4161 61.2267 9.40281 56.0267 9.40281 50C9.40281 43.9733 10.4161 38.8 12.4428 34.48C14.5228 30.1067 17.3761 26.7733 21.0028 24.48C24.6295 22.1867 28.7628 21.04 33.4028 21.04C38.0428 21.04 42.1761 22.1867 45.8028 24.48C49.4295 26.7733 52.2561 30.1067 54.2828 34.48C56.3628 38.8 57.4028 43.9733 57.4028 50C57.4028 56.0267 56.3628 61.2267 54.2828 65.6C52.2561 69.92 49.4295 73.2267 45.8028 75.52C42.1761 77.8133 38.0428 78.96 33.4028 78.96ZM33.4028 68C36.8161 68 39.4828 66.5333 41.4028 63.6C43.3761 60.6667 44.3628 56.1333 44.3628 50C44.3628 43.8667 43.3761 39.3333 41.4028 36.4C39.4828 33.4667 36.8161 32 33.4028 32C30.0428 32 27.3761 33.4667 25.4028 36.4C23.4828 39.3333 22.5228 43.8667 22.5228 50C22.5228 56.1333 23.4828 60.6667 25.4028 63.6C27.3761 66.5333 30.0428 68 33.4028 68ZM86.5797 21.04C94.4197 21.04 100.553 23.44 104.98 28.24C109.406 32.9867 111.62 39.84 111.62 48.8C111.62 55.1467 110.42 60.5867 108.02 65.12C105.673 69.6533 102.34 73.0933 98.0197 75.44C93.6997 77.7867 88.713 78.96 83.0597 78.96C80.073 78.96 77.2197 78.64 74.4997 78C71.7797 77.3067 69.4597 76.3467 67.5397 75.12L72.3397 65.6C75.0597 67.4667 78.553 68.4 82.8197 68.4C87.5664 68.4 91.3264 67.0133 94.0997 64.24C96.873 61.4133 98.3664 57.36 98.5797 52.08C95.2197 55.44 90.5797 57.12 84.6597 57.12C81.0864 57.12 77.833 56.4 74.8997 54.96C71.9664 53.52 69.6464 51.4933 67.9397 48.88C66.233 46.2133 65.3797 43.1467 65.3797 39.68C65.3797 35.9467 66.313 32.6667 68.1797 29.84C70.0464 27.0133 72.5797 24.8533 75.7797 23.36C79.033 21.8133 82.633 21.04 86.5797 21.04ZM87.5397 47.44C90.3664 47.44 92.6597 46.6667 94.4197 45.12C96.233 43.52 97.1397 41.4933 97.1397 39.04C97.1397 36.5867 96.2597 34.5867 94.4997 33.04C92.793 31.4933 90.4197 30.72 87.3797 30.72C84.6064 30.72 82.3397 31.4667 80.5797 32.96C78.873 34.4533 78.0197 36.48 78.0197 39.04C78.0197 41.6 78.873 43.6533 80.5797 45.2C82.3397 46.6933 84.6597 47.44 87.5397 47.44Z" fill="white"/>
</svg>
