<svg width="264" height="193" viewBox="0 0 264 193" fill="none" xmlns="http://www.w3.org/2000/svg">
<path fill-rule="evenodd" clip-rule="evenodd" d="M30 6L234 6.00001C250.569 6.00001 264 19.4315 264 36V39.6966H262.137C259.264 33.1133 252.766 28.8546 245.583 28.8466H241.453C239.829 22.4661 234.084 18 227.5 18C220.916 18 215.171 22.4661 213.547 28.8466H209.417C202.234 28.8579 195.737 33.1152 192.86 39.6966H140.7C134.708 39.6966 129.85 44.5543 129.85 50.5466V155.43H126.233C122.238 155.43 119 158.668 119 162.663C119.012 174.643 128.72 184.351 140.7 184.363H160.856L157.718 193H30C13.4315 193 0 179.569 0 163L6.86269e-06 36C7.58692e-06 19.4315 13.4315 6 30 6ZM201.647 177.13L217.112 162.663H126.233C126.233 170.653 132.71 177.13 140.7 177.13H201.647ZM264 105.785V102.899L251.07 117.412L251.677 120.493L254.625 118.525C256.351 117.372 258.49 117.016 260.497 117.549C260.826 117.636 261.146 117.745 261.456 117.876C263.116 114.105 264 109.993 264 105.785ZM264 94.3973V46.93H263.667C263.667 52.9222 258.809 57.7799 252.817 57.7799H202.183C196.191 57.7799 191.333 52.9222 191.333 46.93H140.7C138.703 46.93 137.083 48.5492 137.083 50.5466V148.779L168.624 109.571L172.462 104.797H158.783C151.359 104.791 145.144 99.1671 144.4 91.7804C143.656 84.3938 148.624 77.6427 155.897 76.1562C158.018 68.12 164.928 62.2609 173.202 61.4829C181.477 60.7048 189.358 65.1732 192.939 72.6734C200.41 74.2891 205.755 80.8781 205.796 88.5216C205.796 88.7597 205.768 88.991 205.739 89.223L205.739 89.2234C205.721 89.3683 205.703 89.5135 205.691 89.6609L235.377 124.153L258.82 97.8345C260.184 96.1836 261.994 94.999 264 94.3973ZM254.494 127.694C254.906 127.309 255.305 126.914 255.692 126.509C254.001 127.64 251.909 128.001 249.936 127.501C247.956 126.999 246.284 125.678 245.337 123.867L240.158 129.683L244.715 134.992C245.04 135.332 245.29 135.724 245.459 136.146L254.494 127.694ZM224.844 155.43L240.535 140.752C240.033 140.51 239.584 140.152 239.232 139.694L219.428 116.681L218.061 120.091C217.243 122.111 215.563 123.658 213.482 124.304C211.401 124.95 209.14 124.628 207.323 123.426L203.579 120.916L201.409 125.256C200.192 127.717 197.681 129.271 194.936 129.263C192.19 129.254 189.689 127.685 188.487 125.216L186.317 120.916L182.255 123.618C180.558 124.764 178.45 125.124 176.469 124.605C174.448 124.088 172.747 122.727 171.8 120.869L170.657 118.583L141.018 155.43H224.844ZM193.84 184.433L193.914 184.363H193.865L193.84 184.433ZM186.183 184.363L183.822 190.917C180.353 192.281 176.631 193 172.837 193H165.409L168.548 184.363H186.183ZM158.783 97.5633C155.252 97.5583 152.24 95.004 151.659 91.5207C151.078 88.0374 153.096 84.6436 156.435 83.492C159.773 82.3404 163.455 83.7679 165.145 86.8688C166.091 88.6285 168.284 89.2884 170.044 88.3426C171.804 87.3968 172.463 85.2036 171.518 83.4438C169.767 80.2117 166.84 77.7761 163.344 76.6409C165.274 71.7247 170.061 68.5296 175.341 68.632C180.622 68.7345 185.28 72.1129 187.019 77.1002C187.079 77.2253 187.148 77.3462 187.225 77.4619C187.355 77.7672 187.527 78.0532 187.735 78.3118C187.88 78.446 188.038 78.567 188.205 78.6734C188.398 78.8528 188.61 79.0104 188.838 79.1436C189.116 79.2592 189.408 79.3406 189.706 79.3859C189.857 79.4391 190.012 79.4814 190.169 79.5125C194.776 79.8611 198.379 83.6269 198.524 88.2447C198.669 92.8625 195.309 96.8468 190.733 97.4837C190.333 97.5444 189.929 97.571 189.525 97.5633H158.783ZM189.525 104.797C190.32 104.804 191.114 104.742 191.898 104.612C196.408 103.917 200.42 101.359 202.954 97.5633L214.118 110.515L211.333 117.415L207.608 114.923C205.9 113.763 203.775 113.393 201.775 113.907C199.747 114.43 198.042 115.801 197.095 117.668L194.957 122.008L192.787 117.643C191.852 115.799 190.173 114.443 188.173 113.918C186.174 113.392 184.045 113.748 182.324 114.894L178.263 117.596L175.644 112.392L181.746 104.797H189.525ZM209.417 36.0799H216.65C218.647 36.0799 220.267 34.4607 220.267 32.4633C220.267 28.4684 223.505 25.2299 227.5 25.2299C231.495 25.2299 234.733 28.4684 234.733 32.4633C234.733 34.4607 236.353 36.0799 238.35 36.0799H245.583C251.567 36.0998 256.413 40.9459 256.433 46.93C256.433 48.9274 254.814 50.5466 252.817 50.5466H202.183C200.186 50.5466 198.567 48.9274 198.567 46.93C198.588 40.9467 203.433 36.1018 209.417 36.0799ZM231.117 39.6957C231.117 41.6931 229.497 43.3124 227.5 43.3124C225.503 43.3124 223.883 41.6931 223.883 39.6957C223.883 37.6983 225.503 36.079 227.5 36.079C229.497 36.079 231.117 37.6983 231.117 39.6957ZM230.697 86.7233C229.76 86.5931 228.292 87.7323 226.777 89.754C225.578 91.352 223.311 91.6758 221.713 90.4774C220.115 89.2789 219.792 87.012 220.99 85.414C223.159 81.6122 227.276 79.3474 231.648 79.5514C234.314 80.0334 236.704 81.4934 238.35 83.6455C239.996 81.4934 242.386 80.0334 245.052 79.5514C249.423 79.3525 253.538 81.6159 255.71 85.414C256.485 86.4477 256.65 87.8165 256.143 89.0047C255.635 90.193 254.532 91.0202 253.249 91.1747C251.966 91.3293 250.699 90.7877 249.923 89.754C248.404 87.7287 246.914 86.5822 246.003 86.7233C244.495 86.9186 242.502 89.8661 241.706 91.8336L241.681 91.8734C241.667 91.9074 241.646 91.937 241.626 91.9665C241.609 91.9902 241.593 92.0139 241.58 92.0398C241.426 92.3592 241.226 92.6541 240.987 92.915C240.888 93.0134 240.784 93.1063 240.676 93.1935C240.446 93.3874 240.193 93.5526 239.923 93.6853C239.87 93.712 239.814 93.7523 239.767 93.7862C239.737 93.8074 239.711 93.8261 239.692 93.8372C239.663 93.8536 239.634 93.8549 239.605 93.8563C239.583 93.8573 239.56 93.8583 239.536 93.8662C239.209 93.9815 238.867 94.0485 238.52 94.0651C238.491 94.0651 238.463 94.0732 238.435 94.0814C238.407 94.0895 238.379 94.0976 238.35 94.0976C237.924 94.0877 237.503 94.0033 237.106 93.8481C237.089 93.8377 237.077 93.8381 237.063 93.8385C237.048 93.839 237.029 93.8396 236.997 93.8264C236.965 93.8132 236.94 93.7932 236.915 93.7729C236.891 93.7542 236.868 93.7354 236.838 93.7215C236.523 93.5738 236.231 93.3813 235.97 93.1501C235.885 93.0814 235.804 93.0077 235.728 92.9295C235.469 92.6536 235.256 92.3387 235.095 91.9964C235.079 91.9718 235.063 91.9468 235.048 91.9213C235.038 91.9043 235.028 91.8872 235.019 91.8698L234.994 91.83C234.194 89.8661 232.205 86.9186 230.697 86.7233Z" fill="#D84E52"/>
<path d="M33.4028 78.96C28.7628 78.96 24.6295 77.8133 21.0028 75.52C17.3761 73.2267 14.5228 69.92 12.4428 65.6C10.4161 61.2267 9.40281 56.0267 9.40281 50C9.40281 43.9733 10.4161 38.8 12.4428 34.48C14.5228 30.1067 17.3761 26.7733 21.0028 24.48C24.6295 22.1867 28.7628 21.04 33.4028 21.04C38.0428 21.04 42.1761 22.1867 45.8028 24.48C49.4295 26.7733 52.2561 30.1067 54.2828 34.48C56.3628 38.8 57.4028 43.9733 57.4028 50C57.4028 56.0267 56.3628 61.2267 54.2828 65.6C52.2561 69.92 49.4295 73.2267 45.8028 75.52C42.1761 77.8133 38.0428 78.96 33.4028 78.96ZM33.4028 68C36.8161 68 39.4828 66.5333 41.4028 63.6C43.3761 60.6667 44.3628 56.1333 44.3628 50C44.3628 43.8667 43.3761 39.3333 41.4028 36.4C39.4828 33.4667 36.8161 32 33.4028 32C30.0428 32 27.3761 33.4667 25.4028 36.4C23.4828 39.3333 22.5228 43.8667 22.5228 50C22.5228 56.1333 23.4828 60.6667 25.4028 63.6C27.3761 66.5333 30.0428 68 33.4028 68ZM93.8597 42.88C97.433 42.88 100.686 43.6 103.62 45.04C106.553 46.48 108.873 48.5333 110.58 51.2C112.286 53.8133 113.14 56.8533 113.14 60.32C113.14 64.0533 112.206 67.3333 110.34 70.16C108.473 72.9867 105.913 75.1733 102.66 76.72C99.4597 78.2133 95.8864 78.96 91.9397 78.96C84.0997 78.96 77.9664 76.56 73.5397 71.76C69.113 66.96 66.8997 60.1067 66.8997 51.2C66.8997 44.8533 68.0997 39.4133 70.4997 34.88C72.8997 30.3467 76.233 26.9067 80.4997 24.56C84.8197 22.2133 89.8064 21.04 95.4597 21.04C98.4464 21.04 101.3 21.3867 104.02 22.08C106.793 22.72 109.14 23.6533 111.06 24.88L106.26 34.4C103.486 32.5333 99.993 31.6 95.7797 31.6C91.033 31.6 87.273 32.9867 84.4997 35.76C81.7264 38.5333 80.233 42.56 80.0197 47.84C83.3264 44.5333 87.9397 42.88 93.8597 42.88ZM91.2197 69.28C93.993 69.28 96.233 68.5333 97.9397 67.04C99.6997 65.5467 100.58 63.52 100.58 60.96C100.58 58.4 99.6997 56.3733 97.9397 54.88C96.233 53.3333 93.9397 52.56 91.0597 52.56C88.233 52.56 85.913 53.36 84.0997 54.96C82.2864 56.5067 81.3797 58.5067 81.3797 60.96C81.3797 63.4133 82.2597 65.4133 84.0197 66.96C85.7797 68.5067 88.1797 69.28 91.2197 69.28Z" fill="white"/>
</svg>
