<svg width="264" height="193" viewBox="0 0 264 193" fill="none" xmlns="http://www.w3.org/2000/svg">
<path fill-rule="evenodd" clip-rule="evenodd" d="M30 6L234 6.00001C250.569 6.00001 264 19.4315 264 36V105.785C264 106.003 263.998 106.221 263.993 106.438L239.317 89.9872C238.447 89.4093 237.321 89.3991 236.449 89.9694L193.753 117.595L168.941 97.951C168.053 97.248 166.814 97.1995 165.871 97.8259L111 134.407L113.897 138.755L143.259 119.178L152.213 130.372C152.731 131.021 153.489 131.355 154.255 131.355C154.826 131.355 155.404 131.167 155.885 130.782L166.843 122.016L173.067 130.31C173.49 130.874 174.126 131.245 174.829 131.334C175.53 131.428 176.236 131.225 176.788 130.782L189.325 120.754L228.406 151.694L231.648 147.596L198.078 121.018L221.649 105.767L230.794 114.912C231.301 115.418 231.969 115.677 232.642 115.677C233.234 115.677 233.827 115.476 234.313 115.071L249.073 102.772L263.295 112.253C262.653 115.159 261.583 117.95 260.124 120.534C258.025 116.122 253.522 113.065 248.319 113.065C241.523 113.065 235.921 118.28 235.309 124.92C232.089 126.753 230.029 130.19 230.029 133.968C230.029 138.58 233.03 142.504 237.184 143.887L193.331 184.909C187.774 190.108 180.448 193 172.837 193H30C13.4315 193 0 179.569 0 163L6.86269e-06 36C7.58692e-06 19.4315 13.4315 6 30 6ZM248.319 118.29C252.632 118.29 256.144 121.794 256.158 126.01C255.628 126.591 255.073 127.152 254.494 127.694L242.201 139.194H240.48C237.598 139.194 235.255 136.85 235.255 133.968C235.255 131.768 236.671 129.794 238.773 129.063C239.865 128.682 240.579 127.627 240.524 126.468C240.516 126.314 240.498 126.166 240.48 126.129C240.48 121.808 243.997 118.29 248.319 118.29ZM237.846 95.2858L244.54 99.7486L232.804 109.529L226.137 102.864L237.846 95.2858ZM175.63 125.019L169.409 116.722C168.985 116.158 168.351 115.787 167.648 115.698C166.953 115.607 166.24 115.808 165.689 116.25L154.664 125.069L147.625 116.271L167.19 103.227L185.126 117.425L175.63 125.019ZM135.964 133.968C142.274 133.968 147.555 138.465 148.767 144.422C154.601 144.195 159.48 149.021 159.48 154.871C159.48 160.635 154.791 165.323 149.029 165.323H141.19V181H135.964V175.774H125.512V170.548H135.964V165.323H128.125C122.361 165.323 117.674 160.635 117.674 154.871C117.674 151.093 119.734 147.656 122.954 145.823C123.565 139.183 129.168 133.968 135.964 133.968ZM128.125 160.097H149.029C151.911 160.097 154.254 157.753 154.254 154.871C154.254 151.989 151.911 149.645 149.029 149.645C148.463 149.645 147.884 149.755 147.256 149.985C146.431 150.286 145.519 150.149 144.816 149.632C144.113 149.114 143.716 148.281 143.756 147.409C143.758 147.324 143.791 147.022 143.803 146.938C143.803 142.711 140.285 139.194 135.964 139.194C131.642 139.194 128.125 142.711 128.125 147.032C128.143 147.069 128.161 147.217 128.169 147.372C128.224 148.53 127.51 149.585 126.418 149.967C124.316 150.698 122.9 152.671 122.9 154.871C122.9 157.753 125.243 160.097 128.125 160.097ZM190.836 149.645C190.836 149.794 190.833 149.94 190.824 150.089C193.871 151.166 196.061 154.074 196.061 157.484C196.061 161.805 192.544 165.323 188.223 165.323H182.997V170.548H188.223V175.774H182.997V181H177.771V165.323H172.545C168.223 165.323 164.707 161.805 164.707 157.484C164.707 154.074 166.896 151.166 169.943 150.089C169.935 149.94 169.932 149.794 169.932 149.645C169.932 143.881 174.62 139.194 180.384 139.194C186.147 139.194 190.836 143.881 190.836 149.645ZM172.545 160.097H188.223C189.662 160.097 190.836 158.923 190.836 157.484C190.836 156.045 189.662 154.871 188.223 154.871C187.331 154.951 186.333 154.597 185.787 153.886C185.241 153.178 184.967 152.258 185.272 151.417C185.5 150.79 185.61 150.209 185.61 149.645C185.61 146.763 183.266 144.419 180.384 144.419C177.502 144.419 175.158 146.763 175.158 149.645C175.158 150.209 175.268 150.79 175.495 151.42C175.8 152.261 175.652 153.198 175.106 153.906C174.56 154.615 173.7 155.006 172.795 154.911C172.762 154.908 172.55 154.881 172.513 154.876H172.506C171.1 154.876 169.932 156.047 169.932 157.484C169.932 158.923 171.105 160.097 172.545 160.097ZM190.836 86.9355C205.242 86.9355 216.965 75.2144 216.965 60.8064C216.965 46.3985 205.242 34.6774 190.836 34.6774C176.428 34.6774 164.707 46.3985 164.707 60.8064C164.707 75.2144 176.428 86.9355 190.836 86.9355ZM190.836 39.9032C202.36 39.9032 211.739 49.2806 211.739 60.8064C211.739 72.3323 202.36 81.7096 190.836 81.7096C179.31 81.7096 169.932 72.3323 169.932 60.8064C169.932 49.2806 179.31 39.9032 190.836 39.9032ZM201.287 60.8063H206.513C206.513 69.4526 199.48 76.4837 190.835 76.4837V71.2579C196.598 71.2579 201.287 66.5705 201.287 60.8063ZM188.222 19H193.448V29.4516H188.222V19ZM193.448 92.1612H188.222V102.613H193.448V92.1612ZM157.633 31.3003L161.328 27.6055L169.166 35.4442L165.472 39.139L157.633 31.3003ZM216.198 82.4765L212.503 86.1713L220.342 94.01L224.038 90.3152L216.198 82.4765ZM149.029 58.1936H159.48V63.4194H149.029V58.1936ZM232.642 58.1936H222.19V63.4194H232.642V58.1936ZM157.632 90.3127L165.472 82.474L169.167 86.1688L161.328 94.0087L157.632 90.3127ZM220.343 27.603L212.503 35.443L216.199 39.1378L224.038 31.2991L220.343 27.603Z" fill="#D84E52"/>
<path d="M33.4653 78.96C28.8253 78.96 24.692 77.8133 21.0653 75.52C17.4386 73.2267 14.5853 69.92 12.5053 65.6C10.4786 61.2267 9.46531 56.0267 9.46531 50C9.46531 43.9733 10.4786 38.8 12.5053 34.48C14.5853 30.1067 17.4386 26.7733 21.0653 24.48C24.692 22.1867 28.8253 21.04 33.4653 21.04C38.1053 21.04 42.2386 22.1867 45.8653 24.48C49.492 26.7733 52.3186 30.1067 54.3453 34.48C56.4253 38.8 57.4653 43.9733 57.4653 50C57.4653 56.0267 56.4253 61.2267 54.3453 65.6C52.3186 69.92 49.492 73.2267 45.8653 75.52C42.2386 77.8133 38.1053 78.96 33.4653 78.96ZM33.4653 68C36.8786 68 39.5453 66.5333 41.4653 63.6C43.4386 60.6667 44.4253 56.1333 44.4253 50C44.4253 43.8667 43.4386 39.3333 41.4653 36.4C39.5453 33.4667 36.8786 32 33.4653 32C30.1053 32 27.4386 33.4667 25.4653 36.4C23.5453 39.3333 22.5853 43.8667 22.5853 50C22.5853 56.1333 23.5453 60.6667 25.4653 63.6C27.4386 66.5333 30.1053 68 33.4653 68ZM105.282 48.56C108.056 49.9467 110.162 51.76 111.602 54C113.096 56.24 113.842 58.8267 113.842 61.76C113.842 65.2267 112.856 68.2667 110.882 70.88C108.909 73.44 106.136 75.44 102.562 76.88C98.9889 78.2667 94.8555 78.96 90.1622 78.96C85.4689 78.96 81.3355 78.2667 77.7622 76.88C74.2422 75.44 71.4955 73.44 69.5222 70.88C67.6022 68.2667 66.6422 65.2267 66.6422 61.76C66.6422 58.8267 67.3622 56.24 68.8022 54C70.2955 51.76 72.4022 49.9467 75.1222 48.56C73.0422 47.28 71.4422 45.68 70.3222 43.76C69.2022 41.7867 68.6422 39.5467 68.6422 37.04C68.6422 33.7867 69.5489 30.96 71.3622 28.56C73.1755 26.16 75.7089 24.32 78.9622 23.04C82.2155 21.7067 85.9489 21.04 90.1622 21.04C94.4289 21.04 98.1889 21.7067 101.442 23.04C104.749 24.32 107.309 26.16 109.122 28.56C110.936 30.96 111.842 33.7867 111.842 37.04C111.842 39.5467 111.282 41.7867 110.162 43.76C109.042 45.68 107.416 47.28 105.282 48.56ZM90.1622 30.56C87.5489 30.56 85.4422 31.2 83.8422 32.48C82.2955 33.7067 81.5222 35.4133 81.5222 37.6C81.5222 39.7333 82.2955 41.4133 83.8422 42.64C85.3889 43.8667 87.4955 44.48 90.1622 44.48C92.8289 44.48 94.9622 43.8667 96.5622 42.64C98.1622 41.4133 98.9622 39.7333 98.9622 37.6C98.9622 35.4133 98.1622 33.7067 96.5622 32.48C94.9622 31.2 92.8289 30.56 90.1622 30.56ZM90.1622 69.44C93.4155 69.44 95.9755 68.72 97.8422 67.28C99.7622 65.7867 100.722 63.8133 100.722 61.36C100.722 58.9067 99.7622 56.96 97.8422 55.52C95.9755 54.08 93.4155 53.36 90.1622 53.36C86.9622 53.36 84.4289 54.08 82.5622 55.52C80.6955 56.96 79.7622 58.9067 79.7622 61.36C79.7622 63.8667 80.6955 65.84 82.5622 67.28C84.4289 68.72 86.9622 69.44 90.1622 69.44Z" fill="white"/>
</svg>
