<svg width="264" height="193" viewBox="0 0 264 193" fill="none" xmlns="http://www.w3.org/2000/svg">
<path fill-rule="evenodd" clip-rule="evenodd" d="M30 6L234 6.00001C250.569 6.00001 264 19.4315 264 36V70.6236L261.534 74.0591H260.009C259.413 74.0591 258.842 74.2957 258.421 74.7168C258 75.1379 257.763 75.7091 257.763 76.3046V83.0413C257.763 83.6369 258 84.208 258.421 84.6292C258.842 85.0503 259.413 85.2869 260.009 85.2869H261.319V101.16C260.933 100.966 260.506 100.865 260.074 100.864H253.562C252.828 100.862 252.124 101.152 251.604 101.668C251.084 102.185 250.789 102.886 250.785 103.62V107.8H248.952C248.588 107.799 248.227 107.87 247.89 108.008C247.554 108.147 247.248 108.35 246.99 108.607C246.732 108.864 246.527 109.169 246.388 109.505C246.248 109.841 246.175 110.201 246.175 110.565L246.215 119.307C245.719 118.901 245.096 118.679 244.454 118.68H237.802C237.069 118.678 236.365 118.967 235.845 119.484C235.324 120 235.03 120.702 235.026 121.435V125.39H232.261V121.435C232.258 120.702 231.963 120 231.443 119.483C230.922 118.967 230.218 118.678 229.485 118.68H227.005V113.045H231.4C231.995 113.045 232.567 112.809 232.988 112.388C233.409 111.966 233.645 111.395 233.645 110.8V85.5822C233.637 84.6009 233.239 83.6633 232.539 82.975C231.84 82.2866 230.896 81.9039 229.915 81.9107H224.763C223.782 81.9039 222.838 82.2866 222.139 82.975C221.439 83.6633 221.041 84.6009 221.033 85.5822V89.3532H219.124V85.5818C219.115 84.603 218.719 83.6676 218.022 82.9798C217.326 82.2921 216.385 81.9078 215.407 81.911V63.5798H217.223C217.819 63.5798 218.39 63.3432 218.811 62.9221C219.232 62.501 219.469 61.9298 219.469 61.3343V54.5976C219.469 54.002 219.232 53.4309 218.811 53.0098C218.39 52.5886 217.819 52.3521 217.223 52.3521H215.607L207.555 40.3514V35.2989L220.754 35.2615C221.214 35.2603 221.662 35.1181 222.038 34.8542C222.414 34.5903 222.701 34.2173 222.858 33.7856C223.016 33.3539 223.037 32.8843 222.919 32.4402C222.801 31.996 222.55 31.5987 222.199 31.3018L217.884 27.6487L222.519 23.8271C222.876 23.5331 223.134 23.136 223.257 22.6902C223.379 22.2444 223.362 21.7715 223.206 21.3362C223.049 20.9009 222.763 20.5243 222.385 20.258C222.007 19.9918 221.556 19.8487 221.093 19.8484L207.058 19.8394C206.767 19.477 206.371 19.2139 205.924 19.0863C205.477 18.9587 205.002 18.9729 204.563 19.127C204.125 19.2811 203.745 19.5674 203.476 19.9465C203.207 20.3256 203.063 20.7788 203.062 21.2436V40.3365L194.439 52.3521H192.914C192.318 52.3521 191.747 52.5886 191.326 53.0098C190.905 53.4309 190.668 54.002 190.668 54.5976V61.3343C190.668 61.9298 190.905 62.501 191.326 62.9221C191.747 63.3432 192.318 63.5798 192.914 63.5798H194.224V81.9649C193.361 82.102 192.574 82.5407 192.004 83.2029C191.434 83.8652 191.118 84.7081 191.111 85.5818V89.3532H188.463V85.5818C188.454 84.6005 188.056 83.6629 187.357 82.9746C186.658 82.2863 185.714 81.9035 184.732 81.9103H180.219C179.723 81.908 179.231 82.0048 178.773 82.1949C178.314 82.385 177.898 82.6646 177.549 83.0174C177.208 83.3576 176.939 83.7623 176.757 84.2077C176.575 84.6532 176.484 85.1305 176.489 85.6117L176.699 110.822C176.704 111.415 176.943 111.981 177.364 112.398C177.784 112.815 178.353 113.049 178.945 113.049H182.704L182.71 118.68H180.165C179.432 118.678 178.728 118.967 178.207 119.484C177.687 120 177.392 120.702 177.389 121.435V125.39H174.889V121.435C174.885 120.702 174.591 120 174.07 119.484C173.55 118.967 172.846 118.678 172.113 118.68H165.723C165.069 118.679 164.436 118.91 163.935 119.331L163.958 110.561V110.555C163.955 109.821 163.66 109.12 163.14 108.603C162.619 108.087 161.915 107.798 161.182 107.8H159.348V103.62C159.344 102.886 159.05 102.185 158.529 101.668C158.009 101.152 157.305 100.862 156.572 100.864H150.062C149.658 100.865 149.259 100.953 148.893 101.124V85.2869H150.71C151.306 85.2869 151.877 85.0503 152.298 84.6292C152.719 84.208 152.956 83.6369 152.956 83.0413V76.3046C152.956 75.7091 152.719 75.1379 152.298 74.7168C151.877 74.2957 151.306 74.0591 150.71 74.0591H149.094L141.168 62.2456V57.0033L154.368 56.9659C154.827 56.9647 155.275 56.8225 155.651 56.5586C156.028 56.2947 156.314 55.9217 156.471 55.49C156.629 55.0583 156.65 54.5887 156.532 54.1446C156.414 53.7004 156.163 53.3031 155.812 53.0063L151.497 49.3531L156.133 45.5334C156.49 45.2394 156.747 44.8423 156.87 44.3965C156.993 43.9507 156.975 43.4778 156.819 43.0425C156.663 42.6071 156.376 42.2306 155.998 41.9643C155.62 41.698 155.169 41.555 154.706 41.5547L140.672 41.5457C140.381 41.1833 139.984 40.9202 139.537 40.7926C139.09 40.665 138.615 40.6792 138.176 40.8333C137.738 40.9873 137.358 41.2737 137.089 41.6528C136.82 42.0319 136.676 42.4851 136.675 42.9499V61.8676L127.925 74.0591H126.398C125.803 74.0591 125.232 74.2957 124.811 74.7168C124.39 75.1379 124.153 75.7091 124.153 76.3046V83.0413C124.153 83.6369 124.39 84.208 124.811 84.6292C125.232 85.0503 125.803 85.2869 126.398 85.2869H127.708V101.324C127.254 101.024 126.721 100.864 126.176 100.864H120.012C119.279 100.862 118.574 101.152 118.054 101.668C117.534 102.185 117.239 102.886 117.235 103.62V107.8H115.776C115.043 107.798 114.339 108.087 113.819 108.603C113.298 109.12 113.004 109.822 113 110.555V133.505C113 134.1 113.237 134.671 113.658 135.092C114.079 135.514 114.65 135.75 115.246 135.75H117.883V193H30C13.4315 193 0 179.569 0 163L6.86269e-06 36C7.58692e-06 19.4315 13.4315 6 30 6ZM180.922 191.89C178.311 192.621 175.593 193 172.837 193H159.624V144.478L168.39 144.47C168.986 144.47 169.557 144.234 169.978 143.813C170.399 143.392 170.636 142.82 170.636 142.225C170.636 141.629 170.399 141.058 169.978 140.637C169.557 140.216 168.986 139.979 168.39 139.979L159.626 139.986V135.75H161.654C162.248 135.75 162.818 135.514 163.239 135.095C163.66 134.675 163.898 134.105 163.899 133.511L163.909 129.882H164.663C165.397 129.884 166.101 129.595 166.621 129.078C167.141 128.562 167.436 127.86 167.44 127.127V123.171H170.398V127.126C170.402 127.859 170.697 128.561 171.217 129.077C171.738 129.594 172.442 129.883 173.175 129.881H179.104C179.837 129.883 180.541 129.594 181.061 129.077C181.582 128.561 181.876 127.859 181.88 127.126V123.171H185.569V127.126C185.573 127.859 185.867 128.561 186.388 129.077C186.908 129.594 187.612 129.883 188.345 129.881H194.023C194.756 129.883 195.46 129.594 195.981 129.077C196.501 128.561 196.795 127.859 196.799 127.126V123.171H199.606V127.536C199.61 128.269 199.904 128.971 200.425 129.487C200.945 130.004 201.649 130.293 202.382 130.291H208.177C208.544 130.292 208.908 130.221 209.247 130.08C209.586 129.94 209.893 129.733 210.152 129.473C210.408 129.218 210.61 128.914 210.748 128.58C210.885 128.246 210.955 127.888 210.953 127.527L210.937 123.279H213.382V127.127C213.385 127.86 213.68 128.562 214.2 129.078C214.721 129.595 215.425 129.884 216.158 129.882H221.835C222.568 129.884 223.272 129.595 223.792 129.078C224.313 128.562 224.607 127.86 224.611 127.127V123.171H227.77V127.126C227.773 127.859 228.068 128.561 228.588 129.077C229.109 129.594 229.813 129.883 230.546 129.881H236.74C237.473 129.883 238.177 129.594 238.698 129.077C239.218 128.561 239.513 127.859 239.516 127.126V123.171H242.741V127.126C242.745 127.859 243.039 128.561 243.559 129.077C244.08 129.594 244.784 129.883 245.517 129.881H246.265L246.281 133.14C246.284 133.733 246.521 134.302 246.942 134.721C246.949 134.727 246.955 134.734 246.962 134.74L241.41 139.933L205.721 139.96C205.126 139.96 204.555 140.197 204.133 140.618C203.712 141.039 203.476 141.61 203.476 142.206C203.476 142.801 203.712 143.372 204.133 143.794C204.555 144.215 205.126 144.451 205.721 144.451L236.606 144.428L223.325 156.851C218.895 151.922 212.355 148.799 205.073 148.799C191.761 148.799 180.928 159.235 180.928 172.061L180.922 191.89ZM187.13 189.376C186.567 189.681 185.995 189.968 185.414 190.237L185.42 172.063C185.42 161.711 194.235 153.291 205.071 153.291C211.063 153.291 216.438 155.866 220.045 159.919L218.936 160.957C215.639 157.282 210.667 154.937 205.113 154.933H205.098C195.189 154.933 187.127 162.388 187.127 171.55L187.13 189.376ZM202.783 176.067L193.331 184.909C192.778 185.426 192.208 185.921 191.621 186.392L191.618 174.255L202.79 174.27L202.783 176.067ZM215.658 164.023L209.497 169.787L207.298 169.784L207.335 159.593C210.69 160.099 213.628 161.723 215.658 164.023ZM263.286 112.292C261.985 118.146 258.947 123.529 254.494 127.694L251.083 130.885H250.763L250.676 112.292H252.502C253.235 112.294 253.939 112.005 254.46 111.488C254.98 110.972 255.275 110.27 255.278 109.537V105.357H258.359V109.537C258.363 110.27 258.657 110.972 259.178 111.488C259.698 112.005 260.402 112.294 261.135 112.292H263.286ZM264 78.5502V80.7958H262.255V78.5502H264ZM139.33 87.3636H137.389C136.352 87.3647 135.358 87.7772 134.625 88.5105C133.891 89.2437 133.479 90.238 133.478 91.275V95.4424C133.479 96.4794 133.891 97.4737 134.625 98.207C135.358 98.9402 136.352 99.3527 137.389 99.3538H139.33C140.367 99.3523 141.361 98.9397 142.094 98.2064C142.827 97.4732 143.239 96.4792 143.24 95.4424V91.275C143.239 90.2382 142.827 89.2442 142.094 88.511C141.361 87.7777 140.367 87.3651 139.33 87.3636ZM138.749 94.8634H137.969V91.8547H138.749V94.8634ZM208.608 76.5005C207.874 77.2339 206.88 77.6464 205.843 77.6475L203.902 77.6468C202.865 77.6457 201.871 77.2333 201.137 76.5C200.404 75.7667 199.992 74.7724 199.991 73.7354V69.568C199.992 68.531 200.404 67.5368 201.137 66.8035C201.871 66.0702 202.865 65.6577 203.902 65.6566H205.843C206.88 65.6577 207.874 66.0702 208.607 66.8035C209.341 67.5368 209.753 68.531 209.754 69.568V73.7354C209.753 74.7726 209.341 75.767 208.608 76.5005ZM205.263 70.1478H204.482V73.1564H205.263V70.1478ZM199.266 139.963H199.267C199.862 139.963 200.433 140.2 200.854 140.621C201.275 141.042 201.512 141.613 201.512 142.209C201.512 142.804 201.275 143.375 200.854 143.797C200.433 144.218 199.862 144.454 199.266 144.454L180.46 144.464C179.864 144.464 179.293 144.228 178.872 143.807C178.451 143.386 178.214 142.814 178.214 142.219C178.214 141.623 178.451 141.052 178.872 140.631C179.293 140.21 179.864 139.973 180.46 139.973L199.266 139.963ZM174.472 139.976H174.464H174.089C173.494 139.977 172.923 140.215 172.503 140.637C172.083 141.059 171.847 141.631 171.848 142.226C171.849 142.822 172.087 143.392 172.509 143.813C172.931 144.233 173.503 144.469 174.098 144.467H174.107H174.481C175.077 144.466 175.647 144.229 176.068 143.807C176.488 143.385 176.723 142.813 176.722 142.218C176.721 141.622 176.483 141.051 176.061 140.631C175.64 140.211 175.068 139.975 174.472 139.976ZM141.397 148.702H132.887C132.292 148.702 131.72 148.465 131.299 148.044C130.878 147.623 130.642 147.052 130.642 146.456V140.561C130.642 139.965 130.878 139.394 131.299 138.973C131.72 138.552 132.292 138.315 132.887 138.315H141.397C141.992 138.315 142.563 138.552 142.985 138.973C143.406 139.394 143.642 139.965 143.642 140.561V146.456C143.642 147.052 143.406 147.623 142.985 148.044C142.563 148.465 141.992 148.702 141.397 148.702ZM139.151 142.806H135.133V144.211H139.151V142.806ZM136.215 175.242V181.138C136.215 181.733 136.451 182.304 136.872 182.725C137.293 183.147 137.865 183.383 138.46 183.383H146.97C147.565 183.383 148.136 183.147 148.558 182.725C148.979 182.304 149.215 181.733 149.215 181.138V175.242C149.215 174.647 148.979 174.076 148.558 173.654C148.136 173.233 147.565 172.997 146.97 172.997H138.46C137.865 172.997 137.293 173.233 136.872 173.654C136.451 174.076 136.215 174.647 136.215 175.242ZM140.706 177.488H144.724V178.892H140.706V177.488ZM214.84 24.3354L207.555 24.3309L207.556 30.8052L214.641 30.7854L213.761 30.0406C213.409 29.7423 213.127 29.3703 212.934 28.9508C212.741 28.5314 212.642 28.0747 212.645 27.6131C212.648 27.1514 212.753 26.6961 212.951 26.2791C213.149 25.8621 213.436 25.4937 213.792 25.1999L214.84 24.3354ZM148.453 46.0424L141.168 46.0379L141.168 52.5122L148.254 52.4924L147.374 51.7476C147.021 51.4493 146.739 51.0772 146.546 50.6577C146.353 50.2382 146.255 49.7815 146.258 49.3198C146.261 48.858 146.365 48.4026 146.563 47.9856C146.762 47.5687 147.049 47.2003 147.405 46.9066L148.453 46.0424ZM210.198 52.3521L205.255 44.9844L199.966 52.3521H210.198ZM214.977 56.8432H195.158L195.158 59.0887H214.977V56.8432ZM198.712 81.9103H198.94H198.94C199.922 81.903 200.866 82.2856 201.566 82.9739C202.266 83.6623 202.664 84.6002 202.673 85.5818V89.3532H207.493V85.5818C207.501 84.6543 207.857 83.7638 208.491 83.0866C209.125 82.4094 209.99 81.995 210.915 81.9256V63.5798H198.712V81.9103ZM180.984 86.4014L181.171 108.558L229.158 108.554V86.4014H225.526V90.1732C225.517 91.1544 225.119 92.092 224.419 92.7803C223.72 93.4685 222.776 93.8512 221.795 93.8443H218.365C217.384 93.8511 216.44 93.4684 215.74 92.7802C215.041 92.0919 214.643 91.1544 214.634 90.1732V86.4014H211.986V90.1732C211.977 91.1544 211.579 92.0919 210.88 92.7802C210.181 93.4684 209.237 93.8511 208.256 93.8443H202.463C201.328 93.843 200.239 93.3916 199.437 92.5891C198.634 91.7866 198.183 90.6985 198.181 89.5635V86.4014H195.598V90.1732C195.589 91.1544 195.191 92.092 194.491 92.7803C193.792 93.4685 192.848 93.8512 191.867 93.8443H187.698C186.717 93.8511 185.773 93.4684 185.074 92.7802C184.374 92.0919 183.976 91.1544 183.967 90.1732V86.4014H180.984ZM209.55 118.787H214.761C215.586 118.787 216.377 119.115 216.961 119.698C217.544 120.281 217.873 121.072 217.874 121.897V125.39H220.122V121.435C220.125 120.768 220.369 120.125 220.81 119.624C221.25 119.123 221.856 118.798 222.517 118.709V113.046L187.197 113.048L187.202 118.68H187.284C188.017 118.678 188.721 118.967 189.241 119.484C189.762 120 190.056 120.702 190.06 121.435V125.39H192.307V121.435C192.311 120.702 192.605 120 193.126 119.484C193.646 118.967 194.35 118.678 195.083 118.68H201.321C202.054 118.678 202.758 118.967 203.279 119.484C203.799 120 204.094 120.702 204.097 121.435V125.8H206.455L206.44 121.909C206.439 121.5 206.518 121.094 206.674 120.715C206.829 120.337 207.058 119.993 207.347 119.703C207.636 119.413 207.979 119.182 208.357 119.025C208.736 118.868 209.141 118.787 209.55 118.787ZM143.686 74.0591L138.742 66.6903L133.453 74.0591H143.686ZM148.463 78.5502H128.644V80.7958H148.463V78.5502ZM134.712 100.864H141.276H141.277C142.01 100.862 142.714 101.152 143.234 101.668C143.755 102.185 144.049 102.886 144.053 103.62V107.8H144.402V85.2869H132.199V102.455C132.425 101.979 132.78 101.577 133.225 101.295C133.67 101.014 134.186 100.864 134.712 100.864ZM152.646 162.415H155.132V161.011H152.646V162.415ZM150.932 156.519H155.132L155.133 135.75H122.374V154.721H126.537C127.27 154.719 127.974 155.008 128.494 155.524C129.015 156.041 129.309 156.742 129.313 157.475V162.352C129.309 163.085 129.015 163.787 128.494 164.303C127.974 164.82 127.27 165.109 126.537 165.107H122.374V188.97L155.133 189.068V166.905H150.932C150.199 166.907 149.495 166.618 148.974 166.101C148.454 165.585 148.16 164.883 148.156 164.15V159.274C148.16 158.541 148.454 157.839 148.975 157.322C149.495 156.806 150.199 156.517 150.932 156.519ZM122.374 159.212V160.616H124.822V159.212H122.374ZM117.491 131.259H159.412L159.462 112.291H157.633C156.9 112.293 156.196 112.004 155.675 111.487C155.155 110.971 154.861 110.269 154.857 109.536V105.355H151.776V109.536C151.772 110.269 151.478 110.971 150.958 111.487C150.437 112.004 149.733 112.293 149 112.291H142.338C141.605 112.293 140.901 112.004 140.381 111.487C139.86 110.971 139.566 110.269 139.562 109.536V105.355H136.426V109.536C136.423 110.269 136.128 110.971 135.608 111.487C135.087 112.004 134.383 112.293 133.65 112.291H127.238C126.504 112.293 125.8 112.004 125.28 111.487C124.76 110.971 124.465 110.269 124.461 109.536V105.355H121.727V109.536C121.723 110.269 121.429 110.971 120.908 111.487C120.388 112.004 119.684 112.293 118.951 112.291H117.491V131.259ZM191.766 169.764L202.806 169.779L202.844 159.596C197.125 160.466 192.619 164.586 191.766 169.764Z" fill="#D84E52"/>
<path d="M33.12 78.96C28.48 78.96 24.3467 77.8133 20.72 75.52C17.0933 73.2267 14.24 69.92 12.16 65.6C10.1333 61.2267 9.12 56.0267 9.12 50C9.12 43.9733 10.1333 38.8 12.16 34.48C14.24 30.1067 17.0933 26.7733 20.72 24.48C24.3467 22.1867 28.48 21.04 33.12 21.04C37.76 21.04 41.8933 22.1867 45.52 24.48C49.1467 26.7733 51.9733 30.1067 54 34.48C56.08 38.8 57.12 43.9733 57.12 50C57.12 56.0267 56.08 61.2267 54 65.6C51.9733 69.92 49.1467 73.2267 45.52 75.52C41.8933 77.8133 37.76 78.96 33.12 78.96ZM33.12 68C36.5333 68 39.2 66.5333 41.12 63.6C43.0933 60.6667 44.08 56.1333 44.08 50C44.08 43.8667 43.0933 39.3333 41.12 36.4C39.2 33.4667 36.5333 32 33.12 32C29.76 32 27.0933 33.4667 25.12 36.4C23.2 39.3333 22.24 43.8667 22.24 50C22.24 56.1333 23.2 60.6667 25.12 63.6C27.0933 66.5333 29.76 68 33.12 68ZM110.144 22V30.4L89.3444 78H75.2644L95.3444 32.56H76.7844V41.68H65.2644V22H110.144Z" fill="white"/>
</svg>
