<svg width="264" height="193" viewBox="0 0 264 193" fill="none" xmlns="http://www.w3.org/2000/svg">
<path fill-rule="evenodd" clip-rule="evenodd" d="M234 6.00001L30 6C13.4315 6 7.58692e-06 19.4315 6.86269e-06 36L0 163C0 179.569 13.4315 193 30 193H172.837C180.448 193 187.774 190.108 193.331 184.909L196.171 182.253C194.164 181.016 192.196 179.641 190.28 178.11C190.189 178.038 190.103 177.961 190.02 177.879L184.048 172.006H161.392C159.526 172.006 158.013 170.493 158.013 168.627C158.013 166.761 159.526 165.248 161.392 165.248H177.176L166.687 154.932H144.846C142.981 154.932 141.467 153.42 141.467 151.554C141.467 149.687 142.981 148.175 144.846 148.175H159.816L118.01 107.06C117.364 106.425 117.001 105.558 117 104.653C117 103.748 117.362 102.88 118.007 102.245L128.167 92.2315L163.644 53.083C164.475 52.1653 165.742 51.776 166.946 52.0686C168.15 52.3613 169.097 53.2891 169.414 54.4863C169.834 56.0717 170.391 57.6685 171.072 59.256L187.737 36.6892L187.745 36.6777L199.048 21.3718C199.685 20.5089 200.694 20 201.766 20H259.382C254.067 11.5873 244.686 6.00001 234 6.00001ZM263.427 30.1336L217.571 84.5695L226.235 134.652C229.046 137.15 234.372 139.105 239.986 141.166L239.989 141.167L239.99 141.167L240.063 141.194L254.494 127.694C260.558 122.021 264 114.089 264 105.785V36C264 33.9924 263.803 32.0308 263.427 30.1336ZM234.543 146.357C228.861 144.219 223.719 141.986 220.597 138.575C220.161 138.098 219.87 137.507 219.76 136.87L217.499 123.799H203.632C201.766 123.799 200.253 122.286 200.253 120.42C200.253 118.554 201.766 117.041 203.632 117.041H216.33L214.992 109.308H198.374C196.508 109.308 194.995 107.795 194.995 105.929C194.995 104.063 196.508 102.55 198.374 102.55H213.823L211.134 87.006L211.077 87.0068L211.026 87.0074C199.401 87.1564 188.42 87.2969 179.21 80.4614C174.959 77.3065 170.972 72.8203 167.912 67.8124C167.696 67.5482 167.526 67.2579 167.401 66.9501C166.883 66.0611 166.391 65.1589 165.936 64.2449C165.539 63.4489 165.169 62.6474 164.826 61.8425L135.29 94.4342L196.943 154.962L196.961 154.981L196.989 155.009C202.038 160.163 207.404 163.809 213.16 166.36L234.543 146.357ZM207.878 171.301C202.422 168.559 197.152 164.827 192.185 159.762L130.611 99.3107L125.195 104.649L194.632 172.938C196.784 174.645 199.02 176.138 201.314 177.441L207.878 171.301ZM257.434 26.7578H203.472L195.403 37.6846C199.663 40.1683 204.641 43.0013 209.85 45.9661L209.859 45.9714C217.121 50.1045 224.6 54.3609 230.986 58.1541L257.434 26.7578ZM206.494 51.8319L206.493 51.8314C201.014 48.7131 195.791 45.74 191.365 43.1524L174.643 65.7958C177.094 69.4569 180.085 72.6946 183.238 75.0345C190.615 80.5099 200.034 80.3894 210.938 80.2499H210.939C211.07 80.2482 211.202 80.2467 211.333 80.2452C211.684 80.2413 212.036 80.2378 212.387 80.2336L226.572 63.3941C220.453 59.7773 213.389 55.7561 206.516 51.8446L206.494 51.8319ZM134.365 148.175H134.192C132.326 148.175 130.813 149.688 130.813 151.554C130.813 153.42 132.326 154.933 134.192 154.933H134.365C136.23 154.933 137.743 153.42 137.743 151.554C137.743 149.688 136.231 148.175 134.365 148.175ZM151.098 165.249H151.272C153.138 165.249 154.651 166.761 154.651 168.628C154.651 170.494 153.138 172.006 151.272 172.006H151.098C149.232 172.006 147.719 170.494 147.719 168.628C147.719 166.761 149.232 165.249 151.098 165.249Z" fill="#D84E52"/>
<path d="M33.5903 78.96C28.9503 78.96 24.817 77.8133 21.1903 75.52C17.5636 73.2267 14.7103 69.92 12.6303 65.6C10.6036 61.2267 9.59031 56.0267 9.59031 50C9.59031 43.9733 10.6036 38.8 12.6303 34.48C14.7103 30.1067 17.5636 26.7733 21.1903 24.48C24.817 22.1867 28.9503 21.04 33.5903 21.04C38.2303 21.04 42.3636 22.1867 45.9903 24.48C49.617 26.7733 52.4436 30.1067 54.4703 34.48C56.5503 38.8 57.5903 43.9733 57.5903 50C57.5903 56.0267 56.5503 61.2267 54.4703 65.6C52.4436 69.92 49.617 73.2267 45.9903 75.52C42.3636 77.8133 38.2303 78.96 33.5903 78.96ZM33.5903 68C37.0036 68 39.6703 66.5333 41.5903 63.6C43.5636 60.6667 44.5503 56.1333 44.5503 50C44.5503 43.8667 43.5636 39.3333 41.5903 36.4C39.6703 33.4667 37.0036 32 33.5903 32C30.2303 32 27.5636 33.4667 25.5903 36.4C23.6703 39.3333 22.7103 43.8667 22.7103 50C22.7103 56.1333 23.6703 60.6667 25.5903 63.6C27.5636 66.5333 30.2303 68 33.5903 68ZM92.4659 44.8C97.3726 45.6 101.133 47.44 103.746 50.32C106.359 53.1467 107.666 56.6667 107.666 60.88C107.666 64.1333 106.813 67.1467 105.106 69.92C103.399 72.64 100.786 74.8267 97.2659 76.48C93.7993 78.1333 89.5326 78.96 84.4659 78.96C80.5193 78.96 76.6259 78.4533 72.7859 77.44C68.9993 76.3733 65.7726 74.88 63.1059 72.96L68.1459 63.04C70.2793 64.64 72.7326 65.8933 75.5059 66.8C78.3326 67.6533 81.2126 68.08 84.1459 68.08C87.3993 68.08 89.9593 67.4667 91.8259 66.24C93.6926 64.96 94.6259 63.1733 94.6259 60.88C94.6259 56.2933 91.1326 54 84.1459 54H78.2259V45.44L89.7459 32.4H65.9059V22H105.106V30.4L92.4659 44.8Z" fill="white"/>
</svg>
