<svg width="264" height="193" viewBox="0 0 264 193" fill="none" xmlns="http://www.w3.org/2000/svg">
<path fill-rule="evenodd" clip-rule="evenodd" d="M234 6.00001L30 6C13.4315 6 7.58692e-06 19.4315 6.86269e-06 36L0 163C0 179.569 13.4315 193 30 193H172.837C180.448 193 187.774 190.108 193.331 184.909L203.924 175H135.352C130.596 175 126.741 171.144 126.741 166.389V126.442C123.313 125.218 121.018 121.979 121 118.338V54.4444C121 49.689 124.856 45.8333 129.611 45.8333H166.926V34.3519C166.936 26.4289 173.355 20.0098 181.278 20H232.944C240.867 20.0098 247.286 26.4289 247.296 34.3519V45.8333H264V36C264 19.4315 250.569 6.00001 234 6.00001ZM264 51.5741H129.611C128.026 51.5741 126.741 52.8593 126.741 54.4444V118.338C126.739 119.771 127.795 120.984 129.212 121.183L195.63 130.342V126.204C195.63 121.448 199.485 117.593 204.241 117.593H209.981C214.737 117.593 218.593 121.448 218.593 126.204V130.342L257.001 125.046C261.498 119.676 264 112.866 264 105.785V51.5741ZM250.115 131.79L218.593 136.138V143.426C218.593 148.181 214.737 152.037 209.981 152.037H204.241C199.485 152.037 195.63 148.181 195.63 143.426V136.138L132.481 127.429V166.389C132.481 167.974 133.767 169.259 135.352 169.259H210.061L250.115 131.79ZM181.278 25.7407C176.522 25.7407 172.667 29.5964 172.667 34.3519V45.8333H178.407V34.3519C178.407 32.7667 179.693 31.4815 181.278 31.4815H232.944C234.53 31.4815 235.815 32.7667 235.815 34.3519V45.8333H241.556V34.3519C241.556 29.5964 237.7 25.7407 232.944 25.7407H181.278ZM184.148 45.8333H230.074V37.2222H184.148V45.8333ZM209.981 146.296C211.567 146.296 212.852 145.011 212.852 143.426V126.204C212.852 124.619 211.567 123.333 209.981 123.333H204.241C202.656 123.333 201.37 124.619 201.37 126.204V143.426C201.37 145.011 202.656 146.296 204.241 146.296H209.981Z" fill="#D84E52"/>
<path d="M41.7919 22V78H28.8319V32.4H17.6319V22H41.7919ZM76.32 22V78H63.36V32.4H52.16V22H76.32Z" fill="white"/>
</svg>
