<svg width="264" height="193" viewBox="0 0 264 193" fill="none" xmlns="http://www.w3.org/2000/svg">
<path fill-rule="evenodd" clip-rule="evenodd" d="M30 6L234 6.00001C250.569 6.00001 264 19.4315 264 36V64.0776C262.359 62.1941 260.174 60.7491 257.597 60.0173C257.405 59.9629 257.211 59.9143 257.017 59.8685C257.107 54.0226 255.664 48.2295 252.74 42.9864C248.354 35.1221 241.168 29.4359 232.506 26.9761C224.062 24.578 215.148 25.5356 207.408 29.6746C201.947 32.5946 197.484 36.8814 194.379 42.0793C194.186 42.015 193.991 41.9542 193.795 41.8988C186.714 39.8885 179.316 44.013 177.305 51.0947C175.344 57.9995 179.218 65.2017 185.976 67.4219L185.734 68.2761C183.274 76.9383 184.334 86.0395 188.72 93.9042C193.106 101.769 200.292 107.455 208.953 109.914C211.965 110.769 215.074 111.198 218.182 111.198C220.775 111.198 223.366 110.9 225.894 110.302C227.225 109.987 228.048 108.653 227.734 107.323C227.419 105.992 226.083 105.169 224.755 105.483C220.014 106.604 215.018 106.489 210.306 105.151C202.916 103.053 196.786 98.202 193.044 91.4926C189.303 84.7832 188.398 77.0185 190.497 69.6288L192.929 61.063C193.303 59.748 192.539 58.3788 191.224 58.0051C189.909 57.6314 188.54 58.3949 188.166 59.7103L187.33 62.6531C185.407 61.9711 183.815 60.6316 182.811 58.833C181.718 56.8732 181.455 54.6055 182.067 52.4474C183.304 48.0962 187.773 45.5215 192.129 46.5814C191.81 47.3614 191.51 48.1516 191.247 48.9603C190.824 50.2606 191.535 51.6572 192.835 52.0803C194.134 52.5022 195.532 51.7922 195.955 50.4916C197.377 46.1193 199.74 42.3252 202.743 39.2528C206.902 47.9126 214.639 54.4943 223.943 57.1363C226.999 58.0041 230.11 58.4339 233.202 58.4339C238.874 58.4339 244.482 56.9874 249.57 54.148C250.178 53.809 250.773 53.4456 251.359 53.0699C252.412 57.707 252.298 62.56 250.962 67.2621L245.828 85.3424C243.954 91.9422 239.776 97.6619 234.064 101.448C232.924 102.204 232.613 103.74 233.368 104.88C233.845 105.598 234.632 105.988 235.434 105.988C235.904 105.988 236.379 105.854 236.8 105.575C243.497 101.136 248.394 94.4307 250.591 86.6947L250.835 85.8355C251.874 86.0854 252.916 86.2131 253.944 86.2131C257.816 86.2129 261.486 84.5132 264 81.6469V105.785C264 114.089 260.558 122.021 254.494 127.694L238.831 142.346C238.774 142.242 238.713 142.141 238.648 142.041C237.822 140.761 236.484 139.9 234.977 139.68L215.766 136.871C213.163 136.492 210.656 138.11 209.93 140.637L208.807 144.548C208.081 147.075 209.349 149.779 211.756 150.837L224 156.219L219.511 160.419L206.512 153.415C204.197 152.167 201.286 152.83 199.74 154.957L197.347 158.248L197.347 158.248L197.347 158.248C195.801 160.374 196.068 163.348 197.967 165.166L206.109 172.955L193.331 184.909C187.774 190.108 180.448 193 172.837 193H30C13.4315 193 0 179.569 0 163L6.86269e-06 36C7.58692e-06 19.4315 13.4315 6 30 6ZM204.164 157.773L215.696 163.987L209.731 169.567L201.39 161.588C201.273 161.475 201.256 161.291 201.352 161.16L203.745 157.868C203.84 157.738 204.02 157.696 204.164 157.773ZM234.527 144.992L233.985 146.879L227.934 152.54L213.748 146.303C213.599 146.238 213.521 146.071 213.566 145.915L214.689 142.004C214.73 141.863 214.86 141.767 215.003 141.767C215.018 141.767 215.034 141.768 215.05 141.771L234.261 144.579C234.358 144.593 234.434 144.642 234.488 144.725C234.541 144.807 234.554 144.897 234.527 144.992ZM196.973 131.019C198.76 127.85 199.206 124.174 198.228 120.669C197.251 117.164 194.967 114.25 191.797 112.462C188.773 110.758 185.29 110.277 181.932 111.084L175.12 86.6561C173.324 80.2204 166.628 76.4452 160.193 78.2399L150.65 80.9014C149.333 81.2687 148.563 82.634 148.93 83.951C149.298 85.2681 150.664 86.0382 151.98 85.6705L161.523 83.009C165.328 81.9487 169.288 84.1801 170.35 87.9864L178.372 116.75L155.134 123.231C150.424 124.545 145.489 123.594 141.595 120.623C137.265 117.32 131.888 116.232 126.842 117.64L117.975 120.113L115.088 109.762C114.027 105.956 116.26 101.997 120.065 100.935L122.031 100.387C125.587 99.3952 128.986 100.054 129.045 100.066L129.046 100.066C129.892 100.243 130.769 99.9656 131.36 99.3348C131.951 98.7037 132.17 97.8101 131.938 96.9777C131.122 94.0531 132.838 91.01 135.762 90.1943L141.296 88.6508C142.613 88.2838 143.383 86.9182 143.016 85.6012C142.649 84.2838 141.283 83.5147 139.966 83.8817L134.432 85.4252C130.018 86.6561 127.054 90.5584 126.8 94.8961C125.116 94.8572 122.951 94.9905 120.701 95.618L118.735 96.1663C112.3 97.961 108.524 104.657 110.319 111.093L115.485 129.617C108.544 131.829 104.529 139.179 106.502 146.253C108.18 152.268 113.668 156.217 119.629 156.217C120.676 156.217 121.738 156.087 122.797 155.833L123.058 156.772C127.307 172.004 141.2 182.001 156.294 182.001C159.353 182.001 162.461 181.591 165.548 180.73C183.868 175.62 194.615 156.56 189.506 138.24L189.245 137.306C192.535 136.258 195.268 134.043 196.973 131.019ZM111.271 144.921C110.032 140.477 112.505 135.861 116.816 134.388L121.466 151.064C117.015 152.034 112.511 149.365 111.271 144.921ZM164.218 175.959C148.528 180.334 132.204 171.13 127.828 155.44L119.305 124.882L128.172 122.409C131.709 121.422 135.507 122.206 138.592 124.559C142.216 127.324 146.524 128.763 150.93 128.763C152.772 128.763 154.631 128.512 156.465 128L179.702 121.519L184.736 139.568C189.112 155.258 179.908 171.583 164.218 175.959ZM192.66 128.588C191.604 130.459 189.931 131.844 187.914 132.532L183.264 115.856C185.346 115.401 187.494 115.72 189.365 116.775C191.383 117.913 192.837 119.768 193.459 121.999C194.081 124.23 193.797 126.57 192.66 128.588ZM149.534 150.343L171.578 144.195C172.894 143.828 174.26 144.598 174.627 145.915C175.626 149.496 175.17 153.252 173.344 156.49C171.519 159.728 168.541 162.062 164.96 163.061C163.714 163.408 162.46 163.574 161.226 163.574C155.135 163.574 149.529 159.54 147.814 153.393C147.637 152.761 147.72 152.084 148.042 151.512C148.365 150.94 148.901 150.52 149.534 150.343ZM163.63 158.292C165.937 157.648 167.855 156.145 169.032 154.059C169.791 152.712 170.182 151.227 170.191 149.722L153.583 154.354C155.627 157.672 159.693 159.389 163.63 158.292ZM149.714 141.776C148.672 138.039 144.783 135.846 141.045 136.888C137.308 137.93 135.115 141.819 136.157 145.557C136.463 146.651 137.457 147.368 138.541 147.368C138.761 147.368 138.985 147.338 139.207 147.277C140.524 146.909 141.294 145.544 140.927 144.227C140.618 143.119 141.268 141.966 142.375 141.657C143.483 141.349 144.636 141.998 144.945 143.106C145.313 144.423 146.679 145.193 147.995 144.826C149.312 144.458 150.082 143.093 149.714 141.776ZM165.157 137.469C164.115 133.731 166.308 129.843 170.046 128.8C173.783 127.757 177.672 129.95 178.714 133.687C179.081 135.005 178.312 136.37 176.995 136.737C175.678 137.106 174.313 136.335 173.945 135.018C173.636 133.91 172.483 133.261 171.376 133.569C170.268 133.878 169.618 135.031 169.927 136.139C170.294 137.456 169.524 138.821 168.207 139.189C167.985 139.25 167.761 139.28 167.541 139.28C166.457 139.28 165.463 138.563 165.157 137.469ZM247.159 49.8232C240.452 53.5664 232.687 54.4718 225.296 52.3725C216.932 49.9972 210.053 43.8872 206.665 35.9037C213.519 31.0481 222.424 29.2597 231.154 31.739C238.544 33.8373 244.674 38.6883 248.416 45.3977C248.921 46.3041 249.37 47.2313 249.772 48.1728C248.933 48.7656 248.06 49.3205 247.159 49.8232ZM262.03 75.1548C261.417 77.3133 260 79.1034 258.041 80.1963C256.242 81.1998 254.183 81.5024 252.188 81.0717L255.726 68.6141C256.078 67.3766 256.354 66.1302 256.563 64.8795C260.822 66.2718 263.264 70.8073 262.03 75.1548ZM214.721 93.8577C213.491 93.8577 212.241 93.6897 211 93.3375C207.496 92.3419 204.588 90.0415 202.814 86.8598C201.039 83.6774 200.61 79.9953 201.606 76.4904C201.979 75.175 203.349 74.4118 204.664 74.7852L226.142 80.8849C227.457 81.2585 228.22 82.6277 227.847 83.9428C226.144 89.9366 220.665 93.8577 214.721 93.8577ZM212.353 88.5743C216.134 89.6484 220.054 88.0339 222.062 84.8737L206.035 80.3221C206.05 81.752 206.422 83.1641 207.138 84.4482C208.269 86.4749 210.12 87.9405 212.353 88.5743ZM206.699 68.8505C206.925 68.9145 207.153 68.9452 207.377 68.9452C208.456 68.9452 209.448 68.2342 209.757 67.1449C210.8 63.4714 208.66 59.6341 204.986 58.5907C203.206 58.0853 201.337 58.3032 199.721 59.204C198.105 60.1051 196.937 61.5816 196.432 63.3611C196.059 64.6762 196.822 66.0454 198.138 66.4187C199.452 66.7917 200.822 66.0282 201.195 64.7132C201.34 64.2062 201.672 63.7853 202.133 63.5285C202.594 63.2717 203.126 63.2093 203.634 63.3535C204.681 63.6509 205.291 64.7449 204.994 65.7922C204.62 67.1083 205.384 68.4772 206.699 68.8505ZM235.632 76.9697C235.408 76.9697 235.18 76.939 234.954 76.8749C233.639 76.5013 232.875 75.1321 233.249 73.8164C233.547 72.7693 232.937 71.6754 231.889 71.378C231.382 71.2337 230.849 71.2958 230.389 71.5529C229.928 71.8097 229.595 72.2306 229.451 72.738C229.077 74.0534 227.707 74.8159 226.393 74.4432C225.078 74.0695 224.314 72.7003 224.688 71.3852C225.193 69.6057 226.361 68.1293 227.977 67.2284C229.592 66.3276 231.462 66.1101 233.242 66.6151C236.916 67.6589 239.055 71.4962 238.012 75.1697C237.703 76.259 236.711 76.9697 235.632 76.9697ZM206.866 126.745L206.584 122.686C206.402 120.063 208.206 117.684 210.78 117.152L229.792 113.22C231.283 112.912 232.836 113.262 234.05 114.183C235.264 115.103 236.021 116.502 236.126 118.022L236.769 127.277C236.874 128.797 236.319 130.288 235.244 131.367C234.25 132.365 232.903 132.921 231.505 132.921C231.39 132.921 231.276 132.917 231.161 132.909L211.787 131.646C209.164 131.475 207.048 129.368 206.866 126.745ZM230.795 118.069L211.782 122C211.624 122.033 211.512 122.18 211.524 122.343L211.806 126.402C211.806 126.402 211.806 126.402 211.806 126.402C211.817 126.564 211.948 126.695 212.11 126.705L231.484 127.969C231.581 127.975 231.667 127.943 231.736 127.873C231.805 127.804 231.837 127.718 231.83 127.62L231.187 118.365C231.18 118.267 231.137 118.188 231.059 118.128C231 118.084 230.936 118.061 230.866 118.061C230.857 118.061 230.849 118.061 230.84 118.062L230.831 118.063L230.824 118.064L230.812 118.066C230.806 118.066 230.801 118.068 230.795 118.069ZM152.971 53.8298L135.265 45.8655C133.875 45.2406 132.824 44.046 132.38 42.5887C131.937 41.1313 132.145 39.5542 132.95 38.2612L137.856 30.3876C138.662 29.0947 139.986 28.213 141.49 27.9691C142.995 27.7251 144.529 28.1424 145.702 29.1138L160.654 41.4984C162.679 43.1752 163.158 46.1223 161.768 48.3537H161.767L159.615 51.8074C158.627 53.3928 156.899 54.2906 155.121 54.2906C154.397 54.2906 153.665 54.1418 152.971 53.8298ZM142.058 33.0059L137.153 40.8798C137.1 40.9633 137.088 41.0534 137.117 41.1472C137.146 41.2413 137.206 41.3093 137.295 41.3499L155.002 49.3139C155.151 49.3812 155.327 49.3264 155.413 49.1888L157.565 45.7351C157.651 45.5971 157.621 45.4149 157.496 45.3116L142.544 32.927C142.483 32.8768 142.415 32.8514 142.34 32.8514C142.321 32.8514 142.303 32.8531 142.283 32.856C142.186 32.8719 142.11 32.9224 142.058 33.0059ZM134.783 72.8452L154.145 74.2735C154.275 74.283 154.404 74.2877 154.532 74.2877C156.998 74.2877 159.181 72.5458 159.697 70.1005L160.538 66.1186C161.081 63.5466 159.624 60.9405 157.148 60.0572L138.862 53.5337C137.427 53.0221 135.842 53.1547 134.512 53.8984C133.183 54.6421 132.239 55.9235 131.925 57.4135L130.007 66.491C129.693 67.9817 130.037 69.5347 130.952 70.7524C131.868 71.9708 133.264 72.7333 134.783 72.8452ZM134.852 67.5146L136.769 58.4372C136.79 58.3411 136.844 58.2681 136.929 58.2203C136.98 58.1919 137.032 58.1777 137.086 58.1777C137.123 58.1777 137.16 58.1846 137.198 58.1978L155.484 64.7214C155.637 64.7762 155.727 64.9369 155.694 65.096L154.853 69.0779C154.819 69.2367 154.676 69.3433 154.51 69.336L135.147 67.9077C135.049 67.9005 134.97 67.8569 134.911 67.7783C134.851 67.6994 134.831 67.6106 134.852 67.5146ZM171.24 42.8108C169.903 42.8108 168.57 42.3087 167.556 41.3214L153.641 27.7815C152.55 26.719 151.97 25.2372 152.052 23.7162C152.134 22.1951 152.868 20.784 154.067 19.8445L161.37 14.1235C162.569 13.184 164.114 12.8077 165.612 13.0936C167.108 13.3784 168.408 14.2958 169.178 15.6102L178.994 32.3615C180.322 34.6295 179.764 37.5624 177.695 39.1838C177.695 39.1841 177.695 39.1841 177.695 39.1841L174.491 41.6938C173.536 42.4421 172.387 42.8108 171.24 42.8108ZM164.424 18.0211L157.121 23.7426C157.043 23.8033 157.001 23.8835 156.996 23.9819C156.991 24.0799 157.024 24.1644 157.094 24.2331L171.009 37.773C171.126 37.8865 171.31 37.8964 171.438 37.7957L174.641 35.2867C174.769 35.1864 174.804 35.0048 174.721 34.8646L164.907 18.1132C164.857 18.0284 164.783 17.9762 164.686 17.9578C164.664 17.9531 164.642 17.9512 164.621 17.9512C164.55 17.9512 164.484 17.9746 164.424 18.0211Z" fill="#D84E52"/>
<path d="M41.8075 22V78H28.8475V32.4H17.6475V22H41.8075ZM78.7356 78.96C74.0956 78.96 69.9623 77.8133 66.3356 75.52C62.709 73.2267 59.8556 69.92 57.7756 65.6C55.749 61.2267 54.7356 56.0267 54.7356 50C54.7356 43.9733 55.749 38.8 57.7756 34.48C59.8556 30.1067 62.709 26.7733 66.3356 24.48C69.9623 22.1867 74.0956 21.04 78.7356 21.04C83.3756 21.04 87.509 22.1867 91.1356 24.48C94.7623 26.7733 97.589 30.1067 99.6156 34.48C101.696 38.8 102.736 43.9733 102.736 50C102.736 56.0267 101.696 61.2267 99.6156 65.6C97.589 69.92 94.7623 73.2267 91.1356 75.52C87.509 77.8133 83.3756 78.96 78.7356 78.96ZM78.7356 68C82.149 68 84.8156 66.5333 86.7356 63.6C88.709 60.6667 89.6956 56.1333 89.6956 50C89.6956 43.8667 88.709 39.3333 86.7356 36.4C84.8156 33.4667 82.149 32 78.7356 32C75.3756 32 72.709 33.4667 70.7356 36.4C68.8156 39.3333 67.8556 43.8667 67.8556 50C67.8556 56.1333 68.8156 60.6667 70.7356 63.6C72.709 66.5333 75.3756 68 78.7356 68Z" fill="white"/>
</svg>
