<svg width="264" height="193" viewBox="0 0 264 193" fill="none" xmlns="http://www.w3.org/2000/svg">
<path fill-rule="evenodd" clip-rule="evenodd" d="M234 6.00001L30 6C13.4315 6 6.32703e-06 19.4315 5.6028e-06 36L0 163C0 179.569 13.4315 193 30 193H112.583C112.885 190.004 113.339 186.641 114.014 183.048C116.294 170.905 121.651 153.791 134.22 141.222C138.154 137.288 142.789 133.8 147.996 130.856C149.343 130.094 151.053 130.569 151.816 131.916C152.578 133.263 152.103 134.974 150.755 135.735C145.989 138.431 141.759 141.61 138.184 145.186C128.969 154.401 123.864 166.439 121.046 177.392C125.767 178.383 130.115 180.483 133.819 183.558L142.635 174.742L140.389 172.496C139.294 171.401 139.294 169.626 140.389 168.532C141.483 167.438 143.258 167.437 144.353 168.532L146.599 170.778L153.206 164.172L150.96 161.926C149.865 160.831 149.865 159.056 150.96 157.962C152.054 156.868 153.829 156.868 154.923 157.962L157.17 160.208L163.776 153.602L161.53 151.356C160.435 150.261 160.435 148.486 161.53 147.392C162.625 146.298 164.399 146.298 165.494 147.392L167.74 149.638L176.556 140.822C173.474 137.109 171.372 132.751 170.383 128.018C167.008 128.887 163.532 129.971 160.066 131.331C158.626 131.896 156.998 131.186 156.433 129.745C155.867 128.304 156.578 126.677 158.019 126.112C178.444 118.097 198.7 119.009 199.553 119.051C200.991 119.123 202.14 120.273 202.212 121.71C202.233 122.131 202.7 132.157 200.247 145.216C197.966 157.359 192.61 174.474 180.041 187.043C177.842 189.241 175.504 191.22 173.078 192.999C180.602 192.939 187.832 190.053 193.331 184.908L254.494 127.694C257.431 124.947 259.752 121.67 261.366 118.078C255.846 120.147 249.873 121.279 243.64 121.279C215.717 121.279 193 98.5622 193 70.6396C193 42.7171 215.717 20 243.64 20C249.77 20 255.649 21.0949 261.092 23.0995C256.269 12.9874 245.95 6.00001 234 6.00001ZM263.44 30.2001C260.923 28.963 258.275 27.954 255.522 27.2002C255.447 27.2625 255.368 27.3225 255.285 27.3781L246.443 33.2726V51.2013L262.155 61.6768L264 61.0774V36C264 34.0158 263.807 32.0766 263.44 30.2001ZM264 66.9712L263.817 67.0308L258.359 86.1308L264 93.8945V66.9712ZM162.637 193C167.438 190.383 172.028 187.127 176.077 183.078C185.276 173.88 190.379 161.868 193.201 150.931C188.516 149.93 184.197 147.834 180.521 144.785L171.705 153.601L173.951 155.847C175.045 156.942 175.045 158.717 173.951 159.811C172.871 160.891 171.067 160.891 169.987 159.811L167.741 157.565L161.134 164.171L163.38 166.417C164.475 167.512 164.475 169.287 163.38 170.381C162.3 171.46 160.496 171.46 159.416 170.381L157.17 168.135L150.564 174.741L152.81 176.987C153.905 178.082 153.905 179.857 152.81 180.951C151.73 182.031 149.926 182.03 148.846 180.951L146.6 178.705L137.784 187.521C139.195 189.221 140.4 191.056 141.388 193H162.637ZM134.896 193C134.035 191.723 133.045 190.521 131.933 189.409C128.575 186.051 124.402 183.806 119.798 182.857C119.068 186.506 118.578 189.942 118.251 193H134.896ZM183.385 77.6601C183.385 62.9259 171.398 50.9387 156.663 50.9387C141.929 50.9387 129.942 62.9262 129.942 77.6601C129.942 92.3943 141.929 104.381 156.663 104.381C171.398 104.381 183.385 92.3943 183.385 77.6601ZM177.779 77.6601C177.779 89.3033 168.307 98.7757 156.663 98.7757C145.02 98.7757 135.548 89.3033 135.548 77.6601C135.548 66.0169 145.02 56.5445 156.663 56.5445C168.307 56.5445 177.779 66.0169 177.779 77.6601ZM168.248 65.8878H168.622C170.171 65.8878 171.425 67.1427 171.425 68.6908C171.425 70.239 170.17 71.4939 168.622 71.4939H168.248C166.7 71.4939 165.445 70.239 165.445 68.6908C165.445 67.1427 166.7 65.8878 168.248 65.8878ZM156.663 65.8878H156.289C154.741 65.8878 153.486 67.1427 153.486 68.6908C153.486 70.239 154.741 71.4939 156.289 71.4939H156.663C158.211 71.4939 159.466 70.239 159.466 68.6908C159.466 67.1427 158.212 65.8878 156.663 65.8878ZM144.33 65.8878H144.704C146.253 65.8878 147.507 67.1427 147.507 68.6908C147.507 70.239 146.252 71.4939 144.704 71.4939H144.33C142.782 71.4939 141.527 70.239 141.527 68.6908C141.527 67.1427 142.782 65.8878 144.33 65.8878ZM156.663 56.9183H156.289C154.741 56.9183 153.486 58.1732 153.486 59.7214C153.486 61.2695 154.741 62.5245 156.289 62.5245H156.663C158.211 62.5245 159.466 61.2695 159.466 59.7214C159.466 58.1732 158.212 56.9183 156.663 56.9183ZM168.248 74.8574H168.622C170.171 74.8574 171.425 76.1123 171.425 77.6605C171.425 79.2086 170.17 80.4635 168.622 80.4635H168.248C166.7 80.4635 165.445 79.2086 165.445 77.6605C165.445 76.1123 166.7 74.8574 168.248 74.8574ZM156.663 74.8574H156.289C154.741 74.8574 153.486 76.1123 153.486 77.6605C153.486 79.2086 154.741 80.4635 156.289 80.4635H156.663C158.211 80.4635 159.466 79.2086 159.466 77.6605C159.466 76.1123 158.212 74.8574 156.663 74.8574ZM144.33 74.8574H144.704C146.253 74.8574 147.507 76.1123 147.507 77.6605C147.507 79.2086 146.252 80.4635 144.704 80.4635H144.33C142.782 80.4635 141.527 79.2086 141.527 77.6605C141.527 76.1123 142.782 74.8574 144.33 74.8574ZM168.622 83.8265H168.248C166.7 83.8265 165.445 85.0814 165.445 86.6296C165.445 88.1777 166.7 89.4327 168.248 89.4327H168.622C170.17 89.4327 171.425 88.1774 171.425 86.6296C171.425 85.0814 170.171 83.8265 168.622 83.8265ZM156.289 83.8265H156.663C158.212 83.8265 159.466 85.0814 159.466 86.6296C159.466 88.1774 158.211 89.4327 156.663 89.4327H156.289C154.741 89.4327 153.486 88.1777 153.486 86.6296C153.486 85.0814 154.741 83.8265 156.289 83.8265ZM144.704 83.8265H144.33C142.782 83.8265 141.527 85.0814 141.527 86.6296C141.527 88.1777 142.782 89.4327 144.33 89.4327H144.704C146.252 89.4327 147.507 88.1774 147.507 86.6296C147.507 85.0814 146.253 83.8265 144.704 83.8265ZM156.289 92.796H156.663C158.212 92.796 159.466 94.0509 159.466 95.5991C159.466 97.1472 158.211 98.4022 156.663 98.4022H156.289C154.741 98.4022 153.486 97.1472 153.486 95.5991C153.486 94.0509 154.741 92.796 156.289 92.796ZM175.85 126.771C184.967 124.951 192.763 124.636 196.644 124.614C196.615 128.501 196.287 136.321 194.452 145.468C189.882 144.506 185.736 142.263 182.408 138.935C179.042 135.569 176.795 131.386 175.85 126.771ZM199.751 60.5271C200.348 57.9374 201.168 55.4331 202.191 53.034L203.471 57.5886L199.751 60.5271ZM206.093 46.1957C206.068 46.1069 206.039 46.02 206.006 45.9357C211.953 36.9069 221.057 30.1353 231.736 27.2058L240.836 33.2726V51.2009L225.123 61.6764L208.967 56.4269L206.093 46.1957ZM233.688 82.4141L229.093 66.3272C229.15 66.2101 229.204 66.0899 229.245 65.962C229.283 65.8441 229.31 65.7262 229.332 65.6076L243.639 56.0692L257.947 65.6076C257.969 65.7262 257.996 65.8441 258.034 65.962C258.075 66.0899 258.129 66.2097 258.186 66.3272L253.59 82.4141C253.277 82.482 252.972 82.6058 252.688 82.7857H234.59C234.306 82.6058 234.001 82.4816 233.688 82.4141ZM239.704 25.78C241.001 25.6666 242.313 25.6058 243.639 25.6058C244.965 25.6058 246.277 25.6673 247.575 25.78L243.639 28.404L239.704 25.78ZM243.64 115.673C238.045 115.673 232.686 114.645 227.739 112.772L223.943 102.518L234.206 88.3918H253.073L263.336 102.518L259.647 112.484C259.613 112.577 259.584 112.67 259.56 112.764C254.608 114.642 249.242 115.673 243.64 115.673ZM218.814 104.81L220.45 109.23C218.205 107.876 216.087 106.332 214.119 104.62L218.814 104.81ZM208.79 98.7946C208.7 98.7909 208.61 98.7924 208.522 98.7972C202.322 91.0804 198.606 81.2864 198.605 70.6396C198.605 69.9342 198.624 69.2329 198.656 68.5356L207.235 61.7581L223.463 67.0308L228.92 86.1308L219.408 99.2228L208.79 98.7946Z" fill="#D84E52"/>
<path d="M33.5825 78.96C28.9425 78.96 24.8092 77.8133 21.1825 75.52C17.5558 73.2267 14.7025 69.92 12.6225 65.6C10.5958 61.2267 9.5825 56.0267 9.5825 50C9.5825 43.9733 10.5958 38.8 12.6225 34.48C14.7025 30.1067 17.5558 26.7733 21.1825 24.48C24.8092 22.1867 28.9425 21.04 33.5825 21.04C38.2225 21.04 42.3558 22.1867 45.9825 24.48C49.6092 26.7733 52.4358 30.1067 54.4625 34.48C56.5425 38.8 57.5825 43.9733 57.5825 50C57.5825 56.0267 56.5425 61.2267 54.4625 65.6C52.4358 69.92 49.6092 73.2267 45.9825 75.52C42.3558 77.8133 38.2225 78.96 33.5825 78.96ZM33.5825 68C36.9958 68 39.6625 66.5333 41.5825 63.6C43.5558 60.6667 44.5425 56.1333 44.5425 50C44.5425 43.8667 43.5558 39.3333 41.5825 36.4C39.6625 33.4667 36.9958 32 33.5825 32C30.2225 32 27.5558 33.4667 25.5825 36.4C23.6625 39.3333 22.7025 43.8667 22.7025 50C22.7025 56.1333 23.6625 60.6667 25.5825 63.6C27.5558 66.5333 30.2225 68 33.5825 68ZM86.2794 43.04C94.1727 43.04 99.986 44.6133 103.719 47.76C107.506 50.9067 109.399 55.12 109.399 60.4C109.399 63.8133 108.546 66.9333 106.839 69.76C105.133 72.5333 102.519 74.7733 98.9994 76.48C95.5327 78.1333 91.2394 78.96 86.1194 78.96C82.1727 78.96 78.2794 78.4533 74.4394 77.44C70.6527 76.3733 67.426 74.88 64.7594 72.96L69.8794 63.04C72.0127 64.64 74.466 65.8933 77.2394 66.8C80.0127 67.6533 82.866 68.08 85.7994 68.08C89.0527 68.08 91.6127 67.44 93.4794 66.16C95.346 64.88 96.2794 63.0933 96.2794 60.8C96.2794 58.4 95.2927 56.5867 93.3194 55.36C91.3994 54.1333 88.0394 53.52 83.2394 53.52H68.9194L71.7994 22H105.959V32.4H82.5994L81.7194 43.04H86.2794Z" fill="white"/>
</svg>
