<svg width="264" height="193" viewBox="0 0 264 193" fill="none" xmlns="http://www.w3.org/2000/svg">
<path fill-rule="evenodd" clip-rule="evenodd" d="M234 6.00001L30 6C13.4315 6 6.32703e-06 19.4315 5.6028e-06 36L0 163C0 179.569 13.4315 193 30 193H167.517C166.277 191.585 165.165 190.041 164.205 188.386C164.096 188.389 163.984 188.391 163.871 188.391C148.212 188.391 136.126 173.054 138.633 157.9C133.757 153.091 131 146.614 131 139.814C131 134.571 132.653 129.468 135.703 125.162C132.581 120.476 131 114.613 131 109.5C131 101.832 134.407 94.7073 140.252 89.8756C138.958 86.7842 138.305 83.5691 138.305 80.2812C138.305 70.1076 144.242 60.6302 153.069 56.205C151.734 45.1643 158.904 34.9316 169.695 32.3179C173.892 22.6122 183.237 16 193.09 16C202.261 16 210.486 21.3492 215.004 29.1543C219.521 21.3492 227.747 16 236.918 16C246.77 16 256.115 22.6122 260.313 32.3176C261.558 32.619 262.756 33.0226 263.899 33.5179C262.637 18.1106 249.733 6.00001 234 6.00001ZM264 41.9702C261.544 40.11 258.485 39.0098 255.18 39.0098C251.278 39.0098 247.609 40.5295 244.846 43.2885C243.419 44.714 241.106 44.7129 239.681 43.2856C238.255 41.8582 238.257 39.5459 239.684 38.1204C243.016 34.792 247.23 32.6693 251.797 31.9659C248.576 27.1849 243.22 23.3047 236.918 23.3047C227.19 23.3047 218.656 32.3501 218.656 42.6621V71.2895C220.807 70.0423 223.301 69.3242 225.961 69.3242C227.978 69.3242 229.613 70.9594 229.613 72.9766C229.613 74.9938 227.978 76.6289 225.961 76.6289C221.933 76.6289 218.656 79.9058 218.656 83.9336V153.39C223.368 148.045 229.996 144.427 237.456 143.632L244.292 137.238C241.962 136.539 239.488 136.162 236.918 136.162C234.901 136.162 233.266 134.527 233.266 132.51C233.266 130.493 234.901 128.857 236.918 128.857C241.688 128.857 246.193 129.865 250.249 131.665L254.494 127.694C256.862 125.479 258.83 122.919 260.349 120.128C259.887 120.339 259.373 120.457 258.832 120.457C249.936 120.457 242.51 114.062 240.898 105.628C235.819 104.963 231.038 102.79 227.178 99.3366C225.675 97.9918 225.546 95.6828 226.891 94.1795C228.236 92.6758 230.545 92.5476 232.048 93.8924C235.401 96.8914 239.724 98.543 244.223 98.543C254.292 98.543 262.484 90.3508 262.484 80.2812C262.484 79.062 263.082 77.9823 264 77.3189V61.0692C255.192 62.2693 247.875 70.7325 247.875 80.2812C247.875 82.2984 246.239 83.9336 244.223 83.9336C242.206 83.9336 240.57 82.2984 240.57 80.2812C240.57 66.5782 251.096 54.8912 264 53.7162V41.9702ZM264 96.4623C260.143 101.166 254.643 104.474 248.386 105.503C249.792 109.933 253.943 113.152 258.832 113.152C260.464 113.152 261.846 114.223 262.314 115.7C263.419 112.545 264 109.196 264 105.785V96.4623ZM210.938 168.438C208.955 158.38 200.068 150.771 189.438 150.771C187.42 150.771 185.785 149.136 185.785 147.119C185.785 145.102 187.42 143.467 189.438 143.467C198.158 143.467 205.993 147.312 211.352 153.39V83.9336C211.352 79.9058 208.075 76.6289 204.047 76.6289C202.03 76.6289 200.395 74.9938 200.395 72.9766C200.395 70.9594 202.03 69.3242 204.047 69.3242C206.707 69.3242 209.201 70.0423 211.352 71.2895V42.6621C211.352 32.3501 202.818 23.3047 193.09 23.3047C186.787 23.3047 181.431 27.1849 178.21 31.9662C182.777 32.6697 186.992 34.7924 190.324 38.1208C191.751 39.5463 191.752 41.8586 190.326 43.2859C188.901 44.7125 186.588 44.714 185.161 43.2885C182.399 40.5295 178.73 39.0098 174.828 39.0098C166.836 39.0098 160.219 45.4682 160.219 53.6191C160.219 53.6744 160.221 53.7286 160.224 53.7827L160.226 53.835C160.227 53.8584 160.227 53.8819 160.228 53.9055C161.432 53.7181 162.648 53.6191 163.871 53.6191C177.73 53.6191 189.438 65.8289 189.438 80.2812C189.438 82.2984 187.802 83.9336 185.785 83.9336C183.768 83.9336 182.133 82.2984 182.133 80.2812C182.133 69.9696 173.599 60.9238 163.871 60.9238C153.645 60.9238 145.609 70.4236 145.609 80.2812C145.609 83.3503 146.433 86.3584 148.056 89.2215C149.017 90.9158 148.479 93.0659 146.834 94.1083C141.493 97.4915 138.305 103.245 138.305 109.5C138.305 119.811 146.654 128.857 156.566 128.857C158.584 128.857 160.219 130.493 160.219 132.51C160.219 134.527 158.584 136.162 156.566 136.162C150.814 136.162 145.365 134.007 140.985 130.416C139.242 133.259 138.305 136.501 138.305 139.814C138.305 145.173 140.731 150.265 144.962 153.786C146.031 154.675 146.502 156.095 146.177 157.447C143.008 170.615 154.714 182.385 165.109 180.964C165.365 180.929 165.622 180.894 165.88 180.865C167.444 180.689 168.943 181.53 169.606 182.956C171.483 187 174.505 190.297 178.169 192.522C183.814 191.503 189.088 188.878 193.331 184.908L210.938 168.438ZM229.613 49.9668C229.613 47.9507 231.25 46.3145 233.266 46.3145C235.282 46.3145 236.918 47.9507 236.918 49.9668C236.918 51.9829 235.282 53.6191 233.266 53.6191C231.25 53.6191 229.613 51.9829 229.613 49.9668ZM196.742 46.3145C194.726 46.3145 193.09 47.9507 193.09 49.9668C193.09 51.9829 194.726 53.6191 196.742 53.6191C198.758 53.6191 200.395 51.9829 200.395 49.9668C200.395 47.9507 198.758 46.3145 196.742 46.3145ZM203.117 94.1795C201.772 92.6762 199.463 92.5476 197.96 93.8924C186.247 104.369 167.523 95.9962 167.523 80.2812C167.523 78.2641 165.888 76.6289 163.871 76.6289C161.854 76.6289 160.219 78.2641 160.219 80.2812C160.219 92.9604 169.498 103.508 181.621 105.503C180.215 109.933 176.065 113.152 171.176 113.152C169.159 113.152 167.523 114.787 167.523 116.805C167.523 118.822 169.159 120.457 171.176 120.457C180.072 120.457 187.498 114.062 189.11 105.628C194.189 104.963 198.969 102.79 202.83 99.3366C204.333 97.9918 204.461 95.6828 203.117 94.1795ZM160.219 161.729C160.219 159.711 161.854 158.076 163.871 158.076C177.73 158.076 189.438 170.286 189.438 184.738C189.438 186.755 187.802 188.391 185.785 188.391C183.768 188.391 182.133 186.755 182.133 184.738C182.133 174.427 173.599 165.381 163.871 165.381C161.854 165.381 160.219 163.746 160.219 161.729ZM193.09 128.857C180.714 128.857 170.087 135.645 164.492 145.515C163.497 147.27 164.114 149.499 165.868 150.494C167.623 151.488 169.852 150.872 170.847 149.117C175.206 141.427 183.477 136.162 193.09 136.162C195.107 136.162 196.742 134.527 196.742 132.51C196.742 130.493 195.107 128.857 193.09 128.857Z" fill="#D84E52"/>
<path d="M33.2934 78.96C28.6534 78.96 24.5201 77.8133 20.8934 75.52C17.2668 73.2267 14.4134 69.92 12.3334 65.6C10.3068 61.2267 9.29344 56.0267 9.29344 50C9.29344 43.9733 10.3068 38.8 12.3334 34.48C14.4134 30.1067 17.2668 26.7733 20.8934 24.48C24.5201 22.1867 28.6534 21.04 33.2934 21.04C37.9334 21.04 42.0668 22.1867 45.6934 24.48C49.3201 26.7733 52.1468 30.1067 54.1734 34.48C56.2534 38.8 57.2934 43.9733 57.2934 50C57.2934 56.0267 56.2534 61.2267 54.1734 65.6C52.1468 69.92 49.3201 73.2267 45.6934 75.52C42.0668 77.8133 37.9334 78.96 33.2934 78.96ZM33.2934 68C36.7068 68 39.3734 66.5333 41.2934 63.6C43.2668 60.6667 44.2534 56.1333 44.2534 50C44.2534 43.8667 43.2668 39.3333 41.2934 36.4C39.3734 33.4667 36.7068 32 33.2934 32C29.9334 32 27.2668 33.4667 25.2934 36.4C23.3734 39.3333 22.4134 43.8667 22.4134 50C22.4134 56.1333 23.3734 60.6667 25.2934 63.6C27.2668 66.5333 29.9334 68 33.2934 68ZM118.07 66.24H108.95V78H96.3103V66.24H66.1503V57.52L92.5503 22H106.15L81.6703 55.68H96.7103V45.2H108.95V55.68H118.07V66.24Z" fill="white"/>
</svg>
