<svg width="264" height="193" viewBox="0 0 264 193" fill="none" xmlns="http://www.w3.org/2000/svg">
<path fill-rule="evenodd" clip-rule="evenodd" d="M234 6.00001L30 6C13.4315 6 7.58692e-06 19.4315 6.86269e-06 36L0 163C0 179.569 13.4315 193 30 193H172.837C176.852 193 180.787 192.195 184.426 190.671C184.425 190.636 184.424 190.601 184.424 190.565V177.951L163.682 153.177C160.608 149.57 161.043 144.108 164.667 141.02C168.189 138.017 173.903 138.375 176.866 142.022L183.782 150.408V124.744C171.33 119.96 165.333 104.405 171.343 92.3953C172.782 89.4046 177.291 91.7338 175.915 94.5942C174.891 96.7228 174.286 99.009 174.118 101.389C173.593 108.818 177.455 115.682 183.782 119.138V106.274C183.782 101.456 187.892 97.473 192.71 97.6427C197.31 97.7963 201.052 101.74 201.052 106.434V119.523C206.946 116.621 211 110.747 211.475 104.031C212.203 93.7305 204.416 84.7572 194.117 84.0287C190.588 83.7791 187.085 84.5238 183.984 86.1823C181.058 87.7468 178.793 83.2055 181.592 81.7087C197.815 72.8527 218 85.9354 216.535 104.389C215.873 113.748 209.741 121.821 201.052 125.038V130.899L221.919 130.939C228.497 130.952 233.918 136.314 234.005 142.892L234.061 146.809L254.494 127.694C259.174 123.316 262.292 117.592 263.472 111.391C260.709 110.708 258.23 108.708 257.135 105.247H230.035C230.034 105.263 230.033 105.279 230.032 105.295C230.032 105.311 230.031 105.327 230.029 105.343C229.55 112.128 227.238 118.638 223.346 124.169C221.437 126.884 217.37 123.846 219.197 121.25C222.558 116.473 224.554 110.849 224.969 104.986C226.27 86.5844 211.215 70.4539 192.775 70.4539C165.522 70.4836 150.309 103.282 168.437 123.853C170.078 125.743 171.925 127.436 173.926 128.886C176.586 130.811 173.565 134.887 170.951 132.994C168.635 131.317 166.501 129.36 164.606 127.177C159.212 120.962 156.085 113.319 155.552 105.247H128.557C127.46 108.97 124.012 111.696 119.939 111.696C108.022 111.204 108.019 94.2175 119.939 93.7237C124.013 93.7237 127.46 96.4499 128.557 100.173H155.557C155.56 100.141 155.561 100.109 155.563 100.076C156.09 92.6297 158.797 85.6155 163.309 79.8161L154.988 71.4931H141.986C140.844 76.1697 136.62 79.6511 131.598 79.6511C117.416 79.066 117.411 58.8497 131.598 58.2623C136.62 58.2623 140.844 61.7437 141.986 66.4202H153.502V52.0929C149.779 50.9951 147.053 47.5476 147.053 43.4737C147.545 31.5557 164.53 31.552 165.024 43.4737C165.024 47.5476 162.298 50.9951 158.575 52.0929V67.9063L166.694 76.0267C173.011 69.8509 181.442 66.057 190.26 65.4655V41.0289C185.584 39.8868 182.103 35.6624 182.103 30.6392C182.688 16.456 202.902 16.4512 203.489 30.6392C203.489 35.6624 200.009 39.8868 195.333 41.0289V65.4682C195.349 65.4694 195.365 65.4703 195.381 65.4713C195.397 65.4722 195.413 65.4731 195.429 65.4743C204.605 66.1233 212.778 70.0565 218.885 76.0398L227.017 67.9063V52.0929C223.294 50.9951 220.568 47.5476 220.568 43.4737C221.06 31.5557 238.045 31.552 238.539 43.4737C238.539 47.5476 235.813 50.9951 232.09 52.0929V66.4202H243.633C244.775 61.7437 248.999 58.2623 254.021 58.2623C259.347 58.482 262.674 61.4704 264 65.148V36C264 19.4315 250.569 6.00001 234 6.00001ZM264 72.766C262.674 76.4428 259.348 79.4305 254.021 79.6511C248.999 79.6511 244.775 76.1697 243.633 71.4931H230.604L222.267 79.832C226.718 85.5611 229.525 92.5918 230.036 100.173H257.134C258.071 96.9981 260.715 94.5478 264 93.8952V72.766ZM264 99.2084C262.824 99.7705 261.914 100.938 261.841 102.71C261.841 104.236 262.719 105.562 263.997 106.206C263.999 106.066 264 105.926 264 105.785V99.2084ZM193.331 184.909C192.131 186.032 190.848 187.047 189.497 187.949V177.029C189.497 176.434 189.288 175.857 188.905 175.401L167.558 149.903C166.283 148.408 166.463 146.155 167.958 144.88C169.432 143.624 171.705 143.799 172.968 145.267L184.361 159.084C185.843 160.882 188.855 159.8 188.855 157.471V106.273C188.855 104.278 190.55 102.649 192.541 102.713C194.436 102.776 195.979 104.445 195.979 106.433V141.626C195.979 144.801 201.052 144.945 201.052 141.626V135.972L206.696 135.983V141.626C206.696 144.801 211.768 144.945 211.768 141.626V135.993L217.412 136.004V141.626C217.413 144.801 222.486 144.945 222.486 141.626V136.039C226.043 136.34 228.885 139.33 228.933 142.961L229.021 149.188C229.032 149.925 229.291 150.495 229.688 150.899L193.331 184.909ZM156.038 39.5601C153.881 39.5601 152.126 41.3157 152.126 43.4734C152.126 45.6314 153.881 47.3869 156.038 47.3869C161.227 47.1725 161.229 39.7752 156.038 39.5601ZM125.978 68.9567C125.978 72.0562 128.499 74.5782 131.598 74.5782C134.697 74.5782 137.218 72.0562 137.218 68.9567C136.911 61.5008 126.286 61.4991 125.978 68.9567ZM116.027 102.71C116.027 104.868 117.782 106.623 119.939 106.623C122.097 106.623 123.851 104.868 123.852 102.71C123.638 97.52 116.242 97.5183 116.027 102.71ZM192.796 25.0177C189.697 25.0177 187.176 27.5393 187.176 30.6392C187.176 33.7387 189.697 36.2607 192.796 36.2607C200.25 35.9529 200.252 25.3265 192.796 25.0177ZM259.642 68.9567C259.642 65.8571 257.121 63.3352 254.021 63.3352C250.922 63.3352 248.401 65.8568 248.401 68.9567C248.709 76.4125 259.333 76.4142 259.642 68.9567ZM229.553 39.5601C227.396 39.5601 225.641 41.3157 225.641 43.4734C225.641 45.6314 227.396 47.3869 229.553 47.3869C234.742 47.1725 234.744 39.7752 229.553 39.5601Z" fill="#D84E52"/>
<path d="M41.8622 22V78H28.9022V32.4H17.7022V22H41.8622ZM96.6303 67.44V78H54.3103V69.6L75.9103 49.2C78.2036 47.0133 79.7503 45.1467 80.5503 43.6C81.3503 42 81.7503 40.4267 81.7503 38.88C81.7503 36.64 80.977 34.9333 79.4303 33.76C77.937 32.5333 75.7236 31.92 72.7903 31.92C70.337 31.92 68.1236 32.4 66.1503 33.36C64.177 34.2667 62.5236 35.6533 61.1903 37.52L51.7503 31.44C53.937 28.1867 56.9503 25.6533 60.7903 23.84C64.6303 21.9733 69.0303 21.04 73.9903 21.04C78.1503 21.04 81.777 21.7333 84.8703 23.12C88.017 24.4533 90.4437 26.3733 92.1503 28.88C93.9103 31.3333 94.7903 34.24 94.7903 37.6C94.7903 40.64 94.1503 43.4933 92.8703 46.16C91.5903 48.8267 89.1103 51.8667 85.4303 55.28L72.5503 67.44H96.6303Z" fill="white"/>
</svg>
