<svg width="264" height="193" viewBox="0 0 264 193" fill="none" xmlns="http://www.w3.org/2000/svg">
<path fill-rule="evenodd" clip-rule="evenodd" d="M30 6L234 6.00001C250.569 6.00001 264 19.4315 264 36V36.4129C261.8 36.7736 259.647 37.3704 257.562 38.1994C255.407 39.0565 254.355 41.4986 255.212 43.6538C256.068 45.809 258.51 46.8617 260.666 46.0041C261.753 45.5716 262.866 45.2258 264 44.9677V89.4093C260.812 88.6892 257.835 87.2894 255.229 85.2826C258.882 80.1747 261.042 73.9285 261.042 67.1838C261.042 49.9901 247.054 36.0022 229.86 36.0022C226.294 36.0022 222.794 36.6001 219.459 37.7805C217.273 38.5537 216.127 40.9537 216.9 43.1404C217.673 45.3271 220.073 46.4716 222.26 45.6996C224.694 44.8391 227.251 44.402 229.86 44.402C242.422 44.402 252.643 54.6222 252.643 67.1843C252.643 79.7492 242.422 89.9721 229.86 89.9721H229.77C224.708 89.9539 219.935 88.3082 216.009 85.2837C219.662 80.1758 221.821 73.9296 221.821 67.1849C221.821 49.9912 207.833 36.0033 190.64 36.0033C186.277 36.0033 182.054 36.8881 178.089 38.6327C175.967 39.5666 175.003 42.0451 175.937 44.1677C176.871 46.2909 179.35 47.2541 181.472 46.3202C184.364 45.0475 187.448 44.402 190.64 44.402C203.202 44.402 213.422 54.6222 213.422 67.1843C213.422 79.7492 203.202 89.9721 190.64 89.9721H190.549C185.487 89.9539 180.715 88.3082 176.788 85.2831C180.441 80.1758 182.601 73.9301 182.601 67.186C182.601 49.9918 168.613 36.0033 151.419 36.0033C134.225 36.0033 120.237 49.9885 120.237 67.1821C120.237 78.182 125.967 87.8622 134.594 93.4149C118.989 100.097 108 115.772 108 133.971V177.941C108 183.821 110.401 189.15 114.274 193H30C13.4315 193 0 179.569 0 163L6.86269e-06 36C7.58692e-06 19.4315 13.4315 6 30 6ZM147.22 193H133.446V128.016C133.446 125.696 131.566 123.816 129.247 123.816C126.928 123.816 125.048 125.697 125.048 128.016V190.08C120.02 188.337 116.399 183.555 116.399 177.942V133.972C116.399 114.392 132.066 98.42 151.323 98.3686C160.701 98.3399 169.542 101.986 176.185 108.624C182.798 115.238 186.44 124.031 186.44 133.384V177.942C186.44 183.556 182.819 188.338 177.791 190.081V128.016C177.791 125.696 175.91 123.816 173.591 123.816C171.272 123.816 169.392 125.697 169.392 128.016V193H155.619V172.396C155.619 170.076 153.739 168.196 151.419 168.196C149.1 168.196 147.22 170.077 147.22 172.396V193ZM208.614 170.612L194.84 183.498V177.941V133.383C194.84 121.786 190.324 110.884 182.123 102.683C181.265 101.826 180.37 101.018 179.454 100.241C183.009 99.019 186.756 98.3802 190.534 98.3686H190.64C199.992 98.3686 208.787 102.011 215.406 108.624C222.019 115.238 225.661 124.031 225.661 133.384V154.665L217.013 162.756V128.017C217.013 125.698 215.132 123.818 212.814 123.818C210.494 123.818 208.614 125.698 208.614 128.017V170.612ZM261.372 118.063C260.02 121.078 258.169 123.871 255.875 126.316C255.222 124.844 253.747 123.817 252.034 123.817C249.714 123.817 247.834 125.697 247.834 128.017V133.924L234.06 146.809V133.383C234.06 121.786 229.544 110.884 221.343 102.683C220.485 101.826 219.59 101.018 218.675 100.241C222.23 99.019 225.976 98.3802 229.755 98.3681H229.86C239.212 98.3681 248.007 102.01 254.626 108.624C257.423 111.421 259.689 114.608 261.372 118.063ZM264 98.7468V105.785C264 106.035 263.997 106.285 263.991 106.535C262.932 105.195 261.789 103.909 260.563 102.683C259.704 101.826 258.81 101.018 257.895 100.241C259.879 99.5585 261.924 99.0579 264 98.7468ZM252.227 93.4332C251.271 92.8159 250.348 92.1417 249.456 91.4156C248.594 92.1146 247.691 92.7667 246.756 93.3724C247.707 93.7736 248.641 94.2157 249.562 94.6854C250.437 94.2372 251.326 93.8189 252.227 93.4332ZM213.007 93.4332C212.051 92.8159 211.128 92.1417 210.236 91.4156C209.373 92.1146 208.471 92.7667 207.536 93.3724C208.487 93.7736 209.421 94.2157 210.342 94.6854C211.217 94.2372 212.106 93.8189 213.007 93.4332ZM151.419 44.3987C138.856 44.3987 128.635 54.6194 128.635 67.1821C128.635 79.7453 138.856 89.966 151.419 89.966C163.981 89.966 174.202 79.7448 174.202 67.1821C174.202 54.6194 163.981 44.3987 151.419 44.3987ZM171.119 94.6876C171.994 94.2389 172.884 93.82 173.787 93.4337C172.83 92.8159 171.906 92.1411 171.015 91.4156C170.15 92.1163 169.246 92.7689 168.308 93.3751C169.261 93.7763 170.196 94.2173 171.119 94.6876Z" fill="#D84E52"/>
<path d="M33.5122 78.96C28.8722 78.96 24.7389 77.8133 21.1122 75.52C17.4855 73.2267 14.6322 69.92 12.5522 65.6C10.5255 61.2267 9.51219 56.0267 9.51219 50C9.51219 43.9733 10.5255 38.8 12.5522 34.48C14.6322 30.1067 17.4855 26.7733 21.1122 24.48C24.7389 22.1867 28.8722 21.04 33.5122 21.04C38.1522 21.04 42.2855 22.1867 45.9122 24.48C49.5389 26.7733 52.3655 30.1067 54.3922 34.48C56.4722 38.8 57.5122 43.9733 57.5122 50C57.5122 56.0267 56.4722 61.2267 54.3922 65.6C52.3655 69.92 49.5389 73.2267 45.9122 75.52C42.2855 77.8133 38.1522 78.96 33.5122 78.96ZM33.5122 68C36.9255 68 39.5922 66.5333 41.5122 63.6C43.4855 60.6667 44.4722 56.1333 44.4722 50C44.4722 43.8667 43.4855 39.3333 41.5122 36.4C39.5922 33.4667 36.9255 32 33.5122 32C30.1522 32 27.4855 33.4667 25.5122 36.4C23.5922 39.3333 22.6322 43.8667 22.6322 50C22.6322 56.1333 23.5922 60.6667 25.5122 63.6C27.4855 66.5333 30.1522 68 33.5122 68ZM108.38 67.44V78H66.0603V69.6L87.6603 49.2C89.9536 47.0133 91.5003 45.1467 92.3003 43.6C93.1003 42 93.5003 40.4267 93.5003 38.88C93.5003 36.64 92.727 34.9333 91.1803 33.76C89.687 32.5333 87.4736 31.92 84.5403 31.92C82.087 31.92 79.8736 32.4 77.9003 33.36C75.927 34.2667 74.2736 35.6533 72.9403 37.52L63.5003 31.44C65.687 28.1867 68.7003 25.6533 72.5403 23.84C76.3803 21.9733 80.7803 21.04 85.7403 21.04C89.9003 21.04 93.527 21.7333 96.6203 23.12C99.767 24.4533 102.194 26.3733 103.9 28.88C105.66 31.3333 106.54 34.24 106.54 37.6C106.54 40.64 105.9 43.4933 104.62 46.16C103.34 48.8267 100.86 51.8667 97.1803 55.28L84.3003 67.44H108.38Z" fill="white"/>
</svg>
