<svg width="91" height="90" viewBox="0 0 91 90" fill="none" xmlns="http://www.w3.org/2000/svg">
<path d="M85.126 82.8671L85.126 65.7481C85.126 65.466 85.0423 65.1903 84.8855 64.9557C84.7288 64.7212 84.506 64.5384 84.2453 64.4304C83.9847 64.3225 83.6979 64.2942 83.4212 64.3492C83.1445 64.4043 82.8904 64.5401 82.6909 64.7395L78.1657 69.2646L27.1541 18.253C26.3515 17.4506 25.2631 16.9999 24.1283 16.9999C22.9935 16.9999 21.9051 17.4506 21.1025 18.253L19.0853 20.2701C18.283 21.0727 17.8323 22.1611 17.8323 23.2959C17.8323 24.4308 18.283 25.5191 19.0853 26.3217L70.097 77.3334L65.5719 81.8585C65.3724 82.058 65.2366 82.3122 65.1816 82.5889C65.1266 82.8656 65.1548 83.1524 65.2628 83.413C65.3707 83.6736 65.5535 83.8964 65.7881 84.0532C66.0226 84.2099 66.2984 84.2936 66.5805 84.2937L83.6995 84.2937C84.0778 84.2937 84.4407 84.1434 84.7082 83.8758C84.9757 83.6083 85.126 83.2454 85.126 82.8671Z" fill="#C34246"/>
<path d="M56.5945 88.5734L56.5945 71.4544C56.5944 71.1723 56.5107 70.8966 56.3539 70.662C56.1972 70.4275 55.9744 70.2447 55.7138 70.1367C55.4531 70.0288 55.1663 70.0005 54.8896 70.0556C54.613 70.1106 54.3588 70.2464 54.1593 70.4459L49.6342 74.971L27.1541 52.4909C26.3515 51.6886 25.2632 51.2379 24.1283 51.2379C22.9935 51.2379 21.9051 51.6886 21.1025 52.4909L19.0854 54.5081C18.283 55.3107 17.8323 56.399 17.8323 57.5339C17.8323 58.6687 18.283 59.7571 19.0854 60.5596L41.5654 83.0397L37.0403 87.5648C36.8409 87.7643 36.705 88.0185 36.65 88.2952C36.595 88.5719 36.6232 88.8587 36.7312 89.1193C36.8391 89.3799 37.0219 89.6027 37.2565 89.7595C37.491 89.9162 37.7668 89.9999 38.0489 90L55.1679 90C55.5462 90 55.9091 89.8497 56.1766 89.5822C56.4442 89.3146 56.5945 88.9518 56.5945 88.5734Z" fill="#C34246"/>
<path d="M53.3233 20.2701C52.5209 21.0727 52.0702 22.1611 52.0702 23.2959C52.0702 24.4308 52.5209 25.5191 53.3233 26.3217L75.8033 48.8018L71.2782 53.3269C71.0788 53.5264 70.943 53.7806 70.8879 54.0573C70.8329 54.3339 70.8612 54.6207 70.9691 54.8814C71.0771 55.142 71.2599 55.3648 71.4944 55.5215C71.729 55.6783 72.0047 55.762 72.2868 55.7621L89.4058 55.7621C89.7841 55.7621 90.147 55.6118 90.4145 55.3442C90.6821 55.0767 90.8324 54.7138 90.8324 54.3355L90.8324 37.2165C90.8323 36.9344 90.7486 36.6586 90.5918 36.4241C90.4351 36.1896 90.2123 36.0068 89.9517 35.8988C89.691 35.7909 89.4042 35.7626 89.1276 35.8176C88.8509 35.8726 88.5967 36.0085 88.3972 36.2079L83.8721 40.733L61.392 18.253C60.5894 17.4506 59.5011 16.9999 58.3662 16.9999C57.2314 16.9999 56.143 17.4506 55.3405 18.253L53.3233 20.2701Z" fill="#C34246"/>
<path d="M57.0632 12.8392V7.13291C57.061 5.24184 56.3088 3.42887 54.9716 2.09168C53.6344 0.754493 51.8214 0.00226521 49.9303 0L7.13291 0C5.24184 0.00226521 3.42887 0.754493 2.09168 2.09168C0.754492 3.42887 0.00226521 5.24184 0 7.13291V12.8392C0.00311898 13.9507 0.266872 15.0459 0.770069 16.037C1.27327 17.028 2.00188 17.8872 2.89739 18.5456C2.00188 19.2039 1.27327 20.0631 0.770069 21.0541C0.266872 22.0452 0.00311898 23.1404 0 24.2519V29.9582C0.00311898 31.0697 0.266872 32.1649 0.770069 33.1559C1.27327 34.147 2.00188 35.0062 2.89739 35.6645C2.00188 36.3229 1.27327 37.1821 0.770069 38.1731C0.266872 39.1642 0.00311898 40.2594 0 41.3709V47.0772C0.00226521 48.9682 0.754492 50.7812 2.09168 52.1184C3.42887 53.4556 5.24184 54.2078 7.13291 54.2101H49.9303C51.8214 54.2078 53.6344 53.4556 54.9716 52.1184C56.3088 50.7812 57.061 48.9682 57.0632 47.0772V41.3709C57.0601 40.2594 56.7964 39.1642 56.2932 38.1731C55.79 37.1821 55.0614 36.3229 54.1659 35.6645C55.0614 35.0062 55.79 34.147 56.2932 33.1559C56.7964 32.1649 57.0601 31.0697 57.0632 29.9582V24.2519C57.0601 23.1404 56.7964 22.0452 56.2932 21.0541C55.79 20.0631 55.0614 19.2039 54.1659 18.5456C55.0614 17.8872 55.79 17.028 56.2932 16.037C56.7964 15.0459 57.0601 13.9507 57.0632 12.8392ZM54.2101 41.3709V47.0772C54.2101 48.2122 53.7592 49.3008 52.9566 50.1034C52.154 50.906 51.0654 51.3569 49.9303 51.3569H7.13291C5.99785 51.3569 4.90928 50.906 4.10667 50.1034C3.30406 49.3008 2.85316 48.2122 2.85316 47.0772V41.3709C2.85316 40.2358 3.30406 39.1472 4.10667 38.3446C4.90928 37.542 5.99785 37.0911 7.13291 37.0911H49.9303C51.0654 37.0911 52.154 37.542 52.9566 38.3446C53.7592 39.1472 54.2101 40.2358 54.2101 41.3709ZM54.2101 24.2519V29.9582C54.2101 31.0933 53.7592 32.1818 52.9566 32.9844C52.154 33.787 51.0654 34.2379 49.9303 34.2379H7.13291C5.99785 34.2379 4.90928 33.787 4.10667 32.9844C3.30406 32.1818 2.85316 31.0933 2.85316 29.9582V24.2519C2.85316 23.1168 3.30406 22.0283 4.10667 21.2256C4.90928 20.423 5.99785 19.9721 7.13291 19.9721H49.9303C51.0654 19.9721 52.154 20.423 52.9566 21.2256C53.7592 22.0283 54.2101 23.1168 54.2101 24.2519ZM54.2101 12.8392C54.2101 13.9743 53.7592 15.0629 52.9566 15.8655C52.154 16.6681 51.0654 17.119 49.9303 17.119H7.13291C5.99785 17.119 4.90928 16.6681 4.10667 15.8655C3.30406 15.0629 2.85316 13.9743 2.85316 12.8392V7.13291C2.85316 5.99785 3.30406 4.90928 4.10667 4.10667C4.90928 3.30406 5.99785 2.85316 7.13291 2.85316H49.9303C51.0654 2.85316 52.154 3.30406 52.9566 4.10667C53.7592 4.90928 54.2101 5.99785 54.2101 7.13291V12.8392Z" fill="white"/>
<path d="M48.5038 11.4126C49.2916 11.4126 49.9303 10.7739 49.9303 9.98606C49.9303 9.19818 49.2916 8.55948 48.5038 8.55948C47.7159 8.55948 47.0772 9.19818 47.0772 9.98606C47.0772 10.7739 47.7159 11.4126 48.5038 11.4126Z" fill="white"/>
<path d="M48.5038 28.5316C49.2916 28.5316 49.9303 27.8929 49.9303 27.105C49.9303 26.3172 49.2916 25.6785 48.5038 25.6785C47.7159 25.6785 47.0772 26.3172 47.0772 27.105C47.0772 27.8929 47.7159 28.5316 48.5038 28.5316Z" fill="white"/>
<path d="M48.5038 45.6506C49.2916 45.6506 49.9303 45.0119 49.9303 44.224C49.9303 43.4361 49.2916 42.7974 48.5038 42.7974C47.7159 42.7974 47.0772 43.4361 47.0772 44.224C47.0772 45.0119 47.7159 45.6506 48.5038 45.6506Z" fill="white"/>
<path d="M42.7974 8.55948H8.55949C8.18113 8.55948 7.81827 8.70978 7.55074 8.97731C7.2832 9.24485 7.1329 9.60771 7.1329 9.98606C7.1329 10.3644 7.2832 10.7273 7.55074 10.9948C7.81827 11.2623 8.18113 11.4126 8.55949 11.4126H42.7974C43.1758 11.4126 43.5386 11.2623 43.8062 10.9948C44.0737 10.7273 44.224 10.3644 44.224 9.98606C44.224 9.60771 44.0737 9.24485 43.8062 8.97731C43.5386 8.70978 43.1758 8.55948 42.7974 8.55948Z" fill="white"/>
<path d="M42.7974 25.6785H8.55949C8.18113 25.6785 7.81827 25.8288 7.55074 26.0963C7.2832 26.3638 7.1329 26.7267 7.1329 27.105C7.1329 27.4834 7.2832 27.8463 7.55074 28.1138C7.81827 28.3813 8.18113 28.5316 8.55949 28.5316H42.7974C43.1758 28.5316 43.5386 28.3813 43.8062 28.1138C44.0737 27.8463 44.224 27.4834 44.224 27.105C44.224 26.7267 44.0737 26.3638 43.8062 26.0963C43.5386 25.8288 43.1758 25.6785 42.7974 25.6785Z" fill="white"/>
<path d="M42.7974 42.7974H8.55949C8.18113 42.7974 7.81827 42.9477 7.55074 43.2153C7.2832 43.4828 7.1329 43.8457 7.1329 44.224C7.1329 44.6024 7.2832 44.9652 7.55074 45.2328C7.81827 45.5003 8.18113 45.6506 8.55949 45.6506H42.7974C43.1758 45.6506 43.5386 45.5003 43.8062 45.2328C44.0737 44.9652 44.224 44.6024 44.224 44.224C44.224 43.8457 44.0737 43.4828 43.8062 43.2153C43.5386 42.9477 43.1758 42.7974 42.7974 42.7974Z" fill="white"/>
</svg>
