<svg width="79" height="90" viewBox="0 0 79 90" fill="none" xmlns="http://www.w3.org/2000/svg">
<path d="M23.226 58.0645V85.6452C23.226 86.8001 23.6848 87.9078 24.5015 88.7245C25.3181 89.5412 26.4258 90 27.5808 90H74.0324C75.1874 90 76.295 89.5412 77.1117 88.7245C77.9284 87.9078 78.3872 86.8001 78.3872 85.6452V58.0645H23.226ZM43.5485 82.7419C43.5485 83.1269 43.3956 83.4962 43.1234 83.7684C42.8511 84.0406 42.4819 84.1936 42.0969 84.1936H36.2905C35.9055 84.1936 35.5363 84.0406 35.264 83.7684C34.9918 83.4962 34.8389 83.1269 34.8389 82.7419V76.9355C34.8389 76.5505 34.9918 76.1813 35.264 75.909C35.5363 75.6368 35.9055 75.4839 36.2905 75.4839H42.0969C42.4819 75.4839 42.8511 75.6368 43.1234 75.909C43.3956 76.1813 43.5485 76.5505 43.5485 76.9355V82.7419ZM43.5485 71.129C43.5485 71.514 43.3956 71.8832 43.1234 72.1555C42.8511 72.4277 42.4819 72.5806 42.0969 72.5806H36.2905C35.9055 72.5806 35.5363 72.4277 35.264 72.1555C34.9918 71.8832 34.8389 71.514 34.8389 71.129V65.3226C34.8389 64.9376 34.9918 64.5684 35.264 64.2961C35.5363 64.0239 35.9055 63.871 36.2905 63.871H42.0969C42.4819 63.871 42.8511 64.0239 43.1234 64.2961C43.3956 64.5684 43.5485 64.9376 43.5485 65.3226V71.129ZM55.1614 82.7419C55.1614 83.1269 55.0085 83.4962 54.7363 83.7684C54.464 84.0406 54.0948 84.1936 53.7098 84.1936H47.9034C47.5184 84.1936 47.1492 84.0406 46.8769 83.7684C46.6047 83.4962 46.4518 83.1269 46.4518 82.7419V76.9355C46.4518 76.5505 46.6047 76.1813 46.8769 75.909C47.1492 75.6368 47.5184 75.4839 47.9034 75.4839H53.7098C54.0948 75.4839 54.464 75.6368 54.7363 75.909C55.0085 76.1813 55.1614 76.5505 55.1614 76.9355V82.7419ZM55.1614 71.129C55.1614 71.514 55.0085 71.8832 54.7363 72.1555C54.464 72.4277 54.0948 72.5806 53.7098 72.5806H47.9034C47.5184 72.5806 47.1492 72.4277 46.8769 72.1555C46.6047 71.8832 46.4518 71.514 46.4518 71.129V65.3226C46.4518 64.9376 46.6047 64.5684 46.8769 64.2961C47.1492 64.0239 47.5184 63.871 47.9034 63.871H53.7098C54.0948 63.871 54.464 64.0239 54.7363 64.2961C55.0085 64.5684 55.1614 64.9376 55.1614 65.3226V71.129ZM66.7743 82.7419C66.7743 83.1269 66.6214 83.4962 66.3492 83.7684C66.0769 84.0406 65.7077 84.1936 65.3227 84.1936H59.5163C59.1313 84.1936 58.7621 84.0406 58.4898 83.7684C58.2176 83.4962 58.0647 83.1269 58.0647 82.7419V76.9355C58.0647 76.5505 58.2176 76.1813 58.4898 75.909C58.7621 75.6368 59.1313 75.4839 59.5163 75.4839H65.3227C65.7077 75.4839 66.0769 75.6368 66.3492 75.909C66.6214 76.1813 66.7743 76.5505 66.7743 76.9355V82.7419ZM66.7743 71.129C66.7743 71.514 66.6214 71.8832 66.3492 72.1555C66.0769 72.4277 65.7077 72.5806 65.3227 72.5806H59.5163C59.1313 72.5806 58.7621 72.4277 58.4898 72.1555C58.2176 71.8832 58.0647 71.514 58.0647 71.129V65.3226C58.0647 64.9376 58.2176 64.5684 58.4898 64.2961C58.7621 64.0239 59.1313 63.871 59.5163 63.871H65.3227C65.7077 63.871 66.0769 64.0239 66.3492 64.2961C66.6214 64.5684 66.7743 64.9376 66.7743 65.3226V71.129ZM23.226 55.1613V49.3548C23.226 48.1999 23.6848 47.0922 24.5015 46.2755C25.3181 45.4588 26.4258 45 27.5808 45H74.0324C75.1874 45 76.295 45.4588 77.1117 46.2755C77.9284 47.0922 78.3872 48.1999 78.3872 49.3548V55.1613H23.226Z" fill="#C34246"/>
<path d="M45 5.80645H31.9355V4.35484C31.9355 3.19986 31.4767 2.09219 30.66 1.2755C29.8433 0.458812 28.7356 0 27.5806 0H21.7742C20.6192 0 19.5115 0.458812 18.6949 1.2755C17.8782 2.09219 17.4194 3.19986 17.4194 4.35484V5.80645H4.35484C3.19986 5.80645 2.09219 6.26526 1.2755 7.08195C0.458812 7.89864 0 9.00632 0 10.1613V68.2258C0 69.3808 0.458812 70.4884 1.2755 71.3051C2.09219 72.1218 3.19986 72.5806 4.35484 72.5806H45C46.155 72.5806 47.2626 72.1218 48.0793 71.3051C48.896 70.4884 49.3548 69.3808 49.3548 68.2258V10.1613C49.3548 9.00632 48.896 7.89864 48.0793 7.08195C47.2626 6.26526 46.155 5.80645 45 5.80645ZM14.5161 8.70968H34.8387V13.0645C34.8387 13.4495 34.6858 13.8187 34.4135 14.091C34.1413 14.3632 33.7721 14.5161 33.3871 14.5161H15.9677C15.5828 14.5161 15.2135 14.3632 14.9413 14.091C14.6691 13.8187 14.5161 13.4495 14.5161 13.0645V8.70968ZM20.3226 4.35484C20.3226 3.96985 20.4755 3.60062 20.7477 3.32839C21.02 3.05616 21.3892 2.90323 21.7742 2.90323H27.5806C27.9656 2.90323 28.3349 3.05616 28.6071 3.32839C28.8793 3.60062 29.0323 3.96985 29.0323 4.35484V5.80645H20.3226V4.35484ZM46.4516 68.2258C46.4516 68.6108 46.2987 68.98 46.0264 69.2523C45.7542 69.5245 45.385 69.6774 45 69.6774H4.35484C3.96985 69.6774 3.60062 69.5245 3.32839 69.2523C3.05616 68.98 2.90323 68.6108 2.90323 68.2258V10.1613C2.90323 9.7763 3.05616 9.40707 3.32839 9.13484C3.60062 8.86261 3.96985 8.70968 4.35484 8.70968H11.6129V13.0645C11.6129 14.2195 12.0717 15.3272 12.8884 16.1439C13.7051 16.9605 14.8128 17.4194 15.9677 17.4194H33.3871C34.5421 17.4194 35.6497 16.9605 36.4664 16.1439C37.2831 15.3272 37.7419 14.2195 37.7419 13.0645V8.70968H45C45.385 8.70968 45.7542 8.86261 46.0264 9.13484C46.2987 9.40707 46.4516 9.7763 46.4516 10.1613V68.2258ZM15.9677 23.2258H10.1613C9.7763 23.2258 9.40708 23.3787 9.13485 23.651C8.86262 23.9232 8.70968 24.2924 8.70968 24.6774V30.4839C8.70968 30.8689 8.86262 31.2381 9.13485 31.5103C9.40708 31.7825 9.7763 31.9355 10.1613 31.9355H15.9677C16.3527 31.9355 16.722 31.7825 16.9942 31.5103C17.2664 31.2381 17.4194 30.8689 17.4194 30.4839V24.6774C17.4194 24.2924 17.2664 23.9232 16.9942 23.651C16.722 23.3787 16.3527 23.2258 15.9677 23.2258ZM14.5161 29.0323H11.6129V26.129H14.5161V29.0323ZM39.1936 26.129H21.7742C21.3892 26.129 21.02 25.9761 20.7477 25.7039C20.4755 25.4316 20.3226 25.0624 20.3226 24.6774C20.3226 24.2924 20.4755 23.9232 20.7477 23.651C21.02 23.3787 21.3892 23.2258 21.7742 23.2258H39.1936C39.5785 23.2258 39.9478 23.3787 40.22 23.651C40.4922 23.9232 40.6452 24.2924 40.6452 24.6774C40.6452 25.0624 40.4922 25.4316 40.22 25.7039C39.9478 25.9761 39.5785 26.129 39.1936 26.129ZM21.7742 29.0323H33.3871C33.7721 29.0323 34.1413 29.1852 34.4135 29.4574C34.6858 29.7297 34.8387 30.0989 34.8387 30.4839C34.8387 30.8689 34.6858 31.2381 34.4135 31.5103C34.1413 31.7825 33.7721 31.9355 33.3871 31.9355H21.7742C21.3892 31.9355 21.02 31.7825 20.7477 31.5103C20.4755 31.2381 20.3226 30.8689 20.3226 30.4839C20.3226 30.0989 20.4755 29.7297 20.7477 29.4574C21.02 29.1852 21.3892 29.0323 21.7742 29.0323ZM15.9677 37.7419H10.1613C9.7763 37.7419 9.40708 37.8949 9.13485 38.1671C8.86262 38.4393 8.70968 38.8086 8.70968 39.1935V45C8.70968 45.385 8.86262 45.7542 9.13485 46.0264C9.40708 46.2987 9.7763 46.4516 10.1613 46.4516H15.9677C16.3527 46.4516 16.722 46.2987 16.9942 46.0264C17.2664 45.7542 17.4194 45.385 17.4194 45V39.1935C17.4194 38.8086 17.2664 38.4393 16.9942 38.1671C16.722 37.8949 16.3527 37.7419 15.9677 37.7419ZM14.5161 43.5484H11.6129V40.6452H14.5161V43.5484ZM39.1936 40.6452H21.7742C21.3892 40.6452 21.02 40.4922 20.7477 40.22C20.4755 39.9478 20.3226 39.5785 20.3226 39.1935C20.3226 38.8086 20.4755 38.4393 20.7477 38.1671C21.02 37.8949 21.3892 37.7419 21.7742 37.7419H39.1936C39.5785 37.7419 39.9478 37.8949 40.22 38.1671C40.4922 38.4393 40.6452 38.8086 40.6452 39.1935C40.6452 39.5785 40.4922 39.9478 40.22 40.22C39.9478 40.4922 39.5785 40.6452 39.1936 40.6452ZM21.7742 43.5484H33.3871C33.7721 43.5484 34.1413 43.7013 34.4135 43.9736C34.6858 44.2458 34.8387 44.615 34.8387 45C34.8387 45.385 34.6858 45.7542 34.4135 46.0264C34.1413 46.2987 33.7721 46.4516 33.3871 46.4516H21.7742C21.3892 46.4516 21.02 46.2987 20.7477 46.0264C20.4755 45.7542 20.3226 45.385 20.3226 45C20.3226 44.615 20.4755 44.2458 20.7477 43.9736C21.02 43.7013 21.3892 43.5484 21.7742 43.5484ZM15.9677 52.2581H10.1613C9.7763 52.2581 9.40708 52.411 9.13485 52.6832C8.86262 52.9555 8.70968 53.3247 8.70968 53.7097V59.5161C8.70968 59.9011 8.86262 60.2703 9.13485 60.5426C9.40708 60.8148 9.7763 60.9677 10.1613 60.9677H15.9677C16.3527 60.9677 16.722 60.8148 16.9942 60.5426C17.2664 60.2703 17.4194 59.9011 17.4194 59.5161V53.7097C17.4194 53.3247 17.2664 52.9555 16.9942 52.6832C16.722 52.411 16.3527 52.2581 15.9677 52.2581ZM14.5161 58.0645H11.6129V55.1613H14.5161V58.0645ZM39.1936 55.1613H21.7742C21.3892 55.1613 21.02 55.0084 20.7477 54.7361C20.4755 54.4639 20.3226 54.0947 20.3226 53.7097C20.3226 53.3247 20.4755 52.9555 20.7477 52.6832C21.02 52.411 21.3892 52.2581 21.7742 52.2581H39.1936C39.5785 52.2581 39.9478 52.411 40.22 52.6832C40.4922 52.9555 40.6452 53.3247 40.6452 53.7097C40.6452 54.0947 40.4922 54.4639 40.22 54.7361C39.9478 55.0084 39.5785 55.1613 39.1936 55.1613ZM33.3871 60.9677H21.7742C21.3892 60.9677 21.02 60.8148 20.7477 60.5426C20.4755 60.2703 20.3226 59.9011 20.3226 59.5161C20.3226 59.1311 20.4755 58.7619 20.7477 58.4897C21.02 58.2174 21.3892 58.0645 21.7742 58.0645H33.3871C33.7721 58.0645 34.1413 58.2174 34.4135 58.4897C34.6858 58.7619 34.8387 59.1311 34.8387 59.5161C34.8387 59.9011 34.6858 60.2703 34.4135 60.5426C34.1413 60.8148 33.7721 60.9677 33.3871 60.9677Z" fill="white"/>
</svg>
