<svg width="88" height="88" viewBox="0 0 88 88" fill="none" xmlns="http://www.w3.org/2000/svg">
<path d="M81.9687 64.0123V48.3185C85.2743 45.0279 87.1971 40.5982 87.3435 35.9362C87.4899 31.2743 85.8488 26.7327 82.7562 23.2411C79.6636 19.7496 75.3534 17.5722 70.7078 17.1546C66.0623 16.7371 61.4329 18.111 57.7672 20.9951L46.5172 16.9592C46.1695 16.8444 45.7909 16.8698 45.4616 17.0298C45.1324 17.1899 44.8786 17.472 44.754 17.8162C44.6295 18.1605 44.6442 18.5397 44.7948 18.8733C44.9455 19.207 45.2203 19.4687 45.5609 19.6029L55.475 23.1888C52.6056 26.5124 51.0282 30.7576 51.0312 35.1485C51.0343 39.5393 52.6176 43.7824 55.4917 47.1019C58.3658 50.4214 62.3386 52.5956 66.6838 53.227C71.029 53.8583 75.4563 52.9047 79.1562 50.5404V62.6201C76.9054 61.8245 74.4755 61.6818 72.1471 62.2083C69.8186 62.7349 67.6866 63.9092 65.997 65.5958C64.3075 67.2824 63.1295 69.4124 62.5989 71.7399C62.0683 74.0675 62.2068 76.4976 62.9984 78.7498H50.9469C52.8427 75.817 53.8488 72.3981 53.8437 68.906C53.8387 65.4026 52.827 61.9744 50.9292 59.0295C49.0314 56.0847 46.3274 53.7471 43.139 52.2952C39.9506 50.8432 36.4122 50.338 32.9448 50.8396C29.4775 51.3413 26.2274 52.8287 23.5812 55.1248L20.0656 45.281C20.0047 45.1065 19.91 44.9457 19.7869 44.8078C19.6638 44.6699 19.5147 44.5576 19.3482 44.4773C19.1817 44.397 19.0011 44.3502 18.8165 44.3397C18.632 44.3293 18.4472 44.3552 18.2726 44.4162C18.0981 44.4771 17.9373 44.5718 17.7994 44.6949C17.6615 44.818 17.5492 44.9671 17.4689 45.1336C17.3886 45.3 17.3418 45.4807 17.3314 45.6653C17.3209 45.8498 17.3469 46.0346 17.4078 46.2092L21.4015 57.4592C18.6657 61.1381 17.4121 65.7108 17.8892 70.2706C18.3663 74.8305 20.5394 79.0446 23.9775 82.0776C27.4157 85.1105 31.868 86.7409 36.4517 86.6454C41.0355 86.55 45.416 84.7357 48.725 81.5623H64.3906C65.4317 83.1139 66.8034 84.4158 68.4072 85.3745C70.0111 86.3331 71.8073 86.9248 73.6669 87.1069C75.5266 87.289 77.4034 87.0572 79.1628 86.4279C80.9222 85.7986 82.5204 84.7876 83.8427 83.4674C85.165 82.1472 86.1786 80.5506 86.8107 78.7922C87.4428 77.0339 87.6777 75.1574 87.4985 73.2975C87.3194 71.4375 86.7306 69.6404 85.7745 68.035C84.8184 66.4296 83.5187 65.0558 81.9687 64.0123ZM22.5265 77.2029C24.6811 74.9863 27.3684 73.3594 30.3312 72.4779C29.1819 71.4251 28.3775 70.0497 28.0234 68.5319C27.6692 67.0141 27.7819 65.4247 28.3467 63.972C28.9115 62.5193 29.9019 61.2712 31.1883 60.3911C32.4746 59.5111 33.9969 59.0402 35.5555 59.0402C37.114 59.0402 38.6363 59.5111 39.9226 60.3911C41.209 61.2712 42.1995 62.5193 42.7642 63.972C43.329 65.4247 43.4417 67.0141 43.0875 68.5319C42.7334 70.0497 41.929 71.4251 40.7797 72.4779C43.7409 73.3578 46.4309 74.9737 48.5984 77.1748C47.2023 79.3655 45.277 81.1693 43.0001 82.4198C40.7231 83.6704 38.1679 84.3273 35.5702 84.3301C32.9725 84.3329 30.4158 83.6815 28.1362 82.4359C25.8566 81.1902 23.9274 79.3906 22.5265 77.2029ZM56.2766 43.4529C58.4311 41.2363 61.1184 39.6094 64.0812 38.7279C62.9319 37.6751 62.1275 36.2997 61.7734 34.7819C61.4192 33.2641 61.5319 31.6747 62.0967 30.222C62.6615 28.7693 63.6519 27.5212 64.9383 26.6411C66.2246 25.7611 67.7469 25.2902 69.3055 25.2902C70.8641 25.2902 72.3863 25.7611 73.6726 26.6411C74.959 27.5212 75.9495 28.7693 76.5142 30.222C77.079 31.6747 77.1917 33.2641 76.8376 34.7819C76.4834 36.2997 75.679 37.6751 74.5297 38.7279C77.4909 39.6078 80.1809 41.2237 82.3484 43.4248C80.9523 45.6155 79.027 47.4193 76.7501 48.6698C74.4731 49.9204 71.9179 50.5773 69.3202 50.5801C66.7225 50.5829 64.1658 49.9315 61.8862 48.6859C59.6066 47.4402 57.6774 45.6406 56.2766 43.4529ZM65.9656 80.3388C65.9735 80.2923 65.9735 80.2448 65.9656 80.1982C67.4413 78.7047 69.2694 77.6068 71.2812 77.006C70.4857 76.2765 69.929 75.3237 69.6842 74.2724C69.4393 73.2211 69.5178 72.1203 69.9092 71.1144C70.3006 70.1084 70.9867 69.2441 71.8777 68.6347C72.7686 68.0254 73.8229 67.6993 74.9023 67.6993C75.9818 67.6993 77.036 68.0254 77.927 68.6347C78.818 69.2441 79.5041 70.1084 79.8955 71.1144C80.2869 72.1203 80.3653 73.2211 80.1205 74.2724C79.8757 75.3237 79.319 76.2765 78.5234 77.006C80.5723 77.6242 82.4336 78.7459 83.9375 80.2685C82.9776 81.779 81.6534 83.0239 80.0865 83.8887C78.5196 84.7535 76.7604 85.2104 74.9708 85.2174C73.1811 85.2244 71.4184 84.7813 69.8448 83.9288C68.2712 83.0763 66.9373 81.8418 65.9656 80.3388Z" fill="#C34246"/>
<path d="M48.2187 23.7935C48.1964 19.0654 46.7726 14.45 44.1272 10.5311C41.4819 6.61219 37.7339 3.56571 33.3571 1.77691C28.9804 -0.0118901 24.1715 -0.462667 19.5385 0.481582C14.9056 1.42583 10.6567 3.7227 7.32912 7.08172C4.00156 10.4408 1.74479 14.7111 0.844182 19.3527C-0.0564213 23.9943 0.439594 28.7988 2.26951 33.1585C4.09942 37.5182 7.18104 41.2374 11.1247 43.8458C15.0683 46.4541 19.6969 47.8344 24.425 47.8122C27.5644 47.7975 30.6702 47.1646 33.565 45.9495C36.4598 44.7345 39.0869 42.9611 41.2964 40.7308C43.5059 38.5004 45.2544 35.8567 46.4421 32.9506C47.6299 30.0445 48.2336 26.9329 48.2187 23.7935ZM24.2141 2.81225H24.3125C28.2299 2.81225 32.0698 3.9031 35.4021 5.96258C38.7344 8.02206 41.4274 10.9688 43.1793 14.4726C44.9312 17.9764 45.6728 21.8988 45.321 25.8003C44.9692 29.7019 43.5379 33.4284 41.1875 36.5622C38.7626 32.4246 34.8895 29.3331 30.3172 27.8857C32.1133 26.608 33.4573 24.7931 34.1556 22.7024C34.8538 20.6118 34.8702 18.3534 34.2023 16.2529C33.5344 14.1523 32.2169 12.3181 30.4395 11.0146C28.6621 9.71102 26.5167 9.00552 24.3125 8.99975C22.0987 9.01279 19.9467 9.73152 18.1694 11.0514C16.3921 12.3714 15.082 14.2237 14.4297 16.3393C13.7773 18.4548 13.8166 20.7233 14.5418 22.8149C15.2671 24.9066 16.6405 26.7125 18.4625 27.9701C13.9061 29.4612 10.0636 32.5873 7.67655 36.7451C5.29033 33.6349 3.81801 29.9212 3.4248 26.0209C3.03159 22.1205 3.73304 18.1878 5.45045 14.6639C7.16786 11.14 9.83327 8.16437 13.1476 6.07094C16.462 3.9775 20.2941 2.84907 24.2141 2.81225ZM24.3125 26.9997C22.2985 26.9997 20.367 26.1997 18.9429 24.7756C17.5188 23.3515 16.7187 21.42 16.7187 19.406C16.7187 17.392 17.5188 15.4605 18.9429 14.0364C20.367 12.6123 22.2985 11.8122 24.3125 11.8122C26.3265 11.8122 28.258 12.6123 29.6821 14.0364C31.1062 15.4605 31.9062 17.392 31.9062 19.406C31.9062 21.42 31.1062 23.3515 29.6821 24.7756C28.258 26.1997 26.3265 26.9997 24.3125 26.9997ZM9.58905 38.9951C10.9619 36.2634 13.064 33.965 15.6624 32.3543C18.2609 30.7435 21.2544 29.8832 24.3116 29.8686C27.3687 29.8541 30.3703 30.6858 32.984 32.2718C35.5977 33.8577 37.7215 36.136 39.1203 38.8544C35.1957 42.7382 29.9048 44.9283 24.3834 44.9546C18.862 44.9809 13.5505 42.8413 9.58905 38.9951Z" fill="white"/>
</svg>
