<svg width="91" height="90" viewBox="0 0 91 90" fill="none" xmlns="http://www.w3.org/2000/svg">
<path d="M78.3941 61.0403V33.3871C78.3941 32.2321 77.9353 31.1244 77.1186 30.3078C76.3019 29.4911 75.1943 29.0323 74.0393 29.0323H33.3941C32.2392 29.0323 31.1315 29.4911 30.3148 30.3078C29.4981 31.1244 29.0393 32.2321 29.0393 33.3871V74.0323C29.0393 75.1872 29.4981 76.2949 30.3148 77.1116C31.1315 77.9283 32.2392 78.3871 33.3941 78.3871H60.9748C60.7614 76.0494 61.0661 73.6934 61.8671 71.487C62.6682 69.2805 63.9458 67.2777 65.6091 65.6213C67.2725 63.9649 69.2805 62.6956 71.4903 61.9038C73.7002 61.112 76.0574 60.8172 78.3941 61.0403ZM39.2006 40.6452H68.2328C68.6178 40.6452 68.9871 40.7981 69.2593 41.0703C69.5315 41.3426 69.6845 41.7118 69.6845 42.0968C69.6845 42.4818 69.5315 42.851 69.2593 43.1232C68.9871 43.3954 68.6178 43.5484 68.2328 43.5484H39.2006C38.8156 43.5484 38.4464 43.3954 38.1741 43.1232C37.9019 42.851 37.749 42.4818 37.749 42.0968C37.749 41.7118 37.9019 41.3426 38.1741 41.0703C38.4464 40.7981 38.8156 40.6452 39.2006 40.6452ZM39.2006 52.2581H68.2328C68.6178 52.2581 68.9871 52.411 69.2593 52.6832C69.5315 52.9555 69.6845 53.3247 69.6845 53.7097C69.6845 54.0947 69.5315 54.4639 69.2593 54.7361C68.9871 55.0084 68.6178 55.1613 68.2328 55.1613H39.2006C38.8156 55.1613 38.4464 55.0084 38.1741 54.7361C37.9019 54.4639 37.749 54.0947 37.749 53.7097C37.749 53.3247 37.9019 52.9555 38.1741 52.6832C38.4464 52.411 38.8156 52.2581 39.2006 52.2581ZM59.5232 66.7742H39.2006C38.8156 66.7742 38.4464 66.6213 38.1741 66.349C37.9019 66.0768 37.749 65.7076 37.749 65.3226C37.749 64.9376 37.9019 64.5684 38.1741 64.2961C38.4464 64.0239 38.8156 63.871 39.2006 63.871H59.5232C59.9082 63.871 60.2774 64.0239 60.5496 64.2961C60.8218 64.5684 60.9748 64.9376 60.9748 65.3226C60.9748 65.7076 60.8218 66.0768 60.5496 66.349C60.2774 66.6213 59.9082 66.7742 59.5232 66.7742ZM76.9425 63.871C74.3586 63.871 71.8327 64.6372 69.6843 66.0727C67.5358 67.5083 65.8613 69.5487 64.8725 71.9359C63.8837 74.3231 63.6249 76.95 64.129 79.4842C64.6331 82.0185 65.8774 84.3464 67.7045 86.1735C69.5316 88.0006 71.8595 89.2449 74.3938 89.749C76.928 90.2531 79.5549 89.9943 81.9421 89.0055C84.3293 88.0167 86.3697 86.3422 87.8053 84.1937C89.2408 82.0453 90.007 79.5194 90.007 76.9355C90.007 73.4706 88.6306 70.1475 86.1805 67.6975C83.7305 65.2474 80.4075 63.871 76.9425 63.871ZM76.9425 87.0968C74.3641 87.1028 71.8797 86.1284 69.993 84.371C68.1062 82.6136 66.958 80.2046 66.7812 77.6323L71.2667 74.279L76.2603 76.7758C76.4629 76.8779 76.6866 76.9311 76.9135 76.9311C77.1404 76.9311 77.3641 76.8779 77.5667 76.7758L82.5603 74.279L87.1038 77.6323C86.927 80.2046 85.7789 82.6136 83.8921 84.371C82.0053 86.1284 79.521 87.1028 76.9425 87.0968Z" fill="#C34246"/>
<path d="M56.6199 0H15.9747C14.8197 0 13.7121 0.458812 12.8954 1.2755C12.0787 2.09219 11.6199 3.19986 11.6199 4.35484V34.9258C9.17422 35.1979 6.85513 36.1552 4.92963 37.6874C3.00413 39.2197 1.55051 41.2646 0.736154 43.5867C-0.0782027 45.9088 -0.220189 48.4136 0.326543 50.8129C0.873275 53.2121 2.08649 55.4082 3.82651 57.1482C5.56653 58.8882 7.76259 60.1014 10.1618 60.6482C12.5611 61.1949 15.066 61.0529 17.3881 60.2386C19.7102 59.4242 21.7551 57.9706 23.2873 56.0451C24.8195 54.1196 25.7768 51.8005 26.0489 49.3548H56.6199C57.7749 49.3548 58.8825 48.896 59.6992 48.0793C60.5159 47.2626 60.9747 46.155 60.9747 45V4.35484C60.9747 3.19986 60.5159 2.09219 59.6992 1.2755C58.8825 0.458812 57.7749 0 56.6199 0ZM23.1021 46.3064C21.5886 46.0641 20.1494 45.4825 18.8925 44.6052C17.6356 43.7279 16.5934 42.5775 15.8441 41.2403C15.7302 41.0389 15.5699 40.8676 15.3764 40.7407C15.183 40.6139 14.962 40.5351 14.7319 40.5109C14.5018 40.4868 14.2692 40.518 14.0536 40.6019C13.838 40.6859 13.6456 40.8202 13.4925 40.9935C10.8187 44.0327 7.09655 45.9508 3.06988 46.3645C4.78279 34.9548 21.2876 34.9113 23.1021 46.3064ZM3.01182 49.3548C7.24362 49.0023 11.2328 47.2327 14.3344 44.3323C15.3951 45.7075 16.7195 46.8575 18.2299 47.7149C19.7403 48.5723 21.4066 49.12 23.1312 49.3258C21.5634 60.9677 4.60859 60.9677 3.01182 49.3548ZM58.0715 45C58.0715 45.385 57.9186 45.7542 57.6463 46.0264C57.3741 46.2987 57.0049 46.4516 56.6199 46.4516H26.0489C25.7186 43.5085 24.3981 40.7649 22.3039 38.6708C20.2098 36.5766 17.4662 35.2561 14.5231 34.9258V4.35484C14.5231 3.96985 14.676 3.60062 14.9483 3.32839C15.2205 3.05616 15.5897 2.90323 15.9747 2.90323H56.6199C57.0049 2.90323 57.3741 3.05616 57.6463 3.32839C57.9186 3.60062 58.0715 3.96985 58.0715 4.35484V45ZM50.8134 14.5161H21.7812C21.3962 14.5161 21.027 14.3632 20.7547 14.091C20.4825 13.8187 20.3296 13.4495 20.3296 13.0645C20.3296 12.6795 20.4825 12.3103 20.7547 12.0381C21.027 11.7658 21.3962 11.6129 21.7812 11.6129H50.8134C51.1984 11.6129 51.5677 11.7658 51.8399 12.0381C52.1121 12.3103 52.265 12.6795 52.265 13.0645C52.265 13.4495 52.1121 13.8187 51.8399 14.091C51.5677 14.3632 51.1984 14.5161 50.8134 14.5161ZM50.8134 26.129H21.7812C21.3962 26.129 21.027 25.9761 20.7547 25.7039C20.4825 25.4316 20.3296 25.0624 20.3296 24.6774C20.3296 24.2924 20.4825 23.9232 20.7547 23.651C21.027 23.3787 21.3962 23.2258 21.7812 23.2258H50.8134C51.1984 23.2258 51.5677 23.3787 51.8399 23.651C52.1121 23.9232 52.265 24.2924 52.265 24.6774C52.265 25.0624 52.1121 25.4316 51.8399 25.7039C51.5677 25.9761 51.1984 26.129 50.8134 26.129ZM50.8134 37.7419H30.4909C30.1059 37.7419 29.7366 37.589 29.4644 37.3168C29.1922 37.0445 29.0392 36.6753 29.0392 36.2903C29.0392 35.9053 29.1922 35.5361 29.4644 35.2639C29.7366 34.9916 30.1059 34.8387 30.4909 34.8387H50.8134C51.1984 34.8387 51.5677 34.9916 51.8399 35.2639C52.1121 35.5361 52.265 35.9053 52.265 36.2903C52.265 36.6753 52.1121 37.0445 51.8399 37.3168C51.5677 37.589 51.1984 37.7419 50.8134 37.7419Z" fill="white"/>
</svg>
