<svg width="152" height="152" viewBox="0 0 152 152" fill="none" xmlns="http://www.w3.org/2000/svg">
<g filter="url(#filter0_d)">
<circle cx="76" cy="76" r="70" fill="white"/>
</g>
<path d="M63.6953 76C68.9809 76 73.2656 71.7152 73.2656 66.4297C73.2656 61.1441 68.9809 56.8594 63.6953 56.8594C58.4098 56.8594 54.125 61.1441 54.125 66.4297C54.125 71.7152 58.4098 76 63.6953 76Z" fill="#E07275"/>
<path d="M104.711 76C109.996 76 114.281 71.7152 114.281 66.4297C114.281 61.1441 109.996 56.8594 104.711 56.8594C99.4254 56.8594 95.1406 61.1441 95.1406 66.4297C95.1406 71.7152 99.4254 76 104.711 76Z" fill="#E07275"/>
<path d="M106.078 80.1016C102.816 80.1052 99.6882 81.4027 97.3814 83.7095C95.0746 86.0163 93.7771 89.144 93.7734 92.4062V112.914C93.7734 114.002 94.2056 115.045 94.9748 115.814C95.744 116.583 96.7872 117.016 97.875 117.016H114.281C115.369 117.016 116.412 116.583 117.181 115.814C117.951 115.045 118.383 114.002 118.383 112.914V92.4062C118.379 89.144 117.082 86.0163 114.775 83.7095C112.468 81.4027 109.34 80.1052 106.078 80.1016Z" fill="#E07275"/>
<path d="M69.726 108.735C67.8454 108.738 66.0056 108.186 64.4369 107.149C62.8681 106.112 61.64 104.635 60.9062 102.904L58.2361 96.6145C57.8512 95.7831 57.6373 94.8828 57.6071 93.9671C57.577 93.0514 57.7313 92.139 58.0607 91.2841C58.3902 90.4292 58.8881 89.6492 59.525 88.9906C60.1618 88.3319 60.9246 87.808 61.7679 87.4499C62.6112 87.0919 63.5179 86.907 64.4341 86.9063C65.3503 86.9056 66.2573 87.0891 67.1012 87.4458C67.945 87.8025 68.7086 88.3253 69.3465 88.983C69.9843 89.6406 70.4835 90.4198 70.8143 91.2742L71.8834 93.7912L74.6328 92.6223V92.4062C74.6328 89.1428 73.3364 86.0131 71.0289 83.7055C68.7213 81.3979 65.5915 80.1016 62.3281 80.1016C59.0647 80.1016 55.935 81.3979 53.6274 83.7055C51.3198 86.0131 50.0234 89.1428 50.0234 92.4062V112.914C50.0234 114.002 50.4556 115.045 51.2248 115.814C51.9939 116.583 53.0372 117.016 54.125 117.016H70.5312C71.6191 117.016 72.6623 116.583 73.4315 115.814C74.2007 115.045 74.6328 114.002 74.6328 112.914V107.474L73.4543 107.974C72.2755 108.477 71.0073 108.735 69.726 108.735Z" fill="#E07275"/>
<path d="M78.6783 93.8773L71.6989 96.8387C71.5335 96.9087 71.356 96.9455 71.1764 96.9469C70.9968 96.9484 70.8187 96.9144 70.6523 96.847C70.4858 96.7796 70.3343 96.68 70.2063 96.554C70.0784 96.428 69.9765 96.2781 69.9065 96.1127L68.3041 92.3379C68.0988 91.8348 67.7956 91.3775 67.4121 90.9926C67.0285 90.6077 66.5724 90.3028 66.07 90.0957C65.5676 89.8885 65.0291 89.7833 64.4858 89.7861C63.9424 89.7888 63.405 89.8995 62.9048 90.1117C62.4046 90.3239 61.9515 90.6334 61.5719 91.0222C61.1923 91.411 60.8937 91.8714 60.6935 92.3765C60.4933 92.8817 60.3955 93.4216 60.4058 93.9648C60.416 94.5081 60.5341 95.044 60.7532 95.5412L63.4219 101.84C63.7725 102.666 64.2825 103.416 64.9227 104.045C65.5629 104.674 66.3208 105.171 67.1531 105.508C67.9855 105.844 68.8759 106.013 69.7736 106.006C70.6713 105.998 71.5588 105.814 72.3852 105.463L80.9698 101.819C79.761 100.937 78.8799 99.6782 78.4651 98.2404C78.0503 96.8027 78.1253 95.2678 78.6783 93.8773Z" fill="#E07275"/>
<path d="M81.2611 94.74C80.8363 95.7412 80.8266 96.87 81.234 97.8784C81.6413 98.8867 82.4325 99.692 83.4335 100.117L91.0392 103.344V94.4337L86.6382 92.5662C85.6369 92.1415 84.5079 92.1319 83.4995 92.5396C82.4911 92.9472 81.6859 93.7387 81.2611 94.74Z" fill="#E07275"/>
<path d="M100.779 56.4656L80.5404 36.1915C79.7589 35.4447 78.7195 35.0279 77.6385 35.0279C76.5575 35.0279 75.5182 35.4447 74.7367 36.1915L71.0193 39.913C70.2525 40.6839 69.8221 41.7269 69.8221 42.8142C69.8221 43.9015 70.2525 44.9445 71.0193 45.7154L71.4035 46.0995L68.1427 48.9597L64.2517 46.0367L64.5716 45.7154C65.3387 44.9447 65.7694 43.9016 65.7694 42.8142C65.7694 41.7268 65.3387 40.6837 64.5716 39.913L60.857 36.1915C60.4767 35.809 60.0246 35.5055 59.5266 35.2984C59.0285 35.0912 58.4945 34.9846 57.9551 34.9846C57.4158 34.9846 56.8817 35.0912 56.3837 35.2984C55.8857 35.5055 55.4336 35.809 55.0533 36.1915L34.8148 56.4656C34.0478 57.236 33.6172 58.2789 33.6172 59.3661C33.6172 60.4532 34.0478 61.4961 34.8148 62.2665L38.5295 65.988C39.063 66.5295 39.7388 66.909 40.4788 67.0827C41.2189 67.2564 41.993 67.2172 42.7117 66.9697L43.6318 70.6611L42.7048 71.588C41.7402 72.5586 41.1988 73.8714 41.1988 75.2398C41.1988 76.6082 41.7402 77.921 42.7048 78.8915C43.1826 79.3728 43.7512 79.7544 44.3776 80.0142C45.004 80.274 45.6757 80.4068 46.3539 80.405C46.4304 80.405 46.5043 80.3859 46.5808 80.3818C46.545 81.0776 46.6513 81.7735 46.8932 82.4269C47.1352 83.0803 47.5077 83.6776 47.9881 84.1823C48.4685 84.687 49.0467 85.0886 49.6874 85.3624C50.3281 85.6363 51.0178 85.7768 51.7146 85.7753C51.7912 85.7753 51.865 85.7562 51.9416 85.7535C51.9063 86.4491 52.013 87.1447 52.2552 87.7977C52.4974 88.4508 52.87 89.0478 53.3503 89.5522C53.8306 90.0567 54.4085 90.4581 55.0489 90.7321C55.6893 91.006 56.3788 91.1467 57.0754 91.1456C57.1519 91.1456 57.2257 91.1265 57.3023 91.1224C57.2499 92.1614 57.514 93.1918 58.0596 94.0775C58.6052 94.9632 59.4067 95.6625 60.3582 96.0831C61.3097 96.5037 62.3664 96.6257 63.3886 96.433C64.4109 96.2403 65.3507 95.7419 66.0838 95.0038L67.4619 93.6244L67.4988 93.6626C68.2318 94.4006 69.1714 94.8989 70.1936 95.0916C71.2157 95.2843 72.2723 95.1625 73.2237 94.7421C74.1751 94.3217 74.9766 93.6226 75.5223 92.7371C76.0681 91.8516 76.3323 90.8214 76.2802 89.7826C76.3568 89.7826 76.4306 89.8058 76.5086 89.8058C77.2051 89.8067 77.8945 89.6658 78.5349 89.3917C79.1752 89.1176 79.7531 88.716 80.2333 88.2114C80.7134 87.7068 81.0859 87.1098 81.3279 86.4566C81.5699 85.8035 81.6764 85.1079 81.641 84.4122C81.7175 84.4122 81.79 84.4355 81.8666 84.4355C83.0875 84.4362 84.2688 84.0017 85.1982 83.2098C86.1276 82.418 86.7443 81.3208 86.9375 80.1152C87.4607 80.2979 88.0102 80.3944 88.5644 80.4009C89.5854 80.3996 90.583 80.0957 91.4314 79.5278C92.2797 78.9598 92.9407 78.1531 93.3309 77.2096C93.7211 76.2662 93.8229 75.2283 93.6235 74.227C93.4241 73.2257 92.9325 72.306 92.2107 71.5839L89.5584 68.9275L91.1005 65.839L91.2509 65.988C91.6319 66.3696 92.0843 66.6723 92.5824 66.8788C93.0804 67.0853 93.6143 67.1916 94.1535 67.1916C94.6926 67.1916 95.2265 67.0853 95.7246 66.8788C96.2226 66.6723 96.6751 66.3696 97.056 65.988L100.772 62.2665C101.54 61.497 101.972 60.4546 101.973 59.3675C101.974 58.2803 101.545 57.2369 100.779 56.4656ZM40.4654 64.0562L36.7494 60.3333C36.6221 60.2063 36.521 60.0555 36.4521 59.8894C36.3832 59.7233 36.3477 59.5452 36.3477 59.3654C36.3477 59.1855 36.3832 59.0075 36.4521 58.8414C36.521 58.6753 36.6221 58.5244 36.7494 58.3974L56.9961 38.1288C57.2524 37.8725 57.6001 37.7286 57.9627 37.7286C58.3252 37.7286 58.6729 37.8725 58.9293 38.1288L62.6439 41.8517C62.7714 41.9787 62.8726 42.1297 62.9417 42.2959C63.0107 42.4621 63.0463 42.6404 63.0463 42.8203C63.0463 43.0003 63.0107 43.1786 62.9417 43.3448C62.8726 43.511 62.7714 43.662 62.6439 43.789L42.4 64.0562C42.1398 64.3058 41.7932 64.4451 41.4327 64.4451C41.0721 64.4451 40.7256 64.3058 40.4654 64.0562ZM44.6408 76.957C44.1867 76.5 43.9318 75.882 43.9318 75.2377C43.9318 74.5935 44.1867 73.9755 44.6408 73.5185L46.6533 71.5046C47.1138 71.0653 47.7258 70.8203 48.3623 70.8203C48.9987 70.8203 49.6107 71.0653 50.0712 71.5046C50.5257 71.9614 50.7808 72.5795 50.7808 73.2239C50.7808 73.8682 50.5257 74.4863 50.0712 74.9431L48.0656 76.957C47.6049 77.3986 46.9914 77.6451 46.3532 77.6451C45.715 77.6451 45.1015 77.3986 44.6408 76.957ZM50.0015 82.3259C49.5472 81.8694 49.2921 81.2515 49.2921 80.6074C49.2921 79.9633 49.5472 79.3454 50.0015 78.8888L52.0113 76.8749C52.4722 76.4332 53.086 76.1866 53.7244 76.1866C54.3628 76.1866 54.9765 76.4332 55.4375 76.8749C55.8921 77.3313 56.1474 77.9493 56.1474 78.5935C56.1474 79.2377 55.8921 79.8557 55.4375 80.312L53.4277 82.3259C52.9669 82.7681 52.3529 83.0148 51.7143 83.0146C51.0757 83.0143 50.462 82.7671 50.0015 82.3246V82.3259ZM55.3623 87.6976C54.9078 87.2408 54.6527 86.6227 54.6527 85.9784C54.6527 85.334 54.9078 84.7159 55.3623 84.2591L57.372 82.2439C57.5943 82.0037 57.8628 81.8109 58.1615 81.6771C58.4602 81.5434 58.7829 81.4714 59.1101 81.4656C59.4373 81.4597 59.7623 81.5202 60.0656 81.6432C60.3689 81.7662 60.6441 81.9493 60.8748 82.1814C61.1055 82.4136 61.2868 82.69 61.4079 82.9941C61.529 83.2981 61.5873 83.6235 61.5794 83.9507C61.5715 84.2778 61.4975 84.6 61.3618 84.8979C61.2261 85.1957 61.0316 85.463 60.79 85.6837L58.7802 87.6976C58.3195 88.1367 57.7074 88.3815 57.071 88.3813C56.4345 88.381 55.8226 88.1357 55.3623 87.6962V87.6976ZM60.723 93.0665C60.2687 92.6102 60.0137 91.9926 60.0137 91.3487C60.0137 90.7048 60.2687 90.0871 60.723 89.6308L62.7328 87.6169C62.9552 87.3783 63.2235 87.187 63.5216 87.0544C63.8198 86.9219 64.1415 86.8508 64.4678 86.8456C64.794 86.8403 65.1179 86.9009 65.4201 87.0237C65.7224 87.1465 65.9967 87.3291 66.2268 87.5604C66.4568 87.7917 66.6378 88.0671 66.759 88.37C66.8801 88.673 66.9389 88.9972 66.9318 89.3234C66.9247 89.6496 66.8519 89.971 66.7177 90.2683C66.5835 90.5657 66.3906 90.8329 66.1507 91.054L64.1423 93.0679C63.6814 93.5072 63.0689 93.7521 62.4321 93.7516C61.7954 93.7511 61.1833 93.5052 60.723 93.0652V93.0665ZM90.2816 76.957C89.8283 77.4101 89.2136 77.6647 88.5726 77.6647C87.9317 77.6647 87.3169 77.4101 86.8636 76.957L80.8371 70.9195C80.5803 70.6618 80.2318 70.5168 79.8681 70.5161C79.5044 70.5155 79.1553 70.6593 78.8977 70.9161C78.6401 71.1728 78.495 71.5213 78.4944 71.885C78.4937 72.2487 78.6376 72.5978 78.8943 72.8554L83.5906 77.5599C84.0402 78.0179 84.2913 78.6345 84.2895 79.2763C84.2877 79.9181 84.0332 80.5333 83.581 80.9888C83.3564 81.2142 83.0896 81.3931 82.7957 81.5151C82.5019 81.6372 82.1868 81.7 81.8686 81.7C81.5504 81.7 81.2354 81.6372 80.9415 81.5151C80.6477 81.3931 80.3808 81.2142 80.1562 80.9888L75.464 76.2898C75.2063 76.0406 74.8611 75.9025 74.5026 75.9054C74.1441 75.9082 73.8011 76.0518 73.5475 76.3051C73.2938 76.5584 73.1498 76.9012 73.1464 77.2597C73.143 77.6181 73.2806 77.9636 73.5295 78.2216L78.2203 82.9206C78.6753 83.3768 78.9308 83.9949 78.9308 84.6392C78.9308 85.2835 78.6753 85.9016 78.2203 86.3578C77.7597 86.7997 77.1462 87.0464 76.5079 87.0464C75.8696 87.0464 75.256 86.7997 74.7955 86.3578L70.1088 81.6642C69.9827 81.5335 69.8319 81.4293 69.6652 81.3575C69.4984 81.2857 69.3191 81.2479 69.1375 81.2462C68.956 81.2445 68.7759 81.279 68.6079 81.3476C68.4398 81.4162 68.2871 81.5176 68.1586 81.6459C68.0302 81.7742 67.9285 81.9267 67.8597 82.0947C67.7908 82.2627 67.7561 82.4427 67.7575 82.6242C67.759 82.8058 67.7966 82.9852 67.8681 83.152C67.9396 83.3189 68.0437 83.4698 68.1742 83.596L70.8484 86.2757L72.8582 88.2882C73.3126 88.745 73.5677 89.3631 73.5677 90.0075C73.5677 90.6518 73.3126 91.2699 72.8582 91.7267C72.3976 92.166 71.7856 92.4111 71.1492 92.4111C70.5127 92.4111 69.9007 92.166 69.4402 91.7267L69.149 91.4355C69.502 90.6511 69.653 89.7907 69.588 88.9329C69.523 88.0752 69.2443 87.2473 68.7771 86.525C68.31 85.8027 67.6694 85.2089 66.9137 84.7978C66.1581 84.3867 65.3115 84.1714 64.4513 84.1716C64.3748 84.1716 64.3009 84.1908 64.2244 84.1935C64.2596 83.4978 64.1529 82.8023 63.9107 82.1492C63.6685 81.4961 63.296 80.8992 62.8157 80.3947C62.3354 79.8902 61.7574 79.4888 61.117 79.2149C60.4766 78.9409 59.7871 78.8002 59.0906 78.8013C59.014 78.8013 58.9402 78.8204 58.8636 78.8246C58.906 78.1109 58.7959 77.3964 58.5407 76.7286C58.2855 76.0608 57.891 75.455 57.3835 74.9514C56.876 74.4479 56.2671 74.0583 55.5973 73.8084C54.9274 73.5585 54.2121 73.4541 53.4988 73.5021C53.5417 72.7795 53.4313 72.056 53.175 71.3791C52.9186 70.7022 52.5221 70.0871 52.0113 69.5742C51.2179 68.8193 50.2094 68.3299 49.1254 68.1736C48.0415 68.0173 46.9358 68.202 45.9615 68.7019L45.1015 65.2265L62.3021 47.9904L66.0427 50.8013L61.4681 54.8085C60.5029 55.7785 59.9611 57.0912 59.9611 58.4596C59.9611 59.828 60.5029 61.1407 61.4681 62.1107C62.4401 63.0407 63.7305 63.5646 65.0757 63.5753C66.4209 63.5859 67.7194 63.0826 68.706 62.1681L74.3963 57.6085L90.2816 73.5171C90.7364 73.974 90.9918 74.5924 90.9918 75.2371C90.9918 75.8817 90.7364 76.5001 90.2816 76.957ZM87.5281 66.889L86.1923 65.5492C86.1828 65.541 86.1705 65.5382 86.1623 65.53L75.464 54.8085C75.2259 54.5703 74.9082 54.4284 74.5719 54.41C74.2356 54.3916 73.9043 54.498 73.6416 54.7087L66.9423 60.0777C66.7176 60.3182 66.4474 60.5118 66.1474 60.6472C65.8473 60.7826 65.5234 60.8572 65.1943 60.8666C64.8653 60.876 64.5376 60.8201 64.2303 60.702C63.923 60.584 63.6422 60.4062 63.4041 60.1788C62.9564 59.7351 62.6992 59.1345 62.6869 58.5044C62.6747 57.8742 62.9084 57.264 63.3384 56.8033L73.3421 48.0341L89.0703 63.7978L87.5281 66.889ZM98.8429 60.3347L95.1269 64.0562C94.867 64.3057 94.5206 64.445 94.1603 64.445C93.8 64.445 93.4537 64.3057 93.1937 64.0562L72.9552 43.7835C72.8277 43.6565 72.7265 43.5056 72.6575 43.3393C72.5884 43.1731 72.5529 42.9949 72.5529 42.8149C72.5529 42.6349 72.5884 42.4567 72.6575 42.2904C72.7265 42.1242 72.8277 41.9733 72.9552 41.8462L76.6713 38.1288C76.9276 37.873 77.275 37.7292 77.6372 37.7292C77.9994 37.7292 78.3468 37.873 78.6031 38.1288L98.8375 58.4029C99.0937 58.6584 99.2381 59.0051 99.2391 59.367C99.2402 59.7288 99.0977 60.0763 98.8429 60.3333V60.3347Z" fill="#0B0B0B"/>
<defs>
<filter id="filter0_d" x="0" y="0" width="152" height="152" filterUnits="userSpaceOnUse" color-interpolation-filters="sRGB">
<feFlood flood-opacity="0" result="BackgroundImageFix"/>
<feColorMatrix in="SourceAlpha" type="matrix" values="0 0 0 0 0 0 0 0 0 0 0 0 0 0 0 0 0 0 127 0"/>
<feMorphology radius="2" operator="dilate" in="SourceAlpha" result="effect1_dropShadow"/>
<feOffset/>
<feGaussianBlur stdDeviation="2"/>
<feColorMatrix type="matrix" values="0 0 0 0 0.441667 0 0 0 0 0.185868 0 0 0 0 0.193282 0 0 0 0.25 0"/>
<feBlend mode="normal" in2="BackgroundImageFix" result="effect1_dropShadow"/>
<feBlend mode="normal" in="SourceGraphic" in2="effect1_dropShadow" result="shape"/>
</filter>
</defs>
</svg>
