<svg width="152" height="152" viewBox="0 0 152 152" fill="none" xmlns="http://www.w3.org/2000/svg">
<g filter="url(#filter0_d)">
<circle cx="76" cy="76" r="70" fill="white"/>
</g>
<path d="M117.313 75.6925C117.224 75.3446 117.066 75.0179 116.85 74.7308C116.634 74.4438 116.364 74.2021 116.054 74.0196C115.745 73.8371 115.402 73.7174 115.047 73.6672C114.691 73.617 114.329 73.6374 113.981 73.7272C113.633 73.8169 113.306 73.9743 113.019 74.1904C112.732 74.4065 112.491 74.6769 112.308 74.9864C112.126 75.2958 112.006 75.6382 111.956 75.9939C111.905 76.3497 111.926 76.7118 112.016 77.0597C113.586 83.1756 113.097 89.6387 110.623 95.4484C108.15 101.258 103.83 106.09 98.3324 109.197C92.8351 112.304 86.467 113.511 80.214 112.633C73.961 111.755 68.1719 108.84 63.7429 104.339H66.8013C67.5265 104.339 68.222 104.051 68.7348 103.538C69.2476 103.026 69.5357 102.33 69.5357 101.605C69.5357 100.88 69.2476 100.184 68.7348 99.6713C68.222 99.1585 67.5265 98.8704 66.8013 98.8704H57.1326C56.4074 98.8704 55.7119 99.1585 55.1991 99.6713C54.6863 100.184 54.3982 100.88 54.3982 101.605V111.274C54.3982 111.999 54.6863 112.694 55.1991 113.207C55.7119 113.72 56.4074 114.008 57.1326 114.008C57.8578 114.008 58.5533 113.72 59.0661 113.207C59.5789 112.694 59.8669 111.999 59.8669 111.274V108.197C65.145 113.543 72.037 117.002 79.4776 118.039C86.9182 119.075 94.4931 117.632 101.031 113.933C107.57 110.233 112.708 104.483 115.651 97.5708C118.594 90.6588 119.178 82.9699 117.313 75.6925Z" fill="#E07275"/>
<path d="M56.3903 91.3536C54.8174 85.2371 55.305 78.7726 57.7778 72.9614C60.2506 67.1501 64.5704 62.3163 70.0684 59.2085C75.5663 56.1008 81.9356 54.8926 88.1897 55.7709C94.4438 56.6493 100.234 59.5653 104.663 64.0672H101.605C100.879 64.0672 100.184 64.3553 99.6711 64.8681C99.1583 65.3809 98.8702 66.0764 98.8702 66.8016C98.8702 67.5268 99.1583 68.2223 99.6711 68.7351C100.184 69.2479 100.879 69.536 101.605 69.536H111.273C111.999 69.536 112.694 69.2479 113.207 68.7351C113.72 68.2223 114.008 67.5268 114.008 66.8016V57.1329C114.008 56.4077 113.72 55.7122 113.207 55.1994C112.694 54.6866 111.999 54.3985 111.273 54.3985C110.548 54.3985 109.853 54.6866 109.34 55.1994C108.827 55.7122 108.539 56.4077 108.539 57.1329V60.209C103.261 54.8631 96.3689 51.4045 88.9283 50.3679C81.4877 49.3312 73.9128 50.7742 67.3744 54.4738C60.8361 58.1734 55.6983 63.9236 52.7553 70.8356C49.8123 77.7476 49.2279 85.4365 51.0924 92.7139C51.2737 93.4164 51.7267 94.0182 52.3517 94.3868C52.9766 94.7553 53.7224 94.8605 54.425 94.6792C55.1275 94.4979 55.7292 94.045 56.0978 93.42C56.4664 92.795 56.5716 92.0493 56.3903 91.3467V91.3536Z" fill="#E07275"/>
<path d="M84.2029 65.0625C80.4172 65.0625 76.7166 66.1851 73.5689 68.2883C70.4213 70.3915 67.968 73.3808 66.5193 76.8783C65.0705 80.3758 64.6915 84.2244 65.43 87.9373C66.1686 91.6502 67.9916 95.0607 70.6684 97.7376C73.3453 100.414 76.7558 102.237 80.4687 102.976C84.1817 103.715 88.0302 103.335 91.5277 101.887C95.0252 100.438 98.0145 97.9847 100.118 94.8371C102.221 91.6894 103.344 87.9888 103.344 84.2031C103.338 79.1284 101.32 74.263 97.7314 70.6747C94.143 67.0863 89.2776 65.0679 84.2029 65.0625ZM84.2029 97.875C80.5781 97.871 77.1029 96.4293 74.5398 93.8662C71.9767 91.3031 70.535 87.8279 70.531 84.2031C70.531 83.8405 70.6751 83.4928 70.9315 83.2364C71.1878 82.98 71.5356 82.8359 71.8982 82.8359C72.2608 82.8359 72.6086 82.98 72.8649 83.2364C73.1213 83.4928 73.2654 83.8405 73.2654 84.2031C73.2686 87.1029 74.422 89.883 76.4725 91.9335C78.523 93.984 81.3031 95.1374 84.2029 95.1406C84.5655 95.1406 84.9132 95.2847 85.1696 95.5411C85.426 95.7975 85.5701 96.1452 85.5701 96.5078C85.5701 96.8704 85.426 97.2182 85.1696 97.4746C84.9132 97.731 84.5655 97.875 84.2029 97.875ZM96.5076 85.5703C96.145 85.5703 95.7972 85.4263 95.5408 85.1699C95.2844 84.9135 95.1404 84.5657 95.1404 84.2031C95.1371 81.3033 93.9837 78.5232 91.9333 76.4727C89.8828 74.4223 87.1027 73.2689 84.2029 73.2656C83.8403 73.2656 83.4925 73.1216 83.2361 72.8652C82.9797 72.6088 82.8357 72.261 82.8357 71.8984C82.8357 71.5358 82.9797 71.1881 83.2361 70.9317C83.4925 70.6753 83.8403 70.5313 84.2029 70.5313C87.8277 70.5352 91.3029 71.9769 93.866 74.54C96.4291 77.1032 97.8708 80.5783 97.8748 84.2031C97.8748 84.5657 97.7307 84.9135 97.4743 85.1699C97.2179 85.4263 96.8702 85.5703 96.5076 85.5703Z" fill="#E07275"/>
<path d="M65.0625 33.6172C58.8432 33.6172 52.7636 35.4614 47.5924 38.9167C42.4213 42.3719 38.3909 47.283 36.0108 53.0289C33.6308 58.7748 33.0081 65.0974 34.2214 71.1972C35.4347 77.297 38.4296 82.9 42.8273 87.2977C47.225 91.6954 52.828 94.6903 58.9278 95.9036C65.0276 97.1169 71.3502 96.4942 77.0961 94.1142C82.842 91.7342 87.7531 87.7037 91.2083 82.5326C94.6636 77.3614 96.5078 71.2818 96.5078 65.0625C96.4988 56.7255 93.1829 48.7325 87.2877 42.8373C81.3925 36.9421 73.3996 33.6262 65.0625 33.6172ZM65.0625 93.7734C59.384 93.7734 53.8331 92.0896 49.1116 88.9348C44.3901 85.78 40.7101 81.2959 38.5371 76.0497C36.364 70.8035 35.7954 65.0307 36.9032 59.4613C38.0111 53.8919 40.7455 48.7761 44.7608 44.7608C48.7761 40.7455 53.8919 38.0111 59.4613 36.9032C65.0307 35.7954 70.8035 36.364 76.0497 38.5371C81.2959 40.7101 85.78 44.3901 88.9348 49.1116C92.0896 53.833 93.7735 59.384 93.7735 65.0625C93.7648 72.6744 90.7371 79.9721 85.3546 85.3546C79.9722 90.7371 72.6745 93.7648 65.0625 93.7734Z" fill="#0B0B0B"/>
<path d="M65.0625 40.4531C60.1952 40.4531 55.4373 41.8964 51.3903 44.6006C47.3433 47.3047 44.189 51.1481 42.3264 55.6449C40.4638 60.1417 39.9764 65.0898 40.926 69.8636C41.8756 74.6373 44.2194 79.0223 47.6611 82.464C51.1027 85.9056 55.4877 88.2495 60.2615 89.199C65.0352 90.1486 69.9833 89.6612 74.4801 87.7986C78.9769 85.936 82.8203 82.7817 85.5245 78.7347C88.2286 74.6877 89.6719 69.9298 89.6719 65.0625C89.6643 58.538 87.0691 52.2829 82.4556 47.6694C77.8421 43.0559 71.587 40.4607 65.0625 40.4531ZM65.0625 86.9375C60.736 86.9375 56.5067 85.6546 52.9094 83.2509C49.3121 80.8472 46.5083 77.4308 44.8526 73.4337C43.197 69.4366 42.7638 65.0382 43.6078 60.7949C44.4519 56.5516 46.5353 52.6538 49.5945 49.5945C52.6538 46.5353 56.5516 44.4519 60.7949 43.6078C65.0382 42.7638 69.4366 43.197 73.4337 44.8526C77.4308 46.5083 80.8472 49.3121 83.2509 52.9094C85.6546 56.5067 86.9375 60.736 86.9375 65.0625C86.9306 70.862 84.6237 76.422 80.5229 80.5229C76.422 84.6237 70.862 86.9306 65.0625 86.9375Z" fill="#0B0B0B"/>
<path d="M68.1593 63.627C67.4757 63.3836 66.8509 63.1525 66.2685 62.927V53.5658C67.3447 53.7183 68.3623 54.1495 69.2203 54.8168C69.4877 55.0617 69.8414 55.1904 70.2037 55.1745C70.566 55.1586 70.9072 54.9994 71.1521 54.732C71.397 54.4646 71.5257 54.1108 71.5098 53.7486C71.4939 53.3863 71.3348 53.0451 71.0673 52.8002C69.7015 51.6714 68.0314 50.9734 66.2685 50.7945V48.6562C66.2685 48.2936 66.1245 47.9459 65.8681 47.6895C65.6117 47.4331 65.2639 47.2891 64.9013 47.2891C64.5387 47.2891 64.191 47.4331 63.9346 47.6895C63.6782 47.9459 63.5341 48.2936 63.5341 48.6562V50.9053C63.1519 50.9747 62.7739 51.066 62.4021 51.1787C61.1896 51.5618 60.1061 52.2716 59.2704 53.23C58.4347 54.1884 57.8792 55.3585 57.6648 56.6119C57.4154 57.6898 57.4664 58.8154 57.812 59.8664C58.1577 60.9173 58.7849 61.8534 59.6253 62.5729C60.8291 63.4703 62.1427 64.21 63.5341 64.774V76.3623C61.8624 76.347 60.2405 75.7917 58.9103 74.7791C58.6068 74.5797 58.2365 74.509 57.8809 74.5826C57.5253 74.6561 57.2134 74.868 57.014 75.1715C56.8146 75.475 56.7439 75.8453 56.8175 76.2009C56.8911 76.5565 57.1029 76.8683 57.4064 77.0678C59.1821 78.3765 61.3283 79.0861 63.5341 79.0939V81.4688C63.5341 81.8314 63.6782 82.1791 63.9346 82.4355C64.191 82.6919 64.5387 82.8359 64.9013 82.8359C65.2639 82.8359 65.6117 82.6919 65.8681 82.4355C66.1245 82.1791 66.2685 81.8314 66.2685 81.4688V78.99C68.0118 78.7092 69.6222 77.886 70.8708 76.6374C72.1193 75.3888 72.9426 73.7784 73.2234 72.0352C73.5638 70.2559 73.2352 68.4137 72.3006 66.8619C71.366 65.3101 69.8912 64.1581 68.1593 63.627ZM63.5341 61.7525C62.7502 61.384 62.0062 60.9359 61.3138 60.4154C60.8707 60.0033 60.5477 59.4787 60.3792 58.8975C60.2106 58.3163 60.2029 57.7003 60.3568 57.115C60.4837 56.2948 60.8547 55.5317 61.4214 54.9252C61.9881 54.3188 62.7243 53.897 63.5341 53.7148V61.7525ZM70.5314 71.5826C70.35 72.6834 69.8502 73.7069 69.0935 74.5267C68.3369 75.3465 67.3567 75.9266 66.274 76.1955V65.8486C66.5925 65.9662 66.9097 66.0824 67.2543 66.2041C68.3737 66.529 69.331 67.2613 69.9375 68.2568C70.5441 69.2523 70.7559 70.4388 70.5314 71.5826Z" fill="#0B0B0B"/>
<defs>
<filter id="filter0_d" x="0" y="0" width="152" height="152" filterUnits="userSpaceOnUse" color-interpolation-filters="sRGB">
<feFlood flood-opacity="0" result="BackgroundImageFix"/>
<feColorMatrix in="SourceAlpha" type="matrix" values="0 0 0 0 0 0 0 0 0 0 0 0 0 0 0 0 0 0 127 0"/>
<feMorphology radius="2" operator="dilate" in="SourceAlpha" result="effect1_dropShadow"/>
<feOffset/>
<feGaussianBlur stdDeviation="2"/>
<feColorMatrix type="matrix" values="0 0 0 0 0.441667 0 0 0 0 0.185868 0 0 0 0 0.193282 0 0 0 0.25 0"/>
<feBlend mode="normal" in2="BackgroundImageFix" result="effect1_dropShadow"/>
<feBlend mode="normal" in="SourceGraphic" in2="effect1_dropShadow" result="shape"/>
</filter>
</defs>
</svg>
