<svg width="569" height="284" viewBox="0 0 569 284" fill="none" xmlns="http://www.w3.org/2000/svg">
<path d="M266.28 37.9702C179.523 37.9702 109.193 108.092 109.193 194.591C109.193 227.604 119.437 258.231 136.928 283.484H395.632C413.123 258.231 423.367 227.604 423.367 194.591C423.367 108.092 353.037 37.9702 266.28 37.9702Z" fill="#FAEDED"/>
<path d="M265.805 49.4137C183.07 49.4137 116 116.267 116 198.735C116 230.208 125.769 259.408 142.45 283.484H389.161C405.841 259.408 415.61 230.208 415.61 198.735C415.61 116.267 348.54 49.4137 265.805 49.4137Z" fill="#D84E52"/>
<path d="M388.9 171.608V193.945H382.412V171.608H375.272V165.757H396V171.608H388.9Z" fill="#E07275"/>
<path d="M355.646 177.744V193.945H349.158V165.757H354.993L359.686 172.589L365.847 181.958H365.969V165.757H372.416V193.945H366.622L360.828 185.354L355.85 177.744H355.646Z" fill="#E07275"/>
<path d="M325.859 165.757H345.485V171.567H332.346V176.844H343.567V182.613H332.346V188.176H345.485V193.945H325.859V165.757Z" fill="#E07275"/>
<path d="M310.924 184.453L313.781 174.267L316.229 165.757H323.002L314.066 193.945H307.415L298.398 165.757H305.334L307.864 174.43L310.679 184.453H310.924Z" fill="#E07275"/>
<path d="M276.755 165.757H296.153V171.567H283.015V176.844H294.235V182.613H283.015V188.176H296.153V193.945H276.754C279.605 189.98 281.285 185.112 281.285 179.851C281.285 174.59 279.605 169.723 276.755 165.757Z" fill="#E07275"/>
<path d="M219.332 165.757H237.673C236.4 167.529 235.359 169.48 234.599 171.567H225.819V176.844H233.329C233.207 177.829 233.143 178.832 233.143 179.851C233.143 180.785 233.198 181.706 233.301 182.613H225.819V188.176H234.614C235.373 190.248 236.408 192.185 237.673 193.945H219.332V165.757Z" fill="#E07275"/>
<path d="M209.251 180.813L206.599 185.885L204.15 190.181H199.54L197.05 185.722L194.521 180.854H194.357V193.945H187.87V165.757H193.827L198.479 174.921L201.784 181.631H202.029L205.456 174.676L209.903 165.757H215.861V193.945H209.373V180.813H209.251Z" fill="#E07275"/>
<path d="M176.404 188.381H167.346L165.673 193.945H158.696L168.611 165.757H175.302L185.055 193.945H178.118L176.404 188.381ZM168.978 183.063H174.772L174.201 181.14L171.957 173.367H171.793L169.549 181.14L168.978 183.063Z" fill="#E07275"/>
<path d="M156.288 190.058C155.662 190.849 154.948 191.511 154.146 192.043C153.344 192.574 152.521 193.004 151.677 193.331C150.834 193.659 149.991 193.89 149.148 194.027C148.304 194.163 147.515 194.232 146.781 194.232C145.502 194.232 144.21 194.054 142.905 193.7C141.599 193.345 140.416 192.799 139.355 192.063C138.294 191.327 137.43 190.393 136.763 189.261C136.097 188.129 135.764 186.785 135.764 185.231V174.716C135.764 173.162 136.084 171.812 136.723 170.666C137.362 169.521 138.205 168.559 139.253 167.782C140.3 167.005 141.477 166.425 142.782 166.044C144.088 165.661 145.421 165.471 146.781 165.471C148.44 165.471 150.106 165.71 151.779 166.187C153.452 166.664 154.846 167.393 155.961 168.376L152.82 173.408C151.895 172.616 150.909 172.091 149.862 171.832C148.814 171.574 147.842 171.444 146.944 171.444C146.4 171.444 145.856 171.525 145.312 171.689C144.768 171.853 144.265 172.105 143.802 172.446C143.34 172.787 142.966 173.237 142.68 173.796C142.394 174.355 142.252 175.044 142.252 175.862V183.84C142.252 184.658 142.388 185.347 142.66 185.906C142.932 186.465 143.285 186.915 143.721 187.256C144.156 187.597 144.639 187.849 145.169 188.013C145.699 188.176 146.237 188.258 146.781 188.258C147.271 188.258 147.781 188.19 148.311 188.054C148.841 187.917 149.338 187.658 149.8 187.277V183.471H145.924V177.99H156.288V190.058Z" fill="#E07275"/>
<path fill-rule="evenodd" clip-rule="evenodd" d="M257.214 158.593C259.594 158.593 261.882 158.986 264.019 159.711L239.654 181.495L241.109 187.712L257.596 187.665L254.455 200.93C244.049 199.575 236.011 190.655 236.011 179.851C236.011 168.11 245.504 158.593 257.214 158.593ZM269.911 162.825C275.074 166.702 278.416 172.885 278.416 179.851C278.416 190.138 271.128 198.718 261.446 200.685L264.362 187.646L267.368 187.637L268.539 181.413L265.753 181.421L269.911 162.825ZM261.863 169.648L248.777 181.469L259.07 181.44L261.863 169.648Z" fill="#E07275"/>
<path d="M142.939 210.205L139.927 215.819C139.638 216.359 139.289 216.768 138.882 217.044C138.474 217.322 138.031 217.46 137.553 217.46C137.182 217.46 136.798 217.379 136.4 217.217L136.795 215.97C137.078 216.058 137.314 216.102 137.502 216.102C137.705 216.102 137.887 216.053 138.048 215.955C138.21 215.857 138.358 215.704 138.493 215.494L138.553 215.413L135.764 210.205H137.513L139.392 214.015L141.333 210.205H142.939ZM150.155 217.298L150.145 213.052L148.063 216.548H147.336L145.254 213.134V217.298H143.718V210.205H145.072L147.72 214.613L150.327 210.205H151.681L151.691 217.298H150.155ZM159.938 210.205V217.298H158.301V214.39H155.087V217.298H153.45V210.205H155.087V213.002H158.301V210.205H159.938ZM165.132 212.535C165.995 212.535 166.657 212.728 167.118 213.113C167.58 213.498 167.81 214.069 167.81 214.826C167.81 215.629 167.556 216.242 167.048 216.665C166.539 217.087 165.823 217.298 164.9 217.298H161.706V210.205H163.333V212.535H165.132ZM164.809 216.082C165.233 216.082 165.565 215.977 165.805 215.768C166.044 215.558 166.163 215.255 166.163 214.856C166.163 214.12 165.712 213.752 164.809 213.752H163.333V216.082H164.809ZM168.71 210.205H170.337V217.298H168.71V210.205ZM172.096 210.205H173.723V214.826L177.099 210.205H178.635V217.298H177.018V212.687L173.642 217.298H172.096V210.205ZM175.36 209.749C174.067 209.749 173.413 209.232 173.4 208.198H174.521C174.535 208.692 174.814 208.938 175.36 208.938C175.63 208.938 175.835 208.876 175.977 208.751C176.118 208.626 176.192 208.442 176.199 208.198H177.321C177.314 208.705 177.149 209.09 176.826 209.354C176.502 209.617 176.013 209.749 175.36 209.749ZM186.598 217.42C185.878 217.42 185.226 217.263 184.643 216.948C184.06 216.634 183.602 216.199 183.268 215.641C182.935 215.084 182.768 214.454 182.768 213.752C182.768 213.049 182.935 212.419 183.268 211.862C183.602 211.305 184.06 210.869 184.643 210.554C185.226 210.24 185.881 210.083 186.608 210.083C187.221 210.083 187.776 210.191 188.271 210.407C188.766 210.624 189.182 210.934 189.519 211.339L188.468 212.312C187.99 211.759 187.397 211.482 186.689 211.482C186.251 211.482 185.86 211.578 185.517 211.771C185.173 211.963 184.905 212.232 184.713 212.576C184.522 212.921 184.426 213.312 184.426 213.752C184.426 214.191 184.522 214.582 184.713 214.927C184.905 215.271 185.173 215.54 185.517 215.733C185.86 215.925 186.251 216.021 186.689 216.021C187.397 216.021 187.99 215.741 188.468 215.18L189.519 216.153C189.182 216.565 188.764 216.879 188.266 217.095C187.767 217.311 187.211 217.42 186.598 217.42ZM196.068 215.981V217.298H190.59V210.205H195.936V211.522H192.217V213.062H195.502V214.339H192.217V215.981H196.068ZM200.454 210.205C201.081 210.205 201.625 210.31 202.086 210.519C202.548 210.729 202.903 211.026 203.153 211.411C203.402 211.796 203.526 212.252 203.526 212.779C203.526 213.299 203.402 213.753 203.153 214.141C202.903 214.53 202.548 214.827 202.086 215.033C201.625 215.239 201.081 215.342 200.454 215.342H199.029V217.298H197.392V210.205H200.454ZM200.363 214.005C200.855 214.005 201.229 213.899 201.485 213.686C201.741 213.473 201.869 213.17 201.869 212.779C201.869 212.38 201.741 212.074 201.485 211.862C201.229 211.649 200.855 211.542 200.363 211.542H199.029V214.005H200.363ZM208.054 217.42C207.333 217.42 206.682 217.263 206.099 216.948C205.515 216.634 205.058 216.199 204.724 215.641C204.39 215.084 204.224 214.454 204.224 213.752C204.224 213.049 204.39 212.419 204.724 211.862C205.058 211.305 205.515 210.869 206.099 210.554C206.682 210.24 207.336 210.083 208.064 210.083C208.677 210.083 209.231 210.191 209.727 210.407C210.222 210.624 210.638 210.934 210.975 211.339L209.923 212.312C209.445 211.759 208.853 211.482 208.145 211.482C207.707 211.482 207.316 211.578 206.973 211.771C206.629 211.963 206.361 212.232 206.169 212.576C205.977 212.921 205.881 213.312 205.881 213.752C205.881 214.191 205.977 214.582 206.169 214.927C206.361 215.271 206.629 215.54 206.973 215.733C207.316 215.925 207.707 216.021 208.145 216.021C208.853 216.021 209.445 215.741 209.923 215.18L210.975 216.153C210.638 216.565 210.22 216.879 209.722 217.095C209.223 217.311 208.667 217.42 208.054 217.42ZM212.046 210.205H213.673V214.826L217.049 210.205H218.585V217.298H216.968V212.687L213.592 217.298H212.046V210.205ZM223.688 217.42C222.968 217.42 222.316 217.263 221.733 216.948C221.15 216.634 220.692 216.199 220.358 215.641C220.025 215.084 219.858 214.454 219.858 213.752C219.858 213.049 220.025 212.419 220.358 211.862C220.692 211.305 221.15 210.869 221.733 210.554C222.316 210.24 222.971 210.083 223.698 210.083C224.311 210.083 224.866 210.191 225.361 210.407C225.856 210.624 226.272 210.934 226.609 211.339L225.558 212.312C225.08 211.759 224.487 211.482 223.779 211.482C223.341 211.482 222.95 211.578 222.607 211.771C222.264 211.963 221.995 212.232 221.803 212.576C221.612 212.921 221.516 213.312 221.516 213.752C221.516 214.191 221.612 214.582 221.803 214.927C221.995 215.271 222.264 215.54 222.607 215.733C222.95 215.925 223.341 216.021 223.779 216.021C224.487 216.021 225.08 215.741 225.558 215.18L226.609 216.153C226.272 216.565 225.854 216.879 225.356 217.095C224.857 217.311 224.301 217.42 223.688 217.42ZM236.988 210.205V217.298H235.361V211.542H232.167V217.298H230.541V210.205H236.988ZM242.122 217.42C241.388 217.42 240.726 217.261 240.136 216.943C239.547 216.626 239.085 216.188 238.752 215.631C238.418 215.074 238.252 214.447 238.252 213.752C238.252 213.056 238.418 212.429 238.752 211.872C239.085 211.314 239.547 210.877 240.136 210.559C240.726 210.242 241.388 210.083 242.122 210.083C242.856 210.083 243.517 210.242 244.103 210.559C244.689 210.877 245.151 211.314 245.488 211.872C245.825 212.429 245.993 213.056 245.993 213.752C245.993 214.447 245.825 215.074 245.488 215.631C245.151 216.188 244.689 216.626 244.103 216.943C243.517 217.261 242.856 217.42 242.122 217.42ZM242.122 216.021C242.54 216.021 242.917 215.925 243.254 215.733C243.591 215.54 243.855 215.271 244.047 214.927C244.239 214.582 244.335 214.191 244.335 213.752C244.335 213.312 244.239 212.921 244.047 212.576C243.855 212.232 243.591 211.963 243.254 211.771C242.917 211.578 242.54 211.482 242.122 211.482C241.704 211.482 241.328 211.578 240.991 211.771C240.653 211.963 240.389 212.232 240.197 212.576C240.005 212.921 239.909 213.312 239.909 213.752C239.909 214.191 240.005 214.582 240.197 214.927C240.389 215.271 240.653 215.54 240.991 215.733C241.328 215.925 241.704 216.021 242.122 216.021ZM259.424 210.205V217.298H257.797V211.542H254.604V217.298H252.977V210.205H259.424ZM264.558 217.42C263.824 217.42 263.162 217.261 262.573 216.943C261.983 216.626 261.521 216.188 261.188 215.631C260.854 215.074 260.688 214.447 260.688 213.752C260.688 213.056 260.854 212.429 261.188 211.872C261.521 211.314 261.983 210.877 262.573 210.559C263.162 210.242 263.824 210.083 264.558 210.083C265.292 210.083 265.953 210.242 266.539 210.559C267.126 210.877 267.587 211.314 267.924 211.872C268.261 212.429 268.429 213.056 268.429 213.752C268.429 214.447 268.261 215.074 267.924 215.631C267.587 216.188 267.126 216.626 266.539 216.943C265.953 217.261 265.292 217.42 264.558 217.42ZM264.558 216.021C264.976 216.021 265.353 215.925 265.69 215.733C266.027 215.54 266.291 215.271 266.484 214.927C266.676 214.582 266.771 214.191 266.771 213.752C266.771 213.312 266.676 212.921 266.484 212.576C266.291 212.232 266.027 211.963 265.69 211.771C265.353 211.578 264.976 211.482 264.558 211.482C264.14 211.482 263.763 211.578 263.426 211.771C263.09 211.963 262.825 212.232 262.633 212.576C262.441 212.921 262.345 213.312 262.345 213.752C262.345 214.191 262.441 214.582 262.633 214.927C262.825 215.271 263.09 215.54 263.426 215.733C263.763 215.925 264.14 216.021 264.558 216.021ZM276.787 215.96V218.767H275.271V217.298H270.278V218.767H268.763L268.773 215.96H269.056C269.48 215.947 269.78 215.636 269.955 215.028C270.13 214.42 270.238 213.552 270.278 212.424L270.359 210.205H275.796V215.96H276.787ZM271.724 212.576C271.69 213.421 271.619 214.128 271.511 214.699C271.404 215.27 271.238 215.69 271.016 215.96H274.179V211.542H271.754L271.724 212.576ZM277.889 210.205H283.599V211.512H279.515V212.971H281.476C282.332 212.971 282.984 213.15 283.432 213.508C283.88 213.866 284.104 214.383 284.104 215.059C284.104 215.768 283.855 216.318 283.356 216.71C282.857 217.102 282.153 217.298 281.243 217.298H277.889V210.205ZM281.152 216.082C281.57 216.082 281.891 215.999 282.113 215.834C282.335 215.668 282.447 215.427 282.447 215.109C282.447 214.488 282.015 214.177 281.152 214.177H279.515V216.082H281.152ZM288.722 217.42C287.988 217.42 287.326 217.261 286.737 216.943C286.147 216.626 285.686 216.188 285.352 215.631C285.018 215.074 284.852 214.447 284.852 213.752C284.852 213.056 285.018 212.429 285.352 211.872C285.686 211.314 286.147 210.877 286.737 210.559C287.326 210.242 287.988 210.083 288.722 210.083C289.457 210.083 290.117 210.242 290.703 210.559C291.29 210.877 291.751 211.314 292.088 211.872C292.425 212.429 292.593 213.056 292.593 213.752C292.593 214.447 292.425 215.074 292.088 215.631C291.751 216.188 291.29 216.626 290.703 216.943C290.117 217.261 289.457 217.42 288.722 217.42ZM288.722 216.021C289.14 216.021 289.517 215.925 289.854 215.733C290.191 215.54 290.456 215.271 290.648 214.927C290.84 214.582 290.936 214.191 290.936 213.752C290.936 213.312 290.84 212.921 290.648 212.576C290.456 212.232 290.191 211.963 289.854 211.771C289.517 211.578 289.14 211.482 288.722 211.482C288.305 211.482 287.928 211.578 287.591 211.771C287.254 211.963 286.989 212.232 286.797 212.576C286.605 212.921 286.509 213.312 286.509 213.752C286.509 214.191 286.605 214.582 286.797 214.927C286.989 215.271 287.254 215.54 287.591 215.733C287.928 215.925 288.305 216.021 288.722 216.021ZM296.919 210.205C297.545 210.205 298.09 210.31 298.551 210.519C299.012 210.729 299.368 211.026 299.617 211.411C299.866 211.796 299.991 212.252 299.991 212.779C299.991 213.299 299.866 213.753 299.617 214.141C299.368 214.53 299.012 214.827 298.551 215.033C298.09 215.239 297.545 215.342 296.919 215.342H295.494V217.298H293.857V210.205H296.919ZM296.828 214.005C297.32 214.005 297.694 213.899 297.95 213.686C298.206 213.473 298.334 213.17 298.334 212.779C298.334 212.38 298.206 212.074 297.95 211.862C297.694 211.649 297.32 211.542 296.828 211.542H295.494V214.005H296.828ZM307.308 210.205L304.296 215.819C304.006 216.359 303.657 216.768 303.25 217.044C302.843 217.322 302.4 217.46 301.921 217.46C301.551 217.46 301.167 217.379 300.769 217.217L301.163 215.97C301.446 216.058 301.682 216.102 301.871 216.102C302.073 216.102 302.255 216.053 302.416 215.955C302.578 215.857 302.726 215.704 302.861 215.494L302.922 215.413L300.132 210.205H301.881L303.76 214.015L305.701 210.205H307.308ZM316.504 211.542H314.241V217.298H312.624V211.542H310.37V210.205H316.504V211.542ZM317.535 210.205H319.162V214.826L322.538 210.205H324.074V217.298H322.457V212.687L319.081 217.298H317.535V210.205ZM332.27 217.298L332.26 213.052L330.178 216.548H329.451L327.369 213.134V217.298H325.833V210.205H327.187L329.835 214.613L332.442 210.205H333.796L333.806 217.298H332.27ZM335.565 210.205H341.275V211.512H337.192V212.971H339.152C340.008 212.971 340.66 213.15 341.108 213.508C341.556 213.866 341.78 214.383 341.78 215.059C341.78 215.768 341.531 216.318 341.032 216.71C340.534 217.102 339.829 217.298 338.92 217.298H335.565V210.205ZM338.829 216.082C339.247 216.082 339.567 215.999 339.789 215.834C340.011 215.668 340.123 215.427 340.123 215.109C340.123 214.488 339.691 214.177 338.829 214.177H337.192V216.082H338.829ZM343.023 210.205H344.65V214.826L348.026 210.205H349.562V217.298H347.945V212.687L344.569 217.298H343.023V210.205ZM357.576 210.205V217.298H355.959V211.542H353.534L353.483 213.022C353.449 214.029 353.368 214.844 353.241 215.469C353.112 216.094 352.899 216.574 352.599 216.908C352.299 217.242 351.88 217.41 351.341 217.41C351.118 217.41 350.849 217.372 350.532 217.298L350.633 215.91C350.721 215.937 350.819 215.95 350.926 215.95C351.317 215.95 351.59 215.719 351.745 215.256C351.9 214.794 351.997 214.069 352.038 213.083L352.139 210.205H357.576ZM366.591 215.96V218.767H365.075V217.298H360.082V218.767H358.566L358.577 215.96H358.86C359.284 215.947 359.583 215.636 359.759 215.028C359.934 214.42 360.042 213.552 360.082 212.424L360.163 210.205H365.6V215.96H366.591ZM361.528 212.576C361.494 213.421 361.423 214.128 361.315 214.699C361.207 215.27 361.043 215.69 360.82 215.96H363.983V211.542H361.558L361.528 212.576ZM367.692 210.205H369.32V214.826L372.695 210.205H374.231V217.298H372.614V212.687L369.238 217.298H367.692V210.205ZM382.478 210.205V217.298H380.841V214.39H377.627V217.298H375.99V210.205H377.627V213.002H380.841V210.205H382.478ZM389.229 211.542H385.863L385.873 217.298H384.246V210.205H389.239L389.229 211.542ZM393.655 215.778H390.371L389.744 217.298H388.067L391.22 210.205H392.837L396 217.298H394.282L393.655 215.778ZM393.14 214.532L392.018 211.816L390.897 214.532H393.14Z" fill="#E07275"/>
<path d="M295.051 283.355L243.103 283.355C241.79 283.355 240.689 282.363 240.552 281.057C240.393 279.537 241.59 278.216 243.119 278.225L295.066 278.545C296.394 278.553 297.464 279.637 297.456 280.965C297.448 282.287 296.373 283.355 295.051 283.355Z" fill="#696969"/>
<path d="M316.636 283.192C324.752 283.192 296.004 193.733 291.077 169.098C284.179 177.966 277.677 207.725 275.312 212.455C272.947 217.185 278.046 266.112 280.674 283.192C284.287 283.849 302.251 283.192 316.636 283.192Z" fill="white"/>
<path d="M252 114.5C255.961 120.733 263.138 126.725 266.423 126.725C274.635 128.368 291.846 132.441 295 135.594C298.941 139.536 301.897 150.375 301.897 143.477C301.897 136.58 305.858 135.594 306.844 121.799C305.858 105.047 301.897 104 289.107 101.105C258 101.105 264 113.5 252 114.5Z" fill="#251818"/>
<path d="M304.872 152.346L297.975 138.55C297.975 141.506 283.194 148.404 287.135 156.287C291.077 164.17 290.091 175.01 292.062 175.01C293.639 175.01 301.259 159.9 304.872 152.346Z" fill="#CA9797"/>
<path d="M268.413 252.856C271.566 252.068 276.296 261.725 278.267 266.652C277.281 267.637 257.573 272.564 251.661 273.549C245.748 274.535 232.938 286.36 232.938 279.462C232.938 272.564 247.719 266.652 253.084 266.652C258.448 266.652 264.471 253.841 268.413 252.856Z" fill="#CA9797"/>
<path d="M280.515 177.965C280.515 176.389 286.15 166.469 289.106 162.199C290.091 165.155 291.077 172.053 292.062 175.009C290.486 175.797 285.772 184.863 284.458 189.79C282.816 186.505 280.515 179.542 280.515 177.965Z" fill="#3B4073"/>
<path d="M293.326 261.724C290.961 260.147 290.37 205.228 290.37 177.965L296.989 186.834C300.931 178.951 308.106 174.024 314.018 163.184C327.814 163.184 337.668 180.922 339.639 186.834C342.595 195.702 344.566 210.483 344.566 217.381C344.566 224.279 347.522 252.855 349.493 260.739C351.461 276.505 350.201 270.006 353.797 283.192H296C294.026 268.411 296.282 263.695 293.326 261.724Z" fill="#3B4073"/>
<path d="M288.5 174.5C290 173 300.558 159.383 304.5 151.5C312 154 314.5 160.5 315 163.5C313.5 168 299.5 188.5 295.5 191C292.544 190.015 289.647 179.189 288.5 174.5Z" fill="#5D64AA"/>
<path d="M281.216 180.922C282.201 183.878 283.186 186.834 284.172 188.805C281.216 214 286.058 268.411 290 283.192H279.476C274.681 256.82 269.474 257.693 266.189 254.08C268.405 250.885 268.405 250.885 271.362 244.973C269.391 228.221 280.904 179.987 281.216 180.922L281.216 180.922Z" fill="#5D64AA"/>
<path d="M305.605 254.08C309.547 254.868 325.236 261.068 331.477 264.681C342.316 267.637 338.374 251.871 335.419 247.929C335.418 239.06 335.167 228.459 335.167 203.824C335.167 179.19 326.297 176.233 320.385 176.233C314.473 176.233 310.587 181.746 307.575 190.029C303.633 200.868 304.5 220.5 305.605 225.503C308.411 238.204 309 242.255 306.59 242.255C303.5 241.5 300.678 253.094 305.605 254.08Z" fill="#5D64AA"/>
<path d="M300.931 126.726C302.508 129.879 300.275 133.623 298.961 135.594C298.961 153.331 289.106 156.287 284.179 157.272C279.5 158.208 265.457 145.448 266.442 124.754C268.413 110.959 291.077 117.857 292.062 129.682C292.062 121.799 298.96 122.784 300.931 126.726Z" fill="#EDB6B6"/>
<path d="M305.858 253.842C311.771 253.842 326.552 260.082 331.479 264.681C324.581 275.521 290.092 276.506 284.179 276.506C277.282 276.506 268.413 275.521 266.442 276.506C264.472 277.491 246.734 285.375 246.734 279.462C247.72 271.579 266.442 266.652 272.355 267.637C278.267 268.623 296.99 255.813 305.858 253.842Z" fill="#EDB6B6"/>
<path d="M86.8259 64.4985C130.519 -23.927 250.675 -6.24319 262.639 34.8495C272.484 68.6642 234.551 81.6635 194.498 98.8286C170.571 109.083 154.446 167.488 240.792 175.812M358.348 167.489C383.315 183.094 411.988 162.808 406.723 130.558C398.4 79.5828 466.02 55.6556 506.073 113.913" stroke="black" stroke-width="2" stroke-linecap="round" stroke-linejoin="round" stroke-dasharray="4 6"/>
<path d="M4.98305 117.416L61.1728 71.0977L74.4261 81.0265L21.8161 110.308L76.08 88.7469L82.1037 86.2413L108.026 108.463L81.3447 110.166L4.98305 117.416Z" fill="#D84E52"/>
<path d="M75.3176 89.128L74.4245 81.0267L21.8145 110.308L75.3176 89.128Z" fill="#D84E52"/>
<path d="M79.5072 110.342L4.98153 117.416L79.6686 118.823L79.5072 110.342Z" fill="#D84E52"/>
<path d="M1 111.833L53.485 70.22L65.4995 79.5828L16.6047 105.591L66.8854 86.7118L72.4689 84.5129L95.9197 105.403L71.3522 106.502L1 111.833Z" stroke="black" stroke-width="2" stroke-linecap="round" stroke-linejoin="round"/>
<path d="M66.0196 86.865L65.4995 79.5828L16.6047 105.591L66.0196 86.865Z" stroke="black" stroke-width="2" stroke-linecap="round" stroke-linejoin="round"/>
<path d="M69.6607 106.631L1 111.833L69.6607 114.433V106.631Z" stroke="black" stroke-width="2" stroke-linecap="round" stroke-linejoin="round"/>
<path d="M499.608 185.695L485.786 141.78L554.893 121.195L568.714 165.11L499.608 185.695Z" fill="#CA4246"/>
<path d="M478.507 137.077L492.329 180.991M478.507 137.077L547.614 116.492M478.507 137.077L511.678 149.67M492.329 180.991L561.435 160.406M492.329 180.991L511.678 149.67M561.435 160.406L547.614 116.492M561.435 160.406L532.41 143.938M547.614 116.492L532.41 143.938M511.678 149.67L525.5 154.917L532.41 143.938" stroke="black" stroke-width="2" stroke-linecap="round" stroke-linejoin="round"/>
<path d="M331.798 77.3143L341.516 80.6921C342.005 79.2837 343.781 76.0809 346.97 74.5373C350.955 72.6077 354.096 70.3849 356.005 64.8921C357.915 59.3994 356.168 52.1624 347.295 49.0783C338.422 45.9941 332.564 50.5876 330.654 56.0803C328.745 61.5731 329.83 65.2647 331.76 69.2504C333.303 72.4389 332.287 75.9059 331.798 77.3143Z" fill="#FFC700"/>
<rect x="329.584" y="75.9363" width="14.4929" height="14.7023" rx="4" transform="rotate(19.167 329.584 75.9363)" fill="#595959"/>
<path d="M298.596 42.9537L315.157 51.3304M326.463 25.9894L331.36 37.1048M359.481 22.4525L353.948 36.9543M370.985 53.6269L389.447 46.3857M366.393 73.0477L382.489 84.8012" stroke="#FFC700" stroke-width="5" stroke-linecap="round" stroke-linejoin="round"/>
<path d="M331.335 59.6072L330.347 59.762L331.335 59.6072ZM341.53 58.8886L342.346 58.3108C342.163 58.0518 341.867 57.8952 341.55 57.8888C341.233 57.8824 340.931 58.027 340.738 58.2784L341.53 58.8886ZM330.071 74.4454C331.239 72.0363 333.307 65.7298 332.323 59.4524L330.347 59.762C331.247 65.5049 329.33 71.3889 328.271 73.5725L330.071 74.4454ZM332.323 59.4524C332.178 58.5228 332.089 57.8351 332.045 57.3409C332.024 57.094 332.014 56.9061 332.013 56.7671C332.013 56.6981 332.015 56.6463 332.017 56.609C332.02 56.5704 332.023 56.5559 332.022 56.5589C332.022 56.5611 332.02 56.5712 332.015 56.5876C332.01 56.6036 332.001 56.6303 331.986 56.6639C331.958 56.7242 331.889 56.853 331.741 56.9688C331.574 57.0997 331.364 57.1677 331.152 57.1605C330.965 57.154 330.832 57.0912 330.772 57.0577C330.666 56.9986 330.633 56.9442 330.679 56.9977C330.71 57.0343 330.759 57.0985 330.827 57.1992C331.131 57.651 331.463 58.2744 331.929 59.0348C332.144 59.3846 332.377 59.7438 332.617 60.0564C332.844 60.3529 333.132 60.6817 333.47 60.9026L334.565 59.2291C334.517 59.1976 334.395 59.0879 334.204 58.8398C334.027 58.6077 333.835 58.316 333.634 57.9885C333.269 57.3944 332.806 56.5576 332.486 56.0819C332.397 55.9507 332.3 55.8164 332.199 55.6977C332.112 55.5958 331.958 55.4294 331.747 55.3114C331.512 55.1799 330.991 55.0161 330.509 55.3935C330.169 55.6597 330.086 56.04 330.059 56.176C329.992 56.5232 330.007 56.9911 330.053 57.5162C330.102 58.0753 330.199 58.8134 330.347 59.762L332.323 59.4524ZM333.47 60.9026C333.783 61.1079 334.156 61.2523 334.571 61.2401C334.994 61.2276 335.343 61.0552 335.604 60.8366C336.076 60.4426 336.339 59.8392 336.495 59.3881C336.666 58.8969 336.78 58.3736 336.858 57.9733C336.897 57.7764 336.931 57.5841 336.954 57.4593C336.986 57.2908 336.994 57.2736 336.982 57.3077L335.093 56.651C335.044 56.7908 335.009 56.9808 334.989 57.0902C334.96 57.2432 334.932 57.3993 334.895 57.5905C334.822 57.9663 334.729 58.3776 334.606 58.7315C334.545 58.9072 334.483 59.0491 334.424 59.1553C334.361 59.2662 334.322 59.3017 334.322 59.3016C334.334 59.292 334.402 59.2442 334.512 59.241C334.612 59.238 334.637 59.2763 334.565 59.2291L333.47 60.9026ZM336.982 57.3077C336.936 57.4402 336.832 57.6243 336.625 57.7594C336.417 57.8949 336.205 57.916 336.061 57.9036C335.927 57.8921 335.834 57.8518 335.797 57.8336C335.775 57.8228 335.76 57.8135 335.751 57.8077C335.742 57.8019 335.737 57.7981 335.736 57.7977C335.736 57.7972 335.746 57.805 335.765 57.8247C335.784 57.8439 335.81 57.8713 335.84 57.9081C335.902 57.9823 335.977 58.0857 336.06 58.221C336.396 58.7678 336.798 59.7332 336.975 61.0938L338.958 60.8363C338.749 59.2211 338.26 57.9825 337.764 57.1747C337.525 56.7846 337.249 56.4387 336.956 56.2131C336.831 56.1169 336.575 55.9404 336.232 55.9109C336.035 55.894 335.777 55.9247 335.533 56.0842C335.289 56.2433 335.157 56.4657 335.093 56.651L336.982 57.3077ZM336.975 61.0938C337.017 61.4159 337.145 61.8236 337.503 62.1195C337.875 62.4276 338.306 62.459 338.618 62.4167C339.169 62.342 339.706 61.996 340.094 61.7069C340.941 61.0768 341.847 60.1163 342.322 59.4988L340.738 58.2784C340.35 58.7813 339.571 59.6029 338.9 60.1028C338.737 60.2242 338.597 60.3135 338.486 60.3722C338.365 60.4359 338.324 60.4382 338.349 60.4348C338.385 60.4299 338.582 60.4168 338.777 60.5782C338.958 60.7274 338.965 60.886 338.958 60.8363L336.975 61.0938ZM340.714 59.4664C340.887 59.7112 340.942 59.9127 340.946 60.1016C340.95 60.3077 340.894 60.5746 340.726 60.9388C340.37 61.7079 339.665 62.6129 338.671 63.8883C336.736 66.3718 334.046 69.8568 332.438 75.1888L334.353 75.7663C335.848 70.8108 338.337 67.5715 340.249 65.1175C341.179 63.9242 342.065 62.8071 342.541 61.7788C342.788 61.2443 342.958 60.6686 342.946 60.0606C342.933 59.4354 342.729 58.851 342.346 58.3108L340.714 59.4664Z" fill="#0B0B0B"/>
<path d="M326.755 73.3027L335.914 76.4861C336.375 75.1588 338.049 72.1404 341.054 70.6855C344.81 68.867 347.77 66.7722 349.57 61.5956C351.369 56.419 349.723 49.5986 341.361 46.692C332.999 43.7854 327.477 48.1144 325.678 53.291C323.878 58.4676 324.901 61.9467 326.719 65.703C328.174 68.708 327.217 71.9754 326.755 73.3027Z" stroke="black" stroke-width="2"/>
<path fill-rule="evenodd" clip-rule="evenodd" d="M334.721 78.9039L326.053 75.8911C325.532 75.7097 324.962 75.9856 324.781 76.5073L322.126 84.1451C321.944 84.6667 322.22 85.2366 322.742 85.4179L331.41 88.4308C331.931 88.6121 332.501 88.3362 332.683 87.8145L335.337 80.1768C335.519 79.6551 335.243 79.0852 334.721 78.9039ZM326.71 74.0019C325.145 73.4579 323.435 74.2857 322.891 75.8507L320.237 83.4884C319.693 85.0534 320.52 86.7631 322.085 87.3071L330.753 90.3199C332.318 90.8639 334.028 90.0362 334.572 88.4712L337.226 80.8334C337.77 79.2684 336.943 77.5587 335.378 77.0147L326.71 74.0019Z" fill="black"/>
<path d="M297.761 39.5607L312.793 47.1639M323.055 24.1629L327.499 34.2519M353.023 20.9526L348.001 34.1154M363.465 49.2483L380.222 42.6758M359.297 66.8757L373.907 77.544" stroke="#0B0B0B" stroke-width="2" stroke-linecap="round" stroke-linejoin="round"/>
<path d="M225.907 214.417L247.554 283.484H157.945C152.24 264.694 140.326 225.285 138.312 217.972C137.473 214.925 135.291 209.89 141.836 209.846C167.007 209.677 214.933 209.44 219.363 209.846C223.793 210.253 225.572 213.063 225.907 214.417Z" fill="#BABABA"/>
<ellipse cx="186.248" cy="250.278" rx="5.14099" ry="6.85466" transform="rotate(-89.0843 186.248 250.278)" fill="#D7D7D7"/>
<circle cx="186.696" cy="29.1276" r="3.68141" stroke="#EEBDBD" stroke-width="2"/>
<circle cx="80.5841" cy="145.643" r="5.76204" stroke="#EEBDBD" stroke-width="2"/>
<circle cx="544.564" cy="214.303" r="2.6411" stroke="#EEBDBD" stroke-width="2"/>
<circle cx="440.533" cy="54.0951" r="2.6411" stroke="#EEBDBD" stroke-width="2"/>
<path d="M442.578 118.783L437.952 119.951" stroke="black" stroke-linecap="round" stroke-linejoin="round"/>
<path d="M440.849 121.68L439.681 117.055" stroke="black" stroke-linecap="round" stroke-linejoin="round"/>
<path d="M452.749 262.933L446.34 258.6" stroke="black" stroke-linecap="round" stroke-linejoin="round"/>
<path d="M447.378 263.971L451.711 257.563" stroke="black" stroke-linecap="round" stroke-linejoin="round"/>
<path d="M77.0288 250.449L83.4369 246.116" stroke="black" stroke-linecap="round" stroke-linejoin="round"/>
<path d="M82.3989 251.487L78.066 245.079" stroke="black" stroke-linecap="round" stroke-linejoin="round"/>
<path d="M26.6755 179.09L31.8473 175.593" stroke="black" stroke-linecap="round" stroke-linejoin="round"/>
<path d="M31.0098 179.927L27.5128 174.755" stroke="black" stroke-linecap="round" stroke-linejoin="round"/>
<path d="M409.844 283.484H128.959" stroke="black" stroke-linecap="round" stroke-linejoin="round"/>
<circle cx="35.5" cy="249.5" r="2.5" stroke="#EEBDBD" stroke-width="2"/>
</svg>
