<svg width="152" height="152" viewBox="0 0 152 152" fill="none" xmlns="http://www.w3.org/2000/svg">
<g filter="url(#filter0_d)">
<circle cx="76" cy="76" r="70" fill="white"/>
</g>
<g clip-path="url(#clip0)">
<path d="M120.951 82.4098C120.484 74.5379 117.08 67.1277 111.413 61.6445C105.745 56.1612 98.2267 53.004 90.3437 52.797C86.048 52.6859 81.7761 53.4669 77.7975 55.0905C73.819 56.7142 70.2205 59.1452 67.2291 62.2301C62.6293 66.9354 69.6394 73.8429 74.2604 69.1208C76.6458 66.6604 79.5875 64.8093 82.8377 63.7232C86.0879 62.6371 89.5515 62.3479 92.9368 62.8798C97.5798 63.6317 101.853 65.8712 105.113 69.2612C108.374 72.6512 110.445 77.0084 111.016 81.6772C111.376 84.7002 111.086 87.7653 110.164 90.6669C109.242 93.5684 107.711 96.2393 105.672 98.5001C103.506 100.918 100.823 102.816 97.8216 104.053C94.8204 105.29 91.5788 105.833 88.3383 105.642L93.1308 102.22C94.3892 101.321 95.4367 100.159 96.2004 98.8139C96.9642 97.4693 97.426 95.9744 97.5537 94.4333C97.6814 92.8921 97.4719 91.3417 96.9397 89.8897C96.4076 88.4377 95.5657 87.119 94.4724 86.0253L87.7576 79.3104C86.6641 78.2169 85.3455 77.3746 83.8935 76.8423C82.4415 76.3099 80.891 76.1002 79.3498 76.2277C77.8086 76.3553 76.3137 76.817 74.969 77.5808C73.6242 78.3446 72.4621 79.3922 71.5632 80.6506L54.781 104.152C53.3162 106.203 52.6265 108.707 52.8344 111.219C53.0423 113.73 54.1345 116.087 55.9165 117.869C57.6986 119.651 60.0551 120.744 62.5668 120.952C65.0785 121.16 67.5827 120.471 69.6338 119.006L77.7746 113.191C82.6741 115.193 88.0005 115.922 93.2578 115.311C98.515 114.7 103.532 112.768 107.842 109.695C112.151 106.623 115.613 102.509 117.904 97.7384C120.196 92.9675 121.242 87.6942 120.946 82.4098H120.951ZM72.2269 103.547L62.8754 112.899C62.6117 113.163 62.254 113.311 61.881 113.311C61.5079 113.311 61.1501 113.163 60.8862 112.899C60.6224 112.636 60.4741 112.278 60.4739 111.905C60.4738 111.532 60.6219 111.174 60.8855 110.91L70.2385 101.559C70.5037 101.303 70.8589 101.161 71.2277 101.164C71.5964 101.167 71.9491 101.315 72.2098 101.576C72.4705 101.837 72.6184 102.189 72.6216 102.558C72.6248 102.927 72.4831 103.282 72.2269 103.547ZM75.211 98.5747C74.1291 97.4931 73.3922 96.115 73.0936 94.6146C72.795 93.1142 72.948 91.5589 73.5334 90.1455C74.1187 88.7321 75.11 87.524 76.382 86.6741C77.6539 85.8241 79.1494 85.3704 80.6792 85.3704C82.209 85.3704 83.7045 85.8241 84.9764 86.6741C86.2484 87.524 87.2397 88.7321 87.8251 90.1455C88.4104 91.5589 88.5634 93.1142 88.2648 94.6146C87.9662 96.115 87.2293 97.4931 86.1474 98.5747C84.697 100.025 82.7301 100.839 80.6792 100.839C78.6283 100.839 76.6614 100.025 75.211 98.5747ZM110.367 103.802C106.623 107.763 101.821 110.568 96.5314 111.884C91.2417 113.201 85.6855 112.974 80.521 111.229L84.0366 108.718L84.969 108.051C89.1055 108.864 93.3822 108.589 97.3805 107.253C101.379 105.916 104.961 103.565 107.778 100.428C110.594 97.2913 112.548 93.477 113.448 89.3584C114.347 85.2399 114.162 80.9583 112.91 76.9329C111.658 72.9075 109.382 69.2762 106.305 66.3944C103.228 63.5127 99.4558 61.4793 95.357 60.4934C91.2583 59.5075 86.9738 59.6028 82.9229 60.77C78.8721 61.9372 75.1938 64.1363 72.248 67.152C72.0568 67.3606 71.8255 67.5287 71.5679 67.646C71.3104 67.7634 71.0318 67.8278 70.7489 67.8353C70.4659 67.8427 70.1844 67.7932 69.921 67.6896C69.6576 67.586 69.4177 67.4304 69.2157 67.2322C69.0137 67.0339 68.8536 66.7971 68.7451 66.5357C68.6365 66.2743 68.5817 65.9937 68.5838 65.7107C68.586 65.4276 68.645 65.1479 68.7575 64.8882C68.87 64.6285 69.0337 64.394 69.2387 64.1989C71.9587 61.3869 75.2338 59.1712 78.8559 57.6925C82.4781 56.2138 86.3681 55.5045 90.279 55.6095C97.4548 55.7975 104.299 58.671 109.459 63.6618C114.618 68.6525 117.717 75.3974 118.144 82.5631C118.375 86.4474 117.803 90.3376 116.465 93.9915C115.127 97.6454 113.052 100.985 110.367 103.802Z" fill="#E07275"/>
<path d="M84.1563 96.586C84.8448 95.8978 85.3137 95.0208 85.5037 94.066C85.6937 93.1112 85.5964 92.1215 85.2239 91.222C84.8514 90.3226 84.2206 89.5538 83.4111 89.0129C82.6017 88.472 81.65 88.1833 80.6765 88.1833C79.703 88.1833 78.7513 88.472 77.9419 89.0129C77.1325 89.5538 76.5016 90.3226 76.1292 91.222C75.7567 92.1215 75.6593 93.1112 75.8493 94.066C76.0394 95.0208 76.5083 95.8978 77.1968 96.586C78.1343 97.4808 79.3805 97.9801 80.6765 97.9801C81.9725 97.9801 83.2187 97.4808 84.1563 96.586ZM79.683 92.1114C79.8797 91.9146 80.1302 91.7807 80.403 91.7264C80.6758 91.6721 80.9586 91.6999 81.2156 91.8063C81.4726 91.9127 81.6922 92.093 81.8467 92.3243C82.0013 92.5555 82.0838 92.8274 82.0838 93.1056C82.0838 93.3837 82.0013 93.6556 81.8467 93.8869C81.6922 94.1181 81.4726 94.2984 81.2156 94.4048C80.9586 94.5112 80.6758 94.5391 80.403 94.4848C80.1302 94.4305 79.8797 94.2965 79.683 94.0998C79.4197 93.8357 79.2722 93.4779 79.2727 93.105C79.2732 92.7321 79.4218 92.3747 79.6858 92.1114H79.683Z" fill="#E07275"/>
<path d="M98.5281 60.4806C97.4188 52.3147 93.3871 44.8276 87.18 39.4068C80.973 33.9859 73.0113 30.9988 64.7704 30.9988C56.5295 30.9988 48.5679 33.9859 42.3608 39.4068C36.1537 44.8276 32.122 52.3147 31.0127 60.4806C31.005 60.5441 31.0008 60.6079 31 60.6719V68.3317C30.9986 68.8861 31.1071 69.4353 31.3192 69.9475C31.5314 70.4597 31.843 70.9248 32.2361 71.3158L34.3174 73.3956C33.2228 75.3154 32.5799 77.4592 32.4374 79.6645C32.2948 81.8697 32.6564 84.0785 33.4947 86.1232C34.333 88.1679 35.626 89.9948 37.2755 91.4653C38.9251 92.9358 40.8879 94.0114 43.015 94.6103C43.644 94.7892 44.3059 94.8199 44.9487 94.6999C45.5915 94.5798 46.1978 94.3124 46.7198 93.9186C47.2418 93.5248 47.6655 93.0153 47.9574 92.4302C48.2494 91.845 48.4017 91.2002 48.4024 90.5462V70.5944C48.4017 69.9404 48.2494 69.2956 47.9574 68.7104C47.6655 68.1253 47.2418 67.6158 46.7198 67.222C46.1978 66.8282 45.5915 66.5608 44.9487 66.4407C44.3059 66.3207 43.644 66.3514 43.015 66.5303C40.2683 67.3129 37.8133 68.8879 35.957 71.0584L34.226 69.3259C34.0944 69.1957 33.9902 69.0406 33.9192 68.8697C33.8482 68.6987 33.8119 68.5154 33.8125 68.3303V62.0781H40.9366C41.2653 62.0783 41.5837 61.9634 41.8365 61.7533C42.0893 61.5431 42.2605 61.251 42.3203 60.9278C43.2917 55.6829 46.0688 50.9437 50.1697 47.5326C54.2706 44.1215 59.4363 42.2539 64.7704 42.2539C70.1045 42.2539 75.2702 44.1215 79.3711 47.5326C83.472 50.9437 86.2491 55.6829 87.2205 60.9278C87.2803 61.2508 87.4512 61.5427 87.7037 61.7528C87.9562 61.9629 88.2743 62.078 88.6028 62.0781H95.7269V68.3317C95.727 68.5166 95.6907 68.6997 95.62 68.8705C95.5493 69.0414 95.4456 69.1966 95.3149 69.3273L93.5781 71.0584C91.7221 68.8877 89.267 67.3126 86.5202 66.5303C85.8912 66.3514 85.2293 66.3207 84.5865 66.4407C83.9437 66.5608 83.3374 66.8282 82.8154 67.222C82.2933 67.6158 81.8697 68.1253 81.5778 68.7104C81.2858 69.2956 81.1335 69.9404 81.1328 70.5944V90.5462C81.1335 91.2002 81.2858 91.845 81.5778 92.4302C81.8697 93.0153 82.2933 93.5248 82.8154 93.9186C83.3374 94.3124 83.9437 94.5798 84.5865 94.6999C85.2293 94.8199 85.8912 94.7892 86.5202 94.6103C88.6477 94.0116 90.6109 92.9363 92.261 91.4658C93.911 89.9954 95.2045 88.1685 96.0433 86.1237C96.8821 84.0789 97.2442 81.8699 97.1022 79.6644C96.9601 77.4588 96.3176 75.3145 95.2234 73.3942L97.3047 71.313C97.6977 70.9223 98.0091 70.4574 98.2211 69.9454C98.433 69.4334 98.5412 68.8844 98.5394 68.3303V60.6719C98.5391 60.608 98.5354 60.5441 98.5281 60.4806ZM43.7814 69.2373C43.992 69.1769 44.2137 69.1661 44.4292 69.2058C44.6446 69.2455 44.8479 69.3346 45.0232 69.4661C45.1984 69.5975 45.3407 69.7679 45.4391 69.9636C45.5374 70.1594 45.589 70.3753 45.5899 70.5944V90.5462C45.589 90.7653 45.5374 90.9812 45.4391 91.177C45.3407 91.3727 45.1984 91.543 45.0232 91.6745C44.8479 91.806 44.6446 91.8951 44.4292 91.9348C44.2137 91.9745 43.992 91.9637 43.7814 91.9033C41.3158 91.2027 39.1459 89.7172 37.6009 87.672C36.0559 85.6268 35.22 83.1335 35.22 80.5703C35.22 78.0071 36.0559 75.5138 37.6009 73.4686C39.1459 71.4234 41.3158 69.9379 43.7814 69.2373ZM89.7447 59.2656C88.4318 53.6263 85.2489 48.5974 80.7142 44.9972C76.1795 41.3969 70.5598 39.4374 64.7697 39.4374C58.9796 39.4374 53.3599 41.3969 48.8252 44.9972C44.2905 48.5974 41.1077 53.6263 39.7947 59.2656H34.0586C35.4108 52.1097 39.2194 45.6506 44.8267 41.0037C50.4339 36.3568 57.4879 33.8138 64.7704 33.8138C72.0529 33.8138 79.1069 36.3568 84.7141 41.0037C90.3214 45.6506 94.13 52.1097 95.4822 59.2656H89.7447ZM85.758 91.9047C85.5474 91.9651 85.3257 91.9759 85.1102 91.9362C84.8948 91.8965 84.6915 91.8074 84.5163 91.6759C84.341 91.5445 84.1987 91.3741 84.1003 91.1784C84.002 90.9826 83.9504 90.7667 83.9495 90.5476V70.5944C83.9504 70.3753 84.002 70.1594 84.1003 69.9636C84.1987 69.7679 84.341 69.5975 84.5163 69.4661C84.6915 69.3346 84.8948 69.2455 85.1102 69.2058C85.3257 69.1661 85.5474 69.1769 85.758 69.2373C88.2236 69.9379 90.3935 71.4234 91.9385 73.4686C93.4835 75.5138 94.3195 78.0071 94.3195 80.5703C94.3195 83.1335 93.4835 85.6268 91.9385 87.672C90.3935 89.7172 88.2236 91.2027 85.758 91.9033V91.9047Z" fill="#0B0B0B"/>
</g>
<defs>
<filter id="filter0_d" x="0" y="0" width="152" height="152" filterUnits="userSpaceOnUse" color-interpolation-filters="sRGB">
<feFlood flood-opacity="0" result="BackgroundImageFix"/>
<feColorMatrix in="SourceAlpha" type="matrix" values="0 0 0 0 0 0 0 0 0 0 0 0 0 0 0 0 0 0 127 0"/>
<feMorphology radius="2" operator="dilate" in="SourceAlpha" result="effect1_dropShadow"/>
<feOffset/>
<feGaussianBlur stdDeviation="2"/>
<feColorMatrix type="matrix" values="0 0 0 0 0.441667 0 0 0 0 0.185868 0 0 0 0 0.193282 0 0 0 0.25 0"/>
<feBlend mode="normal" in2="BackgroundImageFix" result="effect1_dropShadow"/>
<feBlend mode="normal" in="SourceGraphic" in2="effect1_dropShadow" result="shape"/>
</filter>
<clipPath id="clip0">
<rect width="90" height="90" fill="white" transform="translate(31 31)"/>
</clipPath>
</defs>
</svg>
