<svg width="152" height="152" viewBox="0 0 152 152" fill="none" xmlns="http://www.w3.org/2000/svg">
<g filter="url(#filter0_d)">
<circle cx="76" cy="76" r="70" fill="white"/>
</g>
<path d="M94.3501 69.1609V73.3705H98.5598L94.3501 69.1609Z" fill="#E07275"/>
<path d="M111.956 94.5001C111.645 94.5001 111.346 94.3764 111.126 94.1563C110.906 93.9361 110.782 93.6375 110.782 93.3262V86.2827H84.9564C84.645 86.2827 84.3465 86.4064 84.1263 86.6265C83.9061 86.8467 83.7825 87.1453 83.7825 87.4566V120.326C83.7825 120.638 83.9061 120.936 84.1263 121.156C84.3465 121.376 84.645 121.5 84.9564 121.5H117.826C118.137 121.5 118.436 121.376 118.656 121.156C118.876 120.936 119 120.638 119 120.326V94.5001H111.956ZM90.8259 93.3262H104.913C105.224 93.3262 105.523 93.4499 105.743 93.67C105.963 93.8902 106.087 94.1888 106.087 94.5001C106.087 94.8114 105.963 95.11 105.743 95.3302C105.523 95.5503 105.224 95.674 104.913 95.674H90.8259C90.5146 95.674 90.216 95.5503 89.9959 95.3302C89.7757 95.11 89.652 94.8114 89.652 94.5001C89.652 94.1888 89.7757 93.8902 89.9959 93.67C90.216 93.4499 90.5146 93.3262 90.8259 93.3262ZM111.956 114.457H90.8259C90.5146 114.457 90.216 114.333 89.9959 114.113C89.7757 113.893 89.652 113.594 89.652 113.283C89.652 112.971 89.7757 112.673 89.9959 112.453C90.216 112.232 90.5146 112.109 90.8259 112.109H111.956C112.268 112.109 112.566 112.232 112.786 112.453C113.007 112.673 113.13 112.971 113.13 113.283C113.13 113.594 113.007 113.893 112.786 114.113C112.566 114.333 112.268 114.457 111.956 114.457ZM111.956 105.065H90.8259C90.5146 105.065 90.216 104.942 89.9959 104.721C89.7757 104.501 89.652 104.203 89.652 103.891C89.652 103.58 89.7757 103.281 89.9959 103.061C90.216 102.841 90.5146 102.717 90.8259 102.717H111.956C112.268 102.717 112.566 102.841 112.786 103.061C113.007 103.281 113.13 103.58 113.13 103.891C113.13 104.203 113.007 104.501 112.786 104.721C112.566 104.942 112.268 105.065 111.956 105.065Z" fill="#E07275"/>
<path d="M113.13 87.9424V92.152H117.34L113.13 87.9424Z" fill="#E07275"/>
<path d="M100.217 83.9348V75.7174H93.1739C92.8626 75.7174 92.564 75.5937 92.3438 75.3736C92.1237 75.1534 92 74.8548 92 74.5435V67.5H66.1739C65.8626 67.5 65.564 67.6237 65.3438 67.8438C65.1237 68.064 65 68.3626 65 68.6739V101.543C65 101.855 65.1237 102.153 65.3438 102.374C65.564 102.594 65.8626 102.717 66.1739 102.717H81.4348V87.4565C81.4348 86.5225 81.8058 85.6267 82.4663 84.9663C83.1267 84.3058 84.0225 83.9348 84.9565 83.9348H100.217ZM77.913 95.6739H72.0435C71.7321 95.6739 71.4335 95.5502 71.2134 95.3301C70.9932 95.1099 70.8696 94.8113 70.8696 94.5C70.8696 94.1887 70.9932 93.8901 71.2134 93.6699C71.4335 93.4498 71.7321 93.3261 72.0435 93.3261H77.913C78.2244 93.3261 78.523 93.4498 78.7431 93.6699C78.9633 93.8901 79.087 94.1887 79.087 94.5C79.087 94.8113 78.9633 95.1099 78.7431 95.3301C78.523 95.5502 78.2244 95.6739 77.913 95.6739ZM77.913 86.2826H72.0435C71.7321 86.2826 71.4335 86.1589 71.2134 85.9388C70.9932 85.7186 70.8696 85.42 70.8696 85.1087C70.8696 84.7974 70.9932 84.4988 71.2134 84.2786C71.4335 84.0585 71.7321 83.9348 72.0435 83.9348H77.913C78.2244 83.9348 78.523 84.0585 78.7431 84.2786C78.9633 84.4988 79.087 84.7974 79.087 85.1087C79.087 85.42 78.9633 85.7186 78.7431 85.9388C78.523 86.1589 78.2244 86.2826 77.913 86.2826ZM72.0435 76.8913C71.7321 76.8913 71.4335 76.7676 71.2134 76.5475C70.9932 76.3273 70.8696 76.0287 70.8696 75.7174C70.8696 75.406 70.9932 75.1075 71.2134 74.8873C71.4335 74.6672 71.7321 74.5435 72.0435 74.5435H86.1304C86.4418 74.5435 86.7404 74.6672 86.9605 74.8873C87.1807 75.1075 87.3043 75.406 87.3043 75.7174C87.3043 76.0287 87.1807 76.3273 86.9605 76.5475C86.7404 76.7676 86.4418 76.8913 86.1304 76.8913H72.0435Z" fill="#E07275"/>
<path d="M68.1016 30C61.3569 30 54.7637 32 49.1558 35.7471C43.5478 39.4943 39.1769 44.8202 36.5958 51.0515C34.0148 57.2827 33.3395 64.1394 34.6553 70.7544C35.9711 77.3695 39.2189 83.4458 43.9881 88.215C48.7573 92.9842 54.8336 96.2321 61.4487 97.5479C68.0638 98.8637 74.9204 98.1884 81.1517 95.6073C87.3829 93.0262 92.7089 88.6553 96.456 83.0474C100.203 77.4394 102.203 70.8462 102.203 64.1016C102.193 55.0604 98.597 46.3923 92.2039 39.9992C85.8108 33.6061 77.1428 30.01 68.1016 30V30ZM68.1016 95.3906C61.9132 95.3906 55.8638 93.5556 50.7183 90.1175C45.5728 86.6794 41.5624 81.7927 39.1943 76.0754C36.8261 70.358 36.2064 64.0669 37.4137 57.9974C38.621 51.9279 41.601 46.3527 45.9769 41.9769C50.3527 37.601 55.9279 34.621 61.9974 33.4137C68.0669 32.2064 74.3581 32.826 80.0754 35.1942C85.7927 37.5624 90.6794 41.5728 94.1175 46.7183C97.5556 51.8638 99.3906 57.9132 99.3906 64.1016C99.3813 72.3971 96.0818 80.3502 90.216 86.216C84.3502 92.0818 76.3971 95.3813 68.1016 95.3906Z" fill="#0B0B0B"/>
<path d="M68.1016 37.0312C62.7476 37.0312 57.5138 38.6189 53.0621 41.5934C48.6104 44.5679 45.1408 48.7958 43.0919 53.7422C41.043 58.6887 40.5069 64.1316 41.5514 69.3827C42.5959 74.6338 45.1741 79.4573 48.96 83.2432C52.7458 87.029 57.5693 89.6072 62.8204 90.6517C68.0715 91.6962 73.5145 91.1602 78.4609 89.1113C83.4074 87.0624 87.6352 83.5927 90.6097 79.141C93.5842 74.6893 95.1719 69.4556 95.1719 64.1016C95.1504 56.9287 92.2914 50.0557 87.2194 44.9837C82.1474 39.9117 75.2744 37.0528 68.1016 37.0312ZM89.7578 74.9789L87.685 73.7822C87.3622 73.5986 86.9799 73.5502 86.6215 73.6475C86.2631 73.7448 85.9578 73.9799 85.7721 74.3015C85.5865 74.6231 85.5355 75.0051 85.6304 75.3641C85.7253 75.7231 85.9584 76.03 86.2788 76.2178L88.3586 77.4188C86.5395 80.1758 84.1801 82.5353 81.423 84.3544L80.222 82.2745C80.1304 82.1133 80.0077 81.9718 79.8612 81.8582C79.7146 81.7446 79.547 81.661 79.368 81.6125C79.189 81.5639 79.0022 81.5512 78.8183 81.5751C78.6344 81.599 78.457 81.659 78.2964 81.7517C78.1358 81.8445 77.9951 81.9681 77.8825 82.1154C77.7698 82.2627 77.6874 82.4308 77.64 82.6101C77.5926 82.7894 77.5812 82.9763 77.6063 83.1601C77.6314 83.3438 77.6926 83.5208 77.7864 83.6808L78.9831 85.7536C76.0334 87.2388 72.8094 88.1004 69.512 88.2848V85.8942C69.512 85.5213 69.3639 85.1636 69.1002 84.8999C68.8364 84.6361 68.4788 84.488 68.1058 84.488C67.7328 84.488 67.3751 84.6361 67.1114 84.8999C66.8477 85.1636 66.6995 85.5213 66.6995 85.8942V88.2848C63.4022 88.1004 60.1782 87.2388 57.2284 85.7536L58.4252 83.6808C58.6087 83.358 58.6571 82.9757 58.5598 82.6173C58.4625 82.2589 58.2274 81.9536 57.9058 81.7679C57.5842 81.5822 57.2023 81.5313 56.8433 81.6262C56.4842 81.7211 56.1773 81.9542 55.9895 82.2745L54.7886 84.3544C52.03 82.5357 49.6691 80.1763 47.8488 77.4188L49.9286 76.2178C50.0898 76.1262 50.2313 76.0035 50.3449 75.8569C50.4586 75.7104 50.5421 75.5428 50.5907 75.3638C50.6393 75.1848 50.652 74.998 50.6281 74.8141C50.6042 74.6302 50.5441 74.4528 50.4514 74.2922C50.3587 74.1316 50.2351 73.9909 50.0878 73.8783C49.9404 73.7656 49.7723 73.6832 49.593 73.6358C49.4137 73.5884 49.2268 73.5769 49.0431 73.602C48.8593 73.6272 48.6823 73.6884 48.5224 73.7822L46.4495 74.9789C44.9644 72.0292 44.1027 68.8052 43.9183 65.5078H46.3089C46.6819 65.5078 47.0396 65.3597 47.3033 65.0959C47.567 64.8322 47.7152 64.4745 47.7152 64.1016C47.7152 63.7286 47.567 63.3709 47.3033 63.1072C47.0396 62.8435 46.6819 62.6953 46.3089 62.6953H43.9183C44.1027 59.398 44.9644 56.1739 46.4495 53.2242L48.5224 54.4209C48.6823 54.5147 48.8593 54.576 49.0431 54.6011C49.2268 54.6262 49.4137 54.6147 49.593 54.5673C49.7723 54.5199 49.9404 54.4375 50.0878 54.3249C50.2351 54.2122 50.3587 54.0715 50.4514 53.9109C50.5441 53.7503 50.6042 53.573 50.6281 53.389C50.652 53.2051 50.6393 53.0183 50.5907 52.8393C50.5421 52.6604 50.4586 52.4928 50.3449 52.3462C50.2313 52.1996 50.0898 52.077 49.9286 51.9853L47.8488 50.7844C49.6679 48.0273 52.0273 45.6678 54.7844 43.8487L55.9853 45.9286C56.077 46.0898 56.1996 46.2313 56.3462 46.3449C56.4928 46.4586 56.6604 46.5421 56.8394 46.5907C57.0183 46.6393 57.2052 46.652 57.3891 46.6281C57.573 46.6042 57.7503 46.5441 57.9109 46.4514C58.0716 46.3587 58.2122 46.2351 58.3249 46.0878C58.4375 45.9404 58.5199 45.7723 58.5673 45.593C58.6147 45.4137 58.6262 45.2268 58.6011 45.043C58.576 44.8593 58.5147 44.6823 58.4209 44.5223L57.2242 42.4495C60.174 40.9644 63.398 40.1027 66.6953 39.9183V42.3089C66.6953 42.6819 66.8435 43.0396 67.1072 43.3033C67.3709 43.567 67.7286 43.7152 68.1016 43.7152C68.4745 43.7152 68.8322 43.567 69.0959 43.3033C69.3597 43.0396 69.5078 42.6819 69.5078 42.3089V39.9183C72.8052 40.1027 76.0292 40.9644 78.9789 42.4495L77.7822 44.5223C77.5987 44.8452 77.5503 45.2275 77.6476 45.5858C77.7448 45.9442 77.9799 46.2496 78.3015 46.4352C78.6231 46.6209 79.0051 46.6718 79.3641 46.5769C79.7231 46.482 80.03 46.2489 80.2178 45.9286L81.4188 43.8487C84.1758 45.6678 86.5353 48.0273 88.3544 50.7844L86.2745 51.9853C86.1133 52.077 85.9718 52.1996 85.8582 52.3462C85.7446 52.4928 85.6611 52.6604 85.6125 52.8393C85.5639 53.0183 85.5512 53.2051 85.5751 53.389C85.599 53.573 85.659 53.7503 85.7517 53.9109C85.8445 54.0715 85.9681 54.2122 86.1154 54.3249C86.2627 54.4375 86.4309 54.5199 86.6101 54.5673C86.7894 54.6147 86.9763 54.6262 87.1601 54.6011C87.3438 54.576 87.5208 54.5147 87.6808 54.4209L89.7536 53.2242C91.2388 56.1739 92.1004 59.398 92.2849 62.6953H89.8942C89.5213 62.6953 89.1636 62.8435 88.8999 63.1072C88.6361 63.3709 88.488 63.7286 88.488 64.1016C88.488 64.4745 88.6361 64.8322 88.8999 65.0959C89.1636 65.3597 89.5213 65.5078 89.8942 65.5078H92.2849C92.1004 68.8052 91.2388 72.0292 89.7536 74.9789H89.7578Z" fill="#0B0B0B"/>
<path d="M68.1017 48.4541C67.7287 48.4541 67.371 48.6023 67.1073 48.866C66.8436 49.1297 66.6954 49.4874 66.6954 49.8604V62.6952H58.0793C57.7064 62.6952 57.3487 62.8434 57.085 63.1071C56.8213 63.3708 56.6731 63.7285 56.6731 64.1015C56.6731 64.4744 56.8213 64.8321 57.085 65.0958C57.3487 65.3595 57.7064 65.5077 58.0793 65.5077H68.1017C68.4747 65.5077 68.8323 65.3595 69.0961 65.0958C69.3598 64.8321 69.5079 64.4744 69.5079 64.1015V49.8604C69.5079 49.4874 69.3598 49.1297 69.0961 48.866C68.8323 48.6023 68.4747 48.4541 68.1017 48.4541Z" fill="#0B0B0B"/>
<defs>
<filter id="filter0_d" x="0" y="0" width="152" height="152" filterUnits="userSpaceOnUse" color-interpolation-filters="sRGB">
<feFlood flood-opacity="0" result="BackgroundImageFix"/>
<feColorMatrix in="SourceAlpha" type="matrix" values="0 0 0 0 0 0 0 0 0 0 0 0 0 0 0 0 0 0 127 0"/>
<feMorphology radius="2" operator="dilate" in="SourceAlpha" result="effect1_dropShadow"/>
<feOffset/>
<feGaussianBlur stdDeviation="2"/>
<feColorMatrix type="matrix" values="0 0 0 0 0.441667 0 0 0 0 0.185868 0 0 0 0 0.193282 0 0 0 0.25 0"/>
<feBlend mode="normal" in2="BackgroundImageFix" result="effect1_dropShadow"/>
<feBlend mode="normal" in="SourceGraphic" in2="effect1_dropShadow" result="shape"/>
</filter>
</defs>
</svg>
