<svg width="152" height="152" viewBox="0 0 152 152" fill="none" xmlns="http://www.w3.org/2000/svg">
<g filter="url(#filter0_d)">
<circle cx="76" cy="76" r="70" fill="white"/>
</g>
<path d="M116.781 107.289H115.551V75.6201C115.551 74.5012 115.106 73.4282 114.315 72.637C113.524 71.8458 112.451 71.4014 111.332 71.4014H62.4648C61.346 71.4014 60.2729 71.8458 59.4817 72.637C58.6906 73.4282 58.2461 74.5012 58.2461 75.6201V107.289H57.0156C55.8967 107.289 54.8237 107.733 54.0325 108.524C53.2413 109.316 52.7969 110.389 52.7969 111.508V113.969C52.7991 115.833 53.5406 117.62 54.8587 118.938C56.1769 120.256 57.964 120.998 59.8281 121H113.969C115.833 120.998 117.62 120.256 118.938 118.938C120.256 117.62 120.998 115.833 121 113.969V111.508C121 110.389 120.556 109.316 119.764 108.524C118.973 107.733 117.9 107.289 116.781 107.289ZM72.3086 78.4214H107.113C107.486 78.4214 107.844 78.5695 108.108 78.8332C108.371 79.097 108.52 79.4547 108.52 79.8276C108.52 80.2006 108.371 80.5583 108.108 80.822C107.844 81.0857 107.486 81.2339 107.113 81.2339H72.3086C71.9356 81.2339 71.5779 81.0857 71.3142 80.822C71.0505 80.5583 70.9023 80.2006 70.9023 79.8276C70.9023 79.4547 71.0505 79.097 71.3142 78.8332C71.5779 78.5695 71.9356 78.4214 72.3086 78.4214ZM66.6836 78.4214C66.9617 78.4214 67.2336 78.5038 67.4649 78.6584C67.6961 78.8129 67.8764 79.0325 67.9828 79.2895C68.0892 79.5464 68.1171 79.8292 68.0628 80.102C68.0086 80.3747 67.8746 80.6253 67.678 80.822C67.4813 81.0187 67.2307 81.1526 66.9579 81.2068C66.6852 81.2611 66.4024 81.2333 66.1454 81.1268C65.8885 81.0204 65.6689 80.8401 65.5143 80.6089C65.3598 80.3776 65.2773 80.1057 65.2773 79.8276C65.2773 79.4547 65.4255 79.097 65.6892 78.8332C65.9529 78.5695 66.3106 78.4214 66.6836 78.4214ZM65.2773 86.8589C65.2773 86.4859 65.4255 86.1282 65.6892 85.8645C65.9529 85.6008 66.3106 85.4526 66.6836 85.4526H107.113C107.486 85.4526 107.844 85.6008 108.108 85.8645C108.371 86.1282 108.52 86.4859 108.52 86.8589V94.6214C108.52 94.9943 108.371 95.352 108.108 95.6157C107.844 95.8795 107.486 96.0276 107.113 96.0276H66.6836C66.3106 96.0276 65.9529 95.8795 65.6892 95.6157C65.4255 95.352 65.2773 94.9943 65.2773 94.6214V86.8589ZM66.6836 100.246H107.113C107.486 100.246 107.844 100.395 108.108 100.658C108.371 100.922 108.52 101.28 108.52 101.653C108.52 102.026 108.371 102.383 108.108 102.647C107.844 102.911 107.486 103.059 107.113 103.059H66.6836C66.3106 103.059 65.9529 102.911 65.6892 102.647C65.4255 102.383 65.2773 102.026 65.2773 101.653C65.2773 101.28 65.4255 100.922 65.6892 100.658C65.9529 100.395 66.3106 100.246 66.6836 100.246ZM118.188 113.969C118.188 115.087 117.743 116.16 116.952 116.952C116.161 117.743 115.088 118.187 113.969 118.187H59.8281C58.7092 118.187 57.6362 117.743 56.845 116.952C56.0538 116.16 55.6094 115.087 55.6094 113.969V111.508C55.6094 111.135 55.7575 110.777 56.0213 110.513C56.285 110.25 56.6427 110.101 57.0156 110.101H73.3703C73.5315 110.102 73.691 110.134 73.8397 110.196C73.9884 110.258 74.1235 110.349 74.2371 110.463C74.3507 110.577 74.4407 110.713 74.5019 110.862C74.5631 111.011 74.5943 111.171 74.5938 111.332C74.5938 112.451 75.0382 113.524 75.8294 114.315C76.6206 115.106 77.6936 115.551 78.8125 115.551H94.9844C96.1033 115.551 97.1763 115.106 97.9675 114.315C98.7586 113.524 99.2031 112.451 99.2031 111.332V111.325C99.2035 111 99.3325 110.689 99.5619 110.46C99.7912 110.231 100.102 110.102 100.427 110.101H116.781C117.154 110.101 117.512 110.25 117.776 110.513C118.039 110.777 118.188 111.135 118.188 111.508V113.969Z" fill="#E07275"/>
<path d="M59.6524 88.3047C53.9855 88.3047 48.4458 86.6243 43.734 83.4759C39.0221 80.3275 35.3497 75.8527 33.181 70.6171C31.0124 65.3816 30.445 59.6206 31.5506 54.0626C32.6561 48.5046 35.385 43.3992 39.3921 39.3921C43.3992 35.385 48.5046 32.6561 54.0626 31.5506C59.6206 30.445 65.3816 31.0124 70.6171 33.181C75.8527 35.3497 80.3275 39.0221 83.4759 43.734C86.6243 48.4458 88.3047 53.9855 88.3047 59.6524C88.2954 67.2486 85.2737 74.531 79.9023 79.9023C74.531 85.2737 67.2486 88.2954 59.6524 88.3047ZM59.6524 33.8125C54.5417 33.8125 49.5459 35.328 45.2965 38.1673C41.0472 41.0066 37.7352 45.0423 35.7795 49.7639C33.8237 54.4855 33.312 59.681 34.309 64.6935C35.3061 69.7059 37.7671 74.3101 41.3808 77.9239C44.9946 81.5377 49.5988 83.9987 54.6113 84.9957C59.6237 85.9927 64.8192 85.481 69.5408 83.5253C74.2625 81.5695 78.2981 78.2575 81.1374 74.0082C83.9767 69.7589 85.4922 64.763 85.4922 59.6524C85.4829 52.8021 82.7575 46.235 77.9136 41.3911C73.0697 36.5472 66.5027 33.8218 59.6524 33.8125Z" fill="#0B0B0B"/>
<path d="M53.9992 69.9252L46.1874 62.1163C45.7956 61.7245 45.4848 61.2594 45.2727 60.7475C45.0607 60.2356 44.9515 59.687 44.9515 59.1329C44.9515 58.5788 45.0607 58.0302 45.2727 57.5183C45.4848 57.0064 45.7956 56.5413 46.1874 56.1495L47.6176 54.7194C48.4087 53.9285 49.4816 53.4842 50.6002 53.4842C51.7189 53.4842 52.7918 53.9285 53.5829 54.7194L56.979 58.1141L65.7104 49.3827C66.5015 48.5918 67.5744 48.1475 68.6931 48.1475C69.8117 48.1475 70.8846 48.5918 71.6757 49.3827L73.1059 50.8142C73.4977 51.206 73.8085 51.6711 74.0206 52.183C74.2326 52.6949 74.3418 53.2435 74.3418 53.7976C74.3418 54.3517 74.2326 54.9003 74.0206 55.4122C73.8085 55.9241 73.4977 56.3892 73.1059 56.7809L59.9687 69.9237C59.1765 70.7141 58.1032 71.158 56.9842 71.1583C55.8652 71.1585 54.7917 70.7151 53.9992 69.9252ZM49.6117 56.7064L48.1815 58.1408C48.0507 58.2714 47.947 58.4265 47.8763 58.5972C47.8055 58.7679 47.7691 58.9509 47.7691 59.1357C47.7691 59.3205 47.8055 59.5035 47.8763 59.6742C47.947 59.8449 48.0507 60 48.1815 60.1306L55.989 67.9381C56.1196 68.0689 56.2747 68.1726 56.4454 68.2434C56.6161 68.3141 56.7991 68.3506 56.9839 68.3506C57.1687 68.3506 57.3517 68.3141 57.5224 68.2434C57.6931 68.1726 57.8482 68.0689 57.9788 67.9381L71.1231 54.7925C71.2538 54.6619 71.3575 54.5068 71.4283 54.3361C71.4991 54.1654 71.5355 53.9824 71.5355 53.7976C71.5355 53.6128 71.4991 53.4298 71.4283 53.2591C71.3575 53.0884 71.2538 52.9333 71.1231 52.8027L69.6929 51.3725C69.4292 51.1089 69.0716 50.9608 68.6987 50.9608C68.3258 50.9608 67.9682 51.1089 67.7045 51.3725L57.9788 61.0939C57.7151 61.3575 57.3575 61.5056 56.9846 61.5056C56.6117 61.5056 56.2541 61.3575 55.9904 61.0939L51.6001 56.7064C51.3362 56.443 50.9785 56.2951 50.6056 56.2954C50.2327 56.2956 49.8752 56.444 49.6117 56.7078V56.7064Z" fill="#0B0B0B"/>
<defs>
<filter id="filter0_d" x="0" y="0" width="152" height="152" filterUnits="userSpaceOnUse" color-interpolation-filters="sRGB">
<feFlood flood-opacity="0" result="BackgroundImageFix"/>
<feColorMatrix in="SourceAlpha" type="matrix" values="0 0 0 0 0 0 0 0 0 0 0 0 0 0 0 0 0 0 127 0"/>
<feMorphology radius="2" operator="dilate" in="SourceAlpha" result="effect1_dropShadow"/>
<feOffset/>
<feGaussianBlur stdDeviation="2"/>
<feColorMatrix type="matrix" values="0 0 0 0 0.441667 0 0 0 0 0.185868 0 0 0 0 0.193282 0 0 0 0.25 0"/>
<feBlend mode="normal" in2="BackgroundImageFix" result="effect1_dropShadow"/>
<feBlend mode="normal" in="SourceGraphic" in2="effect1_dropShadow" result="shape"/>
</filter>
</defs>
</svg>
