<svg width="152" height="152" viewBox="0 0 152 152" fill="none" xmlns="http://www.w3.org/2000/svg">
<g filter="url(#filter0_d)">
<circle cx="76" cy="76" r="70" fill="white"/>
</g>
<path d="M86.7895 52.9299C80.058 52.9299 73.4777 54.9261 67.8806 58.6659C62.2836 62.4057 57.9212 67.7213 55.3452 73.9403C52.7691 80.1594 52.0951 87.0028 53.4084 93.6049C54.7216 100.207 57.9632 106.272 62.7231 111.031C67.4829 115.791 73.5474 119.033 80.1496 120.346C86.7517 121.659 93.5951 120.985 99.8142 118.409C106.033 115.833 111.349 111.471 115.089 105.874C118.828 100.277 120.825 93.6965 120.825 86.965C120.814 77.9415 117.225 69.2904 110.845 62.9098C104.464 56.5292 95.813 52.9401 86.7895 52.9299ZM86.7895 112.58C81.7233 112.58 76.7709 111.078 72.5585 108.263C68.3461 105.449 65.0629 101.448 63.1241 96.7678C61.1852 92.0874 60.6779 86.9371 61.6662 81.9683C62.6544 76.9994 65.0939 72.4353 68.6762 68.8529C72.2584 65.2706 76.8226 62.8309 81.7913 61.8425C86.7601 60.8541 91.9104 61.3613 96.591 63.3C101.271 65.2387 105.272 68.5218 108.087 72.7342C110.901 76.9465 112.404 81.8989 112.404 86.965C112.396 93.756 109.695 100.267 104.893 105.069C100.091 109.871 93.5805 112.572 86.7895 112.58Z" fill="#E07275"/>
<path d="M86.7894 64.158C82.2784 64.1578 77.8686 65.4954 74.1178 68.0015C70.367 70.5076 67.4436 74.0696 65.7172 78.2372C63.9909 82.4048 63.5392 86.9907 64.4192 91.4151C65.2992 95.8394 67.4714 99.9034 70.6612 103.093C73.851 106.283 77.915 108.455 82.3393 109.335C86.7636 110.215 91.3495 109.763 95.5171 108.037C99.6847 106.311 103.247 103.387 105.753 99.6365C108.259 95.8857 109.597 91.476 109.596 86.965C109.589 80.9183 107.184 75.1214 102.909 70.8458C98.633 66.5702 92.836 64.165 86.7894 64.158ZM100.893 88.3685H86.7894C86.4171 88.3685 86.0602 88.2206 85.797 87.9574C85.5337 87.6942 85.3859 87.3372 85.3859 86.965V68.3109C85.3859 67.9387 85.5337 67.5817 85.797 67.3185C86.0602 67.0553 86.4171 66.9074 86.7894 66.9074C87.1616 66.9074 87.5186 67.0553 87.7818 67.3185C88.045 67.5817 88.1929 67.9387 88.1929 68.3109V85.5615H100.893C101.265 85.5615 101.622 85.7093 101.886 85.9725C102.149 86.2357 102.297 86.5927 102.297 86.965C102.297 87.3372 102.149 87.6942 101.886 87.9574C101.622 88.2206 101.265 88.3685 100.893 88.3685Z" fill="#E07275"/>
<path d="M90.6491 55.7739V46.0877C90.6476 45.124 90.316 44.19 89.7094 43.4411C89.1029 42.6922 88.2581 42.1737 87.3158 41.9721V40.6491C87.3143 39.6854 86.9826 38.7514 86.3761 38.0025C85.7696 37.2536 84.9248 36.7352 83.9824 36.5335V35.2105C83.9812 34.0942 83.5372 33.0239 82.7479 32.2346C81.9585 31.4452 80.8882 31.0012 79.7719 31H37.8351C36.0218 31.0024 34.2836 31.7243 33.0021 33.0071C31.7206 34.2899 31.0006 36.0289 31 37.8421V80.1516C31.002 81.9637 31.7228 83.7011 33.0042 84.9825C34.2856 86.2639 36.0229 86.9846 37.8351 86.9867H86.4386C87.5549 86.9854 88.6252 86.5414 89.4145 85.7521C90.2039 84.9627 90.6479 83.8925 90.6491 82.7761V74.2961C91.7654 74.2949 92.8357 73.8509 93.625 73.0615C94.4144 72.2722 94.8584 71.2019 94.8596 70.0856V59.9844C94.8584 58.8681 94.4144 57.7978 93.625 57.0085C92.8357 56.2191 91.7654 55.7751 90.6491 55.7739ZM37.8351 33.807H79.7719C80.1441 33.8074 80.5008 33.9553 80.764 34.2185C81.0271 34.4816 81.1751 34.8384 81.1754 35.2105V36.4386H37.8421C37.4699 36.4386 37.1129 36.5865 36.8497 36.8497C36.5865 37.1129 36.4386 37.4699 36.4386 37.8421C36.4386 38.2143 36.5865 38.5713 36.8497 38.8345C37.1129 39.0977 37.4699 39.2456 37.8421 39.2456H83.1053C83.4774 39.2459 83.8342 39.3939 84.0973 39.6571C84.3604 39.9202 84.5084 40.277 84.5088 40.6491V41.8772H37.8421C36.7719 41.8781 35.7452 41.4539 34.9878 40.6978C34.2305 39.9418 33.8044 38.9158 33.8035 37.8456C33.8026 36.7754 34.2268 35.7487 34.9829 34.9913C35.7389 34.234 36.7649 33.8079 37.8351 33.807ZM87.8421 82.7763C87.8419 83.1484 87.6939 83.5053 87.4308 83.7685C87.1676 84.0316 86.8107 84.1796 86.4386 84.1798H37.8351C36.7671 84.1786 35.7432 83.7538 34.988 82.9987C34.2329 82.2435 33.8081 81.2195 33.807 80.1516V43.3388C34.9729 44.2086 36.3876 44.6803 37.8421 44.6842H86.4386C86.8107 44.6845 87.1675 44.8325 87.4306 45.0957C87.6938 45.3588 87.8418 45.7156 87.8421 46.0877V55.7739H79.5594C77.1032 55.7739 74.7476 56.7496 73.0108 58.4864C71.274 60.2232 70.2982 62.5789 70.2982 65.0351C70.2982 67.4913 71.274 69.8469 73.0108 71.5837C74.7476 73.3205 77.1032 74.2963 79.5594 74.2963H87.8421V82.7763ZM92.0526 70.0857C92.0523 70.4579 91.9043 70.8147 91.6412 71.0778C91.378 71.3409 91.0212 71.4889 90.6491 71.4893H79.5594C77.8477 71.4893 76.206 70.8093 74.9956 69.5989C73.7852 68.3885 73.1053 66.7468 73.1053 65.0351C73.1053 63.3233 73.7852 61.6817 74.9956 60.4713C76.206 59.2609 77.8477 58.5809 79.5594 58.5809H90.6491C91.0212 58.5812 91.378 58.7292 91.6412 58.9924C91.9043 59.2555 92.0523 59.6123 92.0526 59.9844V70.0857Z" fill="#0B0B0B"/>
<path d="M79.5267 60.5791C78.6454 60.5791 77.7839 60.8404 77.0511 61.3301C76.3184 61.8197 75.7472 62.5156 75.41 63.3298C75.0727 64.144 74.9845 65.0399 75.1564 65.9043C75.3284 66.7686 75.7527 67.5626 76.3759 68.1857C76.9991 68.8089 77.793 69.2333 78.6574 69.4052C79.5217 69.5771 80.4176 69.4889 81.2318 69.1516C82.046 68.8144 82.742 68.2433 83.2316 67.5105C83.7212 66.7777 83.9825 65.9162 83.9825 65.035C83.9813 63.8536 83.5114 62.7209 82.6761 61.8855C81.8407 61.0502 80.7081 60.5803 79.5267 60.5791ZM79.5267 66.6844C79.2006 66.6844 78.8818 66.5877 78.6107 66.4065C78.3395 66.2254 78.1282 65.9679 78.0034 65.6666C77.8786 65.3654 77.8459 65.0339 77.9095 64.7141C77.973 64.3942 78.13 64.1004 78.3606 63.8698C78.5911 63.6392 78.8848 63.4821 79.2046 63.4184C79.5245 63.3547 79.856 63.3873 80.1573 63.512C80.4586 63.6367 80.7161 63.848 80.8973 64.1191C81.0786 64.3901 81.1754 64.7089 81.1755 65.035C81.175 65.4721 81.0011 65.8912 80.692 66.2003C80.3829 66.5094 79.9638 66.6833 79.5267 66.6838V66.6844Z" fill="#0B0B0B"/>
<defs>
<filter id="filter0_d" x="0" y="0" width="152" height="152" filterUnits="userSpaceOnUse" color-interpolation-filters="sRGB">
<feFlood flood-opacity="0" result="BackgroundImageFix"/>
<feColorMatrix in="SourceAlpha" type="matrix" values="0 0 0 0 0 0 0 0 0 0 0 0 0 0 0 0 0 0 127 0"/>
<feMorphology radius="2" operator="dilate" in="SourceAlpha" result="effect1_dropShadow"/>
<feOffset/>
<feGaussianBlur stdDeviation="2"/>
<feColorMatrix type="matrix" values="0 0 0 0 0.441667 0 0 0 0 0.185868 0 0 0 0 0.193282 0 0 0 0.25 0"/>
<feBlend mode="normal" in2="BackgroundImageFix" result="effect1_dropShadow"/>
<feBlend mode="normal" in="SourceGraphic" in2="effect1_dropShadow" result="shape"/>
</filter>
</defs>
</svg>
