<svg width="35" height="34" viewBox="0 0 35 34" fill="none" xmlns="http://www.w3.org/2000/svg">
<path d="M34.6952 16.9785C34.6952 7.60053 26.9294 0 17.3476 0C7.76576 0 0 7.60053 0 16.9785C0 26.3565 7.76576 33.957 17.3476 33.957C17.4492 33.957 17.5509 33.957 17.6525 33.9504V20.739H13.9255V16.4877H17.6525V13.3573C17.6525 9.72947 19.9158 7.75307 23.2227 7.75307C24.8084 7.75307 26.1705 7.86582 26.5635 7.91888V11.7125H24.2866C22.4909 11.7125 22.1385 12.5482 22.1385 13.7751V16.4811H26.4415L25.8791 20.7323H22.1385V33.3004C29.3893 31.2643 34.6952 24.7316 34.6952 16.9785Z" fill="#E07275"/>
</svg>
