<svg width="200" height="46" viewBox="0 0 200 46" fill="none" xmlns="http://www.w3.org/2000/svg">
<path d="M194.544 9.94927V27.0249H189.557V9.94927H184.07V5.47693H200V9.94927H194.544Z" fill="black"/>
<path d="M168.986 14.6402V27.0249H164V5.47693H168.485L172.091 10.6998L176.826 17.8616H176.92V5.47693H181.875V27.0249H177.422L172.969 20.4573L169.143 14.6402H168.986Z" fill="black"/>
<path d="M146.094 5.47693H161.177V9.91817H151.08V13.9521H159.703V18.362H151.08V22.6152H161.177V27.0249H146.094V5.47693Z" fill="black"/>
<path d="M134.616 19.7691L136.812 11.9821L138.693 5.47693H143.898L137.031 27.0249H131.919L124.989 5.47693H130.32L132.265 12.1072L134.428 19.7691H134.616Z" fill="black"/>
<path d="M108.356 5.47693H123.264V9.91817H113.167V13.9521H121.791V18.362H113.167V22.6152H123.264V27.0249H108.356C110.546 23.9936 111.837 20.2728 111.837 16.2509C111.837 12.229 110.547 8.50843 108.356 5.47693Z" fill="black"/>
<path d="M64.2244 5.47693H78.3203C77.3417 6.83154 76.5423 8.32303 75.9577 9.91817H69.2103V13.9521H74.9816C74.8878 14.7052 74.8389 15.4723 74.8389 16.2509C74.8389 16.965 74.881 17.6691 74.9601 18.362H69.2103V22.6152H75.9695C76.5529 24.1986 77.3483 25.6797 78.3206 27.0249H64.2244V5.47693Z" fill="black"/>
<path d="M56.4771 16.9859L54.4388 20.8639L52.5573 24.1477H49.0137L47.1006 20.7388L45.1567 17.0173H45.0311V27.0249H40.0452V5.47693H44.6233L48.1983 12.4823L50.7384 17.6114H50.9266L53.5607 12.295L56.9786 5.47693H61.557V27.0249H56.5711V16.9859H56.4771Z" fill="black"/>
<path d="M31.2332 22.7717H24.2718L22.9861 27.0249H17.6237L25.2439 5.47693H30.3866L37.8814 27.0249H32.5504L31.2332 22.7717ZM25.5262 18.7062H29.9789L29.54 17.2359L27.8154 11.294H27.6897L25.9651 17.2359L25.5262 18.7062Z" fill="black"/>
<path d="M15.7734 24.0538C15.2927 24.6583 14.7439 25.1639 14.1271 25.5707C13.5106 25.9771 12.878 26.3053 12.2301 26.5555C11.5819 26.8059 10.9337 26.9831 10.2857 27.0874C9.63755 27.1916 9.03141 27.2439 8.46684 27.2439C7.4844 27.2439 6.49133 27.1082 5.48787 26.8372C4.4844 26.5661 3.57496 26.1491 2.75976 25.5861C1.94433 25.0232 1.28055 24.3092 0.768188 23.4439C0.256063 22.5786 0 21.5517 0 20.3634V12.3257C0 11.1374 0.245669 10.1056 0.737007 9.22965C1.22834 8.35399 1.8763 7.61896 2.68133 7.02482C3.4859 6.43067 4.39039 5.98778 5.39385 5.69589C6.39731 5.40376 7.4218 5.25793 8.46684 5.25793C9.74219 5.25793 11.0225 5.44051 12.3082 5.8052C13.5942 6.17012 14.6655 6.72775 15.5225 7.47855L13.1079 11.3252C12.3971 10.7204 11.6395 10.319 10.8345 10.1211C10.0297 9.92322 9.28227 9.8238 8.59251 9.8238C8.1744 9.8238 7.75629 9.88646 7.33794 10.0116C6.91983 10.1367 6.53314 10.3294 6.17787 10.5904C5.82235 10.8509 5.53511 11.1949 5.31543 11.6223C5.09574 12.0496 4.98613 12.5761 4.98613 13.2014V19.3002C4.98613 19.9254 5.09054 20.452 5.29984 20.8793C5.50865 21.3069 5.78054 21.6506 6.11503 21.9116C6.44928 22.1722 6.82062 22.3649 7.2281 22.49C7.63582 22.6151 8.04873 22.6778 8.46684 22.6778C8.84337 22.6778 9.23526 22.6257 9.64274 22.5213C10.0505 22.417 10.432 22.2188 10.7872 21.9272V19.0184H7.80826V14.8281H15.7734V24.0538Z" fill="black"/>
<path fill-rule="evenodd" clip-rule="evenodd" d="M93.3383 0C95.1678 0 96.9265 0.300841 98.5682 0.855172L79.8435 17.5075L80.9618 22.2599L93.6324 22.2243L91.2184 32.3648C83.2207 31.3285 77.0436 24.5095 77.0436 16.2509C77.0436 7.27579 84.3388 0 93.3383 0ZM103.097 3.23528C107.065 6.19941 109.633 10.9259 109.633 16.2509C109.633 24.1149 104.032 30.6738 96.5913 32.1773L98.8318 22.2097L101.142 22.2031L102.042 17.4453L99.9012 17.4512L103.097 3.23528ZM96.9113 8.45159L86.8543 17.4879L94.7653 17.4658L96.9113 8.45159Z" fill="#E31E24"/>
<path d="M5.51456 39.4547L3.19984 43.7461C2.97732 44.1588 2.70921 44.4714 2.39645 44.683C2.08299 44.8948 1.7426 45.0008 1.3748 45.0008C1.09016 45.0008 0.794881 44.9388 0.489212 44.8149L0.792282 43.862C1.0096 43.9291 1.19126 43.9626 1.33606 43.9626C1.49149 43.9626 1.63134 43.9254 1.75535 43.8502C1.8796 43.7755 1.9937 43.658 2.09716 43.498L2.1437 43.436L0 39.4547H1.34386L2.78834 42.3672L4.27984 39.4547H5.51456ZM11.0601 44.8769L11.0525 41.6312L9.45235 44.3037H8.89322L7.29306 41.6934V44.8769H6.11267V39.4547H7.15345L9.18849 42.8242L11.1923 39.4547H12.2329L12.2407 44.8769H11.0601ZM18.5785 39.4547V44.8769H17.3204V42.6537H14.8502V44.8769H13.5921V39.4547H14.8502V41.5926H17.3204V39.4547H18.5785ZM22.5706 41.2362C23.2337 41.2362 23.7423 41.3834 24.0968 41.6779C24.4514 41.9719 24.6288 42.4084 24.6288 42.9868C24.6288 43.6012 24.4334 44.0698 24.0425 44.3928C23.6515 44.7155 23.1014 44.8769 22.3923 44.8769H19.9377V39.4547H21.188V41.2362H22.5706ZM22.3223 43.9473C22.6483 43.9473 22.9034 43.8672 23.0874 43.7072C23.271 43.547 23.3629 43.315 23.3629 43.0101C23.3629 42.4473 23.0161 42.1658 22.3223 42.1658H21.188V43.9473H22.3223ZM25.32 39.4547H26.5707V44.8769H25.32V39.4547ZM27.9222 39.4547H29.1727V42.9868L31.7671 39.4547H32.9475V44.8769H31.705V41.3523L29.1106 44.8769H27.9222V39.4547ZM30.4308 39.106C29.4368 39.106 28.9346 38.7109 28.9244 37.9208H29.7862C29.7968 38.2977 30.0115 38.4862 30.4308 38.4862C30.6382 38.4862 30.796 38.4384 30.9049 38.3429C31.0136 38.2475 31.0705 38.1069 31.0757 37.9208H31.9377C31.9327 38.3081 31.8059 38.6026 31.5574 38.804C31.3086 39.0052 30.933 39.106 30.4308 39.106ZM39.0677 44.9697C38.514 44.9697 38.013 44.8498 37.5651 44.6095C37.117 44.3694 36.7651 44.0363 36.5088 43.6104C36.2522 43.1842 36.1244 42.7027 36.1244 42.1658C36.1244 41.6286 36.2522 41.1469 36.5088 40.7212C36.7651 40.2952 37.117 39.9619 37.5651 39.7216C38.013 39.4818 38.5164 39.3616 39.0755 39.3616C39.5468 39.3616 39.9727 39.4441 40.3535 39.6092C40.734 39.7748 41.0536 40.0123 41.3125 40.3219L40.5047 41.0656C40.1373 40.6422 39.6817 40.4305 39.1377 40.4305C38.801 40.4305 38.5008 40.5042 38.237 40.6514C37.9729 40.7987 37.7669 41.0039 37.6192 41.267C37.4718 41.5306 37.3981 41.8301 37.3981 42.1658C37.3981 42.5015 37.4718 42.8009 37.6192 43.0643C37.7669 43.3274 37.9729 43.5329 38.237 43.6801C38.5008 43.8271 38.801 43.9006 39.1377 43.9006C39.6817 43.9006 40.1373 43.6865 40.5047 43.2577L41.3125 44.0014C41.0536 44.3164 40.7326 44.5565 40.3497 44.7219C39.9663 44.887 39.539 44.9697 39.0677 44.9697ZM46.3454 43.8698V44.8769H42.1358V39.4547H46.2446V40.4616H43.3863V41.639H45.9108V42.6148H43.3863V43.8698H46.3454ZM49.7168 39.4547C50.1982 39.4547 50.6163 39.5345 50.9709 39.6945C51.3257 39.8549 51.5987 40.082 51.7906 40.3763C51.9819 40.6708 52.0776 41.0192 52.0776 41.422C52.0776 41.8197 51.9819 42.1672 51.7906 42.4638C51.5987 42.7606 51.3257 42.988 50.9709 43.1453C50.6163 43.3032 50.1982 43.3819 49.7168 43.3819H48.6214V44.8769H47.3631V39.4547H49.7168ZM49.6469 42.3594C50.0248 42.3594 50.3123 42.2781 50.5091 42.1154C50.7056 41.9526 50.8039 41.7215 50.8039 41.422C50.8039 41.1174 50.7056 40.8837 50.5091 40.7212C50.3123 40.5584 50.0248 40.4769 49.6469 40.4769H48.6214V42.3594H49.6469ZM55.5571 44.9697C55.0034 44.9697 54.5026 44.8498 54.0545 44.6095C53.6064 44.3694 53.2547 44.0363 52.9981 43.6104C52.7416 43.1842 52.6138 42.7027 52.6138 42.1658C52.6138 41.6286 52.7416 41.1469 52.9981 40.7212C53.2547 40.2952 53.6064 39.9619 54.0545 39.7216C54.5026 39.4818 55.0057 39.3616 55.5649 39.3616C56.0361 39.3616 56.462 39.4441 56.8428 39.6092C57.2234 39.7748 57.543 40.0123 57.8019 40.3219L56.994 41.0656C56.6267 40.6422 56.171 40.4305 55.6272 40.4305C55.2906 40.4305 54.9904 40.5042 54.7265 40.6514C54.4622 40.7987 54.2562 41.0039 54.1086 41.267C53.9614 41.5306 53.8875 41.8301 53.8875 42.1658C53.8875 42.5015 53.9614 42.8009 54.1086 43.0643C54.2562 43.3274 54.4622 43.5329 54.7265 43.6801C54.9904 43.8271 55.2906 43.9006 55.6272 43.9006C56.171 43.9006 56.6267 43.6865 56.994 43.2577L57.8019 44.0014C57.543 44.3164 57.222 44.5565 56.8391 44.7219C56.4559 44.887 56.0283 44.9697 55.5571 44.9697ZM58.6254 39.4547H59.8757V42.9868L62.4701 39.4547H63.6505V44.8769H62.4079V41.3523L59.8135 44.8769H58.6254V39.4547ZM67.5727 44.9697C67.019 44.9697 66.5179 44.8498 66.0701 44.6095C65.622 44.3694 65.27 44.0363 65.0137 43.6104C64.7571 43.1842 64.6294 42.7027 64.6294 42.1658C64.6294 41.6286 64.7571 41.1469 65.0137 40.7212C65.27 40.2952 65.622 39.9619 66.0701 39.7216C66.5179 39.4818 67.0213 39.3616 67.5805 39.3616C68.0517 39.3616 68.4776 39.4441 68.8584 39.6092C69.239 39.7748 69.5586 40.0123 69.8175 40.3219L69.0096 41.0656C68.6423 40.6422 68.1866 40.4305 67.6426 40.4305C67.306 40.4305 67.0057 40.5042 66.7419 40.6514C66.4778 40.7987 66.2718 41.0039 66.1242 41.267C65.9768 41.5306 65.9031 41.8301 65.9031 42.1658C65.9031 42.5015 65.9768 42.8009 66.1242 43.0643C66.2718 43.3274 66.4778 43.5329 66.7419 43.6801C67.0057 43.8271 67.306 43.9006 67.6426 43.9006C68.1866 43.9006 68.6423 43.6865 69.0096 43.2577L69.8175 44.0014C69.5586 44.3164 69.2375 44.5565 68.8546 44.7219C68.4712 44.887 68.0439 44.9697 67.5727 44.9697ZM77.7941 39.4547V44.8769H76.5438V40.4769H74.0893V44.8769H72.839V39.4547H77.7941ZM81.7397 44.9697C81.1756 44.9697 80.6666 44.8484 80.2137 44.6055C79.7607 44.3628 79.4059 44.0285 79.1496 43.6026C78.893 43.1764 78.7652 42.6977 78.7652 42.1658C78.7652 41.6338 78.893 41.1546 79.1496 40.7289C79.4059 40.3025 79.7607 39.9682 80.2137 39.7256C80.6666 39.4829 81.1756 39.3616 81.7397 39.3616C82.3041 39.3616 82.8117 39.4829 83.2622 39.7256C83.7129 39.9682 84.0674 40.3025 84.3263 40.7289C84.5852 41.1546 84.7144 41.6338 84.7144 42.1658C84.7144 42.6977 84.5852 43.1764 84.3263 43.6026C84.0674 44.0285 83.7129 44.3628 83.2622 44.6055C82.8117 44.8484 82.3041 44.9697 81.7397 44.9697ZM81.7397 43.9006C82.0608 43.9006 82.3508 43.8271 82.6097 43.6801C82.8686 43.5329 83.0718 43.3274 83.2194 43.0643C83.367 42.8009 83.4408 42.5015 83.4408 42.1658C83.4408 41.8301 83.367 41.5306 83.2194 41.267C83.0718 41.0039 82.8686 40.7987 82.6097 40.6514C82.3508 40.5042 82.0608 40.4305 81.7397 40.4305C81.4187 40.4305 81.1291 40.5042 80.8702 40.6514C80.6111 40.7987 80.4077 41.0039 80.26 41.267C80.1129 41.5306 80.0389 41.8301 80.0389 42.1658C80.0389 42.5015 80.1129 42.8009 80.26 43.0643C80.4077 43.3274 80.6111 43.5329 80.8702 43.6801C81.1291 43.8271 81.4187 43.9006 81.7397 43.9006ZM95.037 39.4547V44.8769H93.7867V40.4769H91.3322V44.8769H90.0818V39.4547H95.037ZM98.9826 44.9697C98.4185 44.9697 97.9095 44.8484 97.4566 44.6055C97.0036 44.3628 96.6488 44.0285 96.3925 43.6026C96.1359 43.1764 96.0081 42.6977 96.0081 42.1658C96.0081 41.6338 96.1359 41.1546 96.3925 40.7289C96.6488 40.3025 97.0036 39.9682 97.4566 39.7256C97.9095 39.4829 98.4185 39.3616 98.9826 39.3616C99.5469 39.3616 100.055 39.4829 100.505 39.7256C100.956 39.9682 101.31 40.3025 101.569 40.7289C101.828 41.1546 101.957 41.6338 101.957 42.1658C101.957 42.6977 101.828 43.1764 101.569 43.6026C101.31 44.0285 100.956 44.3628 100.505 44.6055C100.055 44.8484 99.5469 44.9697 98.9826 44.9697ZM98.9826 43.9006C99.3036 43.9006 99.5937 43.8271 99.8526 43.6801C100.112 43.5329 100.315 43.3274 100.462 43.0643C100.61 42.8009 100.684 42.5015 100.684 42.1658C100.684 41.8301 100.61 41.5306 100.462 41.267C100.315 41.0039 100.112 40.7987 99.8526 40.6514C99.5937 40.5042 99.3036 40.4305 98.9826 40.4305C98.6616 40.4305 98.3717 40.5042 98.1128 40.6514C97.854 40.7987 97.6506 41.0039 97.5029 41.267C97.3555 41.5306 97.2818 41.8301 97.2818 42.1658C97.2818 42.5015 97.3555 42.8009 97.5029 43.0643C97.6506 43.3274 97.854 43.5329 98.1128 43.6801C98.3717 43.8271 98.6616 43.9006 98.9826 43.9006ZM108.381 43.8542V45.9999H107.216V44.8769H103.379V45.9999H102.214L102.222 43.8542H102.439C102.765 43.8438 102.996 43.6066 103.13 43.1416C103.265 42.677 103.348 42.0131 103.379 41.1509L103.441 39.4547H107.62V43.8542H108.381ZM104.49 41.267C104.463 41.9128 104.409 42.4537 104.326 42.89C104.243 43.3265 104.117 43.6478 103.946 43.8542H106.377V40.4769H104.513L104.49 41.267ZM109.227 39.4547H113.616V40.4538H110.478V41.5693H111.985C112.642 41.5693 113.143 41.7059 113.487 41.9797C113.832 42.2534 114.004 42.6483 114.004 43.1649C114.004 43.7072 113.813 44.128 113.429 44.4276C113.046 44.727 112.505 44.8769 111.806 44.8769H109.227V39.4547ZM111.736 43.9473C112.057 43.9473 112.303 43.8841 112.474 43.7576C112.645 43.6309 112.73 43.4462 112.73 43.2035C112.73 42.7286 112.399 42.4909 111.736 42.4909H110.478V43.9473H111.736ZM117.554 44.9697C116.989 44.9697 116.48 44.8484 116.028 44.6055C115.574 44.3628 115.22 44.0285 114.963 43.6026C114.707 43.1764 114.579 42.6977 114.579 42.1658C114.579 41.6338 114.707 41.1546 114.963 40.7289C115.22 40.3025 115.574 39.9682 116.028 39.7256C116.48 39.4829 116.989 39.3616 117.554 39.3616C118.118 39.3616 118.625 39.4829 119.076 39.7256C119.527 39.9682 119.881 40.3025 120.14 40.7289C120.399 41.1546 120.528 41.6338 120.528 42.1658C120.528 42.6977 120.399 43.1764 120.14 43.6026C119.881 44.0285 119.527 44.3628 119.076 44.6055C118.625 44.8484 118.118 44.9697 117.554 44.9697ZM117.554 43.9006C117.875 43.9006 118.165 43.8271 118.424 43.6801C118.682 43.5329 118.886 43.3274 119.033 43.0643C119.181 42.8009 119.255 42.5015 119.255 42.1658C119.255 41.8301 119.181 41.5306 119.033 41.267C118.886 41.0039 118.682 40.7987 118.424 40.6514C118.165 40.5042 117.875 40.4305 117.554 40.4305C117.233 40.4305 116.943 40.5042 116.684 40.6514C116.425 40.7987 116.221 41.0039 116.074 41.267C115.927 41.5306 115.853 41.8301 115.853 42.1658C115.853 42.5015 115.927 42.8009 116.074 43.0643C116.221 43.3274 116.425 43.5329 116.684 43.6801C116.943 43.8271 117.233 43.9006 117.554 43.9006ZM123.853 39.4547C124.334 39.4547 124.753 39.5345 125.107 39.6945C125.462 39.8549 125.735 40.082 125.927 40.3763C126.118 40.6708 126.214 41.0192 126.214 41.422C126.214 41.8197 126.118 42.1672 125.927 42.4638C125.735 42.7606 125.462 42.988 125.107 43.1453C124.753 43.3032 124.334 43.3819 123.853 43.3819H122.757V44.8769H121.499V39.4547H123.853ZM123.783 42.3594C124.161 42.3594 124.448 42.2781 124.645 42.1154C124.842 41.9526 124.94 41.7215 124.94 41.422C124.94 41.1174 124.842 40.8837 124.645 40.7212C124.448 40.5584 124.161 40.4769 123.783 40.4769H122.757V42.3594H123.783ZM131.837 39.4547L129.522 43.7461C129.3 44.1588 129.032 44.4714 128.719 44.683C128.405 44.8948 128.065 45.0008 127.697 45.0008C127.413 45.0008 127.117 44.9388 126.812 44.8149L127.115 43.862C127.332 43.9291 127.514 43.9626 127.659 43.9626C127.814 43.9626 127.954 43.9254 128.078 43.8502C128.202 43.7755 128.316 43.658 128.42 43.498L128.466 43.436L126.322 39.4547H127.666L129.111 42.3672L130.602 39.4547H131.837ZM138.905 40.4769H137.165V44.8769H135.922V40.4769H134.191V39.4547H138.905V40.4769ZM139.697 39.4547H140.948V42.9868L143.542 39.4547H144.723V44.8769H143.48V41.3523L140.885 44.8769H139.697V39.4547ZM151.022 44.8769L151.014 41.6312L149.414 44.3037H148.855L147.254 41.6934V44.8769H146.074V39.4547H147.115L149.15 42.8242L151.154 39.4547H152.194L152.202 44.8769H151.022ZM153.553 39.4547H157.942V40.4538H154.804V41.5693H156.311C156.968 41.5693 157.469 41.7059 157.814 41.9797C158.158 42.2534 158.33 42.6483 158.33 43.1649C158.33 43.7072 158.139 44.128 157.755 44.4276C157.372 44.727 156.831 44.8769 156.132 44.8769H153.553V39.4547ZM156.062 43.9473C156.383 43.9473 156.629 43.8841 156.8 43.7576C156.971 43.6309 157.056 43.4462 157.056 43.2035C157.056 42.7286 156.725 42.4909 156.062 42.4909H154.804V43.9473H156.062ZM159.286 39.4547H160.536V42.9868L163.13 39.4547H164.311V44.8769H163.068V41.3523L160.474 44.8769H159.286V39.4547ZM170.47 39.4547V44.8769H169.227V40.4769H167.363L167.324 41.6081C167.298 42.3776 167.236 43.0009 167.138 43.4787C167.04 43.9562 166.875 44.323 166.645 44.5784C166.414 44.8342 166.092 44.9622 165.678 44.9622C165.507 44.9622 165.3 44.9334 165.056 44.8769L165.134 43.8158C165.201 43.8363 165.277 43.8464 165.359 43.8464C165.66 43.8464 165.869 43.6695 165.989 43.3159C166.108 42.9623 166.183 42.4084 166.214 41.6546L166.291 39.4547H170.47ZM177.398 43.8542V45.9999H176.233V44.8769H172.396V45.9999H171.231L171.239 43.8542H171.456C171.783 43.8438 172.013 43.6066 172.148 43.1416C172.282 42.677 172.365 42.0131 172.396 41.1509L172.458 39.4547H176.637V43.8542H177.398ZM173.507 41.267C173.481 41.9128 173.426 42.4537 173.344 42.89C173.261 43.3265 173.134 43.6478 172.963 43.8542H175.394V40.4769H173.53L173.507 41.267ZM178.245 39.4547H179.495V42.9868L182.09 39.4547H183.27V44.8769H182.027V41.3523L179.433 44.8769H178.245V39.4547ZM189.608 39.4547V44.8769H188.35V42.6537H185.879V44.8769H184.621V39.4547H185.879V41.5926H188.35V39.4547H189.608ZM194.796 40.4769H192.21L192.217 44.8769H190.967V39.4547H194.804L194.796 40.4769ZM198.198 43.715H195.674L195.192 44.8769H193.903L196.326 39.4547H197.569L200 44.8769H198.68L198.198 43.715ZM197.802 42.762L196.94 40.6863L196.078 42.762H197.802Z" fill="black"/>
</svg>
