<svg width="187" height="187" viewBox="0 0 187 187" fill="none" xmlns="http://www.w3.org/2000/svg">
<rect x="131.191" y="34.6167" width="24.9439" height="20.3031" rx="6" transform="rotate(41.9968 131.191 34.6167)" fill="#70354A"/>
<rect x="162.257" y="78.4376" width="24.9439" height="20.3031" rx="6" transform="rotate(89.5767 162.257 78.4376)" fill="#70354A"/>
<rect x="151.275" y="131.143" width="24.9439" height="20.3031" rx="6" transform="rotate(131.135 151.275 131.143)" fill="#70354A"/>
<rect x="106.95" y="160.744" width="24.9439" height="20.3031" rx="6" transform="rotate(178.309 106.95 160.744)" fill="#70354A"/>
<rect x="54.3054" y="151.094" width="24.9439" height="20.3031" rx="6" transform="rotate(-135.939 54.3054 151.094)" fill="#70354A"/>
<rect x="25.6206" y="106.774" width="24.9439" height="20.3031" rx="6" transform="rotate(-91.2711 25.6206 106.774)" fill="#70354A"/>
<rect x="35.168" y="55.1664" width="24.9439" height="20.3031" rx="6" transform="rotate(-48.378 35.168 55.1664)" fill="#70354A"/>
<rect x="79.8154" y="22.9304" width="24.9439" height="20.3031" rx="6" transform="rotate(-1.10181 79.8154 22.9304)" fill="#70354A"/>
<path fill-rule="evenodd" clip-rule="evenodd" d="M65.9775 146.573C95.2376 161.48 131.042 149.844 145.949 120.584C160.855 91.3243 149.22 55.5201 119.96 40.6134C90.6995 25.7067 54.8952 37.3423 39.9885 66.6024C25.0818 95.8625 36.7175 131.667 65.9775 146.573ZM75.4578 127.966C94.4411 137.637 117.67 130.088 127.341 111.105C137.013 92.1214 129.464 68.8923 110.48 59.2211C91.4969 49.5499 68.2678 57.0989 58.5966 76.0823C48.9254 95.0656 56.4744 118.295 75.4578 127.966Z" fill="#70354A"/>
<circle cx="93.4231" cy="93.1243" r="23.2781" fill="#70354A"/>
</svg>
