<svg width="108" height="109" viewBox="0 0 108 109" fill="none" xmlns="http://www.w3.org/2000/svg">
<rect x="47.0759" y="10.9248" width="15.8166" height="12.874" rx="4" fill="#882F3F"/>
<rect x="80.3079" y="18.3948" width="15.8166" height="12.874" rx="4" transform="rotate(47.5799 80.3079 18.3948)" fill="#882F3F"/>
<rect x="97.4927" y="47.8909" width="15.8166" height="12.874" rx="4" transform="rotate(89.1385 97.4927 47.8909)" fill="#882F3F"/>
<rect x="89.1641" y="80.6458" width="15.8166" height="12.874" rx="4" transform="rotate(136.312 89.1641 80.6458)" fill="#882F3F"/>
<rect x="60.2612" y="98.4333" width="15.8166" height="12.874" rx="4" transform="rotate(-177.936 60.2612 98.4333)" fill="#882F3F"/>
<rect x="27.9399" y="89.7179" width="15.8166" height="12.874" rx="4" transform="rotate(-133.268 27.9399 89.7179)" fill="#882F3F"/>
<rect x="10.5439" y="61.3475" width="15.8166" height="12.874" rx="4" transform="rotate(-90.3749 10.5439 61.3475)" fill="#882F3F"/>
<rect x="17.9077" y="27.2144" width="15.8166" height="12.874" rx="4" transform="rotate(-43.0986 17.9077 27.2144)" fill="#882F3F"/>
<path fill-rule="evenodd" clip-rule="evenodd" d="M63.8441 91.3511C83.957 85.9619 95.8929 65.2883 90.5037 45.1753C85.1144 25.0624 64.4408 13.1265 44.3279 18.5157C24.2149 23.905 12.279 44.5786 17.6683 64.6915C23.0575 84.8045 43.7311 96.7404 63.8441 91.3511ZM60.4167 78.5605C73.4656 75.0641 81.2093 61.6514 77.7129 48.6025C74.2165 35.5536 60.8038 27.8099 47.7549 31.3063C34.706 34.8027 26.9623 48.2154 30.4587 61.2643C33.9551 74.3132 47.3678 82.057 60.4167 78.5605Z" fill="#882F3F"/>
<path d="M30.9919 38.3005L77.9792 71.9244M37.4581 78.8216L71.513 31.8344" stroke="#402257" stroke-linecap="round"/>
<circle cx="54.7011" cy="55.9747" r="8.62151" fill="#161D44"/>
<circle cx="54.701" cy="55.9747" r="3.4486" fill="#5665B8"/>
</svg>
