<svg width="115" height="116" viewBox="0 0 115 116" fill="none" xmlns="http://www.w3.org/2000/svg">
<rect x="63.6362" y="0.182373" width="20.7346" height="16.877" rx="4" transform="rotate(15 63.6362 0.182373)" fill="#882F3F"/>
<rect x="103.182" y="20.9169" width="20.7346" height="16.877" rx="4" transform="rotate(62.5799 103.182 20.9169)" fill="#882F3F"/>
<rect x="114.935" y="64.0976" width="20.7346" height="16.877" rx="4" transform="rotate(104.139 114.935 64.0976)" fill="#882F3F"/>
<rect x="93.275" y="102.748" width="20.7346" height="16.877" rx="4" transform="rotate(151.312 93.275 102.748)" fill="#882F3F"/>
<rect x="50.6411" y="115.465" width="20.7346" height="16.877" rx="4" transform="rotate(-162.936 50.6411 115.465)" fill="#882F3F"/>
<rect x="12.6707" y="93.4629" width="20.7346" height="16.877" rx="4" transform="rotate(-118.268 12.6707 93.4629)" fill="#882F3F"/>
<rect x="0.269043" y="51.6359" width="20.7346" height="16.877" rx="4" transform="rotate(-75.3749 0.269043 51.6359)" fill="#882F3F"/>
<rect x="21.1748" y="10.9125" width="20.7346" height="16.877" rx="4" transform="rotate(-28.0986 21.1748 10.9125)" fill="#882F3F"/>
<path fill-rule="evenodd" clip-rule="evenodd" d="M57.5815 107.713C84.8784 107.713 107.007 85.5844 107.007 58.2875C107.007 30.9905 84.8784 8.862 57.5815 8.862C30.2845 8.862 8.15601 30.9905 8.15601 58.2875C8.15601 85.5844 30.2845 107.713 57.5815 107.713ZM57.5812 90.3538C75.2909 90.3538 89.6474 75.9972 89.6474 58.2875C89.6474 40.5778 75.2909 26.2212 57.5812 26.2212C39.8715 26.2212 25.5149 40.5778 25.5149 58.2875C25.5149 75.9972 39.8715 90.3538 57.5812 90.3538Z" fill="#882F3F"/>
<path fill-rule="evenodd" clip-rule="evenodd" d="M58.0331 82.9488C71.8416 82.9488 83.0355 71.7548 83.0355 57.9464C83.0355 44.138 71.8416 32.944 58.0331 32.944C44.2247 32.944 33.0308 44.138 33.0308 57.9464C33.0308 71.7548 44.2247 82.9488 58.0331 82.9488ZM58.0332 76.9139C68.5085 76.9139 77.0005 68.4219 77.0005 57.9465C77.0005 47.4712 68.5085 38.9792 58.0332 38.9792C47.5578 38.9792 39.0659 47.4712 39.0659 57.9465C39.0659 68.4219 47.5578 76.9139 58.0332 76.9139Z" fill="#882F3F"/>
</svg>
