<svg width="318" height="320" viewBox="0 0 318 320" fill="none" xmlns="http://www.w3.org/2000/svg">
<path fill-rule="evenodd" clip-rule="evenodd" d="M240.686 293.549C249.686 296.121 294.686 290.049 294.686 279.549C294.686 270.908 282.155 267.685 276.604 266.257C275.411 265.95 274.54 265.726 274.186 265.549C272.186 264.549 262.686 257.049 277.686 254.049C292.686 251.049 303.186 244.049 303.186 239.549C303.186 239.387 303.186 239.226 303.187 239.067C303.204 234.801 303.218 231.531 290.686 231.049C277.686 230.549 277.686 221.049 289.186 216.049C291.096 215.219 293.075 214.402 295.043 213.59C304.923 209.513 314.52 205.553 313.686 200.549C312.686 194.549 304.686 193.049 299.686 194.049C294.686 195.049 291.186 191.049 294.686 185.049C298.186 179.049 305.686 165.049 298.186 160.549C290.686 156.049 278.186 180.549 276.186 185.049C274.186 189.549 266.186 190.549 264.686 185.049C263.186 179.549 254.186 176.049 253.686 185.049C253.213 193.567 254.531 202.085 255.521 208.484C255.577 208.846 255.632 209.201 255.686 209.549C256.686 216.049 249.686 222.549 245.186 216.049C243.746 213.969 242.818 211.889 241.992 210.038C240.238 206.106 238.946 203.209 234.186 203.549C227.186 204.049 230.186 232.549 232.186 237.549C234.186 242.549 231.186 252.049 220.186 246.549C209.186 241.049 201.686 256.049 211.686 272.049C212.39 272.955 213.065 273.844 213.726 274.716C219.633 282.508 224.498 288.924 240.686 293.549ZM289.362 183.345C289.553 183.145 289.545 182.828 289.345 182.638C289.145 182.447 288.828 182.455 288.638 182.655C280.162 191.555 272.949 201.809 266.869 212.488C265.158 209.316 264.294 205.509 263.924 201.837C263.525 197.876 263.707 194.113 263.997 191.556C264.028 191.282 263.831 191.034 263.556 191.003C263.282 190.972 263.034 191.169 263.003 191.444C262.707 194.054 262.522 197.891 262.929 201.938C263.326 205.882 264.29 210.064 266.293 213.507C259.198 226.148 253.67 239.35 249.497 251.591C243.894 245.969 241.609 237.794 240.748 230.752C239.987 224.523 240.347 219.296 240.467 217.565L240.467 217.564C240.487 217.274 240.5 217.082 240.5 217C240.5 216.724 240.276 216.5 240 216.5C239.724 216.5 239.5 216.724 239.5 217C239.5 217.055 239.49 217.203 239.473 217.435C239.361 219.012 238.973 224.464 239.756 230.873C240.643 238.133 243.043 246.775 249.141 252.643C245.656 263.011 243.146 272.656 241.479 280.643C238.687 278.612 234.635 275.421 230.843 271.932C226.741 268.158 223.007 264.09 221.452 260.787C221.335 260.537 221.037 260.43 220.787 260.548C220.537 260.665 220.43 260.963 220.548 261.213C222.193 264.71 226.063 268.892 230.166 272.668C234.16 276.343 238.435 279.685 241.258 281.718C240.477 285.569 239.897 289.011 239.504 291.933C239.468 292.207 239.66 292.459 239.933 292.496C240.207 292.532 240.459 292.34 240.496 292.067C240.885 289.167 241.461 285.743 242.24 281.906C249.465 280.06 266.104 276.824 277.449 277.997C277.723 278.026 277.969 277.826 277.997 277.551C278.026 277.277 277.826 277.031 277.551 277.003C266.265 275.835 249.947 278.949 242.464 280.818C244.128 272.851 246.636 263.222 250.12 252.87C262.04 247.713 277.691 241.5 290 241.5C290.276 241.5 290.5 241.276 290.5 241C290.5 240.724 290.276 240.5 290 240.5C277.741 240.5 262.34 246.521 250.553 251.594C254.711 239.448 260.204 226.376 267.236 213.87C271.333 211.634 278.024 208.437 284.928 206.035C288.416 204.821 291.948 203.814 295.222 203.235C298.502 202.654 301.489 202.508 303.902 202.99C304.173 203.044 304.436 202.869 304.49 202.598C304.544 202.327 304.369 202.064 304.098 202.01C301.511 201.492 298.384 201.659 295.047 202.25C291.704 202.842 288.119 203.866 284.6 205.09C278.375 207.256 272.33 210.058 268.163 212.241C274.122 201.884 281.15 191.968 289.362 183.345Z" fill="#CF474B"/>
<path d="M168.1 284.124C168.1 291.952 201.406 296.478 208.068 294.561C221.39 290.727 224.351 285.242 229.532 278.533C236.933 266.605 231.382 255.422 223.241 259.523C215.099 263.623 212.879 256.541 214.359 252.813C215.839 249.086 218.06 227.839 212.879 227.466C207.698 227.093 208.068 231.939 204.737 236.785C201.406 241.631 196.226 236.785 196.966 231.939C197.706 227.093 198.816 220.384 198.446 213.674C198.076 206.965 191.415 209.574 190.304 213.674C189.194 217.775 183.273 217.029 181.793 213.674C180.312 210.319 171.061 192.055 165.51 195.409C159.959 198.764 165.51 209.201 168.1 213.674C170.691 218.147 168.1 221.129 164.399 220.384C160.699 219.638 154.778 220.757 154.037 225.23C153.297 229.703 163.659 233.057 172.171 236.785C180.683 240.512 180.683 247.595 171.061 247.967C161.439 248.34 161.809 250.949 161.809 254.304C161.809 257.659 169.58 262.877 180.683 265.114C191.785 267.35 184.753 272.942 183.273 273.687C181.793 274.433 168.1 276.296 168.1 284.124Z" fill="#DF5A5E"/>
<path d="M1.00693 298.204C13.8069 316.604 112.674 314.871 160.507 311.704C226.007 327.204 314.007 315.204 317.007 303.704C320.007 292.204 240.507 283.204 197.007 290.204C164.507 275.704 -14.9931 275.204 1.00693 298.204Z" fill="#CA4246"/>
<path d="M74.8463 243.231C75.2774 241.076 82.1746 221.246 82.6057 219.953C90.365 215.786 105.625 207.279 106.315 208.314C107.177 209.607 107.177 213.487 107.177 215.642C107.177 217.798 92.9279 243.231 91.2272 246.249C89.4793 248.748 89.9104 251.335 90.365 254.439C91.0994 257.37 94.101 284.758 95.5379 298.84C91.2272 297.978 82.347 295.736 81.3124 293.667C80.0192 291.08 73.0984 247.455 74.8463 243.231Z" fill="#21399D"/>
<path d="M76.978 161.671L75.6848 158.223C76.0297 153.05 80.714 152.619 83.0131 153.05C83.5879 154.487 85.3409 157.878 84.3063 158.223C83.2717 158.568 78.7023 160.522 76.978 161.671Z" fill="#CA9797"/>
<path d="M73.9605 164.689C73.9605 165.378 73.2421 173.741 73.0984 178.052C73.0984 184.805 74.3916 199.347 74.3916 201.761C74.3916 204.779 77.8402 218.142 82.151 220.728C86.4617 223.315 99.394 218.573 104.998 213.4C110.602 208.227 108.447 197.881 106.291 195.295C104.136 192.708 100.863 182.978 100.432 179.529C100.001 176.081 93.6138 166.229 90.7725 164.257C87.5787 161.487 88.186 162.964 86.0306 159.085C86.0306 157.791 85.5996 155.944 83.8753 156.929C77.8402 160.378 73.9605 163.826 73.9605 164.689Z" fill="#3C1729"/>
<path d="M79.5645 295.304C75.7711 294.615 74.1042 300.19 73.9605 302.633H96.3765C96.8075 301.339 96.3765 299.615 95.5143 299.615C92.4968 299.615 84.3063 296.167 79.5645 295.304Z" fill="#3C1729"/>
<path d="M122.672 300.046H100.687C99.9975 295.908 104.711 293.436 107.153 292.718C111.464 293.867 120.43 294.615 121.81 295.304C123.189 295.994 122.959 299.328 122.672 300.046Z" fill="#3C1729"/>
<path d="M83.0134 153.912C81.7202 154.343 78.4706 154.343 76.6026 154.774C75.022 151.325 72.7538 142.704 71.3744 140.979C69.6501 138.824 67.9808 129.772 70.1362 128.478C72.2915 127.185 76.6023 128.478 81.3441 132.789C86.086 137.1 91.3246 144.5 89.8246 147.5C88.8246 151 84.7377 153.05 83.0134 153.912Z" fill="#280C1A"/>
<path d="M58.9285 157.36C58.2388 156.326 57.1486 157.504 56.7176 158.223C55.9991 160.091 54.704 164.602 55.0489 167.706C55.4799 171.586 73.154 180.638 72.723 180.638C72.3781 180.638 69.9928 186.099 68.8433 188.829C67.6937 191.99 64.9636 198.399 63.2393 198.744C61.0839 199.175 59.7907 200.899 59.3596 203.054C58.9285 205.21 63.2393 207.796 66.2568 209.952C69.2743 212.107 72.723 204.348 73.154 204.348C73.5851 204.348 83.0688 191.846 88.2417 186.242C93.4146 180.638 93.4146 176.328 92.9835 172.879C92.5524 169.43 88.2417 168.568 85.2241 168.568C82.2066 168.568 74.4473 177.19 74.4473 175.466C74.4473 173.741 75.7405 167.275 74.8783 164.689C74.0162 162.102 67.55 162.964 65.3947 162.533C63.2393 162.102 59.7907 158.654 58.9285 157.36Z" fill="#280C1A"/>
<path d="M107.057 218.146C106.367 219.87 101.884 230.072 99.7283 234.958C97.0863 239.269 97.5174 238.837 94.9309 243.579C96.6552 246.338 107.057 276.341 107.057 293.584C113.523 295.308 115.247 296.17 121.713 296.17C123.006 278.496 112.661 242.717 111.367 240.562C110.074 238.406 107.919 215.99 107.057 218.146Z" fill="#161D44"/>
<path d="M67.9255 158.654C64.4769 152.791 68.6441 144.572 71.3742 140.98C76.547 138.824 78.2709 142.272 79.1331 143.997L79.1333 143.997C79.9955 145.721 78.7022 148.739 77.409 150.463C76.1158 152.188 77.409 153.912 77.409 153.481L77.4095 153.48C77.8409 153.049 78.7028 152.188 79.9956 152.188C81.2888 152.188 82.151 154.343 81.7199 155.636C80.8578 157.36 79.1335 157.36 77.8402 157.36C75.9723 160.234 70.0809 160.809 67.9255 158.654Z" fill="#EDB6B6"/>
<path d="M56.7176 158.223C55.8554 160.378 55.137 163.97 54.9933 166.844C53.7 166.844 50.2513 161.671 49.3892 160.378C48.527 159.085 42.923 151.325 37.3193 146.584C31.7156 141.842 33.0084 138.393 33.4394 136.238C33.8705 134.082 35.5948 134.082 36.026 134.944C36.6729 136.238 39.0436 140.548 40.3368 140.98C41.63 141.411 41.6299 140.98 41.1988 138.824C40.854 137.1 41.3425 136.956 41.6299 137.1C42.2046 138.249 43.2678 140.893 42.923 142.273C42.4919 143.997 43.7853 145.721 44.6474 146.584C45.5096 147.446 53.2691 152.619 56.7176 158.223Z" fill="#EDB6B6"/>
<path d="M35.5948 224.177C36.6294 224.522 37.6065 223.746 37.7502 223.315C36.4569 222.453 36.4569 218.142 40.3366 218.573C44.6474 219.866 45.5095 219.004 47.2338 217.711C49.3892 217.172 57.5797 215.125 66.2012 209.952C64.4769 208.658 62.3215 207.365 60.1662 205.21C54.5622 209.952 45.5095 215.556 41.6298 215.125C37.7502 214.693 35.5948 217.28 34.7326 219.004C33.8705 220.297 34.3016 223.746 35.5948 224.177Z" fill="#EDB6B6"/>
<path d="M125.347 71.0342C123.623 67.9304 125.347 40.8589 127.503 30.082C130.52 33.9617 133.365 46.9802 134.399 49.0493C135.434 51.1185 133.394 66.5797 132.244 74.0517C130.664 74.3391 127.072 74.1379 125.347 71.0342Z" fill="white"/>
<path d="M143.883 8.52811C142.151 11.255 139.725 11.5456 138.288 11.5456C134.696 12.2641 127.166 14.0459 125.787 15.4253C124.062 17.1496 122.769 21.8915 122.769 18.8739C122.769 15.8564 121.036 15.4253 120.605 9.39032C121.036 2.06196 123.192 -0.0934228 128.365 0.337467C135.693 1.19983 149.91 -0.955545 143.883 8.52811Z" fill="#280C1A"/>
<path d="M134.4 62.8436V54.6531C137.561 51.6356 144.401 45.5143 148.194 46.8938C152.936 48.6181 168.455 78.7934 168.024 79.2244C167.593 79.6555 162.42 88.277 162.42 90.0013C162.42 91.3808 161.845 116.153 161.557 128.367C158.109 129.66 152.936 131.816 150.781 131.816C149.918 126.643 148.625 100.778 149.918 94.3121C149.056 95.1742 132.244 96.8985 118.019 94.7431C118.445 87.92 126.887 75.6126 126.651 75.3491C126.633 75.3462 126.629 75.3448 126.64 75.3448C126.645 75.3448 126.649 75.3462 126.651 75.3491C127.326 75.453 147.695 77.3641 145.177 72.3272C143.108 68.1889 140.579 68.3039 139.573 68.8786C139.144 68.8786 138.114 68.5338 137.417 67.1543C136.547 65.43 134.4 64.1368 134.4 62.8436Z" fill="#280C1A"/>
<path d="M121.468 22.7536L124.485 16.7186C124.485 18.0118 130.951 21.0293 129.227 24.4779C127.503 27.9265 127.934 32.6684 127.072 32.6684C126.382 32.6684 123.048 26.0585 121.468 22.7536Z" fill="#CA9797"/>
<path d="M137.417 66.7233C136.038 66.3784 133.969 70.603 133.107 72.7584C133.538 73.1894 142.159 75.3448 144.746 75.7759C147.332 76.207 152.936 81.3799 152.936 78.3623C152.936 75.3448 146.47 72.7584 144.123 72.7584C141.776 72.7584 139.142 67.1544 137.417 66.7233Z" fill="#CA9797"/>
<path d="M132.123 33.9615C132.123 33.2718 129.658 28.9323 128.365 27.0643C127.934 28.3575 127.503 31.375 127.072 32.6682C127.761 33.0131 129.823 36.979 130.398 39.1344C131.117 37.6975 132.123 34.6512 132.123 33.9615Z" fill="#132579"/>
<path d="M126.519 70.6029C127.553 69.9132 127.812 45.8879 127.812 33.9615L124.916 37.8412C123.192 34.3925 120.053 32.2372 117.467 27.4953C111.432 27.4953 107.121 35.2547 106.259 37.8412C104.965 41.7208 104.103 48.187 104.103 51.2045C104.103 54.222 102.81 66.7232 101.948 70.1718C101.087 77.069 102.235 85.6905 102.81 91.7256C108.415 92.5877 111.864 94.7431 116.604 96.0363C117.468 89.5702 125.226 71.465 126.519 70.6029Z" fill="#132579"/>
<path d="M128.476 33.2037C127.786 33.2037 124.165 26.3065 122.441 22.8579C120.285 21.9957 118.561 26.7376 117.699 27.5997C116.837 28.4619 123.734 39.2387 125.027 38.8077C126.32 38.3766 129.338 33.2037 128.476 33.2037Z" fill="#21399D"/>
<path d="M131.817 35.2548C131.386 36.548 130.955 37.8412 130.524 38.7034C133.107 47.756 131.813 64.999 130.089 71.4651C131.813 72.3273 134.079 73.7248 134.079 72.8626C134.079 72.1729 136.953 68.8393 138.39 67.2587C137.421 65.8611 137.421 65.8611 136.128 63.2747C136.99 55.9464 131.953 34.8458 131.817 35.2548Z" fill="#21399D"/>
<path d="M121.147 67.2587C119.423 67.6035 112.56 70.3156 109.829 71.8962C105.088 73.1894 106.812 66.2922 108.105 64.5679C108.105 60.6882 108.215 56.0507 108.215 45.2738C108.215 34.4969 112.095 33.2037 114.682 33.2037C117.268 33.2037 118.968 35.6152 120.286 39.2388C122.01 43.9806 122.009 53.4642 121.147 54.7575C120.286 57.3439 118.992 60.7925 120.717 62.0858C122.441 63.379 123.303 66.8276 121.147 67.2587Z" fill="#21399D"/>
<path d="M131.894 77.6973L135.343 74.7792C135.565 74.5909 135.859 74.5091 136.146 74.5551L156.715 77.8462C157.047 77.8992 157.383 77.7821 157.611 77.5344L171.036 62.8884C171.274 62.629 171.68 62.6202 171.929 62.869C172.158 63.0978 172.171 63.4642 171.96 63.7094L156.724 81.4171C156.511 81.6639 156.192 81.7919 155.868 81.76L132.442 79.4558C131.562 79.3693 131.219 78.2681 131.894 77.6973Z" fill="#B6CDFF"/>
<path d="M123.192 11.5457C122.502 12.9251 123.479 14.563 124.054 15.4251C124.054 23.1845 128.365 24.4779 130.52 24.9088C132.567 25.318 138.71 19.7359 138.279 10.6833C137.417 4.64842 127.502 7.66599 127.072 12.8389C127.072 9.3903 124.054 9.82137 123.192 11.5457Z" fill="#EDB6B6"/>
<path d="M121.036 67.1544C118.45 67.1544 111.984 69.8843 109.828 71.896C112.846 76.638 127.934 77.0691 130.52 77.0691C133.538 77.0691 137.417 76.638 138.279 77.0691C139.141 77.5002 146.901 80.949 146.901 78.3623C146.47 74.9137 138.279 72.7584 135.693 73.1894C133.106 73.6205 124.916 68.0165 121.036 67.1544Z" fill="#EDB6B6"/>
<path d="M160.264 128.798L152.936 131.385V132.247L159.833 133.54L160.264 128.798Z" fill="#EDB6B6"/>
<path d="M168.021 79.2246C168.021 79.2246 162.417 87.8461 162.417 89.5704C166.441 87.7024 174.03 84.3113 176.099 82.2421C178.169 80.173 176.962 79.6557 176.099 79.6557L168.021 79.2246Z" fill="#384FB7"/>
<path d="M167.047 140.437C164.027 133.971 158.106 131.816 153.796 131.816C150.776 131.816 149.919 136.127 150.781 137.42C153.367 140.006 161.555 141.299 162.734 142.162C164.89 143.024 168.338 144.317 167.047 140.437Z" fill="#384FB7"/>
<path d="M189.066 296.729C187.342 279.486 190.359 263.393 192.084 257.501C194.383 257.358 199.499 257.156 201.568 257.501C204.154 257.932 202.43 266.554 200.275 269.571C198.119 272.589 195.964 291.987 195.533 294.143C195.188 295.867 197.257 296.729 199.844 298.022C197.688 300.178 192.084 298.884 189.066 296.729Z" fill="#CA9797"/>
<path d="M201.999 147.577C202.143 145.565 202.344 139.7 201.999 139.7C203.378 139.7 205.735 142.979 206.741 143.697C206.741 145.709 206.655 149.56 206.31 148.87C205.965 148.181 203.292 147.721 201.999 147.577Z" fill="#CA9797"/>
<path d="M232.717 117.367L228.717 114.867C228.717 108.401 232.605 101.883 234.761 106.625C236.485 110.418 234.154 115.642 232.717 117.367Z" fill="#CA9797"/>
<path d="M209.452 142.835C213.591 140.076 210.314 130.765 208.159 126.454C204.711 122.574 200.4 128.609 199.538 130.334C198.675 132.058 201.137 137.231 201.137 137.662C201.137 138.093 204.279 146.284 209.452 142.835Z" fill="#EDB6B6"/>
<path d="M244.244 115.246C241.485 115.246 239.359 120.419 238.64 123.006C239.502 124.155 238.64 123.006 242.52 126.023C245.538 123.006 246.4 120.85 246.4 118.695C246.4 117.356 247.003 115.246 244.244 115.246Z" fill="#EDB6B6"/>
<path d="M204.279 298.022C202.555 295.263 201.261 271.87 200.83 260.518C199.968 256.639 213.207 254.052 213.207 256.639C213.207 259.225 210.745 276.899 209.883 285.09C209.021 293.28 209.883 295.867 210.745 297.16C211.607 298.453 217.211 299.315 215.487 299.746C213.763 300.177 206.434 301.471 204.279 298.022Z" fill="#EDB6B6"/>
<path d="M194.146 188.96C196.301 187.236 194.146 173.585 193.284 166.113C195.152 159.791 199.405 147.146 201.474 147.146C203.543 147.146 206.717 148.367 207.217 149.867C207.717 150.367 209.233 154.043 210.096 154.043L225.183 143.697C232.174 135.938 236.391 126.885 238.115 120.419L243.288 126.885C242.857 127.747 242.426 128.61 240.884 129.472C240.823 129.87 239.9 132.887 239.84 133.351C237.684 141.111 231.194 155.336 219.148 163.958C219.579 167.406 221.735 189.822 217.424 194.995C213.113 200.168 199.75 196.288 195.87 195.857C191.99 195.426 191.559 191.029 194.146 188.96Z" fill="#B6CDFF"/>
<path d="M214.165 197.007C214.596 193.989 212.085 179.482 210.217 171.867C214.096 168.418 214.475 168.177 219.217 163.867C220.51 178.092 221.925 196.145 214.165 197.007Z" fill="#9BB6F2"/>
<path d="M207.217 149.867C207.649 151.16 208.423 154.004 209.717 154.867C213.74 151.705 222.803 144.901 225.217 143.867C228.717 139.367 227.217 141.367 228.717 139.367C230.717 137.367 230.881 126.454 230.881 120.544C232.605 120.419 233.468 118.264 233.468 117.833C233.468 117.402 229.588 114.638 228.013 114.384C228.013 116.108 220.966 138.524 218.38 139.818C215.793 141.111 208.51 148.573 207.217 149.867Z" fill="#9BB6F2"/>
<path d="M200.706 120.85C207.258 120.85 208.466 125.592 208.897 128.179C208.034 128.179 207.172 126.885 206.741 126.454C206.741 128.61 204.154 135.076 202.43 135.938C201.051 136.628 203.149 141.398 203.723 144.128C206.022 150.882 204.585 163.096 193.378 166.544C182.17 167.79 179.152 160.94 177.429 156.199C175.862 151.888 178.721 143.697 183.895 144.559C191.223 146.715 191.223 143.266 191.223 141.542C191.223 139.818 190.739 136.369 190.361 133.352C189.929 129.903 192.515 120.85 200.706 120.85Z" fill="#280C1A"/>
<path d="M214.717 196.867C211.958 197.901 201.246 196.729 196.217 195.867C195.487 196.475 194.461 197.461 193.843 198.208C183.505 210.693 188.202 241.545 189.83 257.814C192.848 261.694 210.2 261.315 213.217 257.867C215.717 253.867 216.872 205.057 214.717 196.867Z" fill="#280C1A"/>
<path d="M188.636 301.902C188.205 299.747 188.348 297.879 189.067 296.729C193.205 299.488 198.118 298.741 199.842 298.022L198.982 297.591C200.709 297.904 202.003 298.336 203.291 299.198C203.722 298.336 203.727 298.022 204.093 297.591C207.111 301.04 214.5 299.747 215.794 299.316C217.518 299.747 218.383 300.06 219.677 301.353C217.521 304.058 214.935 304.435 208.895 304.058C203.474 303.719 203.291 302.764 203.291 301.902C200.706 303.626 189.67 303.626 188.636 301.902Z" fill="#280C1A"/>
<path fill-rule="evenodd" clip-rule="evenodd" d="M58.6949 312.956C60.5468 306.672 59.8343 299.601 52.7645 299.601C51.0098 299.601 49.6841 303.169 49.2201 304.925C48.6976 301.647 41.6761 290.424 36.8686 292.187C32.693 293.717 35.9196 301.753 38.0549 305.58C35.2079 301.673 28.9444 293.382 23.8198 296.252C19.04 302.553 34.488 308.711 34.4011 308.938C34.3758 309.004 33.0391 308.57 29.5138 307.493C25.0582 306.132 22.2113 306.53 20.6274 307.607C29.4385 310.583 43.3228 312.203 58.6949 312.956Z" fill="#DF5A5E"/>
</svg>
