<svg width="206" height="207" viewBox="0 0 206 207" fill="none" xmlns="http://www.w3.org/2000/svg">
<rect x="113.964" y="0.175171" width="37.0725" height="30.1753" rx="6" transform="rotate(15 113.964 0.175171)" fill="#EAA1A1"/>
<rect x="184.669" y="37.2477" width="37.0725" height="30.1753" rx="6" transform="rotate(62.5799 184.669 37.2477)" fill="#EAA1A1"/>
<rect x="205.684" y="114.453" width="37.0725" height="30.1753" rx="6" transform="rotate(104.139 205.684 114.453)" fill="#EAA1A1"/>
<rect x="166.956" y="183.558" width="37.0725" height="30.1753" rx="6" transform="rotate(151.312 166.956 183.558)" fill="#EAA1A1"/>
<rect x="90.728" y="206.296" width="37.0725" height="30.1753" rx="6" transform="rotate(-162.936 90.728 206.296)" fill="#EAA1A1"/>
<rect x="22.8394" y="166.956" width="37.0725" height="30.1753" rx="6" transform="rotate(-118.268 22.8394 166.956)" fill="#EAA1A1"/>
<rect x="0.666016" y="92.1719" width="37.0725" height="30.1753" rx="6" transform="rotate(-75.3749 0.666016 92.1719)" fill="#EAA1A1"/>
<rect x="38.0439" y="19.3602" width="37.0725" height="30.1753" rx="6" transform="rotate(-28.0986 38.0439 19.3602)" fill="#EAA1A1"/>
<path fill-rule="evenodd" clip-rule="evenodd" d="M103.137 192.435C151.942 192.435 191.507 152.87 191.507 104.064C191.507 55.2586 151.942 15.6938 103.137 15.6938C54.3309 15.6938 14.7661 55.2586 14.7661 104.064C14.7661 152.87 54.3309 192.435 103.137 192.435ZM103.137 161.398C134.801 161.398 160.47 135.729 160.47 104.064C160.47 72.4003 134.801 46.7315 103.137 46.7315C71.4725 46.7315 45.8036 72.4003 45.8036 104.064C45.8036 135.729 71.4725 161.398 103.137 161.398Z" fill="#EAA1A1"/>
</svg>
