<svg width="39" height="31" viewBox="0 0 39 31" fill="none" xmlns="http://www.w3.org/2000/svg">
<path d="M34.7078 8.5474H27.1962V4.66223C27.195 3.42611 26.7034 2.24098 25.8293 1.36691C24.9552 0.492848 23.7701 0.00125627 22.534 2.20059e-05H21.6217C21.0393 -0.0025138 20.4772 0.21419 20.0472 0.607065C19.6172 0.999941 19.3507 1.54023 19.3007 2.12055L19.1049 4.27371C18.8372 7.14905 17.4445 9.80222 15.2299 11.6555H12.4325V10.8785C12.4325 10.2603 12.1869 9.66733 11.7498 9.23016C11.3126 8.79299 10.7197 8.5474 10.1014 8.5474H2.3311C1.71286 8.5474 1.11993 8.79299 0.682764 9.23016C0.245598 9.66733 0 10.2603 0 10.8785V27.9732C0 28.5915 0.245598 29.1844 0.682764 29.6216C1.11993 30.0588 1.71286 30.3043 2.3311 30.3043H10.1014C10.7197 30.3043 11.3126 30.0588 11.7498 29.6216C12.1869 29.1844 12.4325 28.5915 12.4325 27.9732V27.1962H15.2967C17.9378 28.7233 20.9347 29.5273 23.9855 29.5273H33.6518C34.627 29.5225 35.5651 29.1531 36.2818 28.4916C36.9984 27.8302 37.4417 26.9247 37.5245 25.953L38.5805 12.7434C38.6234 12.2087 38.5552 11.6709 38.38 11.1639C38.2048 10.6569 37.9266 10.1917 37.5628 9.79751C37.199 9.40334 36.7575 9.08877 36.2661 8.87362C35.7748 8.65847 35.2442 8.54739 34.7078 8.5474ZM10.8785 27.9732C10.8785 28.1793 10.7966 28.377 10.6509 28.5227C10.5052 28.6684 10.3075 28.7503 10.1014 28.7503H2.3311C2.12502 28.7503 1.92738 28.6684 1.78166 28.5227C1.63593 28.377 1.55407 28.1793 1.55407 27.9732V10.8785C1.55407 10.6724 1.63593 10.4748 1.78166 10.3291C1.92738 10.1833 2.12502 10.1015 2.3311 10.1015H10.1014C10.3075 10.1015 10.5052 10.1833 10.6509 10.3291C10.7966 10.4748 10.8785 10.6724 10.8785 10.8785V27.9732ZM35.9767 25.8279C35.9272 26.4112 35.6611 26.955 35.2308 27.352C34.8006 27.7491 34.2373 27.9707 33.6518 27.9732H23.9855C21.1409 27.9734 18.3491 27.2059 15.9043 25.7517C15.7841 25.6804 15.647 25.6425 15.5073 25.6421H12.4325V13.2096H15.5073C15.6826 13.2098 15.8528 13.1503 15.9898 13.041C17.3079 11.9915 18.4002 10.6865 19.2014 9.20439C20.0026 7.72224 20.496 6.09349 20.652 4.41591L20.8478 2.26352C20.8653 2.06979 20.9549 1.88967 21.0987 1.75875C21.2426 1.62783 21.4303 1.55563 21.6249 1.55642H22.534C23.3583 1.55642 24.1489 1.88388 24.7318 2.46677C25.3147 3.04966 25.6421 3.84023 25.6421 4.66456V9.32676C25.6421 9.53284 25.724 9.73049 25.8697 9.87621C26.0154 10.0219 26.2131 10.1038 26.4192 10.1038H34.7078C35.0295 10.1038 35.3478 10.1705 35.6425 10.2996C35.9372 10.4286 36.202 10.6173 36.4203 10.8537C36.6385 11.0901 36.8055 11.3692 36.9106 11.6732C37.0157 11.9773 37.0567 12.2999 37.0311 12.6206L35.9767 25.8279Z" fill="#0B0B0B"/>
<path d="M6.21654 20.9799C5.6018 20.9799 5.00088 21.1622 4.48975 21.5037C3.97862 21.8453 3.58024 22.3307 3.34499 22.8986C3.10975 23.4666 3.04819 24.0915 3.16812 24.6944C3.28805 25.2973 3.58407 25.8512 4.01875 26.2858C4.45343 26.7205 5.00725 27.0165 5.61017 27.1365C6.21309 27.2564 6.83803 27.1948 7.40597 26.9596C7.97391 26.7244 8.45933 26.326 8.80086 25.8148C9.14238 25.3037 9.32467 24.7028 9.32467 24.0881C9.32467 23.2637 8.99721 22.4732 8.41432 21.8903C7.83143 21.3074 7.04087 20.9799 6.21654 20.9799ZM6.21654 25.6421C5.90917 25.6421 5.60871 25.551 5.35314 25.3802C5.09758 25.2095 4.89839 24.9667 4.78076 24.6828C4.66314 24.3988 4.63236 24.0863 4.69233 23.7849C4.75229 23.4834 4.9003 23.2065 5.11764 22.9892C5.33498 22.7718 5.61189 22.6238 5.91335 22.5638C6.21481 22.5039 6.52728 22.5347 6.81125 22.6523C7.09522 22.7699 7.33793 22.9691 7.5087 23.2247C7.67946 23.4802 7.7706 23.7807 7.7706 24.0881C7.7706 24.5002 7.60687 24.8955 7.31543 25.1869C7.02398 25.4784 6.6287 25.6421 6.21654 25.6421Z" fill="#0B0B0B"/>
</svg>
