<svg width="200" height="47" viewBox="0 0 200 47" fill="none" xmlns="http://www.w3.org/2000/svg">
<path d="M194.544 10.0026V27.1697H189.557V10.0026H184.07V5.50635H200V10.0026H194.544Z" fill="white"/>
<path d="M168.986 14.7187V27.1697H164V5.50635H168.485L172.091 10.7572L176.826 17.9573H176.92V5.50635H181.875V27.1697H177.422L172.969 20.5669L169.143 14.7187H168.986Z" fill="white"/>
<path d="M146.094 5.50635H161.177V9.97136H151.08V14.0269H159.703V18.4604H151.08V22.7364H161.177V27.1697H146.094V5.50635Z" fill="white"/>
<path d="M134.616 19.8751L136.812 12.0464L138.693 5.50635H143.898L137.031 27.1697H131.919L124.989 5.50635H130.32L132.265 12.1721L134.428 19.8751H134.616Z" fill="white"/>
<path d="M108.356 5.50635H123.264V9.97136H113.167V14.0269H121.791V18.4604H113.167V22.7364H123.264V27.1697H108.356C110.546 24.1222 111.837 20.3814 111.837 16.338C111.837 12.2946 110.547 8.55408 108.356 5.50635Z" fill="white"/>
<path d="M64.2245 5.50635H78.3205C77.3418 6.86821 76.5424 8.36768 75.9578 9.97136H69.2104V14.0269H74.9817C74.8879 14.7841 74.839 15.5552 74.839 16.338C74.839 17.0559 74.8811 17.7638 74.9602 18.4604H69.2104V22.7364H75.9696C76.5531 24.3282 77.3484 25.8173 78.3207 27.1697H64.2245V5.50635Z" fill="white"/>
<path d="M56.4771 17.077L54.4388 20.9757L52.5573 24.2771H49.0137L47.1006 20.8499L45.1567 17.1085H45.0311V27.1697H40.0452V5.50635H44.6234L48.1983 12.5492L50.7384 17.7058H50.9266L53.5607 12.3609L56.9786 5.50635H61.557V27.1697H56.5711V17.077H56.4771Z" fill="white"/>
<path d="M31.2332 22.8937H24.2718L22.9861 27.1697H17.6237L25.2439 5.50635H30.3866L37.8814 27.1697H32.5504L31.2332 22.8937ZM25.5262 18.8064H29.9789L29.54 17.3283L27.8154 11.3545H27.6897L25.9651 17.3283L25.5262 18.8064Z" fill="white"/>
<path d="M15.7734 24.1826C15.2927 24.7904 14.7439 25.2986 14.1271 25.7077C13.5106 26.1162 12.878 26.4462 12.2301 26.6977C11.5819 26.9495 10.9337 27.1276 10.2857 27.2325C9.63754 27.3372 9.0314 27.3898 8.46684 27.3898C7.4844 27.3898 6.49133 27.2533 5.48787 26.981C4.4844 26.7084 3.57496 26.2891 2.75976 25.7231C1.94433 25.1572 1.28055 24.4394 0.768188 23.5694C0.256063 22.6995 0 21.6671 0 20.4724V12.3917C0 11.1971 0.245669 10.1597 0.737007 9.27911C1.22834 8.39876 1.8763 7.6598 2.68133 7.06248C3.4859 6.46515 4.39039 6.01988 5.39385 5.72643C6.39731 5.43274 7.4218 5.28613 8.46684 5.28613C9.74219 5.28613 11.0225 5.46969 12.3082 5.83633C13.5942 6.2032 14.6655 6.76381 15.5225 7.51864L13.1079 11.3859C12.3971 10.7779 11.6395 10.3743 10.8345 10.1753C10.0297 9.97639 9.28227 9.87644 8.59251 9.87644C8.1744 9.87644 7.75629 9.93944 7.33794 10.0652C6.91983 10.191 6.53314 10.3847 6.17786 10.6471C5.82235 10.9091 5.53511 11.2549 5.31543 11.6845C5.09574 12.1142 4.98613 12.6435 4.98613 13.2721V19.4036C4.98613 20.0321 5.09054 20.5615 5.29983 20.9911C5.50865 21.421 5.78054 21.7666 6.11503 22.029C6.44928 22.2909 6.82062 22.4847 7.2281 22.6104C7.63582 22.7362 8.04873 22.7992 8.46684 22.7992C8.84337 22.7992 9.23526 22.7469 9.64274 22.6419C10.0505 22.537 10.432 22.3378 10.7872 22.0446V19.1203H7.80826V14.9075H15.7734V24.1826Z" fill="white"/>
<path fill-rule="evenodd" clip-rule="evenodd" d="M93.3384 0C95.1679 0 96.9266 0.302452 98.5683 0.85975L79.8436 17.6012L80.9619 22.3791L93.6325 22.3433L91.2186 32.5381C83.2209 31.4962 77.0437 24.6407 77.0437 16.3379C77.0437 7.31474 84.3389 0 93.3384 0ZM103.097 3.2526C107.065 6.23259 109.633 10.9844 109.633 16.3379C109.633 24.244 104.032 30.838 96.5914 32.3496L98.8319 22.3286L101.142 22.322L102.042 17.5387L99.9013 17.5446L103.097 3.2526ZM96.9115 8.49684L86.8544 17.5815L94.7654 17.5593L96.9115 8.49684Z" fill="white"/>
<path d="M5.51456 39.6659L3.19984 43.9803C2.97732 44.3952 2.70921 44.7095 2.39645 44.9222C2.08299 45.1351 1.7426 45.2417 1.3748 45.2417C1.09016 45.2417 0.794881 45.1794 0.489212 45.0548L0.792282 44.0968C1.0096 44.1643 1.19126 44.1979 1.33606 44.1979C1.49149 44.1979 1.63134 44.1605 1.75535 44.0849C1.8796 44.0099 1.9937 43.8917 2.09716 43.7309L2.1437 43.6686L0 39.6659H1.34386L2.78834 42.594L4.27984 39.6659H5.51456ZM11.0601 45.1171L11.0525 41.8541L9.45235 44.5409H8.89321L7.29306 41.9166V45.1171H6.11267V39.6659H7.15345L9.18849 43.0535L11.1923 39.6659H12.2329L12.2407 45.1171H11.0601ZM18.5785 39.6659V45.1171H17.3204V42.882H14.8502V45.1171H13.5921V39.6659H14.8502V41.8153H17.3204V39.6659H18.5785ZM22.5706 41.4569C23.2337 41.4569 23.7422 41.6049 24.0968 41.901C24.4514 42.1966 24.6288 42.6355 24.6288 43.2169C24.6288 43.8346 24.4334 44.3057 24.0425 44.6304C23.6515 44.9549 23.1014 45.1171 22.3922 45.1171H19.9377V39.6659H21.188V41.4569H22.5706ZM22.3223 44.1825C22.6483 44.1825 22.9034 44.102 23.0874 43.9412C23.271 43.7801 23.3629 43.5468 23.3629 43.2404C23.3629 42.6745 23.0161 42.3915 22.3223 42.3915H21.188V44.1825H22.3223ZM25.32 39.6659H26.5707V45.1171H25.32V39.6659ZM27.9222 39.6659H29.1727V43.2169L31.7671 39.6659H32.9475V45.1171H31.705V41.5737L29.1106 45.1171H27.9222V39.6659ZM30.4308 39.3153C29.4368 39.3153 28.9346 38.9182 28.9244 38.1238H29.7862C29.7968 38.5027 30.0115 38.6922 30.4308 38.6922C30.6382 38.6922 30.796 38.6441 30.9049 38.5482C31.0136 38.4523 31.0705 38.3109 31.0757 38.1238H31.9377C31.9327 38.5132 31.8059 38.8092 31.5574 39.0117C31.3086 39.214 30.933 39.3153 30.4308 39.3153ZM39.0677 45.2104C38.514 45.2104 38.013 45.0899 37.5651 44.8483C37.117 44.607 36.7651 44.2721 36.5088 43.8438C36.2522 43.4154 36.1244 42.9313 36.1244 42.3915C36.1244 41.8515 36.2522 41.3671 36.5088 40.9392C36.7651 40.5109 37.117 40.1758 37.5651 39.9342C38.013 39.6931 38.5164 39.5723 39.0755 39.5723C39.5468 39.5723 39.9727 39.6552 40.3535 39.8213C40.734 39.9878 41.0536 40.2265 41.3125 40.5377L40.5047 41.2854C40.1373 40.8598 39.6817 40.6469 39.1377 40.6469C38.801 40.6469 38.5008 40.721 38.2369 40.8691C37.9729 41.0171 37.7669 41.2234 37.6192 41.4879C37.4718 41.753 37.3981 42.054 37.3981 42.3915C37.3981 42.729 37.4718 43.03 37.6192 43.2948C37.7669 43.5594 37.9729 43.7659 38.2369 43.9139C38.5008 44.0617 38.801 44.1356 39.1377 44.1356C39.6817 44.1356 40.1373 43.9203 40.5047 43.4893L41.3125 44.237C41.0536 44.5537 40.7326 44.795 40.3497 44.9613C39.9663 45.1273 39.539 45.2104 39.0677 45.2104ZM46.3454 44.1046V45.1171H42.1358V39.6659H46.2446V40.6782H43.3863V41.8619H45.9108V42.8429H43.3863V44.1046H46.3454ZM49.7168 39.6659C50.1982 39.6659 50.6163 39.7462 50.9709 39.907C51.3257 40.0683 51.5987 40.2966 51.7905 40.5924C51.9819 40.8885 52.0776 41.2388 52.0776 41.6438C52.0776 42.0436 51.9819 42.3929 51.7905 42.6911C51.5987 42.9895 51.3257 43.2181 50.9709 43.3763C50.6163 43.535 50.1982 43.6141 49.7168 43.6141H48.6214V45.1171H47.3631V39.6659H49.7168ZM49.6469 42.5862C50.0248 42.5862 50.3123 42.5045 50.5091 42.3408C50.7056 42.1772 50.8039 41.9448 50.8039 41.6438C50.8039 41.3375 50.7056 41.1026 50.5091 40.9392C50.3123 40.7755 50.0248 40.6936 49.6469 40.6936H48.6214V42.5862H49.6469ZM55.5571 45.2104C55.0034 45.2104 54.5026 45.0899 54.0545 44.8483C53.6064 44.607 53.2546 44.2721 52.9981 43.8438C52.7416 43.4154 52.6138 42.9313 52.6138 42.3915C52.6138 41.8515 52.7416 41.3671 52.9981 40.9392C53.2546 40.5109 53.6064 40.1758 54.0545 39.9342C54.5026 39.6931 55.0057 39.5723 55.5649 39.5723C56.0361 39.5723 56.462 39.6552 56.8428 39.8213C57.2234 39.9878 57.543 40.2265 57.8019 40.5377L56.994 41.2854C56.6267 40.8598 56.171 40.6469 55.6272 40.6469C55.2906 40.6469 54.9904 40.721 54.7265 40.8691C54.4622 41.0171 54.2562 41.2234 54.1086 41.4879C53.9614 41.753 53.8875 42.054 53.8875 42.3915C53.8875 42.729 53.9614 43.03 54.1086 43.2948C54.2562 43.5594 54.4622 43.7659 54.7265 43.9139C54.9904 44.0617 55.2906 44.1356 55.6272 44.1356C56.171 44.1356 56.6267 43.9203 56.994 43.4893L57.8019 44.237C57.543 44.5537 57.222 44.795 56.839 44.9613C56.4559 45.1273 56.0283 45.2104 55.5571 45.2104ZM58.6253 39.6659H59.8757V43.2169L62.4701 39.6659H63.6505V45.1171H62.4079V41.5737L59.8135 45.1171H58.6253V39.6659ZM67.5727 45.2104C67.019 45.2104 66.5179 45.0899 66.0701 44.8483C65.6219 44.607 65.27 44.2721 65.0137 43.8438C64.7571 43.4154 64.6293 42.9313 64.6293 42.3915C64.6293 41.8515 64.7571 41.3671 65.0137 40.9392C65.27 40.5109 65.6219 40.1758 66.0701 39.9342C66.5179 39.6931 67.0213 39.5723 67.5804 39.5723C68.0517 39.5723 68.4776 39.6552 68.8584 39.8213C69.2389 39.9878 69.5586 40.2265 69.8175 40.5377L69.0096 41.2854C68.6423 40.8598 68.1866 40.6469 67.6426 40.6469C67.306 40.6469 67.0057 40.721 66.7419 40.8691C66.4778 41.0171 66.2718 41.2234 66.1241 41.4879C65.9767 41.753 65.903 42.054 65.903 42.3915C65.903 42.729 65.9767 43.03 66.1241 43.2948C66.2718 43.5594 66.4778 43.7659 66.7419 43.9139C67.0057 44.0617 67.306 44.1356 67.6426 44.1356C68.1866 44.1356 68.6423 43.9203 69.0096 43.4893L69.8175 44.237C69.5586 44.5537 69.2375 44.795 68.8546 44.9613C68.4712 45.1273 68.0439 45.2104 67.5727 45.2104ZM77.7941 39.6659V45.1171H76.5438V40.6936H74.0892V45.1171H72.8389V39.6659H77.7941ZM81.7397 45.2104C81.1756 45.2104 80.6666 45.0885 80.2137 44.8443C79.7607 44.6003 79.4059 44.2642 79.1496 43.836C78.893 43.4076 78.7652 42.9263 78.7652 42.3915C78.7652 41.8567 78.893 41.375 79.1496 40.947C79.4059 40.5183 79.7607 40.1822 80.2137 39.9383C80.6666 39.6943 81.1756 39.5723 81.7397 39.5723C82.304 39.5723 82.8117 39.6943 83.2622 39.9383C83.7129 40.1822 84.0674 40.5183 84.3263 40.947C84.5852 41.375 84.7144 41.8567 84.7144 42.3915C84.7144 42.9263 84.5852 43.4076 84.3263 43.836C84.0674 44.2642 83.7129 44.6003 83.2622 44.8443C82.8117 45.0885 82.304 45.2104 81.7397 45.2104ZM81.7397 44.1356C82.0607 44.1356 82.3508 44.0617 82.6097 43.9139C82.8686 43.7659 83.0718 43.5594 83.2194 43.2948C83.367 43.03 83.4407 42.729 83.4407 42.3915C83.4407 42.054 83.367 41.753 83.2194 41.4879C83.0718 41.2234 82.8686 41.0171 82.6097 40.8691C82.3508 40.721 82.0607 40.6469 81.7397 40.6469C81.4187 40.6469 81.1291 40.721 80.8702 40.8691C80.6111 41.0171 80.4077 41.2234 80.26 41.4879C80.1129 41.753 80.0389 42.054 80.0389 42.3915C80.0389 42.729 80.1129 43.03 80.26 43.2948C80.4077 43.5594 80.6111 43.7659 80.8702 43.9139C81.1291 44.0617 81.4187 44.1356 81.7397 44.1356ZM95.037 39.6659V45.1171H93.7867V40.6936H91.3321V45.1171H90.0818V39.6659H95.037ZM98.9826 45.2104C98.4185 45.2104 97.9094 45.0885 97.4566 44.8443C97.0035 44.6003 96.6488 44.2642 96.3924 43.836C96.1359 43.4076 96.0081 42.9263 96.0081 42.3915C96.0081 41.8567 96.1359 41.375 96.3924 40.947C96.6488 40.5183 97.0035 40.1822 97.4566 39.9383C97.9094 39.6943 98.4185 39.5723 98.9826 39.5723C99.5469 39.5723 100.055 39.6943 100.505 39.9383C100.956 40.1822 101.31 40.5183 101.569 40.947C101.828 41.375 101.957 41.8567 101.957 42.3915C101.957 42.9263 101.828 43.4076 101.569 43.836C101.31 44.2642 100.956 44.6003 100.505 44.8443C100.055 45.0885 99.5469 45.2104 98.9826 45.2104ZM98.9826 44.1356C99.3036 44.1356 99.5937 44.0617 99.8526 43.9139C100.111 43.7659 100.315 43.5594 100.462 43.2948C100.61 43.03 100.684 42.729 100.684 42.3915C100.684 42.054 100.61 41.753 100.462 41.4879C100.315 41.2234 100.111 41.0171 99.8526 40.8691C99.5937 40.721 99.3036 40.6469 98.9826 40.6469C98.6616 40.6469 98.3717 40.721 98.1128 40.8691C97.8539 41.0171 97.6506 41.2234 97.5029 41.4879C97.3555 41.753 97.2818 42.054 97.2818 42.3915C97.2818 42.729 97.3555 43.03 97.5029 43.2948C97.6506 43.5594 97.8539 43.7659 98.1128 43.9139C98.3717 44.0617 98.6616 44.1356 98.9826 44.1356ZM108.381 44.089V46.2462H107.216V45.1171H103.379V46.2462H102.214L102.222 44.089H102.439C102.765 44.0786 102.996 43.8401 103.13 43.3725C103.265 42.9055 103.348 42.238 103.379 41.3712L103.441 39.6659H107.62V44.089H108.381ZM104.49 41.4879C104.463 42.1371 104.409 42.6809 104.326 43.1196C104.243 43.5584 104.117 43.8815 103.946 44.089H106.377V40.6936H104.513L104.49 41.4879ZM109.227 39.6659H113.616V40.6703H110.478V41.7918H111.985C112.642 41.7918 113.143 41.9292 113.487 42.2044C113.832 42.4796 114.004 42.8766 114.004 43.396C114.004 43.9412 113.812 44.3642 113.429 44.6655C113.046 44.9665 112.505 45.1171 111.806 45.1171H109.227V39.6659ZM111.736 44.1825C112.057 44.1825 112.303 44.1191 112.474 43.9919C112.645 43.8644 112.73 43.6788 112.73 43.4348C112.73 42.9573 112.399 42.7183 111.736 42.7183H110.478V44.1825H111.736ZM117.554 45.2104C116.989 45.2104 116.48 45.0885 116.028 44.8443C115.574 44.6003 115.22 44.2642 114.963 43.836C114.707 43.4076 114.579 42.9263 114.579 42.3915C114.579 41.8567 114.707 41.375 114.963 40.947C115.22 40.5183 115.574 40.1822 116.028 39.9383C116.48 39.6943 116.989 39.5723 117.554 39.5723C118.118 39.5723 118.625 39.6943 119.076 39.9383C119.527 40.1822 119.881 40.5183 120.14 40.947C120.399 41.375 120.528 41.8567 120.528 42.3915C120.528 42.9263 120.399 43.4076 120.14 43.836C119.881 44.2642 119.527 44.6003 119.076 44.8443C118.625 45.0885 118.118 45.2104 117.554 45.2104ZM117.554 44.1356C117.875 44.1356 118.165 44.0617 118.424 43.9139C118.682 43.7659 118.886 43.5594 119.033 43.2948C119.181 43.03 119.255 42.729 119.255 42.3915C119.255 42.054 119.181 41.753 119.033 41.4879C118.886 41.2234 118.682 41.0171 118.424 40.8691C118.165 40.721 117.875 40.6469 117.554 40.6469C117.232 40.6469 116.943 40.721 116.684 40.8691C116.425 41.0171 116.221 41.2234 116.074 41.4879C115.927 41.753 115.853 42.054 115.853 42.3915C115.853 42.729 115.927 43.03 116.074 43.2948C116.221 43.5594 116.425 43.7659 116.684 43.9139C116.943 44.0617 117.232 44.1356 117.554 44.1356ZM123.853 39.6659C124.334 39.6659 124.753 39.7462 125.107 39.907C125.462 40.0683 125.735 40.2966 125.927 40.5924C126.118 40.8885 126.214 41.2388 126.214 41.6438C126.214 42.0436 126.118 42.3929 125.927 42.6911C125.735 42.9895 125.462 43.2181 125.107 43.3763C124.753 43.535 124.334 43.6141 123.853 43.6141H122.757V45.1171H121.499V39.6659H123.853ZM123.783 42.5862C124.161 42.5862 124.448 42.5045 124.645 42.3408C124.842 42.1772 124.94 41.9448 124.94 41.6438C124.94 41.3375 124.842 41.1026 124.645 40.9392C124.448 40.7755 124.161 40.6936 123.783 40.6936H122.757V42.5862H123.783ZM131.837 39.6659L129.522 43.9803C129.3 44.3952 129.032 44.7095 128.719 44.9222C128.405 45.1351 128.065 45.2417 127.697 45.2417C127.413 45.2417 127.117 45.1794 126.812 45.0548L127.115 44.0968C127.332 44.1643 127.514 44.1979 127.659 44.1979C127.814 44.1979 127.954 44.1605 128.078 44.0849C128.202 44.0099 128.316 43.8917 128.42 43.7309L128.466 43.6686L126.322 39.6659H127.666L129.111 42.594L130.602 39.6659H131.837ZM138.905 40.6936H137.165V45.1171H135.922V40.6936H134.191V39.6659H138.905V40.6936ZM139.697 39.6659H140.948V43.2169L143.542 39.6659H144.723V45.1171H143.48V41.5737L140.885 45.1171H139.697V39.6659ZM151.022 45.1171L151.014 41.8541L149.414 44.5409H148.855L147.254 41.9166V45.1171H146.074V39.6659H147.115L149.15 43.0535L151.154 39.6659H152.194L152.202 45.1171H151.022ZM153.553 39.6659H157.942V40.6703H154.804V41.7918H156.311C156.968 41.7918 157.469 41.9292 157.814 42.2044C158.158 42.4796 158.33 42.8766 158.33 43.396C158.33 43.9412 158.138 44.3642 157.755 44.6655C157.372 44.9665 156.831 45.1171 156.132 45.1171H153.553V39.6659ZM156.062 44.1825C156.383 44.1825 156.629 44.1191 156.8 43.9919C156.971 43.8644 157.056 43.6788 157.056 43.4348C157.056 42.9573 156.725 42.7183 156.062 42.7183H154.804V44.1825H156.062ZM159.286 39.6659H160.536V43.2169L163.13 39.6659H164.311V45.1171H163.068V41.5737L160.474 45.1171H159.286V39.6659ZM170.47 39.6659V45.1171H169.227V40.6936H167.363L167.324 41.8309C167.298 42.6044 167.236 43.2311 167.138 43.7114C167.04 44.1915 166.875 44.5603 166.645 44.817C166.414 45.0743 166.092 45.2029 165.678 45.2029C165.507 45.2029 165.3 45.174 165.056 45.1171L165.134 44.0504C165.201 44.071 165.277 44.0812 165.359 44.0812C165.66 44.0812 165.869 43.9033 165.989 43.5478C166.108 43.1923 166.182 42.6355 166.214 41.8775L166.291 39.6659H170.47ZM177.398 44.089V46.2462H176.233V45.1171H172.396V46.2462H171.231L171.239 44.089H171.456C171.783 44.0786 172.013 43.8401 172.148 43.3725C172.282 42.9055 172.365 42.238 172.396 41.3712L172.458 39.6659H176.637V44.089H177.398ZM173.507 41.4879C173.481 42.1371 173.426 42.6809 173.344 43.1196C173.261 43.5584 173.134 43.8815 172.963 44.089H175.394V40.6936H173.53L173.507 41.4879ZM178.245 39.6659H179.495V43.2169L182.09 39.6659H183.27V45.1171H182.027V41.5737L179.433 45.1171H178.245V39.6659ZM189.608 39.6659V45.1171H188.35V42.882H185.879V45.1171H184.621V39.6659H185.879V41.8153H188.35V39.6659H189.608ZM194.796 40.6936H192.21L192.217 45.1171H190.967V39.6659H194.804L194.796 40.6936ZM198.198 43.949H195.674L195.192 45.1171H193.903L196.326 39.6659H197.569L200 45.1171H198.68L198.198 43.949ZM197.802 42.991L196.94 40.9041L196.078 42.991H197.802Z" fill="white"/>
</svg>
