<svg width="403" height="418" viewBox="0 0 403 418" fill="none" xmlns="http://www.w3.org/2000/svg">
<path fill-rule="evenodd" clip-rule="evenodd" d="M322.686 391.549C331.686 394.121 376.686 388.049 376.686 377.549C376.686 368.908 364.155 365.685 358.604 364.257C357.411 363.95 356.54 363.726 356.186 363.549C354.186 362.549 344.686 355.049 359.686 352.049C374.686 349.049 385.186 342.049 385.186 337.549C385.186 337.387 385.186 337.226 385.187 337.067C385.204 332.801 385.218 329.531 372.686 329.049C359.686 328.549 359.686 319.049 371.186 314.049C373.096 313.219 375.075 312.402 377.043 311.59C386.923 307.513 396.52 303.553 395.686 298.549C394.686 292.549 386.686 291.049 381.686 292.049C376.686 293.049 373.186 289.049 376.686 283.049C380.186 277.049 387.686 263.049 380.186 258.549C372.686 254.049 360.186 278.549 358.186 283.049C356.186 287.549 348.186 288.549 346.686 283.049C345.186 277.549 336.186 274.049 335.686 283.049C335.213 291.567 336.531 300.085 337.521 306.484C337.577 306.846 337.632 307.201 337.686 307.549C338.686 314.049 331.686 320.549 327.186 314.049C325.746 311.969 324.818 309.889 323.992 308.038C322.238 304.106 320.946 301.209 316.186 301.549C309.186 302.049 312.186 330.549 314.186 335.549C316.186 340.549 313.186 350.049 302.186 344.549C291.186 339.049 283.686 354.049 293.686 370.049C294.39 370.955 295.065 371.844 295.726 372.716C301.633 380.508 306.498 386.924 322.686 391.549ZM371.362 281.345C371.553 281.145 371.545 280.828 371.345 280.638C371.145 280.447 370.828 280.455 370.638 280.655C362.162 289.555 354.949 299.809 348.869 310.488C347.158 307.316 346.294 303.509 345.924 299.837C345.525 295.876 345.707 292.113 345.997 289.556C346.028 289.282 345.831 289.034 345.556 289.003C345.282 288.972 345.034 289.169 345.003 289.444C344.707 292.054 344.522 295.891 344.929 299.938C345.326 303.882 346.29 308.064 348.293 311.507C341.198 324.148 335.67 337.35 331.497 349.591C325.894 343.969 323.609 335.794 322.748 328.752C321.987 322.523 322.347 317.296 322.467 315.565L322.467 315.564C322.487 315.274 322.5 315.082 322.5 315C322.5 314.724 322.276 314.5 322 314.5C321.724 314.5 321.5 314.724 321.5 315C321.5 315.055 321.49 315.203 321.473 315.435C321.361 317.012 320.973 322.464 321.756 328.873C322.643 336.133 325.043 344.775 331.141 350.643C327.656 361.011 325.146 370.656 323.479 378.643C320.687 376.612 316.635 373.421 312.843 369.932C308.741 366.158 305.007 362.09 303.452 358.787C303.335 358.537 303.037 358.43 302.787 358.548C302.537 358.665 302.43 358.963 302.548 359.213C304.193 362.71 308.063 366.892 312.166 370.668C316.16 374.343 320.435 377.685 323.258 379.718C322.477 383.569 321.897 387.011 321.504 389.933C321.468 390.207 321.66 390.459 321.933 390.496C322.207 390.532 322.459 390.34 322.496 390.067C322.885 387.167 323.461 383.743 324.24 379.906C331.465 378.06 348.104 374.824 359.449 375.997C359.723 376.026 359.969 375.826 359.997 375.551C360.026 375.277 359.826 375.031 359.551 375.003C348.265 373.835 331.947 376.949 324.464 378.818C326.128 370.851 328.636 361.222 332.12 350.87C344.04 345.713 359.691 339.5 372 339.5C372.276 339.5 372.5 339.276 372.5 339C372.5 338.724 372.276 338.5 372 338.5C359.741 338.5 344.34 344.521 332.553 349.594C336.711 337.448 342.204 324.376 349.236 311.87C353.333 309.634 360.024 306.437 366.928 304.035C370.416 302.821 373.948 301.814 377.222 301.235C380.502 300.654 383.489 300.508 385.902 300.99C386.173 301.044 386.436 300.869 386.49 300.598C386.544 300.327 386.369 300.064 386.098 300.01C383.511 299.492 380.384 299.659 377.047 300.25C373.704 300.842 370.119 301.866 366.6 303.09C360.375 305.256 354.33 308.058 350.163 310.241C356.122 299.884 363.15 289.968 371.362 281.345Z" fill="#CF474B"/>
<path d="M250.1 382.124C250.1 389.952 283.406 394.478 290.068 392.561C303.39 388.727 306.351 383.242 311.532 376.533C318.933 364.605 313.382 353.422 305.241 357.523C297.099 361.623 294.879 354.541 296.359 350.813C297.839 347.086 300.06 325.839 294.879 325.466C289.698 325.093 290.068 329.939 286.737 334.785C283.406 339.631 278.226 334.785 278.966 329.939C279.706 325.093 280.816 318.384 280.446 311.674C280.076 304.965 273.415 307.574 272.304 311.674C271.194 315.775 265.273 315.029 263.793 311.674C262.312 308.319 253.061 290.055 247.51 293.409C241.959 296.764 247.51 307.201 250.1 311.674C252.691 316.147 250.1 319.129 246.399 318.384C242.699 317.638 236.778 318.757 236.037 323.23C235.297 327.703 245.659 331.057 254.171 334.785C262.683 338.512 262.683 345.595 253.061 345.967C243.439 346.34 243.809 348.949 243.809 352.304C243.809 355.659 251.58 360.877 262.683 363.114C273.785 365.35 266.753 370.942 265.273 371.687C263.793 372.433 250.1 374.296 250.1 382.124Z" fill="#DF5A5E"/>
<path d="M83.0069 396.204C95.8069 414.604 194.674 412.871 242.507 409.704C308.007 425.204 396.007 413.204 399.007 401.704C402.007 390.204 322.507 381.204 279.007 388.204C246.507 373.704 67.0069 373.204 83.0069 396.204Z" fill="#CA4246"/>
<path d="M37.5036 357.793L0 326.324L148.29 150.876L209.503 200.45L328.479 48.7115L314.685 37.5036L402.193 0L382.364 90.5258L368.138 79.7489L215.107 270.284L150.876 220.28L37.5036 357.793Z" fill="url(#paint0_linear)"/>
<path d="M156.846 341.231C157.277 339.076 164.175 319.246 164.606 317.953C172.365 313.786 187.625 305.279 188.315 306.314C189.177 307.607 189.177 311.487 189.177 313.642C189.177 315.798 174.928 341.231 173.227 344.249C171.479 346.748 171.91 349.335 172.365 352.439C173.099 355.37 176.101 382.758 177.538 396.84C173.227 395.978 164.347 393.736 163.312 391.667C162.019 389.08 155.098 345.455 156.846 341.231Z" fill="#21399D"/>
<path d="M158.978 259.671L157.685 256.223C158.03 251.05 162.714 250.619 165.013 251.05C165.588 252.487 167.341 255.878 166.306 256.223C165.272 256.568 160.702 258.522 158.978 259.671Z" fill="#CA9797"/>
<path d="M155.961 262.689C155.961 263.378 155.242 271.741 155.098 276.052C155.098 282.805 156.392 297.347 156.392 299.761C156.392 302.779 159.84 316.142 164.151 318.728C168.462 321.315 181.394 316.573 186.998 311.4C192.602 306.227 190.447 295.881 188.291 293.295C186.136 290.708 182.863 280.978 182.432 277.529C182.001 274.081 175.614 264.229 172.772 262.257C169.579 259.487 170.186 260.964 168.031 257.085C168.031 255.791 167.6 253.944 165.875 254.929C159.84 258.378 155.961 261.826 155.961 262.689Z" fill="#3C1729"/>
<path d="M161.565 393.304C157.771 392.615 156.104 398.19 155.961 400.633H178.376C178.808 399.339 178.376 397.615 177.514 397.615C174.497 397.615 166.306 394.167 161.565 393.304Z" fill="#3C1729"/>
<path d="M204.672 398.046H182.687C181.997 393.908 186.711 391.436 189.153 390.718C193.464 391.867 202.43 392.615 203.81 393.304C205.189 393.994 204.959 397.328 204.672 398.046Z" fill="#3C1729"/>
<path d="M165.013 251.912C163.72 252.343 160.471 252.343 158.603 252.774C157.022 249.325 154.754 240.704 153.374 238.979C151.65 236.824 149.981 227.772 152.136 226.478C154.292 225.185 158.602 226.478 163.344 230.789C168.086 235.1 173.325 242.5 171.825 245.5C170.825 249 166.738 251.05 165.013 251.912Z" fill="#280C1A"/>
<path d="M140.929 255.36C140.239 254.326 139.149 255.504 138.718 256.223C137.999 258.091 136.704 262.602 137.049 265.706C137.48 269.586 155.154 278.638 154.723 278.638C154.378 278.638 151.993 284.099 150.843 286.829C149.694 289.99 146.964 296.399 145.239 296.744C143.084 297.175 141.791 298.899 141.36 301.054C140.929 303.21 145.239 305.796 148.257 307.952C151.274 310.107 154.723 302.348 155.154 302.348C155.585 302.348 165.069 289.846 170.242 284.242C175.415 278.638 175.415 274.328 174.983 270.879C174.552 267.43 170.242 266.568 167.224 266.568C164.207 266.568 156.447 275.19 156.447 273.466C156.447 271.741 157.74 265.275 156.878 262.689C156.016 260.102 149.55 260.964 147.395 260.533C145.239 260.102 141.791 256.654 140.929 255.36Z" fill="#280C1A"/>
<path d="M189.057 316.146C188.367 317.87 183.884 328.072 181.728 332.958C179.086 337.269 179.517 336.837 176.931 341.579C178.655 344.338 189.057 374.341 189.057 391.584C195.523 393.308 197.247 394.17 203.713 394.17C205.006 376.496 194.661 340.717 193.367 338.562C192.074 336.406 189.919 313.99 189.057 316.146Z" fill="#161D44"/>
<path d="M149.925 256.654C146.477 250.791 150.644 242.572 153.374 238.98C158.547 236.824 160.271 240.272 161.133 241.997L161.133 241.997C161.995 243.721 160.702 246.739 159.409 248.463C158.116 250.188 159.409 251.912 159.409 251.481L159.409 251.48C159.841 251.049 160.703 250.188 161.996 250.188C163.289 250.188 164.151 252.343 163.72 253.636C162.858 255.36 161.133 255.36 159.84 255.36C157.972 258.234 152.081 258.809 149.925 256.654Z" fill="#EDB6B6"/>
<path d="M138.718 256.223C137.855 258.378 137.137 261.97 136.993 264.844C135.7 264.844 132.251 259.671 131.389 258.378C130.527 257.085 124.923 249.325 119.319 244.584C113.716 239.842 115.008 236.393 115.439 234.238C115.871 232.082 117.595 232.082 118.026 232.944C118.673 234.238 121.044 238.548 122.337 238.98C123.63 239.411 123.63 238.98 123.199 236.824C122.854 235.1 123.343 234.956 123.63 235.1C124.205 236.249 125.268 238.893 124.923 240.273C124.492 241.997 125.785 243.721 126.647 244.584C127.51 245.446 135.269 250.619 138.718 256.223Z" fill="#EDB6B6"/>
<path d="M117.595 322.177C118.629 322.522 119.606 321.746 119.75 321.315C118.457 320.453 118.457 316.142 122.337 316.573C126.647 317.866 127.51 317.004 129.234 315.711C131.389 315.172 139.58 313.125 148.201 307.952C146.477 306.658 144.322 305.365 142.166 303.21C136.562 307.952 127.51 313.556 123.63 313.125C119.75 312.693 117.595 315.28 116.733 317.004C115.87 318.297 116.302 321.746 117.595 322.177Z" fill="#EDB6B6"/>
<path d="M207.347 169.034C205.623 165.93 207.347 138.859 209.503 128.082C212.52 131.962 215.365 144.98 216.399 147.049C217.434 149.119 215.394 164.58 214.244 172.052C212.664 172.339 209.072 172.138 207.347 169.034Z" fill="white"/>
<path d="M225.883 106.528C224.151 109.255 221.725 109.546 220.288 109.546C216.696 110.264 209.166 112.046 207.787 113.425C206.062 115.15 204.769 119.891 204.769 116.874C204.769 113.856 203.036 113.425 202.605 107.39C203.036 100.062 205.192 97.9066 210.365 98.3375C217.693 99.1998 231.91 97.0445 225.883 106.528Z" fill="#280C1A"/>
<path d="M216.4 160.844V152.653C219.561 149.636 226.401 143.514 230.194 144.894C234.936 146.618 250.455 176.793 250.024 177.224C249.593 177.656 244.42 186.277 244.42 188.001C244.42 189.381 243.845 214.153 243.557 226.367C240.109 227.66 234.936 229.816 232.781 229.816C231.918 224.643 230.625 198.778 231.918 192.312C231.056 193.174 214.244 194.899 200.019 192.743C200.445 185.92 208.887 173.613 208.651 173.349C208.633 173.346 208.629 173.345 208.64 173.345C208.645 173.345 208.649 173.346 208.651 173.349C209.326 173.453 229.695 175.364 227.177 170.327C225.108 166.189 222.579 166.304 221.573 166.879C221.144 166.879 220.114 166.534 219.417 165.154C218.547 163.43 216.4 162.137 216.4 160.844Z" fill="#280C1A"/>
<path d="M203.468 120.754L206.485 114.719C206.485 116.012 212.951 119.029 211.227 122.478C209.503 125.927 209.934 130.668 209.072 130.668C208.382 130.668 205.048 124.059 203.468 120.754Z" fill="#CA9797"/>
<path d="M219.417 164.723C218.038 164.379 215.969 168.603 215.107 170.758C215.538 171.189 224.159 173.345 226.746 173.776C229.332 174.207 234.936 179.38 234.936 176.362C234.936 173.345 228.47 170.758 226.123 170.758C223.776 170.758 221.142 165.154 219.417 164.723Z" fill="#CA9797"/>
<path d="M214.123 131.961C214.123 131.272 211.658 126.932 210.365 125.064C209.934 126.357 209.503 129.375 209.072 130.668C209.761 131.013 211.823 134.979 212.398 137.134C213.117 135.697 214.123 132.651 214.123 131.961Z" fill="#132579"/>
<path d="M208.519 168.603C209.553 167.913 209.812 143.888 209.812 131.961L206.916 135.841C205.192 132.393 202.053 130.237 199.467 125.495C193.432 125.495 189.121 133.255 188.259 135.841C186.965 139.721 186.103 146.187 186.103 149.204C186.103 152.222 184.81 164.723 183.948 168.172C183.087 175.069 184.235 183.691 184.81 189.726C190.415 190.588 193.864 192.743 198.604 194.036C199.468 187.57 207.226 169.465 208.519 168.603Z" fill="#132579"/>
<path d="M210.476 131.204C209.786 131.204 206.165 124.306 204.441 120.858C202.285 119.996 200.561 124.738 199.699 125.6C198.837 126.462 205.734 137.239 207.027 136.808C208.32 136.377 211.338 131.204 210.476 131.204Z" fill="#21399D"/>
<path d="M213.817 133.255C213.386 134.548 212.955 135.841 212.524 136.703C215.107 145.756 213.813 162.999 212.089 169.465C213.813 170.327 216.079 171.725 216.079 170.863C216.079 170.173 218.953 166.839 220.39 165.259C219.421 163.861 219.421 163.861 218.128 161.275C218.99 153.946 213.953 132.846 213.817 133.255Z" fill="#21399D"/>
<path d="M203.147 165.259C201.423 165.604 194.56 168.316 191.829 169.896C187.088 171.189 188.812 164.292 190.105 162.568C190.105 158.688 190.215 154.051 190.215 143.274C190.215 132.497 194.095 131.204 196.682 131.204C199.268 131.204 200.968 133.615 202.286 137.239C204.01 141.981 204.009 151.464 203.147 152.757C202.286 155.344 200.992 158.793 202.717 160.086C204.441 161.379 205.303 164.828 203.147 165.259Z" fill="#21399D"/>
<path d="M213.894 175.697L217.343 172.779C217.565 172.591 217.859 172.509 218.146 172.555L238.715 175.846C239.047 175.899 239.383 175.782 239.611 175.534L253.036 160.888C253.274 160.629 253.68 160.62 253.929 160.869C254.158 161.098 254.171 161.464 253.96 161.709L238.724 179.417C238.511 179.664 238.192 179.792 237.868 179.76L214.442 177.456C213.562 177.369 213.219 176.268 213.894 175.697Z" fill="#B6CDFF"/>
<path d="M205.192 109.546C204.502 110.925 205.479 112.563 206.054 113.425C206.054 121.185 210.365 122.478 212.52 122.909C214.567 123.318 220.71 117.736 220.279 108.683C219.417 102.648 209.502 105.666 209.072 110.839C209.072 107.39 206.054 107.821 205.192 109.546Z" fill="#EDB6B6"/>
<path d="M203.036 165.154C200.45 165.154 193.984 167.884 191.828 169.896C194.846 174.638 209.934 175.069 212.52 175.069C215.538 175.069 219.417 174.638 220.279 175.069C221.141 175.5 228.901 178.949 228.901 176.362C228.47 172.914 220.279 170.758 217.693 171.189C215.106 171.621 206.916 166.017 203.036 165.154Z" fill="#EDB6B6"/>
<path d="M242.264 226.798L234.936 229.385V230.247L241.833 231.54L242.264 226.798Z" fill="#EDB6B6"/>
<path d="M250.021 177.225C250.021 177.225 244.417 185.846 244.417 187.57C248.441 185.702 256.03 182.311 258.099 180.242C260.169 178.173 258.962 177.656 258.099 177.656L250.021 177.225Z" fill="#384FB7"/>
<path d="M249.047 238.437C246.027 231.971 240.106 229.816 235.796 229.816C232.776 229.816 231.919 234.127 232.781 235.42C235.367 238.006 243.555 239.299 244.734 240.162C246.89 241.024 250.338 242.317 249.047 238.437Z" fill="#384FB7"/>
<path d="M271.066 394.729C269.342 377.486 272.359 361.393 274.084 355.501C276.383 355.358 281.499 355.156 283.568 355.501C286.154 355.932 284.43 364.554 282.275 367.571C280.119 370.589 277.964 389.987 277.533 392.143C277.188 393.867 279.257 394.729 281.844 396.022C279.688 398.178 274.084 396.884 271.066 394.729Z" fill="#CA9797"/>
<path d="M283.999 245.577C284.143 243.565 284.344 237.7 283.999 237.7C285.378 237.7 287.735 240.979 288.741 241.697C288.741 243.709 288.655 247.56 288.31 246.87C287.965 246.181 285.292 245.721 283.999 245.577Z" fill="#CA9797"/>
<path d="M314.717 215.367L310.717 212.867C310.717 206.401 314.605 199.883 316.761 204.625C318.485 208.418 316.154 213.642 314.717 215.367Z" fill="#CA9797"/>
<path d="M291.452 240.835C295.591 238.076 292.314 228.765 290.159 224.454C286.711 220.574 282.4 226.609 281.538 228.334C280.675 230.058 283.137 235.231 283.137 235.662C283.137 236.093 286.279 244.284 291.452 240.835Z" fill="#EDB6B6"/>
<path d="M326.244 213.246C323.485 213.246 321.359 218.419 320.64 221.006C321.502 222.155 320.64 221.006 324.52 224.023C327.538 221.006 328.4 218.85 328.4 216.695C328.4 215.356 329.003 213.246 326.244 213.246Z" fill="#EDB6B6"/>
<path d="M286.279 396.022C284.555 393.263 283.261 369.87 282.83 358.518C281.968 354.639 295.207 352.052 295.207 354.639C295.207 357.225 292.745 374.899 291.883 383.09C291.021 391.28 291.883 393.867 292.745 395.16C293.607 396.453 299.211 397.315 297.487 397.746C295.763 398.177 288.434 399.471 286.279 396.022Z" fill="#EDB6B6"/>
<path d="M276.146 286.96C278.301 285.236 276.146 271.585 275.284 264.113C277.152 257.791 281.405 245.146 283.474 245.146C285.543 245.146 288.717 246.367 289.217 247.867C289.717 248.367 291.233 252.043 292.096 252.043L307.183 241.697C314.174 233.938 318.391 224.885 320.115 218.419L325.288 224.885C324.857 225.747 324.426 226.61 322.884 227.472C322.823 227.87 321.9 230.887 321.84 231.351C319.684 239.111 313.194 253.336 301.148 261.958C301.579 265.406 303.735 287.822 299.424 292.995C295.113 298.168 281.75 294.288 277.87 293.857C273.99 293.426 273.559 289.029 276.146 286.96Z" fill="#B6CDFF"/>
<path d="M296.165 295.007C296.596 291.989 294.085 277.482 292.217 269.867C296.096 266.418 296.475 266.177 301.217 261.867C302.51 276.092 303.925 294.145 296.165 295.007Z" fill="#9BB6F2"/>
<path d="M289.217 247.867C289.649 249.16 290.423 252.004 291.717 252.867C295.74 249.705 304.803 242.901 307.217 241.867C310.717 237.367 309.217 239.367 310.717 237.367C312.717 235.367 312.881 224.454 312.881 218.544C314.605 218.419 315.468 216.264 315.468 215.833C315.468 215.402 311.588 212.638 310.013 212.384C310.013 214.108 302.966 236.524 300.38 237.818C297.793 239.111 290.51 246.573 289.217 247.867Z" fill="#9BB6F2"/>
<path d="M282.706 218.85C289.258 218.85 290.466 223.592 290.897 226.179C290.034 226.179 289.172 224.885 288.741 224.454C288.741 226.61 286.154 233.076 284.43 233.938C283.051 234.628 285.149 239.398 285.723 242.128C288.022 248.882 286.585 261.096 275.378 264.544C264.17 265.79 261.152 258.94 259.429 254.199C257.862 249.888 260.721 241.697 265.895 242.559C273.223 244.715 273.223 241.266 273.223 239.542C273.223 237.818 272.739 234.369 272.361 231.352C271.929 227.903 274.515 218.85 282.706 218.85Z" fill="#280C1A"/>
<path d="M296.717 294.867C293.958 295.901 283.246 294.729 278.217 293.867C277.487 294.475 276.461 295.461 275.843 296.208C265.505 308.693 270.202 339.545 271.83 355.814C274.848 359.694 292.2 359.315 295.217 355.867C297.717 351.867 298.872 303.057 296.717 294.867Z" fill="#280C1A"/>
<path d="M270.636 399.902C270.205 397.747 270.348 395.879 271.067 394.729C275.205 397.488 280.118 396.741 281.842 396.022L280.982 395.591C282.709 395.904 284.003 396.336 285.291 397.198C285.722 396.336 285.727 396.022 286.093 395.591C289.111 399.04 296.5 397.747 297.794 397.316C299.518 397.747 300.383 398.06 301.677 399.353C299.521 402.058 296.935 402.435 290.895 402.058C285.474 401.719 285.291 400.764 285.291 399.902C282.706 401.626 271.67 401.626 270.636 399.902Z" fill="#280C1A"/>
<path fill-rule="evenodd" clip-rule="evenodd" d="M140.695 410.956C142.547 404.672 141.834 397.601 134.765 397.601C133.01 397.601 131.684 401.169 131.22 402.925C130.698 399.647 123.676 388.424 118.869 390.187C114.693 391.717 117.92 399.753 120.055 403.58C117.208 399.673 110.944 391.382 105.82 394.252C101.04 400.553 116.488 406.711 116.401 406.938C116.376 407.004 115.039 406.57 111.514 405.493C107.058 404.132 104.211 404.53 102.627 405.607C111.439 408.583 125.323 410.203 140.695 410.956Z" fill="#DF5A5E"/>
<defs>
<linearGradient id="paint0_linear" x1="-48.5" y1="358" x2="466" y2="22" gradientUnits="userSpaceOnUse">
<stop offset="0.0138669" stop-color="#A03448" stop-opacity="0.38"/>
<stop offset="1" stop-color="#4C246C" stop-opacity="0.29"/>
</linearGradient>
</defs>
</svg>
