<svg width="90" height="91" viewBox="0 0 90 91" fill="none" xmlns="http://www.w3.org/2000/svg">
<path d="M37.8395 40.1905C33.3865 40.6993 29.2808 42.8409 26.3172 46.2008C23.3536 49.5607 21.7429 53.8998 21.797 58.3782V71.3764C21.797 72.4944 22.2414 73.5667 23.0326 74.3573C23.8238 75.1479 24.8968 75.592 26.0157 75.592H57.3048V57.8512C57.3019 55.378 56.7822 52.9327 55.7789 50.6718C54.7756 48.4109 53.3108 46.3843 51.4784 44.7218C49.646 43.0593 47.4863 41.7975 45.1377 41.0172C42.7891 40.2369 40.3033 39.9554 37.8395 40.1905Z" fill="#CB5D60"/>
<path d="M65.5664 89.4334C65.5664 89.8061 65.7146 90.1635 65.9783 90.4271C66.242 90.6906 66.5997 90.8386 66.9727 90.8386H77.8711C78.2441 90.8386 78.6017 90.6906 78.8655 90.4271C79.1292 90.1635 79.2773 89.8061 79.2773 89.4334V78.4025H65.5664V89.4334Z" fill="#CB5D60"/>
<path d="M76.6407 40.6824V55.2137C77.322 56.1153 77.6921 57.2134 77.6954 58.3431C77.6991 59.3257 77.4278 60.2897 76.9122 61.1264C76.3966 61.963 75.6572 62.6389 74.7774 63.0778C73.8976 63.5166 72.9126 63.701 71.9335 63.61C70.9545 63.519 70.0204 63.1562 69.2367 62.5628C68.4531 61.9693 67.8511 61.1687 67.4987 60.2513C67.1464 59.334 67.0577 58.3365 67.2427 57.3715C67.4278 56.4065 67.8791 55.5124 68.5458 54.7902C69.2125 54.068 70.068 53.5464 71.0157 53.2844V56.3281C70.5857 56.6272 70.2625 57.0557 70.0932 57.5511C69.9238 58.0465 69.917 58.583 70.0739 59.0825C70.2308 59.582 70.5432 60.0185 70.9655 60.3283C71.3878 60.6382 71.898 60.8053 72.4219 60.8053C72.9459 60.8053 73.4561 60.6382 73.8784 60.3283C74.3007 60.0185 74.6131 59.582 74.7699 59.0825C74.9268 58.583 74.9201 58.0465 74.7507 57.5511C74.5813 57.0557 74.2581 56.6272 73.8282 56.3281V32.3467C73.8282 31.9741 73.9764 31.6166 74.2401 31.3531C74.5038 31.0896 74.8615 30.9415 75.2344 30.9415H83.3204C83.6933 30.9415 84.051 30.7935 84.3148 30.5299C84.5785 30.2664 84.7266 29.909 84.7266 29.5363C84.7266 29.1636 84.5785 28.8062 84.3148 28.5427C84.051 28.2792 83.6933 28.1311 83.3204 28.1311H75.2344C74.1156 28.1311 73.0425 28.5752 72.2513 29.3658C71.4602 30.1564 71.0157 31.2287 71.0157 32.3467V40.1105H49.8826C52.9922 41.9149 55.5739 44.5027 57.3698 47.6158C59.1657 50.7288 60.113 54.2581 60.1173 57.8513V75.5921H85.7813C86.9002 75.5921 87.9733 75.1479 88.7644 74.3574C89.5556 73.5668 90.0001 72.4945 90.0001 71.3765V57.8513C89.993 53.9146 88.6769 50.0918 86.2586 46.984C83.8404 43.8761 80.4571 41.6595 76.6407 40.6824Z" fill="#CB5D60"/>
<path d="M67.5773 22.921L57.3047 16.0804V13.1997C57.3047 12.827 57.1565 12.4696 56.8928 12.2061C56.6291 11.9426 56.2714 11.7945 55.8984 11.7945H50.8753L34.882 1.14022C34.6509 0.98615 34.3794 0.903931 34.1016 0.903931C33.8238 0.903931 33.5522 0.98615 33.3211 1.14022L17.3278 11.7945H12.3047C11.9317 11.7945 11.574 11.9426 11.3103 12.2061C11.0466 12.4696 10.8984 12.827 10.8984 13.1997V16.0804L0.632812 22.9154C0.448777 23.054 0.296932 23.2307 0.187701 23.4335C0.07847 23.6363 0.014438 23.8603 0 24.0901V59.396C0 60.5141 0.444474 61.5863 1.23564 62.3769C2.02681 63.1675 3.09987 63.6117 4.21875 63.6117H63.9844C65.1033 63.6117 66.1763 63.1675 66.9675 62.3769C67.7587 61.5863 68.2031 60.5141 68.2031 59.396V24.0901C68.1891 23.8617 68.1259 23.6391 68.0179 23.4373C67.91 23.2355 67.7597 23.0594 67.5773 22.921ZM57.3047 19.4529L64.2656 24.0901L57.3047 28.7273V19.4529ZM34.1016 3.9956L45.8044 11.7945H22.3988L34.1016 3.9956ZM13.7109 14.6049H54.4922V30.5976L34.882 43.6661C34.6509 43.8202 34.3794 43.9024 34.1016 43.9024C33.8238 43.9024 33.5522 43.8202 33.3211 43.6661L13.7109 30.5976V14.6049ZM10.8984 19.4557V28.7301L3.9375 24.0901L10.8984 19.4557ZM2.8125 59.3019V26.715L25.1719 41.6103L2.8125 59.3019ZM5.44781 60.8012L27.6342 43.2502L31.7616 46.0002C32.454 46.4632 33.2684 46.7104 34.1016 46.7104C34.9347 46.7104 35.7491 46.4632 36.4416 46.0002L40.5689 43.2502L62.7553 60.8012H5.44781ZM65.3906 59.3019L43.0312 41.6117L65.3906 26.7165V59.3019Z" fill="white"/>
<path d="M26.3672 20.2268H19.3359C18.963 20.2268 18.6053 20.3748 18.3416 20.6384C18.0778 20.9019 17.9297 21.2593 17.9297 21.632V28.658C17.9297 29.0307 18.0778 29.3881 18.3416 29.6517C18.6053 29.9152 18.963 30.0633 19.3359 30.0633H26.3672C26.7401 30.0633 27.0978 29.9152 27.3616 29.6517C27.6253 29.3881 27.7734 29.0307 27.7734 28.658V21.632C27.7734 21.2593 27.6253 20.9019 27.3616 20.6384C27.0978 20.3748 26.7401 20.2268 26.3672 20.2268ZM24.9609 27.2528H20.7422V23.0372H24.9609V27.2528Z" fill="white"/>
<path d="M33.3984 23.0372H48.8672C49.2401 23.0372 49.5978 22.8891 49.8616 22.6256C50.1253 22.3621 50.2734 22.0047 50.2734 21.632C50.2734 21.2593 50.1253 20.9019 49.8616 20.6384C49.5978 20.3748 49.2401 20.2268 48.8672 20.2268H33.3984C33.0255 20.2268 32.6678 20.3748 32.4041 20.6384C32.1403 20.9019 31.9922 21.2593 31.9922 21.632C31.9922 22.0047 32.1403 22.3621 32.4041 22.6256C32.6678 22.8891 33.0255 23.0372 33.3984 23.0372Z" fill="white"/>
<path d="M45 30.0632C45.373 30.0632 45.7306 29.9152 45.9944 29.6517C46.2581 29.3881 46.4062 29.0307 46.4062 28.658C46.4062 28.2853 46.2581 27.9279 45.9944 27.6644C45.7306 27.4009 45.373 27.2528 45 27.2528H33.3984C33.0255 27.2528 32.6678 27.4009 32.4041 27.6644C32.1403 27.9279 31.9922 28.2853 31.9922 28.658C31.9922 29.0307 32.1403 29.3881 32.4041 29.6517C32.6678 29.9152 33.0255 30.0632 33.3984 30.0632H45Z" fill="white"/>
</svg>
