<svg width="90" height="90" viewBox="0 0 90 90" fill="none" xmlns="http://www.w3.org/2000/svg">
<path d="M85.7814 21.7808H44.297C43.1781 21.7808 42.1051 22.2249 41.3139 23.0155C40.5227 23.8061 40.0783 24.8783 40.0783 25.9964V57.3509C37.9004 56.807 35.627 56.7666 33.4311 57.2326C31.2352 57.6986 29.1746 58.6588 27.4059 60.0401C25.6371 61.4215 24.2069 63.1877 23.2239 65.2044C22.2408 67.2211 21.7309 69.4352 21.7329 71.6784C21.7349 73.9217 22.2487 76.1349 23.2353 78.1498C24.2219 80.1648 25.6553 81.9285 27.4264 83.3067C29.1976 84.685 31.26 85.6415 33.4567 86.1036C35.6534 86.5658 37.9266 86.5213 40.1036 85.9736C40.1686 87.0424 40.6381 88.0464 41.417 88.7819C42.1958 89.5173 43.2255 89.929 44.297 89.9335H85.7814C86.9003 89.9335 87.9733 89.4893 88.7645 88.6988C89.5557 87.9082 90.0001 86.8359 90.0001 85.7179V25.9964C90.0001 24.8783 89.5557 23.8061 88.7645 23.0155C87.9733 22.2249 86.9003 21.7808 85.7814 21.7808ZM49.922 31.1156H65.0392C65.4122 31.1156 65.7699 31.2636 66.0336 31.5272C66.2973 31.7907 66.4455 32.1481 66.4455 32.5208C66.4455 32.8935 66.2973 33.2509 66.0336 33.5144C65.7699 33.778 65.4122 33.926 65.0392 33.926H49.922C49.5491 33.926 49.1914 33.778 48.9276 33.5144C48.6639 33.2509 48.5158 32.8935 48.5158 32.5208C48.5158 32.1481 48.6639 31.7907 48.9276 31.5272C49.1914 31.2636 49.5491 31.1156 49.922 31.1156ZM36.5626 83.61C34.1985 83.61 31.8875 82.9095 29.9218 81.5971C27.9562 80.2846 26.4241 78.4192 25.5194 76.2366C24.6147 74.0541 24.378 71.6525 24.8392 69.3355C25.3004 67.0186 26.4388 64.8903 28.1105 63.2199C29.7822 61.5494 31.912 60.4118 34.2307 59.951C36.5494 59.4901 38.9528 59.7266 41.1369 60.6307C43.321 61.5347 45.1879 63.0656 46.5013 65.0299C47.8147 66.9941 48.5158 69.3034 48.5158 71.6657C48.512 74.8324 47.2515 77.8683 45.0107 80.1075C42.7698 82.3467 39.7317 83.6063 36.5626 83.61ZM80.1564 80.5987H58.33C57.957 80.5987 57.5993 80.4506 57.3356 80.1871C57.0719 79.9236 56.9237 79.5661 56.9237 79.1935C56.9237 78.8208 57.0719 78.4634 57.3356 78.1998C57.5993 77.9363 57.957 77.7882 58.33 77.7882H80.1564C80.5294 77.7882 80.887 77.9363 81.1508 78.1998C81.4145 78.4634 81.5626 78.8208 81.5626 79.1935C81.5626 79.5661 81.4145 79.9236 81.1508 80.1871C80.887 80.4506 80.5294 80.5987 80.1564 80.5987ZM80.1564 71.2639H58.33C57.957 71.2639 57.5993 71.1158 57.3356 70.8523C57.0719 70.5888 56.9237 70.2313 56.9237 69.8586C56.9237 69.486 57.0719 69.1285 57.3356 68.865C57.5993 68.6015 57.957 68.4534 58.33 68.4534H80.1564C80.5294 68.4534 80.887 68.6015 81.1508 68.865C81.4145 69.1285 81.5626 69.486 81.5626 69.8586C81.5626 70.2313 81.4145 70.5888 81.1508 70.8523C80.887 71.1158 80.5294 71.2639 80.1564 71.2639ZM80.1564 61.929H58.33C57.957 61.929 57.5993 61.781 57.3356 61.5175C57.0719 61.2539 56.9237 60.8965 56.9237 60.5238C56.9237 60.1511 57.0719 59.7937 57.3356 59.5302C57.5993 59.2667 57.957 59.1186 58.33 59.1186H80.1564C80.5294 59.1186 80.887 59.2667 81.1508 59.5302C81.4145 59.7937 81.5626 60.1511 81.5626 60.5238C81.5626 60.8965 81.4145 61.2539 81.1508 61.5175C80.887 61.781 80.5294 61.929 80.1564 61.929ZM80.1564 52.5956H49.922C49.5491 52.5956 49.1914 52.4476 48.9276 52.1841C48.6639 51.9205 48.5158 51.5631 48.5158 51.1904C48.5158 50.8177 48.6639 50.4603 48.9276 50.1968C49.1914 49.9333 49.5491 49.7852 49.922 49.7852H80.1564C80.5294 49.7852 80.887 49.9333 81.1508 50.1968C81.4145 50.4603 81.5626 50.8177 81.5626 51.1904C81.5626 51.5631 81.4145 51.9205 81.1508 52.1841C80.887 52.4476 80.5294 52.5956 80.1564 52.5956ZM80.1564 43.2608H49.922C49.5491 43.2608 49.1914 43.1128 48.9276 42.8492C48.6639 42.5857 48.5158 42.2283 48.5158 41.8556C48.5158 41.4829 48.6639 41.1255 48.9276 40.862C49.1914 40.5984 49.5491 40.4504 49.922 40.4504H80.1564C80.5294 40.4504 80.887 40.5984 81.1508 40.862C81.4145 41.1255 81.5626 41.4829 81.5626 41.8556C81.5626 42.2283 81.4145 42.5857 81.1508 42.8492C80.887 43.1128 80.5294 43.2608 80.1564 43.2608Z" fill="#CB5D60"/>
<path d="M40.3594 66.607L35.003 73.7427L32.6349 71.3749C32.3697 71.1189 32.0145 70.9773 31.6457 70.9805C31.277 70.9837 30.9243 71.1315 30.6636 71.392C30.4029 71.6525 30.255 72.005 30.2518 72.3734C30.2486 72.7419 30.3903 73.0968 30.6465 73.3618L34.1621 76.8749C34.3045 77.0172 34.4759 77.1273 34.6647 77.1977C34.8534 77.2681 35.0551 77.2972 35.256 77.2829C35.457 77.2686 35.6525 77.2114 35.8294 77.1151C36.0063 77.0187 36.1604 76.8855 36.2813 76.7245L42.6094 68.2932C42.8332 67.9951 42.9293 67.6203 42.8766 67.2514C42.8238 66.8825 42.6266 66.5496 42.3282 66.326C42.0298 66.1023 41.6548 66.0063 41.2856 66.059C40.9163 66.1117 40.5832 66.3088 40.3594 66.607Z" fill="#CB5D60"/>
<path d="M55.5469 0H12.6562C11.5374 0 10.4643 0.444146 9.67314 1.23473C8.88197 2.02531 8.4375 3.09758 8.4375 4.21563V56.911H1.40625C1.03329 56.911 0.675604 57.0591 0.411881 57.3226C0.148158 57.5861 0 57.9436 0 58.3162C0.00297754 60.9241 1.04104 63.4244 2.88646 65.2684C4.73187 67.1125 7.23394 68.1497 9.84375 68.1527H49.9219H50.2242C52.8215 68.0085 55.263 66.8687 57.0404 64.9707C58.8177 63.0727 59.7939 60.5628 59.7656 57.9635V4.21563C59.7656 3.09758 59.3211 2.02531 58.53 1.23473C57.7388 0.444146 56.6658 0 55.5469 0V0ZM9.84375 65.3423C8.22339 65.3405 6.65321 64.7804 5.39798 63.7565C4.14275 62.7326 3.27927 61.3075 2.95312 59.7215H40.1766C40.4791 61.8595 41.4837 63.8366 43.0327 65.3423H9.84375ZM56.9531 57.9635C56.9854 59.8333 56.2952 61.6436 55.0259 63.0179C53.7567 64.3922 52.0062 65.2247 50.1384 65.3423C49.197 65.3713 48.2594 65.211 47.3811 64.8709C46.5029 64.5308 45.702 64.0179 45.026 63.3625C44.35 62.7072 43.8126 61.9228 43.4458 61.0559C43.079 60.1891 42.8902 59.2574 42.8906 58.3162C42.8906 57.9436 42.7425 57.5861 42.4787 57.3226C42.215 57.0591 41.8573 56.911 41.4844 56.911H11.25V4.21563C11.25 3.84295 11.3982 3.48553 11.6619 3.222C11.9256 2.95847 12.2833 2.81042 12.6562 2.81042H55.5469C55.9198 2.81042 56.2775 2.95847 56.5412 3.222C56.805 3.48553 56.9531 3.84295 56.9531 4.21563V57.9635Z" fill="white"/>
<path d="M19 13.49H47.5" stroke="white" stroke-width="2" stroke-linecap="round" stroke-linejoin="round"/>
<path d="M19 34.9741H47.5" stroke="white" stroke-width="2" stroke-linecap="round" stroke-linejoin="round"/>
<path d="M19 20.9845H40" stroke="white" stroke-width="2" stroke-linecap="round" stroke-linejoin="round"/>
<path d="M19 42.4686H40" stroke="white" stroke-width="2" stroke-linecap="round" stroke-linejoin="round"/>
<path d="M19 27.9793H48" stroke="white" stroke-width="2" stroke-linecap="round" stroke-linejoin="round"/>
<path d="M19 49.4634H48" stroke="white" stroke-width="2" stroke-linecap="round" stroke-linejoin="round"/>
</svg>
