<svg width="81" height="85" viewBox="0 0 81 85" fill="none" xmlns="http://www.w3.org/2000/svg">
<path d="M73.7294 7.60495H31.0287C29.2598 7.60707 27.564 8.31069 26.3132 9.56147C25.0624 10.8123 24.3588 12.5081 24.3567 14.2769V78.328C24.3588 80.0969 25.0624 81.7927 26.3132 83.0435C27.564 84.2943 29.2598 84.9979 31.0287 85H73.7294C75.4983 84.9979 77.1941 84.2943 78.4449 83.0435C79.6956 81.7927 80.3993 80.0969 80.4014 78.328V14.2769C80.3993 12.5081 79.6956 10.8123 78.4449 9.56147C77.1941 8.31069 75.4983 7.60707 73.7294 7.60495ZM71.0606 75.762H33.6975C33.3436 75.762 33.0042 75.6214 32.7539 75.3711C32.5037 75.1209 32.3631 74.7815 32.3631 74.4276C32.3631 74.0737 32.5037 73.7343 32.7539 73.484C33.0042 73.2338 33.3436 73.0932 33.6975 73.0932H71.0606C71.4145 73.0932 71.7539 73.2338 72.0042 73.484C72.2544 73.7343 72.395 74.0737 72.395 74.4276C72.395 74.7815 72.2544 75.1209 72.0042 75.3711C71.7539 75.6214 71.4145 75.762 71.0606 75.762ZM71.0606 66.5239H33.6975C33.3436 66.5239 33.0042 66.3833 32.7539 66.1331C32.5037 65.8828 32.3631 65.5434 32.3631 65.1895C32.3631 64.8356 32.5037 64.4962 32.7539 64.246C33.0042 63.9957 33.3436 63.8551 33.6975 63.8551H71.0606C71.4145 63.8551 71.7539 63.9957 72.0042 64.246C72.2544 64.4962 72.395 64.8356 72.395 65.1895C72.395 65.5434 72.2544 65.8828 72.0042 66.1331C71.7539 66.3833 71.4145 66.5239 71.0606 66.5239ZM71.0606 57.2859H33.6975C33.3436 57.2859 33.0042 57.1453 32.7539 56.8951C32.5037 56.6448 32.3631 56.3054 32.3631 55.9515C32.3631 55.5976 32.5037 55.2582 32.7539 55.0079C33.0042 54.7577 33.3436 54.6171 33.6975 54.6171H71.0606C71.4145 54.6171 71.7539 54.7577 72.0042 55.0079C72.2544 55.2582 72.395 55.5976 72.395 55.9515C72.395 56.3054 72.2544 56.6448 72.0042 56.8951C71.7539 57.1453 71.4145 57.2859 71.0606 57.2859ZM71.0606 38.8112H33.6975C33.3436 38.8112 33.0042 38.6706 32.7539 38.4203C32.5037 38.1701 32.3631 37.8307 32.3631 37.4768C32.3631 37.1229 32.5037 36.7835 32.7539 36.5332C33.0042 36.283 33.3436 36.1424 33.6975 36.1424H71.0606C71.4145 36.1424 71.7539 36.283 72.0042 36.5332C72.2544 36.7835 72.395 37.1229 72.395 37.4768C72.395 37.8307 72.2544 38.1701 72.0042 38.4203C71.7539 38.6706 71.4145 38.8112 71.0606 38.8112ZM71.0606 29.5745H33.6975C33.3436 29.5745 33.0042 29.4339 32.7539 29.1836C32.5037 28.9334 32.3631 28.594 32.3631 28.2401C32.3631 27.8862 32.5037 27.5468 32.7539 27.2965C33.0042 27.0463 33.3436 26.9057 33.6975 26.9057H71.0606C71.4145 26.9057 71.7539 27.0463 72.0042 27.2965C72.2544 27.5468 72.395 27.8862 72.395 28.2401C72.395 28.594 72.2544 28.9334 72.0042 29.1836C71.7539 29.4339 71.4145 29.5745 71.0606 29.5745ZM71.0606 20.3364H33.6975C33.3436 20.3364 33.0042 20.1958 32.7539 19.9456C32.5037 19.6954 32.3631 19.3559 32.3631 19.002C32.3631 18.6481 32.5037 18.3087 32.7539 18.0585C33.0042 17.8082 33.3436 17.6676 33.6975 17.6676H71.0606C71.4145 17.6676 71.7539 17.8082 72.0042 18.0585C72.2544 18.3087 72.395 18.6481 72.395 19.002C72.395 19.3559 72.2544 19.6954 72.0042 19.9456C71.7539 20.1958 71.4145 20.3364 71.0606 20.3364Z" fill="#CB5D60"/>
<path d="M66.5645 24.7103L37.0984 1.26491C36.0781 0.446243 34.8087 0 33.5 0C32.1913 0 30.9219 0.446243 29.9016 1.26491L0.4355 24.7103C0.185796 24.9486 0.0310628 25.2692 0 25.6127L0 60.2304C0.00183425 61.76 0.61095 63.2265 1.69374 64.3081C2.77652 65.3897 4.24457 65.9982 5.77586 66H61.2241C62.7554 65.9982 64.2235 65.3897 65.3063 64.3081C66.3891 63.2265 66.9982 61.76 67 60.2304V25.6127C66.9702 25.2688 66.8153 24.9478 66.5645 24.7103ZM31.341 3.06388C31.9531 2.5726 32.7148 2.3048 33.5 2.3048C34.2852 2.3048 35.0469 2.5726 35.659 3.06388L62.541 24.4588H4.45897L31.341 3.06388ZM62.9881 26.7666L41.421 43.9324L37.0984 40.4983C36.0782 39.6794 34.8087 39.2331 33.5 39.2331C32.1913 39.2331 30.9218 39.6794 29.9016 40.4983L25.579 43.9381L4.01191 26.7666H62.9881ZM2.31034 60.2304V28.3636L23.7249 45.4082L2.83248 62.0351C2.49367 61.4938 2.31284 60.8688 2.31034 60.2304ZM61.2241 63.6922H5.77586C5.40837 63.6875 5.04404 63.6236 4.69693 63.5029L31.341 42.2973C31.9531 41.806 32.7148 41.5382 33.5 41.5382C34.2852 41.5382 35.0469 41.806 35.659 42.2973L62.3031 63.5029C61.956 63.6236 61.5916 63.6875 61.2241 63.6922ZM64.6897 60.2304C64.6872 60.8688 64.5063 61.4938 64.1675 62.0351L43.2751 45.4082L64.6897 28.3636V60.2304Z" fill="white"/>
</svg>
