<svg width="152" height="152" viewBox="0 0 152 152" fill="none" xmlns="http://www.w3.org/2000/svg">
<g filter="url(#filter0_d)">
<circle cx="76" cy="76" r="70" fill="white"/>
</g>
<path d="M92.4062 84.2017C97.6918 84.2017 101.977 79.9169 101.977 74.6313C101.977 69.3458 97.6918 65.061 92.4062 65.061C87.1207 65.061 82.8359 69.3458 82.8359 74.6313C82.8359 79.9169 87.1207 84.2017 92.4062 84.2017Z" fill="#E07275"/>
<path d="M117.944 73.6265L112.105 68.2289L113.656 60.4359C113.693 60.251 113.691 60.0605 113.651 59.8763C113.61 59.6922 113.532 59.5184 113.422 59.3658C113.311 59.2133 113.17 59.0853 113.007 58.99C112.844 58.8946 112.664 58.8339 112.477 58.8117L104.574 57.8752L101.252 50.6496C101.173 50.4777 101.059 50.3241 100.918 50.1984C100.777 50.0727 100.611 49.9776 100.431 49.9193C100.251 49.861 100.061 49.8406 99.873 49.8595C99.6848 49.8783 99.5026 49.936 99.3379 50.0289L92.4062 53.9226L85.4691 50.0234C85.3044 49.9305 85.1222 49.8728 84.934 49.854C84.7459 49.8351 84.5558 49.8555 84.3759 49.9138C84.196 49.9722 84.0302 50.0672 83.8889 50.1929C83.7476 50.3186 83.634 50.4722 83.5551 50.6441L80.2383 57.8752L72.34 58.8062C72.1527 58.8283 71.9719 58.8888 71.8091 58.9841C71.6463 59.0794 71.505 59.2074 71.3941 59.3599C71.2831 59.5125 71.2049 59.6863 71.1645 59.8706C71.124 60.0548 71.122 60.2454 71.1588 60.4305L72.7092 68.2234L66.8713 73.6211C66.7327 73.7491 66.6222 73.9044 66.5465 74.0772C66.4709 74.25 66.4319 74.4366 66.4319 74.6253C66.4319 74.8139 66.4709 75.0005 66.5465 75.1733C66.6222 75.3462 66.7327 75.5015 66.8713 75.6295L72.7092 81.0271L71.1588 88.8201C71.1218 89.0051 71.1235 89.1958 71.1639 89.3801C71.2042 89.5644 71.2822 89.7384 71.393 89.8911C71.5038 90.0438 71.6451 90.1719 71.8078 90.2673C71.9706 90.3628 72.1513 90.4235 72.3387 90.4457L80.2383 91.3768L83.5605 98.6023C83.6394 98.7742 83.7531 98.9279 83.8944 99.0536C84.0357 99.1793 84.2015 99.2743 84.3814 99.3326C84.5613 99.3909 84.7513 99.4113 84.9395 99.3925C85.1277 99.3736 85.3099 99.3159 85.4746 99.223L92.4062 95.3389L99.3434 99.234C99.5081 99.3269 99.6903 99.3845 99.8785 99.4034C100.067 99.4223 100.257 99.4019 100.437 99.3436C100.616 99.2852 100.782 99.1902 100.924 99.0645C101.065 98.9388 101.179 98.7851 101.257 98.6133L104.58 91.3877L112.479 90.4566C112.667 90.4344 112.847 90.3737 113.01 90.2783C113.173 90.1828 113.314 90.0547 113.425 89.902C113.536 89.7493 113.614 89.5754 113.654 89.391C113.694 89.2067 113.696 89.0161 113.659 88.831L112.107 81.0381L117.947 75.6404C118.086 75.5122 118.197 75.3564 118.273 75.1829C118.349 75.0095 118.388 74.8222 118.388 74.6329C118.387 74.4436 118.348 74.2564 118.271 74.0831C118.195 73.9099 118.084 73.7544 117.944 73.6265ZM92.4062 86.9375C89.9726 86.9375 87.5936 86.2158 85.5701 84.8638C83.5466 83.5117 81.9695 81.59 81.0382 79.3416C80.1069 77.0932 79.8632 74.6191 80.338 72.2323C80.8128 69.8454 81.9847 67.6529 83.7055 65.9321C85.4264 64.2112 87.6188 63.0393 90.0057 62.5645C92.3926 62.0898 94.8667 62.3334 97.115 63.2647C99.3634 64.1961 101.285 65.7732 102.637 67.7967C103.989 69.8202 104.711 72.1992 104.711 74.6328C104.707 77.8951 103.41 81.0227 101.103 83.3295C98.7962 85.6363 95.6685 86.9339 92.4062 86.9375Z" fill="#E07275"/>
<path d="M96.9631 101.033L92.4062 98.4752L87.8494 101.035V112.854L92.4062 110.367L96.9631 112.854V101.033Z" fill="#E07275"/>
<path d="M85.115 102.102C85.0098 102.111 84.9072 102.143 84.802 102.143C84.0164 102.144 83.2474 101.918 82.5862 101.494C81.925 101.07 81.3996 100.465 81.0723 99.7508L78.3912 93.9238L76 93.6367V117.016C76 117.253 76.0616 117.486 76.179 117.692C76.2963 117.898 76.4653 118.07 76.6693 118.192C76.8733 118.313 77.1052 118.379 77.3424 118.383C77.5796 118.387 77.8138 118.33 78.0221 118.216L85.115 114.347V102.102Z" fill="#E07275"/>
<path d="M106.421 93.9238L103.739 99.7562C103.411 100.469 102.886 101.072 102.226 101.495C101.565 101.918 100.798 102.143 100.013 102.143C99.9067 102.143 99.8042 102.111 99.6975 102.102V114.346L106.792 118.215C107 118.328 107.234 118.385 107.471 118.381C107.708 118.376 107.939 118.31 108.143 118.19C108.347 118.069 108.516 117.897 108.633 117.691C108.75 117.485 108.812 117.253 108.813 117.016V93.6367L106.421 93.9238Z" fill="#E07275"/>
<path d="M81.4688 33.6172H37.7188C36.6309 33.6172 35.5877 34.0493 34.8185 34.8185C34.0493 35.5877 33.6172 36.6309 33.6172 37.7188V97.875C33.6172 98.9628 34.0493 100.006 34.8185 100.775C35.5877 101.544 36.6309 101.977 37.7188 101.977H81.4688C82.5566 101.977 83.5998 101.544 84.369 100.775C85.1382 100.006 85.5703 98.9628 85.5703 97.875V37.7188C85.5703 36.6309 85.1382 35.5877 84.369 34.8185C83.5998 34.0493 82.5566 33.6172 81.4688 33.6172ZM82.8359 97.875C82.8359 98.2376 82.6919 98.5854 82.4355 98.8418C82.1791 99.0981 81.8314 99.2422 81.4688 99.2422H37.7188C37.3561 99.2422 37.0084 99.0981 36.752 98.8418C36.4956 98.5854 36.3516 98.2376 36.3516 97.875V37.7188C36.3516 37.3561 36.4956 37.0084 36.752 36.752C37.0084 36.4956 37.3561 36.3516 37.7188 36.3516H81.4688C81.8314 36.3516 82.1791 36.4956 82.4355 36.752C82.6919 37.0084 82.8359 37.3561 82.8359 37.7188V97.875Z" fill="#0B0B0B"/>
<path d="M52.7578 67.7968C52.7577 68.0299 52.8172 68.2591 52.9306 68.4628C53.044 68.6664 53.2076 68.8376 53.4058 68.9602C53.604 69.0828 53.8303 69.1527 54.0631 69.1633C54.296 69.1738 54.5276 69.1247 54.7361 69.0205L59.5938 66.591L64.4514 69.0273C64.6604 69.1318 64.8927 69.1809 65.1261 69.17C65.3595 69.1592 65.5862 69.0887 65.7846 68.9653C65.983 68.8419 66.1465 68.6697 66.2594 68.4651C66.3723 68.2606 66.431 68.0305 66.4297 67.7968V56.7076C67.7486 55.3615 68.6407 53.656 68.9942 51.8049C69.3477 49.9539 69.1468 48.0397 68.4168 46.3023C67.6867 44.5649 66.46 43.0818 64.8904 42.0388C63.3208 40.9958 61.4783 40.4395 59.5938 40.4395C57.7092 40.4395 55.8667 40.9958 54.2971 42.0388C52.7275 43.0818 51.5008 44.5649 50.7707 46.3023C50.0407 48.0397 49.8398 49.9539 50.1933 51.8049C50.5468 53.656 51.4389 55.3615 52.7578 56.7076V67.7968ZM63.6953 65.5847L60.2049 63.8388C60.0151 63.744 59.8059 63.6946 59.5938 63.6946C59.3816 63.6946 59.1724 63.744 58.9826 63.8388L55.4922 65.5847V58.6572C56.7716 59.2736 58.1736 59.5937 59.5938 59.5937C61.0139 59.5937 62.4159 59.2736 63.6953 58.6572V65.5847ZM59.5938 43.1875C60.9458 43.1875 62.2674 43.5884 63.3916 44.3395C64.5158 45.0907 65.3919 46.1583 65.9093 47.4074C66.4267 48.6565 66.5621 50.031 66.2983 51.357C66.0346 52.6831 65.3835 53.9011 64.4275 54.8571C63.4715 55.8132 62.2534 56.4642 60.9274 56.728C59.6013 56.9918 58.2269 56.8564 56.9778 56.339C55.7286 55.8216 54.661 54.9454 53.9099 53.8212C53.1587 52.6971 52.7578 51.3754 52.7578 50.0234C52.76 48.2111 53.4809 46.4736 54.7624 45.1921C56.0439 43.9106 57.7814 43.1896 59.5938 43.1875Z" fill="#0B0B0B"/>
<path d="M67.7969 91.0391H43.1875C42.8249 91.0391 42.4772 91.1831 42.2208 91.4395C41.9644 91.6959 41.8203 92.0436 41.8203 92.4062C41.8203 92.7689 41.9644 93.1166 42.2208 93.373C42.4772 93.6294 42.8249 93.7734 43.1875 93.7734H67.7969C68.1595 93.7734 68.5072 93.6294 68.7636 93.373C69.02 93.1166 69.1641 92.7689 69.1641 92.4062C69.1641 92.0436 69.02 91.6959 68.7636 91.4395C68.5072 91.1831 68.1595 91.0391 67.7969 91.0391Z" fill="#0B0B0B"/>
<path d="M76 82.8359H43.1875C42.8249 82.8359 42.4772 82.98 42.2208 83.2364C41.9644 83.4928 41.8203 83.8405 41.8203 84.2031C41.8203 84.5657 41.9644 84.9135 42.2208 85.1699C42.4772 85.4263 42.8249 85.5703 43.1875 85.5703H76C76.3626 85.5703 76.7104 85.4263 76.9667 85.1699C77.2231 84.9135 77.3672 84.5657 77.3672 84.2031C77.3672 83.8405 77.2231 83.4928 76.9667 83.2364C76.7104 82.98 76.3626 82.8359 76 82.8359Z" fill="#0B0B0B"/>
<path d="M76 74.6328H43.1875C42.8249 74.6328 42.4772 74.7769 42.2208 75.0333C41.9644 75.2896 41.8203 75.6374 41.8203 76C41.8203 76.3626 41.9644 76.7104 42.2208 76.9667C42.4772 77.2231 42.8249 77.3672 43.1875 77.3672H76C76.3626 77.3672 76.7104 77.2231 76.9667 76.9667C77.2231 76.7104 77.3672 76.3626 77.3672 76C77.3672 75.6374 77.2231 75.2896 76.9667 75.0333C76.7104 74.7769 76.3626 74.6328 76 74.6328Z" fill="#0B0B0B"/>
<defs>
<filter id="filter0_d" x="0" y="0" width="152" height="152" filterUnits="userSpaceOnUse" color-interpolation-filters="sRGB">
<feFlood flood-opacity="0" result="BackgroundImageFix"/>
<feColorMatrix in="SourceAlpha" type="matrix" values="0 0 0 0 0 0 0 0 0 0 0 0 0 0 0 0 0 0 127 0"/>
<feMorphology radius="2" operator="dilate" in="SourceAlpha" result="effect1_dropShadow"/>
<feOffset/>
<feGaussianBlur stdDeviation="2"/>
<feColorMatrix type="matrix" values="0 0 0 0 0.441667 0 0 0 0 0.185868 0 0 0 0 0.193282 0 0 0 0.25 0"/>
<feBlend mode="normal" in2="BackgroundImageFix" result="effect1_dropShadow"/>
<feBlend mode="normal" in="SourceGraphic" in2="effect1_dropShadow" result="shape"/>
</filter>
</defs>
</svg>
