<svg width="95" height="89" viewBox="0 0 95 89" fill="none" xmlns="http://www.w3.org/2000/svg">
<path d="M61.9722 39C57.8815 38.9909 53.7968 39.3122 49.7578 39.9605C51.6759 31.9233 54.9738 25.85 58.8249 23.6618C59.8578 23.5615 60.9098 23.5143 61.9722 23.5143C63.0346 23.5143 64.0837 23.5689 65.1195 23.6618C68.9706 25.85 72.2655 31.9248 74.1866 39.9605C70.1477 39.3122 66.0629 38.9909 61.9722 39Z" fill="#CB5D60"/>
<path d="M61.9722 72.9372C66.0629 72.9462 70.1477 72.625 74.1866 71.9766C72.2685 80.0138 68.9706 86.0871 65.1195 88.2753C64.0866 88.3757 63.0346 88.4229 61.9722 88.4229C60.9098 88.4229 59.8607 88.3683 58.8249 88.2753C54.9738 86.0871 51.6789 80.0124 49.7578 71.9766C53.7968 72.625 57.8815 72.9462 61.9722 72.9372Z" fill="#CB5D60"/>
<path d="M49.0952 43.0916C57.6125 41.5709 66.3319 41.5709 74.8492 43.0916C76.3699 51.6089 76.3699 60.3283 74.8492 68.8456C70.5999 69.6127 66.2901 69.9944 61.9722 69.9861C57.6543 69.9944 53.3445 69.6127 49.0952 68.8456C48.3281 64.5963 47.9464 60.2865 47.9547 55.9686C47.9464 51.6507 48.3281 47.3409 49.0952 43.0916Z" fill="#CB5D60"/>
<path d="M29.6581 59.1159C29.5578 58.083 29.5106 57.031 29.5106 55.9686C29.5106 54.9062 29.5652 53.8571 29.6581 52.8213C31.8464 48.9702 37.9211 45.6753 45.9569 43.7542C45.3109 47.7933 44.9922 51.8781 45.0037 55.9686C44.9946 60.0593 45.3158 64.144 45.9642 68.183C37.9211 66.2619 31.8537 62.967 29.6581 59.1159Z" fill="#CB5D60"/>
<path d="M77.9802 68.183C79.261 60.0904 79.261 51.8468 77.9802 43.7542C86.0234 45.6753 92.0907 48.9702 94.279 52.8213C94.3793 53.8542 94.4265 54.9062 94.4265 55.9686C94.4265 57.031 94.3719 58.0801 94.2716 59.1159C92.0907 62.967 86.0234 66.2619 77.9802 68.183Z" fill="#CB5D60"/>
<path d="M46.5691 71.3717C47.5964 77.1148 49.9176 82.5487 53.3566 87.2616C47.9409 85.7583 43.0063 82.8793 39.0326 78.9045C35.0588 74.9297 32.1811 69.9944 30.6791 64.5783C35.3916 68.0194 40.8255 70.3426 46.5691 71.3717Z" fill="#CB5D60"/>
<path d="M77.3753 71.3717C83.1184 70.3443 88.5523 68.0232 93.2653 64.5842C91.7619 69.9999 88.8829 74.9345 84.9081 78.9082C80.9333 82.882 75.998 85.7597 70.5819 87.2617C74.023 82.5492 76.3462 77.1153 77.3753 71.3717Z" fill="#CB5D60"/>
<path d="M77.3753 40.5655C76.3479 34.8224 74.0268 29.3885 70.5878 24.6755C76.0035 26.1789 80.9381 29.0579 84.9118 33.0327C88.8856 37.0075 91.7633 41.9428 93.2653 47.3589C88.5528 43.9178 83.1189 41.5946 77.3753 40.5655Z" fill="#CB5D60"/>
<path d="M46.5692 40.5655C40.8261 41.5928 35.3922 43.914 30.6792 47.353C32.1826 41.9373 35.0616 37.0027 39.0364 33.029C43.0112 29.0552 47.9465 26.1775 53.3625 24.6755C49.9214 29.388 47.5983 34.8219 46.5692 40.5655Z" fill="#CB5D60"/>
<path d="M7.37756 0H78.203C80.159 0.00234293 82.0342 0.780382 83.4172 2.16345C84.8003 3.54652 85.5783 5.4217 85.5807 7.37765V57.1768C85.5783 59.1328 84.8003 61.0079 83.4172 62.391C82.0342 63.7741 80.159 64.5521 78.203 64.5545H53.119V71.5632H60.4967C60.888 71.5632 61.2633 71.7187 61.54 71.9954C61.8167 72.2721 61.9722 72.6474 61.9722 73.0388C61.9722 73.4301 61.8167 73.8054 61.54 74.0821C61.2633 74.3588 60.888 74.5143 60.4967 74.5143H25.0839C24.6926 74.5143 24.3173 74.3588 24.0406 74.0821C23.7638 73.8054 23.6084 73.4301 23.6084 73.0388C23.6084 72.6474 23.7638 72.2721 24.0406 71.9954C24.3173 71.7187 24.6926 71.5632 25.0839 71.5632H32.4616V64.5545H7.37756C5.42159 64.5521 3.54642 63.7741 2.16335 62.391C0.780281 61.0079 0.00224304 59.1328 -9.91821e-05 57.1768V7.37765C0.00224304 5.4217 0.780281 3.54652 2.16335 2.16345C3.54642 0.780382 5.42159 0.00234293 7.37756 0ZM35.4126 71.5632H50.1679V64.5545H35.4126V71.5632ZM2.95096 57.1768C2.95096 58.3508 3.41734 59.4767 4.24748 60.3069C5.07763 61.137 6.20354 61.6034 7.37756 61.6034H78.203C79.377 61.6034 80.503 61.137 81.3331 60.3069C82.1633 59.4767 82.6296 58.3508 82.6296 57.1768V7.37765C82.6296 6.20365 82.1633 5.07773 81.3331 4.24758C80.503 3.41743 79.377 2.95106 78.203 2.95106H7.37756C6.20354 2.95106 5.07763 3.41743 4.24748 4.24758C3.41734 5.07773 2.95096 6.20365 2.95096 7.37765V57.1768Z" fill="white"/>
<path d="M16.7841 30.9861H68.7966C69.1879 30.9861 69.5632 31.1416 69.8399 31.4183C70.1166 31.695 70.2721 32.0703 70.2721 32.4617C70.2721 32.853 70.1166 33.2283 69.8399 33.505C69.5632 33.7818 69.1879 33.9372 68.7966 33.9372H16.7841C16.3928 33.9372 16.0175 33.7818 15.7407 33.505C15.464 33.2283 15.3086 32.853 15.3086 32.4617C15.3086 32.0703 15.464 31.695 15.7407 31.4183C16.0175 31.1416 16.3928 30.9861 16.7841 30.9861Z" fill="white"/>
<path d="M16.7841 15.4931H68.7966C69.1879 15.4931 69.5632 15.6486 69.8399 15.9253C70.1166 16.202 70.2721 16.5773 70.2721 16.9686C70.2721 17.36 70.1166 17.7353 69.8399 18.012C69.5632 18.2887 69.1879 18.4442 68.7966 18.4442H16.7841C16.3928 18.4442 16.0175 18.2887 15.7407 18.012C15.464 17.7353 15.3086 17.36 15.3086 16.9686C15.3086 16.5773 15.464 16.202 15.7407 15.9253C16.0175 15.6486 16.3928 15.4931 16.7841 15.4931Z" fill="white"/>
<path d="M16.7841 46.4792H68.7966C69.1879 46.4792 69.5632 46.6347 69.8399 46.9114C70.1166 47.1881 70.2721 47.5634 70.2721 47.9548C70.2721 48.3461 70.1166 48.7214 69.8399 48.9981C69.5632 49.2749 69.1879 49.4303 68.7966 49.4303H16.7841C16.3928 49.4303 16.0175 49.2749 15.7407 48.9981C15.464 48.7214 15.3086 48.3461 15.3086 47.9548C15.3086 47.5634 15.464 47.1881 15.7407 46.9114C16.0175 46.6347 16.3928 46.4792 16.7841 46.4792Z" fill="white"/>
</svg>
