<svg width="20" height="20" viewBox="0 0 20 20" fill="none" xmlns="http://www.w3.org/2000/svg">
<path d="M8.80754 0C3.95119 0 0 3.95124 0 8.80765C0 13.6643 3.95119 17.6153 8.80754 17.6153C13.6642 17.6153 17.6151 13.6643 17.6151 8.80765C17.6151 3.95124 13.6642 0 8.80754 0ZM8.80754 15.9893C4.84767 15.9893 1.62601 12.7676 1.62601 8.80769C1.62601 4.84778 4.84767 1.62603 8.80754 1.62603C12.7674 1.62603 15.9891 4.84774 15.9891 8.80765C15.9891 12.7676 12.7674 15.9893 8.80754 15.9893Z" fill="#CBCBCB"/>
<path d="M19.7618 18.6122L15.1006 13.9509C14.783 13.6332 14.2686 13.6332 13.951 13.9509C13.6334 14.2682 13.6334 14.7831 13.951 15.1005L18.6122 19.7618C18.771 19.9206 18.9789 20 19.187 20C19.3949 20 19.603 19.9206 19.7618 19.7618C20.0794 19.4444 20.0794 18.9295 19.7618 18.6122Z" fill="#CBCBCB"/>
</svg>
