<svg width="603" height="267" viewBox="0 0 603 267" fill="none" xmlns="http://www.w3.org/2000/svg">
<rect x="120.01" y="241.882" width="341.425" height="15.8153" rx="7.90767" fill="#383838"/>
<path d="M136.756 77.5064C136.756 68.8115 143.7 61.7081 152.393 61.5105L426.858 55.2727C436.038 55.064 443.51 62.608 443.213 71.7857L437.9 236.076C437.796 239.312 435.142 241.882 431.903 241.882H142.756C139.442 241.882 136.756 239.195 136.756 235.882V77.5064Z" fill="#404040"/>
<path d="M150.711 93.6266C150.711 84.9319 157.654 77.8286 166.347 77.6308L412.904 72.0189C422.084 71.8099 429.556 79.3534 429.259 88.5311L424.808 226.398C424.529 235.029 417.451 241.882 408.816 241.882H166.711C157.874 241.882 150.711 234.718 150.711 225.882V93.6266Z" fill="#D84E52"/>
<path d="M155.362 99.7318C155.362 91.0333 162.312 83.9284 171.008 83.7357L406.386 78.5209C415.568 78.3175 423.037 85.8683 422.732 95.0475L418.528 221.76C418.242 230.386 411.167 237.23 402.537 237.23H171.362C162.526 237.23 155.362 230.067 155.362 221.23V99.7318Z" fill="#E07275"/>
<path d="M164.666 107.496C164.666 98.7908 171.624 91.6831 180.327 91.4991L398.934 86.8768C408.12 86.6826 415.582 94.2468 415.262 103.429L411.439 213.413C411.14 222.028 404.069 228.857 395.449 228.857H180.666C171.829 228.857 164.666 221.694 164.666 212.857V107.496Z" fill="#E98C8E"/>
<path d="M403.695 140.434V161.116H397.688V140.434H391.076V135.017H410.268V140.434H403.695Z" fill="#F6F6F6"/>
<path d="M372.904 146.116V161.116H366.897V135.017H372.3L376.645 141.343L382.349 150.017H382.463V135.017H388.432V161.116H383.067L377.702 153.161L373.093 146.116H372.904Z" fill="#F6F6F6"/>
<path d="M345.325 135.017H363.496V140.396H351.331V145.282H361.721V150.623H351.331V155.775H363.496V161.116H345.325V135.017Z" fill="#F6F6F6"/>
<path d="M331.497 152.328L334.142 142.896L336.408 135.017H342.68L334.406 161.116H328.248L319.899 135.017H326.321L328.664 143.048L331.27 152.328H331.497Z" fill="#F6F6F6"/>
<path d="M299.86 135.017H317.821V140.396H305.656V145.282H316.045V150.623H305.656V155.775H317.821V161.116H299.859C302.498 157.445 304.054 152.938 304.054 148.066C304.054 143.195 302.499 138.689 299.86 135.017Z" fill="#F6F6F6"/>
<path d="M246.692 135.017H263.674C262.495 136.658 261.532 138.464 260.828 140.396H252.699V145.282H259.652C259.539 146.194 259.48 147.123 259.48 148.066C259.48 148.931 259.53 149.784 259.626 150.623H252.699V155.775H260.842C261.545 157.693 262.503 159.487 263.674 161.116H246.692V135.017Z" fill="#F6F6F6"/>
<path d="M237.358 148.957L234.903 153.654L232.636 157.631H228.367L226.062 153.502L223.72 148.995H223.569V161.116H217.562V135.017H223.077L227.384 143.502L230.445 149.714H230.671L233.845 143.275L237.963 135.017H243.478V161.116H237.472V148.957H237.358Z" fill="#F6F6F6"/>
<path d="M206.945 155.964H198.559L197.01 161.116H190.549L199.73 135.017H205.926L214.955 161.116H208.532L206.945 155.964ZM200.07 151.04H205.434L204.906 149.259L202.828 142.063H202.676L200.599 149.259L200.07 151.04Z" fill="#F6F6F6"/>
<path d="M188.32 157.517C187.741 158.25 187.08 158.862 186.337 159.355C185.594 159.847 184.832 160.244 184.051 160.547C183.27 160.851 182.49 161.065 181.709 161.192C180.928 161.318 180.198 161.381 179.518 161.381C178.334 161.381 177.138 161.217 175.929 160.889C174.72 160.56 173.624 160.055 172.642 159.373C171.66 158.692 170.86 157.827 170.243 156.779C169.626 155.731 169.317 154.487 169.317 153.048V143.312C169.317 141.873 169.613 140.623 170.205 139.562C170.797 138.502 171.578 137.611 172.547 136.892C173.517 136.172 174.606 135.636 175.815 135.282C177.024 134.928 178.259 134.752 179.518 134.752C181.054 134.752 182.597 134.973 184.146 135.415C185.695 135.857 186.985 136.532 188.018 137.441L185.109 142.1C184.253 141.368 183.34 140.882 182.37 140.642C181.4 140.402 180.5 140.282 179.669 140.282C179.165 140.282 178.662 140.358 178.158 140.509C177.654 140.661 177.188 140.894 176.76 141.21C176.332 141.526 175.986 141.943 175.721 142.46C175.456 142.978 175.324 143.616 175.324 144.373V151.76C175.324 152.517 175.45 153.155 175.702 153.672C175.954 154.19 176.281 154.607 176.684 154.923C177.087 155.238 177.534 155.472 178.025 155.623C178.516 155.775 179.014 155.851 179.518 155.851C179.971 155.851 180.443 155.788 180.934 155.661C181.425 155.535 181.885 155.295 182.313 154.942V151.418H178.724V146.343H188.32V157.517Z" fill="#F6F6F6"/>
<path fill-rule="evenodd" clip-rule="evenodd" d="M281.767 128.383C283.971 128.383 286.09 128.748 288.068 129.419L265.509 149.588L266.856 155.345L282.121 155.302L279.213 167.584C269.578 166.329 262.136 158.069 262.136 148.066C262.136 137.196 270.925 128.383 281.767 128.383ZM293.523 132.302C298.304 135.892 301.398 141.617 301.398 148.066C301.398 157.591 294.65 165.536 285.686 167.357L288.385 155.284L291.169 155.276L292.253 149.513L289.674 149.52L293.523 132.302ZM286.072 138.62L273.955 149.565L283.486 149.538L286.072 138.62Z" fill="#F6F6F6"/>
<path d="M175.961 176.171L173.172 181.369C172.904 181.869 172.581 182.247 172.204 182.504C171.827 182.76 171.416 182.889 170.973 182.889C170.63 182.889 170.275 182.814 169.906 182.663L170.272 181.509C170.533 181.591 170.752 181.631 170.927 181.631C171.114 181.631 171.282 181.586 171.432 181.495C171.582 181.405 171.719 181.262 171.844 181.068L171.9 180.993L169.317 176.171H170.936L172.676 179.699L174.473 176.171H175.961ZM182.642 182.739L182.633 178.807L180.705 182.044H180.031L178.103 178.883V182.739H176.681V176.171H177.935L180.387 180.252L182.801 176.171H184.055L184.064 182.739H182.642ZM191.7 176.171V182.739H190.184V180.046H187.208V182.739H185.692V176.171H187.208V178.761H190.184V176.171H191.7ZM196.509 178.329C197.308 178.329 197.921 178.507 198.348 178.864C198.775 179.22 198.989 179.749 198.989 180.449C198.989 181.193 198.753 181.761 198.282 182.152C197.811 182.543 197.149 182.739 196.294 182.739H193.337V176.171H194.843V178.329H196.509ZM196.21 181.613C196.603 181.613 196.91 181.516 197.132 181.322C197.353 181.128 197.464 180.847 197.464 180.477C197.464 179.796 197.046 179.455 196.21 179.455H194.843V181.613H196.21ZM199.821 176.171H201.328V182.739H199.821V176.171ZM202.956 176.171H204.463V180.449L207.589 176.171H209.011V182.739H207.514V178.47L204.388 182.739H202.956V176.171ZM205.979 175.749C204.781 175.749 204.176 175.27 204.164 174.313H205.202C205.215 174.77 205.474 174.998 205.979 174.998C206.229 174.998 206.419 174.94 206.55 174.825C206.681 174.709 206.749 174.539 206.756 174.313H207.794C207.788 174.782 207.635 175.139 207.336 175.383C207.036 175.627 206.584 175.749 205.979 175.749ZM216.384 182.851C215.717 182.851 215.113 182.706 214.574 182.415C214.034 182.124 213.61 181.72 213.301 181.205C212.992 180.688 212.838 180.105 212.838 179.455C212.838 178.804 212.992 178.221 213.301 177.705C213.61 177.189 214.034 176.785 214.574 176.494C215.113 176.204 215.72 176.058 216.394 176.058C216.961 176.058 217.474 176.158 217.933 176.358C218.392 176.559 218.777 176.846 219.089 177.221L218.115 178.122C217.673 177.609 217.124 177.353 216.468 177.353C216.063 177.353 215.701 177.442 215.383 177.621C215.065 177.799 214.817 178.047 214.639 178.366C214.461 178.686 214.373 179.048 214.373 179.455C214.373 179.861 214.461 180.224 214.639 180.543C214.817 180.862 215.065 181.111 215.383 181.289C215.701 181.467 216.063 181.556 216.468 181.556C217.124 181.556 217.673 181.297 218.115 180.777L219.089 181.678C218.777 182.06 218.39 182.35 217.929 182.551C217.467 182.751 216.952 182.851 216.384 182.851ZM225.152 181.519V182.739H220.08V176.171H225.031V177.391H221.587V178.817H224.628V179.999H221.587V181.519H225.152ZM229.214 176.171C229.794 176.171 230.297 176.268 230.725 176.462C231.152 176.656 231.481 176.931 231.712 177.287C231.943 177.644 232.058 178.066 232.058 178.554C232.058 179.036 231.943 179.457 231.712 179.816C231.481 180.175 231.152 180.451 230.725 180.641C230.297 180.832 229.794 180.928 229.214 180.928H227.894V182.739H226.378V176.171H229.214ZM229.129 179.689C229.585 179.689 229.931 179.591 230.168 179.394C230.405 179.197 230.523 178.917 230.523 178.554C230.523 178.185 230.405 177.902 230.168 177.705C229.931 177.508 229.585 177.409 229.129 177.409H227.894V179.689H229.129ZM236.25 182.851C235.583 182.851 234.979 182.706 234.44 182.415C233.9 182.124 233.476 181.72 233.167 181.205C232.858 180.688 232.704 180.105 232.704 179.455C232.704 178.804 232.858 178.221 233.167 177.705C233.476 177.189 233.9 176.785 234.44 176.494C234.979 176.204 235.586 176.058 236.259 176.058C236.827 176.058 237.34 176.158 237.799 176.358C238.257 176.559 238.642 176.846 238.954 177.221L237.981 178.122C237.538 177.609 236.989 177.353 236.334 177.353C235.929 177.353 235.567 177.442 235.249 177.621C234.931 177.799 234.683 178.047 234.505 178.366C234.327 178.686 234.238 179.048 234.238 179.455C234.238 179.861 234.327 180.224 234.505 180.543C234.683 180.862 234.931 181.111 235.249 181.289C235.567 181.467 235.929 181.556 236.334 181.556C236.989 181.556 237.538 181.297 237.981 180.777L238.954 181.678C238.642 182.06 238.256 182.35 237.794 182.551C237.333 182.751 236.818 182.851 236.25 182.851ZM239.946 176.171H241.453V180.449L244.578 176.171H246V182.739H244.503V178.47L241.378 182.739H239.946V176.171ZM250.726 182.851C250.059 182.851 249.455 182.706 248.915 182.415C248.376 182.124 247.951 181.72 247.643 181.205C247.334 180.688 247.18 180.105 247.18 179.455C247.18 178.804 247.334 178.221 247.643 177.705C247.951 177.189 248.376 176.785 248.915 176.494C249.455 176.204 250.061 176.058 250.735 176.058C251.303 176.058 251.816 176.158 252.275 176.358C252.733 176.559 253.118 176.846 253.43 177.221L252.457 178.122C252.014 177.609 251.465 177.353 250.81 177.353C250.404 177.353 250.043 177.442 249.725 177.621C249.407 177.799 249.158 178.047 248.981 178.366C248.803 178.686 248.714 179.048 248.714 179.455C248.714 179.861 248.803 180.224 248.981 180.543C249.158 180.862 249.407 181.111 249.725 181.289C250.043 181.467 250.404 181.556 250.81 181.556C251.465 181.556 252.014 181.297 252.457 180.777L253.43 181.678C253.118 182.06 252.731 182.35 252.27 182.551C251.808 182.751 251.293 182.851 250.726 182.851ZM263.04 176.171V182.739H261.534V177.409H258.577V182.739H257.07V176.171H263.04ZM267.794 182.851C267.114 182.851 266.501 182.704 265.955 182.41C265.409 182.116 264.982 181.711 264.673 181.195C264.364 180.679 264.21 180.099 264.21 179.455C264.21 178.81 264.364 178.23 264.673 177.714C264.982 177.198 265.409 176.793 265.955 176.499C266.501 176.205 267.114 176.058 267.794 176.058C268.473 176.058 269.085 176.205 269.628 176.499C270.171 176.793 270.598 177.198 270.91 177.714C271.222 178.23 271.377 178.81 271.377 179.455C271.377 180.099 271.222 180.679 270.91 181.195C270.598 181.711 270.171 182.116 269.628 182.41C269.085 182.704 268.473 182.851 267.794 182.851ZM267.794 181.556C268.18 181.556 268.53 181.467 268.842 181.289C269.154 181.111 269.398 180.862 269.576 180.543C269.754 180.224 269.843 179.861 269.843 179.455C269.843 179.048 269.754 178.686 269.576 178.366C269.398 178.047 269.154 177.799 268.842 177.621C268.53 177.442 268.18 177.353 267.794 177.353C267.407 177.353 267.058 177.442 266.746 177.621C266.434 177.799 266.189 178.047 266.011 178.366C265.834 178.686 265.744 179.048 265.744 179.455C265.744 179.861 265.834 180.224 266.011 180.543C266.189 180.862 266.434 181.111 266.746 181.289C267.058 181.467 267.407 181.556 267.794 181.556ZM283.813 176.171V182.739H282.307V177.409H279.35V182.739H277.844V176.171H283.813ZM288.567 182.851C287.887 182.851 287.274 182.704 286.729 182.41C286.183 182.116 285.755 181.711 285.446 181.195C285.137 180.679 284.983 180.099 284.983 179.455C284.983 178.81 285.137 178.23 285.446 177.714C285.755 177.198 286.183 176.793 286.729 176.499C287.274 176.205 287.887 176.058 288.567 176.058C289.247 176.058 289.858 176.205 290.401 176.499C290.944 176.793 291.371 177.198 291.683 177.714C291.995 178.23 292.151 178.81 292.151 179.455C292.151 180.099 291.995 180.679 291.683 181.195C291.371 181.711 290.944 182.116 290.401 182.41C289.858 182.704 289.247 182.851 288.567 182.851ZM288.567 181.556C288.954 181.556 289.303 181.467 289.615 181.289C289.927 181.111 290.172 180.862 290.35 180.543C290.527 180.224 290.616 179.861 290.616 179.455C290.616 179.048 290.527 178.686 290.35 178.366C290.172 178.047 289.927 177.799 289.615 177.621C289.303 177.442 288.954 177.353 288.567 177.353C288.18 177.353 287.831 177.442 287.519 177.621C287.207 177.799 286.962 178.047 286.784 178.366C286.607 178.686 286.518 179.048 286.518 179.455C286.518 179.861 286.607 180.224 286.784 180.543C286.962 180.862 287.207 181.111 287.519 181.289C287.831 181.467 288.18 181.556 288.567 181.556ZM299.889 181.5V184.099H298.486V182.739H293.863V184.099H292.46L292.469 181.5H292.731C293.124 181.487 293.402 181.2 293.564 180.637C293.726 180.074 293.826 179.27 293.863 178.226L293.938 176.171H298.972V181.5H299.889ZM295.202 178.366C295.17 179.148 295.105 179.803 295.005 180.332C294.905 180.861 294.752 181.25 294.546 181.5H297.475V177.409H295.23L295.202 178.366ZM300.91 176.171H306.196V177.381H302.416V178.732H304.231C305.024 178.732 305.627 178.898 306.042 179.229C306.457 179.561 306.664 180.039 306.664 180.665C306.664 181.322 306.433 181.831 305.972 182.194C305.51 182.557 304.858 182.739 304.016 182.739H300.91V176.171ZM303.932 181.613C304.318 181.613 304.615 181.536 304.821 181.383C305.027 181.229 305.13 181.006 305.13 180.712C305.13 180.136 304.73 179.849 303.932 179.849H302.416V181.613H303.932ZM310.94 182.851C310.261 182.851 309.648 182.704 309.102 182.41C308.556 182.116 308.129 181.711 307.82 181.195C307.511 180.679 307.357 180.099 307.357 179.455C307.357 178.81 307.511 178.23 307.82 177.714C308.129 177.198 308.556 176.793 309.102 176.499C309.648 176.205 310.261 176.058 310.94 176.058C311.62 176.058 312.232 176.205 312.775 176.499C313.318 176.793 313.745 177.198 314.057 177.714C314.369 178.23 314.524 178.81 314.524 179.455C314.524 180.099 314.369 180.679 314.057 181.195C313.745 181.711 313.318 182.116 312.775 182.41C312.232 182.704 311.62 182.851 310.94 182.851ZM310.94 181.556C311.327 181.556 311.677 181.467 311.989 181.289C312.3 181.111 312.545 180.862 312.723 180.543C312.901 180.224 312.99 179.861 312.99 179.455C312.99 179.048 312.901 178.686 312.723 178.366C312.545 178.047 312.3 177.799 311.989 177.621C311.677 177.442 311.327 177.353 310.94 177.353C310.554 177.353 310.205 177.442 309.893 177.621C309.581 177.799 309.336 178.047 309.158 178.366C308.98 178.686 308.891 179.048 308.891 179.455C308.891 179.861 308.98 180.224 309.158 180.543C309.336 180.862 309.581 181.111 309.893 181.289C310.205 181.467 310.554 181.556 310.94 181.556ZM318.529 176.171C319.109 176.171 319.613 176.268 320.041 176.462C320.468 176.656 320.797 176.931 321.028 177.287C321.259 177.644 321.374 178.066 321.374 178.554C321.374 179.036 321.259 179.457 321.028 179.816C320.797 180.175 320.468 180.451 320.041 180.641C319.613 180.832 319.109 180.928 318.529 180.928H317.21V182.739H315.694V176.171H318.529ZM318.445 179.689C318.901 179.689 319.247 179.591 319.484 179.394C319.721 179.197 319.839 178.917 319.839 178.554C319.839 178.185 319.721 177.902 319.484 177.705C319.247 177.508 318.901 177.409 318.445 177.409H317.21V179.689H318.445ZM328.149 176.171L325.36 181.369C325.092 181.869 324.769 182.247 324.392 182.504C324.014 182.76 323.604 182.889 323.161 182.889C322.818 182.889 322.462 182.814 322.094 182.663L322.459 181.509C322.721 181.591 322.94 181.631 323.114 181.631C323.302 181.631 323.47 181.586 323.62 181.495C323.769 181.405 323.907 181.262 324.031 181.068L324.087 180.993L321.505 176.171H323.124L324.864 179.699L326.661 176.171H328.149ZM336.664 177.409H334.568V182.739H333.07V177.409H330.984V176.171H336.664V177.409ZM337.618 176.171H339.125V180.449L342.25 176.171H343.673V182.739H342.175V178.47L339.05 182.739H337.618V176.171ZM351.261 182.739L351.252 178.807L349.324 182.044H348.651L346.723 178.883V182.739H345.301V176.171H346.555L349.006 180.252L351.42 176.171H352.674L352.683 182.739H351.261ZM354.312 176.171H359.599V177.381H355.818V178.732H357.633C358.426 178.732 359.029 178.898 359.444 179.229C359.859 179.561 360.066 180.039 360.066 180.665C360.066 181.322 359.835 181.831 359.374 182.194C358.912 182.557 358.26 182.739 357.418 182.739H354.312V176.171ZM357.334 181.613C357.721 181.613 358.017 181.536 358.223 181.383C358.429 181.229 358.532 181.006 358.532 180.712C358.532 180.136 358.132 179.849 357.334 179.849H355.818V181.613H357.334ZM361.217 176.171H362.724V180.449L365.849 176.171H367.271V182.739H365.774V178.47L362.649 182.739H361.217V176.171ZM374.692 176.171V182.739H373.195V177.409H370.949L370.902 178.779C370.871 179.711 370.796 180.466 370.678 181.045C370.559 181.623 370.361 182.068 370.083 182.377C369.806 182.687 369.417 182.842 368.918 182.842C368.712 182.842 368.463 182.807 368.17 182.739L368.263 181.453C368.344 181.478 368.435 181.49 368.534 181.49C368.897 181.49 369.149 181.276 369.293 180.848C369.436 180.42 369.526 179.749 369.564 178.836L369.658 176.171H374.692ZM383.038 181.5V184.099H381.635V182.739H377.012V184.099H375.609L375.618 181.5H375.88C376.273 181.487 376.55 181.2 376.713 180.637C376.875 180.074 376.975 179.27 377.012 178.226L377.087 176.171H382.121V181.5H383.038ZM378.351 178.366C378.319 179.148 378.254 179.803 378.154 180.332C378.054 180.861 377.901 181.25 377.695 181.5H380.624V177.409H378.379L378.351 178.366ZM384.058 176.171H385.565V180.449L388.691 176.171H390.113V182.739H388.615V178.47L385.49 182.739H384.058V176.171ZM397.748 176.171V182.739H396.232V180.046H393.257V182.739H391.741V176.171H393.257V178.761H396.232V176.171H397.748ZM403.999 177.409H400.883L400.892 182.739H399.386V176.171H404.008L403.999 177.409ZM408.097 181.331H405.056L404.476 182.739H402.923L405.842 176.171H407.34L410.268 182.739H408.677L408.097 181.331ZM407.62 180.177L406.582 177.663L405.543 180.177H407.62Z" fill="#F6F6F6"/>
<path d="M106.986 40.9338H90.3971C81.576 40.9338 74.4251 48.0848 74.4251 56.9059V56.9059C74.4251 65.417 81.099 72.433 89.5995 72.8581L114.719 74.114C123.509 74.5535 130.51 81.6286 130.857 90.4223L132.39 129.265C132.75 138.386 140.249 145.594 149.377 145.594H150.246M23.2578 44.1899V119.756C23.2578 129.145 30.869 136.756 40.2578 136.756H106.986M150.246 159.549H125.825C119.531 159.549 114.429 154.446 114.429 148.152V144.199C114.429 140.088 111.096 136.756 106.986 136.756V136.756M106.986 136.756V116.078C106.986 106.69 99.3749 99.0784 89.986 99.0784H74.4251M39.4216 184.5H67.1751C71.1791 184.5 74.4251 181.254 74.4251 177.25V177.25C74.4251 173.246 77.671 170 81.6751 170H152.422M150.246 181.411H134.43C129.806 181.411 126.057 185.16 126.057 189.784V189.784C126.057 194.408 122.309 198.157 117.685 198.157H74.4638C67.9325 198.157 62.7962 203.739 63.3386 210.248V210.248C63.8207 216.034 68.6576 220.484 74.4638 220.484H96.7526" stroke="#D84E52" stroke-width="6" stroke-linecap="round" stroke-linejoin="round"/>
<path d="M426.084 146.524H443.505C452.894 146.524 460.505 138.913 460.505 129.524V109.524C460.505 102.331 466.336 96.5 473.53 96.5V96.5C480.723 96.5 486.554 90.6688 486.554 83.4756V65.1219M426.084 168.852H474.46M511.207 137.221L509.785 153.346C509.01 162.122 501.66 168.852 492.85 168.852H474.46M474.46 168.852V227.672C474.46 237.061 482.071 244.672 491.46 244.672H520.045M426.084 189.319H432.807C442.195 189.319 449.807 196.93 449.807 206.319V213.253C449.807 222.641 457.418 230.253 466.807 230.253H484.904C494.293 230.253 501.904 222.641 501.904 213.253V194.724C501.904 185.335 509.515 177.724 518.904 177.724H544.233M568.887 177.724H544.233M544.233 177.724V161.177C544.233 154.369 549.752 148.85 556.56 148.85V148.85C563.368 148.85 568.887 143.331 568.887 136.524V82.7979" stroke="#D84E52" stroke-width="6" stroke-linecap="round" stroke-linejoin="round"/>
<rect x="2" y="2" width="42.5157" height="42.5157" rx="14" fill="#F6F6F6" stroke="#D84E52" stroke-width="4"/>
<rect x="106.195" y="19.6759" width="42.5157" height="42.5157" rx="14" fill="#F6F6F6" stroke="#D84E52" stroke-width="4"/>
<rect x="38.2822" y="78.2858" width="42.5157" height="42.5157" rx="14" fill="#F6F6F6" stroke="#D84E52" stroke-width="4"/>
<rect x="2" y="162.944" width="42.5157" height="42.5157" rx="14" fill="#F6F6F6" stroke="#D84E52" stroke-width="4"/>
<rect x="88.5192" y="204.808" width="42.5157" height="42.5157" rx="14" fill="#F6F6F6" stroke="#D84E52" stroke-width="4"/>
<rect x="518.324" y="222.484" width="42.5157" height="42.5157" rx="14" fill="#F6F6F6" stroke="#D84E52" stroke-width="4"/>
<rect x="558.328" y="157" width="42.5157" height="42.5157" rx="14" fill="#F6F6F6" stroke="#D84E52" stroke-width="4"/>
<rect x="548.094" y="57.8188" width="42.5157" height="42.5157" rx="14" fill="#F6F6F6" stroke="#D84E52" stroke-width="4"/>
<rect x="465.296" y="33.6306" width="42.5157" height="42.5157" rx="14" fill="#F6F6F6" stroke="#D84E52" stroke-width="4"/>
<rect x="491.345" y="95.9617" width="42.5157" height="42.5157" rx="14" fill="#F6F6F6" stroke="#D84E52" stroke-width="4"/>
<path d="M21.6283 30.159L25.9295 36.097C25.9335 36.1024 25.9391 36.1047 25.9433 36.1097C25.9736 36.1475 26.0094 36.1804 26.0496 36.2076C26.0592 36.2134 26.0672 36.2204 26.0768 36.2263C26.0862 36.2323 26.0862 36.2338 26.0918 36.2367L27.9618 37.2108C28.1202 37.2947 28.3125 37.2812 28.4579 37.1765L33.8033 33.3044C33.9493 33.1998 34.0233 33.0214 33.9941 32.8442L33.6513 30.7638C33.6503 30.7576 33.6471 30.7525 33.6461 30.7463C33.645 30.7399 33.6394 30.7256 33.6367 30.7145C33.6235 30.668 33.6034 30.6237 33.5769 30.5831C33.5731 30.5779 33.5731 30.5715 33.5692 30.5661L29.2665 24.6262C31.6331 19.6968 29.5556 13.7822 24.6261 11.4157C19.6967 9.04912 13.7822 11.1268 11.4156 16.0561C9.04904 20.9855 11.1267 26.9 16.0561 29.2666C17.7882 30.0982 19.7251 30.4078 21.6302 30.1576L21.6283 30.159ZM33.0141 32.7117L28.1405 36.2419L27.2058 35.7548L32.8428 31.6715L33.0141 32.7117ZM32.5258 30.737L26.4166 35.1622L25.8634 34.3985L31.2088 30.5264L30.6557 29.7629L25.3103 33.6349L24.7571 32.8712L30.1025 28.9992L29.5494 28.2356L24.204 32.1076L23.6509 31.3441L29.7601 26.9188L32.5258 30.737ZM19.043 23.6637C18.8934 23.6563 18.7492 23.7203 18.6545 23.8363C18.5796 23.9316 18.4928 24.0167 18.3958 24.0893C17.767 24.5483 16.8852 24.4104 16.4262 23.7816C16.0706 23.294 16.0646 22.6343 16.4113 22.1405C16.5598 21.9267 16.5069 21.6328 16.2927 21.4843C16.2601 21.4618 16.2247 21.4431 16.1873 21.4294C15.4536 21.1614 15.076 20.3494 15.344 19.6157C15.5418 19.0739 16.049 18.7064 16.6257 18.6873C16.886 18.6776 17.089 18.4588 17.0795 18.1986C17.0779 18.159 17.0715 18.1196 17.0602 18.0814C16.8319 17.3417 17.2466 16.5572 17.9864 16.329C18.309 16.2293 18.6569 16.2496 18.9659 16.3861C19.2051 16.4888 19.4823 16.3784 19.5852 16.1391C19.5955 16.1151 19.6038 16.0905 19.6101 16.065C19.7865 15.3122 20.5397 14.8446 21.2927 15.0211C21.5197 15.0743 21.7298 15.1833 21.9042 15.3383C22.0404 15.4574 22.2327 15.4882 22.3993 15.4174C23.1085 15.1092 23.9333 15.4341 24.2416 16.1434C24.3298 16.3466 24.3687 16.5677 24.3548 16.7889C24.3434 17.0104 24.488 17.2101 24.7022 17.2685C25.0142 17.3488 25.2887 17.5344 25.479 17.7943C25.9372 18.4269 25.7959 19.3112 25.1633 19.7694C25.0565 19.8439 24.9393 19.9029 24.816 19.9447C24.5714 20.0339 24.4454 20.3046 24.5346 20.5492C24.5383 20.5594 24.5424 20.5695 24.5467 20.5794C24.8152 21.1898 24.6227 21.9048 24.084 22.2976C23.8814 22.4431 23.6436 22.531 23.3954 22.5527C23.1364 22.5794 22.9482 22.8112 22.9751 23.0703C22.9835 23.1521 23.0133 23.2305 23.0615 23.2974L26.534 28.0912L25.7704 28.6443L22.4122 24.0082C22.2593 23.7975 21.9644 23.7507 21.7537 23.9038C21.7216 23.9271 21.6925 23.9543 21.667 23.985C21.1883 24.5871 20.3117 24.6873 19.7096 24.2082C19.6128 24.1312 19.5265 24.0415 19.4534 23.9417C19.4439 23.9286 19.4219 23.8864 19.4128 23.8732C19.3298 23.7486 19.1926 23.6708 19.043 23.6637ZM15.0893 13.0949C19.0918 10.1922 24.6898 11.0838 27.5927 15.0865C29.5792 17.826 29.8516 21.4514 28.2964 24.4569C28.2148 24.6151 28.2292 24.8057 28.3337 24.9497L29.2069 26.1551L27.2977 27.538L24.2277 23.2999C24.3722 23.2347 24.5093 23.1549 24.6372 23.0614C25.396 22.5072 25.7559 21.5569 25.5541 20.6391C26.6656 19.9752 27.0283 18.536 26.3645 17.4246C26.3268 17.3615 26.2862 17.3003 26.2428 17.2411C25.9997 16.9048 25.6704 16.6405 25.2894 16.4763C25.2521 16.0629 25.1036 15.6677 24.8598 15.3319C24.2802 14.5244 23.2539 14.1708 22.3 14.4501C21.2357 13.7175 19.7791 13.9867 19.0467 15.0509C18.9773 15.1516 18.9161 15.2575 18.8633 15.3678C18.2216 15.2357 17.554 15.3809 17.0253 15.7677C16.3735 16.2422 16.0101 17.0175 16.0626 17.822C14.8044 18.1575 14.0567 19.4493 14.3922 20.7071C14.5422 21.2697 14.895 21.7567 15.3828 22.0746C14.8984 23.2799 15.4827 24.6497 16.688 25.1341C17.4553 25.4426 18.3284 25.3252 18.9871 24.8254C19.8133 25.5813 21.0567 25.6531 21.9645 24.9974L25.0067 29.1972L23.0975 30.5802L22.2244 29.3748C22.12 29.2307 21.9436 29.1575 21.7678 29.1857C16.887 29.9761 12.2897 26.6598 11.4994 21.7788C10.9588 18.4385 12.3475 15.0785 15.0893 13.0949Z" fill="#0B0B0B"/>
<path d="M141.633 26.059C141.562 26.0454 141.49 26.0454 141.419 26.059L137.518 26.805C137.406 26.8271 137.302 26.8827 137.222 26.9645L124.448 39.7438L123.731 39.0263C123.676 38.9719 123.617 38.9223 123.554 38.8782C123.601 37.5455 122.558 36.4273 121.225 36.3809C119.892 36.3344 118.774 37.3771 118.728 38.7099C118.681 40.0426 119.724 41.1607 121.057 41.2072C121.111 41.2091 121.165 41.2091 121.219 41.2074C121.263 41.2705 121.313 41.3296 121.367 41.384L122.757 42.7735L122.671 42.8419L116.891 48.6336L116.823 48.7133L116.362 48.252C115.699 47.6083 114.644 47.6083 113.981 48.252C113.337 48.9149 113.337 49.9696 113.981 50.6325L117.54 54.1633C118.084 54.9349 119.149 55.1201 119.921 54.577C120.692 54.0339 120.878 52.9681 120.334 52.1965C120.221 52.0359 120.081 51.896 119.921 51.7829L119.454 51.3159L119.534 51.2476L125.297 45.4786L125.365 45.3932L126.755 46.7827C126.809 46.8372 126.868 46.8868 126.931 46.9308C126.892 48.2638 127.94 49.3764 129.273 49.4159C129.936 49.4356 130.579 49.1815 131.049 48.7133C131.993 47.7764 131.999 46.2511 131.062 45.3066C130.588 44.828 129.934 44.5702 129.26 44.5959C129.216 44.533 129.167 44.474 129.112 44.4194L128.395 43.7018L141.18 30.9167C141.262 30.8363 141.317 30.7331 141.339 30.6206L142.085 26.7253C142.144 26.4164 141.942 26.1181 141.633 26.059ZM119.089 53.3604C118.872 53.5595 118.538 53.5595 118.321 53.3604L114.784 49.8238C114.505 49.6778 114.398 49.3336 114.544 49.055C114.69 48.7765 115.034 48.669 115.313 48.8151C115.415 48.8689 115.499 48.9526 115.553 49.055L116.76 50.2623L117.899 51.4013L119.106 52.6086C119.291 52.8279 119.283 53.1497 119.089 53.3604ZM124.494 44.6585L118.679 50.4446C118.655 50.4704 118.626 50.4916 118.594 50.5072L117.637 49.522C117.653 49.4903 117.674 49.4615 117.7 49.4366L123.486 43.6505C123.51 43.6248 123.539 43.6037 123.571 43.5879L124.556 44.5731C124.541 44.6052 124.52 44.6341 124.494 44.6585ZM129.055 45.7577L129.05 45.752C129.738 45.5993 130.419 46.0331 130.572 46.7208C130.665 47.1435 130.538 47.585 130.234 47.8933C129.73 48.377 128.934 48.377 128.429 47.8933C128.119 47.5833 127.992 47.1351 128.093 46.7087C128.152 46.4183 127.979 46.131 127.694 46.0481C127.645 46.0378 127.6 46.0141 127.563 45.9798L125.428 43.8442L124.289 42.7052L122.176 40.581C122.141 40.5425 122.118 40.4953 122.108 40.4443C122.039 40.1885 121.803 40.0139 121.538 40.0229H121.413C120.987 40.1193 120.541 39.9927 120.228 39.6869C119.73 39.1891 119.729 38.3813 120.227 37.8828C120.228 37.8824 120.228 37.882 120.228 37.8816C120.734 37.4007 121.528 37.4007 122.034 37.8816C122.344 38.1933 122.471 38.6437 122.37 39.0718C122.283 39.3742 122.458 39.6895 122.761 39.7759C122.771 39.7788 122.781 39.7814 122.791 39.7837C122.842 39.793 122.89 39.8167 122.928 39.852L128.315 45.2394C128.349 45.2782 128.373 45.3253 128.383 45.3761C128.474 45.6591 128.766 45.8252 129.055 45.7577ZM140.252 30.239L127.637 42.8533L125.291 40.507L137.905 27.8927L140.81 27.3232L140.252 30.239Z" fill="#0B0B0B"/>
<path d="M96.4243 235.522C96.5023 233.373 98.2262 231.649 100.375 231.571V231.544H102.391V217.097C102.394 214.835 104.226 213.003 106.488 213H120.384C122.649 213.001 124.485 214.839 124.483 217.105C124.482 219.37 122.644 221.206 120.379 221.205C119.235 221.204 118.144 220.726 117.368 219.886V235.668C117.368 237.931 115.534 239.767 113.271 239.77H100.375C98.1109 239.688 96.3421 237.786 96.4243 235.522ZM106.488 214.081C104.823 214.084 103.475 215.432 103.472 217.097V231.544H113.265C114.412 231.538 115.509 232.015 116.287 232.857V217.097C116.288 215.949 116.773 214.854 117.622 214.081H106.488ZM120.384 220.118C122.052 220.121 123.407 218.771 123.41 217.102C123.413 215.434 122.063 214.079 120.394 214.076C118.726 214.073 117.371 215.423 117.368 217.091C117.368 217.093 117.368 217.095 117.368 217.097C117.368 218.763 118.717 220.115 120.384 220.118ZM113.265 238.662C114.934 238.665 116.289 237.315 116.292 235.646C116.295 233.978 114.945 232.622 113.276 232.619C111.608 232.616 110.253 233.967 110.25 235.635C110.25 235.637 110.25 235.639 110.25 235.641C110.25 237.307 111.599 238.659 113.265 238.662ZM100.37 238.667H110.504C108.836 237.151 108.714 234.57 110.231 232.903C110.317 232.808 110.408 232.717 110.504 232.63H100.375C99.2549 232.635 98.2293 233.259 97.7104 234.252H101.034C101.333 234.252 101.575 234.494 101.575 234.792C101.575 235.091 101.333 235.333 101.034 235.333H97.3753C97.3627 235.437 97.3554 235.541 97.3537 235.646C97.3537 237.313 98.7031 238.664 100.37 238.667Z" fill="#0B0B0B"/>
<path d="M107.59 216.556H112.687C112.986 216.556 113.228 216.798 113.228 217.097C113.228 217.395 112.986 217.637 112.687 217.637H107.59C107.292 217.637 107.05 217.395 107.05 217.097C107.05 216.798 107.292 216.556 107.59 216.556Z" fill="#0B0B0B"/>
<path d="M105.039 219.345H114.93C115.229 219.345 115.471 219.587 115.471 219.886C115.471 220.184 115.229 220.426 114.93 220.426H105.039C104.741 220.426 104.499 220.184 104.499 219.886C104.499 219.587 104.741 219.345 105.039 219.345Z" fill="#0B0B0B"/>
<path d="M105.039 222.275H114.93C115.229 222.275 115.471 222.517 115.471 222.815C115.471 223.114 115.229 223.356 114.93 223.356H105.039C104.741 223.356 104.499 223.114 104.499 222.815C104.499 222.517 104.741 222.275 105.039 222.275Z" fill="#0B0B0B"/>
<path d="M105.039 225.226H114.93C115.229 225.226 115.471 225.468 115.471 225.766C115.471 226.065 115.229 226.307 114.93 226.307H105.039C104.741 226.307 104.499 226.065 104.499 225.766C104.499 225.468 104.741 225.226 105.039 225.226Z" fill="#0B0B0B"/>
<path d="M105.039 228.177H114.93C115.229 228.177 115.471 228.419 115.471 228.717C115.471 229.016 115.229 229.258 114.93 229.258H105.039C104.741 229.258 104.499 229.016 104.499 228.717C104.499 228.419 104.741 228.177 105.039 228.177Z" fill="#0B0B0B"/>
<path d="M67.0922 90.7996L68.4284 88.4753C68.4895 88.369 68.5058 88.2428 68.4739 88.1245C68.442 88.0062 68.3643 87.9054 68.2581 87.8443L66.3687 86.7589C66.2624 86.6979 66.1362 86.6816 66.0179 86.7136C65.8995 86.7456 65.7987 86.8233 65.7377 86.9296L64.4036 89.2516C63.2006 88.7327 61.928 88.3933 60.6265 88.2442V86.8313H61.5641C61.6867 86.8313 61.8043 86.7826 61.891 86.6959C61.9777 86.6092 62.0264 86.4917 62.0264 86.3691V84.1905C62.0264 84.1298 62.0145 84.0697 61.9912 84.0136C61.968 83.9575 61.934 83.9065 61.8911 83.8636C61.8481 83.8206 61.7972 83.7866 61.7411 83.7634C61.685 83.7402 61.6248 83.7282 61.5641 83.7283H56.5857C56.525 83.7282 56.4649 83.7402 56.4088 83.7634C56.3527 83.7866 56.3017 83.8206 56.2588 83.8636C56.2159 83.9065 56.1818 83.9575 56.1586 84.0136C56.1354 84.0697 56.1235 84.1298 56.1235 84.1905V86.3691C56.1235 86.4917 56.1722 86.6092 56.2589 86.6959C56.3456 86.7826 56.4632 86.8313 56.5857 86.8313H57.5234V88.2428C56.2219 88.3919 54.9492 88.7314 53.7463 89.2502L52.4122 86.9282C52.382 86.8756 52.3417 86.8294 52.2936 86.7923C52.2455 86.7552 52.1906 86.728 52.132 86.7121C52.0734 86.6963 52.0123 86.6922 51.9521 86.7C51.8919 86.7078 51.8338 86.7274 51.7812 86.7576L49.8918 87.8429C49.7856 87.904 49.7079 88.0048 49.676 88.1232C49.644 88.2415 49.6604 88.3677 49.7214 88.474L51.0577 90.7996C48.7742 92.4872 47.0815 94.8522 46.2205 97.5579C45.3595 100.264 45.3743 103.172 46.2626 105.869C47.151 108.566 48.8677 110.913 51.1681 112.578C53.4686 114.242 56.2356 115.138 59.0749 115.138C61.9143 115.138 64.6813 114.242 66.9817 112.578C69.2822 110.913 70.9989 108.566 71.8872 105.869C72.7756 103.172 72.7903 100.264 71.9294 97.5579C71.0684 94.8522 69.3756 92.4872 67.0922 90.7996ZM66.309 87.7885L67.3965 88.4148L66.3272 90.2759C65.9751 90.0508 65.6129 89.842 65.2409 89.6493L66.309 87.7885ZM57.048 84.6527H61.1019V85.9068H57.048V84.6527ZM58.4479 86.8313H59.702V88.167C59.4941 88.1573 59.2862 88.1507 59.0749 88.1507C58.8636 88.1507 58.6558 88.157 58.4479 88.1668V86.8313ZM50.7534 88.4148L51.8409 87.7901L52.909 89.6493C52.5366 89.8416 52.1745 90.0505 51.8226 90.2759L50.7534 88.4148ZM59.0749 114.206C56.5898 114.206 54.1604 113.469 52.0941 112.088C50.0278 110.707 48.4173 108.745 47.4663 106.449C46.5153 104.153 46.2665 101.626 46.7513 99.189C47.2362 96.7516 48.4329 94.5128 50.1902 92.7555C51.9475 90.9983 54.1864 89.8016 56.6238 89.3168C59.0612 88.832 61.5876 89.0809 63.8836 90.0319C66.1795 90.983 68.1419 92.5935 69.5225 94.6599C70.9032 96.7262 71.6401 99.1556 71.64 101.641C71.6362 104.972 70.3111 108.166 67.9555 110.521C65.5999 112.877 62.4062 114.202 59.0749 114.206Z" fill="#0B0B0B"/>
<path d="M68.1633 106.841C69.0774 105.25 69.5561 103.447 69.5511 101.612C69.5461 99.777 69.0576 97.976 68.1348 96.3902C68.1286 96.3743 68.1216 96.3589 68.1136 96.3439C68.1054 96.3316 68.0966 96.3197 68.0872 96.3083C67.1778 94.7783 65.8961 93.5033 64.3613 92.602C64.3487 92.5916 64.3355 92.5819 64.3217 92.5732C64.3067 92.5654 64.2913 92.5585 64.2755 92.5526C62.6848 91.6384 60.8812 91.1596 59.0465 91.1646C57.2118 91.1696 55.4108 91.658 53.8251 92.5808C53.809 92.5872 53.7933 92.5944 53.7781 92.6025C53.7659 92.6107 53.7542 92.6195 53.7429 92.6289C52.2128 93.5383 50.9375 94.82 50.0358 96.3548C50.0139 96.3797 49.9972 96.4088 49.9867 96.4403C49.0725 98.0311 48.5938 99.8348 48.5989 101.67C48.6039 103.504 49.0924 105.305 50.0152 106.891C50.0214 106.907 50.0284 106.922 50.0363 106.938C50.0422 106.948 50.0509 106.955 50.0572 106.964C50.9668 108.498 52.2502 109.776 53.7876 110.679C53.8005 110.689 53.814 110.699 53.828 110.708C53.8396 110.715 53.8523 110.717 53.8642 110.723C55.4578 111.641 57.2656 112.122 59.1046 112.116C60.9437 112.111 62.7487 111.62 64.337 110.693C64.3484 110.688 64.3606 110.685 64.3716 110.679C64.3827 110.672 64.3949 110.662 64.4068 110.652C65.9404 109.741 67.2179 108.456 68.12 106.916C68.1271 106.906 68.1361 106.898 68.1424 106.887C68.1504 106.872 68.1574 106.857 68.1633 106.841ZM64.295 109.634L63.701 108.621C63.639 108.515 63.5375 108.439 63.4189 108.408C63.3003 108.377 63.1742 108.394 63.0684 108.456C62.9626 108.518 62.8858 108.619 62.8549 108.738C62.8239 108.857 62.8413 108.983 62.9033 109.089L63.4982 110.103C62.2721 110.748 60.9197 111.116 59.5362 111.182V110.002C59.5362 109.88 59.4875 109.762 59.4008 109.675C59.3141 109.589 59.1965 109.54 59.0739 109.54C58.9513 109.54 58.8338 109.589 58.7471 109.675C58.6604 109.762 58.6117 109.88 58.6117 110.002V111.182C57.2466 111.116 55.9118 110.756 54.6988 110.127L55.2878 109.109C55.3473 109.003 55.3627 108.878 55.3306 108.761C55.2984 108.643 55.2215 108.544 55.1163 108.483C55.0111 108.422 54.8862 108.405 54.7685 108.435C54.6509 108.466 54.55 108.542 54.4878 108.646L53.8996 109.663C52.7757 108.935 51.8161 107.98 51.082 106.861L52.0955 106.267C52.2007 106.205 52.277 106.103 52.3076 105.985C52.3383 105.867 52.3208 105.741 52.259 105.635C52.1972 105.53 52.0962 105.453 51.978 105.422C51.8598 105.391 51.734 105.408 51.6283 105.469L50.6135 106.064C49.9689 104.838 49.6008 103.486 49.535 102.102H50.7144C50.837 102.102 50.9545 102.053 51.0412 101.967C51.1279 101.88 51.1766 101.762 51.1766 101.64C51.1766 101.517 51.1279 101.4 51.0412 101.313C50.9545 101.226 50.837 101.178 50.7144 101.178H49.535C49.6002 99.8122 49.9598 98.4771 50.5892 97.2636L51.6071 97.8524C51.7131 97.9107 51.8376 97.9251 51.954 97.8927C52.0704 97.8602 52.1695 97.7835 52.2301 97.6788C52.2906 97.5742 52.3077 97.45 52.2778 97.3329C52.2478 97.2158 52.1732 97.1151 52.0699 97.0523L51.0535 96.4641C51.7813 95.3407 52.7354 94.3815 53.8549 93.6477L54.449 94.6611C54.5112 94.7663 54.6126 94.8426 54.7309 94.8732C54.8493 94.9039 54.9749 94.8864 55.0804 94.8246C55.1859 94.7628 55.2626 94.6618 55.2937 94.5436C55.3249 94.4254 55.308 94.2996 55.2466 94.1939L54.6518 93.1791C55.8778 92.5345 57.2302 92.1665 58.6138 92.1009V93.28C58.6138 93.4026 58.6625 93.5201 58.7492 93.6068C58.8359 93.6935 58.9534 93.7422 59.076 93.7422C59.1986 93.7422 59.3162 93.6935 59.4029 93.6068C59.4896 93.5201 59.5383 93.4026 59.5383 93.28V92.1009C60.9036 92.166 62.2388 92.5255 63.4522 93.1548L62.8621 94.173C62.8308 94.2256 62.8102 94.2839 62.8015 94.3445C62.7928 94.4051 62.7963 94.4668 62.8117 94.526C62.8271 94.5853 62.8541 94.6409 62.8912 94.6896C62.9282 94.7383 62.9746 94.7792 63.0276 94.8099C63.0805 94.8406 63.1391 94.8604 63.1998 94.8682C63.2605 94.8761 63.3222 94.8718 63.3812 94.8556C63.4403 94.8395 63.4955 94.8117 63.5437 94.774C63.592 94.7363 63.6322 94.6894 63.6622 94.636L64.2504 93.6183C65.3743 94.3463 66.3339 95.3008 67.0679 96.4208L66.0544 97.0146C66.0018 97.0451 65.9557 97.0857 65.9188 97.1341C65.8818 97.1825 65.8549 97.2378 65.8393 97.2966C65.8238 97.3555 65.8201 97.4168 65.8283 97.4771C65.8366 97.5375 65.8567 97.5955 65.8875 97.6481C65.9182 97.7006 65.9591 97.7465 66.0076 97.7832C66.0562 97.8199 66.1115 97.8467 66.1705 97.8619C66.2294 97.8772 66.2908 97.8806 66.351 97.8721C66.4113 97.8636 66.4693 97.8432 66.5217 97.8122L67.5368 97.2174C68.1811 98.4435 68.5491 99.7959 68.6149 101.179H67.4356C67.313 101.179 67.1954 101.228 67.1087 101.315C67.0221 101.401 66.9734 101.519 66.9734 101.642C66.9734 101.764 67.0221 101.882 67.1087 101.968C67.1954 102.055 67.313 102.104 67.4356 102.104H68.6149C68.5496 103.469 68.19 104.804 67.5608 106.017L66.5431 105.428C66.437 105.366 66.3108 105.35 66.1923 105.381C66.0739 105.413 65.9728 105.49 65.9114 105.596C65.85 105.703 65.8333 105.829 65.8649 105.947C65.8965 106.066 65.9739 106.167 66.0801 106.228L67.0964 106.816C66.3688 107.94 65.4146 108.9 64.295 109.634Z" fill="#0B0B0B"/>
<path d="M66.0464 101.641C66.0464 101.518 65.9977 101.401 65.9111 101.314C65.8244 101.227 65.7068 101.179 65.5842 101.179H61.1336C61.0453 100.789 60.8486 100.432 60.5661 100.15C60.2835 99.8671 59.9268 99.6702 59.5371 99.5819V95.1315C59.5371 95.009 59.4884 94.8914 59.4018 94.8047C59.3151 94.718 59.1975 94.6693 59.0749 94.6693C58.9523 94.6693 58.8347 94.718 58.7481 94.8047C58.6614 94.8914 58.6127 95.009 58.6127 95.1315V99.5819C58.2439 99.6645 57.904 99.8446 57.6286 100.103C57.3532 100.362 57.1523 100.69 57.047 101.053C56.9416 101.416 56.9356 101.801 57.0296 102.167C57.1236 102.533 57.3142 102.867 57.5814 103.134C57.8486 103.401 58.1827 103.592 58.5487 103.686C58.9147 103.78 59.2993 103.774 59.6622 103.669C60.0252 103.563 60.3532 103.362 60.612 103.087C60.8708 102.812 61.0509 102.472 61.1336 102.103H65.5842C65.7068 102.103 65.8243 102.054 65.911 101.968C65.9977 101.881 66.0464 101.763 66.0464 101.641ZM59.0749 102.828C58.8401 102.828 58.6106 102.758 58.4153 102.628C58.2201 102.497 58.0679 102.312 57.978 102.095C57.8882 101.878 57.8646 101.639 57.9104 101.409C57.9562 101.179 58.0693 100.967 58.2353 100.801C58.4013 100.635 58.6129 100.522 58.8431 100.476C59.0734 100.431 59.3121 100.454 59.529 100.544C59.7459 100.634 59.9313 100.786 60.0617 100.981C60.1921 101.177 60.2617 101.406 60.2617 101.641C60.2612 101.955 60.136 102.257 59.9135 102.479C59.6911 102.702 59.3895 102.827 59.0749 102.828Z" fill="#0B0B0B"/>
<path d="M496.944 40.9338H483.243C481.791 40.9338 480.609 42.1158 480.609 43.5685V48.3109H475.234C473.781 48.3109 472.599 49.4928 472.599 50.9456V62.1166C472.599 63.5694 473.781 64.7513 475.234 64.7513H476.288V67.3859C476.288 67.599 476.416 67.7912 476.613 67.8728C476.678 67.8998 476.747 67.9129 476.815 67.9129C476.952 67.9129 477.087 67.8593 477.187 67.7586L480.195 64.7513H488.934C490.387 64.7513 491.569 63.5694 491.569 62.1166V57.3742H492.623V60.0089C492.623 60.222 492.751 60.4141 492.948 60.4957C493.013 60.5227 493.082 60.5359 493.15 60.5359C493.287 60.5359 493.422 60.4823 493.522 60.3815L496.53 57.3742H497.365C498.71 57.3742 499.578 56.34 499.578 54.7395V43.5685C499.578 42.1158 498.396 40.9338 496.944 40.9338ZM490.515 62.1166C490.515 62.9883 489.806 63.6974 488.934 63.6974H479.976C479.837 63.6974 479.703 63.7529 479.604 63.8517L477.342 66.1138V64.2243C477.342 63.9333 477.106 63.6974 476.815 63.6974H475.234C474.362 63.6974 473.653 62.9883 473.653 62.1166V50.9456C473.653 50.0739 474.362 49.3648 475.234 49.3648H488.934C489.806 49.3648 490.515 50.0739 490.515 50.9456V62.1166ZM498.524 54.7395C498.524 55.3299 498.374 56.3203 497.365 56.3203H496.311C496.172 56.3203 496.038 56.3759 495.939 56.4747L493.677 58.7367V56.8473C493.677 56.5562 493.441 56.3203 493.15 56.3203H491.569V52.5264H494.836C495.127 52.5264 495.363 52.2905 495.363 51.9995C495.363 51.7084 495.127 51.4725 494.836 51.4725H491.569V50.9456C491.569 49.4928 490.387 48.3109 488.934 48.3109H481.663V43.5685C481.663 42.6969 482.372 41.9877 483.243 41.9877H496.944C497.815 41.9877 498.524 42.6969 498.524 43.5685V54.7395Z" fill="#0B0B0B"/>
<path d="M494.836 45.1493H485.351C485.06 45.1493 484.824 45.3852 484.824 45.6762C484.824 45.9673 485.06 46.2032 485.351 46.2032H494.836C495.127 46.2032 495.363 45.9673 495.363 45.6762C495.363 45.3852 495.127 45.1493 494.836 45.1493Z" fill="#0B0B0B"/>
<path d="M494.836 48.3109H492.728C492.437 48.3109 492.201 48.5468 492.201 48.8378C492.201 49.1289 492.437 49.3648 492.728 49.3648H494.836C495.127 49.3648 495.363 49.1289 495.363 48.8378C495.363 48.5468 495.127 48.3109 494.836 48.3109Z" fill="#0B0B0B"/>
<path d="M486.827 52.5265H479.449C479.159 52.5265 478.922 52.7631 478.922 53.0534C478.922 53.3438 479.159 53.5804 479.449 53.5804H486.827C487.117 53.5804 487.353 53.3438 487.353 53.0534C487.353 52.7631 487.117 52.5265 486.827 52.5265Z" fill="#0B0B0B"/>
<path d="M486.827 55.6881H481.557C481.266 55.6881 481.03 55.924 481.03 56.215C481.03 56.5061 481.266 56.742 481.557 56.742H486.827C487.118 56.742 487.353 56.5061 487.353 56.215C487.353 55.924 487.118 55.6881 486.827 55.6881Z" fill="#0B0B0B"/>
<path d="M477.342 56.742H479.449C479.74 56.742 479.976 56.5061 479.976 56.215C479.976 55.924 479.74 55.6881 479.449 55.6881H477.342C477.051 55.6881 476.815 55.924 476.815 56.215C476.815 56.5061 477.051 56.742 477.342 56.742Z" fill="#0B0B0B"/>
<path d="M482.611 58.8496H477.447C477.156 58.8496 476.92 59.0855 476.92 59.3765C476.92 59.6676 477.156 59.9035 477.447 59.9035H482.611C482.902 59.9035 483.138 59.6676 483.138 59.3765C483.138 59.0855 482.902 58.8496 482.611 58.8496Z" fill="#0B0B0B"/>
<path d="M585.167 83.9126C585.167 79.7125 581.754 76.2613 577.516 76.2613C574.952 76.2613 572.679 77.5289 571.29 79.47H561.642V77.6158C561.642 77.0226 561.159 76.5399 560.566 76.5399H558.374C557.781 76.5399 557.298 77.0226 557.298 77.6158V79.47H556.771C555.497 79.47 554.46 78.4331 554.46 77.1585V73.7083C554.46 72.4337 555.497 71.3967 556.771 71.3967H578.659C579.934 71.3967 580.971 72.4337 580.971 73.7083V75.7969C580.971 76.0518 581.177 76.2584 581.432 76.2584C581.687 76.2584 581.894 76.0518 581.894 75.7969V73.7083C581.894 71.9248 580.443 70.4738 578.659 70.4738H573.869V68.472C573.869 66.4794 572.248 64.8583 570.256 64.8583H565.175C563.182 64.8583 561.561 66.4794 561.561 68.472V70.4738H556.771C554.988 70.4738 553.537 71.9248 553.537 73.7083V87.3941C553.537 89.1776 554.988 90.6287 556.771 90.6287H571.521C571.776 90.6287 571.982 90.4221 571.982 90.1672C571.982 89.9123 571.776 89.7057 571.521 89.7057H556.771C555.497 89.7057 554.46 88.6687 554.46 87.3941V79.4178C555.047 80.0189 555.866 80.393 556.771 80.393H557.298V80.8621C557.298 82.0595 558.273 83.0337 559.47 83.0337C560.667 83.0337 561.642 82.0595 561.642 80.8621V80.393H570.724C570.175 81.4473 569.865 82.6443 569.865 83.9126C569.865 88.1138 573.279 91.5639 577.516 91.5639C581.749 91.5639 585.167 88.1169 585.167 83.9126ZM571.09 70.4738H564.34V68.472C564.34 68.0118 564.715 67.6375 565.175 67.6375H570.256C570.716 67.6375 571.09 68.0119 571.09 68.472V70.4738ZM562.484 68.472C562.484 66.9883 563.691 65.7812 565.175 65.7812H570.256C571.739 65.7812 572.946 66.9883 572.946 68.472V70.4738H572.013V68.472C572.013 67.503 571.225 66.7145 570.256 66.7145H565.175C564.206 66.7145 563.417 67.503 563.417 68.472V70.4738H562.484V68.472ZM558.374 77.4629H560.566C560.65 77.4629 560.719 77.5315 560.719 77.6158V78.3233H558.221V77.6158C558.221 77.5315 558.29 77.4629 558.374 77.4629ZM560.719 80.8621C560.719 81.5506 560.159 82.1107 559.47 82.1107C558.782 82.1107 558.221 81.5506 558.221 80.8621V79.2462H560.719V80.8621H560.719ZM583.542 86.9029C582.954 86.7363 582.218 86.5988 581.381 86.4957C581.689 84.8421 581.689 82.9861 581.381 81.3294C582.218 81.2263 582.954 81.0889 583.542 80.9222C583.991 81.8236 584.244 82.8389 584.244 83.9125C584.244 84.9862 583.991 86.0016 583.542 86.9029ZM580.241 80.5163C579.531 80.5745 578.766 80.6101 577.977 80.6202V77.2631C579.158 77.6621 579.899 79.3174 580.241 80.5163ZM577.055 77.2603V80.6202C576.266 80.6101 575.502 80.5745 574.792 80.5164C575.278 78.8047 576.113 77.5697 577.055 77.2603ZM574.79 87.3089C575.501 87.2508 576.265 87.2151 577.055 87.2051V90.5642C576.113 90.2562 575.277 89.0278 574.79 87.3089ZM577.977 90.5621V87.205C578.766 87.2151 579.531 87.2507 580.241 87.3089C579.9 88.5074 579.159 90.1631 577.977 90.5621ZM577.977 86.282V81.5433C578.849 81.5327 579.684 81.4924 580.457 81.4255C580.765 83.0131 580.767 84.7994 580.457 86.3997C579.684 86.3329 578.849 86.2925 577.977 86.282ZM583.055 80.097C582.532 80.228 581.894 80.3382 581.176 80.4232C580.871 79.2874 580.42 78.3221 579.865 77.6078C581.166 78.0941 582.277 78.9719 583.055 80.097ZM575.161 77.6101C574.609 78.3211 574.16 79.283 573.855 80.4232C573.138 80.338 572.499 80.2279 571.977 80.097C572.754 78.9736 573.863 78.0969 575.161 77.6101ZM571.49 80.9223C572.078 81.089 572.814 81.2265 573.652 81.3296C573.554 81.8557 573.485 82.4109 573.449 82.9901C573.433 83.2444 573.626 83.4636 573.881 83.4795C574.135 83.4952 574.354 83.3022 574.37 83.0477C574.406 82.4828 574.476 81.939 574.575 81.4256C575.348 81.4924 576.184 81.5327 577.055 81.5433V86.282C576.184 86.2926 575.348 86.3329 574.575 86.3997C574.497 85.9964 574.437 85.5744 574.398 85.1368C574.375 84.883 574.15 84.695 573.897 84.7184C573.643 84.7412 573.455 84.9654 573.478 85.2192C573.517 85.6554 573.577 86.0822 573.654 86.4954C572.816 86.5985 572.079 86.7361 571.49 86.903C571.041 86.0016 570.788 84.9862 570.788 83.9127C570.788 82.839 571.041 81.8236 571.49 80.9223ZM571.977 87.7282C572.501 87.5969 573.141 87.4866 573.861 87.4014C574.124 88.3817 574.541 89.4114 575.166 90.2172C573.866 89.7309 572.755 88.8532 571.977 87.7282ZM579.865 90.2174C580.42 89.5031 580.871 88.5378 581.176 87.402C581.894 87.4871 582.532 87.5972 583.055 87.7282C582.277 88.8533 581.166 89.7311 579.865 90.2174Z" fill="#0B0B0B"/>
<path d="M23.2596 171C18.3864 171 14.4216 174.965 14.4216 179.838V179.895C14.4216 182.256 15.3412 184.476 17.0102 186.145L17.6949 186.829C19.5039 188.639 20.7735 190.847 21.4402 193.282C19.6025 193.673 18.3987 194.629 18.3987 195.746C18.3987 197.233 20.534 198.398 23.2596 198.398C25.9852 198.398 28.1205 197.233 28.1205 195.746C28.1205 194.63 26.9171 193.673 25.0794 193.281C25.7462 190.847 27.0158 188.638 28.825 186.829L29.5094 186.145C31.178 184.476 32.0976 182.256 32.0976 179.895V179.838C32.0976 174.965 28.1328 171 23.2596 171V171ZM27.2367 195.746C27.2367 196.582 25.6035 197.514 23.2596 197.514C20.9157 197.514 19.2825 196.582 19.2825 195.746C19.2825 195.088 20.2755 194.431 21.6497 194.141C21.7054 194.406 21.7632 194.671 21.8049 194.94C21.9158 195.663 22.5279 196.188 23.2596 196.188C23.9913 196.188 24.6034 195.663 24.7143 194.94C24.756 194.671 24.8138 194.406 24.8695 194.141C26.2437 194.431 27.2367 195.088 27.2367 195.746ZM31.2138 179.895C31.2138 182.02 30.3861 184.017 28.8841 185.52L28.1997 186.205C25.8527 188.552 24.3454 191.526 23.8411 194.806C23.7964 195.094 23.5522 195.304 23.2596 195.304C22.967 195.304 22.7228 195.094 22.6781 194.806C22.1734 191.525 20.6665 188.551 18.3195 186.204L17.6351 185.52C16.1331 184.017 15.3054 182.02 15.3054 179.895V179.838C15.3054 175.452 18.8738 171.884 23.2596 171.884C27.6454 171.884 31.2138 175.452 31.2138 179.838V179.895Z" fill="#0B0B0B"/>
<path d="M23.2596 173.651C19.8481 173.651 17.0731 176.426 17.0731 179.838C17.0731 183.25 19.8481 186.025 23.2596 186.025C26.6712 186.025 29.4462 183.25 29.4462 179.838C29.4462 176.426 26.6712 173.651 23.2596 173.651ZM23.2596 185.141C20.3355 185.141 17.9569 182.762 17.9569 179.838C17.9569 176.914 20.3355 174.535 23.2596 174.535C26.1838 174.535 28.5624 176.914 28.5624 179.838C28.5624 182.762 26.1838 185.141 23.2596 185.141Z" fill="#0B0B0B"/>
<path d="M21.0501 186.908H21.9339V187.792H21.0501V186.908Z" fill="#0B0B0B"/>
<path d="M22.8177 186.908H23.7015V187.792H22.8177V186.908Z" fill="#0B0B0B"/>
<path d="M24.5853 186.908H25.4691V187.792H24.5853V186.908Z" fill="#0B0B0B"/>
<path d="M579.12 165.233C571.682 165.233 565.631 171.285 565.631 178.723C565.631 186.161 571.682 192.212 579.12 192.212C586.558 192.212 592.61 186.161 592.61 178.723C592.61 171.285 586.559 165.233 579.12 165.233ZM579.12 190.754C575.816 190.754 572.818 189.415 570.642 187.25C569.772 186.386 569.035 185.39 568.46 184.295C567.585 182.628 567.089 180.733 567.089 178.723C567.089 172.089 572.486 166.692 579.12 166.692C582.267 166.692 585.135 167.907 587.281 169.891C588.394 170.92 589.313 172.156 589.975 173.537C590.729 175.108 591.151 176.867 591.151 178.723C591.151 185.357 585.754 190.754 579.12 190.754Z" fill="#0B0B0B"/>
<path d="M574.509 175.661C575.293 175.661 575.931 176.262 575.931 177.082H577.389C577.389 175.442 576.097 174.202 574.509 174.202C572.921 174.202 571.629 175.442 571.629 177.082H573.088C573.088 176.262 573.726 175.661 574.509 175.661Z" fill="#0B0B0B"/>
<path d="M583.731 175.661C584.515 175.661 585.153 176.262 585.153 177.082H586.611C586.611 175.442 585.319 174.202 583.731 174.202C582.143 174.202 580.851 175.442 580.851 177.082H582.309C582.309 176.262 582.947 175.661 583.731 175.661Z" fill="#0B0B0B"/>
<path d="M579.094 186.197C581.916 186.197 584.62 184.754 586.168 182.358L584.943 181.567C583.521 183.767 580.92 184.994 578.317 184.694C576.288 184.46 574.412 183.291 573.298 181.567L572.073 182.358C573.421 184.444 575.693 185.859 578.15 186.142C578.465 186.179 578.78 186.197 579.094 186.197Z" fill="#0B0B0B"/>
<path d="M531.868 240.313L524.79 233.236C524.556 233.002 524.176 233.002 523.942 233.236C523.708 233.47 523.708 233.849 523.942 234.084L530.844 240.985L530.842 241.811C530.842 242.143 531.11 242.411 531.441 242.412C531.442 242.412 531.442 242.412 531.442 242.412C531.773 242.412 532.041 242.144 532.042 241.813L532.043 240.738C532.044 240.579 531.98 240.426 531.868 240.313Z" fill="#0B0B0B"/>
<path d="M537.31 235.932C537.31 235.932 537.31 235.932 537.309 235.932L535.894 235.934L528.993 229.033C528.759 228.799 528.379 228.799 528.145 229.033C527.911 229.267 527.911 229.647 528.145 229.881L535.222 236.958C535.335 237.071 535.487 237.134 535.646 237.134C535.647 237.134 535.647 237.134 535.647 237.134L537.311 237.131C537.642 237.131 537.91 236.862 537.91 236.531C537.909 236.2 537.641 235.932 537.31 235.932Z" fill="#0B0B0B"/>
<path d="M548.332 230.789C548.098 230.555 547.718 230.555 547.484 230.789L542.339 235.934L541.513 235.933C541.51 235.933 541.507 235.933 541.504 235.933C539.918 235.933 538.426 236.551 537.305 237.673L536.766 238.212C536.532 238.446 536.532 238.825 536.766 239.06C536.883 239.177 537.036 239.235 537.19 239.235C537.343 239.235 537.497 239.177 537.614 239.06L538.153 238.521C539.048 237.625 540.238 237.132 541.504 237.132C541.506 237.132 541.509 237.132 541.511 237.132L542.586 237.134C542.586 237.134 542.587 237.134 542.587 237.134C542.746 237.134 542.899 237.071 543.011 236.958L548.332 231.637C548.566 231.403 548.566 231.023 548.332 230.789Z" fill="#0B0B0B"/>
<path d="M554.291 233.236C554.057 233.001 553.677 233.001 553.443 233.236L546.366 240.313C546.253 240.426 546.19 240.579 546.19 240.738L546.193 242.402C546.193 242.732 546.461 243 546.792 243C546.793 243 546.793 243 546.793 243C547.124 243 547.392 242.731 547.392 242.4L547.39 240.985L554.291 234.084C554.525 233.849 554.525 233.47 554.291 233.236Z" fill="#0B0B0B"/>
<path d="M554.291 254.331L547.39 247.43L547.391 246.603C547.392 245.815 547.24 245.047 546.938 244.319C546.811 244.013 546.46 243.868 546.154 243.995C545.848 244.122 545.703 244.473 545.83 244.779C546.071 245.36 546.193 245.973 546.192 246.601L546.19 247.677C546.19 247.836 546.253 247.989 546.366 248.102L553.443 255.179C553.56 255.296 553.714 255.355 553.867 255.355C554.021 255.355 554.174 255.296 554.291 255.179C554.526 254.945 554.526 254.565 554.291 254.331Z" fill="#0B0B0B"/>
<path d="M550.089 258.534L543.011 251.456C542.899 251.344 542.746 251.281 542.587 251.281C542.587 251.281 542.586 251.281 542.586 251.281L540.923 251.283C540.591 251.284 540.323 251.552 540.324 251.884C540.324 252.214 540.593 252.482 540.923 252.482C540.924 252.482 540.924 252.482 540.924 252.482L542.339 252.48L549.241 259.382C549.358 259.499 549.511 259.557 549.665 259.557C549.818 259.557 549.972 259.499 550.089 259.382C550.323 259.148 550.323 258.768 550.089 258.534Z" fill="#0B0B0B"/>
<path d="M545.211 244.071C545.075 243.935 544.921 243.828 544.757 243.748C544.897 243.498 544.972 243.216 544.972 242.922C544.972 242.471 544.797 242.047 544.478 241.728C544.333 241.584 544.169 241.471 543.994 241.39C544.296 240.761 544.188 239.982 543.667 239.462C543.147 238.941 542.368 238.833 541.74 239.135C541.657 238.957 541.544 238.794 541.401 238.651C540.742 237.993 539.671 237.993 539.012 238.651L536.618 241.045C536.572 240.56 536.322 240.098 535.896 239.8C535.516 239.534 535.055 239.434 534.599 239.519C534.143 239.605 533.749 239.864 533.491 240.249L531.848 242.699C531.188 243.683 530.84 244.83 530.842 246.015L530.844 247.43L523.942 254.331C523.708 254.565 523.708 254.945 523.942 255.179C524.059 255.296 524.213 255.355 524.366 255.355C524.52 255.355 524.673 255.296 524.79 255.179L531.868 248.102C531.98 247.989 532.044 247.836 532.043 247.677L532.041 246.013C532.04 245.067 532.317 244.152 532.844 243.367L534.487 240.917C534.564 240.802 534.682 240.724 534.819 240.698C534.956 240.673 535.094 240.703 535.208 240.782C535.429 240.937 535.493 241.239 535.353 241.47L534.711 242.529C534.509 242.863 534.585 243.28 534.892 243.521C535.199 243.762 535.623 243.736 535.899 243.46L539.86 239.499C540.051 239.308 540.362 239.308 540.553 239.499C540.646 239.592 540.697 239.715 540.697 239.846C540.697 239.957 540.66 240.062 540.592 240.148L538.248 242.498C538.014 242.732 538.014 243.111 538.248 243.346C538.482 243.58 538.862 243.58 539.096 243.346L542.126 240.31C542.317 240.119 542.628 240.119 542.819 240.31C543.01 240.501 543.01 240.812 542.819 241.003L539.786 244.036C539.552 244.27 539.552 244.65 539.786 244.884C539.903 245.001 540.057 245.06 540.21 245.06C540.364 245.06 540.517 245.001 540.634 244.884L542.981 242.537C543.173 242.386 543.453 242.399 543.63 242.576C543.722 242.668 543.773 242.791 543.773 242.922C543.773 243.053 543.722 243.176 543.63 243.269L541.324 245.574C541.09 245.808 541.09 246.188 541.324 246.422C541.442 246.539 541.595 246.598 541.748 246.598C541.902 246.598 542.055 246.539 542.172 246.422L543.714 244.881C543.906 244.729 544.186 244.742 544.363 244.919C544.456 245.012 544.507 245.135 544.507 245.266C544.507 245.397 544.456 245.52 544.363 245.612L540.081 249.894C539.186 250.79 537.996 251.282 536.73 251.282C536.727 251.282 536.725 251.282 536.723 251.282L535.648 251.281C535.647 251.281 535.647 251.281 535.647 251.281C535.488 251.281 535.335 251.344 535.223 251.456L529.652 257.028C529.417 257.262 529.417 257.641 529.652 257.876C529.769 257.993 529.922 258.051 530.076 258.051C530.229 258.051 530.383 257.993 530.5 257.876L535.895 252.48L536.721 252.482C536.724 252.482 536.727 252.482 536.73 252.482C538.316 252.482 539.807 251.864 540.929 250.742L545.211 246.46C545.869 245.802 545.869 244.73 545.211 244.071Z" fill="#0B0B0B"/>
<path d="M521.588 115.821V109.958C521.588 108.671 520.542 107.625 519.255 107.625H501.755C500.468 107.625 499.422 108.671 499.422 109.958V121.625C499.422 122.912 500.468 123.958 501.755 123.958H514.837C515.601 126.647 518.074 128.625 521.005 128.625C522.133 128.625 523.242 128.328 524.214 127.766C524.492 127.605 524.588 127.248 524.426 126.969C524.265 126.69 523.908 126.594 523.629 126.757C522.835 127.216 521.928 127.458 521.005 127.458C518.11 127.458 515.755 125.103 515.755 122.208C515.755 119.313 518.11 116.958 521.005 116.958C523.9 116.958 526.255 119.313 526.255 122.208V122.792C526.255 123.435 525.731 123.958 525.088 123.958C524.445 123.958 523.922 123.435 523.922 122.792V120.458C523.922 120.136 523.661 119.875 523.338 119.875C523.181 119.875 523.04 119.938 522.936 120.039C522.42 119.58 521.748 119.292 521.005 119.292C519.397 119.292 518.088 120.6 518.088 122.208C518.088 123.816 519.397 125.125 521.005 125.125C521.874 125.125 522.647 124.735 523.182 124.13C523.605 124.73 524.3 125.125 525.088 125.125C526.375 125.125 527.422 124.079 527.422 122.792V122.208C527.422 118.867 524.854 116.117 521.588 115.821ZM501.755 108.792H519.255C519.279 108.792 519.3 108.804 519.324 108.806L510.985 115.65C510.688 115.837 510.258 115.798 510.065 115.68L501.687 108.805C501.711 108.804 501.731 108.792 501.755 108.792ZM520.422 115.821C517.156 116.117 514.588 118.867 514.588 122.208C514.588 122.405 514.6 122.599 514.618 122.792H501.755C501.112 122.792 500.588 122.268 500.588 121.625V109.958C500.588 109.793 500.625 109.637 500.687 109.495L509.376 116.62C509.715 116.842 510.106 116.958 510.505 116.958C510.889 116.958 511.264 116.85 511.595 116.645C511.628 116.627 511.659 116.606 511.689 116.582L520.323 109.494C520.385 109.637 520.422 109.793 520.422 109.958V115.821H520.422ZM521.005 123.958C520.04 123.958 519.255 123.173 519.255 122.208C519.255 121.243 520.04 120.458 521.005 120.458C521.97 120.458 522.755 121.243 522.755 122.208C522.755 123.173 521.97 123.958 521.005 123.958Z" fill="black"/>
</svg>
