<svg width="24" height="23" viewBox="0 0 24 23" fill="none" xmlns="http://www.w3.org/2000/svg">
<path fill-rule="evenodd" clip-rule="evenodd" d="M23.7498 11.4368C23.7498 17.7532 18.6294 22.8736 12.313 22.8736C5.99665 22.8736 0.876221 17.7532 0.876221 11.4368C0.876221 5.12043 5.99665 0 12.313 0C18.6294 0 23.7498 5.12043 23.7498 11.4368ZM17.1364 6.93736L6.10944 11.189C5.35366 11.4844 5.367 11.9028 5.97982 12.0973L8.80281 12.9779L15.3513 8.85493C15.6554 8.65288 15.9375 8.76725 15.7068 8.97025L10.4078 13.7575L10.2048 16.6672C10.5002 16.6672 10.6289 16.5386 10.7814 16.3861L12.1605 15.0575L15.0197 17.1647C15.541 17.4602 15.9136 17.3077 16.0528 16.6806L17.9303 7.83515L17.9294 7.8361C18.0952 7.06221 17.6482 6.75246 17.1364 6.93736Z" fill="#E07275"/>
</svg>
