<svg width="19" height="18" viewBox="0 0 19 18" fill="none" xmlns="http://www.w3.org/2000/svg">
<path fill-rule="evenodd" clip-rule="evenodd" d="M8.79701 14.1483C9.0607 14.1645 9.3089 14.2952 9.49053 14.5135C9.67216 14.7319 9.77339 15.0212 9.77339 15.3219C9.77339 15.6227 9.67216 15.912 9.49053 16.1303C9.3089 16.3486 9.0607 16.4793 8.79701 16.4955C8.52383 16.4952 8.26189 16.3716 8.06863 16.1517C7.87537 15.9318 7.76654 15.6336 7.76601 15.3225C7.79201 14.6597 8.24201 14.1483 8.79601 14.1483H8.79701ZM8.77101 12.6416C8.26446 12.6449 7.77236 12.8342 7.36775 13.1814C6.63139 13.8131 5.84692 14.5685 4.87667 14.5685H0.972012C0.575012 14.5685 0.312012 14.8988 0.312012 15.3202C0.312012 15.7416 0.602012 16.073 0.972012 16.073H3.35841C5.2285 16.073 6.92592 18 8.79601 18C9.30687 18.0018 9.80448 17.815 10.2143 17.4676C10.9606 16.8349 11.752 16.073 12.7304 16.073H17.65C18.02 16.073 18.311 15.7427 18.311 15.3213C18.311 14.9 18.021 14.5685 17.651 14.5685H12.7029C11.7248 14.5685 10.9336 13.807 10.1877 13.1743C9.77808 12.8269 9.2807 12.64 8.77001 12.6416H8.77101ZM13.58 7.52458C14.136 7.52458 14.612 8.03593 14.612 8.69762C14.6003 9.00009 14.4866 9.28574 14.2945 9.49506C14.1024 9.70438 13.8469 9.82122 13.581 9.82122C13.3152 9.82122 13.0596 9.70438 12.8675 9.49506C12.6754 9.28574 12.5617 9.00009 12.55 8.69762C12.55 8.03593 13 7.52458 13.58 7.52458ZM13.554 6.01898C13.0475 6.02235 12.5554 6.21165 12.1508 6.55878C11.4144 7.19056 10.6299 7.94596 9.65967 7.94596H0.972012C0.575012 7.94596 0.312012 8.27624 0.312012 8.69762C0.312012 9.11901 0.602012 9.45042 0.972012 9.45042H8.11732C9.98688 9.45042 11.6835 11.3774 13.553 11.3774C14.064 11.3794 14.5619 11.1927 14.9719 10.8453C15.7186 10.2126 16.5102 9.45042 17.4889 9.45042H17.65C18.02 9.45042 18.311 9.12015 18.311 8.69876C18.311 8.27738 18.021 7.94596 17.651 7.94596H17.4889C16.5102 7.94596 15.7186 7.1838 14.9719 6.55106C14.5619 6.20363 14.064 6.01694 13.553 6.01898H13.554ZM5.62401 1.50332C5.82829 1.50287 6.02809 1.57148 6.19811 1.70045C6.36813 1.82942 6.50071 2.01296 6.57907 2.22781C6.65743 2.44267 6.67803 2.67918 6.63828 2.90738C6.59852 3.13558 6.50019 3.34521 6.35574 3.50972C6.2113 3.67423 6.02723 3.78622 5.82685 3.83149C5.62648 3.87677 5.41881 3.8533 5.23016 3.76406C5.0415 3.67482 4.88035 3.52383 4.7671 3.3302C4.65386 3.13657 4.59362 2.90902 4.59401 2.67637C4.59401 2.01582 5.07001 1.50332 5.62401 1.50332ZM5.59901 0C5.09254 0.00298044 4.60041 0.191839 4.19564 0.538553C3.45882 1.16968 2.67426 1.92471 1.70409 1.92471H0.946012C0.576012 1.92471 0.312012 2.25612 0.312012 2.67751C0.312012 3.09889 0.602012 3.42917 0.972012 3.42917C2.38209 3.42917 3.54646 4.69255 4.85841 5.20938C5.09991 5.30452 5.35829 5.35615 5.62501 5.35615C6.13574 5.35801 6.63325 5.17137 7.04303 4.82418C7.78937 4.19182 8.58072 3.4303 9.55894 3.4303H17.651C18.021 3.4303 18.312 3.10003 18.312 2.67751C18.312 2.25612 18.022 1.92584 17.652 1.92584H9.56427C8.57923 1.92584 7.77899 1.16755 7.02388 0.535007C6.61053 0.188753 6.11113 0.00136813 5.59801 0" fill="#D84E52"/>
</svg>
