<svg width="32" height="26" viewBox="0 0 32 26" fill="none" xmlns="http://www.w3.org/2000/svg">
<path fill-rule="evenodd" clip-rule="evenodd" d="M15.1285 20.4364C15.5747 20.4598 15.9947 20.6487 16.3021 20.964C16.6094 21.2793 16.7807 21.6972 16.7807 22.1317C16.7807 22.5661 16.6094 22.984 16.3021 23.2993C15.9947 23.6146 15.5747 23.8035 15.1285 23.8269C14.6662 23.8264 14.2229 23.6478 13.8959 23.3302C13.5689 23.0126 13.3847 22.5819 13.3838 22.1325C13.4278 21.1751 14.1893 20.4364 15.1268 20.4364H15.1285ZM15.0845 18.26C14.2273 18.2649 13.3945 18.5383 12.7099 19.0397C12.0252 19.5412 11.5251 20.2438 11.2838 21.0435H1.88688C1.21507 21.0435 0.77002 21.5205 0.77002 22.1292C0.77002 22.7379 1.26076 23.2166 1.88688 23.2166H11.3244C11.7711 24.8254 13.3381 26 15.1268 26C15.9913 26.0026 16.8333 25.7327 17.5268 25.2309C18.2202 24.7291 18.7277 24.0224 18.9732 23.2166H30.1097C30.7358 23.2166 31.2282 22.7395 31.2282 22.1308C31.2282 21.5222 30.7375 21.0435 30.1114 21.0435H18.9275C18.6821 20.2379 18.1749 19.5314 17.4818 19.0296C16.7887 18.5278 15.947 18.2578 15.0828 18.26H15.0845ZM23.2224 10.8688C24.1632 10.8688 24.9687 11.6075 24.9687 12.5632C24.9489 13.0001 24.7565 13.4127 24.4314 13.7151C24.1064 14.0174 23.6739 14.1862 23.2241 14.1862C22.7742 14.1862 22.3417 14.0174 22.0167 13.7151C21.6916 13.4127 21.4992 13.0001 21.4794 12.5632C21.4794 11.6075 22.2409 10.8688 23.2224 10.8688ZM23.1784 8.69408C22.3212 8.69895 21.4884 8.97238 20.8037 9.47379C20.1191 9.97521 19.619 10.6779 19.3776 11.4775H1.88688C1.21507 11.4775 0.77002 11.9546 0.77002 12.5632C0.77002 13.1719 1.26076 13.6506 1.88688 13.6506H19.376C19.8227 15.2595 21.3897 16.434 23.1767 16.434C24.0414 16.437 24.8839 16.1673 25.5777 15.6655C26.2715 15.1636 26.7792 14.4567 27.0248 13.6506H30.1097C30.7358 13.6506 31.2282 13.1735 31.2282 12.5649C31.2282 11.9562 30.7375 11.4775 30.1114 11.4775H27.0248C26.7792 10.6714 26.2715 9.96447 25.5777 9.46264C24.8839 8.9608 24.0414 8.69114 23.1767 8.69408H23.1784ZM9.75908 2.17146C10.1048 2.17081 10.4429 2.26991 10.7306 2.4562C11.0183 2.6425 11.2426 2.90761 11.3752 3.21795C11.5078 3.5283 11.5427 3.86992 11.4754 4.19955C11.4082 4.52917 11.2418 4.83197 10.9973 5.0696C10.7529 5.30722 10.4414 5.46898 10.1023 5.53438C9.76325 5.59978 9.41184 5.56588 9.09259 5.43698C8.77335 5.30808 8.50064 5.08997 8.309 4.81028C8.11736 4.5306 8.01543 4.20191 8.0161 3.86586C8.0161 2.91173 8.82159 2.17146 9.75908 2.17146ZM9.71677 0C8.85971 0.00430508 8.02692 0.277101 7.34196 0.77791C6.65699 1.27872 6.15637 1.98085 5.91436 2.78013H1.84289C1.21676 2.78013 0.77002 3.25884 0.77002 3.86751C0.77002 4.47618 1.26076 4.95324 1.88688 4.95324H5.95836C6.4051 6.56539 7.9721 7.73666 9.76077 7.73666C10.625 7.73935 11.4669 7.46976 12.1604 6.96826C12.8538 6.46677 13.3614 5.76037 13.6072 4.95488H30.1114C30.7375 4.95488 31.2299 4.47782 31.2299 3.86751C31.2299 3.25884 30.7392 2.78178 30.1131 2.78178H13.6055C13.3449 1.97658 12.8274 1.27293 12.128 0.772788C11.4285 0.272644 10.5834 0.00197619 9.71508 0" fill="white"/>
</svg>
