<svg width="32" height="26" viewBox="0 0 32 26" fill="none" xmlns="http://www.w3.org/2000/svg">
<path d="M0.347231 0.350809C0.578831 0.117195 0.853956 0 1.17075 0H19.9115C20.2287 0 20.5034 0.117195 20.735 0.350809C20.9668 0.584747 21.0827 0.861889 21.0827 1.18191V4.72739H24.0111C24.3406 4.72739 24.6976 4.8074 25.0819 4.96741C25.4663 5.12768 25.7743 5.3243 26.006 5.55823L29.6298 9.21451C29.7883 9.37452 29.9254 9.55904 30.0416 9.76847C30.1574 9.97737 30.2429 10.1656 30.2978 10.3315C30.3526 10.4978 30.3925 10.7253 30.4166 11.0149C30.4409 11.3043 30.4564 11.5166 30.4625 11.6521C30.4683 11.7874 30.4683 12.0214 30.4625 12.3539C30.4563 12.6864 30.4532 12.9017 30.4532 13.0003V18.9092C30.7704 18.9092 31.0448 19.0261 31.2768 19.2603C31.5086 19.4937 31.6245 19.771 31.6245 20.0911C31.6245 20.2755 31.6003 20.4388 31.5514 20.5802C31.5025 20.7218 31.4203 20.8356 31.3041 20.9219C31.1883 21.0083 31.0876 21.0788 31.0023 21.1344C30.9167 21.1897 30.7734 21.2265 30.5721 21.2451C30.3708 21.2636 30.2336 21.276 30.1604 21.2822C30.0871 21.288 29.9316 21.288 29.6938 21.2822C29.4556 21.276 29.3185 21.2729 29.2818 21.2729H28.1106C28.1106 22.5775 27.653 23.6917 26.7381 24.6151C25.8229 25.5383 24.7188 26 23.4255 26C22.1322 26 21.028 25.5383 20.113 24.6151C19.1978 23.6917 18.7405 22.5775 18.7405 21.2729H11.7126C11.7126 22.5775 11.255 23.6917 10.34 24.6151C9.42525 25.5383 8.32097 26 7.02759 26C5.73396 26 4.63038 25.5383 3.71514 24.6151C2.79996 23.6917 2.34259 22.5775 2.34259 21.2729C2.30618 21.2729 2.16881 21.276 1.93106 21.2822C1.69305 21.288 1.53747 21.288 1.46427 21.2822C1.39094 21.276 1.25344 21.2636 1.05229 21.2451C0.85107 21.2265 0.707869 21.1898 0.622293 21.1344C0.536716 21.079 0.436333 21.0083 0.320436 20.9219C0.204412 20.8356 0.121916 20.7218 0.0732613 20.5802C0.0239029 20.4387 -7.62939e-06 20.2754 -7.62939e-06 20.0911V1.18211C-0.000263214 0.862019 0.115568 0.5852 0.347231 0.350809ZM21.7787 22.9348C22.2421 23.4024 22.7913 23.6368 23.4257 23.6368C24.0602 23.6368 24.6093 23.4027 25.0729 22.9348C25.5366 22.4673 25.7683 21.9131 25.7683 21.2731C25.7683 20.633 25.5363 20.0785 25.0729 19.6108C24.6093 19.1433 24.0603 18.9092 23.4257 18.9092C22.7913 18.9092 22.2421 19.1431 21.7787 19.6108C21.3148 20.0785 21.083 20.633 21.083 21.2731C21.083 21.9131 21.3148 22.4673 21.7787 22.9348ZM21.083 11.8183H28.1108V11.2645C28.1108 11.1044 28.056 10.969 27.9462 10.8581L24.3774 7.25744C24.2677 7.14658 24.1333 7.09134 23.9747 7.09134H21.083V11.8183ZM5.38063 22.9348C5.84408 23.4024 6.39324 23.6368 7.02759 23.6368C7.6622 23.6368 8.21155 23.4027 8.67501 22.9348C9.13853 22.4673 9.37045 21.9131 9.37045 21.2731C9.37045 20.633 9.13859 20.0785 8.67501 19.6108C8.21155 19.1433 7.6622 18.9092 7.02759 18.9092C6.39324 18.9092 5.84408 19.1431 5.38063 19.6108C4.91711 20.0787 4.685 20.633 4.685 21.2731C4.685 21.9131 4.91666 22.4673 5.38063 22.9348Z" fill="white"/>
</svg>
