<svg width="17" height="17" viewBox="0 0 17 17" fill="none" xmlns="http://www.w3.org/2000/svg">
<path d="M12.8966 10.3816C12.5174 10.2897 12.1354 10.5267 12.0455 10.9066C11.955 11.2865 12.1906 11.6678 12.5705 11.7577C14.7679 12.2791 15.5645 13.0502 15.5645 13.4422C15.5645 14.2876 12.7431 15.5646 8.48981 15.5646C4.2372 15.5646 1.41513 14.2876 1.41513 13.4422C1.41513 13.0502 2.21246 12.2791 4.40842 11.7577C4.78903 11.6678 5.02392 11.2865 4.93335 10.9066C4.84352 10.5267 4.46148 10.2897 4.08227 10.3816C1.44979 11.0056 0.000183105 12.0923 0.000183105 13.4422C0.000183105 15.7641 4.27189 16.9796 8.48981 16.9796C12.7085 16.9796 16.9794 15.7641 16.9794 13.4422C16.9794 12.0923 15.5298 11.0056 12.8966 10.3816Z" fill="#0B0B0B"/>
<path d="M7.56891 13.1827L7.85686 13.7586C7.97714 13.9984 8.22192 14.1498 8.49004 14.1498C8.75816 14.1498 9.00296 13.9984 9.12321 13.7586L9.73304 12.5389C10.4752 11.0539 11.3906 9.61565 12.2757 8.22475L12.6789 7.59015C13.1784 6.80061 13.4423 5.88867 13.4423 4.95269C13.4423 3.54341 12.8389 2.19638 11.7868 1.25688C10.7355 0.318081 9.32132 -0.131837 7.91135 0.0337113C5.70968 0.284155 3.89151 2.05706 3.58658 4.24881C3.40617 5.54773 3.7309 6.83745 4.49991 7.88168C5.6998 9.50741 6.63648 11.3164 7.56891 13.1827ZM8.49004 2.83031C9.66018 2.83031 10.6124 3.78258 10.6124 4.95272C10.6124 6.12287 9.66018 7.07513 8.49004 7.07513C7.31989 7.07513 6.36763 6.12287 6.36763 4.95272C6.36763 3.78258 7.31989 2.83031 8.49004 2.83031Z" fill="#0B0B0B"/>
</svg>
