<svg width="15" height="16" viewBox="0 0 15 16" fill="none" xmlns="http://www.w3.org/2000/svg">
<path d="M12.3121 3.67418L12.8078 3.17844L13.3744 3.74502L14.3659 2.75352L12.2413 0.628906L11.2498 1.6204L11.8163 2.18695L11.1789 2.82433C7.77956 0.770525 3.38868 1.83283 1.40572 5.23222C-0.577243 8.6316 0.485031 12.8808 3.81361 14.9346C7.14218 16.9884 11.533 15.9261 13.516 12.5268C15.2865 9.6231 14.7908 5.94044 12.3121 3.67418ZM7.49626 13.8015C4.73426 13.8015 2.53884 11.6061 2.53884 8.8441C2.53884 6.0821 4.73426 3.88664 7.49626 3.88664V8.84406H12.4537C12.4537 11.6061 10.2583 13.8015 7.49626 13.8015Z" fill="#0B0B0B"/>
</svg>
