<svg width="9" height="17" viewBox="0 0 9 17" fill="none" xmlns="http://www.w3.org/2000/svg">
<path d="M4.46241 2.85842C5.25174 2.85842 5.89162 2.21854 5.89162 1.42921C5.89162 0.639879 5.25174 0 4.46241 0C3.67308 0 3.0332 0.639879 3.0332 1.42921C3.0332 2.21854 3.67308 2.85842 4.46241 2.85842Z" fill="#0B0B0B"/>
<path d="M4.96026 3.53994C4.60415 3.46764 4.21696 3.47081 3.86719 3.55326C1.49109 3.83168 0.719564 6.58196 0.937417 8.679C1.03192 9.58562 2.46113 9.59513 2.36568 8.679C2.2864 7.91477 2.32033 6.76145 2.72655 5.94172C2.72655 6.93808 2.72655 7.93443 2.72655 8.93047C2.72655 8.96567 2.73003 8.99865 2.73162 9.03258C2.73067 9.04875 2.72686 9.06239 2.72686 9.07888C2.72686 11.4505 2.72274 13.8212 2.62475 16.191C2.58131 17.2444 4.21474 17.2403 4.25786 16.191C4.3346 14.3337 4.35395 12.4754 4.35839 10.6169C4.43576 10.6219 4.51314 10.6219 4.59051 10.6175C4.59527 12.4761 4.61398 14.3343 4.69008 16.191C4.73353 17.2403 6.36696 17.2444 6.32319 16.191C6.22521 13.8212 6.22172 11.4505 6.22172 9.07888C6.22172 9.00531 6.21189 8.9384 6.19698 8.87403C6.19477 7.84437 6.15544 6.81377 6.16749 5.78475C6.65394 6.60828 6.69833 7.86435 6.61398 8.67837C6.51822 9.59386 7.94774 9.58467 8.04224 8.67837C8.26517 6.53789 7.45654 3.71625 4.96026 3.53994Z" fill="#0B0B0B"/>
</svg>
