<svg width="35" height="34" viewBox="0 0 35 34" fill="none" xmlns="http://www.w3.org/2000/svg">
<path fill-rule="evenodd" clip-rule="evenodd" d="M34.459 17C34.459 26.3888 26.8478 34 17.459 34C8.07014 34 0.458984 26.3888 0.458984 17C0.458984 7.61116 8.07014 0 17.459 0C26.8478 0 34.459 7.61116 34.459 17ZM24.6289 10.3119L8.23803 16.6317C7.11461 17.0709 7.13445 17.6928 8.04536 17.9818L12.2415 19.2908L21.9754 13.1623C22.4274 12.8619 22.8467 13.0319 22.5039 13.3337L14.6272 20.4496L14.3254 24.7747C14.7646 24.7747 14.9559 24.5834 15.1825 24.3568L17.2324 22.3819L21.4824 25.5142C22.2574 25.9534 22.8113 25.7267 23.0181 24.7945L25.8089 11.6464L25.8075 11.6479C26.054 10.4975 25.3896 10.0371 24.6289 10.3119Z" fill="#E07275"/>
</svg>
