<svg width="36" height="30" viewBox="0 0 36 30" fill="none" xmlns="http://www.w3.org/2000/svg">
<path d="M13.8591 27.2654C13.8591 25.775 12.6037 24.537 11.0861 24.537C9.5746 24.537 8.31922 25.775 8.31922 27.2654C8.31922 28.762 9.5746 30 11.0861 30C12.6037 30 13.8591 28.762 13.8591 27.2654ZM33.2394 27.2654C33.2394 25.775 31.984 24.537 30.4726 24.537C28.9549 24.537 27.6995 25.775 27.6995 27.2654C27.6995 28.762 28.9549 30 30.4726 30C31.9653 30.0061 33.2269 28.762 33.2269 27.2716L33.2394 27.2654ZM35.9938 4.07719C35.9938 3.33196 35.3692 2.71607 34.6135 2.71607H8.63151C8.41291 1.6937 8.36919 0 6.92019 0H1.38029C0.624566 0 0 0.615889 0 1.35496C0 2.09402 0.624566 2.70991 1.38029 2.70991H5.79597L9.62457 20.2566C9.27481 20.9218 8.30048 22.5169 8.30048 23.1759C8.30048 23.9211 8.9313 24.537 9.68702 24.537H31.8341C32.5899 24.537 33.2207 23.9211 33.2207 23.1759C33.2207 22.4307 32.5899 21.8148 31.8341 21.8148H11.9417C12.1541 21.3898 12.4601 20.9402 12.4601 20.4537C12.4601 19.9425 12.2852 19.4559 12.1853 18.9632L34.7634 16.358C35.4566 16.2903 36 15.6867 36 15.0092V4.07719H35.9938Z" fill="#0B0B0B"/>
</svg>
