<svg width="30" height="30" viewBox="0 0 30 30" fill="none" xmlns="http://www.w3.org/2000/svg">
<path fill-rule="evenodd" clip-rule="evenodd" d="M30 15C30 23.2843 23.2843 30 15 30C6.71573 30 0 23.2843 0 15C0 6.71573 6.71573 0 15 0C23.2843 0 30 6.71573 30 15ZM15.6108 21.5787H14.4334C14.4334 21.5787 11.8358 21.7351 9.54824 19.3535C7.0535 16.7558 4.85021 11.6011 4.85021 11.6011C4.85021 11.6011 4.7232 11.2631 4.86117 11.0997C5.01626 10.916 5.43873 10.9043 5.43873 10.9043L8.25301 10.8858C8.25301 10.8858 8.51826 10.9302 8.7081 11.0695C8.86452 11.1845 8.95223 11.3995 8.95223 11.3995C8.95223 11.3995 9.40706 12.5498 10.0095 13.5905C11.1852 15.6221 11.7328 16.0665 12.132 15.8488C12.7136 15.5314 12.5393 12.9768 12.5393 12.9768C12.5393 12.9768 12.5499 12.0495 12.2465 11.6367C12.0114 11.3166 11.5681 11.2233 11.3724 11.1971C11.2141 11.1759 11.474 10.8083 11.8109 10.6433C12.3173 10.3952 13.2117 10.381 14.2685 10.392C15.0918 10.4002 15.3287 10.4516 15.6506 10.5294C16.3975 10.7097 16.3742 11.2876 16.324 12.5345C16.3089 12.907 16.2915 13.3393 16.2915 13.8386C16.2915 13.9509 16.2883 14.0707 16.2849 14.1938C16.2674 14.8324 16.2475 15.5635 16.6677 15.8352C16.8833 15.9742 17.4106 15.8561 18.7293 13.6167C19.3545 12.5554 19.8232 11.3075 19.8232 11.3075C19.8232 11.3075 19.9256 11.085 20.0847 10.9896C20.2475 10.8922 20.4671 10.9222 20.4671 10.9222L23.4287 10.9037C23.4287 10.9037 24.3186 10.7976 24.4627 11.1992C24.6138 11.6209 24.13 12.6054 22.9201 14.218C21.7711 15.7495 21.2127 16.3124 21.2652 16.811C21.3035 17.1745 21.6664 17.5037 22.3618 18.1492C23.8196 19.5023 24.2081 20.2129 24.3005 20.3817C24.3079 20.3954 24.3135 20.4055 24.3175 20.4121C24.9699 21.494 23.5939 21.5787 23.5939 21.5787L20.9636 21.6154C20.9636 21.6154 20.3984 21.7274 19.6545 21.2164C19.2655 20.9494 18.8851 20.5134 18.5228 20.098C17.9688 19.4629 17.4568 18.8759 17.0199 19.0145C16.2867 19.2471 16.3097 20.8268 16.3097 20.8268C16.3097 20.8268 16.3151 21.1643 16.1479 21.344C15.9664 21.5397 15.6108 21.5787 15.6108 21.5787Z" fill="white"/>
</svg>
