<svg width="87" height="80" viewBox="0 0 87 80" fill="none" xmlns="http://www.w3.org/2000/svg">
<path d="M86.166 68.5618L75.1321 79.5957C74.9973 79.7305 74.836 79.836 74.6584 79.9054C74.4808 79.9748 74.2907 80.0066 74.1002 79.9988C73.9097 79.9911 73.7228 79.9439 73.5515 79.8602C73.3801 79.7766 73.228 79.6583 73.1046 79.5129L64.0293 68.9618L59.3537 75.058C58.8789 75.6672 58.2431 76.1314 57.5182 76.398C56.7933 76.6646 56.0082 76.723 55.2519 76.5665C54.4955 76.4101 53.798 76.0451 53.2384 75.5128C52.6787 74.9805 52.2792 74.3022 52.0851 73.5546L43.6993 42.2046C43.5089 41.5017 43.5074 40.761 43.695 40.0573C43.8825 39.3537 44.2524 38.712 44.7673 38.197C45.2823 37.6821 45.924 37.3122 46.6277 37.1246C47.3313 36.9371 48.072 36.9386 48.7749 37.129L80.1249 45.5148C80.8726 45.7125 81.5499 46.1157 82.0801 46.6788C82.6102 47.2419 82.9718 47.9424 83.1241 48.7006C83.2763 49.4589 83.213 50.2446 82.9413 50.9687C82.6696 51.6928 82.2004 52.3262 81.5869 52.7971L75.5321 57.4589L86.1246 66.5343C86.2673 66.6606 86.3822 66.815 86.4622 66.988C86.5422 67.1609 86.5856 67.3485 86.5894 67.539C86.5933 67.7295 86.5577 67.9187 86.4848 68.0947C86.4119 68.2708 86.3034 68.4298 86.166 68.5618Z" fill="#E07275"/>
<path d="M64.824 0H4.1377C3.04032 0 1.98788 0.435936 1.21191 1.21191C0.435935 1.98788 0 3.04032 0 4.1377V49.6524C0 50.7498 0.435935 51.8023 1.21191 52.5782C1.98788 53.3542 3.04032 53.7901 4.1377 53.7901H64.824C65.9214 53.7901 66.9739 53.3542 67.7498 52.5782C68.5258 51.8023 68.9617 50.7498 68.9617 49.6524V4.1377C68.9617 3.04032 68.5258 1.98788 67.7498 1.21191C66.9739 0.435936 65.9214 0 64.824 0ZM4.1377 2.75847H64.824C65.1898 2.75847 65.5406 2.90378 65.7993 3.16244C66.058 3.42109 66.2033 3.77191 66.2033 4.1377V8.27541H2.75847V4.1377C2.75847 3.77191 2.90378 3.42109 3.16244 3.16244C3.42109 2.90378 3.77191 2.75847 4.1377 2.75847ZM64.824 51.0317H4.1377C3.77191 51.0317 3.42109 50.8864 3.16244 50.6277C2.90378 50.3691 2.75847 50.0182 2.75847 49.6524V11.0339H66.2033V49.6524C66.2033 50.0182 66.058 50.3691 65.7993 50.6277C65.5406 50.8864 65.1898 51.0317 64.824 51.0317ZM22.0678 17.93H18.7852L17.7783 15.9302C17.6637 15.7027 17.4884 15.5114 17.2717 15.3775C17.055 15.2436 16.8055 15.1724 16.5508 15.1716H11.0339C10.6681 15.1716 10.3173 15.3169 10.0586 15.5755C9.79995 15.8342 9.65464 16.185 9.65464 16.5508V27.5847C9.65464 27.9505 9.79995 28.3013 10.0586 28.56C10.3173 28.8186 10.6681 28.9639 11.0339 28.9639H22.0678C22.4335 28.9639 22.7844 28.8186 23.043 28.56C23.3017 28.3013 23.447 27.9505 23.447 27.5847V19.3093C23.447 18.9435 23.3017 18.5927 23.043 18.334C22.7844 18.0754 22.4335 17.93 22.0678 17.93ZM20.6885 26.2055H12.4131V17.93H15.6957L16.7025 19.9299C16.8171 20.1574 16.9925 20.3487 17.2092 20.4826C17.4258 20.6165 17.6754 20.6877 17.93 20.6885H20.6885V26.2055ZM39.9978 17.93H36.7152L35.7084 15.9302C35.5938 15.7027 35.4184 15.5114 35.2017 15.3775C34.9851 15.2436 34.7356 15.1724 34.4809 15.1716H28.9639C28.5981 15.1716 28.2473 15.3169 27.9887 15.5755C27.73 15.8342 27.5847 16.185 27.5847 16.5508V27.5847C27.5847 27.9505 27.73 28.3013 27.9887 28.56C28.2473 28.8186 28.5981 28.9639 28.9639 28.9639H39.9978C40.3636 28.9639 40.7144 28.8186 40.9731 28.56C41.2317 28.3013 41.377 27.9505 41.377 27.5847V19.3093C41.377 18.9435 41.2317 18.5927 40.9731 18.334C40.7144 18.0754 40.3636 17.93 39.9978 17.93ZM38.6186 26.2055H30.3432V17.93H33.6257L34.6326 19.9299C34.7472 20.1574 34.9226 20.3487 35.1392 20.4826C35.3559 20.6165 35.6054 20.6877 35.8601 20.6885H38.6186V26.2055ZM57.9279 17.93H54.6453L53.6384 15.9302C53.5238 15.7027 53.3485 15.5114 53.1318 15.3775C52.9151 15.2436 52.6656 15.1724 52.4109 15.1716H46.894C46.5282 15.1716 46.1774 15.3169 45.9187 15.5755C45.6601 15.8342 45.5147 16.185 45.5147 16.5508V27.5847C45.5147 27.9505 45.6601 28.3013 45.9187 28.56C46.1774 28.8186 46.5282 28.9639 46.894 28.9639H57.9279C58.2937 28.9639 58.6445 28.8186 58.9031 28.56C59.1618 28.3013 59.3071 27.9505 59.3071 27.5847V19.3093C59.3071 18.9435 59.1618 18.5927 58.9031 18.334C58.6445 18.0754 58.2937 17.93 57.9279 17.93ZM56.5486 26.2055H48.2732V17.93H51.5558L52.5626 19.9299C52.6772 20.1574 52.8526 20.3487 53.0693 20.4826C53.2859 20.6165 53.5355 20.6877 53.7902 20.6885H56.5486V26.2055ZM22.0678 34.4809H18.7852L17.7783 32.481C17.6637 32.2535 17.4884 32.0622 17.2717 31.9283C17.055 31.7945 16.8055 31.7232 16.5508 31.7224H11.0339C10.6681 31.7224 10.3173 31.8677 10.0586 32.1264C9.79995 32.385 9.65464 32.7358 9.65464 33.1016V44.1355C9.65464 44.5013 9.79995 44.8521 10.0586 45.1108C10.3173 45.3694 10.6681 45.5147 11.0339 45.5147H22.0678C22.4335 45.5147 22.7844 45.3694 23.043 45.1108C23.3017 44.8521 23.447 44.5013 23.447 44.1355V35.8601C23.447 35.4943 23.3017 35.1435 23.043 34.8848C22.7844 34.6262 22.4335 34.4809 22.0678 34.4809ZM20.6885 42.7563H12.4131V34.4809H15.6957L16.7025 36.4808C16.8171 36.7082 16.9925 36.8995 17.2092 37.0334C17.4258 37.1673 17.6754 37.2386 17.93 37.2393H20.6885V42.7563ZM39.9978 34.4809H36.7152L35.7084 32.481C35.5938 32.2535 35.4184 32.0622 35.2017 31.9283C34.9851 31.7945 34.7356 31.7232 34.4809 31.7224H28.9639C28.5981 31.7224 28.2473 31.8677 27.9887 32.1264C27.73 32.385 27.5847 32.7358 27.5847 33.1016V44.1355C27.5847 44.5013 27.73 44.8521 27.9887 45.1108C28.2473 45.3694 28.5981 45.5147 28.9639 45.5147H39.9978C40.3636 45.5147 40.7144 45.3694 40.9731 45.1108C41.2317 44.8521 41.377 44.5013 41.377 44.1355V35.8601C41.377 35.4943 41.2317 35.1435 40.9731 34.8848C40.7144 34.6262 40.3636 34.4809 39.9978 34.4809ZM38.6186 42.7563H30.3432V34.4809H33.6257L34.6326 36.4808C34.7472 36.7082 34.9226 36.8995 35.1392 37.0334C35.3559 37.1673 35.6054 37.2386 35.8601 37.2393H38.6186V42.7563ZM57.9279 34.4809H54.6453L53.6384 32.481C53.5238 32.2535 53.3485 32.0622 53.1318 31.9283C52.9151 31.7945 52.6656 31.7232 52.4109 31.7224H46.894C46.5282 31.7224 46.1774 31.8677 45.9187 32.1264C45.6601 32.385 45.5147 32.7358 45.5147 33.1016V44.1355C45.5147 44.5013 45.6601 44.8521 45.9187 45.1108C46.1774 45.3694 46.5282 45.5147 46.894 45.5147H57.9279C58.2937 45.5147 58.6445 45.3694 58.9031 45.1108C59.1618 44.8521 59.3071 44.5013 59.3071 44.1355V35.8601C59.3071 35.4943 59.1618 35.1435 58.9031 34.8848C58.6445 34.6262 58.2937 34.4809 57.9279 34.4809ZM56.5486 42.7563H48.2732V34.4809H51.5558L52.5626 36.4808C52.6772 36.7082 52.8526 36.8995 53.0693 37.0334C53.2859 37.1673 53.5355 37.2386 53.7902 37.2393H56.5486V42.7563Z" fill="#0B0B0B"/>
</svg>
