<svg width="293" height="184" viewBox="0 0 293 184" fill="none" xmlns="http://www.w3.org/2000/svg">
<path d="M194.5 134.041C136.5 122.041 144.431 174.248 97.9999 181.539C37.4999 191.039 14.37 105.713 107.5 96.0412C207.5 96.0412 187 13.0376 150.5 3.0376C94.7616 -12.2334 45.0492 62.7241 -0.913086 81.7669" stroke="black" stroke-width="2" stroke-linecap="round" stroke-linejoin="round" stroke-dasharray="4 6"/>
<path d="M223.1 165.741L209.279 121.826L278.385 101.241L292.207 145.156L223.1 165.741Z" fill="#CA4246"/>
<path d="M202 117.123L215.821 161.037M202 117.123L271.107 96.5376M202 117.123L235.171 129.716M215.821 161.037L284.928 140.452M215.821 161.037L235.171 129.716M284.928 140.452L271.107 96.5376M284.928 140.452L255.903 123.984M271.107 96.5376L255.903 123.984M235.171 129.716L248.992 134.963L255.903 123.984" stroke="black" stroke-width="2" stroke-linecap="round" stroke-linejoin="round"/>
</svg>
