<svg width="87" height="80" viewBox="0 0 87 80" fill="none" xmlns="http://www.w3.org/2000/svg">
<path d="M86.1418 26.4517C86.1418 23.1962 82.1741 20.6452 77.1096 20.6452C72.3844 20.6452 68.618 22.8658 68.1328 25.8065H25.4967C24.4701 25.8065 23.4855 26.2143 22.7595 26.9403C22.0336 27.6662 21.6257 28.6508 21.6257 29.6775V76.1291C21.6257 77.1557 22.0336 78.1403 22.7595 78.8662C23.4855 79.5922 24.4701 80 25.4967 80H77.1096C82.1741 80 86.1418 77.4491 86.1418 74.1936V26.4517ZM70.658 26.4517C70.658 24.9252 73.307 23.2258 77.1096 23.2258C80.9122 23.2258 83.5612 24.9252 83.5612 26.4517V70.0955C81.5955 68.9755 79.372 68.3865 77.1096 68.3865C74.8472 68.3865 72.6237 68.9755 70.658 70.0955V26.4517ZM77.1096 77.4194C73.307 77.4194 70.658 75.72 70.658 74.1936C70.658 72.6671 73.307 70.9678 77.1096 70.9678C80.9122 70.9678 83.5612 72.6671 83.5612 74.1936C83.5612 75.72 80.9122 77.4194 77.1096 77.4194Z" fill="#E07275"/>
<path d="M71.2603 72.6877C69.841 72.6877 68.6797 73.3626 68.6797 74.1935C68.6797 75.0245 69.841 75.6994 71.2603 75.6994C72.6797 75.6994 73.841 75.0245 73.841 74.1935C73.841 73.3626 72.6861 72.6877 71.2603 72.6877Z" fill="#E07275"/>
<path d="M58.357 0H17.0667C15.3562 0.00204885 13.7164 0.682428 12.507 1.8919C11.2975 3.10136 10.6171 4.74117 10.6151 6.45161V51.6129H2.87313C2.1887 51.6129 1.5323 51.8848 1.04833 52.3687C0.564369 52.8527 0.29248 53.5091 0.29248 54.1935V58.0645C0.294529 59.7749 0.974909 61.4147 2.18438 62.6242C3.39384 63.8337 5.03365 64.5141 6.74409 64.5161H48.0344C49.7449 64.5141 51.3847 63.8337 52.5941 62.6242C53.8036 61.4147 54.484 59.7749 54.486 58.0645V12.9032H62.228C62.9124 12.9032 63.5688 12.6313 64.0527 12.1474C64.5367 11.6634 64.8086 11.007 64.8086 10.3226V6.45161C64.8065 4.74117 64.1262 3.10136 62.9167 1.8919C61.7072 0.682428 60.0674 0.00204885 58.357 0ZM6.74409 61.9355C5.71745 61.9355 4.73285 61.5276 4.00691 60.8017C3.28096 60.0757 2.87313 59.0911 2.87313 58.0645V54.1935H41.5828V58.0645C41.5875 59.4651 42.0527 60.8253 42.9067 61.9355H6.74409ZM51.9054 6.45161V58.0645C51.9054 59.0911 51.4975 60.0757 50.7716 60.8017C50.0456 61.5276 49.0611 61.9355 48.0344 61.9355C47.0078 61.9355 46.0232 61.5276 45.2972 60.8017C44.5713 60.0757 44.1634 59.0911 44.1634 58.0645V54.1935C44.1634 53.5091 43.8916 52.8527 43.4076 52.3687C42.9236 51.8848 42.2672 51.6129 41.5828 51.6129H13.1957V6.45161C13.1957 5.42497 13.6035 4.44037 14.3295 3.71442C15.0554 2.98848 16.04 2.58064 17.0667 2.58064H53.2292C52.3753 3.69082 51.9101 5.05101 51.9054 6.45161ZM62.228 10.3226H54.486V6.45161C54.486 5.42497 54.8939 4.44037 55.6198 3.71442C56.3457 2.98848 57.3303 2.58064 58.357 2.58064C59.3836 2.58064 60.3682 2.98848 61.0942 3.71442C61.8201 4.44037 62.228 5.42497 62.228 6.45161V10.3226Z" fill="#0B0B0B"/>
<path d="M15.7764 16.7742C15.7764 17.1164 15.9123 17.4446 16.1543 17.6866C16.3963 17.9285 16.7245 18.0645 17.0667 18.0645H20.9377V36.129H17.0667C16.7245 36.129 16.3963 36.2649 16.1543 36.5069C15.9123 36.7489 15.7764 37.0771 15.7764 37.4193C15.7764 37.7615 15.9123 38.0897 16.1543 38.3317C16.3963 38.5737 16.7245 38.7096 17.0667 38.7096H20.9377V43.8709C20.9377 44.2131 21.0736 44.5413 21.3156 44.7833C21.5576 45.0253 21.8858 45.1613 22.228 45.1613C22.5702 45.1613 22.8984 45.0253 23.1404 44.7833C23.3824 44.5413 23.5183 44.2131 23.5183 43.8709V38.7096H41.5828V43.8709C41.5828 44.2131 41.7188 44.5413 41.9607 44.7833C42.2027 45.0253 42.5309 45.1613 42.8731 45.1613C43.2153 45.1613 43.5435 45.0253 43.7855 44.7833C44.0275 44.5413 44.1635 44.2131 44.1635 43.8709V38.7096H48.0344C48.3766 38.7096 48.7048 38.5737 48.9468 38.3317C49.1888 38.0897 49.3247 37.7615 49.3247 37.4193C49.3247 37.0771 49.1888 36.7489 48.9468 36.5069C48.7048 36.2649 48.3766 36.129 48.0344 36.129H44.1635V18.0645H48.0344C48.3766 18.0645 48.7048 17.9285 48.9468 17.6866C49.1888 17.4446 49.3247 17.1164 49.3247 16.7742C49.3247 16.4319 49.1888 16.1037 48.9468 15.8618C48.7048 15.6198 48.3766 15.4838 48.0344 15.4838H44.1635V10.3225C44.1635 9.98033 44.0275 9.65214 43.7855 9.41015C43.5435 9.16817 43.2153 9.03223 42.8731 9.03223C42.5309 9.03223 42.2027 9.16817 41.9607 9.41015C41.7188 9.65214 41.5828 9.98033 41.5828 10.3225V15.4838H23.5183V10.3225C23.5183 9.98033 23.3824 9.65214 23.1404 9.41015C22.8984 9.16817 22.5702 9.03223 22.228 9.03223C21.8858 9.03223 21.5576 9.16817 21.3156 9.41015C21.0736 9.65214 20.9377 9.98033 20.9377 10.3225V15.4838H17.0667C16.7245 15.4838 16.3963 15.6198 16.1543 15.8618C15.9123 16.1037 15.7764 16.4319 15.7764 16.7742ZM23.5183 18.0645H41.5828V36.129H23.5183V18.0645Z" fill="#0B0B0B"/>
</svg>
