<svg width="88" height="80" viewBox="0 0 88 80" fill="none" xmlns="http://www.w3.org/2000/svg">
<path d="M55.9344 37.8511V45.9189C52.3853 44.7785 51.5053 43.5955 51.5053 41.6427C51.5053 39.6899 52.9768 38.122 55.9344 37.8511ZM59.5844 52.2618V60.5576C62.4698 60.244 64.1578 58.7759 64.1578 56.595C64.1578 54.4142 63.1335 53.3451 59.5844 52.2618ZM87.1112 50.0667C87.1112 55.987 85.3344 61.7742 82.0053 66.6967C78.6762 71.6192 73.9445 75.4558 68.4085 77.7214C62.8725 79.987 56.7808 80.5798 50.9038 79.4248C45.0268 78.2698 39.6284 75.4189 35.3913 71.2327C31.1542 67.0465 28.2687 61.7129 27.0997 55.9064C25.9307 50.0999 26.5307 44.0814 28.8238 38.6118C31.1169 33.1422 35.0001 28.4673 39.9824 25.1782C44.9647 21.8891 50.8223 20.1335 56.8144 20.1335C64.8496 20.1335 72.5558 23.2872 78.2375 28.9008C83.9193 34.5143 87.1112 42.128 87.1112 50.0667ZM69.5968 56.2672C69.5968 51.3924 66.596 48.6128 59.5844 46.8739V38.122C61.2637 38.52 62.8667 39.1843 64.3309 40.089C64.6149 40.3072 64.9426 40.4632 65.2922 40.5468C65.6418 40.6304 66.0055 40.6397 66.359 40.574C66.7125 40.5083 67.0479 40.3691 67.3429 40.1656C67.6378 39.9622 67.8857 39.6992 68.07 39.394C68.2543 39.0888 68.3709 38.7483 68.412 38.3952C68.4532 38.0422 68.4179 37.6845 68.3085 37.3459C68.1991 37.0073 68.0182 36.6955 67.7777 36.4312C67.5372 36.1669 67.2425 35.9562 66.9134 35.8128C64.7382 34.4354 62.2687 33.5766 59.6998 33.3042V32.2921C59.6571 31.7938 59.4265 31.3295 59.0538 30.9912C58.6811 30.6528 58.1934 30.4651 57.6873 30.4651C57.1811 30.4651 56.6934 30.6528 56.3207 30.9912C55.948 31.3295 55.7174 31.7938 55.6747 32.2921V33.2614C49.9039 33.7175 45.9797 37.0814 45.9797 41.9705C45.9797 47.1162 49.1248 49.6249 55.8622 51.3638V60.3438C53.3781 59.8661 51.0414 58.8215 49.0382 57.2935C48.7597 57.1063 48.4466 56.9751 48.1168 56.9075C47.787 56.8399 47.447 56.8371 47.1161 56.8993C46.7852 56.9615 46.4699 57.0875 46.1883 57.2701C45.9067 57.4526 45.6642 57.6882 45.4747 57.9634C45.2853 58.2386 45.1525 58.5479 45.0841 58.8738C45.0156 59.1996 45.0128 59.5356 45.0758 59.8625C45.1387 60.1894 45.2663 60.5009 45.4511 60.7791C45.6359 61.0574 45.8743 61.2969 46.1528 61.4841C48.9464 63.4536 52.2053 64.6806 55.617 65.0476V67.8984C55.6597 68.3967 55.8903 68.861 56.263 69.1993C56.6357 69.5377 57.1234 69.7254 57.6295 69.7254C58.1357 69.7254 58.6234 69.5377 58.9961 69.1993C59.3688 68.861 59.5994 68.3967 59.6421 67.8984V65.1616C65.6293 64.62 69.5968 61.2846 69.5968 56.2672Z" fill="#E07275"/>
<path d="M69.0399 4.51559C61.8018 1.53757 54.0391 0.00293971 46.1985 4.21933e-06C38.3579 -0.00293127 30.5941 1.52588 23.3537 4.49849C23.068 4.59316 22.8195 4.77384 22.643 5.01516C22.4665 5.25648 22.371 5.54634 22.3698 5.84406C22.3619 10.0596 22.8053 14.2641 23.6927 18.3875C15.9043 18.3791 8.19053 19.8863 0.991745 22.8233C0.705122 22.9183 0.455941 23.0998 0.279392 23.3423C0.102843 23.5848 0.00784713 23.8759 0.00781971 24.1746C-0.135904 32.647 1.70331 41.0377 5.38201 48.6923C9.06071 56.3468 14.4795 63.0583 21.2156 68.3032C21.9642 68.8597 22.8756 69.1606 23.8125 69.1606C24.7493 69.1606 25.6607 68.8597 26.4093 68.3032C33.1258 63.1299 38.5199 56.4716 42.1579 48.8638C42.6946 49.3014 43.1779 49.6791 43.5804 49.9798C44.3284 50.5346 45.2384 50.8345 46.1737 50.8345C47.109 50.8345 48.019 50.5346 48.767 49.9798C55.505 44.7347 60.9252 38.0223 64.6047 30.3664C68.2842 22.7104 70.1235 14.3181 69.9791 5.84406C69.9776 5.55459 69.8869 5.27244 69.7191 5.03514C69.5513 4.79783 69.3144 4.61661 69.0399 4.51559ZM24.6665 66.0297C24.4198 66.2116 24.1203 66.3098 23.8125 66.3098C23.5047 66.3098 23.2051 66.2116 22.9584 66.0297C16.7048 61.154 11.6513 54.9411 8.17794 47.858C4.70456 40.7749 2.90166 33.0059 2.90477 25.1353C9.74272 22.4717 17.0399 21.1481 24.3896 21.2383C27.0591 31.0447 32.4311 39.9267 39.9073 46.8953C36.4676 54.3971 31.2379 60.9629 24.6665 66.0297ZM47.0285 47.7049C46.7826 47.888 46.483 47.987 46.1751 47.987C45.8672 47.987 45.5677 47.888 45.3218 47.7049C39.068 42.8297 34.0145 36.617 30.5411 29.5341C27.0677 22.4512 25.2648 14.6824 25.2682 6.8119C38.6976 1.53299 53.6628 1.53299 67.0922 6.8119C67.0947 14.6834 65.2903 22.4529 61.8148 29.536C58.3394 36.6191 53.2833 42.8312 47.0271 47.7049H47.0285Z" fill="#0B0B0B"/>
<path d="M41.5491 31.3016C41.4433 31.1496 41.3079 31.0201 41.1507 30.9207C40.9935 30.8213 40.8177 30.754 40.6338 30.7228C40.4498 30.6916 40.2614 30.6971 40.0796 30.739C39.8979 30.7808 39.7264 30.8582 39.5754 30.9666C39.2614 31.1918 39.0487 31.5292 38.9827 31.907C38.9166 32.2847 39.0025 32.6731 39.222 32.9892C39.9925 34.1085 41.0294 35.0237 42.2417 35.6545C43.4539 36.2853 44.8043 36.6123 46.1744 36.6069C47.5374 36.6119 48.8809 36.2875 50.088 35.6619C51.295 35.0363 52.3288 34.1286 53.0994 33.0177C53.1095 33.0063 53.1773 32.9066 53.1859 32.8937C53.288 32.7396 53.3579 32.5669 53.3914 32.3857C53.4249 32.2045 53.4214 32.0185 53.381 31.8387C53.3407 31.6588 53.2644 31.4888 53.1565 31.3385C53.0487 31.1883 52.9115 31.0609 52.7531 30.9638C52.4249 30.7604 52.0294 30.6912 51.6505 30.7711C51.2715 30.8509 50.9389 31.0734 50.7232 31.3914C50.2224 32.1268 49.5446 32.7278 48.7507 33.1405C47.9567 33.5533 47.0715 33.7648 46.1744 33.7561C45.257 33.7627 44.3526 33.5414 43.5444 33.1125C42.7362 32.6836 42.0501 32.0609 41.5491 31.3016Z" fill="#0B0B0B"/>
<path d="M23.8124 48.9736C22.4494 48.9686 21.1058 49.293 19.8988 49.9186C18.6918 50.5441 17.658 51.4519 16.8874 52.5627L16.8008 52.6867C16.6984 52.8404 16.6282 53.0128 16.5941 53.1937C16.5601 53.3746 16.563 53.5604 16.6026 53.7402C16.6422 53.92 16.7179 54.0901 16.825 54.2406C16.9321 54.3912 17.0686 54.519 17.2264 54.6167C17.5546 54.8205 17.9502 54.8898 18.3292 54.8099C18.7083 54.7301 19.0409 54.5073 19.2563 54.1891C19.758 53.4528 20.437 52.8513 21.2323 52.4386C22.0275 52.0258 22.9141 51.8147 23.8124 51.8243C24.7296 51.8185 25.6337 52.0402 26.4418 52.469C27.2499 52.8978 27.9361 53.5201 28.4377 54.2789C28.5434 54.4308 28.6789 54.5603 28.8361 54.6597C28.9933 54.7591 29.1691 54.8264 29.353 54.8576C29.537 54.8888 29.7254 54.8834 29.9071 54.8415C30.0889 54.7996 30.2603 54.7222 30.4113 54.6138C30.7254 54.3887 30.9381 54.0513 31.0041 53.6735C31.0701 53.2957 30.9843 52.9074 30.7648 52.5912C29.9938 51.4724 28.9568 50.5575 27.7447 49.9268C26.5326 49.2961 25.1823 48.9688 23.8124 48.9736Z" fill="#0B0B0B"/>
</svg>
