<svg width="307" height="175" viewBox="0 0 307 175" fill="none" xmlns="http://www.w3.org/2000/svg">
<path d="M4.9833 171.733L61.1731 125.415L74.4263 135.344L21.8163 164.626L76.0803 143.065L82.104 140.559L108.027 162.781L81.345 164.484L4.9833 171.733Z" fill="#D84E52"/>
<path d="M75.3181 143.446L74.425 135.344L21.815 164.626L75.3181 143.446Z" fill="#D84E52"/>
<path d="M79.5077 164.659L4.98201 171.733L79.6691 173.14L79.5077 164.659Z" fill="#D84E52"/>
<path d="M1 166.15L53.485 124.538L65.4995 133.9L16.6047 159.908L66.8854 141.029L72.4689 138.831L95.9197 159.72L71.3522 160.82L1 166.15Z" stroke="black" stroke-width="2" stroke-linecap="round" stroke-linejoin="round"/>
<path d="M66.0196 141.183L65.4995 133.901L16.6047 159.908L66.0196 141.183Z" stroke="black" stroke-width="2" stroke-linecap="round" stroke-linejoin="round"/>
<path d="M69.6607 160.949L1 166.15L69.6607 168.751V160.949Z" stroke="black" stroke-width="2" stroke-linecap="round" stroke-linejoin="round"/>
<path d="M103.5 138.538C159 157.538 231.4 140.738 225 91.5376C217 30.0376 139.501 -10.4625 106 4.53756C46.5004 31.179 172 99.5376 252.5 58.5376C272.48 48.3613 290.974 48.0461 307.5 54.5033" stroke="black" stroke-width="2" stroke-linecap="round" stroke-dasharray="4 6"/>
</svg>
