<svg width="169" height="157" viewBox="0 0 169 157" fill="none" xmlns="http://www.w3.org/2000/svg">
<g opacity="0.1">
<path d="M168.479 51.9115C168.479 45.5226 160.693 40.5164 150.754 40.5164C141.481 40.5164 134.089 44.8744 133.137 50.6454H49.4635C47.4487 50.6454 45.5164 51.4457 44.0917 52.8704C42.6671 54.2951 41.8667 56.2274 41.8667 58.2421V149.403C41.8667 151.418 42.6671 153.35 44.0917 154.775C45.5164 156.2 47.4487 157 49.4635 157H150.754C160.693 157 168.479 151.994 168.479 145.605V51.9115ZM138.092 51.9115C138.092 48.9158 143.291 45.5809 150.754 45.5809C158.216 45.5809 163.415 48.9158 163.415 51.9115V137.562C159.557 135.364 155.194 134.209 150.754 134.209C146.314 134.209 141.95 135.364 138.092 137.562V51.9115ZM150.754 151.936C143.291 151.936 138.092 148.601 138.092 145.605C138.092 142.609 143.291 139.274 150.754 139.274C158.216 139.274 163.415 142.609 163.415 145.605C163.415 148.601 158.216 151.936 150.754 151.936Z" fill="#E07275"/>
<path d="M139.274 142.649C136.489 142.649 134.209 143.974 134.209 145.605C134.209 147.235 136.489 148.56 139.274 148.56C142.059 148.56 144.338 147.235 144.338 145.605C144.338 143.974 142.072 142.649 139.274 142.649Z" fill="#E07275"/>
<path d="M113.951 0H32.9193C29.5626 0.00402086 26.3445 1.33926 23.9709 3.71284C21.5973 6.08642 20.2621 9.30453 20.258 12.6613V101.29H5.06451C3.72132 101.29 2.43314 101.824 1.48336 102.774C0.533581 103.723 0 105.012 0 106.355V113.951C0.00402086 117.308 1.33926 120.526 3.71284 122.9C6.08642 125.273 9.30453 126.609 12.6613 126.613H93.6934C97.0502 126.609 100.268 125.273 102.642 122.9C105.015 120.526 106.351 117.308 106.355 113.951V25.3225H121.548C122.891 25.3225 124.18 24.789 125.129 23.8392C126.079 22.8894 126.613 21.6012 126.613 20.258V12.6613C126.609 9.30453 125.273 6.08642 122.9 3.71284C120.526 1.33926 117.308 0.00402086 113.951 0ZM12.6613 121.548C10.6465 121.548 8.71422 120.748 7.28955 119.323C5.86488 117.899 5.06451 115.966 5.06451 113.951V106.355H81.0322V113.951C81.0415 116.7 81.9544 119.369 83.6302 121.548H12.6613ZM101.29 12.6613V113.951C101.29 115.966 100.49 117.899 99.0651 119.323C97.6405 120.748 95.7082 121.548 93.6934 121.548C91.6786 121.548 89.7464 120.748 88.3217 119.323C86.897 117.899 86.0967 115.966 86.0967 113.951V106.355C86.0967 105.012 85.5631 103.723 84.6133 102.774C83.6635 101.824 82.3753 101.29 81.0322 101.29H25.3225V12.6613C25.3225 10.6465 26.1229 8.71422 27.5476 7.28955C28.9723 5.86488 30.9045 5.06451 32.9193 5.06451H103.888C102.212 7.24323 101.299 9.91259 101.29 12.6613ZM121.548 20.258H106.355V12.6613C106.355 10.6465 107.155 8.71422 108.58 7.28955C110.004 5.86488 111.937 5.06451 113.951 5.06451C115.966 5.06451 117.899 5.86488 119.323 7.28955C120.748 8.71422 121.548 10.6465 121.548 12.6613V20.258Z" fill="#0B0B0B"/>
<path d="M30.3872 32.9191C30.3872 33.5907 30.654 34.2348 31.1289 34.7097C31.6038 35.1846 32.2479 35.4514 32.9195 35.4514H40.5162V70.9029H32.9195C32.2479 70.9029 31.6038 71.1697 31.1289 71.6446C30.654 72.1195 30.3872 72.7636 30.3872 73.4352C30.3872 74.1068 30.654 74.7509 31.1289 75.2258C31.6038 75.7007 32.2479 75.9674 32.9195 75.9674H40.5162V86.0965C40.5162 86.7681 40.783 87.4121 41.2579 87.887C41.7328 88.3619 42.3769 88.6287 43.0485 88.6287C43.7201 88.6287 44.3642 88.3619 44.8391 87.887C45.3139 87.4121 45.5807 86.7681 45.5807 86.0965V75.9674H81.0323V86.0965C81.0323 86.7681 81.2991 87.4121 81.774 87.887C82.2489 88.3619 82.893 88.6287 83.5646 88.6287C84.2361 88.6287 84.8802 88.3619 85.3551 87.887C85.83 87.4121 86.0968 86.7681 86.0968 86.0965V75.9674H93.6936C94.3652 75.9674 95.0093 75.7007 95.4841 75.2258C95.959 74.7509 96.2258 74.1068 96.2258 73.4352C96.2258 72.7636 95.959 72.1195 95.4841 71.6446C95.0093 71.1697 94.3652 70.9029 93.6936 70.9029H86.0968V35.4514H93.6936C94.3652 35.4514 95.0093 35.1846 95.4841 34.7097C95.959 34.2348 96.2258 33.5907 96.2258 32.9191C96.2258 32.2475 95.959 31.6034 95.4841 31.1285C95.0093 30.6537 94.3652 30.3869 93.6936 30.3869H86.0968V20.2578C86.0968 19.5862 85.83 18.9422 85.3551 18.4673C84.8802 17.9924 84.2361 17.7256 83.5646 17.7256C82.893 17.7256 82.2489 17.9924 81.774 18.4673C81.2991 18.9422 81.0323 19.5862 81.0323 20.2578V30.3869H45.5807V20.2578C45.5807 19.5862 45.3139 18.9422 44.8391 18.4673C44.3642 17.9924 43.7201 17.7256 43.0485 17.7256C42.3769 17.7256 41.7328 17.9924 41.2579 18.4673C40.783 18.9422 40.5162 19.5862 40.5162 20.2578V30.3869H32.9195C32.2479 30.3869 31.6038 30.6537 31.1289 31.1285C30.654 31.6034 30.3872 32.2475 30.3872 32.9191ZM45.5807 35.4514H81.0323V70.9029H45.5807V35.4514Z" fill="#0B0B0B"/>
</g>
</svg>
