<svg width="170" height="157" viewBox="0 0 170 157" fill="none" xmlns="http://www.w3.org/2000/svg">
<g opacity="0.1">
<path d="M169.101 134.552L147.447 156.206C147.183 156.471 146.866 156.678 146.518 156.814C146.169 156.951 145.796 157.013 145.422 156.998C145.048 156.982 144.682 156.89 144.345 156.726C144.009 156.562 143.71 156.329 143.468 156.044L125.658 135.337L116.482 147.301C115.55 148.497 114.303 149.408 112.88 149.931C111.457 150.454 109.917 150.569 108.432 150.262C106.948 149.955 105.579 149.238 104.481 148.194C103.383 147.149 102.598 145.818 102.217 144.351L85.7605 82.8265C85.3868 81.4471 85.3839 79.9935 85.7519 78.6125C86.1199 77.2315 86.8458 75.9722 87.8564 74.9616C88.867 73.9511 90.1263 73.2251 91.5073 72.8571C92.8882 72.4891 94.3419 72.492 95.7213 72.8657L157.246 89.3227C158.713 89.7107 160.042 90.5021 161.083 91.6072C162.123 92.7123 162.833 94.0868 163.132 95.5749C163.43 97.063 163.306 98.605 162.773 100.026C162.24 101.447 161.319 102.69 160.115 103.614L148.232 112.763L169.02 130.574C169.3 130.821 169.526 131.125 169.683 131.464C169.84 131.803 169.925 132.171 169.932 132.545C169.94 132.919 169.87 133.29 169.727 133.636C169.584 133.981 169.371 134.293 169.101 134.552Z" fill="#E07275"/>
<path d="M127.217 0H8.12024C5.96662 0 3.90121 0.855523 2.37836 2.37836C0.855523 3.90121 0 5.96662 0 8.12024V97.4429C0 99.5965 0.855523 101.662 2.37836 103.185C3.90121 104.708 5.96662 105.563 8.12024 105.563H127.217C129.371 105.563 131.436 104.708 132.959 103.185C134.482 101.662 135.337 99.5965 135.337 97.4429V8.12024C135.337 5.96662 134.482 3.90121 132.959 2.37836C131.436 0.855523 129.371 0 127.217 0ZM8.12024 5.4135H127.217C127.935 5.4135 128.624 5.69867 129.131 6.20628C129.639 6.7139 129.924 7.40237 129.924 8.12024V16.2405H5.4135V8.12024C5.4135 7.40237 5.69867 6.7139 6.20628 6.20628C6.7139 5.69867 7.40237 5.4135 8.12024 5.4135ZM127.217 100.15H8.12024C7.40237 100.15 6.7139 99.8645 6.20628 99.3569C5.69867 98.8493 5.4135 98.1608 5.4135 97.4429V21.654H129.924V97.4429C129.924 98.1608 129.639 98.8493 129.131 99.3569C128.624 99.8645 127.935 100.15 127.217 100.15ZM43.308 35.1877H36.8659L34.89 31.2629C34.6651 30.8166 34.3209 30.4412 33.8957 30.1784C33.4705 29.9156 32.9808 29.7757 32.481 29.7742H21.654C20.9361 29.7742 20.2476 30.0594 19.74 30.567C19.2324 31.0746 18.9472 31.7631 18.9472 32.481V54.135C18.9472 54.8528 19.2324 55.5413 19.74 56.0489C20.2476 56.5565 20.9361 56.8417 21.654 56.8417H43.308C44.0258 56.8417 44.7143 56.5565 45.2219 56.0489C45.7295 55.5413 46.0147 54.8528 46.0147 54.135V37.8945C46.0147 37.1766 45.7295 36.4881 45.2219 35.9805C44.7143 35.4729 44.0258 35.1877 43.308 35.1877ZM40.6012 51.4282H24.3607V35.1877H30.8028L32.7787 39.1125C33.0036 39.5589 33.3478 39.9343 33.773 40.197C34.1982 40.4598 34.6879 40.5997 35.1877 40.6012H40.6012V51.4282ZM78.4957 35.1877H72.0536L70.0777 31.2629C69.8528 30.8166 69.5086 30.4412 69.0834 30.1784C68.6582 29.9156 68.1685 29.7757 67.6687 29.7742H56.8417C56.1238 29.7742 55.4354 30.0594 54.9277 30.567C54.4201 31.0746 54.135 31.7631 54.135 32.481V54.135C54.135 54.8528 54.4201 55.5413 54.9277 56.0489C55.4354 56.5565 56.1238 56.8417 56.8417 56.8417H78.4957C79.2136 56.8417 79.902 56.5565 80.4097 56.0489C80.9173 55.5413 81.2024 54.8528 81.2024 54.135V37.8945C81.2024 37.1766 80.9173 36.4881 80.4097 35.9805C79.902 35.4729 79.2136 35.1877 78.4957 35.1877ZM75.7889 51.4282H59.5485V35.1877H65.9905L67.9664 39.1125C68.1914 39.5589 68.5355 39.9343 68.9607 40.197C69.3859 40.4598 69.8756 40.5997 70.3755 40.6012H75.7889V51.4282ZM113.683 35.1877H107.241L105.265 31.2629C105.04 30.8166 104.696 30.4412 104.271 30.1784C103.846 29.9156 103.356 29.7757 102.856 29.7742H92.0294C91.3116 29.7742 90.6231 30.0594 90.1155 30.567C89.6079 31.0746 89.3227 31.7631 89.3227 32.481V54.135C89.3227 54.8528 89.6079 55.5413 90.1155 56.0489C90.6231 56.5565 91.3116 56.8417 92.0294 56.8417H113.683C114.401 56.8417 115.09 56.5565 115.597 56.0489C116.105 55.5413 116.39 54.8528 116.39 54.135V37.8945C116.39 37.1766 116.105 36.4881 115.597 35.9805C115.09 35.4729 114.401 35.1877 113.683 35.1877ZM110.977 51.4282H94.7362V35.1877H101.178L103.154 39.1125C103.379 39.5589 103.723 39.9343 104.148 40.197C104.574 40.4598 105.063 40.5997 105.563 40.6012H110.977V51.4282ZM43.308 67.6687H36.8659L34.89 63.7439C34.6651 63.2975 34.3209 62.9221 33.8957 62.6594C33.4705 62.3966 32.9808 62.2567 32.481 62.2552H21.654C20.9361 62.2552 20.2476 62.5404 19.74 63.048C19.2324 63.5556 18.9472 64.2441 18.9472 64.9619V86.6159C18.9472 87.3338 19.2324 88.0223 19.74 88.5299C20.2476 89.0375 20.9361 89.3227 21.654 89.3227H43.308C44.0258 89.3227 44.7143 89.0375 45.2219 88.5299C45.7295 88.0223 46.0147 87.3338 46.0147 86.6159V70.3754C46.0147 69.6576 45.7295 68.9691 45.2219 68.4615C44.7143 67.9539 44.0258 67.6687 43.308 67.6687ZM40.6012 83.9092H24.3607V67.6687H30.8028L32.7787 71.5935C33.0036 72.0399 33.3478 72.4152 33.773 72.678C34.1982 72.9408 34.6879 73.0807 35.1877 73.0822H40.6012V83.9092ZM78.4957 67.6687H72.0536L70.0777 63.7439C69.8528 63.2975 69.5086 62.9221 69.0834 62.6594C68.6582 62.3966 68.1685 62.2567 67.6687 62.2552H56.8417C56.1238 62.2552 55.4354 62.5404 54.9277 63.048C54.4201 63.5556 54.135 64.2441 54.135 64.9619V86.6159C54.135 87.3338 54.4201 88.0223 54.9277 88.5299C55.4354 89.0375 56.1238 89.3227 56.8417 89.3227H78.4957C79.2136 89.3227 79.902 89.0375 80.4097 88.5299C80.9173 88.0223 81.2024 87.3338 81.2024 86.6159V70.3754C81.2024 69.6576 80.9173 68.9691 80.4097 68.4615C79.902 67.9539 79.2136 67.6687 78.4957 67.6687ZM75.7889 83.9092H59.5485V67.6687H65.9905L67.9664 71.5935C68.1914 72.0399 68.5355 72.4152 68.9607 72.678C69.3859 72.9408 69.8756 73.0807 70.3755 73.0822H75.7889V83.9092ZM113.683 67.6687H107.241L105.265 63.7439C105.04 63.2975 104.696 62.9221 104.271 62.6594C103.846 62.3966 103.356 62.2567 102.856 62.2552H92.0294C91.3116 62.2552 90.6231 62.5404 90.1155 63.048C89.6079 63.5556 89.3227 64.2441 89.3227 64.9619V86.6159C89.3227 87.3338 89.6079 88.0223 90.1155 88.5299C90.6231 89.0375 91.3116 89.3227 92.0294 89.3227H113.683C114.401 89.3227 115.09 89.0375 115.597 88.5299C116.105 88.0223 116.39 87.3338 116.39 86.6159V70.3754C116.39 69.6576 116.105 68.9691 115.597 68.4615C115.09 67.9539 114.401 67.6687 113.683 67.6687ZM110.977 83.9092H94.7362V67.6687H101.178L103.154 71.5935C103.379 72.0399 103.723 72.4152 104.148 72.678C104.574 72.9408 105.063 73.0807 105.563 73.0822H110.977V83.9092Z" fill="#0B0B0B"/>
</g>
</svg>
