<svg width="171" height="157" viewBox="0 0 171 157" fill="none" xmlns="http://www.w3.org/2000/svg">
<g opacity="0.1">
<path d="M109.771 74.283V90.1159C102.806 87.878 101.079 85.5562 101.079 81.7239C101.079 77.8916 103.967 74.8145 109.771 74.283ZM116.934 102.564V118.844C122.597 118.229 125.909 115.348 125.909 111.068C125.909 106.788 123.899 104.69 116.934 102.564ZM170.956 98.2561C170.956 109.875 167.468 121.232 160.935 130.892C154.402 140.553 145.116 148.082 134.251 152.528C123.387 156.975 111.432 158.138 99.8985 155.871C88.3649 153.605 77.7705 148.01 69.4553 139.794C61.14 131.579 55.4772 121.112 53.183 109.716C50.8888 98.3213 52.0663 86.5098 56.5665 75.7758C61.0667 65.0418 68.6875 55.8672 78.4653 49.4123C88.243 42.9575 99.7385 39.5122 111.498 39.5122C127.267 39.5122 142.39 45.7013 153.541 56.7179C164.691 67.7345 170.956 82.6763 170.956 98.2561ZM136.584 110.424C136.584 100.858 130.694 95.4028 116.934 91.9901V74.8145C120.23 75.5957 123.376 76.8994 126.249 78.6748C126.807 79.103 127.45 79.4092 128.136 79.5733C128.822 79.7374 129.536 79.7555 130.229 79.6266C130.923 79.4976 131.581 79.2244 132.16 78.8252C132.739 78.426 133.225 77.9098 133.587 77.3108C133.949 76.7118 134.178 76.0437 134.258 75.3508C134.339 74.6579 134.27 73.9559 134.055 73.2914C133.841 72.6269 133.486 72.0151 133.013 71.4964C132.541 70.9777 131.963 70.5641 131.317 70.2828C127.049 67.5796 122.202 65.8941 117.161 65.3595V63.3734C117.077 62.3955 116.624 61.4844 115.893 60.8204C115.161 60.1563 114.204 59.7879 113.211 59.7879C112.218 59.7879 111.261 60.1563 110.529 60.8204C109.798 61.4844 109.345 62.3955 109.261 63.3734V65.2756C97.9361 66.1708 90.2349 72.7724 90.2349 82.3673C90.2349 92.4656 96.4072 97.3889 109.629 100.802V118.425C104.754 117.487 100.168 115.437 96.2373 112.439C95.6908 112.071 95.0763 111.814 94.4291 111.681C93.7818 111.548 93.1144 111.543 92.465 111.665C91.8157 111.787 91.197 112.034 90.6443 112.393C90.0916 112.751 89.6158 113.213 89.244 113.753C88.8722 114.293 88.6116 114.9 88.4773 115.54C88.3429 116.179 88.3374 116.839 88.461 117.48C88.5845 118.122 88.8348 118.733 89.1975 119.279C89.5602 119.825 90.0281 120.295 90.5747 120.663C96.057 124.528 102.453 126.936 109.148 127.656V133.251C109.232 134.229 109.684 135.14 110.416 135.804C111.147 136.468 112.104 136.836 113.098 136.836C114.091 136.836 115.048 136.468 115.78 135.804C116.511 135.14 116.964 134.229 117.047 133.251V127.88C128.797 126.817 136.584 120.271 136.584 110.424Z" fill="#E07275"/>
<path d="M135.491 8.86185C121.286 3.01747 106.052 0.00576918 90.6646 8.28043e-06C75.2774 -0.00575262 60.0408 2.99454 45.8316 8.82828C45.271 9.01408 44.7832 9.36865 44.4369 9.84225C44.0906 10.3159 43.9031 10.8847 43.9007 11.469C43.8851 19.742 44.7554 27.9934 46.497 36.0855C31.2123 36.0689 16.0739 39.027 1.9463 44.7908C1.3838 44.9772 0.894785 45.3334 0.548307 45.8093C0.20183 46.2851 0.0154 46.8564 0.0153462 47.4426C-0.266712 64.0698 3.34275 80.5365 10.5622 95.5586C17.7817 110.581 28.4159 123.752 41.6356 134.045C43.1048 135.137 44.8935 135.728 46.732 135.728C48.5705 135.728 50.3592 135.137 51.8283 134.045C65.0095 123.892 75.5954 110.826 82.7349 95.8952C83.7882 96.7539 84.7367 97.4952 85.5266 98.0855C86.9945 99.1742 88.7804 99.7628 90.6159 99.7628C92.4514 99.7628 94.2373 99.1742 95.7052 98.0855C108.929 87.7919 119.566 74.6187 126.787 59.594C134.008 44.5692 137.617 28.0992 137.334 11.469C137.331 10.9009 137.153 10.3472 136.824 9.88146C136.495 9.41574 136.03 9.0601 135.491 8.86185ZM48.4081 129.583C47.924 129.94 47.336 130.133 46.732 130.133C46.1279 130.133 45.54 129.94 45.0558 129.583C32.7831 120.015 22.8657 107.822 16.0492 93.9213C9.23271 80.0207 5.6945 64.7742 5.70062 49.328C19.1201 44.1007 33.4408 41.5032 47.8645 41.6801C53.1035 60.9252 63.646 78.3561 78.3181 92.0321C71.5677 106.754 61.3044 119.64 48.4081 129.583ZM92.2934 93.6209C91.8108 93.9802 91.223 94.1745 90.6187 94.1745C90.0145 94.1745 89.4266 93.9802 88.944 93.6209C76.6711 84.0532 66.7534 71.8608 59.9369 57.9606C53.1203 44.0604 49.5823 28.8141 49.5888 13.3684C75.944 3.0085 105.313 3.0085 131.668 13.3684C131.673 28.8162 128.132 44.0639 121.312 57.9644C114.491 71.8649 104.568 84.0562 92.2906 93.6209H92.2934Z" fill="#0B0B0B"/>
<path d="M81.5401 61.4293C81.3326 61.1311 81.0668 60.877 80.7583 60.6819C80.4498 60.4869 80.1048 60.3548 79.7439 60.2935C79.3829 60.2323 79.0131 60.243 78.6564 60.3252C78.2997 60.4074 77.9632 60.5593 77.6669 60.772C77.0505 61.2138 76.6331 61.876 76.5036 62.6174C76.374 63.3588 76.5425 64.1209 76.9732 64.7414C78.4854 66.9379 80.5204 68.734 82.8993 69.9719C85.2783 71.2098 87.9286 71.8516 90.6173 71.841C93.2922 71.8508 95.929 71.2142 98.2977 69.9865C100.666 68.7588 102.695 66.9773 104.208 64.7973C104.227 64.7749 104.361 64.5791 104.377 64.554C104.578 64.2515 104.715 63.9125 104.781 63.5569C104.846 63.2013 104.84 62.8363 104.76 62.4834C104.681 62.1305 104.531 61.7968 104.32 61.5019C104.108 61.207 103.839 60.9569 103.528 60.7664C102.884 60.3672 102.108 60.2315 101.364 60.3882C100.62 60.5449 99.9678 60.9815 99.5444 61.6056C98.5616 63.0488 97.2314 64.2283 95.6733 65.0383C94.1152 65.8483 92.3779 66.2634 90.6173 66.2463C88.8169 66.2593 87.0421 65.825 85.456 64.9833C83.8699 64.1416 82.5234 62.9195 81.5401 61.4293Z" fill="#0B0B0B"/>
<path d="M46.7312 96.1105C44.0563 96.1006 41.4195 96.7373 39.0508 97.965C36.682 99.1927 34.6531 100.974 33.1409 103.154L32.971 103.398C32.77 103.699 32.6321 104.037 32.5653 104.392C32.4985 104.747 32.5041 105.112 32.5819 105.465C32.6597 105.818 32.8081 106.152 33.0184 106.447C33.2286 106.742 33.4965 106.993 33.8062 107.185C34.4502 107.585 35.2266 107.721 35.9704 107.564C36.7143 107.408 37.367 106.971 37.7899 106.346C38.7745 104.901 40.107 103.721 41.6677 102.911C43.2284 102.1 44.9683 101.686 46.7312 101.705C48.5313 101.694 50.3055 102.129 51.8913 102.97C53.4772 103.812 54.824 105.033 55.8083 106.522C56.0158 106.82 56.2817 107.074 56.5902 107.27C56.8987 107.465 57.2436 107.597 57.6046 107.658C57.9656 107.719 58.3354 107.708 58.6921 107.626C59.0488 107.544 59.3852 107.392 59.6816 107.179C60.2979 106.738 60.7154 106.075 60.8449 105.334C60.9745 104.593 60.806 103.831 60.3752 103.21C58.8622 101.014 56.827 99.219 54.4483 97.9812C52.0695 96.7434 49.4197 96.1011 46.7312 96.1105Z" fill="#0B0B0B"/>
</g>
</svg>
