<svg width="22" height="22" viewBox="0 0 22 22" fill="none" xmlns="http://www.w3.org/2000/svg">
<path d="M9.68833 0C4.34633 0 0 4.34633 0 9.68833C0 15.0306 4.34633 19.3767 9.68833 19.3767C15.0306 19.3767 19.3767 15.0306 19.3767 9.68833C19.3767 4.34633 15.0306 0 9.68833 0ZM9.68833 17.5881C5.33246 17.5881 1.78862 14.0442 1.78862 9.68838C1.78862 5.33251 5.33246 1.78862 9.68833 1.78862C14.0442 1.78862 17.588 5.33246 17.588 9.68833C17.588 14.0442 14.0442 17.5881 9.68833 17.5881Z" fill="#D84E52"/>
<path d="M21.738 20.4734L16.6106 15.346C16.2612 14.9966 15.6954 14.9966 15.346 15.346C14.9966 15.6951 14.9966 16.2615 15.346 16.6106L20.4734 21.738C20.6481 21.9126 20.8767 22 21.1057 22C21.3343 22 21.5633 21.9126 21.738 21.738C22.0874 21.3889 22.0874 20.8225 21.738 20.4734Z" fill="#D84E52"/>
<path d="M9.53345 6.59998V12.4666" stroke="#D84E52" stroke-width="1.6" stroke-linecap="round"/>
<path d="M12.4666 9.53333L6.59989 9.53333" stroke="#D84E52" stroke-width="1.6" stroke-linecap="round"/>
</svg>
