<svg width="152" height="152" fill="none" xmlns="http://www.w3.org/2000/svg"><g filter="url(#filter0_d)"><circle cx="76" cy="76" r="70" fill="#fff"/></g><path d="M62.328 99.242a6.836 6.836 0 100-13.672 6.836 6.836 0 000 13.672zm0 2.735a12.315 12.315 0 00-12.305 12.304 4.1 4.1 0 004.102 4.102h16.406a4.099 4.099 0 004.102-4.102 12.316 12.316 0 00-12.305-12.304zm43.75-2.735a6.836 6.836 0 100-13.671 6.836 6.836 0 000 13.671zm0 2.735a12.315 12.315 0 00-12.305 12.304 4.1 4.1 0 004.102 4.102h16.406a4.098 4.098 0 002.9-1.202 4.098 4.098 0 001.202-2.9 12.317 12.317 0 00-12.305-12.304zm0-38.282a6.836 6.836 0 100-13.672 6.836 6.836 0 000 13.672zm-8.203 19.141h16.406a4.1 4.1 0 004.102-4.102 12.307 12.307 0 00-12.305-12.304 12.305 12.305 0 00-12.305 12.304 4.102 4.102 0 004.102 4.102zm-8.203 27.344H78.734a1.369 1.369 0 00-.966 2.334c.256.256.604.4.966.4h10.938a1.368 1.368 0 00.967-2.334 1.368 1.368 0 00-.967-.4zm0-41.016H78.734a1.367 1.367 0 100 2.734h10.938a1.367 1.367 0 100-2.734z" fill="#E07275"/><path d="M97.37 62.416a30.158 30.158 0 00-24.192-24.193 5.447 5.447 0 00-10.762 0 30.157 30.157 0 00-24.193 24.2 5.447 5.447 0 000 10.762 30.158 30.158 0 0024.2 24.2 5.447 5.447 0 0010.762 0 30.157 30.157 0 0024.2-24.193 5.446 5.446 0 000-10.763l-.014-.013zM67.798 36.352a2.734 2.734 0 012.734 2.734l-.01.2a2.735 2.735 0 01-5.448 0c0-.035 0-.167-.01-.2a2.734 2.734 0 012.734-2.734zm-28.711 34.18a2.734 2.734 0 010-5.47l.2.011a2.734 2.734 0 01-.2 5.458zm28.71 28.71a2.734 2.734 0 01-2.733-2.734l.01-.2a2.725 2.725 0 014.616-1.767c.508.488.81 1.154.842 1.859v.108a2.734 2.734 0 01-2.734 2.734zm5.15-4.584a5.469 5.469 0 00-10.298 0 27.446 27.446 0 01-21.712-21.712 5.469 5.469 0 000-10.298 27.447 27.447 0 0121.712-21.712 5.469 5.469 0 0010.298 0 27.446 27.446 0 0121.712 21.712 5.47 5.47 0 000 10.298 27.447 27.447 0 01-21.712 21.712zM96.508 70.53l-.2-.01a2.734 2.734 0 010-5.448c.034 0 .167 0 .2-.01a2.734 2.734 0 010 5.468z" fill="#0B0B0B"/><path d="M67.797 66.43a8.203 8.203 0 10-8.203-8.203 8.211 8.211 0 008.203 8.203zm0-13.672a5.469 5.469 0 110 10.937 5.469 5.469 0 010-10.937zm0 16.406A12.318 12.318 0 0055.492 81.47a4.101 4.101 0 004.102 4.101H76a4.101 4.101 0 004.102-4.101 12.319 12.319 0 00-12.305-12.305zM76 82.836H59.594a1.367 1.367 0 01-1.367-1.367 9.57 9.57 0 1119.14 0A1.367 1.367 0 0176 82.836z" fill="#0B0B0B"/><defs><filter id="filter0_d" x="0" y="0" width="152" height="152" filterUnits="userSpaceOnUse" color-interpolation-filters="sRGB"><feFlood flood-opacity="0" result="BackgroundImageFix"/><feColorMatrix in="SourceAlpha" values="0 0 0 0 0 0 0 0 0 0 0 0 0 0 0 0 0 0 127 0"/><feMorphology radius="2" operator="dilate" in="SourceAlpha" result="effect1_dropShadow"/><feOffset/><feGaussianBlur stdDeviation="2"/><feColorMatrix values="0 0 0 0 0.441667 0 0 0 0 0.185868 0 0 0 0 0.193282 0 0 0 0.25 0"/><feBlend in2="BackgroundImageFix" result="effect1_dropShadow"/><feBlend in="SourceGraphic" in2="effect1_dropShadow" result="shape"/></filter></defs></svg>