<svg width="653" height="149" fill="none" xmlns="http://www.w3.org/2000/svg"><path d="M119.333 122.201C81.5 97 36.5 88-12 100-62.568 107.94-36-7.5 142-7.5c83.584 0 137 59.334 219.5 49.5 66-7.867 154-55 290-66" stroke="#000" stroke-opacity=".3" stroke-width="2" stroke-linecap="round" stroke-linejoin="round" stroke-dasharray="4 6"/><path d="M143.238 148.697l-11.553-36.706 57.762-17.205L201 131.49l-57.762 17.206z" fill="#CA4246"/><path d="M125.601 108.06l11.553 36.705m-11.553-36.705l57.763-17.206m-57.763 17.206l27.726 10.526m-16.173 26.179l57.762-17.205m-57.762 17.205l16.173-26.179m41.589 8.974l-11.552-36.706m11.552 36.706l-24.26-13.765m12.708-22.941l-12.708 22.941m-17.329 4.791l11.553 4.385 5.776-9.176" stroke="#0B0B0B" stroke-width="2" stroke-linecap="round" stroke-linejoin="round"/></svg>