<svg width="676" height="163" fill="none" xmlns="http://www.w3.org/2000/svg"><path d="M553.317 86.812L600.1 48.25l11.034 8.266-43.802 24.38 45.179-17.952 5.015-2.086 21.583 18.502-22.214 1.418-63.578 6.035z" fill="#D84E52"/><path d="M611.876 63.26l-.743-6.744-43.803 24.38 44.546-17.635zm3.488 17.663l-62.049 5.89 62.184 1.171-.135-7.061z" fill="#D84E52"/><path d="M550 82.164l43.698-34.646 10.003 7.795-40.709 21.654 41.863-15.718 4.649-1.831 19.525 17.392-20.455.916L550 82.164z" stroke="#0B0B0B" stroke-width="2" stroke-linecap="round" stroke-linejoin="round"/><path d="M604.135 61.376l-.434-6.063-40.709 21.654 41.143-15.59zm3.031 16.457L550 82.163l57.166 2.166v-6.496z" stroke="#0B0B0B" stroke-width="2" stroke-linecap="round" stroke-linejoin="round"/><path d="M629 57c33.666-34.667 103.3-88.7 112.5-27.5C753 106 638.737 193.309 552 120.5 517.666 87.667 463.9 29 413.5 57c-40 22.222-37.5 63.5-113 116-3.5 4-99.636 16-114-73.5-13-81 77.5-56.5 47.5-10-16.129 25-85.5 62.5-249.5-8" stroke="#000" stroke-opacity=".3" stroke-width="2" stroke-linecap="round" stroke-linejoin="round" stroke-dasharray="4 6"/></svg>