<svg width="264" height="193" fill="none" xmlns="http://www.w3.org/2000/svg"><path fill-rule="evenodd" clip-rule="evenodd" d="M30 6h204c16.569 0 30 13.431 30 30v28.078a13.273 13.273 0 00-6.983-4.21c.09-5.845-1.353-11.639-4.277-16.882-4.386-7.864-11.572-13.55-20.234-16.01a33.537 33.537 0 00-25.098 2.699 33.56 33.56 0 00-13.029 12.404 13.267 13.267 0 00-.584-.18c-7.081-2.01-14.479 2.114-16.49 9.196-1.961 6.904 1.913 14.107 8.671 16.327l-.242.854c-2.46 8.662-1.4 17.764 2.986 25.628 4.386 7.865 11.572 13.551 20.233 16.01a33.81 33.81 0 009.229 1.284c2.593 0 5.184-.298 7.712-.896a2.477 2.477 0 00-1.139-4.819 28.776 28.776 0 01-14.449-.332c-7.39-2.098-13.52-6.949-17.262-13.658-3.741-6.71-4.646-14.474-2.547-21.864l2.432-8.566a2.476 2.476 0 10-4.763-1.353l-.836 2.943a8.343 8.343 0 01-4.519-3.82 8.348 8.348 0 01-.744-6.386c1.237-4.35 5.706-6.925 10.062-5.866-.319.78-.619 1.57-.882 2.38a2.476 2.476 0 104.708 1.53 28.743 28.743 0 016.788-11.238c4.159 8.66 11.896 15.241 21.2 17.883a33.87 33.87 0 009.259 1.298c5.672 0 11.28-1.447 16.368-4.286a33.995 33.995 0 001.789-1.078 28.604 28.604 0 01-.397 14.192l-5.134 18.08a28.755 28.755 0 01-11.764 16.106 2.477 2.477 0 002.736 4.127 33.71 33.71 0 0013.791-18.88l.244-.86a13.29 13.29 0 003.109.378c3.872 0 7.542-1.7 10.056-4.566v24.138a30.002 30.002 0 01-9.506 21.909l-15.663 14.652a5.276 5.276 0 00-3.854-2.666l-19.211-2.809a5.297 5.297 0 00-5.836 3.766l-1.123 3.911a5.297 5.297 0 002.949 6.289L224 156.219l-4.489 4.2-12.999-7.004a5.294 5.294 0 00-6.772 1.542l-2.393 3.291a5.298 5.298 0 00.62 6.918l8.142 7.789-12.778 11.954A29.997 29.997 0 01172.837 193H30c-16.569 0-30-13.431-30-30V36C0 19.431 13.431 6 30 6zm174.164 151.773l11.532 6.214-5.965 5.58-8.341-7.979a.328.328 0 01-.038-.428l2.393-3.292a.33.33 0 01.419-.095zm30.363-12.781l-.542 1.887-6.051 5.661-14.186-6.237a.326.326 0 01-.182-.388l1.123-3.911a.33.33 0 01.361-.233l19.211 2.808a.314.314 0 01.227.146.315.315 0 01.039.267zm-37.554-13.973a13.53 13.53 0 001.255-10.35 13.533 13.533 0 00-6.431-8.207 13.531 13.531 0 00-9.865-1.378l-6.812-24.428c-1.796-6.436-8.492-10.21-14.927-8.416l-9.543 2.66a2.476 2.476 0 001.33 4.77l9.543-2.662c3.805-1.06 7.765 1.171 8.827 4.977l8.022 28.764-23.238 6.481c-4.71 1.314-9.645.363-13.539-2.608-4.33-3.303-9.707-4.391-14.753-2.983l-8.867 2.473-2.887-10.351c-1.061-3.806 1.172-7.765 4.977-8.827l1.966-.548c3.556-.992 6.955-.333 7.014-.321h.001a2.476 2.476 0 002.892-3.088 5.513 5.513 0 013.824-6.784l5.534-1.543a2.476 2.476 0 10-1.33-4.77l-5.534 1.544c-4.414 1.231-7.378 5.133-7.632 9.471-1.684-.039-3.849.094-6.099.722l-1.966.548c-6.435 1.795-10.211 8.491-8.416 14.927l5.166 18.524c-6.941 2.212-10.956 9.562-8.983 16.636 1.678 6.015 7.166 9.964 13.127 9.964 1.047 0 2.109-.13 3.168-.384l.261.939C127.307 172.003 141.2 182 156.294 182c3.059 0 6.167-.41 9.254-1.271 18.32-5.11 29.067-24.17 23.958-42.49l-.261-.934a13.535 13.535 0 007.728-6.287zm-85.702 13.902c-1.239-4.444 1.234-9.06 5.545-10.533l4.65 16.676c-4.451.97-8.955-1.699-10.195-6.143zm52.947 31.038c-15.69 4.375-32.014-4.829-36.39-20.519l-8.523-30.558 8.867-2.473c3.537-.987 7.335-.203 10.42 2.15 3.624 2.765 7.932 4.204 12.338 4.204 1.842 0 3.701-.251 5.535-.763l23.237-6.481 5.034 18.049c4.376 15.69-4.828 32.015-20.518 36.391zm28.442-47.371a8.614 8.614 0 01-4.746 3.944l-4.65-16.676a8.609 8.609 0 016.101.919 8.614 8.614 0 014.094 5.224 8.62 8.62 0 01-.799 6.589zm-43.126 21.755l22.044-6.148a2.476 2.476 0 013.049 1.72 13.826 13.826 0 01-1.283 10.575 13.826 13.826 0 01-8.384 6.571c-1.246.347-2.5.513-3.734.513-6.091 0-11.697-4.034-13.412-10.181a2.475 2.475 0 011.72-3.05zm14.096 7.949a8.913 8.913 0 005.402-4.233 8.92 8.92 0 001.159-4.337l-16.608 4.632c2.044 3.318 6.11 5.035 10.047 3.938zm-13.916-16.516c-1.042-3.737-4.931-5.93-8.669-4.888-3.737 1.042-5.93 4.931-4.888 8.669a2.478 2.478 0 003.05 1.72 2.477 2.477 0 001.72-3.05 2.089 2.089 0 011.448-2.57 2.09 2.09 0 012.57 1.449 2.475 2.475 0 104.769-1.33zm15.443-4.307c-1.042-3.738 1.151-7.626 4.889-8.669 3.737-1.043 7.626 1.15 8.668 4.887a2.475 2.475 0 11-4.769 1.331 2.089 2.089 0 00-2.569-1.449 2.089 2.089 0 00-1.449 2.57 2.477 2.477 0 01-4.77 1.33zm82.002-87.646c-6.707 3.743-14.472 4.649-21.863 2.55-8.364-2.376-15.243-8.486-18.631-16.47 6.854-4.855 15.759-6.643 24.489-4.164 7.39 2.098 13.52 6.95 17.262 13.659.505.906.954 1.833 1.356 2.775a29.154 29.154 0 01-2.613 1.65zm14.871 25.332a8.347 8.347 0 01-3.989 5.041 8.337 8.337 0 01-5.853.876l3.538-12.458c.352-1.237.628-2.484.837-3.735 4.259 1.393 6.701 5.928 5.467 10.276zm-47.309 18.703c-1.23 0-2.48-.168-3.721-.52a13.552 13.552 0 01-8.186-6.478 13.545 13.545 0 01-1.208-10.37 2.476 2.476 0 013.058-1.705l21.478 6.1a2.476 2.476 0 011.705 3.058c-1.703 5.994-7.182 9.915-13.126 9.915zm-2.368-5.284c3.781 1.074 7.701-.54 9.709-3.7l-16.027-4.552a8.64 8.64 0 001.103 4.126 8.632 8.632 0 005.215 4.126zm-5.654-19.724a2.476 2.476 0 003.058-1.706 6.934 6.934 0 00-4.771-8.553 6.88 6.88 0 00-5.265.613 6.879 6.879 0 00-3.289 4.157 2.476 2.476 0 004.763 1.352 1.96 1.96 0 01.938-1.184c.461-.257.993-.32 1.501-.176a1.977 1.977 0 011.36 2.44 2.475 2.475 0 001.705 3.057zm28.933 8.12a2.476 2.476 0 01-2.383-3.153 1.975 1.975 0 00-2.86-2.264 1.96 1.96 0 00-.938 1.185 2.476 2.476 0 11-4.763-1.353 6.878 6.878 0 013.289-4.157 6.882 6.882 0 015.265-.613 6.934 6.934 0 014.77 8.555 2.476 2.476 0 01-2.38 1.8zm-28.766 49.775l-.282-4.059a5.296 5.296 0 014.196-5.534l19.012-3.932a5.279 5.279 0 016.334 4.802l.643 9.255a5.278 5.278 0 01-5.608 5.632l-19.374-1.263a5.296 5.296 0 01-4.921-4.901zm23.929-8.676L211.782 122a.327.327 0 00-.258.343l.282 4.059a.327.327 0 00.304.303l19.374 1.264a.314.314 0 00.252-.096.314.314 0 00.094-.253l-.643-9.255a.315.315 0 00-.128-.237.316.316 0 00-.193-.067l-.026.001-.009.001-.007.001-.012.002c-.006 0-.011.002-.017.003zm-77.824-64.24l-17.706-7.964a5.278 5.278 0 01-2.315-7.604l4.906-7.873a5.277 5.277 0 017.846-1.274l14.952 12.384a5.296 5.296 0 011.114 6.856h-.001l-2.152 3.453a5.297 5.297 0 01-6.644 2.023zm-10.913-20.823l-4.905 7.874a.31.31 0 00-.036.267.317.317 0 00.178.203l17.707 7.964a.327.327 0 00.411-.125l2.152-3.454a.327.327 0 00-.069-.423l-14.952-12.385a.313.313 0 00-.261-.071.315.315 0 00-.225.15zm-7.275 39.84l19.362 1.427a5.298 5.298 0 005.552-4.173l.841-3.981a5.296 5.296 0 00-3.39-6.062l-18.286-6.523a5.279 5.279 0 00-6.937 3.88l-1.918 9.077a5.28 5.28 0 004.776 6.354zm.069-5.331l1.917-9.078a.317.317 0 01.16-.217.318.318 0 01.269-.022l18.286 6.523a.328.328 0 01.21.375l-.841 3.982a.33.33 0 01-.343.258l-19.363-1.428a.312.312 0 01-.236-.13.31.31 0 01-.059-.263zM171.24 42.81a5.272 5.272 0 01-3.684-1.49l-13.915-13.54a5.279 5.279 0 01.426-7.936l7.303-5.721a5.277 5.277 0 017.808 1.487l9.816 16.75a5.298 5.298 0 01-1.299 6.823l-3.204 2.51a5.258 5.258 0 01-3.251 1.117zm-6.816-24.79l-7.303 5.722a.311.311 0 00-.125.239.316.316 0 00.098.251l13.915 13.54a.327.327 0 00.429.023l3.203-2.51a.327.327 0 00.08-.421l-9.814-16.752a.314.314 0 00-.221-.155.312.312 0 00-.262.063z" fill="#D84E52"/><path d="M41.807 22v56h-12.96V32.4h-11.2V22h24.16zm36.929 56.96c-4.64 0-8.774-1.147-12.4-3.44-3.627-2.293-6.48-5.6-8.56-9.92-2.027-4.373-3.04-9.573-3.04-15.6 0-6.027 1.013-11.2 3.04-15.52 2.08-4.373 4.933-7.707 8.56-10 3.626-2.293 7.76-3.44 12.4-3.44 4.64 0 8.773 1.147 12.4 3.44 3.626 2.293 6.453 5.627 8.48 10 2.08 4.32 3.12 9.493 3.12 15.52 0 6.027-1.04 11.227-3.12 15.6-2.027 4.32-4.854 7.627-8.48 9.92-3.627 2.293-7.76 3.44-12.4 3.44zm0-10.96c3.413 0 6.08-1.467 8-4.4 1.973-2.933 2.96-7.467 2.96-13.6s-.987-10.667-2.96-13.6c-1.92-2.933-4.587-4.4-8-4.4-3.36 0-6.027 1.467-8 4.4-1.92 2.933-2.88 7.467-2.88 13.6s.96 10.667 2.88 13.6c1.973 2.933 4.64 4.4 8 4.4z" fill="#fff"/></svg>