<svg width="264" height="193" fill="none" xmlns="http://www.w3.org/2000/svg"><path fill-rule="evenodd" clip-rule="evenodd" d="M234 6H30C13.431 6 0 19.431 0 36v127c0 16.569 13.431 30 30 30h135.325C146.46 189.984 132 173.598 132 153.897V45c.003-12.738 10.369-23.1 23.103-23.1a177.3 177.3 0 0152.594 7.973l42.114 13.07A193.034 193.034 0 00264 46.763V36c0-16.569-13.431-30-30-30zm30 93.887v5.898a30.002 30.002 0 01-9.506 21.909l-33.793 31.612-13.004-4.036c-10.675-3.31-21.693-5.563-32.795-6.811v-83.66a3.3 3.3 0 00-3.3-3.3h-16.499c-9.098 0-16.5-7.401-16.5-16.499 0-9.097 7.402-16.5 16.5-16.5a170.56 170.56 0 0150.631 7.68l42.12 13.07A199.803 199.803 0 00264 53.527v38.516a60.255 60.255 0 00-5.635 3.779l3.987 5.263A51.71 51.71 0 01264 99.887zm-48.849 64.611l-21.82 20.411a30.003 30.003 0 01-19.982 8.087 3.3 3.3 0 001.551-2.799v-35.089c10.438 1.218 20.8 3.353 30.838 6.468l9.413 2.922zm-46.848 22.234c-16.652-1.66-29.7-15.754-29.7-32.834V61.153c4.195 4.283 10.042 6.946 16.5 6.946h13.2v118.633zm65.999-52.634c0-5.643-7.092-9.9-16.5-9.9-9.408 0-16.499 4.257-16.499 9.9 0 5.643 7.091 9.9 16.499 9.9 9.408 0 16.5-4.257 16.5-9.9zm-6.6 0c0 .822-3.511 3.3-9.9 3.3s-9.9-2.478-9.9-3.3c0-.821 3.511-3.3 9.9-3.3s9.9 2.479 9.9 3.3zm-35.175-28.34l-6.488-1.221-1.221 6.488 6.488 1.221 1.221-6.488zm12.977 2.439l-6.488-1.221-1.221 6.487 6.488 1.221 1.221-6.487zm39.569 3.969a59.333 59.333 0 01-6.574 2.36l-1.861-6.33a53.108 53.108 0 005.844-2.102l2.591 6.072zm-34.227 3.772l1.211-6.487c2.023.379 4.092.64 6.154.775l-.439 6.584a58.67 58.67 0 01-6.926-.872zm19.743-6.345a52.98 52.98 0 01-6.171.682l.337 6.591a59.463 59.463 0 006.943-.766l-1.109-6.507zm17.447-6.274a52.574 52.574 0 005.191-3.402l3.937 5.296a58.64 58.64 0 01-5.844 3.828l-3.284-5.722zm-59.934-53.086l-7.567-7.567-4.666 4.667 7.567 7.567-7.567 7.566 4.666 4.667 7.567-7.567 5.574 5.573c-3.465 3.462-5.574 7.95-5.574 12.86 0 10.92 10.366 19.8 23.1 19.8 4.362 0 8.514-1.013 12.154-2.95 2.623 1.898 5.887 2.95 9.296 2.95 8.187 0 14.849-5.92 14.849-13.2 0-7.181-6.484-13.042-14.519-13.197-3.208-7.794-11.9-13.203-21.78-13.203-4.458 0-8.61 1.106-12.144 2.99l-6.289-6.29 7.566-7.566-4.666-4.667-7.567 7.567zm33.749 37.824c-2.98 2.026-6.762 3.141-10.649 3.141-9.098 0-16.499-5.919-16.499-13.199s7.401-13.2 16.499-13.2c7.953 0 14.777 4.547 16.216 10.814a3.306 3.306 0 003.713 2.524 10 10 0 011.521-.139c4.55 0 8.249 2.96 8.249 6.6 0 3.64-3.699 6.6-8.249 6.6-2.558 0-4.944-.973-6.541-2.676a3.308 3.308 0 00-4.26-.465z" fill="#D84E52"/><path d="M33.403 78.96c-4.64 0-8.773-1.147-12.4-3.44-3.627-2.293-6.48-5.6-8.56-9.92-2.027-4.373-3.04-9.573-3.04-15.6 0-6.027 1.013-11.2 3.04-15.52 2.08-4.373 4.933-7.707 8.56-10 3.627-2.293 7.76-3.44 12.4-3.44 4.64 0 8.773 1.147 12.4 3.44 3.627 2.293 6.453 5.627 8.48 10 2.08 4.32 3.12 9.493 3.12 15.52 0 6.027-1.04 11.227-3.12 15.6-2.027 4.32-4.854 7.627-8.48 9.92-3.627 2.293-7.76 3.44-12.4 3.44zm0-10.96c3.413 0 6.08-1.467 8-4.4 1.973-2.933 2.96-7.467 2.96-13.6s-.987-10.667-2.96-13.6c-1.92-2.933-4.587-4.4-8-4.4-3.36 0-6.027 1.467-8 4.4-1.92 2.933-2.88 7.467-2.88 13.6s.96 10.667 2.88 13.6c1.973 2.933 4.64 4.4 8 4.4zM86.58 21.04c7.84 0 13.973 2.4 18.4 7.2 4.426 4.747 6.64 11.6 6.64 20.56 0 6.347-1.2 11.787-3.6 16.32-2.347 4.533-5.68 7.973-10 10.32-4.32 2.347-9.307 3.52-14.96 3.52-2.987 0-5.84-.32-8.56-.96-2.72-.693-5.04-1.653-6.96-2.88l4.8-9.52c2.72 1.867 6.213 2.8 10.48 2.8 4.746 0 8.506-1.387 11.28-4.16 2.773-2.827 4.266-6.88 4.48-12.16-3.36 3.36-8 5.04-13.92 5.04-3.574 0-6.827-.72-9.76-2.16-2.934-1.44-5.254-3.467-6.96-6.08-1.707-2.667-2.56-5.733-2.56-9.2 0-3.733.933-7.013 2.8-9.84 1.866-2.827 4.4-4.987 7.6-6.48 3.253-1.547 6.853-2.32 10.8-2.32zm.96 26.4c2.826 0 5.12-.773 6.88-2.32 1.813-1.6 2.72-3.627 2.72-6.08 0-2.453-.88-4.453-2.64-6-1.707-1.547-4.08-2.32-7.12-2.32-2.774 0-5.04.747-6.8 2.24-1.707 1.493-2.56 3.52-2.56 6.08s.853 4.613 2.56 6.16c1.76 1.493 4.08 2.24 6.96 2.24z" fill="#fff"/></svg>