<svg width="264" height="193" fill="none" xmlns="http://www.w3.org/2000/svg"><path fill-rule="evenodd" clip-rule="evenodd" d="M30 6h204c16.569 0 30 13.431 30 30v3.697h-1.863a18.084 18.084 0 00-16.554-10.85h-4.13a14.398 14.398 0 00-27.906 0h-4.13a18.1 18.1 0 00-16.557 10.85H140.7c-5.992 0-10.85 4.857-10.85 10.85V155.43h-3.617a7.233 7.233 0 00-7.233 7.233c.012 11.98 9.72 21.688 21.7 21.7h20.156L157.718 193H30c-16.569 0-30-13.431-30-30V36C0 19.431 13.431 6 30 6zm171.647 171.13l15.465-14.467h-90.879c0 7.99 6.477 14.467 14.467 14.467h60.947zM264 105.785v-2.886l-12.93 14.513.607 3.081 2.948-1.968a7.23 7.23 0 016.831-.649A30.003 30.003 0 00264 105.785zm0-11.388V46.93h-.333c0 5.992-4.858 10.85-10.85 10.85h-50.634c-5.992 0-10.85-4.858-10.85-10.85H140.7a3.617 3.617 0 00-3.617 3.617v98.232l31.541-39.208 3.838-4.774h-13.679c-7.424-.006-13.639-5.63-14.383-13.017-.744-7.386 4.224-14.137 11.497-15.624a19.817 19.817 0 0137.042-3.483 16.304 16.304 0 0112.857 15.849c0 .238-.028.469-.057.701-.018.145-.036.29-.048.438l29.686 34.492 23.443-26.319a10.71 10.71 0 015.18-3.437zm-9.506 33.297c.412-.385.811-.78 1.198-1.185a7.18 7.18 0 01-10.355-2.642l-5.179 5.816 4.557 5.309c.325.34.575.732.744 1.154l9.035-8.452zm-29.65 27.736l15.691-14.678a3.63 3.63 0 01-1.303-1.058l-19.804-23.013-1.367 3.41a7.265 7.265 0 01-10.738 3.335l-3.744-2.51-2.17 4.34a7.198 7.198 0 01-12.922-.04l-2.17-4.3-4.062 2.702a7.116 7.116 0 01-5.786.987 7.26 7.26 0 01-4.669-3.736l-1.143-2.286-29.639 36.847h83.826zm-31.004 29.003l.074-.07h-.049l-.025.07zm-7.657-.07l-2.361 6.554A30.012 30.012 0 01172.837 193h-7.428l3.139-8.637h17.635zm-27.4-86.8a7.233 7.233 0 116.362-10.694 3.618 3.618 0 006.373-3.425 14.33 14.33 0 00-8.174-6.803 12.626 12.626 0 0123.675.46c.06.124.129.245.206.36.13.306.302.592.51.85.145.135.303.256.47.362.193.18.405.337.633.47.278.116.57.198.868.243.151.053.306.095.463.127a9.042 9.042 0 01.564 17.97c-.4.061-.804.088-1.208.08h-30.742zm30.742 7.234c.795.007 1.589-.055 2.373-.185a16.275 16.275 0 0011.056-7.049l11.164 12.952-2.785 6.9-3.725-2.492a7.195 7.195 0 00-5.833-1.016 7.29 7.29 0 00-4.68 3.761l-2.138 4.34-2.17-4.365a7.232 7.232 0 00-10.463-2.749l-4.061 2.702-2.619-5.204 6.102-7.595h7.779zm19.892-68.717h7.233a3.617 3.617 0 003.617-3.617 7.233 7.233 0 1114.466 0 3.617 3.617 0 003.617 3.617h7.233c5.984.02 10.83 4.866 10.85 10.85a3.616 3.616 0 01-3.616 3.617h-50.634a3.616 3.616 0 01-3.616-3.617c.021-5.983 4.866-10.828 10.85-10.85zm21.7 3.616a3.617 3.617 0 11-7.235-.001 3.617 3.617 0 017.235 0zm-.42 47.027c-.937-.13-2.405 1.01-3.92 3.031a3.618 3.618 0 01-5.787-4.34 11.646 11.646 0 0110.658-5.863 10.873 10.873 0 016.702 4.094 10.873 10.873 0 016.702-4.094 11.667 11.667 0 0110.658 5.863 3.618 3.618 0 01-5.787 4.34c-1.519-2.025-3.009-3.172-3.92-3.03-1.508.195-3.501 3.142-4.297 5.11l-.025.04c-.014.033-.035.063-.055.093a.549.549 0 00-.046.073 3.63 3.63 0 01-.593.875 4.052 4.052 0 01-.311.278 3.67 3.67 0 01-.753.492 1.238 1.238 0 00-.156.101c-.03.021-.056.04-.075.051-.029.017-.058.018-.087.02a.19.19 0 00-.069.01 3.567 3.567 0 01-1.016.198.305.305 0 00-.085.016.308.308 0 01-.085.017 3.65 3.65 0 01-1.244-.25c-.017-.01-.029-.01-.043-.01a.14.14 0 01-.066-.012.329.329 0 01-.082-.053c-.024-.019-.047-.038-.077-.051a3.639 3.639 0 01-.868-.572 2.734 2.734 0 01-.242-.22 3.602 3.602 0 01-.633-.934 1.975 1.975 0 01-.076-.126l-.025-.04c-.8-1.964-2.789-4.911-4.297-5.107z" fill="#D84E52"/><path d="M33.403 78.96c-4.64 0-8.773-1.147-12.4-3.44-3.627-2.293-6.48-5.6-8.56-9.92-2.027-4.373-3.04-9.573-3.04-15.6 0-6.027 1.013-11.2 3.04-15.52 2.08-4.373 4.933-7.707 8.56-10 3.627-2.293 7.76-3.44 12.4-3.44 4.64 0 8.773 1.147 12.4 3.44 3.627 2.293 6.453 5.627 8.48 10 2.08 4.32 3.12 9.493 3.12 15.52 0 6.027-1.04 11.227-3.12 15.6-2.027 4.32-4.854 7.627-8.48 9.92-3.627 2.293-7.76 3.44-12.4 3.44zm0-10.96c3.413 0 6.08-1.467 8-4.4 1.973-2.933 2.96-7.467 2.96-13.6s-.987-10.667-2.96-13.6c-1.92-2.933-4.587-4.4-8-4.4-3.36 0-6.027 1.467-8 4.4-1.92 2.933-2.88 7.467-2.88 13.6s.96 10.667 2.88 13.6c1.973 2.933 4.64 4.4 8 4.4zM93.86 42.88c3.573 0 6.826.72 9.76 2.16 2.933 1.44 5.253 3.493 6.96 6.16 1.706 2.613 2.56 5.653 2.56 9.12 0 3.733-.934 7.013-2.8 9.84-1.867 2.827-4.427 5.013-7.68 6.56-3.2 1.493-6.774 2.24-10.72 2.24-7.84 0-13.974-2.4-18.4-7.2-4.427-4.8-6.64-11.653-6.64-20.56 0-6.347 1.2-11.787 3.6-16.32 2.4-4.533 5.733-7.973 10-10.32 4.32-2.347 9.306-3.52 14.96-3.52 2.986 0 5.84.347 8.56 1.04 2.773.64 5.12 1.573 7.04 2.8l-4.8 9.52c-2.774-1.867-6.267-2.8-10.48-2.8-4.747 0-8.507 1.387-11.28 4.16-2.774 2.773-4.267 6.8-4.48 12.08 3.306-3.307 7.92-4.96 13.84-4.96zm-2.64 26.4c2.773 0 5.013-.747 6.72-2.24 1.76-1.493 2.64-3.52 2.64-6.08s-.88-4.587-2.64-6.08c-1.707-1.547-4-2.32-6.88-2.32-2.827 0-5.147.8-6.96 2.4-1.814 1.547-2.72 3.547-2.72 6s.88 4.453 2.64 6c1.76 1.547 4.16 2.32 7.2 2.32z" fill="#fff"/></svg>