<svg width="264" height="193" fill="none" xmlns="http://www.w3.org/2000/svg"><path fill-rule="evenodd" clip-rule="evenodd" d="M234 6H30C13.431 6 0 19.431 0 36v127c0 16.569 13.431 30 30 30h142.837c4.015 0 7.95-.805 11.589-2.329l-.002-.106v-12.614l-20.742-24.774c-3.074-3.607-2.639-9.069.985-12.157 3.522-3.003 9.236-2.645 12.199 1.002l6.916 8.386v-25.664c-12.452-4.784-18.449-20.339-12.439-32.349 1.439-2.99 5.948-.661 4.572 2.2a18.63 18.63 0 00-1.797 6.794 18.678 18.678 0 009.664 17.749v-12.864c0-4.818 4.11-8.801 8.928-8.631 4.6.153 8.342 4.097 8.342 8.791v13.089c5.894-2.902 9.948-8.776 10.423-15.492.728-10.3-7.059-19.274-17.358-20.002a18.66 18.66 0 00-10.133 2.153c-2.926 1.565-5.191-2.977-2.392-4.473 16.223-8.856 36.408 4.226 34.943 22.68-.662 9.359-6.794 17.432-15.483 20.649v5.861l20.867.04c6.578.013 11.999 5.375 12.086 11.953l.056 3.917 20.433-19.115a30.006 30.006 0 008.978-16.303c-2.763-.683-5.242-2.683-6.337-6.144h-27.1l-.003.048a37.27 37.27 0 01-6.686 18.874c-1.909 2.715-5.976-.323-4.149-2.919a32.21 32.21 0 005.772-16.264c1.301-18.402-13.754-34.532-32.194-34.532-27.253.03-42.466 32.828-24.338 53.399a32.676 32.676 0 005.489 5.033c2.66 1.925-.361 6.001-2.975 4.108a37.689 37.689 0 01-6.345-5.817c-5.394-6.215-8.521-13.858-9.054-21.93h-26.995c-1.097 3.723-4.545 6.449-8.618 6.449-11.917-.492-11.92-17.478 0-17.972 4.074 0 7.521 2.726 8.618 6.449h27c.003-.032.004-.064.006-.097a37.19 37.19 0 017.746-20.26l-8.321-8.323h-13.002c-1.142 4.677-5.366 8.158-10.388 8.158-14.182-.585-14.187-20.801 0-21.389 5.022 0 9.246 3.482 10.388 8.158h11.516V52.093c-3.723-1.098-6.449-4.545-6.449-8.62.492-11.917 17.477-11.921 17.971 0 0 4.075-2.726 7.522-6.449 8.62v15.813l8.119 8.12c6.317-6.175 14.748-9.969 23.566-10.56V41.029c-4.676-1.142-8.157-5.367-8.157-10.39.585-14.183 20.799-14.188 21.386 0 0 5.023-3.48 9.248-8.156 10.39v24.44l.048.002.048.003c9.176.65 17.349 4.582 23.456 10.566l8.132-8.134V52.093c-3.723-1.098-6.449-4.545-6.449-8.62.492-11.917 17.477-11.921 17.971 0 0 4.075-2.726 7.522-6.449 8.62V66.42h11.543c1.142-4.676 5.366-8.158 10.388-8.158 5.326.22 8.653 3.208 9.979 6.886V36c0-16.569-13.431-30-30-30zm30 66.766c-1.326 3.677-4.652 6.664-9.979 6.885-5.022 0-9.246-3.481-10.388-8.158h-13.029l-8.337 8.339c4.451 5.73 7.258 12.76 7.769 20.341h27.098A9.019 9.019 0 01264 93.895V72.766zm0 26.442c-1.176.563-2.086 1.73-2.159 3.502 0 1.526.878 2.852 2.156 3.496.002-.14.003-.28.003-.421v-6.577zm-70.669 85.701a29.94 29.94 0 01-3.834 3.04v-10.92c0-.595-.209-1.172-.592-1.628l-21.347-25.498a3.567 3.567 0 01.4-5.023c1.474-1.256 3.747-1.081 5.01.387l11.393 13.817c1.482 1.798 4.494.716 4.494-1.613v-51.198c0-1.995 1.695-3.624 3.686-3.56 1.895.063 3.438 1.732 3.438 3.72v35.193c0 3.175 5.073 3.319 5.073 0v-5.654l5.644.011v5.643c0 3.175 5.072 3.319 5.072 0v-5.633l5.644.011v5.622c.001 3.175 5.074 3.319 5.074 0v-5.587c3.557.301 6.399 3.291 6.447 6.922l.088 6.227c.011.737.27 1.307.667 1.711l-36.357 34.01zM156.038 39.56a3.917 3.917 0 00-3.912 3.913 3.917 3.917 0 003.912 3.914c5.189-.215 5.191-7.612 0-7.827zm-30.06 29.397c0 3.1 2.521 5.621 5.62 5.621a5.627 5.627 0 005.62-5.621c-.307-7.456-10.932-7.458-11.24 0zm-9.951 33.753a3.917 3.917 0 003.912 3.913 3.918 3.918 0 003.913-3.913c-.214-5.19-7.61-5.192-7.825 0zm76.769-77.692a5.627 5.627 0 00-5.62 5.621c0 3.1 2.521 5.622 5.62 5.622 7.454-.308 7.456-10.935 0-11.243zm66.846 43.939c0-3.1-2.521-5.622-5.621-5.622a5.627 5.627 0 00-5.62 5.622c.308 7.456 10.932 7.457 11.241 0zM229.553 39.56a3.917 3.917 0 00-3.912 3.913 3.917 3.917 0 003.912 3.914c5.189-.215 5.191-7.612 0-7.827z" fill="#D84E52"/><path d="M41.862 22v56h-12.96V32.4h-11.2V22h24.16zM96.63 67.44V78H54.31v-8.4l21.6-20.4c2.294-2.187 3.84-4.053 4.64-5.6.8-1.6 1.2-3.173 1.2-4.72 0-2.24-.773-3.947-2.32-5.12-1.493-1.227-3.706-1.84-6.64-1.84-2.453 0-4.666.48-6.64 1.44-1.973.907-3.626 2.293-4.96 4.16l-9.44-6.08c2.187-3.253 5.2-5.787 9.04-7.6 3.84-1.867 8.24-2.8 13.2-2.8 4.16 0 7.787.693 10.88 2.08 3.147 1.333 5.574 3.253 7.28 5.76 1.76 2.453 2.64 5.36 2.64 8.72 0 3.04-.64 5.893-1.92 8.56-1.28 2.667-3.76 5.707-7.44 9.12L72.55 67.44h24.08z" fill="#fff"/></svg>