<svg width="264" height="193" fill="none" xmlns="http://www.w3.org/2000/svg"><path fill-rule="evenodd" clip-rule="evenodd" d="M234 6H30C13.431 6 0 19.431 0 36v127c0 16.569 13.431 30 30 30h82.583c.302-2.996.756-6.359 1.431-9.952 2.28-12.143 7.637-29.257 20.206-41.826 3.934-3.934 8.569-7.422 13.776-10.366a2.802 2.802 0 112.759 4.879c-4.766 2.696-8.996 5.875-12.571 9.451-9.215 9.215-14.32 21.253-17.138 32.206a29.352 29.352 0 0112.773 6.166l8.816-8.816-2.246-2.246a2.802 2.802 0 113.964-3.964l2.246 2.246 6.607-6.606-2.246-2.246a2.802 2.802 0 113.963-3.964l2.247 2.246 6.606-6.606-2.246-2.246a2.802 2.802 0 113.964-3.964l2.246 2.246 8.816-8.816a29.363 29.363 0 01-6.173-12.804 89.078 89.078 0 00-10.317 3.313 2.804 2.804 0 01-2.047-5.219c20.425-8.015 40.681-7.103 41.534-7.061a2.803 2.803 0 012.659 2.659c.021.421.488 10.447-1.965 23.506-2.281 12.143-7.637 29.258-20.206 41.827a60.144 60.144 0 01-6.963 5.956 29.994 29.994 0 0020.253-8.091l61.163-57.214a29.995 29.995 0 006.872-9.616 50.402 50.402 0 01-17.726 3.201c-27.923 0-50.64-22.717-50.64-50.64C193 42.718 215.717 20 243.64 20a50.4 50.4 0 0117.452 3.1C256.269 12.986 245.95 6 234 6zm29.44 24.2a44.722 44.722 0 00-7.918-3 2.883 2.883 0 01-.237.178l-8.842 5.895V51.2l15.712 10.476 1.845-.6V36c0-1.984-.193-3.923-.56-5.8zm.56 36.771l-.183.06-5.458 19.1L264 93.894V66.971zM162.637 193c4.801-2.617 9.391-5.873 13.44-9.922 9.199-9.198 14.302-21.21 17.124-32.147a29.418 29.418 0 01-12.68-6.146l-8.816 8.816 2.246 2.246a2.804 2.804 0 010 3.964c-1.08 1.08-2.884 1.08-3.964 0l-2.246-2.246-6.607 6.606 2.246 2.246a2.802 2.802 0 010 3.964c-1.08 1.079-2.884 1.079-3.964 0l-2.246-2.246-6.606 6.606 2.246 2.246a2.802 2.802 0 010 3.964c-1.08 1.08-2.884 1.079-3.964 0l-2.246-2.246-8.816 8.816a29.499 29.499 0 013.604 5.479h21.249zm-27.741 0a24.25 24.25 0 00-2.963-3.591 23.887 23.887 0 00-12.135-6.552c-.73 3.649-1.22 7.085-1.547 10.143h16.645zm48.489-115.34c0-14.734-11.987-26.721-26.722-26.721-14.734 0-26.721 11.987-26.721 26.721s11.987 26.721 26.721 26.721c14.735 0 26.722-11.987 26.722-26.72zm-5.606 0c0 11.643-9.472 21.116-21.116 21.116-11.643 0-21.115-9.473-21.115-21.116 0-11.643 9.472-21.115 21.115-21.115 11.644 0 21.116 9.472 21.116 21.115zm-9.531-11.772h.374a2.802 2.802 0 110 5.606h-.374a2.803 2.803 0 010-5.606zm-11.585 0h-.374a2.803 2.803 0 000 5.606h.374a2.803 2.803 0 000-5.606zm-12.333 0h.374a2.802 2.802 0 110 5.606h-.374a2.803 2.803 0 010-5.606zm12.333-8.97h-.374a2.803 2.803 0 000 5.607h.374a2.803 2.803 0 000-5.607zm11.585 17.94h.374a2.802 2.802 0 110 5.605h-.374a2.803 2.803 0 010-5.606zm-11.585 0h-.374a2.803 2.803 0 000 5.605h.374a2.803 2.803 0 000-5.606zm-12.333 0h.374a2.802 2.802 0 110 5.605h-.374a2.803 2.803 0 010-5.606zm24.292 8.968h-.374a2.803 2.803 0 000 5.607h.374a2.803 2.803 0 000-5.607zm-12.333 0h.374a2.802 2.802 0 110 5.607h-.374a2.803 2.803 0 010-5.607zm-11.585 0h-.374a2.803 2.803 0 000 5.607h.374a2.803 2.803 0 000-5.607zm11.585 8.97h.374a2.802 2.802 0 110 5.606h-.374a2.803 2.803 0 010-5.606zm19.561 33.975c9.117-1.82 16.913-2.135 20.794-2.157-.029 3.887-.357 11.707-2.192 20.854a23.922 23.922 0 01-12.044-6.533 23.882 23.882 0 01-6.558-12.164zm23.901-66.244a44.69 44.69 0 012.44-7.493l1.28 4.555-3.72 2.938zm6.342-14.331a2.781 2.781 0 00-.087-.26c5.947-9.03 15.051-15.8 25.73-18.73l9.1 6.067V51.2l-15.713 10.475-16.156-5.25-2.874-10.23zm27.595 36.218l-4.595-16.087a2.76 2.76 0 00.152-.365 2.83 2.83 0 00.087-.354l14.307-9.539 14.308 9.539c.022.118.049.236.087.354.041.128.095.248.152.365l-4.596 16.087a2.79 2.79 0 00-.902.372H234.59a2.78 2.78 0 00-.902-.372zm6.016-56.634a45.158 45.158 0 013.935-.174c1.326 0 2.638.061 3.936.174l-3.936 2.624-3.935-2.624zm3.936 89.893a44.816 44.816 0 01-15.901-2.901l-3.796-10.254 10.263-14.126h18.867l10.263 14.126-3.689 9.966a2.912 2.912 0 00-.087.28 44.806 44.806 0 01-15.92 2.909zm-24.826-10.863l1.636 4.42a45.27 45.27 0 01-6.331-4.61l4.695.19zm-10.024-6.015a2.812 2.812 0 00-.268.002c-6.2-7.717-9.916-17.51-9.917-28.157 0-.706.019-1.407.051-2.104l8.579-6.778 16.228 5.273 5.457 19.1-9.512 13.092-10.618-.428z" fill="#D84E52"/><path d="M33.583 78.96c-4.64 0-8.774-1.147-12.4-3.44-3.627-2.293-6.48-5.6-8.56-9.92-2.027-4.373-3.04-9.573-3.04-15.6 0-6.027 1.013-11.2 3.04-15.52 2.08-4.373 4.933-7.707 8.56-10 3.626-2.293 7.76-3.44 12.4-3.44 4.64 0 8.773 1.147 12.4 3.44 3.626 2.293 6.453 5.627 8.48 10 2.08 4.32 3.12 9.493 3.12 15.52 0 6.027-1.04 11.227-3.12 15.6-2.027 4.32-4.854 7.627-8.48 9.92-3.627 2.293-7.76 3.44-12.4 3.44zm0-10.96c3.413 0 6.08-1.467 8-4.4 1.973-2.933 2.96-7.467 2.96-13.6s-.987-10.667-2.96-13.6c-1.92-2.933-4.587-4.4-8-4.4-3.36 0-6.027 1.467-8 4.4-1.92 2.933-2.88 7.467-2.88 13.6s.96 10.667 2.88 13.6c1.973 2.933 4.64 4.4 8 4.4zm52.696-24.96c7.894 0 13.707 1.573 17.44 4.72 3.787 3.147 5.68 7.36 5.68 12.64 0 3.413-.853 6.533-2.56 9.36-1.706 2.773-4.32 5.013-7.84 6.72-3.466 1.653-7.76 2.48-12.88 2.48a45.59 45.59 0 01-11.68-1.52c-3.786-1.067-7.013-2.56-9.68-4.48l5.12-9.92c2.134 1.6 4.587 2.853 7.36 3.76a28.944 28.944 0 008.56 1.28c3.254 0 5.814-.64 7.68-1.92 1.867-1.28 2.8-3.067 2.8-5.36 0-2.4-.986-4.213-2.96-5.44-1.92-1.227-5.28-1.84-10.08-1.84H68.92L71.8 22h34.16v10.4H82.6l-.88 10.64h4.56z" fill="#fff"/></svg>