<svg width="264" height="193" fill="none" xmlns="http://www.w3.org/2000/svg"><path fill-rule="evenodd" clip-rule="evenodd" d="M234 6H30C13.431 6 0 19.431 0 36v127c0 16.569 13.431 30 30 30h137.517a29.334 29.334 0 01-3.312-4.614c-.109.003-.221.005-.334.005-15.659 0-27.745-15.337-25.238-30.491-4.876-4.809-7.633-11.286-7.633-18.086 0-5.243 1.653-10.346 4.703-14.652-3.122-4.686-4.703-10.549-4.703-15.662 0-7.668 3.407-14.793 9.252-19.624-1.294-3.092-1.947-6.307-1.947-9.595 0-10.173 5.937-19.65 14.764-24.076-1.335-11.04 5.835-21.273 16.626-23.887C173.892 22.612 183.237 16 193.09 16c9.171 0 17.396 5.35 21.914 13.154C219.521 21.35 227.747 16 236.918 16c9.852 0 19.197 6.612 23.395 16.318 1.245.301 2.443.705 3.586 1.2C262.637 18.11 249.733 6 234 6zm30 35.97a14.565 14.565 0 00-8.82-2.96 14.53 14.53 0 00-10.334 4.279 3.652 3.652 0 11-5.162-5.169 21.77 21.77 0 0112.113-6.154c-3.221-4.781-8.577-8.661-14.879-8.661-9.728 0-18.262 9.045-18.262 19.357V71.29a14.518 14.518 0 017.305-1.966 3.652 3.652 0 010 7.305c-4.028 0-7.305 3.277-7.305 7.305v69.456c4.712-5.345 11.34-8.963 18.8-9.758l6.836-6.394a25.617 25.617 0 00-7.374-1.076 3.652 3.652 0 110-7.305c4.77 0 9.275 1.008 13.331 2.808l4.245-3.971a29.986 29.986 0 005.855-7.566 3.643 3.643 0 01-1.517.329c-8.896 0-16.322-6.395-17.934-14.829a25.528 25.528 0 01-13.72-6.291 3.652 3.652 0 014.87-5.445 18.238 18.238 0 0012.175 4.651c10.069 0 18.261-8.192 18.261-18.262 0-1.219.598-2.299 1.516-2.962v-16.25c-8.808 1.2-16.125 9.663-16.125 19.212a3.653 3.653 0 01-7.305 0c0-13.703 10.526-25.39 23.43-26.565V41.97zm0 54.492c-3.857 4.704-9.357 8.012-15.614 9.041 1.406 4.43 5.557 7.649 10.446 7.649a3.654 3.654 0 013.482 2.548 29.99 29.99 0 001.686-9.915v-9.323zm-53.062 71.976c-1.983-10.058-10.87-17.667-21.5-17.667a3.652 3.652 0 110-7.304c8.72 0 16.555 3.845 21.914 9.923V83.934c0-4.028-3.277-7.305-7.305-7.305a3.652 3.652 0 010-7.305c2.66 0 5.154.718 7.305 1.966V42.662c0-10.312-8.534-19.357-18.262-19.357-6.303 0-11.659 3.88-14.88 8.661a21.768 21.768 0 0112.114 6.155 3.652 3.652 0 11-5.163 5.167 14.526 14.526 0 00-10.333-4.278c-7.992 0-14.609 6.458-14.609 14.61 0 .054.002.109.005.163l.002.052.002.07a23.672 23.672 0 013.643-.286c13.859 0 25.567 12.21 25.567 26.662a3.653 3.653 0 01-7.305 0c0-10.311-8.534-19.357-18.262-19.357-10.226 0-18.262 9.5-18.262 19.357 0 3.07.824 6.077 2.447 8.94a3.652 3.652 0 01-1.222 4.887c-5.341 3.383-8.529 9.137-8.529 15.392 0 10.311 8.349 19.357 18.261 19.357a3.653 3.653 0 110 7.305c-5.752 0-11.201-2.155-15.581-5.746-1.743 2.843-2.68 6.085-2.68 9.398 0 5.359 2.426 10.451 6.657 13.972a3.652 3.652 0 011.215 3.661c-3.169 13.168 8.537 24.938 18.932 23.517.256-.035.513-.07.771-.099a3.655 3.655 0 013.726 2.091 22.067 22.067 0 008.563 9.566 29.989 29.989 0 0015.162-7.614l17.607-16.47zm18.675-118.471a3.653 3.653 0 113.653 3.652 3.654 3.654 0 01-3.653-3.652zm-32.871-3.652a3.653 3.653 0 000 7.304 3.654 3.654 0 003.653-3.652 3.654 3.654 0 00-3.653-3.652zm6.375 47.865a3.652 3.652 0 00-5.157-.288c-11.713 10.477-30.437 2.104-30.437-13.61a3.652 3.652 0 10-7.304 0c0 12.678 9.279 23.226 21.402 25.221-1.406 4.43-5.556 7.649-10.445 7.649a3.653 3.653 0 100 7.305c8.896 0 16.322-6.395 17.934-14.829a25.532 25.532 0 0013.72-6.291 3.653 3.653 0 00.287-5.157zm-42.898 67.549a3.652 3.652 0 013.652-3.653c13.859 0 25.567 12.21 25.567 26.662a3.654 3.654 0 01-7.305 0c0-10.311-8.534-19.357-18.262-19.357a3.652 3.652 0 01-3.652-3.652zm32.871-32.872c-12.376 0-23.003 6.788-28.598 16.658a3.653 3.653 0 006.355 3.602c4.359-7.69 12.63-12.955 22.243-12.955a3.652 3.652 0 100-7.305z" fill="#D84E52"/><path d="M33.293 78.96c-4.64 0-8.773-1.147-12.4-3.44-3.626-2.293-6.48-5.6-8.56-9.92-2.026-4.373-3.04-9.573-3.04-15.6 0-6.027 1.014-11.2 3.04-15.52 2.08-4.373 4.934-7.707 8.56-10 3.627-2.293 7.76-3.44 12.4-3.44 4.64 0 8.774 1.147 12.4 3.44 3.627 2.293 6.454 5.627 8.48 10 2.08 4.32 3.12 9.493 3.12 15.52 0 6.027-1.04 11.227-3.12 15.6-2.026 4.32-4.853 7.627-8.48 9.92-3.626 2.293-7.76 3.44-12.4 3.44zm0-10.96c3.414 0 6.08-1.467 8-4.4 1.974-2.933 2.96-7.467 2.96-13.6s-.986-10.667-2.96-13.6c-1.92-2.933-4.586-4.4-8-4.4-3.36 0-6.026 1.467-8 4.4-1.92 2.933-2.88 7.467-2.88 13.6s.96 10.667 2.88 13.6c1.974 2.933 4.64 4.4 8 4.4zm84.777-1.76h-9.12V78H96.31V66.24H66.15v-8.72L92.55 22h13.6L81.67 55.68h15.04V45.2h12.24v10.48h9.12v10.56z" fill="#fff"/></svg>