<svg width="264" height="193" fill="none" xmlns="http://www.w3.org/2000/svg"><path fill-rule="evenodd" clip-rule="evenodd" d="M234 6H30C13.431 6 0 19.431 0 36v127c0 16.569 13.431 30 30 30h142.837a29.997 29.997 0 0020.494-8.091l2.84-2.656a59.091 59.091 0 01-5.891-4.143 3.155 3.155 0 01-.26-.231l-5.972-5.873h-22.656a3.38 3.38 0 010-6.758h15.784l-10.489-10.316h-21.841a3.379 3.379 0 010-6.757h14.97L118.01 107.06a3.38 3.38 0 01-.003-4.815l10.16-10.014 35.477-39.148a3.378 3.378 0 015.77 1.403c.42 1.586.977 3.183 1.658 4.77l16.665-22.567.008-.011 11.303-15.306A3.379 3.379 0 01201.766 20h57.616C254.067 11.587 244.686 6 234 6zm29.427 24.134L217.571 84.57l8.664 50.082c2.811 2.498 8.137 4.453 13.751 6.514l.003.001h.001l.073.027 14.431-13.5A30.002 30.002 0 00264 105.785V36c0-2.008-.197-3.97-.573-5.866zm-28.884 116.223c-5.682-2.138-10.824-4.371-13.946-7.782a3.38 3.38 0 01-.837-1.705l-2.261-13.071h-13.867a3.38 3.38 0 010-6.758h12.698l-1.338-7.733h-16.618a3.38 3.38 0 010-6.758h15.449l-2.689-15.544h-.057l-.051.001c-11.625.15-22.606.29-31.816-6.546-4.251-3.154-8.238-7.64-11.298-12.649a3.35 3.35 0 01-.511-.862 46.887 46.887 0 01-1.465-2.705 44.263 44.263 0 01-1.11-2.403L135.29 94.434l61.653 60.528.018.019.028.028c5.049 5.154 10.415 8.8 16.171 11.351l21.383-20.003zm-26.665 24.944c-5.456-2.742-10.726-6.474-15.693-11.539l-61.574-60.451-5.416 5.338 69.437 68.289a52.3 52.3 0 006.682 4.503l6.564-6.14zm49.556-144.543h-53.962l-8.069 10.927c4.26 2.483 9.238 5.316 14.447 8.281l.009.005c7.262 4.134 14.741 8.39 21.127 12.183l26.448-31.396zm-50.94 25.074h-.001c-5.479-3.119-10.702-6.092-15.128-8.68l-16.722 22.644c2.451 3.66 5.442 6.899 8.595 9.238 7.377 5.476 16.796 5.355 27.7 5.216h.001l.394-.005 1.054-.011 14.185-16.84c-6.119-3.617-13.183-7.638-20.056-11.55l-.022-.012zm-72.129 96.343h-.173a3.38 3.38 0 000 6.758h.173a3.379 3.379 0 000-6.758zm16.733 17.074h.174a3.379 3.379 0 110 6.757h-.174a3.378 3.378 0 110-6.757z" fill="#D84E52"/><path d="M33.59 78.96c-4.64 0-8.773-1.147-12.4-3.44-3.626-2.293-6.48-5.6-8.56-9.92-2.026-4.373-3.04-9.573-3.04-15.6 0-6.027 1.014-11.2 3.04-15.52 2.08-4.373 4.934-7.707 8.56-10 3.627-2.293 7.76-3.44 12.4-3.44 4.64 0 8.774 1.147 12.4 3.44 3.627 2.293 6.454 5.627 8.48 10 2.08 4.32 3.12 9.493 3.12 15.52 0 6.027-1.04 11.227-3.12 15.6-2.026 4.32-4.853 7.627-8.48 9.92-3.626 2.293-7.76 3.44-12.4 3.44zm0-10.96c3.414 0 6.08-1.467 8-4.4 1.974-2.933 2.96-7.467 2.96-13.6s-.986-10.667-2.96-13.6c-1.92-2.933-4.586-4.4-8-4.4-3.36 0-6.026 1.467-8 4.4-1.92 2.933-2.88 7.467-2.88 13.6s.96 10.667 2.88 13.6c1.974 2.933 4.64 4.4 8 4.4zm58.876-23.2c4.907.8 8.667 2.64 11.28 5.52 2.613 2.827 3.92 6.347 3.92 10.56 0 3.253-.853 6.267-2.56 9.04-1.707 2.72-4.32 4.907-7.84 6.56-3.467 1.653-7.733 2.48-12.8 2.48-3.947 0-7.84-.507-11.68-1.52-3.787-1.067-7.013-2.56-9.68-4.48l5.04-9.92c2.133 1.6 4.587 2.853 7.36 3.76a29.74 29.74 0 008.64 1.28c3.253 0 5.813-.613 7.68-1.84 1.867-1.28 2.8-3.067 2.8-5.36 0-4.587-3.493-6.88-10.48-6.88h-5.92v-8.56l11.52-13.04h-23.84V22h39.2v8.4l-12.64 14.4z" fill="#fff"/></svg>