<svg width="264" height="193" fill="none" xmlns="http://www.w3.org/2000/svg"><path fill-rule="evenodd" clip-rule="evenodd" d="M30 6h204c16.569 0 30 13.431 30 30v69.785c0 .218-.002.436-.007.653l-24.676-16.45a2.603 2.603 0 00-2.868-.019l-42.696 27.626-24.812-19.644a2.615 2.615 0 00-3.07-.125L111 134.407l2.897 4.348 29.362-19.577 8.954 11.194a2.602 2.602 0 002.042.983c.571 0 1.149-.188 1.63-.573l10.958-8.766 6.224 8.294a2.614 2.614 0 003.721.472l12.537-10.028 39.081 30.94 3.242-4.098-33.57-26.578 23.571-15.251 9.145 9.145a2.61 2.61 0 003.519.159l14.76-12.299 14.222 9.481a30.012 30.012 0 01-3.171 8.281c-2.099-4.412-6.602-7.469-11.805-7.469-6.796 0-12.398 5.215-13.01 11.855-3.22 1.833-5.28 5.27-5.28 9.048 0 4.612 3.001 8.536 7.155 9.919l-43.853 41.022A29.997 29.997 0 01172.837 193H30c-16.569 0-30-13.431-30-30V36C0 19.431 13.431 6 30 6zm218.319 112.29c4.313 0 7.825 3.504 7.839 7.72a30.016 30.016 0 01-1.664 1.684l-12.293 11.5h-1.721a5.23 5.23 0 01-5.225-5.226c0-2.2 1.416-4.174 3.518-4.905a2.617 2.617 0 001.751-2.595 1.466 1.466 0 00-.044-.339c0-4.321 3.517-7.839 7.839-7.839zm-10.473-23.004l6.694 4.463-11.736 9.78-6.667-6.665 11.709-7.578zm-62.216 29.733l-6.221-8.297a2.614 2.614 0 00-3.72-.472l-11.025 8.819-7.039-8.798 19.565-13.044 17.936 14.198-9.496 7.594zm-39.666 8.949c6.31 0 11.591 4.497 12.803 10.454 5.834-.227 10.713 4.599 10.713 10.449 0 5.764-4.689 10.452-10.451 10.452h-7.839V181h-5.226v-5.226h-10.452v-5.226h10.452v-5.225h-7.839c-5.764 0-10.451-4.688-10.451-10.452 0-3.778 2.06-7.215 5.28-9.048.611-6.64 6.214-11.855 13.01-11.855zm-7.839 26.129h20.904a5.23 5.23 0 005.225-5.226 5.23 5.23 0 00-5.225-5.226c-.566 0-1.145.11-1.773.34a2.61 2.61 0 01-3.5-2.576c.002-.085.035-.387.047-.471 0-4.227-3.518-7.744-7.839-7.744-4.322 0-7.839 3.517-7.839 7.838.018.037.036.185.044.34a2.619 2.619 0 01-1.751 2.595c-2.102.731-3.518 2.704-3.518 4.904a5.23 5.23 0 005.225 5.226zm62.711-10.452c0 .149-.003.295-.012.444 3.047 1.077 5.237 3.985 5.237 7.395 0 4.321-3.517 7.839-7.838 7.839h-5.226v5.225h5.226v5.226h-5.226V181h-5.226v-15.677h-5.226c-4.322 0-7.838-3.518-7.838-7.839 0-3.41 2.189-6.318 5.236-7.395a8.223 8.223 0 01-.011-.444c0-5.764 4.688-10.451 10.452-10.451 5.763 0 10.452 4.687 10.452 10.451zm-18.291 10.452h15.678a2.618 2.618 0 002.613-2.613 2.618 2.618 0 00-2.613-2.613c-.892.08-1.89-.274-2.436-.985-.546-.708-.82-1.628-.515-2.469.228-.627.338-1.208.338-1.772a5.231 5.231 0 00-5.226-5.226 5.231 5.231 0 00-5.226 5.226c0 .564.11 1.145.337 1.775a2.612 2.612 0 01-.389 2.486 2.57 2.57 0 01-2.311 1.005c-.033-.003-.245-.03-.282-.035h-.007c-1.406 0-2.574 1.171-2.574 2.608a2.618 2.618 0 002.613 2.613zm18.291-73.162c14.406 0 26.129-11.72 26.129-26.129 0-14.407-11.723-26.129-26.129-26.129-14.408 0-26.129 11.721-26.129 26.13 0 14.407 11.721 26.129 26.129 26.129zm0-47.032c11.524 0 20.903 9.378 20.903 20.903 0 11.526-9.379 20.904-20.903 20.904-11.526 0-20.904-9.378-20.904-20.904 0-11.525 9.378-20.903 20.904-20.903zm10.451 20.903h5.226c0 8.647-7.033 15.678-15.678 15.678v-5.226c5.763 0 10.452-4.688 10.452-10.452zM188.222 19h5.226v10.452h-5.226V19zm5.226 73.161h-5.226v10.452h5.226V92.161zm-35.815-60.86l3.695-3.695 7.838 7.838-3.694 3.695-7.839-7.839zm58.565 51.175l-3.695 3.695 7.839 7.839 3.696-3.695-7.84-7.838zm-67.169-24.282h10.451v5.225h-10.451v-5.225zm83.613 0H222.19v5.225h10.452v-5.225zm-75.01 32.119l7.84-7.839 3.695 3.695-7.839 7.84-3.696-3.696zm62.711-62.71l-7.84 7.84 3.696 3.695 7.839-7.839-3.695-3.696z" fill="#D84E52"/><path d="M33.465 78.96c-4.64 0-8.773-1.147-12.4-3.44-3.626-2.293-6.48-5.6-8.56-9.92-2.026-4.373-3.04-9.573-3.04-15.6 0-6.027 1.014-11.2 3.04-15.52 2.08-4.373 4.934-7.707 8.56-10 3.627-2.293 7.76-3.44 12.4-3.44 4.64 0 8.774 1.147 12.4 3.44 3.627 2.293 6.454 5.627 8.48 10 2.08 4.32 3.12 9.493 3.12 15.52 0 6.027-1.04 11.227-3.12 15.6-2.026 4.32-4.853 7.627-8.48 9.92-3.626 2.293-7.76 3.44-12.4 3.44zm0-10.96c3.414 0 6.08-1.467 8-4.4 1.974-2.933 2.96-7.467 2.96-13.6s-.986-10.667-2.96-13.6c-1.92-2.933-4.586-4.4-8-4.4-3.36 0-6.026 1.467-8 4.4-1.92 2.933-2.88 7.467-2.88 13.6s.96 10.667 2.88 13.6c1.974 2.933 4.64 4.4 8 4.4zm71.817-19.44c2.774 1.387 4.88 3.2 6.32 5.44 1.494 2.24 2.24 4.827 2.24 7.76 0 3.467-.986 6.507-2.96 9.12-1.973 2.56-4.746 4.56-8.32 6-3.573 1.387-7.706 2.08-12.4 2.08-4.693 0-8.827-.693-12.4-2.08-3.52-1.44-6.266-3.44-8.24-6-1.92-2.613-2.88-5.653-2.88-9.12 0-2.933.72-5.52 2.16-7.76 1.493-2.24 3.6-4.053 6.32-5.44-2.08-1.28-3.68-2.88-4.8-4.8-1.12-1.973-1.68-4.213-1.68-6.72 0-3.253.907-6.08 2.72-8.48 1.814-2.4 4.347-4.24 7.6-5.52 3.254-1.333 6.987-2 11.2-2 4.267 0 8.027.667 11.28 2 3.307 1.28 5.867 3.12 7.68 5.52 1.814 2.4 2.72 5.227 2.72 8.48 0 2.507-.56 4.747-1.68 6.72-1.12 1.92-2.746 3.52-4.88 4.8zm-15.12-18c-2.613 0-4.72.64-6.32 1.92-1.546 1.227-2.32 2.933-2.32 5.12 0 2.133.773 3.813 2.32 5.04 1.547 1.227 3.654 1.84 6.32 1.84 2.667 0 4.8-.613 6.4-1.84 1.6-1.227 2.4-2.907 2.4-5.04 0-2.187-.8-3.893-2.4-5.12-1.6-1.28-3.733-1.92-6.4-1.92zm0 38.88c3.253 0 5.813-.72 7.68-2.16 1.92-1.493 2.88-3.467 2.88-5.92s-.96-4.4-2.88-5.84c-1.867-1.44-4.427-2.16-7.68-2.16-3.2 0-5.733.72-7.6 2.16-1.867 1.44-2.8 3.387-2.8 5.84 0 2.507.933 4.48 2.8 5.92 1.867 1.44 4.4 2.16 7.6 2.16z" fill="#fff"/></svg>