<svg width="264" height="193" fill="none" xmlns="http://www.w3.org/2000/svg"><path fill-rule="evenodd" clip-rule="evenodd" d="M30 6h204c16.569 0 30 13.431 30 30v.413c-2.2.36-4.353.957-6.438 1.786a4.2 4.2 0 003.104 7.805c1.087-.432 2.2-.778 3.334-1.036v44.441a22.445 22.445 0 01-8.771-4.126 31.013 31.013 0 005.813-18.1c0-17.193-13.988-31.18-31.182-31.18-3.566 0-7.066.597-10.401 1.778a4.2 4.2 0 002.801 7.919 22.74 22.74 0 017.6-1.298c12.562 0 22.783 10.22 22.783 22.782 0 12.565-10.221 22.788-22.783 22.788h-.09c-5.062-.018-9.835-1.664-13.761-4.688a31.012 31.012 0 005.812-18.1c0-17.193-13.988-31.18-31.181-31.18-4.363 0-8.586.884-12.551 2.629a4.2 4.2 0 003.383 7.687 22.617 22.617 0 019.168-1.918c12.562 0 22.782 10.22 22.782 22.782 0 12.565-10.22 22.788-22.782 22.788h-.091c-5.062-.018-9.834-1.664-13.761-4.689a31.008 31.008 0 005.813-18.097c0-17.194-13.988-31.183-31.182-31.183s-31.182 13.986-31.182 31.18c0 10.999 5.73 20.68 14.357 26.232C118.989 100.097 108 115.772 108 133.97v43.97c0 5.88 2.401 11.209 6.274 15.059H30c-16.569 0-30-13.431-30-30V36C0 19.431 13.431 6 30 6zm117.22 187h-13.774v-64.984a4.2 4.2 0 10-8.398 0v62.064c-5.028-1.743-8.649-6.525-8.649-12.138v-43.97c0-19.58 15.667-35.552 34.924-35.603 9.378-.03 18.219 3.617 24.862 10.255 6.613 6.614 10.255 15.407 10.255 24.76v44.558c0 5.614-3.621 10.396-8.649 12.139v-62.065a4.2 4.2 0 00-8.399 0V193h-13.773v-20.604a4.2 4.2 0 10-8.399 0V193zm61.394-22.388l-13.774 12.886v-50.115c0-11.597-4.516-22.499-12.717-30.7a44.452 44.452 0 00-2.669-2.442 34.433 34.433 0 0111.08-1.872h.106c9.352 0 18.147 3.642 24.766 10.255 6.613 6.614 10.255 15.407 10.255 24.76v21.281l-8.648 8.091v-34.739a4.2 4.2 0 00-8.399 0v42.595zm52.758-52.549a30.003 30.003 0 01-5.497 8.253 4.2 4.2 0 00-8.041 1.701v5.907l-13.774 12.885v-13.426c0-11.597-4.516-22.499-12.717-30.7a44.742 44.742 0 00-2.668-2.442 34.443 34.443 0 0111.08-1.873h.105c9.352 0 18.147 3.642 24.766 10.256a35.05 35.05 0 016.746 9.439zM264 98.747v7.038c0 .25-.003.5-.009.75a44.233 44.233 0 00-3.428-3.852 45.054 45.054 0 00-2.668-2.442A34.486 34.486 0 01264 98.747zm-11.773-5.314a31.198 31.198 0 01-2.771-2.017 31.33 31.33 0 01-2.7 1.956 43.6 43.6 0 012.806 1.313 42.75 42.75 0 012.665-1.252zm-39.22 0a31.198 31.198 0 01-2.771-2.017 31.486 31.486 0 01-2.7 1.956 43.6 43.6 0 012.806 1.313 42.75 42.75 0 012.665-1.252zM151.419 44.4c-12.563 0-22.784 10.22-22.784 22.783s10.221 22.784 22.784 22.784c12.562 0 22.783-10.221 22.783-22.784 0-12.563-10.221-22.783-22.783-22.783zm19.7 50.289a42.374 42.374 0 012.668-1.254 31.147 31.147 0 01-2.772-2.018c-.865.7-1.769 1.353-2.707 1.96.953.4 1.888.841 2.811 1.312z" fill="#D84E52"/><path d="M33.512 78.96c-4.64 0-8.773-1.147-12.4-3.44-3.627-2.293-6.48-5.6-8.56-9.92-2.027-4.373-3.04-9.573-3.04-15.6 0-6.027 1.013-11.2 3.04-15.52 2.08-4.373 4.933-7.707 8.56-10 3.627-2.293 7.76-3.44 12.4-3.44 4.64 0 8.773 1.147 12.4 3.44 3.627 2.293 6.453 5.627 8.48 10 2.08 4.32 3.12 9.493 3.12 15.52 0 6.027-1.04 11.227-3.12 15.6-2.027 4.32-4.853 7.627-8.48 9.92-3.627 2.293-7.76 3.44-12.4 3.44zm0-10.96c3.413 0 6.08-1.467 8-4.4 1.974-2.933 2.96-7.467 2.96-13.6s-.986-10.667-2.96-13.6c-1.92-2.933-4.587-4.4-8-4.4-3.36 0-6.027 1.467-8 4.4-1.92 2.933-2.88 7.467-2.88 13.6s.96 10.667 2.88 13.6c1.973 2.933 4.64 4.4 8 4.4zm74.868-.56V78H66.06v-8.4l21.6-20.4c2.294-2.187 3.84-4.053 4.64-5.6.8-1.6 1.2-3.173 1.2-4.72 0-2.24-.773-3.947-2.32-5.12-1.493-1.227-3.706-1.84-6.64-1.84-2.453 0-4.666.48-6.64 1.44-1.973.907-3.626 2.293-4.96 4.16l-9.44-6.08c2.187-3.253 5.2-5.787 9.04-7.6 3.84-1.867 8.24-2.8 13.2-2.8 4.16 0 7.787.693 10.88 2.08 3.147 1.333 5.574 3.253 7.28 5.76 1.76 2.453 2.64 5.36 2.64 8.72 0 3.04-.64 5.893-1.92 8.56-1.28 2.667-3.76 5.707-7.44 9.12L84.3 67.44h24.08z" fill="#fff"/></svg>