<svg width="264" height="193" fill="none" xmlns="http://www.w3.org/2000/svg"><path fill-rule="evenodd" clip-rule="evenodd" d="M30 6h204c16.569 0 30 13.431 30 30v34.624l-2.466 3.435h-1.525a2.245 2.245 0 00-2.246 2.246v6.736a2.247 2.247 0 002.246 2.246h1.31v15.873a2.789 2.789 0 00-1.245-.296h-6.512a2.77 2.77 0 00-2.777 2.756v4.18h-1.833a2.783 2.783 0 00-1.062.208 2.78 2.78 0 00-1.502 1.497c-.14.336-.213.696-.213 1.06l.04 8.742a2.775 2.775 0 00-1.761-.627h-6.652a2.767 2.767 0 00-2.776 2.755v3.955h-2.765v-3.955a2.77 2.77 0 00-2.776-2.755h-2.48v-5.635h4.395a2.247 2.247 0 002.245-2.245V85.582a3.703 3.703 0 00-3.73-3.671h-5.152a3.703 3.703 0 00-3.73 3.671v3.771h-1.909v-3.771a3.703 3.703 0 00-3.717-3.671V63.58h1.816a2.245 2.245 0 002.246-2.246v-6.736a2.246 2.246 0 00-2.246-2.246h-1.616l-8.052-12v-5.053l13.199-.038a2.245 2.245 0 001.445-3.96l-4.315-3.652 4.635-3.822a2.248 2.248 0 00.687-2.49 2.253 2.253 0 00-2.113-1.489l-14.035-.009a2.244 2.244 0 00-3.996 1.405v19.093l-8.623 12.015h-1.525a2.245 2.245 0 00-2.246 2.246v6.736a2.246 2.246 0 002.246 2.246h1.31v18.385a3.694 3.694 0 00-3.113 3.617v3.771h-2.648v-3.771a3.707 3.707 0 00-3.731-3.672h-4.513a3.728 3.728 0 00-2.67 1.107 3.61 3.61 0 00-1.06 2.595l.21 25.21a2.244 2.244 0 002.246 2.227h3.759l.006 5.631h-2.545a2.769 2.769 0 00-2.776 2.755v3.955h-2.5v-3.955a2.767 2.767 0 00-2.776-2.755h-6.39a2.773 2.773 0 00-1.788.651l.023-8.77v-.006a2.768 2.768 0 00-2.776-2.755h-1.834v-4.18a2.77 2.77 0 00-2.776-2.756h-6.51a2.777 2.777 0 00-1.169.26V85.287h1.817a2.245 2.245 0 002.246-2.246v-6.736a2.246 2.246 0 00-2.246-2.246h-1.616l-7.926-11.813v-5.243l13.2-.037a2.244 2.244 0 001.444-3.96l-4.315-3.653 4.636-3.82a2.246 2.246 0 00-1.427-3.978l-14.034-.01a2.247 2.247 0 00-3.997 1.405v18.918l-8.75 12.191h-1.527a2.244 2.244 0 00-2.245 2.246v6.736a2.247 2.247 0 002.245 2.246h1.31v16.037a2.78 2.78 0 00-1.532-.46h-6.164a2.771 2.771 0 00-2.777 2.756v4.18h-1.459a2.768 2.768 0 00-2.776 2.755v22.95a2.245 2.245 0 002.246 2.245h2.637V193H30c-16.569 0-30-13.431-30-30V36C0 19.431 13.431 6 30 6zm150.922 185.89a29.98 29.98 0 01-8.085 1.11h-13.213v-48.522l8.766-.008a2.245 2.245 0 100-4.491l-8.764.007v-4.236h2.028a2.248 2.248 0 002.245-2.239l.01-3.629h.754a2.771 2.771 0 002.777-2.755v-3.956h2.958v3.955a2.771 2.771 0 002.777 2.755h5.929a2.767 2.767 0 002.776-2.755v-3.955h3.689v3.955a2.767 2.767 0 002.776 2.755h5.678a2.769 2.769 0 002.776-2.755v-3.955h2.807v4.365a2.767 2.767 0 002.776 2.755h5.795a2.766 2.766 0 001.975-.818 2.732 2.732 0 00.801-1.946l-.016-4.248h2.445v3.848a2.766 2.766 0 002.776 2.755h5.677a2.767 2.767 0 002.776-2.755v-3.956h3.159v3.955a2.766 2.766 0 002.776 2.755h6.194a2.769 2.769 0 002.776-2.755v-3.955h3.225v3.955a2.77 2.77 0 002.776 2.755h.748l.016 3.259c.003.593.24 1.162.661 1.581l.02.019-5.552 5.193-35.689.027a2.245 2.245 0 100 4.491l30.885-.023-13.281 12.423c-4.43-4.929-10.97-8.052-18.252-8.052-13.312 0-24.145 10.436-24.145 23.262l-.006 19.829zm6.208-2.514c-.563.305-1.135.592-1.716.861l.006-18.174c0-10.352 8.815-18.772 19.651-18.772 5.992 0 11.367 2.575 14.974 6.628l-1.109 1.038c-3.297-3.675-8.269-6.02-13.823-6.024h-.015c-9.909 0-17.971 7.455-17.971 16.617l.003 17.826zm15.653-13.309l-9.452 8.842a29.957 29.957 0 01-1.71 1.483l-.003-12.137 11.172.015-.007 1.797zm12.875-12.044l-6.161 5.764-2.199-.003.037-10.191c3.355.506 6.293 2.13 8.323 4.43zm47.628-51.731a29.998 29.998 0 01-8.792 15.402l-3.411 3.191h-.32l-.087-18.593h1.826a2.769 2.769 0 002.776-2.755v-4.18h3.081v4.18a2.767 2.767 0 002.776 2.755h2.151zM264 78.55v2.246h-1.745V78.55H264zm-124.67 8.814h-1.941a3.914 3.914 0 00-3.911 3.911v4.167a3.912 3.912 0 003.911 3.912h1.941a3.916 3.916 0 003.91-3.912v-4.167a3.914 3.914 0 00-3.91-3.911zm-.581 7.5h-.78v-3.01h.78v3.01zM208.608 76.5a3.918 3.918 0 01-2.765 1.147h-1.941a3.918 3.918 0 01-3.911-3.912v-4.167a3.915 3.915 0 013.911-3.911h1.941a3.914 3.914 0 013.911 3.911v4.167a3.917 3.917 0 01-1.146 2.766zm-3.345-6.352h-.781v3.008h.781v-3.008zm-5.997 69.815h.001a2.245 2.245 0 01-.001 4.491l-18.806.01a2.245 2.245 0 110-4.491l18.806-.01zm-24.794.013h-.383a2.244 2.244 0 00-2.241 2.25 2.246 2.246 0 002.25 2.241h.383a2.245 2.245 0 10-.009-4.491zm-33.075 8.726h-8.51a2.247 2.247 0 01-2.245-2.246v-5.895a2.245 2.245 0 012.245-2.246h8.51a2.245 2.245 0 012.245 2.246v5.895a2.245 2.245 0 01-2.245 2.246zm-2.246-5.896h-4.018v1.405h4.018v-1.405zm-2.936 32.436v5.896a2.244 2.244 0 002.245 2.245h8.51a2.245 2.245 0 002.245-2.245v-5.896c0-.595-.236-1.166-.657-1.588a2.248 2.248 0 00-1.588-.657h-8.51a2.247 2.247 0 00-2.245 2.245zm4.491 2.246h4.018v1.404h-4.018v-1.404zM214.84 24.335l-7.285-.004.001 6.474 7.085-.02-.88-.744a3.158 3.158 0 01.031-4.841l1.048-.865zm-66.387 21.707l-7.285-.004v6.474l7.086-.02-.88-.744a3.149 3.149 0 01-1.116-2.428 3.158 3.158 0 011.147-2.413l1.048-.865zm61.745 6.31l-4.943-7.368-5.289 7.368h10.232zm4.779 4.491h-19.819v2.246h19.819v-2.246zM198.712 81.91h.228a3.706 3.706 0 013.733 3.672v3.771h4.82v-3.771a3.697 3.697 0 013.422-3.656V63.58h-12.203v18.33zm-17.728 4.491l.187 22.157 47.987-.004V86.401h-3.632v3.772a3.704 3.704 0 01-3.731 3.671h-3.43a3.708 3.708 0 01-3.731-3.67V86.4h-2.648v3.772a3.707 3.707 0 01-3.73 3.671h-5.793a4.286 4.286 0 01-4.282-4.28V86.4h-2.583v3.772a3.704 3.704 0 01-3.731 3.671h-4.169a3.704 3.704 0 01-3.731-3.67V86.4h-2.983zm28.566 32.386h5.211a3.114 3.114 0 013.113 3.11v3.493h2.248v-3.955a2.762 2.762 0 012.395-2.726v-5.663l-35.32.002.005 5.632h.082a2.767 2.767 0 012.776 2.755v3.955h2.247v-3.955a2.767 2.767 0 012.776-2.755h6.238a2.769 2.769 0 012.776 2.755v4.365h2.358l-.015-3.891a3.117 3.117 0 011.917-2.884 3.116 3.116 0 011.193-.238zm-65.864-44.728l-4.944-7.369-5.289 7.37h10.233zm4.777 4.491h-19.819v2.246h19.819V78.55zm-13.751 22.314h6.565a2.77 2.77 0 012.776 2.756v4.18h.349V85.287h-12.203v17.168a2.787 2.787 0 012.513-1.591zm17.934 61.551h2.486v-1.404h-2.486v1.404zm-1.714-5.896h4.2l.001-20.769h-32.759v18.971h4.163a2.768 2.768 0 012.776 2.754v4.877a2.767 2.767 0 01-2.776 2.755h-4.163v23.863l32.759.098v-22.163h-4.201a2.769 2.769 0 01-2.776-2.755v-4.876a2.77 2.77 0 012.776-2.755zm-28.558 2.693v1.404h2.448v-1.404h-2.448zm-4.883-27.953h41.921l.05-18.968h-1.829a2.769 2.769 0 01-2.776-2.755v-4.181h-3.081v4.181a2.77 2.77 0 01-2.776 2.755h-6.662a2.767 2.767 0 01-2.776-2.755v-4.181h-3.136v4.181a2.766 2.766 0 01-2.776 2.755h-6.412a2.771 2.771 0 01-2.777-2.755v-4.181h-2.734v4.181a2.767 2.767 0 01-2.776 2.755h-1.46v18.968zm74.275 38.505l11.04.015.038-10.183c-5.719.87-10.225 4.99-11.078 10.168z" fill="#D84E52"/><path d="M33.12 78.96c-4.64 0-8.773-1.147-12.4-3.44-3.627-2.293-6.48-5.6-8.56-9.92-2.027-4.373-3.04-9.573-3.04-15.6 0-6.027 1.013-11.2 3.04-15.52 2.08-4.373 4.933-7.707 8.56-10 3.627-2.293 7.76-3.44 12.4-3.44 4.64 0 8.773 1.147 12.4 3.44 3.627 2.293 6.453 5.627 8.48 10 2.08 4.32 3.12 9.493 3.12 15.52 0 6.027-1.04 11.227-3.12 15.6-2.027 4.32-4.853 7.627-8.48 9.92-3.627 2.293-7.76 3.44-12.4 3.44zm0-10.96c3.413 0 6.08-1.467 8-4.4 1.973-2.933 2.96-7.467 2.96-13.6s-.987-10.667-2.96-13.6c-1.92-2.933-4.587-4.4-8-4.4-3.36 0-6.027 1.467-8 4.4-1.92 2.933-2.88 7.467-2.88 13.6s.96 10.667 2.88 13.6c1.973 2.933 4.64 4.4 8 4.4zm77.024-46v8.4L89.344 78h-14.08l20.08-45.44h-18.56v9.12h-11.52V22h44.88z" fill="#fff"/></svg>