<svg width="264" height="193" fill="none" xmlns="http://www.w3.org/2000/svg"><path fill-rule="evenodd" clip-rule="evenodd" d="M234 6H30C13.431 6 0 19.431 0 36v127c0 16.569 13.431 30 30 30h142.837a29.997 29.997 0 0020.494-8.091l36.028-33.703v-35.159a15.41 15.41 0 0115.391-15.391h6.156V82.187a55.405 55.405 0 00-94.584-39.178 55.405 55.405 0 00-16.228 39.178v18.469h6.156a15.41 15.41 0 0115.391 15.391v49.25a15.406 15.406 0 01-4.514 10.877 15.406 15.406 0 01-10.877 4.514h-21.547a21.577 21.577 0 01-21.547-21.547v-33.86a21.197 21.197 0 0110.721-18.025c5.033-3.038 7.748-10.586 7.748-16.127v-8.942A73.875 73.875 0 01264 54.525V36c0-16.569-13.431-30-30-30zm30 91.578h-6.938v27.394A30.002 30.002 0 00264 105.785v-8.207zm-13.094 33.472v-24.238h-6.156a9.237 9.237 0 00-8.668 6.157h5.59a3.078 3.078 0 110 6.156h-6.156v6.156h6.156a3.079 3.079 0 010 6.157h-6.156v6.156h6.156c.607 0 1.196.179 1.695.509l7.539-7.053zm-13.576 12.7h-1.814v1.697l1.814-1.697zm-118.783 21.547v-6.156h6.156v6.156h-6.156zm6.156 9.234h9.235V97.578h-7.003a24.115 24.115 0 01-9.875 14.947 15.1 15.1 0 00-7.747 12.756v33.86a15.41 15.41 0 0015.39 15.39zm3.078-83.11h6.157v-6.155h-6.157v6.156zm23.75 17.124a9.355 9.355 0 00-5.281-1.733h-6.156v67.719h6.156a9.354 9.354 0 008.646-6.156h-5.568a3.074 3.074 0 01-2.176-.902 3.074 3.074 0 010-4.353 3.078 3.078 0 012.176-.901h6.156v-6.157h-6.156a3.078 3.078 0 110-6.156h6.156v-6.156h-6.156a3.074 3.074 0 01-2.176-.902 3.074 3.074 0 010-4.353 3.078 3.078 0 012.176-.901h6.156v-6.156h-6.156a3.079 3.079 0 010-6.157h6.156v-6.156h-6.156a3.074 3.074 0 01-2.176-.902 3.074 3.074 0 010-4.353 3.078 3.078 0 012.176-.901h5.568a9.346 9.346 0 00-3.365-4.424zm1.597-70.93a61.583 61.583 0 0142.372-16.99 61.583 61.583 0 0161.406 58.484h6.236a67.72 67.72 0 00-135.284 0h6.236a61.588 61.588 0 0119.034-41.494zm110.091 53.807v-6.156h-6.157v6.156h6.157z" fill="#D84E52"/><path d="M33.442 78.96c-4.64 0-8.773-1.147-12.4-3.44-3.627-2.293-6.48-5.6-8.56-9.92-2.027-4.373-3.04-9.573-3.04-15.6 0-6.027 1.013-11.2 3.04-15.52 2.08-4.373 4.933-7.707 8.56-10 3.627-2.293 7.76-3.44 12.4-3.44 4.64 0 8.773 1.147 12.4 3.44 3.627 2.293 6.453 5.627 8.48 10 2.08 4.32 3.12 9.493 3.12 15.52 0 6.027-1.04 11.227-3.12 15.6-2.027 4.32-4.854 7.627-8.48 9.92-3.627 2.293-7.76 3.44-12.4 3.44zm0-10.96c3.413 0 6.08-1.467 8-4.4 1.973-2.933 2.96-7.467 2.96-13.6s-.987-10.667-2.96-13.6c-1.92-2.933-4.587-4.4-8-4.4-3.36 0-6.027 1.467-8 4.4-1.92 2.933-2.88 7.467-2.88 13.6s.96 10.667 2.88 13.6c1.973 2.933 4.64 4.4 8 4.4zM88.07 22v56H75.11V32.4h-11.2V22h24.16z" fill="#fff"/></svg>