<svg width="264" height="193" fill="none" xmlns="http://www.w3.org/2000/svg"><path fill-rule="evenodd" clip-rule="evenodd" d="M234 6H30C13.431 6 0 19.431 0 36v127c0 16.569 13.431 30 30 30h142.837a29.997 29.997 0 0020.494-8.091L203.924 175h-68.572a8.611 8.611 0 01-8.611-8.611v-39.947a8.65 8.65 0 01-5.741-8.104V54.444a8.612 8.612 0 018.611-8.61h37.315V34.351c.01-7.923 6.429-14.342 14.352-14.352h51.666c7.923.01 14.342 6.429 14.352 14.352v11.481H264V36c0-16.569-13.431-30-30-30zm30 45.574H129.611a2.87 2.87 0 00-2.87 2.87v63.894a2.87 2.87 0 002.471 2.845l66.418 9.159v-4.138a8.61 8.61 0 018.611-8.611h5.74a8.612 8.612 0 018.612 8.611v4.138l38.408-5.296A30 30 0 00264 105.785v-54.21zm-13.885 80.216l-31.522 4.348v7.288a8.612 8.612 0 01-8.612 8.611h-5.74a8.611 8.611 0 01-8.611-8.611v-7.288l-63.149-8.709v38.96a2.87 2.87 0 002.871 2.87h74.709l40.054-37.469zM181.278 25.74a8.611 8.611 0 00-8.611 8.612v11.481h5.74V34.352a2.871 2.871 0 012.871-2.87h51.666a2.87 2.87 0 012.871 2.87v11.481h5.741V34.352a8.612 8.612 0 00-8.612-8.611h-51.666zm2.87 20.093h45.926v-8.61h-45.926v8.61zm25.833 100.463a2.87 2.87 0 002.871-2.87v-17.222a2.871 2.871 0 00-2.871-2.871h-5.74a2.872 2.872 0 00-2.871 2.871v17.222a2.87 2.87 0 002.871 2.87h5.74z" fill="#D84E52"/><path d="M41.792 22v56h-12.96V32.4h-11.2V22h24.16zm34.528 0v56H63.36V32.4h-11.2V22h24.16z" fill="#fff"/></svg>