<svg width="91" height="90" fill="none" xmlns="http://www.w3.org/2000/svg"><path d="M78.394 61.04V33.387a4.355 4.355 0 00-4.355-4.355H33.394a4.355 4.355 0 00-4.355 4.355v40.645a4.355 4.355 0 004.355 4.355h27.58a15.967 15.967 0 0117.42-17.347zM39.201 40.645h29.032a1.452 1.452 0 110 2.903H39.2a1.452 1.452 0 010-2.903zm0 11.613h29.032a1.452 1.452 0 110 2.903H39.2a1.452 1.452 0 110-2.903zm20.322 14.516H39.201a1.452 1.452 0 110-2.903h20.322a1.452 1.452 0 110 2.903zm17.42-2.903a13.065 13.065 0 100 26.13 13.065 13.065 0 000-26.13zm0 23.226a10.161 10.161 0 01-10.162-9.465l4.486-3.353 4.993 2.497a1.451 1.451 0 001.307 0l4.993-2.497 4.544 3.353a10.161 10.161 0 01-10.162 9.465z" fill="#C34246"/><path d="M56.62 0H15.975a4.355 4.355 0 00-4.355 4.355v30.57a13.065 13.065 0 1014.429 14.43h30.57A4.355 4.355 0 0060.976 45V4.355A4.355 4.355 0 0056.62 0zM23.102 46.306a10.162 10.162 0 01-7.258-5.066 1.452 1.452 0 00-2.351-.247A16.07 16.07 0 013.07 46.364c1.713-11.41 18.218-11.453 20.032-.058zm-20.09 3.049a18.87 18.87 0 0011.322-5.023 13.065 13.065 0 008.797 4.994c-1.568 11.642-18.522 11.642-20.12.029zM58.072 45a1.451 1.451 0 01-1.452 1.452H26.049a13.064 13.064 0 00-11.526-11.526V4.355a1.451 1.451 0 011.452-1.452H56.62a1.451 1.451 0 011.452 1.452V45zm-7.259-30.484H21.781a1.452 1.452 0 010-2.903h29.032a1.451 1.451 0 110 2.903zm0 11.613H21.781a1.452 1.452 0 010-2.903h29.032a1.451 1.451 0 110 2.903zm0 11.613H30.491a1.452 1.452 0 110-2.903h20.322a1.451 1.451 0 110 2.903z" fill="#fff"/></svg>