<svg width="88" height="88" fill="none" xmlns="http://www.w3.org/2000/svg"><path d="M81.969 64.012V48.318a18.281 18.281 0 00-24.202-27.323l-11.25-4.036a1.406 1.406 0 00-.956 2.644l9.914 3.586A18.282 18.282 0 0079.156 50.54v12.08a12.656 12.656 0 00-16.158 16.13H50.947a18.084 18.084 0 002.897-9.844A18.28 18.28 0 0023.58 55.125l-3.515-9.844a1.407 1.407 0 10-2.658.928L21.4 57.46a18.281 18.281 0 0027.324 24.103H64.39a12.659 12.659 0 0019.452 1.905 12.657 12.657 0 00-1.874-19.455zm-59.442 13.19a18.071 18.071 0 017.804-4.724 7.734 7.734 0 1110.449 0 18.281 18.281 0 017.818 4.697 15.468 15.468 0 01-26.072.028zm33.75-33.75a18.07 18.07 0 017.804-4.724 7.734 7.734 0 1110.449 0 18.281 18.281 0 017.818 4.697 15.468 15.468 0 01-26.071.028zm9.689 36.887a.42.42 0 000-.14 12.502 12.502 0 015.315-3.193 5.358 5.358 0 117.242 0 12.81 12.81 0 015.415 3.263 10.674 10.674 0 01-17.972.07z" fill="#C34246"/><path d="M48.219 23.794a23.906 23.906 0 10-47.811.225 23.906 23.906 0 0047.81-.225zM24.214 2.812h.099a21.093 21.093 0 0116.875 33.75 19.378 19.378 0 00-10.87-8.676A10.407 10.407 0 0024.311 9a10.407 10.407 0 00-5.85 18.97 19.392 19.392 0 00-10.785 8.775A21.094 21.094 0 0124.214 2.812zM24.313 27a7.594 7.594 0 110-15.188 7.594 7.594 0 010 15.188zM9.588 38.995a16.565 16.565 0 0129.531-.14 21.094 21.094 0 01-29.53.14z" fill="#fff"/></svg>