<svg width="91" height="90" fill="none" xmlns="http://www.w3.org/2000/svg"><path d="M85.126 82.867V65.748a1.426 1.426 0 00-2.435-1.008l-4.525 4.525-51.012-51.012a4.28 4.28 0 00-6.052 0l-2.017 2.017a4.28 4.28 0 000 6.052l51.012 51.011-4.525 4.526a1.426 1.426 0 001.008 2.435H83.7a1.426 1.426 0 001.426-1.427z" fill="#C34246"/><path d="M56.594 88.573V71.454a1.427 1.427 0 00-2.435-1.008l-4.525 4.525-22.48-22.48a4.28 4.28 0 00-6.052 0l-2.017 2.017a4.28 4.28 0 000 6.052l22.48 22.48-4.525 4.525A1.427 1.427 0 0038.05 90h17.119a1.427 1.427 0 001.426-1.427zM53.323 20.27a4.28 4.28 0 000 6.052l22.48 22.48-4.525 4.525a1.428 1.428 0 001.009 2.435h17.119a1.426 1.426 0 001.426-1.426v-17.12a1.427 1.427 0 00-2.435-1.008l-4.525 4.525-22.48-22.48a4.28 4.28 0 00-6.052 0l-2.017 2.017z" fill="#C34246"/><path d="M57.063 12.84V7.132A7.141 7.141 0 0049.93 0H7.133A7.141 7.141 0 000 7.133v5.706a7.108 7.108 0 002.897 5.707A7.107 7.107 0 000 24.252v5.706a7.107 7.107 0 002.897 5.706A7.108 7.108 0 000 41.371v5.706a7.142 7.142 0 007.133 7.133H49.93a7.142 7.142 0 007.133-7.133v-5.706a7.107 7.107 0 00-2.897-5.707 7.106 7.106 0 002.897-5.706v-5.706a7.107 7.107 0 00-2.897-5.706 7.108 7.108 0 002.897-5.707zM54.21 41.37v5.707a4.28 4.28 0 01-4.28 4.28H7.133a4.28 4.28 0 01-4.28-4.28v-5.706a4.28 4.28 0 014.28-4.28H49.93a4.28 4.28 0 014.28 4.28zm0-17.118v5.706a4.28 4.28 0 01-4.28 4.28H7.133a4.28 4.28 0 01-4.28-4.28v-5.706a4.28 4.28 0 014.28-4.28H49.93a4.28 4.28 0 014.28 4.28zm0-11.413a4.28 4.28 0 01-4.28 4.28H7.133a4.28 4.28 0 01-4.28-4.28V7.133a4.28 4.28 0 014.28-4.28H49.93a4.28 4.28 0 014.28 4.28v5.706z" fill="#fff"/><path d="M48.504 11.413a1.427 1.427 0 100-2.854 1.427 1.427 0 000 2.854zm0 17.119a1.427 1.427 0 100-2.854 1.427 1.427 0 000 2.854zm0 17.118a1.427 1.427 0 100-2.853 1.427 1.427 0 000 2.854zM42.797 8.56H8.56a1.427 1.427 0 100 2.853h34.238a1.427 1.427 0 000-2.854zm0 17.118H8.56a1.427 1.427 0 000 2.854h34.238a1.427 1.427 0 000-2.854zm0 17.119H8.56a1.426 1.426 0 100 2.854h34.238a1.427 1.427 0 000-2.854z" fill="#fff"/></svg>