<svg width="79" height="90" fill="none" xmlns="http://www.w3.org/2000/svg"><path d="M23.226 58.065v27.58A4.355 4.355 0 0027.581 90h46.451a4.355 4.355 0 004.355-4.355v-27.58H23.226zm20.322 24.677a1.452 1.452 0 01-1.451 1.452H36.29a1.452 1.452 0 01-1.452-1.452v-5.806a1.452 1.452 0 011.452-1.452h5.806a1.452 1.452 0 011.451 1.452v5.806zm0-11.613a1.452 1.452 0 01-1.451 1.452H36.29a1.452 1.452 0 01-1.452-1.452v-5.806a1.452 1.452 0 011.452-1.452h5.806a1.452 1.452 0 011.451 1.452v5.806zm11.613 11.613a1.452 1.452 0 01-1.451 1.452h-5.807a1.452 1.452 0 01-1.451-1.452v-5.806a1.452 1.452 0 011.451-1.452h5.807a1.452 1.452 0 011.451 1.452v5.806zm0-11.613a1.452 1.452 0 01-1.451 1.452h-5.807a1.452 1.452 0 01-1.451-1.452v-5.806a1.452 1.452 0 011.451-1.452h5.807a1.452 1.452 0 011.451 1.452v5.806zm11.613 11.613a1.452 1.452 0 01-1.451 1.452h-5.807a1.452 1.452 0 01-1.451-1.452v-5.806a1.452 1.452 0 011.451-1.452h5.807a1.452 1.452 0 011.451 1.452v5.806zm0-11.613a1.452 1.452 0 01-1.451 1.452h-5.807a1.452 1.452 0 01-1.451-1.452v-5.806a1.452 1.452 0 011.451-1.452h5.807a1.452 1.452 0 011.451 1.452v5.806zM23.226 55.161v-5.806A4.355 4.355 0 0127.581 45h46.451a4.355 4.355 0 014.355 4.355v5.806H23.226z" fill="#C34246"/><path d="M45 5.806H31.936V4.355A4.355 4.355 0 0027.58 0h-5.807a4.355 4.355 0 00-4.355 4.355v1.451H4.355A4.355 4.355 0 000 10.161v58.065a4.355 4.355 0 004.355 4.355H45a4.355 4.355 0 004.355-4.355V10.16A4.355 4.355 0 0045 5.806zM14.516 8.71H34.84v4.354a1.452 1.452 0 01-1.452 1.452h-17.42a1.452 1.452 0 01-1.45-1.451V8.71zm5.807-4.355a1.452 1.452 0 011.451-1.452h5.807a1.452 1.452 0 011.451 1.452v1.451h-8.71V4.355zm26.129 63.87A1.452 1.452 0 0145 69.678H4.355a1.452 1.452 0 01-1.452-1.451V10.16a1.452 1.452 0 011.452-1.45h7.258v4.354a4.355 4.355 0 004.355 4.355h17.42a4.355 4.355 0 004.354-4.354V8.71H45a1.451 1.451 0 011.452 1.451v58.065zm-30.484-45H10.16a1.451 1.451 0 00-1.451 1.452v5.807a1.451 1.451 0 001.451 1.451h5.807a1.452 1.452 0 001.451-1.451v-5.807a1.452 1.452 0 00-1.451-1.451zm-1.452 5.807h-2.903V26.13h2.903v2.903zm24.678-2.903h-17.42a1.452 1.452 0 010-2.903h17.42a1.451 1.451 0 110 2.903zm-17.42 2.903h11.613a1.452 1.452 0 110 2.904H21.774a1.452 1.452 0 010-2.904zm-5.806 8.71H10.16a1.452 1.452 0 00-1.451 1.452V45a1.451 1.451 0 001.451 1.452h5.807A1.451 1.451 0 0017.419 45v-5.806a1.452 1.452 0 00-1.451-1.452zm-1.452 5.806h-2.903v-2.903h2.903v2.903zm24.678-2.903h-17.42a1.452 1.452 0 010-2.903h17.42a1.452 1.452 0 010 2.903zm-17.42 2.903h11.613a1.451 1.451 0 110 2.904H21.774a1.452 1.452 0 110-2.904zm-5.806 8.71H10.16a1.452 1.452 0 00-1.45 1.452v5.806a1.452 1.452 0 001.451 1.452h5.807a1.452 1.452 0 001.451-1.452V53.71a1.452 1.452 0 00-1.451-1.452zm-1.452 5.806h-2.903v-2.903h2.903v2.904zm24.678-2.903h-17.42a1.452 1.452 0 110-2.903h17.42a1.452 1.452 0 010 2.903zm-5.807 5.807H21.774a1.452 1.452 0 010-2.904h11.613a1.451 1.451 0 110 2.904z" fill="#fff"/></svg>