<svg width="152" height="152" fill="none" xmlns="http://www.w3.org/2000/svg"><g filter="url(#filter0_d)"><circle cx="76" cy="76" r="70" fill="#fff"/></g><path d="M63.695 76a9.57 9.57 0 009.57-9.57 9.57 9.57 0 00-9.57-9.57 9.57 9.57 0 000 19.14zm41.016 0c5.285 0 9.57-4.285 9.57-9.57a9.57 9.57 0 00-9.57-9.57 9.57 9.57 0 100 19.14zm1.367 4.102a12.318 12.318 0 00-12.305 12.304v20.508a4.1 4.1 0 004.102 4.102h16.406a4.102 4.102 0 004.102-4.102V92.406a12.32 12.32 0 00-12.305-12.304zm-36.352 28.633a9.564 9.564 0 01-8.82-5.831l-2.67-6.29a6.838 6.838 0 013.532-9.164 6.836 6.836 0 019.046 3.824l1.07 2.517 2.749-1.169v-.216a12.305 12.305 0 00-24.61 0v20.508a4.1 4.1 0 004.102 4.102h16.406a4.103 4.103 0 004.102-4.102v-5.44l-1.179.5a9.498 9.498 0 01-3.728.761z" fill="#E07275"/><path d="M78.678 93.877l-6.98 2.962a1.368 1.368 0 01-1.791-.726l-1.603-3.775a4.102 4.102 0 10-7.55 3.203l2.668 6.299a6.836 6.836 0 008.963 3.623l8.585-3.644a6.744 6.744 0 01-2.292-7.942zm2.583.863a4.101 4.101 0 002.172 5.377l7.606 3.227v-8.91l-4.4-1.868a4.101 4.101 0 00-5.378 2.174z" fill="#E07275"/><path d="M100.779 56.466L80.54 36.19a4.2 4.2 0 00-5.803 0l-3.718 3.722a4.114 4.114 0 000 5.802l.384.384-3.26 2.86-3.891-2.922.32-.322a4.113 4.113 0 000-5.802l-3.715-3.721a4.091 4.091 0 00-5.804 0L34.815 56.465a4.111 4.111 0 000 5.8l3.715 3.722a4.029 4.029 0 004.182.982l.92 3.691-.927.927a5.18 5.18 0 000 7.303 5.122 5.122 0 003.649 1.514c.076 0 .15-.02.227-.023a5.131 5.131 0 005.134 5.393c.076 0 .15-.019.227-.022a5.13 5.13 0 005.133 5.393c.077 0 .15-.02.227-.024a5.14 5.14 0 008.782 3.882l1.378-1.38.037.039a5.14 5.14 0 008.781-3.88c.077 0 .15.023.229.023a5.133 5.133 0 005.132-5.394c.076 0 .149.023.226.023a5.132 5.132 0 005.07-4.32 5.1 5.1 0 001.627.286 5.166 5.166 0 003.647-8.817l-2.653-2.657L91.1 65.84l.15.149a4.1 4.1 0 005.806 0l3.716-3.721a4.11 4.11 0 00.007-5.801zm-60.314 7.59l-3.716-3.723a1.367 1.367 0 010-1.936L56.996 38.13a1.367 1.367 0 011.933 0l3.715 3.723a1.369 1.369 0 010 1.937L42.4 64.056a1.397 1.397 0 01-1.935 0zm4.176 12.901a2.44 2.44 0 010-3.438l2.012-2.014a2.476 2.476 0 013.418 0 2.437 2.437 0 010 3.438l-2.005 2.014a2.475 2.475 0 01-3.425 0zM50 82.326a2.436 2.436 0 010-3.437l2.01-2.014a2.476 2.476 0 013.426 0 2.435 2.435 0 010 3.437l-2.01 2.014a2.473 2.473 0 01-3.425-.001zm5.361 5.372a2.437 2.437 0 010-3.439l2.01-2.015a2.428 2.428 0 014.207 1.707 2.426 2.426 0 01-.789 1.733l-2.01 2.014a2.476 2.476 0 01-3.418-.002v.002zm5.361 5.369a2.435 2.435 0 010-3.436l2.01-2.014a2.426 2.426 0 113.418 3.437l-2.009 2.014a2.476 2.476 0 01-3.419-.003v.002zm29.559-16.11a2.417 2.417 0 01-3.418 0l-6.027-6.037a1.372 1.372 0 00-1.943 1.935l4.697 4.705a2.44 2.44 0 01-.01 3.429 2.417 2.417 0 01-3.425 0l-4.692-4.7a1.367 1.367 0 00-1.934 1.933l4.69 4.699a2.434 2.434 0 010 3.437 2.473 2.473 0 01-3.424 0l-4.687-4.694a1.369 1.369 0 00-2.352.96 1.368 1.368 0 00.417.972l2.674 2.68 2.01 2.012a2.438 2.438 0 010 3.439 2.476 2.476 0 01-3.418 0l-.291-.291a5.15 5.15 0 00-4.698-7.264c-.076 0-.15.019-.227.022a5.133 5.133 0 00-5.133-5.393c-.077 0-.15.02-.227.024a5.035 5.035 0 00-5.365-5.323 5.136 5.136 0 00-1.488-3.928 5.28 5.28 0 00-6.05-.872l-.86-3.475L62.303 47.99l3.74 2.811-4.574 4.008a5.176 5.176 0 000 7.302 5.28 5.28 0 007.238.057l5.69-4.56 15.886 15.91a2.438 2.438 0 010 3.439zm-2.754-10.068l-1.336-1.34c-.01-.008-.021-.01-.03-.019L75.464 54.809a1.367 1.367 0 00-1.822-.1l-6.7 5.369a2.49 2.49 0 01-3.538.1 2.424 2.424 0 01-.066-3.375l10.004-8.769L89.07 63.798l-1.542 3.091zm11.315-6.554l-3.716 3.721a1.396 1.396 0 01-1.933 0L72.955 43.783a1.366 1.366 0 010-1.937l3.716-3.717a1.367 1.367 0 011.932 0l20.235 20.274a1.367 1.367 0 01.005 1.93v.002z" fill="#0B0B0B"/><defs><filter id="filter0_d" x="0" y="0" width="152" height="152" filterUnits="userSpaceOnUse" color-interpolation-filters="sRGB"><feFlood flood-opacity="0" result="BackgroundImageFix"/><feColorMatrix in="SourceAlpha" values="0 0 0 0 0 0 0 0 0 0 0 0 0 0 0 0 0 0 127 0"/><feMorphology radius="2" operator="dilate" in="SourceAlpha" result="effect1_dropShadow"/><feOffset/><feGaussianBlur stdDeviation="2"/><feColorMatrix values="0 0 0 0 0.441667 0 0 0 0 0.185868 0 0 0 0 0.193282 0 0 0 0.25 0"/><feBlend in2="BackgroundImageFix" result="effect1_dropShadow"/><feBlend in="SourceGraphic" in2="effect1_dropShadow" result="shape"/></filter></defs></svg>