<svg width="152" height="152" fill="none" xmlns="http://www.w3.org/2000/svg"><g filter="url(#filter0_d)"><circle cx="76" cy="76" r="70" fill="#fff"/></g><path d="M117.313 75.692a2.723 2.723 0 00-1.259-1.672 2.735 2.735 0 00-4.038 3.04 28.712 28.712 0 01-48.273 27.279H66.8a2.734 2.734 0 100-5.469h-9.668a2.734 2.734 0 00-2.735 2.735v9.669a2.734 2.734 0 005.469 0v-3.077a34.19 34.19 0 0041.164 5.736 34.188 34.188 0 0016.282-38.24zM56.39 91.354a28.71 28.71 0 0148.273-27.287h-3.058a2.734 2.734 0 100 5.469h9.668a2.735 2.735 0 002.735-2.734v-9.67a2.734 2.734 0 10-5.469 0v3.077a34.187 34.187 0 00-57.447 32.505 2.736 2.736 0 005.298-1.367v.007z" fill="#E07275"/><path d="M84.203 65.063a19.14 19.14 0 1019.141 19.14 19.163 19.163 0 00-19.141-19.14zm0 32.812A13.687 13.687 0 0170.53 84.203a1.367 1.367 0 012.734 0 10.95 10.95 0 0010.938 10.938 1.367 1.367 0 010 2.734zM96.508 85.57a1.367 1.367 0 01-1.368-1.367 10.95 10.95 0 00-10.937-10.937 1.367 1.367 0 110-2.735 13.687 13.687 0 0113.672 13.672 1.367 1.367 0 01-1.367 1.367z" fill="#E07275"/><path d="M65.063 33.617a31.445 31.445 0 1031.445 31.446 31.48 31.48 0 00-31.445-31.446zm0 60.156a28.71 28.71 0 1128.71-28.71 28.744 28.744 0 01-28.71 28.71z" fill="#0B0B0B"/><path d="M65.063 40.453a24.609 24.609 0 1024.609 24.61 24.638 24.638 0 00-24.61-24.61zm0 46.484a21.875 21.875 0 1121.874-21.874 21.901 21.901 0 01-21.874 21.874z" fill="#0B0B0B"/><path d="M68.16 63.627a73.749 73.749 0 01-1.891-.7v-9.361a6.232 6.232 0 012.951 1.25 1.367 1.367 0 101.847-2.016 8.951 8.951 0 00-4.798-2.005v-2.139a1.367 1.367 0 10-2.735 0v2.25c-.382.069-.76.16-1.132.273a6.922 6.922 0 00-4.737 5.433 6.052 6.052 0 001.96 5.96 17.606 17.606 0 003.91 2.202v11.588a7.75 7.75 0 01-4.625-1.583 1.37 1.37 0 00-1.504 2.289 10.39 10.39 0 006.128 2.026v2.375a1.367 1.367 0 002.735 0V78.99a8.397 8.397 0 006.954-6.955 7.35 7.35 0 00-5.064-8.408zm-4.626-1.875a12.654 12.654 0 01-2.22-1.337 3.345 3.345 0 01-.957-3.3 4.133 4.133 0 013.177-3.4v8.037zm6.997 9.83a5.71 5.71 0 01-4.257 4.614V65.849c.319.117.636.233.98.355a4.664 4.664 0 013.277 5.379z" fill="#0B0B0B"/><defs><filter id="filter0_d" x="0" y="0" width="152" height="152" filterUnits="userSpaceOnUse" color-interpolation-filters="sRGB"><feFlood flood-opacity="0" result="BackgroundImageFix"/><feColorMatrix in="SourceAlpha" values="0 0 0 0 0 0 0 0 0 0 0 0 0 0 0 0 0 0 127 0"/><feMorphology radius="2" operator="dilate" in="SourceAlpha" result="effect1_dropShadow"/><feOffset/><feGaussianBlur stdDeviation="2"/><feColorMatrix values="0 0 0 0 0.441667 0 0 0 0 0.185868 0 0 0 0 0.193282 0 0 0 0.25 0"/><feBlend in2="BackgroundImageFix" result="effect1_dropShadow"/><feBlend in="SourceGraphic" in2="effect1_dropShadow" result="shape"/></filter></defs></svg>