<svg width="152" height="152" fill="none" xmlns="http://www.w3.org/2000/svg"><g filter="url(#filter0_d)"><circle cx="76" cy="76" r="70" fill="#fff"/></g><path d="M94.35 69.16v4.21h4.21l-4.21-4.21zm17.606 25.34a1.174 1.174 0 01-1.174-1.174v-7.043H84.956a1.174 1.174 0 00-1.174 1.174v32.869a1.172 1.172 0 001.174 1.174h32.87a1.175 1.175 0 001.174-1.174V94.5h-7.044zm-21.13-1.174h14.087a1.174 1.174 0 010 2.348H90.826a1.174 1.174 0 010-2.348zm21.13 21.131h-21.13a1.175 1.175 0 010-2.348h21.13c.312 0 .61.123.83.344a1.17 1.17 0 01-.83 2.004zm0-9.392h-21.13a1.17 1.17 0 01-1.174-1.174 1.174 1.174 0 011.174-1.174h21.13a1.173 1.173 0 110 2.348z" fill="#E07275"/><path d="M113.13 87.942v4.21h4.21l-4.21-4.21zm-12.913-4.007v-8.218h-7.043A1.174 1.174 0 0192 74.543V67.5H66.174A1.174 1.174 0 0065 68.674v32.869a1.177 1.177 0 001.174 1.174h15.26v-15.26a3.521 3.521 0 013.523-3.522h15.26zM77.913 95.674h-5.87a1.174 1.174 0 110-2.348h5.87a1.174 1.174 0 110 2.348zm0-9.391h-5.87a1.174 1.174 0 110-2.348h5.87a1.174 1.174 0 110 2.348zm-5.87-9.392a1.174 1.174 0 110-2.348H86.13a1.174 1.174 0 110 2.348H72.043z" fill="#E07275"/><path d="M68.102 30a34.101 34.101 0 1034.101 34.102A34.14 34.14 0 0068.102 30zm0 65.39A31.29 31.29 0 1199.39 64.103 31.324 31.324 0 0168.1 95.39z" fill="#0B0B0B"/><path d="M68.102 37.031a27.07 27.07 0 1027.07 27.07 27.152 27.152 0 00-27.07-27.07zM89.758 74.98l-2.073-1.197a1.406 1.406 0 00-1.406 2.436l2.08 1.2a24.425 24.425 0 01-6.936 6.936l-1.201-2.08a1.406 1.406 0 10-2.436 1.407l1.197 2.073a24.045 24.045 0 01-9.471 2.53v-2.39a1.406 1.406 0 10-2.813 0v2.39a24.046 24.046 0 01-9.47-2.53l1.196-2.073a1.406 1.406 0 00-2.435-1.406l-1.201 2.08a24.424 24.424 0 01-6.94-6.936l2.08-1.201a1.405 1.405 0 00-.336-2.582 1.407 1.407 0 00-1.07.146l-2.074 1.197a24.047 24.047 0 01-2.53-9.471h2.39a1.406 1.406 0 100-2.813h-2.39a24.047 24.047 0 012.53-9.47l2.073 1.196a1.405 1.405 0 001.823-2.075 1.406 1.406 0 00-.416-.36l-2.08-1.202a24.424 24.424 0 016.935-6.935l1.201 2.08a1.406 1.406 0 102.436-1.407l-1.197-2.072a24.048 24.048 0 019.471-2.532v2.39a1.406 1.406 0 002.813 0v-2.39a24.047 24.047 0 019.47 2.532l-1.196 2.072a1.406 1.406 0 002.436 1.407l1.2-2.08a24.425 24.425 0 016.936 6.935l-2.08 1.201a1.406 1.406 0 101.407 2.436l2.073-1.197a24.048 24.048 0 012.53 9.471h-2.39a1.406 1.406 0 000 2.813h2.39a24.047 24.047 0 01-2.53 9.47h.004z" fill="#0B0B0B"/><path d="M68.102 48.454a1.406 1.406 0 00-1.407 1.406v12.835H58.08a1.406 1.406 0 000 2.813h10.023a1.407 1.407 0 001.406-1.406V49.86a1.406 1.406 0 00-1.406-1.406z" fill="#0B0B0B"/><defs><filter id="filter0_d" x="0" y="0" width="152" height="152" filterUnits="userSpaceOnUse" color-interpolation-filters="sRGB"><feFlood flood-opacity="0" result="BackgroundImageFix"/><feColorMatrix in="SourceAlpha" values="0 0 0 0 0 0 0 0 0 0 0 0 0 0 0 0 0 0 127 0"/><feMorphology radius="2" operator="dilate" in="SourceAlpha" result="effect1_dropShadow"/><feOffset/><feGaussianBlur stdDeviation="2"/><feColorMatrix values="0 0 0 0 0.441667 0 0 0 0 0.185868 0 0 0 0 0.193282 0 0 0 0.25 0"/><feBlend in2="BackgroundImageFix" result="effect1_dropShadow"/><feBlend in="SourceGraphic" in2="effect1_dropShadow" result="shape"/></filter></defs></svg>