<svg width="152" height="152" fill="none" xmlns="http://www.w3.org/2000/svg"><g filter="url(#filter0_d)"><circle cx="76" cy="76" r="70" fill="#fff"/></g><path d="M116.781 107.289h-1.23V75.62a4.22 4.22 0 00-4.219-4.219H62.465a4.219 4.219 0 00-4.219 4.22v31.668h-1.23a4.219 4.219 0 00-4.22 4.219v2.461A7.039 7.039 0 0059.829 121h54.141a7.038 7.038 0 007.031-7.031v-2.461a4.219 4.219 0 00-4.219-4.219zM72.309 78.421h34.804a1.408 1.408 0 011.407 1.407 1.41 1.41 0 01-1.407 1.406H72.309a1.406 1.406 0 010-2.813zm-5.625 0a1.406 1.406 0 110 2.812 1.406 1.406 0 010-2.812zm-1.407 8.438a1.406 1.406 0 011.407-1.406h40.429a1.408 1.408 0 011.407 1.406v7.762a1.41 1.41 0 01-1.407 1.407h-40.43a1.406 1.406 0 01-1.406-1.407V86.86zm1.407 13.387h40.429c.373 0 .731.149.995.412a1.409 1.409 0 01-.995 2.401h-40.43a1.405 1.405 0 01-.994-2.401 1.41 1.41 0 01.995-.412zm51.504 13.723a4.218 4.218 0 01-4.219 4.218h-54.14a4.219 4.219 0 01-4.22-4.218v-2.461a1.408 1.408 0 011.407-1.407H73.37a1.24 1.24 0 01.867.362 1.225 1.225 0 01.357.869 4.218 4.218 0 004.219 4.219h16.171a4.22 4.22 0 004.22-4.219v-.007a1.224 1.224 0 011.223-1.224h16.354c.373 0 .731.149.995.412.263.264.412.622.412.995v2.461z" fill="#E07275"/><path d="M59.652 88.305a28.652 28.652 0 1128.653-28.653 28.687 28.687 0 01-28.653 28.653zm0-54.493a25.84 25.84 0 1025.84 25.84 25.875 25.875 0 00-25.84-25.84z" fill="#0B0B0B"/><path d="M54 69.925l-7.813-7.809a4.22 4.22 0 010-5.966l1.43-1.43a4.219 4.219 0 015.966 0l3.396 3.394 8.731-8.731a4.219 4.219 0 015.966 0l1.43 1.431a4.22 4.22 0 010 5.967L59.969 69.924a4.227 4.227 0 01-5.97.001zm-4.388-13.219l-1.43 1.435a1.404 1.404 0 000 1.99l7.807 7.807a1.406 1.406 0 001.99 0l13.144-13.146a1.407 1.407 0 000-1.99l-1.43-1.43a1.406 1.406 0 00-1.989 0l-9.725 9.722a1.406 1.406 0 01-1.989 0l-4.39-4.388a1.406 1.406 0 00-1.988.002v-.002z" fill="#0B0B0B"/><defs><filter id="filter0_d" x="0" y="0" width="152" height="152" filterUnits="userSpaceOnUse" color-interpolation-filters="sRGB"><feFlood flood-opacity="0" result="BackgroundImageFix"/><feColorMatrix in="SourceAlpha" values="0 0 0 0 0 0 0 0 0 0 0 0 0 0 0 0 0 0 127 0"/><feMorphology radius="2" operator="dilate" in="SourceAlpha" result="effect1_dropShadow"/><feOffset/><feGaussianBlur stdDeviation="2"/><feColorMatrix values="0 0 0 0 0.441667 0 0 0 0 0.185868 0 0 0 0 0.193282 0 0 0 0.25 0"/><feBlend in2="BackgroundImageFix" result="effect1_dropShadow"/><feBlend in="SourceGraphic" in2="effect1_dropShadow" result="shape"/></filter></defs></svg>