<svg width="152" height="152" fill="none" xmlns="http://www.w3.org/2000/svg"><g filter="url(#filter0_d)"><circle cx="76" cy="76" r="70" fill="#fff"/></g><path d="M86.79 52.93a34.036 34.036 0 1034.035 34.035A34.075 34.075 0 0086.79 52.93zm0 59.65a25.612 25.612 0 01-23.666-15.812 25.614 25.614 0 0144.963-24.034 25.62 25.62 0 014.317 14.231A25.646 25.646 0 0186.79 112.58z" fill="#E07275"/><path d="M86.79 64.158a22.807 22.807 0 1022.806 22.807 22.835 22.835 0 00-22.807-22.807zm14.103 24.21H86.789a1.403 1.403 0 01-1.403-1.403V68.311a1.403 1.403 0 112.807 0v17.25h12.7a1.407 1.407 0 011.404 1.404 1.404 1.404 0 01-1.404 1.403z" fill="#E07275"/><path d="M90.65 55.774v-9.686a4.215 4.215 0 00-3.334-4.116V40.65a4.216 4.216 0 00-3.334-4.116v-1.322A4.215 4.215 0 0079.772 31H37.835A6.844 6.844 0 0031 37.842v42.31a6.843 6.843 0 006.835 6.835H86.44a4.216 4.216 0 004.21-4.21v-8.48a4.215 4.215 0 004.21-4.211V59.984a4.215 4.215 0 00-4.21-4.21zM37.834 33.807h41.937a1.405 1.405 0 011.403 1.404v1.228H37.842a1.404 1.404 0 000 2.807h45.263a1.404 1.404 0 011.404 1.403v1.228H37.842a4.035 4.035 0 01-.007-8.07zm50.007 48.97a1.405 1.405 0 01-1.403 1.403H37.835a4.033 4.033 0 01-4.028-4.028V43.339a6.778 6.778 0 004.035 1.345H86.44a1.404 1.404 0 011.403 1.404v9.686H79.56a9.261 9.261 0 100 18.522h8.283v8.48zm4.21-12.691a1.405 1.405 0 01-1.403 1.403H79.56a6.454 6.454 0 010-12.908h11.09a1.405 1.405 0 011.404 1.403v10.102z" fill="#0B0B0B"/><path d="M79.527 60.58a4.455 4.455 0 100 8.91 4.455 4.455 0 000-8.91zm0 6.104a1.648 1.648 0 110-3.295 1.648 1.648 0 010 3.295z" fill="#0B0B0B"/><defs><filter id="filter0_d" x="0" y="0" width="152" height="152" filterUnits="userSpaceOnUse" color-interpolation-filters="sRGB"><feFlood flood-opacity="0" result="BackgroundImageFix"/><feColorMatrix in="SourceAlpha" values="0 0 0 0 0 0 0 0 0 0 0 0 0 0 0 0 0 0 127 0"/><feMorphology radius="2" operator="dilate" in="SourceAlpha" result="effect1_dropShadow"/><feOffset/><feGaussianBlur stdDeviation="2"/><feColorMatrix values="0 0 0 0 0.441667 0 0 0 0 0.185868 0 0 0 0 0.193282 0 0 0 0.25 0"/><feBlend in2="BackgroundImageFix" result="effect1_dropShadow"/><feBlend in="SourceGraphic" in2="effect1_dropShadow" result="shape"/></filter></defs></svg>