<svg width="569" height="284" fill="none" xmlns="http://www.w3.org/2000/svg"><path d="M266.28 37.97c-86.757 0-157.087 70.122-157.087 156.621 0 33.013 10.244 63.64 27.735 88.893h258.704c17.491-25.253 27.735-55.88 27.735-88.893 0-86.499-70.33-156.62-157.087-156.62z" fill="#FAEDED"/><path d="M265.805 49.414C183.07 49.414 116 116.267 116 198.735c0 31.473 9.769 60.673 26.45 84.749h246.711c16.68-24.076 26.449-53.276 26.449-84.749 0-82.468-67.07-149.321-149.805-149.321z" fill="#D84E52"/><path d="M388.9 171.608v22.337h-6.488v-22.337h-7.14v-5.851H396v5.851h-7.1zm-33.254 6.136v16.201h-6.488v-28.188h5.835l4.693 6.832 6.161 9.369h.122v-16.201h6.447v28.188h-5.794l-5.794-8.591-4.978-7.61h-.204zm-29.787-11.987h19.626v5.81h-13.139v5.277h11.221v5.769h-11.221v5.563h13.139v5.769h-19.626v-28.188zm-14.935 18.696l2.857-10.186 2.448-8.51h6.773l-8.936 28.188h-6.651l-9.017-28.188h6.936l2.53 8.673 2.815 10.023h.245zm-34.169-18.696h19.398v5.81h-13.138v5.277h11.22v5.769h-11.22v5.563h13.138v5.769h-19.399a24.06 24.06 0 004.531-14.094c0-5.261-1.68-10.128-4.53-14.094zm-57.423 0h18.341a24.085 24.085 0 00-3.074 5.81h-8.78v5.277h7.51a24.448 24.448 0 00-.028 5.769h-7.482v5.563h8.795a24.07 24.07 0 003.059 5.769h-18.341v-28.188zm-10.081 15.056l-2.652 5.072-2.449 4.296h-4.61l-2.49-4.459-2.529-4.868h-.164v13.091h-6.487v-28.188h5.957l4.652 9.164 3.305 6.71h.245l3.427-6.955 4.447-8.919h5.958v28.188h-6.488v-13.132h-.122zm-32.847 7.568h-9.058l-1.673 5.564h-6.977l9.915-28.188h6.691l9.753 28.188h-6.937l-1.714-5.564zm-7.426-5.318h5.794l-.571-1.923-2.244-7.773h-.164l-2.244 7.773-.571 1.923zm-12.69 6.995a9.239 9.239 0 01-2.142 1.985 12.94 12.94 0 01-2.469 1.288c-.843.328-1.686.559-2.529.696-.844.136-1.633.205-2.367.205-1.279 0-2.571-.178-3.876-.532a11.439 11.439 0 01-3.55-1.637 8.806 8.806 0 01-2.592-2.802c-.666-1.132-.999-2.476-.999-4.03v-10.515c0-1.554.32-2.904.959-4.05a9.021 9.021 0 012.53-2.884 11.08 11.08 0 013.529-1.738 14.137 14.137 0 013.999-.573c1.659 0 3.325.239 4.998.716s3.067 1.206 4.182 2.189l-3.141 5.032c-.925-.792-1.911-1.317-2.958-1.576-1.048-.258-2.02-.388-2.918-.388-.544 0-1.088.081-1.632.245a4.925 4.925 0 00-1.51.757 3.789 3.789 0 00-1.122 1.35c-.286.559-.428 1.248-.428 2.066v7.978c0 .818.136 1.507.408 2.066.272.559.625 1.009 1.061 1.35.435.341.918.593 1.448.757.53.163 1.068.245 1.612.245.49 0 1-.068 1.53-.204a3.84 3.84 0 001.489-.777v-3.806h-3.876v-5.481h10.364v12.068z" fill="#E07275"/><path fill-rule="evenodd" clip-rule="evenodd" d="M257.214 158.593c2.38 0 4.668.393 6.805 1.118l-24.365 21.784 1.455 6.217 16.487-.047-3.141 13.265c-10.406-1.355-18.444-10.275-18.444-21.079 0-11.741 9.493-21.258 21.203-21.258zm12.697 4.232c5.163 3.877 8.505 10.06 8.505 17.026 0 10.287-7.288 18.867-16.97 20.834l2.916-13.039 3.006-.009 1.171-6.224-2.786.008 4.158-18.596zm-8.048 6.823l-13.086 11.821 10.293-.029 2.793-11.792z" fill="#E07275"/><path d="M142.939 210.205l-3.012 5.614c-.289.54-.638.949-1.045 1.225a2.312 2.312 0 01-1.329.416 3.05 3.05 0 01-1.153-.243l.395-1.247c.283.088.519.132.707.132.203 0 .385-.049.546-.147.162-.098.31-.251.445-.461l.06-.081-2.789-5.208h1.749l1.879 3.81 1.941-3.81h1.606zm7.216 7.093l-.01-4.246-2.082 3.496h-.727l-2.082-3.414v4.164h-1.536v-7.093h1.354l2.648 4.408 2.607-4.408h1.354l.01 7.093h-1.536zm9.783-7.093v7.093h-1.637v-2.908h-3.214v2.908h-1.637v-7.093h1.637v2.797h3.214v-2.797h1.637zm5.194 2.33c.863 0 1.525.193 1.986.578.462.385.692.956.692 1.713 0 .803-.254 1.416-.762 1.839-.509.422-1.225.633-2.148.633h-3.194v-7.093h1.627v2.33h1.799zm-.323 3.547c.424 0 .756-.105.996-.314.239-.21.358-.513.358-.912 0-.736-.451-1.104-1.354-1.104h-1.476v2.33h1.476zm3.901-5.877h1.627v7.093h-1.627v-7.093zm3.386 0h1.627v4.621l3.376-4.621h1.536v7.093h-1.617v-4.611l-3.376 4.611h-1.546v-7.093zm3.264-.456c-1.293 0-1.947-.517-1.96-1.551h1.121c.014.494.293.74.839.74.27 0 .475-.062.617-.187.141-.125.215-.309.222-.553h1.122c-.007.507-.172.892-.495 1.156-.324.263-.813.395-1.466.395zm11.238 7.671c-.72 0-1.372-.157-1.955-.472a3.508 3.508 0 01-1.375-1.307c-.333-.557-.5-1.187-.5-1.889 0-.703.167-1.333.5-1.89a3.525 3.525 0 011.375-1.308c.583-.314 1.238-.471 1.965-.471.613 0 1.168.108 1.663.324.495.217.911.527 1.248.932l-1.051.973c-.478-.553-1.071-.83-1.779-.83-.438 0-.829.096-1.172.289a2.048 2.048 0 00-.804.805 2.385 2.385 0 00-.287 1.176c0 .439.096.83.287 1.175.192.344.46.613.804.806.343.192.734.288 1.172.288.708 0 1.301-.28 1.779-.841l1.051.973a3.28 3.28 0 01-1.253.942 4.157 4.157 0 01-1.668.325zm9.47-1.439v1.317h-5.478v-7.093h5.346v1.317h-3.719v1.54h3.285v1.277h-3.285v1.642h3.851zm4.386-5.776c.627 0 1.171.105 1.632.314.462.21.817.507 1.067.892.249.385.373.841.373 1.368 0 .52-.124.974-.373 1.362-.25.389-.605.686-1.067.892-.461.206-1.005.309-1.632.309h-1.425v1.956h-1.637v-7.093h3.062zm-.091 3.8c.492 0 .866-.106 1.122-.319.256-.213.384-.516.384-.907 0-.399-.128-.705-.384-.917-.256-.213-.63-.32-1.122-.32h-1.334v2.463h1.334zm7.691 3.415c-.721 0-1.372-.157-1.955-.472a3.502 3.502 0 01-1.375-1.307c-.334-.557-.5-1.187-.5-1.889 0-.703.166-1.333.5-1.89a3.518 3.518 0 011.375-1.308c.583-.314 1.237-.471 1.965-.471.613 0 1.167.108 1.663.324.495.217.911.527 1.248.932l-1.052.973c-.478-.553-1.07-.83-1.778-.83-.438 0-.829.096-1.172.289a2.048 2.048 0 00-.804.805 2.374 2.374 0 00-.288 1.176c0 .439.096.83.288 1.175.192.344.46.613.804.806.343.192.734.288 1.172.288.708 0 1.3-.28 1.778-.841l1.052.973a3.28 3.28 0 01-1.253.942 4.157 4.157 0 01-1.668.325zm3.992-7.215h1.627v4.621l3.376-4.621h1.536v7.093h-1.617v-4.611l-3.376 4.611h-1.546v-7.093zm11.642 7.215c-.72 0-1.372-.157-1.955-.472a3.508 3.508 0 01-1.375-1.307c-.333-.557-.5-1.187-.5-1.889 0-.703.167-1.333.5-1.89a3.525 3.525 0 011.375-1.308c.583-.314 1.238-.471 1.965-.471.613 0 1.168.108 1.663.324.495.217.911.527 1.248.932l-1.051.973c-.478-.553-1.071-.83-1.779-.83-.438 0-.829.096-1.172.289a2.054 2.054 0 00-.804.805 2.385 2.385 0 00-.287 1.176c0 .439.096.83.287 1.175.192.344.461.613.804.806.343.192.734.288 1.172.288.708 0 1.301-.28 1.779-.841l1.051.973a3.28 3.28 0 01-1.253.942 4.157 4.157 0 01-1.668.325zm13.3-7.215v7.093h-1.627v-5.756h-3.194v5.756h-1.626v-7.093h6.447zm5.134 7.215c-.734 0-1.396-.159-1.986-.477a3.526 3.526 0 01-1.384-1.312 3.584 3.584 0 01-.5-1.879 3.529 3.529 0 011.884-3.193c.59-.317 1.252-.476 1.986-.476s1.395.159 1.981.476a3.579 3.579 0 011.385 1.313 3.56 3.56 0 01.505 1.88 3.56 3.56 0 01-.505 1.879 3.576 3.576 0 01-1.385 1.312c-.586.318-1.247.477-1.981.477zm0-1.399c.418 0 .795-.096 1.132-.288.337-.193.601-.462.793-.806.192-.345.288-.736.288-1.175 0-.44-.096-.831-.288-1.176a2.066 2.066 0 00-.793-.805 2.236 2.236 0 00-1.132-.289c-.418 0-.794.096-1.131.289a2.062 2.062 0 00-.794.805 2.374 2.374 0 00-.288 1.176c0 .439.096.83.288 1.175.192.344.456.613.794.806.337.192.713.288 1.131.288zm17.302-5.816v7.093h-1.627v-5.756h-3.193v5.756h-1.627v-7.093h6.447zm5.134 7.215c-.734 0-1.396-.159-1.985-.477a3.522 3.522 0 01-1.385-1.312 3.584 3.584 0 01-.5-1.879c0-.696.166-1.323.5-1.88a3.525 3.525 0 011.385-1.313c.589-.317 1.251-.476 1.985-.476.734 0 1.395.159 1.981.476a3.572 3.572 0 011.385 1.313 3.56 3.56 0 01.505 1.88 3.56 3.56 0 01-.505 1.879 3.57 3.57 0 01-1.385 1.312c-.586.318-1.247.477-1.981.477zm0-1.399c.418 0 .795-.096 1.132-.288.337-.193.601-.462.794-.806.192-.345.287-.736.287-1.175 0-.44-.095-.831-.287-1.176a2.076 2.076 0 00-.794-.805 2.236 2.236 0 00-1.132-.289c-.418 0-.795.096-1.132.289a2.073 2.073 0 00-.793.805 2.374 2.374 0 00-.288 1.176c0 .439.096.83.288 1.175.192.344.457.613.793.806.337.192.714.288 1.132.288zm12.229-.061v2.807h-1.516v-1.469h-4.993v1.469h-1.515l.01-2.807h.283c.424-.013.724-.324.899-.932.175-.608.283-1.476.323-2.604l.081-2.219h5.437v5.755h.991zm-5.063-3.384c-.034.845-.105 1.552-.213 2.123-.107.571-.273.991-.495 1.261h3.163v-4.418h-2.425l-.03 1.034zm6.165-2.371h5.71v1.307h-4.084v1.459h1.961c.856 0 1.508.179 1.956.537.448.358.672.875.672 1.551 0 .709-.249 1.259-.748 1.651-.499.392-1.203.588-2.113.588h-3.354v-7.093zm3.263 5.877c.418 0 .739-.083.961-.248.222-.166.334-.407.334-.725 0-.621-.432-.932-1.295-.932h-1.637v1.905h1.637zm7.57 1.338c-.734 0-1.396-.159-1.985-.477a3.529 3.529 0 01-1.385-1.312 3.584 3.584 0 01-.5-1.879c0-.696.166-1.323.5-1.88a3.531 3.531 0 011.385-1.313c.589-.317 1.251-.476 1.985-.476.735 0 1.395.159 1.981.476a3.572 3.572 0 011.385 1.313 3.56 3.56 0 01.505 1.88 3.56 3.56 0 01-.505 1.879 3.57 3.57 0 01-1.385 1.312c-.586.318-1.246.477-1.981.477zm0-1.399c.418 0 .795-.096 1.132-.288.337-.193.602-.462.794-.806.192-.345.288-.736.288-1.175 0-.44-.096-.831-.288-1.176a2.069 2.069 0 00-.794-.805 2.236 2.236 0 00-1.132-.289c-.417 0-.794.096-1.131.289a2.069 2.069 0 00-.794.805 2.374 2.374 0 00-.288 1.176c0 .439.096.83.288 1.175.192.344.457.613.794.806.337.192.714.288 1.131.288zm8.197-5.816c.626 0 1.171.105 1.632.314.461.21.817.507 1.066.892.249.385.374.841.374 1.368 0 .52-.125.974-.374 1.362a2.38 2.38 0 01-1.066.892c-.461.206-1.006.309-1.632.309h-1.425v1.956h-1.637v-7.093h3.062zm-.091 3.8c.492 0 .866-.106 1.122-.319.256-.213.384-.516.384-.907 0-.399-.128-.705-.384-.917-.256-.213-.63-.32-1.122-.32h-1.334v2.463h1.334zm10.48-3.8l-3.012 5.614c-.29.54-.639.949-1.046 1.225-.407.278-.85.416-1.329.416a3.05 3.05 0 01-1.152-.243l.394-1.247c.283.088.519.132.708.132.202 0 .384-.049.545-.147.162-.098.31-.251.445-.461l.061-.081-2.79-5.208h1.749l1.879 3.81 1.941-3.81h1.607zm9.196 1.337h-2.263v5.756h-1.617v-5.756h-2.254v-1.337h6.134v1.337zm1.031-1.337h1.627v4.621l3.376-4.621h1.536v7.093h-1.617v-4.611l-3.376 4.611h-1.546v-7.093zm14.735 7.093l-.01-4.246-2.082 3.496h-.727l-2.082-3.414v4.164h-1.536v-7.093h1.354l2.648 4.408 2.607-4.408h1.354l.01 7.093h-1.536zm3.295-7.093h5.71v1.307h-4.083v1.459h1.96c.856 0 1.508.179 1.956.537.448.358.672.875.672 1.551 0 .709-.249 1.259-.748 1.651-.498.392-1.203.588-2.112.588h-3.355v-7.093zm3.264 5.877c.418 0 .738-.083.96-.248.222-.166.334-.407.334-.725 0-.621-.432-.932-1.294-.932h-1.637v1.905h1.637zm4.194-5.877h1.627v4.621l3.376-4.621h1.536v7.093h-1.617v-4.611l-3.376 4.611h-1.546v-7.093zm14.553 0v7.093h-1.617v-5.756h-2.425l-.051 1.48c-.034 1.007-.115 1.822-.242 2.447-.129.625-.342 1.105-.642 1.439-.3.334-.719.502-1.258.502-.223 0-.492-.038-.809-.112l.101-1.388c.088.027.186.04.293.04.391 0 .664-.231.819-.694.155-.462.252-1.187.293-2.173l.101-2.878h5.437zm9.015 5.755v2.807h-1.516v-1.469h-4.993v1.469h-1.516l.011-2.807h.283c.424-.013.723-.324.899-.932.175-.608.283-1.476.323-2.604l.081-2.219h5.437v5.755h.991zm-5.063-3.384c-.034.845-.105 1.552-.213 2.123-.108.571-.272.991-.495 1.261h3.163v-4.418h-2.425l-.03 1.034zm6.164-2.371h1.628v4.621l3.375-4.621h1.536v7.093h-1.617v-4.611l-3.376 4.611h-1.546v-7.093zm14.786 0v7.093h-1.637v-2.908h-3.214v2.908h-1.637v-7.093h1.637v2.797h3.214v-2.797h1.637zm6.751 1.337h-3.366l.01 5.756h-1.627v-7.093h4.993l-.01 1.337zm4.426 4.236h-3.284l-.627 1.52h-1.677l3.153-7.093h1.617l3.163 7.093h-1.718l-.627-1.52zm-.515-1.246l-1.122-2.716-1.121 2.716h2.243z" fill="#E07275"/><path d="M295.051 283.355h-51.948a2.565 2.565 0 11.016-5.13l51.947.32a2.405 2.405 0 01-.015 4.81z" fill="#696969"/><path d="M316.636 283.192c8.116 0-20.632-89.459-25.559-114.094-6.898 8.868-13.4 38.627-15.765 43.357-2.365 4.73 2.734 53.657 5.362 70.737 3.613.657 21.577 0 35.962 0z" fill="#fff"/><path d="M252 114.5c3.961 6.233 11.138 12.225 14.423 12.225 8.212 1.643 25.423 5.716 28.577 8.869 3.941 3.942 6.897 14.781 6.897 7.883 0-6.897 3.961-7.883 4.947-21.678-.986-16.752-4.947-17.799-17.737-20.694C258 101.105 264 113.5 252 114.5z" fill="#251818"/><path d="M304.872 152.346l-6.897-13.796c0 2.956-14.781 9.854-10.84 17.737 3.942 7.883 2.956 18.723 4.927 18.723 1.577 0 9.197-15.11 12.81-22.664zm-36.459 100.51c3.153-.788 7.883 8.869 9.854 13.796-.986.985-20.694 5.912-26.606 6.897-5.913.986-18.723 12.811-18.723 5.913s14.781-12.81 20.146-12.81c5.364 0 11.387-12.811 15.329-13.796z" fill="#CA9797"/><path d="M280.515 177.965c0-1.576 5.635-11.496 8.591-15.766.985 2.956 1.971 9.854 2.956 12.81-1.576.788-6.29 9.854-7.604 14.781-1.642-3.285-3.943-10.248-3.943-11.825z" fill="#3B4073"/><path d="M293.326 261.724c-2.365-1.577-2.956-56.496-2.956-83.759l6.619 8.869c3.942-7.883 11.117-12.81 17.029-23.65 13.796 0 23.65 17.738 25.621 23.65 2.956 8.868 4.927 23.649 4.927 30.547s2.956 35.474 4.927 43.358c1.968 15.766.708 9.267 4.304 22.453H296c-1.974-14.781.282-19.497-2.674-21.468z" fill="#3B4073"/><path d="M288.5 174.5c1.5-1.5 12.058-15.117 16-23 7.5 2.5 10 9 10.5 12-1.5 4.5-15.5 25-19.5 27.5-2.956-.985-5.853-11.811-7-16.5zm-7.284 6.422c.985 2.956 1.97 5.912 2.956 7.883-2.956 25.195 1.886 79.606 5.828 94.387h-10.524c-4.795-26.372-10.002-25.499-13.287-29.112 2.216-3.195 2.216-3.195 5.173-9.107-1.971-16.752 9.542-64.986 9.854-64.051zm24.389 73.158c3.942.788 19.631 6.988 25.872 10.601 10.839 2.956 6.897-12.81 3.942-16.752-.001-8.869-.252-19.47-.252-44.105 0-24.634-8.87-27.591-14.782-27.591-5.912 0-9.798 5.513-12.81 13.796-3.942 10.839-3.075 30.471-1.97 35.474 2.806 12.701 3.395 16.752.985 16.752-3.09-.755-5.912 10.839-.985 11.825z" fill="#5D64AA"/><path d="M300.931 126.726c1.577 3.153-.656 6.897-1.97 8.868 0 17.737-9.855 20.693-14.782 21.678-4.679.936-18.722-11.824-17.737-32.518 1.971-13.795 24.635-6.897 25.62 4.928 0-7.883 6.898-6.898 8.869-2.956zm4.927 127.116c5.913 0 20.694 6.24 25.621 10.839-6.898 10.84-41.387 11.825-47.3 11.825-6.897 0-15.766-.985-17.737 0-1.97.985-19.708 8.869-19.708 2.956.986-7.883 19.708-12.81 25.621-11.825 5.912.986 24.635-11.824 33.503-13.795z" fill="#EDB6B6"/><path d="M86.826 64.499c43.693-88.426 163.849-70.742 175.813-29.65 9.845 33.815-28.088 46.815-68.141 63.98-23.927 10.254-40.052 68.659 46.294 76.983m117.556-8.323c24.967 15.605 53.64-4.681 48.375-36.931-8.323-50.975 59.297-74.902 99.35-16.645" stroke="#000" stroke-width="2" stroke-linecap="round" stroke-linejoin="round" stroke-dasharray="4 6"/><path d="M4.983 117.416l56.19-46.318 13.253 9.928-52.61 29.282L76.08 88.747l6.024-2.506 25.922 22.222-26.681 1.703-76.362 7.25z" fill="#D84E52"/><path d="M75.318 89.128l-.894-8.101-52.61 29.281 53.504-21.18zm4.189 21.214l-74.525 7.074 74.687 1.407-.162-8.481z" fill="#D84E52"/><path d="M1 111.833L53.485 70.22l12.014 9.363-48.894 26.008 50.28-18.88 5.584-2.198 23.45 20.89-24.567 1.099L1 111.833z" stroke="#000" stroke-width="2" stroke-linecap="round" stroke-linejoin="round"/><path d="M66.02 86.865l-.52-7.282-48.895 26.008L66.02 86.865zm3.64 19.766L1 111.833l68.66 2.6v-7.802z" stroke="#000" stroke-width="2" stroke-linecap="round" stroke-linejoin="round"/><path d="M499.608 185.695l-13.822-43.915 69.107-20.585 13.821 43.915-69.106 20.585z" fill="#CA4246"/><path d="M478.507 137.077l13.822 43.914m-13.822-43.914l69.107-20.585m-69.107 20.585l33.171 12.593m-19.349 31.321l69.106-20.585m-69.106 20.585l19.349-31.321m49.757 10.736l-13.821-43.914m13.821 43.914l-29.025-16.468m15.204-27.446l-15.204 27.446m-20.732 5.732l13.822 5.247 6.91-10.979" stroke="#000" stroke-width="2" stroke-linecap="round" stroke-linejoin="round"/><path d="M331.798 77.314l9.718 3.378c.489-1.408 2.265-4.611 5.454-6.155 3.985-1.93 7.126-4.152 9.035-9.645 1.91-5.493.163-12.73-8.71-15.814-8.873-3.084-14.731 1.51-16.641 7.002-1.909 5.493-.824 9.185 1.106 13.17 1.543 3.189.527 6.656.038 8.064z" fill="#FFC700"/><rect x="329.584" y="75.936" width="14.493" height="14.702" rx="4" transform="rotate(19.167 329.584 75.936)" fill="#595959"/><path d="M298.596 42.954l16.561 8.376m11.306-25.34l4.897 11.115m28.121-14.652l-5.533 14.501m17.037 16.673l18.462-7.241m-23.054 26.662L382.489 84.8" stroke="#FFC700" stroke-width="5" stroke-linecap="round" stroke-linejoin="round"/><path d="M331.335 59.607l-.988.155.988-.155zm10.195-.718l.816-.578a1 1 0 00-1.608-.033l.792.61zm-11.459 15.556c1.168-2.409 3.236-8.715 2.252-14.993l-1.976.31c.9 5.743-1.017 11.627-2.076 13.81l1.8.873zm2.252-14.993a34.067 34.067 0 01-.278-2.111 7.73 7.73 0 01-.032-.574c0-.069.002-.12.004-.158l.005-.05a.694.694 0 01-.036.105.835.835 0 01-.245.305.908.908 0 01-.589.191.842.842 0 01-.38-.102c-.106-.06-.139-.114-.093-.06.031.036.08.1.148.201.304.452.636 1.075 1.102 1.836.215.35.448.709.688 1.021.227.297.515.626.853.847l1.095-1.674c-.048-.031-.17-.141-.361-.39a10.517 10.517 0 01-.57-.85c-.365-.595-.828-1.431-1.148-1.907a4.488 4.488 0 00-.287-.384 1.708 1.708 0 00-.452-.387c-.235-.131-.756-.295-1.238.083-.34.266-.423.646-.45.782-.067.347-.052.815-.006 1.34.049.56.146 1.297.294 2.246l1.976-.31zm1.147 1.45c.313.206.686.35 1.101.338a1.677 1.677 0 001.033-.403c.472-.394.735-.998.891-1.449.171-.491.285-1.014.363-1.415.039-.197.073-.389.096-.514.032-.168.04-.185.028-.151l-1.889-.657c-.049.14-.084.33-.104.44l-.094.5a8.586 8.586 0 01-.289 1.14 2.746 2.746 0 01-.182.424.646.646 0 01-.102.147.334.334 0 01.19-.061c.1-.003.125.035.053-.012l-1.095 1.674zm3.512-3.594a.895.895 0 01-.357.451.897.897 0 01-.564.145.75.75 0 01-.31-.096l-.015-.01s.01.007.029.027c.019.019.045.046.075.083.062.074.137.178.22.313.336.547.738 1.512.915 2.873l1.983-.258c-.209-1.615-.698-2.853-1.194-3.661-.239-.39-.515-.736-.808-.962a1.399 1.399 0 00-.724-.302 1.103 1.103 0 00-1.139.74l1.889.657zm-.007 3.786c.042.322.17.73.528 1.026.372.308.803.339 1.115.297.551-.075 1.088-.421 1.476-.71.847-.63 1.753-1.59 2.228-2.208l-1.584-1.22c-.388.502-1.167 1.324-1.838 1.824a3.32 3.32 0 01-.414.27c-.121.063-.162.065-.137.062a.586.586 0 01.428.143c.181.15.188.308.181.258l-1.983.258zm3.739-1.628c.173.245.228.447.232.636.004.206-.052.473-.22.837-.356.769-1.061 1.674-2.055 2.95-1.935 2.483-4.625 5.968-6.233 11.3l1.915.577c1.495-4.955 3.984-8.195 5.896-10.648.93-1.194 1.816-2.31 2.292-3.34.247-.534.417-1.11.405-1.717-.013-.626-.217-1.21-.6-1.75l-1.632 1.155z" fill="#0B0B0B"/><path d="M326.755 73.303l9.159 3.183c.461-1.327 2.135-4.346 5.14-5.8 3.756-1.819 6.716-3.914 8.516-9.09 1.799-5.177.153-11.997-8.209-14.904s-13.884 1.422-15.683 6.599c-1.8 5.177-.777 8.656 1.041 12.412 1.455 3.005.498 6.272.036 7.6z" stroke="#000" stroke-width="2"/><path fill-rule="evenodd" clip-rule="evenodd" d="M334.721 78.904l-8.668-3.013a1 1 0 00-1.272.616l-2.655 7.638a.999.999 0 00.616 1.273l8.668 3.013a1 1 0 001.273-.617l2.654-7.637a.999.999 0 00-.616-1.273zm-8.011-4.902a3 3 0 00-3.819 1.849l-2.654 7.637a3 3 0 001.848 3.82l8.668 3.012a3 3 0 003.819-1.849l2.654-7.638a3 3 0 00-1.848-3.818l-8.668-3.013z" fill="#000"/><path d="M297.761 39.56l15.032 7.604m10.262-23.001l4.444 10.089m25.524-13.3l-5.022 13.163m15.464 15.133l16.757-6.572m-20.925 24.2l14.61 10.668" stroke="#0B0B0B" stroke-width="2" stroke-linecap="round" stroke-linejoin="round"/><path d="M225.907 214.417l21.647 69.067h-89.609c-5.705-18.79-17.619-58.199-19.633-65.512-.839-3.047-3.021-8.082 3.524-8.126 25.171-.169 73.097-.406 77.527 0 4.43.407 6.209 3.217 6.544 4.571z" fill="#BABABA"/><ellipse cx="186.248" cy="250.278" rx="5.141" ry="6.855" transform="rotate(-89.084 186.248 250.278)" fill="#D7D7D7"/><circle cx="186.696" cy="29.128" r="3.681" stroke="#EEBDBD" stroke-width="2"/><circle cx="80.584" cy="145.643" r="5.762" stroke="#EEBDBD" stroke-width="2"/><circle cx="544.564" cy="214.303" r="2.641" stroke="#EEBDBD" stroke-width="2"/><circle cx="440.533" cy="54.095" r="2.641" stroke="#EEBDBD" stroke-width="2"/><path d="M442.578 118.783l-4.626 1.168m2.897 1.729l-1.168-4.625m13.068 145.878l-6.409-4.333m1.038 5.371l4.333-6.408m-374.682-7.114l6.408-4.333m-1.038 5.371l-4.333-6.408M26.675 179.09l5.172-3.497m-.837 4.334l-3.497-5.172m382.331 108.729H128.959" stroke="#000" stroke-linecap="round" stroke-linejoin="round"/><circle cx="35.5" cy="249.5" r="2.5" stroke="#EEBDBD" stroke-width="2"/></svg>