<svg width="152" height="152" fill="none" xmlns="http://www.w3.org/2000/svg"><g filter="url(#filter0_d)"><circle cx="76" cy="76" r="70" fill="#fff"/></g><g clip-path="url(#clip0)"><path d="M120.951 82.41a31.49 31.49 0 00-30.607-29.613 31.079 31.079 0 00-23.115 9.433c-4.6 4.705 2.41 11.613 7.031 6.89a21.388 21.388 0 0118.677-6.24 21.707 21.707 0 0118.079 18.797 21.348 21.348 0 01-5.344 16.823 21.578 21.578 0 01-17.334 7.142l4.793-3.422a10.645 10.645 0 004.423-7.787 10.648 10.648 0 00-3.082-8.408l-6.714-6.715a10.648 10.648 0 00-16.195 1.34l-16.782 23.502a10.648 10.648 0 0014.853 14.854l8.14-5.815a31.361 31.361 0 0040.13-15.453 31.349 31.349 0 003.042-15.328h.005zm-48.724 21.137l-9.352 9.352a1.405 1.405 0 01-2.401-.994c0-.373.148-.731.412-.995l9.352-9.351a1.408 1.408 0 011.972.017 1.406 1.406 0 01.017 1.971zm2.984-4.972a7.734 7.734 0 1110.936-10.94 7.734 7.734 0 01-10.936 10.94zm35.156 5.227a28.51 28.51 0 01-29.846 7.427l3.516-2.511.932-.667a24.347 24.347 0 0028.479-18.693 24.352 24.352 0 00-7.143-22.964 24.345 24.345 0 00-34.057.758 2.107 2.107 0 01-3.503-.616 2.11 2.11 0 01.494-2.337 28.219 28.219 0 0121.04-8.59 28.668 28.668 0 0127.865 26.954 28.343 28.343 0 01-7.777 21.239z" fill="#E07275"/><path d="M84.156 96.586a4.921 4.921 0 10-6.96 0 5.04 5.04 0 006.96 0zm-4.473-4.475a1.406 1.406 0 11-.41.994c0-.373.149-.73.413-.994h-.003z" fill="#E07275"/><path d="M98.528 60.48a34.067 34.067 0 00-67.515 0 1.772 1.772 0 00-.013.192v7.66a4.196 4.196 0 001.236 2.984l2.081 2.08a14.55 14.55 0 008.698 21.214 4.23 4.23 0 005.387-4.064V70.594a4.23 4.23 0 00-5.387-4.064 14.524 14.524 0 00-7.058 4.528l-1.731-1.732a1.394 1.394 0 01-.413-.996v-6.252h7.124a1.407 1.407 0 001.383-1.15 22.832 22.832 0 0144.9 0 1.406 1.406 0 001.383 1.15h7.124v6.254a1.407 1.407 0 01-.412.995l-1.737 1.731a14.518 14.518 0 00-7.058-4.528 4.23 4.23 0 00-5.387 4.064v19.952a4.23 4.23 0 005.387 4.064 14.555 14.555 0 008.703-21.216l2.082-2.081a4.187 4.187 0 001.234-2.983v-7.658c0-.064-.004-.128-.01-.191zm-54.747 8.757a1.418 1.418 0 011.809 1.357v19.952a1.419 1.419 0 01-1.809 1.357 11.782 11.782 0 010-22.666zm45.964-9.971a25.643 25.643 0 00-49.95 0h-5.736a31.255 31.255 0 0161.423 0h-5.737zm-3.987 32.639a1.418 1.418 0 01-1.808-1.357V70.594a1.419 1.419 0 011.808-1.357 11.782 11.782 0 010 22.666v.002z" fill="#0B0B0B"/></g><defs><clipPath id="clip0"><path fill="#fff" transform="translate(31 31)" d="M0 0h90v90H0z"/></clipPath><filter id="filter0_d" x="0" y="0" width="152" height="152" filterUnits="userSpaceOnUse" color-interpolation-filters="sRGB"><feFlood flood-opacity="0" result="BackgroundImageFix"/><feColorMatrix in="SourceAlpha" values="0 0 0 0 0 0 0 0 0 0 0 0 0 0 0 0 0 0 127 0"/><feMorphology radius="2" operator="dilate" in="SourceAlpha" result="effect1_dropShadow"/><feOffset/><feGaussianBlur stdDeviation="2"/><feColorMatrix values="0 0 0 0 0.441667 0 0 0 0 0.185868 0 0 0 0 0.193282 0 0 0 0.25 0"/><feBlend in2="BackgroundImageFix" result="effect1_dropShadow"/><feBlend in="SourceGraphic" in2="effect1_dropShadow" result="shape"/></filter></defs></svg>