<svg width="200" height="46" fill="none" xmlns="http://www.w3.org/2000/svg"><path d="M194.544 9.95v17.075h-4.987V9.949h-5.487V5.477H200v4.472h-5.456zm-25.558 4.69v12.385H164V5.477h4.485l3.606 5.223 4.735 7.162h.094V5.477h4.955v21.548h-4.453l-4.453-6.568-3.826-5.817h-.157zm-22.892-9.163h15.083v4.441H151.08v4.034h8.623v4.41h-8.623v4.253h10.097v4.41h-15.083V5.477zM134.616 19.77l2.196-7.788 1.881-6.505h5.205l-6.867 21.548h-5.112l-6.93-21.548h5.331l1.945 6.63 2.163 7.662h.188zm-26.26-14.293h14.908v4.441h-10.097v4.034h8.624v4.41h-8.624v4.253h10.097v4.41h-14.908a18.333 18.333 0 003.481-10.774c0-4.022-1.29-7.743-3.481-10.774zm-44.132 0H78.32a18.392 18.392 0 00-2.362 4.441H69.21v4.034h5.772a18.592 18.592 0 00-.022 4.41h-5.75v4.253h6.76a18.37 18.37 0 002.35 4.41H64.225V5.477zm-7.747 11.509l-2.038 3.878-1.882 3.284h-3.543l-1.913-3.41-1.944-3.72h-.126v10.007h-4.986V5.477h4.578l3.575 7.005 2.54 5.13h.189l2.634-5.317 3.418-6.818h4.578v21.548h-4.986v-10.04h-.094zm-25.244 5.786h-6.961l-1.286 4.253h-5.362l7.62-21.548h5.143l7.494 21.548h-5.33l-1.318-4.253zm-5.707-4.066h4.453l-.439-1.47-1.725-5.942h-.125l-1.725 5.942-.439 1.47zm-9.753 5.348a7.074 7.074 0 01-1.646 1.517 9.973 9.973 0 01-1.897.984 9.64 9.64 0 01-1.944.532c-.648.105-1.255.157-1.82.157a11.39 11.39 0 01-2.978-.407 8.796 8.796 0 01-2.728-1.25 6.745 6.745 0 01-1.992-2.143C.256 22.579 0 21.552 0 20.364v-8.038c0-1.189.246-2.22.737-3.096a6.913 6.913 0 011.944-2.205 8.54 8.54 0 012.713-1.33 10.94 10.94 0 013.073-.437c1.275 0 2.556.183 3.841.547 1.286.365 2.357.923 3.215 1.674l-2.415 3.846c-.71-.605-1.469-1.006-2.274-1.204a9.431 9.431 0 00-2.241-.297c-.419 0-.837.062-1.255.188a3.772 3.772 0 00-1.16.578c-.356.26-.643.605-.863 1.032-.22.428-.329.954-.329 1.58V19.3c0 .625.105 1.152.314 1.58.209.427.48.77.815 1.032.334.26.706.453 1.113.578.408.125.82.188 1.239.188.376 0 .768-.052 1.176-.157a2.937 2.937 0 001.144-.594v-2.909H7.808v-4.19h7.965v9.226z" fill="#000"/><path fill-rule="evenodd" clip-rule="evenodd" d="M93.338 0c1.83 0 3.589.3 5.23.855L79.844 17.507l1.118 4.753 12.67-.036-2.414 10.14c-7.997-1.035-14.174-7.854-14.174-16.113C77.044 7.276 84.339 0 93.338 0zm9.759 3.235c3.968 2.964 6.536 7.69 6.536 13.016 0 7.864-5.601 14.423-13.042 15.926l2.24-9.967 2.311-.007.9-4.758-2.14.006 3.195-14.216zm-6.186 5.217l-10.057 9.036 7.911-.022 2.146-9.014z" fill="#E31E24"/><path d="M5.515 39.455L3.2 43.746c-.223.413-.49.725-.804.937a1.788 1.788 0 01-1.021.318c-.285 0-.58-.062-.886-.186l.303-.953c.218.067.4.1.544.1a.793.793 0 00.42-.112c.124-.075.238-.192.341-.352l.047-.062L0 39.455h1.344l1.444 2.912 1.492-2.912h1.235zm5.545 5.422l-.008-3.246-1.6 2.673h-.559l-1.6-2.61v3.183h-1.18v-5.422h1.04l2.035 3.37 2.004-3.37h1.04l.009 5.422h-1.18zm7.518-5.422v5.422H17.32v-2.223h-2.47v2.223h-1.258v-5.422h1.258v2.138h2.47v-2.138h1.258zm3.993 1.781c.663 0 1.171.147 1.526.442.354.294.532.73.532 1.309 0 .614-.196 1.083-.587 1.406-.39.322-.94.484-1.65.484h-2.454v-5.422h1.25v1.781h1.383zm-.249 2.711c.326 0 .581-.08.765-.24.184-.16.276-.392.276-.697 0-.563-.347-.844-1.04-.844h-1.135v1.781h1.134zm2.998-4.492h1.25v5.422h-1.25v-5.422zm2.602 0h1.25v3.532l2.595-3.532h1.18v5.422h-1.242v-3.525l-2.594 3.525h-1.189v-5.422zm2.509-.349c-.994 0-1.496-.395-1.507-1.185h.862c.01.377.226.565.645.565.207 0 .365-.048.474-.143.109-.096.165-.236.17-.422h.863c-.005.387-.132.682-.38.883-.25.201-.625.302-1.127.302zm8.637 5.864c-.554 0-1.055-.12-1.503-.36a2.69 2.69 0 01-1.056-1 2.745 2.745 0 01-.385-1.444c0-.537.128-1.02.385-1.445a2.69 2.69 0 011.056-1c.448-.24.951-.36 1.51-.36.472 0 .898.083 1.278.248.381.166.7.403.96.713l-.808.744c-.368-.424-.823-.636-1.367-.636a1.82 1.82 0 00-.901.221c-.264.148-.47.353-.618.616a1.81 1.81 0 00-.22.899c0 .336.073.635.22.898.148.263.354.469.618.616.264.147.564.22.9.22.545 0 1-.213 1.368-.642l.807.743a2.52 2.52 0 01-.962.72 3.21 3.21 0 01-1.282.249zm7.277-1.1v1.007h-4.21v-5.422h4.11v1.007h-2.859v1.177h2.525v.976h-2.525v1.255h2.96zm3.372-4.415c.481 0 .9.08 1.254.24.355.16.628.387.82.681.19.295.287.643.287 1.046 0 .398-.096.745-.287 1.042a1.83 1.83 0 01-.82.681c-.355.158-.773.237-1.254.237H48.62v1.495h-1.258v-5.422h2.354zm-.07 2.904c.378 0 .665-.08.862-.244.197-.162.295-.394.295-.693 0-.305-.098-.538-.295-.7-.197-.164-.484-.245-.862-.245H48.62v1.882h1.026zm5.91 2.61c-.554 0-1.054-.12-1.503-.36a2.694 2.694 0 01-1.44-2.443 2.697 2.697 0 011.44-2.445 3.15 3.15 0 011.51-.36c.472 0 .898.083 1.279.248.38.166.7.403.959.713l-.808.744c-.367-.424-.823-.636-1.367-.636-.336 0-.637.074-.9.221-.265.148-.47.353-.618.616a1.812 1.812 0 00-.221.899c0 .336.073.635.22.898.148.263.354.469.619.616.263.147.564.22.9.22.544 0 1-.213 1.367-.642l.808.743a2.52 2.52 0 01-.963.72 3.19 3.19 0 01-1.282.249zm3.068-5.514h1.25v3.532l2.595-3.532h1.18v5.422h-1.242v-3.525l-2.595 3.525h-1.188v-5.422zm8.948 5.515c-.554 0-1.055-.12-1.503-.36a2.692 2.692 0 01-1.44-2.444 2.693 2.693 0 011.44-2.444c.448-.24.951-.36 1.51-.36.472 0 .898.082 1.278.247.381.166.7.403.96.713l-.808.744c-.368-.424-.823-.636-1.367-.636a1.82 1.82 0 00-.901.221c-.264.148-.47.353-.618.616a1.81 1.81 0 00-.22.899c0 .336.073.635.22.898.148.263.354.469.618.616.264.147.564.22.9.22.545 0 1-.213 1.368-.642l.807.743a2.52 2.52 0 01-.962.72 3.21 3.21 0 01-1.282.249zm10.221-5.515v5.422h-1.25v-4.4h-2.455v4.4h-1.25v-5.422h4.955zm3.946 5.515a3.178 3.178 0 01-1.526-.364 2.707 2.707 0 01-1.064-1.003 2.73 2.73 0 01-.385-1.437 2.7 2.7 0 011.449-2.44 3.18 3.18 0 011.526-.364c.564 0 1.072.12 1.522.364a2.71 2.71 0 011.452 2.44 2.712 2.712 0 01-1.452 2.44c-.45.242-.958.364-1.522.364zm0-1.07c.32 0 .61-.073.87-.22.259-.147.462-.353.61-.616a1.81 1.81 0 00.22-.898c0-.336-.073-.635-.22-.899a1.589 1.589 0 00-.61-.616 1.729 1.729 0 00-.87-.22c-.321 0-.61.073-.87.22a1.59 1.59 0 00-.61.616 1.813 1.813 0 00-.221.899c0 .336.074.635.221.898.148.263.351.469.61.616.26.147.549.22.87.22zm13.297-4.445v5.422h-1.25v-4.4h-2.455v4.4h-1.25v-5.422h4.955zm3.946 5.515a3.178 3.178 0 01-1.526-.364 2.707 2.707 0 01-1.064-1.003 2.73 2.73 0 01-.385-1.437 2.7 2.7 0 011.449-2.44 3.18 3.18 0 011.526-.364c.564 0 1.072.12 1.522.364a2.71 2.71 0 011.452 2.44 2.71 2.71 0 01-1.452 2.44c-.45.242-.958.364-1.522.364zm0-1.07c.32 0 .61-.073.87-.22a1.58 1.58 0 00.609-.616c.148-.263.222-.563.222-.898 0-.336-.074-.635-.222-.899a1.58 1.58 0 00-.61-.616 1.73 1.73 0 00-.87-.22c-.32 0-.61.073-.87.22a1.59 1.59 0 00-.61.616 1.81 1.81 0 00-.22.899c0 .336.074.635.22.898.149.263.352.469.61.616.26.147.55.22.87.22zm9.398-.046V46h-1.165v-1.123h-3.837V46h-1.165l.008-2.146h.217c.326-.01.557-.247.691-.712.135-.465.218-1.129.249-1.991l.062-1.696h4.179v4.4h.761zm-3.891-2.587a11.467 11.467 0 01-.164 1.623c-.083.437-.209.758-.38.964h2.431v-3.377h-1.864l-.023.79zm4.737-1.812h4.389v.999h-3.138v1.115h1.507c.657 0 1.158.137 1.502.41.345.274.517.67.517 1.186 0 .542-.191.963-.575 1.263-.383.299-.924.449-1.623.449h-2.579v-5.422zm2.509 4.492c.321 0 .567-.063.738-.19.171-.126.256-.31.256-.553 0-.475-.331-.713-.994-.713h-1.258v1.456h1.258zm5.818 1.023a3.173 3.173 0 01-1.526-.364 2.708 2.708 0 01-1.065-1.003 2.735 2.735 0 01-.384-1.437c0-.532.128-1.011.384-1.437a2.71 2.71 0 011.065-1.003 3.175 3.175 0 011.526-.364 3.16 3.16 0 011.522.364 2.71 2.71 0 011.452 2.44 2.71 2.71 0 01-1.452 2.44 3.157 3.157 0 01-1.522.364zm0-1.07c.321 0 .611-.073.87-.22.258-.147.462-.353.609-.616.148-.263.222-.563.222-.898 0-.336-.074-.635-.222-.899a1.589 1.589 0 00-.609-.616 1.73 1.73 0 00-.87-.22 1.73 1.73 0 00-.87.22 1.585 1.585 0 00-.61.616 1.814 1.814 0 00-.221.899c0 .336.074.635.221.898.147.263.351.469.61.616.259.147.549.22.87.22zm6.299-4.445c.481 0 .9.08 1.254.24.355.16.628.387.82.681.191.295.287.643.287 1.046 0 .398-.096.745-.287 1.042a1.83 1.83 0 01-.82.681c-.354.158-.773.237-1.254.237h-1.096v1.495h-1.258v-5.422h2.354zm-.07 2.904c.378 0 .665-.08.862-.244.197-.162.295-.394.295-.693 0-.305-.098-.538-.295-.7-.197-.164-.484-.245-.862-.245h-1.026v1.882h1.026zm8.054-2.904l-2.315 4.291c-.222.413-.49.725-.803.937a1.79 1.79 0 01-1.022.318 2.35 2.35 0 01-.885-.186l.303-.953c.217.067.399.1.544.1a.793.793 0 00.419-.112 1.1 1.1 0 00.342-.352l.046-.062-2.144-3.981h1.344l1.445 2.912 1.491-2.912h1.235zm7.068 1.022h-1.74v4.4h-1.243v-4.4h-1.731v-1.022h4.714v1.022zm.792-1.022h1.251v3.532l2.594-3.532h1.181v5.422h-1.243v-3.525l-2.595 3.525h-1.188v-5.422zm11.325 5.422l-.008-3.246-1.6 2.673h-.559l-1.601-2.61v3.183h-1.18v-5.422h1.041l2.035 3.37 2.004-3.37h1.04l.008 5.422h-1.18zm2.531-5.422h4.389v.999h-3.138v1.115h1.507c.657 0 1.158.137 1.503.41.344.274.516.67.516 1.186 0 .542-.191.963-.575 1.263-.383.299-.924.449-1.623.449h-2.579v-5.422zm2.509 4.492c.321 0 .567-.063.738-.19.171-.126.256-.31.256-.553 0-.475-.331-.713-.994-.713h-1.258v1.456h1.258zm3.224-4.492h1.25v3.532l2.594-3.532h1.181v5.422h-1.243v-3.525l-2.594 3.525h-1.188v-5.422zm11.184 0v5.422h-1.243v-4.4h-1.864l-.039 1.131c-.026.77-.088 1.393-.186 1.87-.098.478-.263.845-.493 1.1-.231.256-.553.384-.967.384-.171 0-.378-.029-.622-.085l.078-1.061a.79.79 0 00.225.03c.301 0 .51-.176.63-.53.119-.354.194-.908.225-1.661l.077-2.2h4.179zm6.928 4.4V46h-1.165v-1.123h-3.837V46h-1.165l.008-2.146h.217c.327-.01.557-.247.692-.712.134-.465.217-1.129.248-1.991l.062-1.696h4.179v4.4h.761zm-3.891-2.588a11.484 11.484 0 01-.163 1.623c-.083.437-.21.758-.381.964h2.431v-3.377h-1.864l-.023.79zm4.738-1.812h1.25v3.532l2.595-3.532h1.18v5.422h-1.243v-3.525l-2.594 3.525h-1.188v-5.422zm11.363 0v5.422h-1.258v-2.223h-2.471v2.223h-1.258v-5.422h1.258v2.138h2.471v-2.138h1.258zm5.188 1.022h-2.586l.007 4.4h-1.25v-5.422h3.837l-.008 1.022zm3.402 3.238h-2.524l-.482 1.162h-1.289l2.423-5.422h1.243L200 44.877h-1.32l-.482-1.162zm-.396-.953l-.862-2.076-.862 2.076h1.724z" fill="#000"/></svg>