<svg width="115" height="116" fill="none" xmlns="http://www.w3.org/2000/svg"><rect x="63.636" y=".182" width="20.735" height="16.877" rx="4" transform="rotate(15 63.636 .182)" fill="#882F3F"/><rect x="103.182" y="20.917" width="20.735" height="16.877" rx="4" transform="rotate(62.58 103.182 20.917)" fill="#882F3F"/><rect x="114.935" y="64.098" width="20.735" height="16.877" rx="4" transform="rotate(104.139 114.935 64.098)" fill="#882F3F"/><rect x="93.275" y="102.748" width="20.735" height="16.877" rx="4" transform="rotate(151.312 93.275 102.748)" fill="#882F3F"/><rect x="50.641" y="115.465" width="20.735" height="16.877" rx="4" transform="rotate(-162.936 50.641 115.465)" fill="#882F3F"/><rect x="12.671" y="93.463" width="20.735" height="16.877" rx="4" transform="rotate(-118.268 12.67 93.463)" fill="#882F3F"/><rect x=".269" y="51.636" width="20.735" height="16.877" rx="4" transform="rotate(-75.375 .269 51.636)" fill="#882F3F"/><rect x="21.175" y="10.912" width="20.735" height="16.877" rx="4" transform="rotate(-28.099 21.175 10.912)" fill="#882F3F"/><path fill-rule="evenodd" clip-rule="evenodd" d="M57.581 107.713c27.297 0 49.426-22.129 49.426-49.425 0-27.297-22.129-49.426-49.426-49.426S8.157 30.991 8.157 58.287c0 27.297 22.129 49.426 49.425 49.426zm0-17.36c17.71 0 32.066-14.356 32.066-32.065 0-17.71-14.356-32.067-32.066-32.067S25.515 40.578 25.515 58.288 39.87 90.353 57.58 90.353z" fill="#882F3F"/><path fill-rule="evenodd" clip-rule="evenodd" d="M58.033 82.949c13.809 0 25.002-11.194 25.002-25.003 0-13.808-11.193-25.002-25.002-25.002-13.808 0-25.002 11.194-25.002 25.002 0 13.809 11.194 25.003 25.002 25.003zm0-6.035c10.475 0 18.968-8.492 18.968-18.968 0-10.475-8.493-18.967-18.968-18.967s-18.967 8.492-18.967 18.968c0 10.475 8.492 18.967 18.967 18.967z" fill="#882F3F"/></svg>