<svg width="318" height="320" fill="none" xmlns="http://www.w3.org/2000/svg"><path fill-rule="evenodd" clip-rule="evenodd" d="M240.686 293.549c9 2.572 54-3.5 54-14 0-8.641-12.531-11.864-18.082-13.292-1.193-.307-2.064-.531-2.418-.708-2-1-11.5-8.5 3.5-11.5s25.5-10 25.5-14.5l.001-.482c.017-4.266.031-7.536-12.501-8.018-13-.5-13-10-1.5-15 1.91-.83 3.889-1.647 5.857-2.459 9.88-4.077 19.477-8.037 18.643-13.041-1-6-9-7.5-14-6.5s-8.5-3-5-9 11-20 3.5-24.5-20 20-22 24.5-10 5.5-11.5 0-10.5-9-11 0c-.473 8.518.845 17.036 1.835 23.435l.165 1.065c1 6.5-6 13-10.5 6.5-1.44-2.08-2.368-4.16-3.194-6.011-1.754-3.932-3.046-6.829-7.806-6.489-7 .5-4 29-2 34s-1 14.5-12 9-18.5 9.5-8.5 25.5c.704.906 1.379 1.795 2.04 2.667 5.907 7.792 10.772 14.208 26.96 18.833zm48.676-110.204a.5.5 0 10-.724-.69c-8.476 8.9-15.689 19.154-21.769 29.833-1.711-3.172-2.575-6.979-2.945-10.651-.399-3.961-.217-7.724.073-10.281a.5.5 0 10-.994-.112c-.296 2.61-.481 6.447-.074 10.494.397 3.944 1.361 8.126 3.364 11.569-7.095 12.641-12.623 25.843-16.796 38.084-5.603-5.622-7.888-13.797-8.749-20.839-.761-6.229-.401-11.456-.281-13.187v-.001c.02-.29.033-.482.033-.564a.5.5 0 00-1 0c0 .055-.01.203-.027.435-.112 1.577-.5 7.029.283 13.438.887 7.26 3.287 15.902 9.385 21.77-3.485 10.368-5.995 20.013-7.662 28a126.446 126.446 0 01-10.636-8.711c-4.102-3.774-7.836-7.842-9.391-11.145a.499.499 0 10-.904.426c1.645 3.497 5.515 7.679 9.618 11.455a127.18 127.18 0 0011.092 9.05c-.781 3.851-1.361 7.293-1.754 10.215a.502.502 0 00.429.563.502.502 0 00.563-.429c.389-2.9.965-6.324 1.744-10.161 7.225-1.846 23.864-5.082 35.209-3.909a.499.499 0 10.102-.994c-11.286-1.168-27.604 1.946-35.087 3.815 1.664-7.967 4.172-17.596 7.656-27.948 11.92-5.157 27.571-11.37 39.88-11.37a.5.5 0 000-1c-12.259 0-27.66 6.021-39.447 11.094 4.158-12.146 9.651-25.218 16.683-37.724 4.097-2.236 10.788-5.433 17.692-7.835 3.488-1.214 7.02-2.221 10.294-2.8 3.28-.581 6.267-.727 8.68-.245a.5.5 0 10.196-.98c-2.587-.518-5.714-.351-9.051.24-3.343.592-6.928 1.616-10.447 2.84-6.225 2.166-12.27 4.968-16.437 7.151 5.959-10.357 12.987-20.273 21.199-28.896z" fill="#CF474B"/><path d="M168.1 284.124c0 7.828 33.306 12.354 39.968 10.437 13.322-3.834 16.283-9.319 21.464-16.028 7.401-11.928 1.85-23.111-6.291-19.01-8.142 4.1-10.362-2.982-8.882-6.71 1.48-3.727 3.701-24.974-1.48-25.347-5.181-.373-4.811 4.473-8.142 9.319-3.331 4.846-8.511 0-7.771-4.846.74-4.846 1.85-11.555 1.48-18.265-.37-6.709-7.031-4.1-8.142 0-1.11 4.101-7.031 3.355-8.511 0-1.481-3.355-10.732-21.619-16.283-18.265-5.551 3.355 0 13.792 2.59 18.265 2.591 4.473 0 7.455-3.701 6.71-3.7-.746-9.621.373-10.362 4.846-.74 4.473 9.622 7.827 18.134 11.555 8.512 3.727 8.512 10.81-1.11 11.182-9.622.373-9.252 2.982-9.252 6.337 0 3.355 7.771 8.573 18.874 10.81 11.102 2.236 4.07 7.828 2.59 8.573-1.48.746-15.173 2.609-15.173 10.437z" fill="#DF5A5E"/><path d="M1.007 298.204c12.8 18.4 111.667 16.667 159.5 13.5 65.5 15.5 153.5 3.5 156.5-8s-76.5-20.5-120-13.5c-32.5-14.5-212-15-196 8z" fill="#CA4246"/><path d="M74.846 243.231c.431-2.155 7.329-21.985 7.76-23.278 7.759-4.167 23.019-12.674 23.709-11.639.862 1.293.862 5.173.862 7.328 0 2.156-14.25 27.589-15.95 30.607-1.748 2.499-1.317 5.086-.862 8.19.734 2.931 3.736 30.319 5.173 44.401-4.31-.862-13.191-3.104-14.226-5.173-1.293-2.587-8.214-46.212-6.466-50.436z" fill="#21399D"/><path d="M76.978 161.671l-1.293-3.448c.345-5.173 5.029-5.604 7.328-5.173.575 1.437 2.328 4.828 1.293 5.173-1.034.345-5.604 2.299-7.328 3.448z" fill="#CA9797"/><path d="M73.96 164.689c0 .689-.718 9.052-.862 13.363 0 6.753 1.294 21.295 1.294 23.709 0 3.018 3.448 16.381 7.759 18.967 4.31 2.587 17.243-2.155 22.847-7.328 5.604-5.173 3.449-15.519 1.293-18.105-2.155-2.587-5.428-12.317-5.859-15.766-.431-3.448-6.818-13.3-9.66-15.272-3.193-2.77-2.586-1.293-4.741-5.172 0-1.294-.431-3.141-2.156-2.156-6.035 3.449-9.915 6.897-9.915 7.76zm5.604 130.615c-3.793-.689-5.46 4.886-5.603 7.329h22.415c.431-1.294 0-3.018-.862-3.018-3.017 0-11.208-3.448-15.95-4.311zm43.108 4.742h-21.985c-.69-4.138 4.024-6.61 6.466-7.328 4.311 1.149 13.277 1.897 14.657 2.586 1.379.69 1.149 4.024.862 4.742z" fill="#3C1729"/><path d="M83.013 153.912c-1.293.431-4.542.431-6.41.862-1.581-3.449-3.85-12.07-5.229-13.795-1.724-2.155-3.393-11.207-1.238-12.501 2.156-1.293 6.466 0 11.208 4.311s9.98 11.711 8.48 14.711c-1 3.5-5.086 5.55-6.81 6.412zm-24.085 3.448c-.69-1.034-1.78.144-2.21.863-.719 1.868-2.014 6.379-1.67 9.483.432 3.88 18.106 12.932 17.675 12.932-.345 0-2.73 5.461-3.88 8.191-1.15 3.161-3.88 9.57-5.604 9.915-2.155.431-3.448 2.155-3.88 4.31-.43 2.156 3.88 4.742 6.898 6.898 3.017 2.155 6.466-5.604 6.897-5.604.431 0 9.915-12.502 15.088-18.106 5.173-5.604 5.173-9.914 4.742-13.363-.432-3.449-4.742-4.311-7.76-4.311-3.017 0-10.777 8.622-10.777 6.898 0-1.725 1.293-8.191.431-10.777-.862-2.587-7.328-1.725-9.483-2.156-2.156-.431-5.604-3.879-6.466-5.173z" fill="#280C1A"/><path d="M107.057 218.146c-.69 1.724-5.173 11.926-7.329 16.812-2.642 4.311-2.21 3.879-4.797 8.621 1.724 2.759 12.126 32.762 12.126 50.005 6.466 1.724 8.19 2.586 14.656 2.586 1.293-17.674-9.052-53.453-10.346-55.608-1.293-2.156-3.448-24.572-4.31-22.416z" fill="#161D44"/><path d="M67.925 158.654c-3.448-5.863.72-14.082 3.45-17.674 5.172-2.156 6.896 1.292 7.758 3.017.863 1.724-.43 4.742-1.724 6.466-1.293 1.725 0 3.449 0 3.018v-.001c.432-.431 1.294-1.292 2.587-1.292 1.293 0 2.155 2.155 1.724 3.448-.862 1.724-2.587 1.724-3.88 1.724-1.868 2.874-7.76 3.449-9.915 1.294zm-11.207-.431c-.863 2.155-1.581 5.747-1.725 8.621-1.293 0-4.742-5.173-5.604-6.466-.862-1.293-6.466-9.053-12.07-13.794-5.603-4.742-4.31-8.191-3.88-10.346.431-2.156 2.156-2.156 2.587-1.294.647 1.294 3.018 5.604 4.31 6.036 1.294.431 1.294 0 .863-2.156-.345-1.724.144-1.868.43-1.724.576 1.149 1.639 3.793 1.294 5.173-.431 1.724.862 3.448 1.724 4.311.863.862 8.622 6.035 12.07 11.639zm-21.123 65.954c1.034.345 2.011-.431 2.155-.862-1.293-.862-1.293-5.173 2.587-4.742 4.31 1.293 5.172.431 6.897-.862 2.155-.539 10.346-2.586 18.967-7.759-1.724-1.294-3.88-2.587-6.035-4.742-5.604 4.742-14.656 10.346-18.536 9.915-3.88-.432-6.035 2.155-6.897 3.879-.862 1.293-.431 4.742.862 5.173z" fill="#EDB6B6"/><path d="M125.347 71.034c-1.724-3.104 0-30.175 2.156-40.952 3.017 3.88 5.862 16.898 6.896 18.967 1.035 2.07-1.005 17.53-2.155 25.003-1.58.287-5.172.086-6.897-3.018z" fill="#fff"/><path d="M143.883 8.528c-1.732 2.727-4.158 3.018-5.595 3.018-3.592.718-11.122 2.5-12.501 3.88-1.725 1.724-3.018 6.466-3.018 3.448 0-3.018-1.733-3.449-2.164-9.484.431-7.328 2.587-9.483 7.76-9.053 7.328.863 21.545-1.293 15.518 8.191zM134.4 62.844v-8.19c3.161-3.018 10.001-9.14 13.794-7.76 4.742 1.724 20.261 31.9 19.83 32.33-.431.431-5.604 9.053-5.604 10.777 0 1.38-.575 26.152-.863 38.366-3.448 1.293-8.621 3.449-10.776 3.449-.863-5.173-2.156-31.038-.863-37.504-.862.862-17.674 2.587-31.899.431.426-6.823 8.868-19.13 8.632-19.394-.018-.003-.022-.004-.011-.004.005 0 .009.001.011.004.675.104 21.044 2.015 18.526-3.022-2.069-4.138-4.598-4.023-5.604-3.448-.429 0-1.459-.345-2.156-1.725-.87-1.724-3.017-3.017-3.017-4.31z" fill="#280C1A"/><path d="M121.468 22.754l3.017-6.035c0 1.293 6.466 4.31 4.742 7.759-1.724 3.448-1.293 8.19-2.155 8.19-.69 0-4.024-6.61-5.604-9.914zm15.949 43.969c-1.379-.345-3.448 3.88-4.31 6.035.431.431 9.052 2.587 11.639 3.018 2.586.431 8.19 5.604 8.19 2.586 0-3.017-6.466-5.604-8.813-5.604-2.347 0-4.981-5.604-6.706-6.035z" fill="#CA9797"/><path d="M132.123 33.962c0-.69-2.465-5.03-3.758-6.898-.431 1.294-.862 4.311-1.293 5.604.689.345 2.751 4.311 3.326 6.466.719-1.437 1.725-4.483 1.725-5.172z" fill="#132579"/><path d="M126.519 70.603c1.034-.69 1.293-24.715 1.293-36.641l-2.896 3.88c-1.724-3.45-4.863-5.605-7.449-10.347-6.035 0-10.346 7.76-11.208 10.346-1.294 3.88-2.156 10.346-2.156 13.364 0 3.017-1.293 15.518-2.155 18.967-.861 6.897.287 15.519.862 21.554 5.605.862 9.054 3.017 13.794 4.31.864-6.466 8.622-24.571 9.915-25.433z" fill="#132579"/><path d="M128.476 33.204c-.69 0-4.311-6.898-6.035-10.346-2.156-.862-3.88 3.88-4.742 4.742-.862.862 6.035 11.639 7.328 11.208 1.293-.431 4.311-5.604 3.449-5.604zm3.341 2.051c-.431 1.293-.862 2.586-1.293 3.448 2.583 9.053 1.289 26.296-.435 32.762 1.724.862 3.99 2.26 3.99 1.398 0-.69 2.874-4.024 4.311-5.604-.969-1.398-.969-1.398-2.262-3.984.862-7.329-4.175-28.43-4.311-28.02zm-10.67 32.004c-1.724.344-8.587 3.057-11.318 4.637-4.741 1.293-3.017-5.604-1.724-7.328 0-3.88.11-8.517.11-19.294 0-10.777 3.88-12.07 6.467-12.07 2.586 0 4.286 2.411 5.604 6.035 1.724 4.742 1.723 14.225.861 15.519-.861 2.586-2.155 6.034-.43 7.328 1.724 1.293 2.586 4.742.43 5.173z" fill="#21399D"/><path d="M131.894 77.697l3.449-2.918a.998.998 0 01.803-.224l20.569 3.291c.332.053.668-.064.896-.312l13.425-14.646a.618.618 0 01.924.821l-15.236 17.708a1.001 1.001 0 01-.856.343l-23.426-2.304c-.88-.087-1.223-1.188-.548-1.759z" fill="#B6CDFF"/><path d="M123.192 11.546c-.69 1.38.287 3.017.862 3.88 0 7.758 4.311 9.052 6.466 9.483 2.047.409 8.19-5.173 7.759-14.226-.862-6.035-10.777-3.017-11.207 2.156 0-3.449-3.018-3.018-3.88-1.293zm-2.156 55.608c-2.586 0-9.052 2.73-11.208 4.742 3.018 4.742 18.106 5.173 20.692 5.173 3.018 0 6.897-.431 7.759 0 .862.431 8.622 3.88 8.622 1.293-.431-3.448-8.622-5.604-11.208-5.173-2.587.432-10.777-5.172-14.657-6.035zm39.228 61.644l-7.328 2.587v.862l6.897 1.293.431-4.742z" fill="#EDB6B6"/><path d="M168.021 79.225s-5.604 8.621-5.604 10.345c4.024-1.868 11.613-5.259 13.682-7.328 2.07-2.069.863-2.586 0-2.586l-8.078-.431zm-.974 61.212c-3.02-6.466-8.941-8.621-13.251-8.621-3.02 0-3.877 4.311-3.015 5.604 2.586 2.586 10.774 3.879 11.953 4.742 2.156.862 5.604 2.155 4.313-1.725z" fill="#384FB7"/><path d="M189.066 296.729c-1.724-17.243 1.293-33.336 3.018-39.228 2.299-.143 7.415-.345 9.484 0 2.586.431.862 9.053-1.293 12.07-2.156 3.018-4.311 22.416-4.742 24.572-.345 1.724 1.724 2.586 4.311 3.879-2.156 2.156-7.76.862-10.778-1.293zm12.933-149.152c.144-2.012.345-7.877 0-7.877 1.379 0 3.736 3.279 4.742 3.997 0 2.012-.086 5.863-.431 5.173-.345-.689-3.018-1.149-4.311-1.293zm30.718-30.21l-4-2.5c0-6.466 3.888-12.984 6.044-8.242 1.724 3.793-.607 9.017-2.044 10.742z" fill="#CA9797"/><path d="M209.452 142.835c4.139-2.759.862-12.07-1.293-16.381-3.448-3.88-7.759 2.155-8.621 3.88-.863 1.724 1.599 6.897 1.599 7.328 0 .431 3.142 8.622 8.315 5.173zm34.792-27.589c-2.759 0-4.885 5.173-5.604 7.76.862 1.149 0 0 3.88 3.017 3.018-3.017 3.88-5.173 3.88-7.328 0-1.339.603-3.449-2.156-3.449zm-39.965 182.776c-1.724-2.759-3.018-26.152-3.449-37.504-.862-3.879 12.377-6.466 12.377-3.879 0 2.586-2.462 20.26-3.324 28.451-.862 8.19 0 10.777.862 12.07.862 1.293 6.466 2.155 4.742 2.586-1.724.431-9.053 1.725-11.208-1.724z" fill="#EDB6B6"/><path d="M194.146 188.96c2.155-1.724 0-15.375-.862-22.847 1.868-6.322 6.121-18.967 8.19-18.967 2.069 0 5.243 1.221 5.743 2.721.5.5 2.016 4.176 2.879 4.176l15.087-10.346c6.991-7.759 11.208-16.812 12.932-23.278l5.173 6.466c-.431.862-.862 1.725-2.404 2.587-.061.398-.984 3.415-1.044 3.879-2.156 7.76-8.646 21.985-20.692 30.607.431 3.448 2.587 25.864-1.724 31.037-4.311 5.173-17.674 1.293-21.554.862-3.88-.431-4.311-4.828-1.724-6.897z" fill="#B6CDFF"/><path d="M214.165 197.007c.431-3.018-2.08-17.525-3.948-25.14 3.879-3.449 4.258-3.69 9-8 1.293 14.225 2.708 32.278-5.052 33.14zm-6.948-47.14c.432 1.293 1.206 4.137 2.5 5 4.023-3.162 13.086-9.966 15.5-11 3.5-4.5 2-2.5 3.5-4.5 2-2 2.164-12.913 2.164-18.823 1.724-.125 2.587-2.28 2.587-2.711 0-.431-3.88-3.195-5.455-3.449 0 1.724-7.047 24.14-9.633 25.434-2.587 1.293-9.87 8.755-11.163 10.049z" fill="#9BB6F2"/><path d="M200.706 120.85c6.552 0 7.76 4.742 8.191 7.329-.863 0-1.725-1.294-2.156-1.725 0 2.156-2.587 8.622-4.311 9.484-1.379.69.719 5.46 1.293 8.19 2.299 6.754.862 18.968-10.345 22.416-11.208 1.246-14.226-5.604-15.949-10.345-1.567-4.311 1.292-12.502 6.466-11.64 7.328 2.156 7.328-1.293 7.328-3.017s-.484-5.173-.862-8.19c-.432-3.449 2.154-12.502 10.345-12.502zm14.011 76.017c-2.759 1.034-13.471-.138-18.5-1-.73.608-1.756 1.594-2.374 2.341-10.338 12.485-5.641 43.337-4.013 59.606 3.018 3.88 20.37 3.501 23.387.053 2.5-4 3.655-52.81 1.5-61zm-26.081 105.035c-.431-2.155-.288-4.023.431-5.173 4.138 2.759 9.051 2.012 10.775 1.293l-.86-.431c1.727.313 3.021.745 4.309 1.607.431-.862.436-1.176.802-1.607 3.018 3.449 10.407 2.156 11.701 1.725 1.724.431 2.589.744 3.883 2.037-2.156 2.705-4.742 3.082-10.782 2.705-5.421-.339-5.604-1.294-5.604-2.156-2.585 1.724-13.621 1.724-14.655 0z" fill="#280C1A"/><path fill-rule="evenodd" clip-rule="evenodd" d="M58.695 312.956c1.852-6.284 1.14-13.355-5.93-13.355-1.755 0-3.08 3.568-3.545 5.324-.522-3.278-7.544-14.501-12.351-12.738-4.176 1.53-.95 9.566 1.186 13.393-2.847-3.907-9.11-12.198-14.235-9.328-4.78 6.301 10.668 12.459 10.581 12.686-.025.066-1.362-.368-4.887-1.445-4.456-1.361-7.303-.963-8.887.114 8.812 2.976 22.696 4.596 38.068 5.349z" fill="#DF5A5E"/></svg>