<svg width="206" height="207" fill="none" xmlns="http://www.w3.org/2000/svg"><rect x="113.964" y=".175" width="37.072" height="30.175" rx="6" transform="rotate(15 113.964 .175)" fill="#EAA1A1"/><rect x="184.669" y="37.248" width="37.072" height="30.175" rx="6" transform="rotate(62.58 184.669 37.248)" fill="#EAA1A1"/><rect x="205.684" y="114.453" width="37.072" height="30.175" rx="6" transform="rotate(104.139 205.684 114.453)" fill="#EAA1A1"/><rect x="166.956" y="183.558" width="37.072" height="30.175" rx="6" transform="rotate(151.312 166.956 183.558)" fill="#EAA1A1"/><rect x="90.728" y="206.296" width="37.072" height="30.175" rx="6" transform="rotate(-162.936 90.728 206.296)" fill="#EAA1A1"/><rect x="22.839" y="166.956" width="37.072" height="30.175" rx="6" transform="rotate(-118.268 22.84 166.956)" fill="#EAA1A1"/><rect x=".666" y="92.172" width="37.072" height="30.175" rx="6" transform="rotate(-75.375 .666 92.172)" fill="#EAA1A1"/><rect x="38.044" y="19.36" width="37.072" height="30.175" rx="6" transform="rotate(-28.099 38.044 19.36)" fill="#EAA1A1"/><path fill-rule="evenodd" clip-rule="evenodd" d="M103.137 192.435c48.805 0 88.37-39.565 88.37-88.371 0-48.805-39.565-88.37-88.37-88.37-48.806 0-88.37 39.565-88.37 88.37 0 48.806 39.564 88.371 88.37 88.371zm0-31.037c31.664 0 57.333-25.669 57.333-57.334 0-31.664-25.669-57.332-57.333-57.332-31.665 0-57.333 25.668-57.333 57.332 0 31.665 25.668 57.334 57.333 57.334z" fill="#EAA1A1"/></svg>