<svg width="187" height="187" fill="none" xmlns="http://www.w3.org/2000/svg"><rect x="131.191" y="34.617" width="24.944" height="20.303" rx="6" transform="rotate(41.997 131.191 34.617)" fill="#70354A"/><rect x="162.257" y="78.438" width="24.944" height="20.303" rx="6" transform="rotate(89.577 162.257 78.438)" fill="#70354A"/><rect x="151.275" y="131.143" width="24.944" height="20.303" rx="6" transform="rotate(131.135 151.275 131.143)" fill="#70354A"/><rect x="106.95" y="160.744" width="24.944" height="20.303" rx="6" transform="rotate(178.309 106.95 160.744)" fill="#70354A"/><rect x="54.305" y="151.094" width="24.944" height="20.303" rx="6" transform="rotate(-135.939 54.305 151.094)" fill="#70354A"/><rect x="25.621" y="106.774" width="24.944" height="20.303" rx="6" transform="rotate(-91.271 25.62 106.774)" fill="#70354A"/><rect x="35.168" y="55.166" width="24.944" height="20.303" rx="6" transform="rotate(-48.378 35.168 55.166)" fill="#70354A"/><rect x="79.815" y="22.93" width="24.944" height="20.303" rx="6" transform="rotate(-1.102 79.815 22.93)" fill="#70354A"/><path fill-rule="evenodd" clip-rule="evenodd" d="M65.978 146.573c29.26 14.907 65.064 3.271 79.971-25.989 14.906-29.26 3.271-65.064-25.989-79.97-29.26-14.907-65.065-3.272-79.971 25.988-14.907 29.26-3.271 65.065 25.989 79.971zm9.48-18.607c18.983 9.671 42.212 2.122 51.883-16.861 9.672-18.984 2.123-42.213-16.861-51.884C91.497 49.55 68.268 57.1 58.597 76.082c-9.672 18.984-2.123 42.213 16.86 51.884z" fill="#70354A"/><circle cx="93.423" cy="93.124" r="23.278" fill="#70354A"/></svg>