<svg width="108" height="109" fill="none" xmlns="http://www.w3.org/2000/svg"><rect x="47.076" y="10.925" width="15.817" height="12.874" rx="4" fill="#882F3F"/><rect x="80.308" y="18.395" width="15.817" height="12.874" rx="4" transform="rotate(47.58 80.308 18.395)" fill="#882F3F"/><rect x="97.493" y="47.891" width="15.817" height="12.874" rx="4" transform="rotate(89.138 97.493 47.89)" fill="#882F3F"/><rect x="89.164" y="80.646" width="15.817" height="12.874" rx="4" transform="rotate(136.312 89.164 80.646)" fill="#882F3F"/><rect x="60.261" y="98.433" width="15.817" height="12.874" rx="4" transform="rotate(-177.936 60.261 98.433)" fill="#882F3F"/><rect x="27.94" y="89.718" width="15.817" height="12.874" rx="4" transform="rotate(-133.268 27.94 89.718)" fill="#882F3F"/><rect x="10.544" y="61.347" width="15.817" height="12.874" rx="4" transform="rotate(-90.375 10.544 61.347)" fill="#882F3F"/><rect x="17.908" y="27.214" width="15.817" height="12.874" rx="4" transform="rotate(-43.099 17.908 27.214)" fill="#882F3F"/><path fill-rule="evenodd" clip-rule="evenodd" d="M63.844 91.351c20.113-5.39 32.049-26.063 26.66-46.176-5.39-20.113-26.063-32.048-46.176-26.66-20.113 5.39-32.049 26.064-26.66 46.177 5.39 20.113 26.063 32.048 46.176 26.66zm-3.427-12.79c13.049-3.497 20.792-16.91 17.296-29.959-3.496-13.048-16.91-20.792-29.958-17.296-13.049 3.497-20.793 16.91-17.296 29.958 3.496 13.05 16.909 20.793 29.958 17.297z" fill="#882F3F"/><path d="M30.992 38.3l46.987 33.624m-40.52 6.898l34.054-46.988" stroke="#402257" stroke-linecap="round"/><circle cx="54.701" cy="55.975" r="8.622" fill="#161D44"/><circle cx="54.701" cy="55.975" r="3.449" fill="#5665B8"/></svg>