<svg width="39" height="31" fill="none" xmlns="http://www.w3.org/2000/svg"><path d="M34.708 8.547h-7.512V4.662A4.667 4.667 0 0022.534 0h-.912A2.32 2.32 0 0019.3 2.12l-.196 2.154a10.949 10.949 0 01-3.875 7.381h-2.798v-.776a2.331 2.331 0 00-2.33-2.332h-7.77A2.331 2.331 0 000 10.88v17.094a2.331 2.331 0 002.331 2.331h7.77a2.331 2.331 0 002.331-2.33v-.778h2.865a17.358 17.358 0 008.688 2.331h9.667a3.906 3.906 0 003.873-3.574l1.056-13.21a3.885 3.885 0 00-3.873-4.196zm-23.83 19.426a.777.777 0 01-.777.777h-7.77a.777.777 0 01-.777-.777V10.88a.777.777 0 01.777-.777h7.77a.777.777 0 01.777.777v17.094zm25.099-2.145a2.343 2.343 0 01-2.325 2.145h-9.667c-2.844 0-5.636-.767-8.08-2.221a.783.783 0 00-.398-.11h-3.075V13.21h3.075c.176 0 .346-.06.483-.169a12.506 12.506 0 004.662-8.625l.196-2.152a.777.777 0 01.777-.708h.909a3.108 3.108 0 013.108 3.109v4.662a.777.777 0 00.777.777h8.289a2.33 2.33 0 012.323 2.517l-1.054 13.207z" fill="#0B0B0B"/><path d="M6.217 20.98a3.108 3.108 0 100 6.217 3.108 3.108 0 000-6.217zm0 4.662a1.554 1.554 0 110-3.107 1.554 1.554 0 010 3.107z" fill="#0B0B0B"/></svg>