<svg width="200" height="47" fill="none" xmlns="http://www.w3.org/2000/svg"><path d="M194.544 10.003V27.17h-4.987V10.003h-5.487V5.506H200v4.497h-5.456zm-25.558 4.716v12.45H164V5.507h4.485l3.606 5.251 4.735 7.2h.094V5.507h4.955V27.17h-4.453l-4.453-6.603-3.826-5.848h-.157zm-22.892-9.213h15.083v4.465H151.08v4.056h8.623v4.433h-8.623v4.276h10.097v4.434h-15.083V5.506zm-11.478 14.369l2.196-7.829 1.881-6.54h5.205l-6.867 21.664h-5.112l-6.93-21.664h5.331l1.945 6.666 2.163 7.703h.188zm-26.26-14.369h14.908v4.465h-10.097v4.056h8.624v4.433h-8.624v4.276h10.097v4.434h-14.908a18.498 18.498 0 003.481-10.832c0-4.043-1.29-7.784-3.481-10.832zm-44.131 0H78.32a18.52 18.52 0 00-2.363 4.465H69.21v4.056h5.772a18.79 18.79 0 00-.022 4.433h-5.75v4.276h6.76a18.507 18.507 0 002.35 4.434H64.226V5.506zm-7.748 11.571l-2.038 3.899-1.882 3.301h-3.543L47.1 20.85l-1.944-3.742h-.126V27.17h-4.986V5.506h4.578l3.575 7.043 2.54 5.157h.189l2.634-5.345 3.418-6.855h4.578V27.17H56.57V17.077h-.094zm-25.244 5.817h-6.961l-1.286 4.276h-5.362l7.62-21.664h5.143L37.88 27.17h-5.33l-1.318-4.276zm-5.707-4.088h4.453l-.439-1.478-1.725-5.973h-.125l-1.725 5.973-.439 1.478zm-9.753 5.377a7.09 7.09 0 01-1.646 1.525 9.955 9.955 0 01-1.897.99 9.599 9.599 0 01-1.944.535 11.53 11.53 0 01-1.82.157c-.982 0-1.975-.137-2.978-.409a8.776 8.776 0 01-2.728-1.258A6.767 6.767 0 01.768 23.57C.256 22.7 0 21.667 0 20.472v-8.08c0-1.195.246-2.232.737-3.113a6.939 6.939 0 011.944-2.217 8.52 8.52 0 012.713-1.336 10.886 10.886 0 013.073-.44c1.275 0 2.556.184 3.841.55 1.286.367 2.357.928 3.215 1.683l-2.415 3.867c-.71-.608-1.469-1.012-2.274-1.21a9.385 9.385 0 00-2.241-.3c-.419 0-.837.063-1.255.19a3.751 3.751 0 00-1.16.581 2.905 2.905 0 00-.863 1.037c-.22.43-.329.96-.329 1.588v6.132c0 .628.105 1.157.314 1.587.209.43.48.776.815 1.038.334.262.706.456 1.113.581.408.126.82.19 1.239.19.376 0 .768-.053 1.176-.158a2.944 2.944 0 001.144-.597V19.12H7.808v-4.213h7.965v9.276z" fill="#fff"/><path fill-rule="evenodd" clip-rule="evenodd" d="M93.338 0c1.83 0 3.589.302 5.23.86L79.844 17.6l1.118 4.778 12.67-.036-2.413 10.195c-7.998-1.042-14.175-7.897-14.175-16.2C77.044 7.315 84.339 0 93.338 0zm9.759 3.253a16.328 16.328 0 016.536 13.085c0 7.906-5.601 14.5-13.042 16.012l2.24-10.021 2.311-.007.9-4.783-2.14.006 3.195-14.292zm-6.185 5.244L86.853 17.58l7.911-.022 2.147-9.062z" fill="#fff"/><path d="M5.515 39.666L3.2 43.98c-.223.415-.49.73-.804.942-.313.213-.653.32-1.021.32-.285 0-.58-.063-.886-.187l.303-.958c.218.067.4.1.544.1a.79.79 0 00.42-.112c.124-.075.238-.193.341-.354l.047-.062L0 39.666h1.344l1.444 2.928 1.492-2.928h1.235zm5.545 5.451l-.008-3.263-1.6 2.687h-.559l-1.6-2.624v3.2h-1.18v-5.451h1.04l2.035 3.388 2.004-3.388h1.04l.009 5.451h-1.18zm7.518-5.451v5.451H17.32v-2.235h-2.47v2.235h-1.258v-5.451h1.258v2.15h2.47v-2.15h1.258zm3.993 1.79c.663 0 1.171.149 1.526.445.354.296.532.734.532 1.316 0 .618-.196 1.089-.587 1.413-.39.325-.94.487-1.65.487h-2.454v-5.451h1.25v1.79h1.383zm-.249 2.726c.326 0 .581-.08.765-.24.184-.162.276-.395.276-.702 0-.566-.347-.849-1.04-.849h-1.135v1.791h1.134zm2.998-4.516h1.25v5.451h-1.25v-5.451zm2.602 0h1.25v3.55l2.595-3.55h1.18v5.451h-1.242v-3.543l-2.594 3.543h-1.189v-5.451zm2.509-.35c-.994 0-1.496-.398-1.507-1.192h.862c.01.379.226.568.645.568.207 0 .365-.048.474-.144.109-.096.165-.237.17-.424h.863c-.005.39-.132.685-.38.888-.25.202-.625.303-1.127.303zm8.637 5.894a3.11 3.11 0 01-1.503-.362 2.696 2.696 0 01-1.056-1.004 2.77 2.77 0 01-.385-1.453c0-.54.128-1.024.385-1.452a2.7 2.7 0 011.056-1.005 3.135 3.135 0 011.51-.362c.472 0 .898.083 1.278.25.381.166.7.404.96.716l-.808.747c-.368-.425-.823-.638-1.367-.638a1.81 1.81 0 00-.901.222c-.264.148-.47.354-.618.619a1.827 1.827 0 00-.22.904c0 .337.073.638.22.903.148.264.354.47.618.619.264.148.564.222.9.222.545 0 1-.216 1.368-.647l.807.748c-.258.317-.58.558-.962.724-.384.166-.811.25-1.282.25zm7.277-1.105v1.012h-4.21v-5.451h4.11v1.012h-2.859v1.184h2.525v.98h-2.525v1.263h2.96zm3.372-4.44c.481 0 .9.081 1.254.242.355.161.628.39.82.685.19.297.287.647.287 1.052 0 .4-.096.749-.288 1.047a1.832 1.832 0 01-.82.685c-.354.159-.772.238-1.253.238H48.62v1.503h-1.258v-5.451h2.354zm-.07 2.921c.378 0 .665-.081.862-.245.197-.164.295-.396.295-.697 0-.306-.098-.541-.295-.705-.197-.163-.484-.245-.862-.245H48.62v1.892h1.026zm5.91 2.624c-.554 0-1.054-.12-1.503-.362a2.698 2.698 0 01-1.056-1.004 2.772 2.772 0 01-.384-1.453c0-.54.128-1.024.384-1.452a2.701 2.701 0 011.056-1.005 3.135 3.135 0 011.51-.362c.472 0 .898.083 1.279.25.38.166.7.404.959.716l-.808.747c-.367-.425-.823-.638-1.367-.638-.336 0-.637.074-.9.222-.265.148-.47.354-.618.619a1.83 1.83 0 00-.221.904c0 .337.073.638.22.903.148.264.354.47.619.619.263.148.564.222.9.222.544 0 1-.216 1.367-.647l.808.748a2.52 2.52 0 01-.963.724 3.19 3.19 0 01-1.282.25zm3.068-5.544h1.25v3.55l2.595-3.55h1.18v5.451h-1.242v-3.543l-2.595 3.543h-1.188v-5.451zm8.948 5.544a3.11 3.11 0 01-1.503-.362 2.696 2.696 0 01-1.056-1.004 2.77 2.77 0 01-.385-1.453c0-.54.128-1.024.385-1.452a2.699 2.699 0 011.056-1.005 3.134 3.134 0 011.51-.362c.472 0 .898.083 1.278.25.38.166.7.404.96.716l-.808.747c-.368-.425-.823-.638-1.367-.638a1.81 1.81 0 00-.901.222c-.264.148-.47.354-.618.619a1.827 1.827 0 00-.221.904c0 .337.074.638.221.903.148.264.354.47.618.619.264.148.564.222.9.222.545 0 1-.216 1.368-.647l.807.748c-.258.317-.58.558-.962.724-.384.166-.811.25-1.282.25zm10.221-5.544v5.451h-1.25v-4.423h-2.455v4.423h-1.25v-5.451h4.955zm3.946 5.544a3.164 3.164 0 01-1.526-.366 2.713 2.713 0 01-1.064-1.008 2.756 2.756 0 01-.385-1.444c0-.535.128-1.017.385-1.445a2.71 2.71 0 011.064-1.009 3.166 3.166 0 011.526-.366c.564 0 1.072.122 1.522.366a2.726 2.726 0 011.452 2.453c0 .535-.129 1.017-.388 1.445a2.746 2.746 0 01-1.064 1.008c-.45.245-.958.366-1.522.366zm0-1.074c.32 0 .61-.074.87-.222.259-.148.462-.355.61-.62.147-.264.22-.565.22-.902a1.83 1.83 0 00-.22-.904 1.592 1.592 0 00-.61-.619 1.72 1.72 0 00-.87-.222c-.321 0-.61.074-.87.222a1.592 1.592 0 00-.61.619 1.83 1.83 0 00-.221.904c0 .337.074.638.221.903.148.264.351.47.61.619.26.148.549.222.87.222zm13.297-4.47v5.451h-1.25v-4.423h-2.455v4.423h-1.25v-5.451h4.955zm3.946 5.544a3.164 3.164 0 01-1.526-.366 2.713 2.713 0 01-1.065-1.008 2.757 2.757 0 01-.384-1.444 2.71 2.71 0 011.448-2.453 3.166 3.166 0 011.527-.367c.564 0 1.072.122 1.522.366a2.735 2.735 0 011.452 2.453c0 .535-.129 1.017-.388 1.445a2.745 2.745 0 01-1.064 1.008c-.45.245-.958.366-1.522.366zm0-1.074c.32 0 .61-.074.87-.222a1.59 1.59 0 00.609-.62 1.82 1.82 0 00.222-.902c0-.338-.074-.639-.222-.904a1.59 1.59 0 00-.61-.619 1.72 1.72 0 00-.87-.222c-.32 0-.61.074-.87.222a1.593 1.593 0 00-.61.619 1.827 1.827 0 00-.22.904c0 .337.074.638.22.903.149.264.352.47.61.619.26.148.55.222.87.222zm9.398-.047v2.157h-1.165v-1.129h-3.837v1.13h-1.165l.008-2.158h.217c.326-.01.557-.249.691-.716.135-.467.218-1.135.249-2.002l.062-1.705h4.179v4.423h.761zm-3.891-2.601a11.59 11.59 0 01-.164 1.632c-.083.438-.209.762-.38.969h2.431v-3.395h-1.864l-.023.794zm4.737-1.822h4.389v1.004h-3.138v1.122h1.507c.657 0 1.158.137 1.502.412.345.276.517.673.517 1.192 0 .545-.192.968-.575 1.27-.383.3-.924.451-1.623.451h-2.579v-5.451zm2.509 4.517c.321 0 .567-.064.738-.191.171-.128.256-.313.256-.557 0-.478-.331-.717-.994-.717h-1.258v1.464h1.258zm5.818 1.027a3.16 3.16 0 01-1.526-.366 2.714 2.714 0 01-1.065-1.008 2.761 2.761 0 01-.384-1.444c0-.535.128-1.017.384-1.445a2.71 2.71 0 011.065-1.009 3.161 3.161 0 011.526-.366c.564 0 1.071.122 1.522.366a2.735 2.735 0 011.452 2.453c0 .535-.129 1.017-.388 1.445a2.745 2.745 0 01-1.064 1.008 3.143 3.143 0 01-1.522.366zm0-1.074c.321 0 .611-.074.87-.222.258-.148.462-.355.609-.62a1.82 1.82 0 00.222-.902c0-.338-.074-.639-.222-.904a1.592 1.592 0 00-.609-.619 1.721 1.721 0 00-.87-.222 1.72 1.72 0 00-.87.222 1.588 1.588 0 00-.61.619 1.831 1.831 0 00-.221.904c0 .337.074.638.221.903.147.264.351.47.61.619.259.148.548.222.87.222zm6.299-4.47c.481 0 .9.08 1.254.241.355.161.628.39.82.685.191.297.287.647.287 1.052 0 .4-.096.749-.287 1.047a1.833 1.833 0 01-.82.685c-.354.159-.773.238-1.254.238h-1.096v1.503h-1.258v-5.451h2.354zm-.07 2.92c.378 0 .665-.081.862-.245.197-.164.295-.396.295-.697 0-.306-.098-.541-.295-.705-.197-.163-.484-.245-.862-.245h-1.026v1.892h1.026zm8.054-2.92l-2.315 4.314c-.222.415-.49.73-.803.942-.314.213-.654.32-1.022.32a2.35 2.35 0 01-.885-.187l.303-.958c.217.067.399.1.544.1a.79.79 0 00.419-.112 1.1 1.1 0 00.342-.354l.046-.062-2.144-4.003h1.344l1.445 2.928 1.491-2.928h1.235zm7.068 1.028h-1.74v4.423h-1.243v-4.423h-1.731v-1.028h4.714v1.028zm.792-1.028h1.251v3.55l2.594-3.55h1.181v5.451h-1.243v-3.543l-2.595 3.543h-1.188v-5.451zm11.325 5.451l-.008-3.263-1.6 2.687h-.559l-1.601-2.624v3.2h-1.18v-5.451h1.041l2.035 3.388 2.004-3.388h1.04l.008 5.451h-1.18zm2.531-5.451h4.389v1.004h-3.138v1.122h1.507c.657 0 1.158.137 1.503.412.344.276.516.673.516 1.192 0 .545-.192.968-.575 1.27-.383.3-.924.451-1.623.451h-2.579v-5.451zm2.509 4.517c.321 0 .567-.064.738-.191.171-.128.256-.313.256-.557 0-.478-.331-.717-.994-.717h-1.258v1.464h1.258zm3.224-4.517h1.25v3.55l2.594-3.55h1.181v5.451h-1.243v-3.543l-2.594 3.543h-1.188v-5.451zm11.184 0v5.451h-1.243v-4.423h-1.864l-.039 1.137c-.026.773-.088 1.4-.186 1.88s-.263.85-.493 1.106c-.231.257-.553.386-.967.386-.171 0-.378-.029-.622-.086l.078-1.067a.756.756 0 00.225.031c.301 0 .51-.178.63-.533.119-.356.193-.913.225-1.67l.077-2.212h4.179zm6.928 4.423v2.157h-1.165v-1.129h-3.837v1.13h-1.165l.008-2.158h.217c.327-.01.557-.249.692-.716.134-.467.217-1.135.248-2.002l.062-1.705h4.179v4.423h.761zm-3.891-2.601c-.026.65-.081 1.193-.163 1.632-.083.438-.21.762-.381.969h2.431v-3.395h-1.864l-.023.794zm4.738-1.822h1.25v3.55l2.595-3.55h1.18v5.451h-1.243v-3.543l-2.594 3.543h-1.188v-5.451zm11.363 0v5.451h-1.258v-2.235h-2.471v2.235h-1.258v-5.451h1.258v2.15h2.471v-2.15h1.258zm5.188 1.028h-2.586l.007 4.423h-1.25v-5.451h3.837l-.008 1.028zm3.402 3.255h-2.524l-.482 1.168h-1.289l2.423-5.451h1.243L200 45.117h-1.32l-.482-1.168zm-.396-.958l-.862-2.087-.862 2.087h1.724z" fill="#fff"/></svg>