<svg width="152" height="152" fill="none" xmlns="http://www.w3.org/2000/svg"><g filter="url(#filter0_d)"><circle cx="76" cy="76" r="70" fill="#fff"/></g><path d="M92.406 84.202c5.286 0 9.571-4.285 9.571-9.57a9.57 9.57 0 10-9.57 9.57z" fill="#E07275"/><path d="M117.944 73.626l-5.839-5.397 1.551-7.793a1.37 1.37 0 00-.649-1.446 1.368 1.368 0 00-.53-.178l-7.903-.937-3.322-7.225a1.373 1.373 0 00-.821-.73 1.367 1.367 0 00-1.093.109l-6.932 3.894-6.937-3.9a1.365 1.365 0 00-1.914.621l-3.317 7.231-7.898.931a1.368 1.368 0 00-1.181 1.625l1.55 7.792-5.838 5.398a1.368 1.368 0 000 2.008l5.838 5.398-1.55 7.793a1.365 1.365 0 001.18 1.626l7.9.93 3.322 7.226a1.368 1.368 0 001.914.621l6.931-3.884 6.937 3.895a1.367 1.367 0 001.914-.62l3.323-7.226 7.899-.931a1.367 1.367 0 001.18-1.626l-1.552-7.793 5.84-5.398a1.37 1.37 0 00-.003-2.014zM92.406 86.938a12.305 12.305 0 1112.305-12.304 12.32 12.32 0 01-12.305 12.305z" fill="#E07275"/><path d="M96.963 101.033l-4.557-2.558-4.557 2.56v11.819l4.557-2.487 4.557 2.487v-11.821zm-11.848 1.069c-.105.009-.208.041-.313.041a4.096 4.096 0 01-3.73-2.392l-2.68-5.827L76 93.637v23.379a1.365 1.365 0 001.342 1.367c.238.004.472-.053.68-.167l7.093-3.869v-12.245zm21.306-8.178l-2.682 5.832a4.101 4.101 0 01-3.726 2.387c-.106 0-.209-.032-.316-.041v12.244l7.095 3.869a1.374 1.374 0 001.351-.025 1.363 1.363 0 00.67-1.174v-23.38l-2.392.288z" fill="#E07275"/><path d="M81.469 33.617h-43.75a4.101 4.101 0 00-4.102 4.102v60.156a4.1 4.1 0 004.102 4.102h43.75a4.103 4.103 0 004.101-4.102V37.719a4.101 4.101 0 00-4.101-4.102zm1.367 64.258a1.367 1.367 0 01-1.367 1.367h-43.75a1.368 1.368 0 01-1.367-1.367V37.719a1.367 1.367 0 011.367-1.367h43.75a1.367 1.367 0 011.367 1.367v60.156z" fill="#0B0B0B"/><path d="M52.758 67.797a1.368 1.368 0 001.978 1.224l4.858-2.43 4.857 2.436a1.366 1.366 0 001.979-1.23v-11.09a9.57 9.57 0 10-13.672 0v11.09zm10.937-2.212l-3.49-1.746a1.368 1.368 0 00-1.222 0l-3.49 1.746v-6.928a9.45 9.45 0 008.202 0v6.928zm-4.101-22.397a6.836 6.836 0 11-6.836 6.835 6.844 6.844 0 016.836-6.836zm8.203 47.852h-24.61a1.367 1.367 0 100 2.733h24.61a1.367 1.367 0 100-2.734zM76 82.836H43.187a1.367 1.367 0 000 2.734H76a1.367 1.367 0 100-2.734zm0-8.203H43.187a1.367 1.367 0 000 2.734H76a1.367 1.367 0 000-2.734z" fill="#0B0B0B"/><defs><filter id="filter0_d" x="0" y="0" width="152" height="152" filterUnits="userSpaceOnUse" color-interpolation-filters="sRGB"><feFlood flood-opacity="0" result="BackgroundImageFix"/><feColorMatrix in="SourceAlpha" values="0 0 0 0 0 0 0 0 0 0 0 0 0 0 0 0 0 0 127 0"/><feMorphology radius="2" operator="dilate" in="SourceAlpha" result="effect1_dropShadow"/><feOffset/><feGaussianBlur stdDeviation="2"/><feColorMatrix values="0 0 0 0 0.441667 0 0 0 0 0.185868 0 0 0 0 0.193282 0 0 0 0.25 0"/><feBlend in2="BackgroundImageFix" result="effect1_dropShadow"/><feBlend in="SourceGraphic" in2="effect1_dropShadow" result="shape"/></filter></defs></svg>