<svg width="90" height="91" fill="none" xmlns="http://www.w3.org/2000/svg"><path d="M37.84 40.19a18.104 18.104 0 00-11.523 6.01 18.079 18.079 0 00-4.52 12.178v12.998a4.214 4.214 0 004.219 4.216h31.289v-17.74a17.75 17.75 0 00-5.827-13.13A17.779 17.779 0 0037.84 40.19zm27.726 49.243a1.405 1.405 0 001.407 1.406H77.87a1.407 1.407 0 001.406-1.406v-11.03h-13.71v11.03z" fill="#CB5D60"/><path d="M76.64 40.682v14.532a5.21 5.21 0 011.055 3.13 5.267 5.267 0 01-2.918 4.734A5.278 5.278 0 0167.5 60.25a5.266 5.266 0 013.517-6.967v3.044a2.458 2.458 0 001.406 4.477 2.462 2.462 0 002.329-3.254 2.46 2.46 0 00-.923-1.223v-23.98a1.405 1.405 0 011.406-1.405h8.086a1.407 1.407 0 00.995-2.4 1.407 1.407 0 00-.995-.41h-8.086a4.22 4.22 0 00-4.218 4.215v7.764H49.883a20.532 20.532 0 0110.235 17.74v17.741H85.78A4.22 4.22 0 0090 71.376V57.851a17.748 17.748 0 00-3.742-10.867 17.77 17.77 0 00-9.618-6.302z" fill="#CB5D60"/><path d="M67.577 22.921l-10.272-6.84V13.2a1.405 1.405 0 00-1.407-1.405h-5.023L34.882 1.14a1.407 1.407 0 00-1.56 0L17.327 11.795h-5.023a1.407 1.407 0 00-1.407 1.405v2.88L.633 22.915A1.596 1.596 0 000 24.09v35.306a4.214 4.214 0 004.219 4.216h59.765a4.22 4.22 0 004.22-4.216V24.09a1.59 1.59 0 00-.627-1.169zm-10.272-3.468l6.96 4.637-6.96 4.637v-9.274zM34.102 3.996l11.702 7.798H22.4l11.703-7.798zM13.71 14.605h40.781v15.993l-19.61 13.068a1.407 1.407 0 01-1.56 0L13.71 30.598V14.605zm-2.813 4.85v9.275l-6.96-4.64 6.96-4.634zM2.813 59.303V26.715L25.172 41.61 2.812 59.302zm2.635 1.5L27.634 43.25 31.762 46a4.21 4.21 0 004.68 0l4.127-2.75 22.186 17.551H5.448zm59.943-1.5l-22.36-17.69 22.36-14.896v32.586z" fill="#fff"/><path d="M26.367 20.227h-7.031a1.406 1.406 0 00-1.406 1.405v7.026a1.405 1.405 0 001.406 1.405h7.031a1.407 1.407 0 001.406-1.405v-7.026a1.405 1.405 0 00-1.406-1.405zm-1.406 7.026h-4.219v-4.216h4.219v4.216zm8.437-4.216h15.47a1.407 1.407 0 001.405-1.405 1.405 1.405 0 00-1.406-1.405H33.398a1.406 1.406 0 100 2.81zM45 30.063a1.407 1.407 0 001.406-1.405A1.405 1.405 0 0045 27.253H33.398a1.407 1.407 0 00-.994 2.399c.264.263.621.411.994.411H45z" fill="#fff"/></svg>