<svg width="90" height="90" fill="none" xmlns="http://www.w3.org/2000/svg"><path d="M85.781 21.78H44.297a4.22 4.22 0 00-4.219 4.216v31.355a14.776 14.776 0 00-12.672 2.69 14.756 14.756 0 00-5.673 11.637 14.745 14.745 0 005.693 11.629 14.77 14.77 0 0012.678 2.667 4.214 4.214 0 004.193 3.96h41.484a4.22 4.22 0 004.22-4.216V25.996a4.214 4.214 0 00-4.22-4.215zm-35.859 9.336h15.117a1.406 1.406 0 01.995 2.398 1.406 1.406 0 01-.995.412H49.922a1.407 1.407 0 01-.994-2.399c.263-.263.621-.411.994-.411zM36.562 83.61a11.96 11.96 0 01-11.043-7.373A11.936 11.936 0 0128.11 63.22a11.955 11.955 0 0113.027-2.59 11.95 11.95 0 017.379 11.036 11.954 11.954 0 01-3.505 8.442 11.972 11.972 0 01-8.448 3.502zm43.594-3.011H58.33a1.407 1.407 0 01-.994-2.4c.263-.263.621-.41.994-.41h21.826a1.407 1.407 0 011.407 1.404 1.405 1.405 0 01-1.407 1.406zm0-9.335H58.33a1.407 1.407 0 01-.994-2.399c.263-.263.621-.412.994-.412h21.826a1.407 1.407 0 011.407 1.406 1.405 1.405 0 01-1.407 1.405zm0-9.335H58.33a1.407 1.407 0 01-.994-2.399c.263-.263.621-.411.994-.411h21.826a1.407 1.407 0 011.407 1.405 1.405 1.405 0 01-1.407 1.405zm0-9.333H49.922a1.407 1.407 0 01-1.406-1.406 1.405 1.405 0 011.406-1.405h30.234a1.407 1.407 0 011.407 1.405 1.405 1.405 0 01-1.407 1.406zm0-9.335H49.922a1.407 1.407 0 01-.994-2.399c.263-.264.621-.412.994-.412h30.234a1.407 1.407 0 01.995 2.4 1.407 1.407 0 01-.995.41z" fill="#CB5D60"/><path d="M40.36 66.607l-5.357 7.136-2.368-2.368a1.407 1.407 0 00-1.988 1.987l3.515 3.513a1.406 1.406 0 002.12-.15l6.327-8.432a1.404 1.404 0 00-1.323-2.234c-.37.053-.703.25-.927.548z" fill="#CB5D60"/><path d="M55.547 0h-42.89a4.22 4.22 0 00-4.22 4.216V56.91h-7.03A1.407 1.407 0 000 58.316a9.844 9.844 0 002.886 6.952 9.859 9.859 0 006.958 2.885h40.38a10.106 10.106 0 006.816-3.182 10.09 10.09 0 002.726-7.008V4.217A4.214 4.214 0 0055.546 0zM9.844 65.342a7.046 7.046 0 01-6.89-5.62h37.223a9.742 9.742 0 002.856 5.62H9.843zm47.11-7.378a7.264 7.264 0 01-1.928 5.054 7.275 7.275 0 01-4.888 2.324 7.036 7.036 0 01-6.692-4.286 7.022 7.022 0 01-.555-2.74 1.404 1.404 0 00-1.407-1.405H11.25V4.216a1.405 1.405 0 011.406-1.406h42.89a1.407 1.407 0 011.407 1.406v53.748z" fill="#fff"/><path d="M19 13.49h28.5M19 34.974h28.5M19 20.985h21M19 42.469h21M19 27.98h29M19 49.463h29" stroke="#fff" stroke-width="2" stroke-linecap="round" stroke-linejoin="round"/></svg>