<svg width="81" height="85" fill="none" xmlns="http://www.w3.org/2000/svg"><path d="M73.73 7.605H31.028a6.68 6.68 0 00-6.672 6.672v64.051A6.68 6.68 0 0031.029 85h42.7a6.68 6.68 0 006.672-6.672V14.277a6.68 6.68 0 00-6.672-6.672zm-2.67 68.157H33.698a1.334 1.334 0 010-2.669h37.364a1.335 1.335 0 010 2.669zm0-9.238H33.698a1.335 1.335 0 010-2.669h37.364a1.334 1.334 0 010 2.669zm0-9.238H33.698a1.335 1.335 0 010-2.669h37.364a1.335 1.335 0 010 2.669zm0-18.475H33.698a1.334 1.334 0 010-2.669h37.364a1.335 1.335 0 010 2.67zm0-9.236H33.698a1.334 1.334 0 010-2.67h37.364a1.335 1.335 0 010 2.67zm0-9.239H33.698a1.335 1.335 0 010-2.668h37.364a1.334 1.334 0 010 2.668z" fill="#CB5D60"/><path d="M66.564 24.71L37.098 1.265a5.75 5.75 0 00-7.196 0L.436 24.71c-.25.239-.405.56-.436.903V60.23a5.773 5.773 0 001.694 4.078A5.786 5.786 0 005.776 66h55.448c1.531-.002 3-.61 4.082-1.692A5.773 5.773 0 0067 60.23V25.613a1.41 1.41 0 00-.436-.903zM31.341 3.064a3.45 3.45 0 014.318 0l26.882 21.395H4.459L31.341 3.064zm31.647 23.703L41.421 43.932l-4.323-3.434a5.749 5.749 0 00-7.196 0l-4.323 3.44L4.012 26.767h58.976zM2.31 60.23V28.364l21.415 17.044L2.832 62.035a3.427 3.427 0 01-.522-1.805zm58.914 3.462H5.776a3.418 3.418 0 01-1.08-.19l26.645-21.205a3.45 3.45 0 014.318 0l26.644 21.206c-.347.12-.711.184-1.079.19zm3.466-3.462a3.427 3.427 0 01-.522 1.805L43.275 45.408 64.69 28.364V60.23z" fill="#fff"/></svg>