<svg width="95" height="89" fill="none" xmlns="http://www.w3.org/2000/svg"><path d="M61.972 39c-4.09-.01-8.175.312-12.214.96 1.918-8.037 5.216-14.11 9.067-16.298 1.033-.1 2.085-.148 3.147-.148 1.063 0 2.112.055 3.148.148 3.85 2.188 7.145 8.263 9.067 16.299A76.004 76.004 0 0061.972 39zm0 33.937c4.09.01 8.176-.312 12.215-.96-1.918 8.037-5.216 14.11-9.067 16.298a32.7 32.7 0 01-3.148.148 35.17 35.17 0 01-3.147-.148c-3.851-2.188-7.146-8.263-9.067-16.298 4.039.648 8.123.97 12.214.96zM49.095 43.092a73.264 73.264 0 0125.754 0 73.264 73.264 0 010 25.754 71.708 71.708 0 01-12.877 1.14 71.708 71.708 0 01-12.877-1.14 71.708 71.708 0 01-1.14-12.877 71.708 71.708 0 011.14-12.877zM29.658 59.116a32.597 32.597 0 01-.147-3.147c0-1.063.054-2.112.147-3.148 2.188-3.85 8.263-7.146 16.299-9.067a75.989 75.989 0 00-.953 12.215c-.01 4.09.312 8.175.96 12.214-8.043-1.921-14.11-5.216-16.306-9.067zm48.322 9.067a78.136 78.136 0 000-24.429c8.043 1.921 14.11 5.216 16.299 9.067a32.597 32.597 0 01-.007 6.295c-2.181 3.851-8.249 7.146-16.292 9.067zm-31.41 3.189a38.44 38.44 0 006.787 15.89 32.574 32.574 0 01-22.678-22.684 38.441 38.441 0 0015.89 6.794zm30.805 0a38.442 38.442 0 0015.89-6.788 32.575 32.575 0 01-22.683 22.678 38.441 38.441 0 006.793-15.89zm0-30.806a38.442 38.442 0 00-6.787-15.89 32.575 32.575 0 0122.677 22.683 38.441 38.441 0 00-15.89-6.794zm-30.805 0a38.44 38.44 0 00-15.89 6.787 32.575 32.575 0 0122.682-22.678 38.441 38.441 0 00-6.793 15.89z" fill="#CB5D60"/><path d="M7.378 0h70.825a7.386 7.386 0 017.378 7.378v49.799a7.387 7.387 0 01-7.378 7.378H53.119v7.008h7.378a1.476 1.476 0 010 2.951H25.084a1.476 1.476 0 010-2.95h7.378v-7.01H7.378A7.387 7.387 0 010 57.178v-49.8A7.387 7.387 0 017.378 0zm28.035 71.563h14.755v-7.008H35.413v7.008zM2.95 57.177a4.427 4.427 0 004.427 4.426h70.825a4.427 4.427 0 004.427-4.426v-49.8a4.426 4.426 0 00-4.427-4.426H7.378A4.427 4.427 0 002.95 7.378v49.799z" fill="#fff"/><path d="M16.784 30.986h52.013a1.476 1.476 0 010 2.951H16.784a1.476 1.476 0 110-2.95zm0-15.493h52.013a1.476 1.476 0 010 2.951H16.784a1.476 1.476 0 010-2.95zm0 30.987h52.013a1.476 1.476 0 010 2.95H16.784a1.476 1.476 0 110-2.95z" fill="#fff"/></svg>