<svg width="603" height="267" fill="none" xmlns="http://www.w3.org/2000/svg"><rect x="120.01" y="241.882" width="341.425" height="15.815" rx="7.908" fill="#383838"/><path d="M136.756 77.506c0-8.695 6.944-15.798 15.637-15.995l274.465-6.238c9.18-.209 16.652 7.335 16.355 16.513l-5.313 164.29a6 6 0 01-5.997 5.806H142.756a6 6 0 01-6-6V77.506z" fill="#404040"/><path d="M150.711 93.627c0-8.695 6.943-15.798 15.636-15.996l246.557-5.612c9.18-.21 16.652 7.334 16.355 16.512l-4.451 137.867c-.279 8.631-7.357 15.484-15.992 15.484H166.711c-8.837 0-16-7.164-16-16V93.627z" fill="#D84E52"/><path d="M155.362 99.732c0-8.699 6.95-15.804 15.646-15.996l235.378-5.215c9.182-.204 16.651 7.347 16.346 16.526l-4.204 126.713c-.286 8.626-7.361 15.47-15.991 15.47H171.362c-8.836 0-16-7.163-16-16V99.732z" fill="#E07275"/><path d="M164.666 107.496c0-8.705 6.958-15.813 15.661-15.997l218.607-4.622c9.186-.194 16.648 7.37 16.328 16.552l-3.823 109.984c-.299 8.615-7.37 15.444-15.99 15.444H180.666c-8.837 0-16-7.163-16-16V107.496z" fill="#E98C8E"/><path d="M403.695 140.434v20.682h-6.007v-20.682h-6.612v-5.417h19.192v5.417h-6.573zm-30.791 5.682v15h-6.007v-26.099h5.403l4.345 6.326 5.704 8.674h.114v-15h5.969v26.099h-5.365l-5.365-7.955-4.609-7.045h-.189zm-27.579-11.099h18.171v5.379h-12.165v4.886h10.39v5.341h-10.39v5.152h12.165v5.341h-18.171v-26.099zm-13.828 17.311l2.645-9.432 2.266-7.879h6.272l-8.274 26.099h-6.158l-8.349-26.099h6.422l2.343 8.031 2.606 9.28h.227zm-31.637-17.311h17.961v5.379h-12.165v4.886h10.389v5.341h-10.389v5.152h12.165v5.341h-17.962a22.281 22.281 0 004.195-13.05c0-4.871-1.555-9.377-4.194-13.049zm-53.168 0h16.982a22.308 22.308 0 00-2.846 5.379h-8.129v4.886h6.953a22.632 22.632 0 00-.026 5.341h-6.927v5.152h8.143a22.298 22.298 0 002.832 5.341h-16.982v-26.099zm-9.334 13.94l-2.455 4.697-2.267 3.977h-4.269l-2.305-4.129-2.342-4.507h-.151v12.121h-6.007v-26.099h5.515l4.307 8.485 3.061 6.212h.226l3.174-6.439 4.118-8.258h5.515v26.099h-6.006v-12.159h-.114zm-30.413 7.007h-8.386l-1.549 5.152h-6.461l9.181-26.099h6.196l9.029 26.099h-6.423l-1.587-5.152zm-6.875-4.924h5.364l-.528-1.781-2.078-7.196h-.152l-2.077 7.196-.529 1.781zm-11.75 6.477a8.529 8.529 0 01-1.983 1.838c-.743.492-1.505.889-2.286 1.192-.781.304-1.561.518-2.342.645-.781.126-1.511.189-2.191.189a13.66 13.66 0 01-3.589-.492 10.585 10.585 0 01-3.287-1.516 8.143 8.143 0 01-2.399-2.594c-.617-1.048-.926-2.292-.926-3.731v-9.736c0-1.439.296-2.689.888-3.75a8.368 8.368 0 012.342-2.67c.97-.72 2.059-1.256 3.268-1.61a13.114 13.114 0 013.703-.53c1.536 0 3.079.221 4.628.663 1.549.442 2.839 1.117 3.872 2.026l-2.909 4.659c-.856-.732-1.769-1.218-2.739-1.458s-1.87-.36-2.701-.36c-.504 0-1.007.076-1.511.227-.504.152-.97.385-1.398.701a3.515 3.515 0 00-1.039 1.25c-.265.518-.397 1.156-.397 1.913v7.387c0 .757.126 1.395.378 1.912.252.518.579.935.982 1.251.403.315.85.549 1.341.7.491.152.989.228 1.493.228a5.65 5.65 0 001.416-.19 3.54 3.54 0 001.379-.719v-3.524h-3.589v-5.075h9.596v11.174z" fill="#F6F6F6"/><path fill-rule="evenodd" clip-rule="evenodd" d="M281.767 128.383c2.204 0 4.323.365 6.301 1.036l-22.559 20.169 1.347 5.757 15.265-.043-2.908 12.282c-9.635-1.255-17.077-9.515-17.077-19.518 0-10.87 8.789-19.683 19.631-19.683zm11.756 3.919a19.67 19.67 0 017.875 15.764c0 9.525-6.748 17.47-15.712 19.291l2.699-12.073 2.784-.008 1.084-5.763-2.579.007 3.849-17.218zm-7.451 6.318l-12.117 10.945 9.531-.027 2.586-10.918z" fill="#F6F6F6"/><path d="M175.961 176.171l-2.789 5.198c-.268.5-.591.878-.968 1.135a2.15 2.15 0 01-1.231.385c-.343 0-.698-.075-1.067-.226l.366-1.154c.261.082.48.122.655.122a.953.953 0 00.505-.136c.15-.09.287-.233.412-.427l.056-.075-2.583-4.822h1.619l1.74 3.528 1.797-3.528h1.488zm6.681 6.568l-.009-3.932-1.928 3.237h-.674l-1.928-3.161v3.856h-1.422v-6.568h1.254l2.452 4.081 2.414-4.081h1.254l.009 6.568h-1.422zm9.058-6.568v6.568h-1.516v-2.693h-2.976v2.693h-1.516v-6.568h1.516v2.59h2.976v-2.59h1.516zm4.809 2.158c.799 0 1.412.178 1.839.535.427.356.641.885.641 1.585 0 .744-.236 1.312-.707 1.703s-1.133.587-1.988.587h-2.957v-6.568h1.506v2.158h1.666zm-.299 3.284c.393 0 .7-.097.922-.291.221-.194.332-.475.332-.845 0-.681-.418-1.022-1.254-1.022h-1.367v2.158h1.367zm3.611-5.442h1.507v6.568h-1.507v-6.568zm3.135 0h1.507v4.278l3.126-4.278h1.422v6.568h-1.497v-4.269l-3.126 4.269h-1.432v-6.568zm3.023-.422c-1.198 0-1.803-.479-1.815-1.436h1.038c.013.457.272.685.777.685.25 0 .44-.058.571-.173.131-.116.199-.286.206-.512h1.038c-.006.469-.159.826-.458 1.07-.3.244-.752.366-1.357.366zm10.405 7.102a3.75 3.75 0 01-1.81-.436 3.258 3.258 0 01-1.273-1.21 3.344 3.344 0 01-.463-1.75c0-.651.154-1.234.463-1.75.309-.516.733-.92 1.273-1.211a3.78 3.78 0 011.82-.436c.567 0 1.08.1 1.539.3.459.201.844.488 1.156.863l-.974.901c-.442-.513-.991-.769-1.647-.769-.405 0-.767.089-1.085.268a1.897 1.897 0 00-.744.745c-.178.32-.266.682-.266 1.089 0 .406.088.769.266 1.088a1.9 1.9 0 00.744.746c.318.178.68.267 1.085.267.656 0 1.205-.259 1.647-.779l.974.901a3.044 3.044 0 01-1.16.873c-.462.2-.977.3-1.545.3zm8.768-1.332v1.22h-5.072v-6.568h4.951v1.22h-3.444v1.426h3.041v1.182h-3.041v1.52h3.565zm4.062-5.348c.58 0 1.083.097 1.511.291.427.194.756.469.987.825.231.357.346.779.346 1.267 0 .482-.115.903-.346 1.262-.231.359-.56.635-.987.825-.428.191-.931.287-1.511.287h-1.32v1.811h-1.516v-6.568h2.836zm-.085 3.518c.456 0 .802-.098 1.039-.295.237-.197.355-.477.355-.84 0-.369-.118-.652-.355-.849-.237-.197-.583-.296-1.039-.296h-1.235v2.28h1.235zm7.121 3.162a3.75 3.75 0 01-1.81-.436 3.258 3.258 0 01-1.273-1.21 3.344 3.344 0 01-.463-1.75c0-.651.154-1.234.463-1.75.309-.516.733-.92 1.273-1.211a3.78 3.78 0 011.819-.436c.568 0 1.081.1 1.54.3.458.201.843.488 1.155.863l-.973.901c-.443-.513-.992-.769-1.647-.769-.405 0-.767.089-1.085.268a1.897 1.897 0 00-.744.745 2.2 2.2 0 00-.267 1.089c0 .406.089.769.267 1.088a1.9 1.9 0 00.744.746c.318.178.68.267 1.085.267.655 0 1.204-.259 1.647-.779l.973.901a3.036 3.036 0 01-1.16.873c-.461.2-.976.3-1.544.3zm3.696-6.68h1.507v4.278l3.125-4.278H246v6.568h-1.497v-4.269l-3.125 4.269h-1.432v-6.568zm10.78 6.68a3.756 3.756 0 01-1.811-.436 3.256 3.256 0 01-1.272-1.21 3.344 3.344 0 01-.463-1.75c0-.651.154-1.234.463-1.75.308-.516.733-.92 1.272-1.211a3.784 3.784 0 011.82-.436c.568 0 1.081.1 1.54.3.458.201.843.488 1.155.863l-.973.901c-.443-.513-.992-.769-1.647-.769-.406 0-.767.089-1.085.268a1.89 1.89 0 00-.744.745 2.2 2.2 0 00-.267 1.089c0 .406.089.769.267 1.088.177.319.426.568.744.746.318.178.679.267 1.085.267.655 0 1.204-.259 1.647-.779l.973.901a3.044 3.044 0 01-1.16.873c-.462.2-.977.3-1.544.3zm12.314-6.68v6.568h-1.506v-5.33h-2.957v5.33h-1.507v-6.568h5.97zm4.754 6.68c-.68 0-1.293-.147-1.839-.441a3.269 3.269 0 01-1.282-1.215 3.32 3.32 0 01-.463-1.74c0-.645.154-1.225.463-1.741a3.269 3.269 0 011.282-1.215c.546-.294 1.159-.441 1.839-.441.679 0 1.291.147 1.834.441.543.294.97.699 1.282 1.215.312.516.467 1.096.467 1.741 0 .644-.155 1.224-.467 1.74a3.31 3.31 0 01-1.282 1.215c-.543.294-1.155.441-1.834.441zm0-1.295c.386 0 .736-.089 1.048-.267.312-.178.556-.427.734-.746.178-.319.267-.682.267-1.088a2.2 2.2 0 00-.267-1.089 1.912 1.912 0 00-.734-.745 2.07 2.07 0 00-1.048-.268c-.387 0-.736.089-1.048.268a1.914 1.914 0 00-.735.745 2.21 2.21 0 00-.267 1.089c0 .406.09.769.267 1.088.178.319.423.568.735.746.312.178.661.267 1.048.267zm16.019-5.385v6.568h-1.506v-5.33h-2.957v5.33h-1.506v-6.568h5.969zm4.754 6.68c-.68 0-1.293-.147-1.838-.441a3.271 3.271 0 01-1.283-1.215 3.32 3.32 0 01-.463-1.74c0-.645.154-1.225.463-1.741a3.271 3.271 0 011.283-1.215c.545-.294 1.158-.441 1.838-.441.68 0 1.291.147 1.834.441.543.294.97.699 1.282 1.215.312.516.468 1.096.468 1.741 0 .644-.156 1.224-.468 1.74a3.31 3.31 0 01-1.282 1.215c-.543.294-1.154.441-1.834.441zm0-1.295c.387 0 .736-.089 1.048-.267.312-.178.557-.427.735-.746.177-.319.266-.682.266-1.088a2.21 2.21 0 00-.266-1.089 1.914 1.914 0 00-.735-.745 2.067 2.067 0 00-1.048-.268c-.387 0-.736.089-1.048.268a1.914 1.914 0 00-.735.745 2.21 2.21 0 00-.266 1.089c0 .406.089.769.266 1.088.178.319.423.568.735.746.312.178.661.267 1.048.267zm11.322-.056v2.599h-1.403v-1.36h-4.623v1.36h-1.403l.009-2.599h.262c.393-.013.671-.3.833-.863.162-.563.262-1.367.299-2.411l.075-2.055h5.034v5.329h.917zm-4.687-3.134c-.032.782-.097 1.437-.197 1.966-.1.529-.253.918-.459 1.168h2.929v-4.091h-2.245l-.028.957zm5.708-2.195h5.286v1.21h-3.78v1.351h1.815c.793 0 1.396.166 1.811.497.415.332.622.81.622 1.436 0 .657-.231 1.166-.692 1.529-.462.363-1.114.545-1.956.545h-3.106v-6.568zm3.022 5.442c.386 0 .683-.077.889-.23.206-.154.309-.377.309-.671 0-.576-.4-.863-1.198-.863h-1.516v1.764h1.516zm7.008 1.238a3.815 3.815 0 01-1.838-.441 3.269 3.269 0 01-1.282-1.215 3.32 3.32 0 01-.463-1.74c0-.645.154-1.225.463-1.741a3.269 3.269 0 011.282-1.215 3.815 3.815 0 011.838-.441c.68 0 1.292.147 1.835.441.543.294.97.699 1.282 1.215.312.516.467 1.096.467 1.741 0 .644-.155 1.224-.467 1.74a3.31 3.31 0 01-1.282 1.215c-.543.294-1.155.441-1.835.441zm0-1.295a2.08 2.08 0 001.049-.267c.311-.178.556-.427.734-.746.178-.319.267-.682.267-1.088a2.2 2.2 0 00-.267-1.089 1.919 1.919 0 00-.734-.745 2.07 2.07 0 00-1.049-.268c-.386 0-.735.089-1.047.268a1.914 1.914 0 00-.735.745 2.2 2.2 0 00-.267 1.089c0 .406.089.769.267 1.088.178.319.423.568.735.746.312.178.661.267 1.047.267zm7.589-5.385c.58 0 1.084.097 1.512.291.427.194.756.469.987.825.231.357.346.779.346 1.267 0 .482-.115.903-.346 1.262-.231.359-.56.635-.987.825-.428.191-.932.287-1.512.287h-1.319v1.811h-1.516v-6.568h2.835zm-.084 3.518c.456 0 .802-.098 1.039-.295.237-.197.355-.477.355-.84 0-.369-.118-.652-.355-.849-.237-.197-.583-.296-1.039-.296h-1.235v2.28h1.235zm9.704-3.518l-2.789 5.198c-.268.5-.591.878-.968 1.135a2.152 2.152 0 01-1.231.385c-.343 0-.699-.075-1.067-.226l.365-1.154c.262.082.481.122.655.122a.954.954 0 00.506-.136 1.31 1.31 0 00.411-.427l.056-.075-2.582-4.822h1.619l1.74 3.528 1.797-3.528h1.488zm8.515 1.238h-2.096v5.33h-1.498v-5.33h-2.086v-1.238h5.68v1.238zm.954-1.238h1.507v4.278l3.125-4.278h1.423v6.568h-1.498v-4.269l-3.125 4.269h-1.432v-6.568zm13.643 6.568l-.009-3.932-1.928 3.237h-.673l-1.928-3.161v3.856h-1.422v-6.568h1.254l2.451 4.081 2.414-4.081h1.254l.009 6.568h-1.422zm3.051-6.568h5.287v1.21h-3.781v1.351h1.815c.793 0 1.396.166 1.811.497.415.332.622.81.622 1.436 0 .657-.231 1.166-.692 1.529-.462.363-1.114.545-1.956.545h-3.106v-6.568zm3.022 5.442c.387 0 .683-.077.889-.23.206-.154.309-.377.309-.671 0-.576-.4-.863-1.198-.863h-1.516v1.764h1.516zm3.883-5.442h1.507v4.278l3.125-4.278h1.422v6.568h-1.497v-4.269l-3.125 4.269h-1.432v-6.568zm13.475 0v6.568h-1.497v-5.33h-2.246l-.047 1.37c-.031.932-.106 1.687-.224 2.266-.119.578-.317 1.023-.595 1.332-.277.31-.666.465-1.165.465-.206 0-.455-.035-.748-.103l.093-1.286a.92.92 0 00.271.037c.363 0 .615-.214.759-.642.143-.428.233-1.099.271-2.012l.094-2.665h5.034zm8.346 5.329v2.599h-1.403v-1.36h-4.623v1.36h-1.403l.009-2.599h.262c.393-.013.67-.3.833-.863.162-.563.262-1.367.299-2.411l.075-2.055h5.034v5.329h.917zm-4.687-3.134c-.032.782-.097 1.437-.197 1.966-.1.529-.253.918-.459 1.168h2.929v-4.091h-2.245l-.028.957zm5.707-2.195h1.507v4.278l3.126-4.278h1.422v6.568h-1.498v-4.269l-3.125 4.269h-1.432v-6.568zm13.69 0v6.568h-1.516v-2.693h-2.975v2.693h-1.516v-6.568h1.516v2.59h2.975v-2.59h1.516zm6.251 1.238h-3.116l.009 5.33h-1.506v-6.568h4.622l-.009 1.238zm4.098 3.922h-3.041l-.58 1.408h-1.553l2.919-6.568h1.498l2.928 6.568h-1.591l-.58-1.408zm-.477-1.154l-1.038-2.514-1.039 2.514h2.077z" fill="#F6F6F6"/><path d="M106.986 40.934H90.397c-8.821 0-15.972 7.15-15.972 15.972v0c0 8.511 6.674 15.527 15.175 15.952l25.119 1.256c8.79.44 15.791 7.515 16.138 16.308l1.533 38.843c.36 9.121 7.859 16.329 16.987 16.329h.869M23.258 44.19v75.566c0 9.389 7.611 17 17 17h66.728m43.26 22.793h-24.421c-6.294 0-11.396-5.103-11.396-11.397v-3.953a7.443 7.443 0 00-7.443-7.443v0m0 0v-20.678c0-9.388-7.611-17-17-17h-15.56M39.421 184.5h27.753a7.25 7.25 0 007.25-7.25v0a7.25 7.25 0 017.25-7.25h70.747m-2.176 11.411H134.43a8.373 8.373 0 00-8.373 8.373v0a8.373 8.373 0 01-8.372 8.373H74.464c-6.531 0-11.668 5.582-11.125 12.091v0a11.163 11.163 0 0011.125 10.236h22.289m329.331-73.96h17.421c9.389 0 17-7.611 17-17v-20c0-7.193 5.831-13.024 13.025-13.024v0c7.193 0 13.024-5.831 13.024-13.024V65.122m-60.47 103.73h48.376m36.747-31.631l-1.422 16.125c-.775 8.776-8.125 15.506-16.935 15.506h-18.39m0 0v58.82c0 9.389 7.611 17 17 17h28.585m-93.961-55.353h6.723c9.388 0 17 7.611 17 17v6.934c0 9.388 7.611 17 17 17h18.097c9.389 0 17-7.612 17-17v-18.529c0-9.389 7.611-17 17-17h25.329m24.654 0h-24.654m0 0v-16.547c0-6.808 5.519-12.327 12.327-12.327v0c6.808 0 12.327-5.519 12.327-12.326V82.798" stroke="#D84E52" stroke-width="6" stroke-linecap="round" stroke-linejoin="round"/><rect x="2" y="2" width="42.516" height="42.516" rx="14" fill="#F6F6F6" stroke="#D84E52" stroke-width="4"/><rect x="106.195" y="19.676" width="42.516" height="42.516" rx="14" fill="#F6F6F6" stroke="#D84E52" stroke-width="4"/><rect x="38.282" y="78.286" width="42.516" height="42.516" rx="14" fill="#F6F6F6" stroke="#D84E52" stroke-width="4"/><rect x="2" y="162.944" width="42.516" height="42.516" rx="14" fill="#F6F6F6" stroke="#D84E52" stroke-width="4"/><rect x="88.519" y="204.808" width="42.516" height="42.516" rx="14" fill="#F6F6F6" stroke="#D84E52" stroke-width="4"/><rect x="518.324" y="222.484" width="42.516" height="42.516" rx="14" fill="#F6F6F6" stroke="#D84E52" stroke-width="4"/><rect x="558.328" y="157" width="42.516" height="42.516" rx="14" fill="#F6F6F6" stroke="#D84E52" stroke-width="4"/><rect x="548.094" y="57.819" width="42.516" height="42.516" rx="14" fill="#F6F6F6" stroke="#D84E52" stroke-width="4"/><rect x="465.296" y="33.631" width="42.516" height="42.516" rx="14" fill="#F6F6F6" stroke="#D84E52" stroke-width="4"/><rect x="491.345" y="95.962" width="42.516" height="42.516" rx="14" fill="#F6F6F6" stroke="#D84E52" stroke-width="4"/><path d="M21.628 30.159l4.302 5.938c.003.005.01.008.013.013.03.038.066.07.107.098.01.005.017.012.027.018.01.006.01.008.015.01l1.87.975a.47.47 0 00.496-.035l5.345-3.872a.472.472 0 00.191-.46l-.343-2.08c0-.006-.004-.011-.005-.018l-.01-.031a.48.48 0 00-.06-.132c-.003-.005-.003-.011-.007-.017l-4.303-5.94c2.367-4.93.29-10.844-4.64-13.21-4.93-2.367-10.844-.29-13.21 4.64-2.367 4.93-.29 10.844 4.64 13.21a9.9 9.9 0 005.574.892l-.002.001zm11.386 2.553l-4.874 3.53-.934-.487 5.637-4.084.171 1.04zm-.488-1.975l-6.11 4.425-.553-.764 5.346-3.872-.553-.763-5.346 3.872-.553-.764L30.102 29l-.553-.763-5.345 3.872-.553-.764 6.11-4.425 2.765 3.818zm-13.483-7.073a.471.471 0 00-.389.172c-.074.096-.161.18-.258.253a1.41 1.41 0 01-1.985-1.948.471.471 0 00-.224-.712 1.414 1.414 0 01.439-2.742.472.472 0 00.434-.606 1.401 1.401 0 011.906-1.695.472.472 0 00.644-.321 1.4 1.4 0 012.294-.727c.136.12.329.15.495.08a1.4 1.4 0 011.956 1.37.472.472 0 00.347.48c.312.08.587.266.777.526a1.414 1.414 0 01-.316 1.975 1.384 1.384 0 01-.347.176.472.472 0 00-.27.634 1.42 1.42 0 01-.462 1.719c-.203.145-.44.233-.689.255a.471.471 0 00-.334.744l3.473 4.794-.764.553-3.358-4.636a.471.471 0 00-.745-.023 1.393 1.393 0 01-2.214-.043c-.01-.013-.031-.056-.04-.069a.471.471 0 00-.37-.21zm-3.954-10.57a8.953 8.953 0 0113.207 11.363.471.471 0 00.038.493l.873 1.205-1.91 1.383-3.07-4.238a2.37 2.37 0 001.326-2.66 2.344 2.344 0 00-.264-4.164 2.341 2.341 0 00-2.99-2.026 2.34 2.34 0 00-3.436.918 2.32 2.32 0 00-1.838.4 2.352 2.352 0 00-.962 2.054 2.357 2.357 0 00-.68 4.253 2.352 2.352 0 003.604 2.75c.826.756 2.07.828 2.978.172l3.042 4.2-1.91 1.383-.873-1.205a.471.471 0 00-.456-.19 8.953 8.953 0 01-6.679-16.09zm126.544 12.965a.566.566 0 00-.214 0l-3.901.746a.57.57 0 00-.296.16l-12.774 12.779-.717-.718a1.365 1.365 0 00-.177-.148 2.414 2.414 0 10-2.335 2.33c.044.063.094.122.148.176l1.39 1.39-.086.068-5.78 5.792-.068.08-.461-.462a1.71 1.71 0 00-2.381 0 1.708 1.708 0 000 2.38l3.559 3.531a1.71 1.71 0 102.381-2.38l-.467-.467.08-.068 5.763-5.77.068-.085 1.39 1.39c.054.054.113.104.176.148a2.415 2.415 0 104.131-1.624 2.407 2.407 0 00-1.802-.711 1.288 1.288 0 00-.148-.177l-.717-.717 12.785-12.785a.566.566 0 00.159-.296l.746-3.896a.57.57 0 00-.452-.666zM119.089 53.36c-.217.2-.551.2-.768 0l-3.537-3.536a.57.57 0 11.769-.769l1.207 1.207 1.139 1.14 1.207 1.207a.568.568 0 01-.017.751zm5.405-8.702l-5.815 5.787a.29.29 0 01-.085.062l-.957-.985a.313.313 0 01.063-.085l5.786-5.786a.295.295 0 01.085-.063l.985.985a.279.279 0 01-.062.085zm4.561 1.1l-.005-.006a1.276 1.276 0 011.184 2.141c-.504.484-1.3.484-1.805 0a1.263 1.263 0 01-.336-1.184.57.57 0 00-.399-.66.276.276 0 01-.131-.07l-2.135-2.135-1.139-1.139-2.113-2.124a.283.283 0 01-.068-.137.57.57 0 00-.57-.421h-.125a1.289 1.289 0 01-1.185-.336 1.276 1.276 0 01-.001-1.804l.001-.001a1.31 1.31 0 011.806 0c.31.311.437.762.336 1.19a.569.569 0 00.421.712.274.274 0 01.137.068l5.387 5.387a.295.295 0 01.068.137.57.57 0 00.672.382zm11.197-15.519l-12.615 12.614-2.346-2.346 12.614-12.614 2.905-.57-.558 2.916zM96.424 235.522a4.102 4.102 0 013.951-3.951v-.027h2.016v-14.447a4.102 4.102 0 014.097-4.097h13.896a4.103 4.103 0 11-3.016 6.886v15.782a4.103 4.103 0 01-4.097 4.102h-12.896a4.102 4.102 0 01-3.95-4.248zm10.064-21.441a3.02 3.02 0 00-3.016 3.016v14.447h9.793a4.086 4.086 0 013.022 1.313v-15.76a4.085 4.085 0 011.335-3.016h-11.134zm13.896 6.037a3.02 3.02 0 10-3.016-3.027v.006a3.021 3.021 0 003.016 3.021zm-7.119 18.544a3.021 3.021 0 10-3.015-3.027v.006a3.02 3.02 0 003.015 3.021zm-12.895.005h10.134a4.079 4.079 0 010-6.037h-10.129a3.021 3.021 0 00-2.665 1.622h3.324a.54.54 0 110 1.081h-3.659a3 3 0 00-.021.313 3.02 3.02 0 003.016 3.021z" fill="#0B0B0B"/><path d="M107.59 216.556h5.097a.54.54 0 110 1.081h-5.097a.54.54 0 010-1.081zm-2.551 2.789h9.891a.54.54 0 110 1.081h-9.891a.54.54 0 010-1.081zm0 2.93h9.891a.54.54 0 110 1.081h-9.891a.54.54 0 010-1.081zm0 2.951h9.891a.54.54 0 110 1.081h-9.891a.54.54 0 010-1.081zm0 2.951h9.891a.54.54 0 110 1.081h-9.891a.54.54 0 010-1.081zM67.092 90.8l1.336-2.325a.462.462 0 00-.17-.63l-1.89-1.086a.462.462 0 00-.63.17l-1.334 2.323a13.382 13.382 0 00-3.777-1.008v-1.413h.937a.462.462 0 00.462-.462v-2.178a.461.461 0 00-.462-.463h-4.978a.461.461 0 00-.462.463v2.178a.462.462 0 00.462.462h.937v1.412a13.379 13.379 0 00-3.777 1.007l-1.334-2.322a.462.462 0 00-.63-.17l-1.89 1.085a.462.462 0 00-.17.631l1.336 2.326a13.49 13.49 0 1016.034 0zm-.783-3.011l1.088.626-1.07 1.86a13.8 13.8 0 00-1.086-.626l1.068-1.86zm-9.261-3.136h4.054v1.254h-4.054v-1.254zm1.4 2.178h1.254v1.336a13.268 13.268 0 00-1.254 0V86.83zm-7.695 1.584l1.088-.625 1.068 1.86a13.48 13.48 0 00-1.086.626l-1.07-1.861zm8.322 25.791a12.563 12.563 0 01-11.609-7.757 12.567 12.567 0 0116.418-16.417 12.565 12.565 0 017.756 11.609 12.577 12.577 0 01-12.565 12.565z" fill="#0B0B0B"/><path d="M68.163 106.841a10.438 10.438 0 00-.028-10.45.43.43 0 00-.021-.047.437.437 0 00-.027-.036 10.548 10.548 0 00-3.726-3.706.384.384 0 00-.04-.029.414.414 0 00-.046-.02 10.437 10.437 0 00-10.45.028.465.465 0 00-.047.022.43.43 0 00-.035.026 10.553 10.553 0 00-3.707 3.726.248.248 0 00-.05.085 10.437 10.437 0 00.03 10.451.57.57 0 00.02.047c.006.01.015.017.021.026a10.547 10.547 0 003.73 3.715l.041.029c.012.007.024.009.036.015a10.437 10.437 0 0010.473-.03c.011-.005.024-.008.035-.014a.346.346 0 00.035-.027 10.543 10.543 0 003.713-3.736c.007-.01.016-.018.022-.029a.366.366 0 00.021-.046zm-3.868 2.793l-.594-1.013a.46.46 0 00-.633-.165.46.46 0 00-.165.633l.595 1.014a9.48 9.48 0 01-3.962 1.079v-1.18a.464.464 0 00-.462-.462.465.465 0 00-.462.462v1.18a9.497 9.497 0 01-3.913-1.055l.589-1.018a.461.461 0 00-.8-.463l-.588 1.017a9.637 9.637 0 01-2.818-2.802l1.014-.594a.462.462 0 00-.468-.798l-1.014.595a9.48 9.48 0 01-1.079-3.962h1.18a.465.465 0 00.462-.462.462.462 0 00-.463-.462h-1.179a9.483 9.483 0 011.054-3.914l1.018.588a.462.462 0 00.463-.8l-1.017-.588a9.625 9.625 0 012.802-2.816l.594 1.013a.462.462 0 00.798-.467l-.595-1.015a9.478 9.478 0 013.962-1.078v1.179a.462.462 0 00.924 0V92.1c1.366.066 2.7.425 3.914 1.055l-.59 1.018a.464.464 0 00.166.637.46.46 0 00.634-.174l.588-1.018a9.625 9.625 0 012.818 2.803l-1.014.594a.462.462 0 10.468.797l1.015-.595a9.486 9.486 0 011.078 3.962h-1.18a.462.462 0 000 .925h1.18a9.483 9.483 0 01-1.054 3.913l-1.018-.589a.463.463 0 10-.463.8l1.016.588a9.622 9.622 0 01-2.801 2.818z" fill="#0B0B0B"/><path d="M66.046 101.641a.463.463 0 00-.462-.462h-4.45a2.113 2.113 0 00-1.597-1.597v-4.45a.463.463 0 00-.924 0v4.45a2.114 2.114 0 00-1.566 1.471 2.112 2.112 0 002.615 2.616 2.12 2.12 0 001.472-1.566h4.45a.465.465 0 00.462-.462zm-6.971 1.187a1.191 1.191 0 01-1.097-.733 1.188 1.188 0 012.084-1.114 1.187 1.187 0 01-.987 1.847zm437.869-61.894h-13.701a2.638 2.638 0 00-2.634 2.635v4.742h-5.375a2.638 2.638 0 00-2.635 2.635v11.17a2.638 2.638 0 002.635 2.635h1.054v2.635a.527.527 0 00.899.373l3.008-3.008h8.739a2.638 2.638 0 002.635-2.634v-4.743h1.054v2.635a.527.527 0 00.899.373l3.008-3.008h.835c1.345 0 2.213-1.034 2.213-2.635V43.57a2.638 2.638 0 00-2.634-2.635zm-6.429 21.183c0 .871-.709 1.58-1.581 1.58h-8.958a.527.527 0 00-.372.155l-2.262 2.262v-1.89a.527.527 0 00-.527-.527h-1.581a1.582 1.582 0 01-1.581-1.58V50.946c0-.872.709-1.581 1.581-1.581h13.7c.872 0 1.581.709 1.581 1.58v11.172zm8.009-7.377c0 .59-.15 1.58-1.159 1.58h-1.054a.527.527 0 00-.372.155l-2.262 2.262v-1.89a.527.527 0 00-.527-.527h-1.581v-3.794h3.267a.527.527 0 100-1.054h-3.267v-.526a2.638 2.638 0 00-2.635-2.635h-7.271v-4.742c0-.872.709-1.581 1.58-1.581h13.701c.871 0 1.58.709 1.58 1.58V54.74z" fill="#0B0B0B"/><path d="M494.836 45.15h-9.485a.527.527 0 100 1.053h9.485a.527.527 0 000-1.054zm0 3.16h-2.108a.527.527 0 100 1.055h2.108a.527.527 0 000-1.054zm-8.009 4.216h-7.378a.528.528 0 000 1.054h7.378a.527.527 0 000-1.053zm0 3.162h-5.27a.527.527 0 100 1.054h5.27a.526.526 0 000-1.054zm-9.485 1.054h2.107a.527.527 0 000-1.054h-2.107a.527.527 0 100 1.054zm5.269 2.108h-5.164a.527.527 0 100 1.053h5.164a.527.527 0 000-1.053zm102.556 25.063c0-4.2-3.413-7.652-7.651-7.652a7.647 7.647 0 00-6.226 3.209h-9.648v-1.854c0-.593-.483-1.076-1.076-1.076h-2.192c-.593 0-1.076.483-1.076 1.076v1.854h-.527a2.314 2.314 0 01-2.311-2.311v-3.45a2.314 2.314 0 012.311-2.312h21.888a2.314 2.314 0 012.312 2.311v2.089a.461.461 0 10.923 0v-2.089a3.238 3.238 0 00-3.235-3.234h-4.79v-2.002a3.618 3.618 0 00-3.613-3.614h-5.081a3.618 3.618 0 00-3.614 3.614v2.002h-4.79a3.238 3.238 0 00-3.234 3.234v13.686a3.238 3.238 0 003.234 3.235h14.75a.461.461 0 100-.923h-14.75a2.314 2.314 0 01-2.311-2.312v-7.976a3.222 3.222 0 002.311.975h.527v.47c0 1.197.975 2.17 2.172 2.17a2.175 2.175 0 002.172-2.17v-.47h9.082a7.598 7.598 0 00-.859 3.52c0 4.2 3.414 7.65 7.651 7.65 4.233 0 7.651-3.446 7.651-7.65zm-14.077-13.44h-6.75v-2.001c0-.46.375-.834.835-.834h5.081c.46 0 .834.374.834.834v2.002zm-8.606-2.001a2.694 2.694 0 012.691-2.69h5.081a2.694 2.694 0 012.69 2.69v2.002h-.933v-2.002a1.76 1.76 0 00-1.757-1.757h-5.081a1.76 1.76 0 00-1.758 1.757v2.002h-.933v-2.002zm-4.11 8.99h2.192c.084 0 .153.07.153.154v.707h-2.498v-.707c0-.085.069-.153.153-.153zm2.345 3.4a1.25 1.25 0 01-2.498 0v-1.616h2.498v1.616zm22.823 6.04c-.588-.166-1.324-.303-2.161-.406.308-1.654.308-3.51 0-5.167.837-.103 1.573-.24 2.161-.407a6.69 6.69 0 01.702 2.99c0 1.074-.253 2.09-.702 2.99zm-3.301-6.386c-.71.058-1.475.094-2.264.104v-3.357c1.181.4 1.922 2.054 2.264 3.253zm-3.186-3.256v3.36a33.16 33.16 0 01-2.263-.104c.486-1.711 1.321-2.946 2.263-3.256zm-2.265 10.05a33.156 33.156 0 012.265-.104v3.36c-.942-.309-1.778-1.537-2.265-3.256zm3.187 3.253v-3.357c.789.01 1.554.046 2.264.104-.341 1.198-1.082 2.854-2.264 3.253zm0-4.28v-4.739c.872-.01 1.707-.05 2.48-.118.308 1.588.31 3.374 0 4.975a33.706 33.706 0 00-2.48-.118zm5.078-6.185c-.523.131-1.161.241-1.879.326-.305-1.136-.756-2.1-1.311-2.815a6.767 6.767 0 013.19 2.489zm-7.894-2.487c-.552.711-1.001 1.673-1.306 2.813a15.382 15.382 0 01-1.878-.326 6.77 6.77 0 013.184-2.487zm-3.671 3.312c.588.167 1.324.305 2.162.408a13.728 13.728 0 00-.203 1.66.461.461 0 10.921.058 12.93 12.93 0 01.205-1.622c.773.066 1.609.107 2.48.117v4.739c-.871.01-1.707.05-2.48.118a12.5 12.5 0 01-.177-1.263.462.462 0 00-.92.082c.039.436.099.863.176 1.276-.838.103-1.575.241-2.164.408a6.688 6.688 0 01-.702-2.99c0-1.074.253-2.09.702-2.99zm.487 6.806a15.376 15.376 0 011.884-.327c.263.98.68 2.01 1.305 2.816a6.77 6.77 0 01-3.189-2.489zm7.888 2.49c.555-.715 1.006-1.68 1.311-2.816.718.085 1.356.195 1.879.326a6.767 6.767 0 01-3.19 2.49zM23.26 171c-4.874 0-8.838 3.965-8.838 8.838v.057c0 2.361.92 4.581 2.588 6.25l.685.684a14.5 14.5 0 013.745 6.453c-1.838.391-3.041 1.347-3.041 2.464 0 1.487 2.135 2.652 4.86 2.652 2.726 0 4.861-1.165 4.861-2.652 0-1.116-1.203-2.073-3.04-2.465a14.496 14.496 0 013.745-6.452l.684-.684a8.783 8.783 0 002.589-6.25v-.057c0-4.873-3.965-8.838-8.838-8.838zm3.977 24.746c0 .836-1.633 1.768-3.977 1.768s-3.978-.932-3.978-1.768c0-.658.994-1.315 2.368-1.605.055.265.113.53.155.799.11.723.723 1.248 1.455 1.248.731 0 1.343-.525 1.454-1.248.042-.269.1-.534.155-.799 1.375.29 2.368.947 2.368 1.605zm3.977-15.851a7.905 7.905 0 01-2.33 5.625l-.684.685a15.392 15.392 0 00-4.359 8.601.585.585 0 01-.581.498.585.585 0 01-.582-.498 15.394 15.394 0 00-4.358-8.602l-.685-.684a7.905 7.905 0 01-2.33-5.625v-.057c0-4.386 3.569-7.954 7.955-7.954 4.385 0 7.954 3.568 7.954 7.954v.057z" fill="#0B0B0B"/><path d="M23.26 173.651a6.193 6.193 0 00-6.187 6.187 6.193 6.193 0 006.187 6.187 6.193 6.193 0 006.186-6.187 6.193 6.193 0 00-6.186-6.187zm0 11.49a5.309 5.309 0 01-5.303-5.303 5.309 5.309 0 015.303-5.303 5.309 5.309 0 015.302 5.303 5.309 5.309 0 01-5.302 5.303zm-2.21 1.767h.884v.884h-.884v-.884zm1.768 0h.883v.884h-.883v-.884zm1.767 0h.884v.884h-.884v-.884zm554.535-21.675c-7.438 0-13.489 6.052-13.489 13.49 0 7.438 6.051 13.489 13.489 13.489 7.438 0 13.49-6.051 13.49-13.489 0-7.438-6.051-13.49-13.49-13.49zm0 25.521a11.988 11.988 0 01-8.478-3.504 12.08 12.08 0 01-2.182-2.955 11.953 11.953 0 01-1.371-5.572c0-6.634 5.397-12.031 12.031-12.031 3.147 0 6.015 1.215 8.161 3.199a12.085 12.085 0 012.694 3.646 11.953 11.953 0 011.176 5.186c0 6.634-5.397 12.031-12.031 12.031z" fill="#0B0B0B"/><path d="M574.509 175.661a1.4 1.4 0 011.422 1.421h1.458c0-1.64-1.292-2.88-2.88-2.88-1.588 0-2.88 1.24-2.88 2.88h1.459a1.4 1.4 0 011.421-1.421zm9.222 0a1.4 1.4 0 011.422 1.421h1.458c0-1.64-1.292-2.88-2.88-2.88-1.588 0-2.88 1.24-2.88 2.88h1.458a1.4 1.4 0 011.422-1.421zm-4.637 10.536c2.822 0 5.526-1.443 7.074-3.839l-1.225-.791a6.99 6.99 0 01-6.626 3.127 6.994 6.994 0 01-5.019-3.127l-1.225.791a8.467 8.467 0 006.077 3.784c.315.037.63.055.944.055zm-47.226 54.116l-7.078-7.077a.6.6 0 00-.848.848l6.902 6.901-.002.826a.6.6 0 00.599.601h.001a.6.6 0 00.6-.599l.001-1.075a.6.6 0 00-.175-.425zm5.442-4.381h-.001l-1.415.002-6.901-6.901a.6.6 0 00-.848.848l7.077 7.077a.599.599 0 00.424.176h.001l1.664-.003a.6.6 0 00-.001-1.199zm11.022-5.143a.6.6 0 00-.848 0l-5.145 5.145-.826-.001h-.009a5.898 5.898 0 00-4.199 1.74l-.539.539a.6.6 0 00.848.848l.539-.539a4.705 4.705 0 013.351-1.389h.007l1.075.002h.001a.597.597 0 00.424-.176l5.321-5.321a.6.6 0 000-.848zm5.959 2.447a.598.598 0 00-.848 0l-7.077 7.077a.601.601 0 00-.176.425l.003 1.664c0 .33.268.598.599.598h.001a.6.6 0 00.599-.6l-.002-1.415 6.901-6.901a.6.6 0 000-.848zm0 21.095l-6.901-6.901.001-.827a5.909 5.909 0 00-.453-2.284.6.6 0 10-1.108.46c.241.581.363 1.194.362 1.822l-.002 1.076c0 .159.063.312.176.425l7.077 7.077a.6.6 0 10.848-.848zm-4.202 4.203l-7.078-7.078a.6.6 0 00-.424-.175h-.001l-1.663.002a.6.6 0 000 1.199h.001l1.415-.002 6.902 6.902a.598.598 0 10.848-.848z" fill="#0B0B0B"/><path d="M545.211 244.071a1.684 1.684 0 00-.454-.323c.14-.25.215-.532.215-.826a1.677 1.677 0 00-.978-1.532 1.692 1.692 0 00-.327-1.928 1.69 1.69 0 00-1.927-.327 1.692 1.692 0 00-2.728-.484l-2.394 2.394a1.713 1.713 0 00-3.127-.796l-1.643 2.45a5.915 5.915 0 00-1.006 3.316l.002 1.415-6.902 6.901a.6.6 0 00.848.848l7.078-7.077a.6.6 0 00.175-.425l-.002-1.664a4.72 4.72 0 01.803-2.646l1.643-2.45a.511.511 0 01.721-.135.516.516 0 01.145.688l-.642 1.059a.752.752 0 00.181.992.752.752 0 001.007-.061l3.961-3.961a.49.49 0 01.732.649l-2.344 2.35a.6.6 0 00.848.848l3.03-3.036a.49.49 0 01.693.693l-3.033 3.033a.6.6 0 00.848.848l2.347-2.347a.49.49 0 01.649.732l-2.306 2.305a.6.6 0 00.848.848l1.542-1.541a.49.49 0 01.649.731l-4.282 4.282a4.704 4.704 0 01-3.351 1.388h-.007l-1.075-.001h-.001a.6.6 0 00-.424.175l-5.571 5.572a.598.598 0 00.424 1.023.598.598 0 00.424-.175l5.395-5.396.826.002h.009a5.9 5.9 0 004.199-1.74l4.282-4.282a1.692 1.692 0 000-2.389z" fill="#0B0B0B"/><path d="M521.588 115.821v-5.863a2.335 2.335 0 00-2.333-2.333h-17.5a2.335 2.335 0 00-2.333 2.333v11.667a2.335 2.335 0 002.333 2.333h13.082c.764 2.689 3.237 4.667 6.168 4.667a6.417 6.417 0 003.209-.859.583.583 0 10-.585-1.009 5.256 5.256 0 01-7.874-4.549 5.256 5.256 0 015.25-5.25 5.256 5.256 0 015.25 5.25v.584a1.167 1.167 0 01-2.333 0v-2.334a.583.583 0 00-.986-.419 2.897 2.897 0 00-1.931-.747 2.92 2.92 0 00-2.917 2.916 2.92 2.92 0 002.917 2.917 2.9 2.9 0 002.177-.995 2.33 2.33 0 004.24-1.338v-.584c0-3.341-2.568-6.091-5.834-6.387zm-19.833-7.029h17.5c.024 0 .045.012.069.014l-8.339 6.844c-.297.187-.727.148-.92.03l-8.378-6.875c.024-.001.044-.013.068-.013zm18.667 7.029c-3.266.296-5.834 3.046-5.834 6.387 0 .197.012.391.03.584h-12.863a1.169 1.169 0 01-1.167-1.167v-11.667c0-.165.037-.321.099-.463l8.689 7.125a2.057 2.057 0 002.313-.038l8.634-7.088c.062.143.099.299.099.464v5.863zm.583 8.137c-.965 0-1.75-.785-1.75-1.75s.785-1.75 1.75-1.75 1.75.785 1.75 1.75-.785 1.75-1.75 1.75z" fill="#000"/></svg>