<svg width="24" height="23" fill="none" xmlns="http://www.w3.org/2000/svg"><path fill-rule="evenodd" clip-rule="evenodd" d="M23.75 11.437c0 6.316-5.12 11.437-11.437 11.437-6.316 0-11.437-5.12-11.437-11.437C.876 5.12 5.996 0 12.313 0 18.629 0 23.75 5.12 23.75 11.437zm-6.614-4.5L6.11 11.19c-.755.295-.742.714-.13.908l2.824.88 6.548-4.122c.304-.202.586-.088.356.115l-5.3 4.787-.202 2.91c.295 0 .424-.128.576-.28l1.38-1.33 2.859 2.108c.521.295.894.143 1.033-.484l1.877-8.846v.001c.165-.774-.282-1.084-.794-.899z" fill="#E07275"/></svg>