<svg width="32" height="26" fill="none" xmlns="http://www.w3.org/2000/svg"><path d="M.347.35A1.13 1.13 0 011.171 0h18.74c.318 0 .592.117.824.35.232.235.348.512.348.832v3.545h2.928c.33 0 .687.08 1.07.24.385.16.693.357.925.591l3.624 3.657c.158.16.295.344.412.553.115.21.2.398.256.563.055.167.095.394.119.684.024.29.04.502.045.637.006.135.006.37 0 .702-.006.332-.009.548-.009.646v5.91c.317 0 .592.116.824.35.232.234.348.511.348.831 0 .184-.025.348-.074.49a.698.698 0 01-.247.34 5.913 5.913 0 01-.302.213c-.085.056-.229.093-.43.111l-.412.037a5.821 5.821 0 01-.466 0 29.67 29.67 0 00-.412-.01H28.11c0 1.306-.458 2.42-1.373 3.343S24.718 26 23.425 26c-1.293 0-2.397-.462-3.312-1.385s-1.372-2.037-1.372-3.342h-7.028c0 1.305-.458 2.419-1.373 3.342S8.321 26 7.028 26c-1.294 0-2.398-.462-3.313-1.385s-1.372-2.037-1.372-3.342c-.037 0-.174.003-.412.01a5.825 5.825 0 01-.467 0l-.412-.038c-.2-.018-.344-.055-.43-.11a5.712 5.712 0 01-.302-.213.698.698 0 01-.247-.342A1.484 1.484 0 010 20.091V1.182C0 .862.116.585.347.351zM21.78 22.936c.463.467 1.012.702 1.647.702.634 0 1.183-.234 1.647-.702a2.28 2.28 0 00.695-1.662c0-.64-.232-1.195-.695-1.662-.464-.468-1.013-.702-1.647-.702-.635 0-1.184.234-1.647.702a2.282 2.282 0 00-.696 1.662c0 .64.232 1.194.696 1.662zm-.696-11.117h7.028v-.553a.555.555 0 00-.165-.407l-3.569-3.6a.545.545 0 00-.402-.167h-2.892v4.727zM5.381 22.935c.463.467 1.012.702 1.647.702.634 0 1.184-.234 1.647-.702a2.28 2.28 0 00.695-1.662c0-.64-.231-1.195-.695-1.662-.463-.468-1.013-.702-1.647-.702-.635 0-1.184.234-1.647.702-.464.468-.696 1.022-.696 1.662 0 .64.232 1.194.696 1.662z" fill="#fff"/></svg>