<svg width="32" height="26" fill="none" xmlns="http://www.w3.org/2000/svg"><path fill-rule="evenodd" clip-rule="evenodd" d="M15.129 20.436c.446.024.866.213 1.173.528.307.315.479.733.479 1.168 0 .434-.172.852-.479 1.167a1.768 1.768 0 01-1.173.528c-.463 0-.906-.18-1.233-.497a1.674 1.674 0 01-.512-1.197c.044-.958.805-1.697 1.743-1.697h.002zm-.044-2.176a4.06 4.06 0 00-2.375.78 3.875 3.875 0 00-1.426 2.004H1.887c-.672 0-1.117.476-1.117 1.085s.49 1.088 1.117 1.088h9.437C11.771 24.825 13.338 26 15.127 26a4.076 4.076 0 002.4-.77 3.89 3.89 0 001.446-2.013H30.11c.626 0 1.118-.477 1.118-1.086 0-.609-.49-1.087-1.117-1.087H18.927a3.89 3.89 0 00-1.445-2.014 4.076 4.076 0 00-2.4-.77h.002zm8.137-7.391c.941 0 1.747.739 1.747 1.694-.02.437-.213.85-.538 1.152a1.773 1.773 0 01-1.207.471c-.45 0-.882-.169-1.207-.47a1.677 1.677 0 01-.538-1.153c0-.956.762-1.694 1.743-1.694zm-.044-2.175a4.06 4.06 0 00-2.374.78 3.876 3.876 0 00-1.426 2.003H1.887c-.672 0-1.117.478-1.117 1.086 0 .609.49 1.088 1.117 1.088h17.489c.447 1.608 2.014 2.783 3.8 2.783a4.075 4.075 0 002.402-.769 3.89 3.89 0 001.447-2.014h3.085c.626 0 1.118-.477 1.118-1.086 0-.609-.49-1.088-1.117-1.088h-3.086a3.89 3.89 0 00-1.447-2.014 4.076 4.076 0 00-2.401-.769h.001zM9.76 2.171c.346 0 .684.099.972.285.287.187.512.452.644.762.133.31.168.652.1.982-.067.33-.233.632-.478.87a1.788 1.788 0 01-1.905.367 1.737 1.737 0 01-.783-.627 1.664 1.664 0 01-.293-.944c0-.954.806-1.695 1.743-1.695zM9.717 0a4.06 4.06 0 00-2.375.778A3.875 3.875 0 005.914 2.78H1.843C1.217 2.78.77 3.26.77 3.868c0 .608.49 1.085 1.117 1.085h4.071c.447 1.612 2.014 2.784 3.803 2.784a4.076 4.076 0 002.4-.769 3.89 3.89 0 001.446-2.013h16.504c.627 0 1.119-.477 1.119-1.087s-.49-1.086-1.117-1.086H13.605a3.98 3.98 0 00-1.477-2.01A4.17 4.17 0 009.715 0" fill="#fff"/></svg>