<svg width="17" height="17" fill="none" xmlns="http://www.w3.org/2000/svg"><path d="M12.897 10.382a.706.706 0 10-.327 1.376c2.198.521 2.995 1.292 2.995 1.684 0 .846-2.822 2.123-7.075 2.123s-7.075-1.277-7.075-2.123c0-.392.797-1.163 2.993-1.684a.706.706 0 10-.326-1.376C1.45 11.006 0 12.092 0 13.442c0 2.322 4.272 3.538 8.49 3.538 4.219 0 8.49-1.216 8.49-3.538 0-1.35-1.45-2.436-4.083-3.06z" fill="#0B0B0B"/><path d="M7.569 13.183l.288.576a.708.708 0 001.266 0l.61-1.22c.742-1.485 1.658-2.923 2.543-4.314l.403-.635c.5-.79.763-1.701.763-2.637a4.96 4.96 0 00-1.655-3.696A4.959 4.959 0 007.91.034c-2.201.25-4.02 2.023-4.324 4.215A4.943 4.943 0 004.5 7.882c1.2 1.625 2.136 3.434 3.069 5.3zM8.49 2.83c1.17 0 2.122.953 2.122 2.123 0 1.17-.952 2.122-2.122 2.122a2.125 2.125 0 01-2.122-2.122c0-1.17.952-2.123 2.122-2.123z" fill="#0B0B0B"/></svg>