<svg width="9" height="17" fill="none" xmlns="http://www.w3.org/2000/svg"><path d="M4.462 2.858a1.43 1.43 0 100-2.858 1.43 1.43 0 000 2.858zm.498.682a2.602 2.602 0 00-1.093.013C1.491 3.832.72 6.582.937 8.68c.095.907 1.524.916 1.429 0-.08-.764-.046-1.918.36-2.737V8.93c0 .036.004.069.006.103-.001.016-.005.03-.005.046 0 2.371-.004 4.742-.102 7.112-.044 1.053 1.59 1.05 1.633 0 .077-1.857.096-3.716.1-5.574.078.005.155.005.233 0 .004 1.86.023 3.717.1 5.574.043 1.05 1.676 1.053 1.632 0-.098-2.37-.101-4.74-.101-7.112 0-.074-.01-.14-.025-.205-.002-1.03-.042-2.06-.03-3.09.487.824.531 2.08.447 2.894-.096.916 1.334.907 1.428 0 .223-2.14-.585-4.962-3.082-5.138z" fill="#0B0B0B"/></svg>