<svg width="19" height="18" fill="none" xmlns="http://www.w3.org/2000/svg"><path fill-rule="evenodd" clip-rule="evenodd" d="M8.797 14.148a.984.984 0 01.694.366c.181.218.282.507.282.808 0 .3-.1.59-.282.808a.984.984 0 01-.694.366.973.973 0 01-.728-.344 1.263 1.263 0 01-.303-.83c.026-.662.476-1.174 1.03-1.174h.001zm-.026-1.506a2.174 2.174 0 00-1.403.54c-.737.631-1.521 1.386-2.491 1.386H.972c-.397 0-.66.33-.66.752s.29.753.66.753h2.386c1.87 0 3.568 1.927 5.438 1.927a2.178 2.178 0 001.418-.532c.747-.633 1.538-1.395 2.516-1.395h4.92c.37 0 .661-.33.661-.752 0-.421-.29-.752-.66-.752h-4.948c-.978 0-1.77-.762-2.515-1.395a2.178 2.178 0 00-1.418-.532h.001zm4.809-5.117c.556 0 1.032.51 1.032 1.173a1.253 1.253 0 01-.318.797.97.97 0 01-.713.326.97.97 0 01-.713-.326 1.253 1.253 0 01-.318-.797c0-.662.45-1.173 1.03-1.173zm-.026-1.506a2.175 2.175 0 00-1.403.54c-.737.632-1.521 1.387-2.491 1.387H.972c-.397 0-.66.33-.66.752 0 .421.29.752.66.752h7.145c1.87 0 3.566 1.927 5.436 1.927a2.179 2.179 0 001.419-.532c.747-.632 1.538-1.395 2.517-1.395h.161c.37 0 .661-.33.661-.751 0-.422-.29-.753-.66-.753h-.162c-.979 0-1.77-.762-2.517-1.395a2.178 2.178 0 00-1.419-.532h.001zm-7.93-4.516c.204 0 .404.068.574.197.17.13.303.313.381.528.078.215.099.451.06.68-.04.228-.139.437-.283.602a1 1 0 01-.53.321.916.916 0 01-.596-.067c-.189-.09-.35-.24-.463-.434a1.295 1.295 0 01-.173-.654c0-.66.476-1.173 1.03-1.173zM5.599 0a2.174 2.174 0 00-1.403.539c-.737.63-1.522 1.386-2.492 1.386H.946c-.37 0-.634.331-.634.753 0 .42.29.751.66.751 1.41 0 2.574 1.264 3.886 1.78.242.096.5.147.767.147a2.178 2.178 0 001.418-.532c.746-.632 1.538-1.394 2.516-1.394h8.092c.37 0 .661-.33.661-.752s-.29-.752-.66-.752H9.564c-.985 0-1.785-.758-2.54-1.391A2.227 2.227 0 005.598 0" fill="#D84E52"/></svg>