<svg width="36" height="30" fill="none" xmlns="http://www.w3.org/2000/svg"><path d="M13.86 27.265c0-1.49-1.256-2.728-2.774-2.728-1.511 0-2.767 1.238-2.767 2.728C8.32 28.762 9.575 30 11.086 30c1.518 0 2.773-1.238 2.773-2.735zm19.38 0c0-1.49-1.256-2.728-2.767-2.728-1.518 0-2.773 1.238-2.773 2.728 0 1.497 1.255 2.735 2.773 2.735 1.492.006 2.754-1.238 2.754-2.728l.012-.007zm2.754-23.188c0-.745-.625-1.36-1.38-1.36H8.632C8.412 1.693 8.369 0 6.92 0H1.38C.625 0 0 .616 0 1.355S.625 2.71 1.38 2.71h4.416l3.829 17.547c-.35.665-1.325 2.26-1.325 2.919 0 .745.631 1.361 1.387 1.361h22.147c.756 0 1.387-.616 1.387-1.361s-.631-1.361-1.387-1.361H11.942c.212-.425.518-.875.518-1.361 0-.512-.175-.998-.275-1.49l22.578-2.606A1.382 1.382 0 0036 15.009V4.077h-.006z" fill="#0B0B0B"/></svg>