<svg width="30" height="30" fill="none" xmlns="http://www.w3.org/2000/svg"><path fill-rule="evenodd" clip-rule="evenodd" d="M30 15c0 8.284-6.716 15-15 15-8.284 0-15-6.716-15-15C0 6.716 6.716 0 15 0c8.284 0 15 6.716 15 15zm-14.39 6.579h-1.177s-2.597.156-4.885-2.226c-2.495-2.597-4.698-7.752-4.698-7.752s-.127-.338.011-.501c.155-.184.578-.196.578-.196l2.814-.018s.265.044.455.184a.88.88 0 01.244.33s.455 1.15 1.057 2.19c1.176 2.032 1.724 2.477 2.123 2.259.582-.318.407-2.872.407-2.872s.01-.928-.293-1.34c-.235-.32-.678-.414-.874-.44-.158-.021.102-.389.439-.554.506-.248 1.4-.262 2.457-.251.824.008 1.06.06 1.383.137.747.18.723.759.673 2.005-.015.373-.033.805-.033 1.305 0 .112-.003.232-.006.355-.018.638-.038 1.37.383 1.641.215.14.743.021 2.061-2.218.626-1.062 1.094-2.31 1.094-2.31s.103-.222.262-.317c.162-.098.382-.068.382-.068l2.962-.018s.89-.106 1.034.295c.15.422-.333 1.406-1.543 3.019-1.149 1.531-1.707 2.094-1.655 2.593.038.363.401.693 1.097 1.338 1.458 1.353 1.846 2.064 1.939 2.233a.79.79 0 00.017.03c.652 1.082-.724 1.167-.724 1.167l-2.63.036s-.566.112-1.31-.399c-.389-.267-.769-.703-1.131-1.118-.554-.635-1.066-1.222-1.503-1.083-.733.232-.71 1.812-.71 1.812s.005.337-.162.517c-.182.196-.537.235-.537.235z" fill="#fff"/></svg>