<svg width="170" height="157" fill="none" xmlns="http://www.w3.org/2000/svg"><g opacity=".1"><path d="M169.101 134.552l-21.654 21.654a2.698 2.698 0 01-2.025.792 2.714 2.714 0 01-1.954-.954l-17.81-20.707-9.176 11.964a8.115 8.115 0 01-8.05 2.961 8.124 8.124 0 01-6.215-5.911L85.76 82.826a8.12 8.12 0 019.961-9.96l61.525 16.457a8.126 8.126 0 015.886 6.252 8.116 8.116 0 01-3.017 8.04l-11.883 9.148 20.788 17.811a2.702 2.702 0 01.081 3.978z" fill="#E07275"/><path d="M127.217 0H8.12A8.12 8.12 0 000 8.12v89.323a8.121 8.121 0 008.12 8.12h119.097a8.12 8.12 0 008.12-8.12V8.12a8.12 8.12 0 00-8.12-8.12zM8.12 5.413h119.097a2.706 2.706 0 012.707 2.707v8.12H5.414V8.12A2.707 2.707 0 018.12 5.414zm119.097 94.737H8.12a2.707 2.707 0 01-2.706-2.707V21.654h124.51v75.789a2.705 2.705 0 01-2.707 2.707zM43.308 35.188h-6.442l-1.976-3.925a2.707 2.707 0 00-2.409-1.489H21.654a2.707 2.707 0 00-2.707 2.707v21.654a2.707 2.707 0 002.707 2.707h21.654a2.707 2.707 0 002.707-2.707v-16.24a2.707 2.707 0 00-2.707-2.707zm-2.707 16.24h-16.24v-16.24h6.442l1.976 3.924a2.706 2.706 0 002.409 1.49H40.6v10.826zm37.895-16.24h-6.442l-1.976-3.925a2.707 2.707 0 00-2.41-1.489H56.843a2.707 2.707 0 00-2.707 2.707v21.654a2.707 2.707 0 002.707 2.707h21.654a2.707 2.707 0 002.706-2.707v-16.24a2.707 2.707 0 00-2.706-2.707zm-2.707 16.24h-16.24v-16.24h6.441l1.976 3.924a2.707 2.707 0 002.41 1.49h5.413v10.826zm37.894-16.24h-6.442l-1.976-3.925a2.709 2.709 0 00-2.409-1.489H92.029a2.707 2.707 0 00-2.706 2.707v21.654a2.707 2.707 0 002.706 2.707h21.654a2.706 2.706 0 002.707-2.707v-16.24a2.705 2.705 0 00-2.707-2.707zm-2.706 16.24h-16.24v-16.24h6.441l1.976 3.924a2.707 2.707 0 002.409 1.49h5.414v10.826zm-67.669 16.24h-6.442l-1.976-3.924a2.706 2.706 0 00-2.409-1.489H21.654a2.707 2.707 0 00-2.707 2.707v21.654a2.707 2.707 0 002.707 2.707h21.654a2.707 2.707 0 002.707-2.707v-16.24a2.707 2.707 0 00-2.707-2.707zM40.601 83.91h-16.24V67.67h6.442l1.976 3.925a2.707 2.707 0 002.409 1.488H40.6V83.91zm37.895-16.24h-6.442l-1.976-3.925a2.706 2.706 0 00-2.41-1.489H56.843a2.707 2.707 0 00-2.707 2.707v21.654a2.707 2.707 0 002.707 2.707h21.654a2.707 2.707 0 002.706-2.707v-16.24a2.707 2.707 0 00-2.706-2.707zm-2.707 16.24h-16.24V67.67h6.441l1.976 3.925a2.707 2.707 0 002.41 1.488h5.413V83.91zm37.894-16.24h-6.442l-1.976-3.925a2.707 2.707 0 00-2.409-1.489H92.029a2.707 2.707 0 00-2.706 2.707v21.654a2.707 2.707 0 002.706 2.707h21.654a2.706 2.706 0 002.707-2.707v-16.24a2.705 2.705 0 00-2.707-2.707zm-2.706 16.24h-16.24V67.67h6.441l1.976 3.925a2.708 2.708 0 002.409 1.488h5.414V83.91z" fill="#0B0B0B"/></g></svg>