<svg width="171" height="157" fill="none" xmlns="http://www.w3.org/2000/svg"><g opacity=".1"><path d="M109.771 74.283v15.833c-6.965-2.238-8.692-4.56-8.692-8.392s2.888-6.91 8.692-7.441zm7.163 28.281v16.28c5.663-.615 8.975-3.496 8.975-7.776 0-4.28-2.01-6.378-8.975-8.504zm54.022-4.308a58.243 58.243 0 01-10.021 32.636c-6.533 9.661-15.819 17.19-26.684 21.636a60.117 60.117 0 01-34.353 3.343c-11.533-2.266-22.127-7.861-30.443-16.077-8.315-8.215-13.978-18.682-16.272-30.078a58.088 58.088 0 013.383-33.94c4.5-10.734 12.121-19.909 21.9-26.364a59.973 59.973 0 0133.032-9.9c15.769 0 30.892 6.19 42.043 17.206 11.15 11.016 17.415 25.958 17.415 41.538zm-34.372 12.168c0-9.566-5.89-15.021-19.65-18.434V74.815a31.571 31.571 0 019.315 3.86 5.016 5.016 0 003.98.952 5.017 5.017 0 001.931-.802 4.948 4.948 0 001.427-1.514 4.87 4.87 0 00.468-4.02 4.887 4.887 0 00-1.042-1.795 4.981 4.981 0 00-1.696-1.213 32.956 32.956 0 00-14.156-4.924v-1.986a3.901 3.901 0 00-1.268-2.553 3.992 3.992 0 00-2.682-1.032c-.993 0-1.95.368-2.682 1.032a3.901 3.901 0 00-1.268 2.553v1.903c-11.325.895-19.026 7.496-19.026 17.091 0 10.099 6.172 15.022 19.394 18.435v17.623a32.077 32.077 0 01-13.392-5.986 5.09 5.09 0 00-5.593-.046 4.998 4.998 0 00-1.4 1.36 4.94 4.94 0 00-.783 3.727 4.94 4.94 0 00.737 1.799c.362.546.83 1.016 1.377 1.384a39.583 39.583 0 0018.573 6.993v5.595a3.897 3.897 0 001.268 2.553 3.988 3.988 0 002.682 1.032c.993 0 1.95-.368 2.682-1.032a3.895 3.895 0 001.267-2.553v-5.371c11.75-1.063 19.537-7.609 19.537-17.456z" fill="#E07275"/><path d="M135.491 8.862A117.95 117.95 0 0090.665 0a117.95 117.95 0 00-44.833 8.828 2.83 2.83 0 00-1.395 1.014 2.775 2.775 0 00-.536 1.627 115.95 115.95 0 002.596 24.617 117.619 117.619 0 00-44.55 8.705 2.829 2.829 0 00-1.399 1.018 2.774 2.774 0 00-.533 1.634 106.87 106.87 0 0010.547 48.116c7.22 15.022 17.854 28.193 31.074 38.486a8.546 8.546 0 005.096 1.683 8.545 8.545 0 005.096-1.683c13.181-10.153 23.767-23.219 30.907-38.15 1.053.859 2.002 1.6 2.792 2.19a8.545 8.545 0 005.089 1.678 8.545 8.545 0 005.09-1.678c13.223-10.293 23.86-23.466 31.081-38.491a106.875 106.875 0 0010.547-48.125 2.776 2.776 0 00-.51-1.588 2.825 2.825 0 00-1.333-1.02zM48.408 129.583a2.825 2.825 0 01-3.352 0c-12.273-9.568-22.19-21.761-29.007-35.662A101.17 101.17 0 015.701 49.328a112.388 112.388 0 0142.163-7.648c5.24 19.245 15.782 36.676 30.454 50.352-6.75 14.722-17.014 27.608-29.91 37.551zm43.885-35.962a2.805 2.805 0 01-3.349 0c-12.273-9.568-22.19-21.76-29.007-35.66a101.159 101.159 0 01-10.348-44.593 112.268 112.268 0 0182.079 0 101.151 101.151 0 01-10.356 44.596c-6.821 13.9-16.744 26.092-29.021 35.657h.002z" fill="#0B0B0B"/><path d="M81.54 61.43a2.729 2.729 0 00-.782-.748 2.766 2.766 0 00-3.091.09 2.882 2.882 0 00-1.163 1.845 2.86 2.86 0 00.47 2.124 16.358 16.358 0 005.925 5.23 16.583 16.583 0 007.718 1.87c2.675.01 5.312-.627 7.68-1.854a16.35 16.35 0 005.911-5.19c.019-.022.153-.218.169-.243a2.687 2.687 0 00.383-2.07 2.702 2.702 0 00-1.232-1.718 2.954 2.954 0 00-2.164-.378 2.925 2.925 0 00-1.82 1.218 10.591 10.591 0 01-3.87 3.432 10.738 10.738 0 01-5.057 1.208c-1.8.013-3.575-.421-5.161-1.263a10.695 10.695 0 01-3.916-3.554zM46.731 96.11a16.561 16.561 0 00-7.68 1.855 16.338 16.338 0 00-5.91 5.189l-.17.244a2.683 2.683 0 00.047 3.049c.21.295.478.546.788.738.644.4 1.42.536 2.164.379a2.918 2.918 0 001.82-1.218 10.595 10.595 0 013.878-3.435c1.56-.811 3.3-1.225 5.063-1.206 1.8-.011 3.575.424 5.16 1.265a10.716 10.716 0 013.917 3.552 2.746 2.746 0 001.797 1.136 2.785 2.785 0 002.077-.479 2.86 2.86 0 00.694-3.969 16.368 16.368 0 00-5.928-5.229 16.596 16.596 0 00-7.717-1.87z" fill="#0B0B0B"/></g></svg>