<svg width="88" height="80" fill="none" xmlns="http://www.w3.org/2000/svg"><path d="M55.934 37.851v8.068c-3.549-1.14-4.429-2.323-4.429-4.276 0-1.953 1.472-3.521 4.43-3.792zm3.65 14.41v8.297c2.886-.314 4.574-1.782 4.574-3.963 0-2.18-1.025-3.25-4.574-4.333zm27.527-2.194a29.68 29.68 0 01-5.106 16.63A30.221 30.221 0 0168.41 77.72a30.638 30.638 0 01-17.505 1.704 30.413 30.413 0 01-15.513-8.192A29.823 29.823 0 0127.1 55.906a29.6 29.6 0 011.724-17.294 30.014 30.014 0 0111.158-13.434 30.56 30.56 0 0116.832-5.044c8.036 0 15.742 3.153 21.423 8.767 5.682 5.613 8.874 13.227 8.874 21.166zm-17.514 6.2c0-4.875-3.001-7.654-10.013-9.393v-8.752a16.09 16.09 0 014.747 1.967 2.552 2.552 0 002.028.485c.354-.066.689-.205.984-.408a2.52 2.52 0 00.727-.772 2.489 2.489 0 00-.292-2.963 2.54 2.54 0 00-.865-.618 16.795 16.795 0 00-7.213-2.509v-1.012a1.986 1.986 0 00-.646-1.3 2.033 2.033 0 00-2.733 0 1.986 1.986 0 00-.646 1.3v.97c-5.771.456-9.695 3.82-9.695 8.709 0 5.145 3.145 7.654 9.882 9.393v8.98a16.34 16.34 0 01-6.824-3.05 2.58 2.58 0 00-1.922-.395 2.582 2.582 0 00-1.641 1.064 2.518 2.518 0 00-.4 1.9 2.548 2.548 0 001.077 1.622 20.17 20.17 0 009.465 3.563v2.85c.043.499.273.963.646 1.301a2.033 2.033 0 002.733 0c.373-.338.603-.802.646-1.3v-2.737c5.987-.542 9.955-3.877 9.955-8.895z" fill="#E07275"/><path d="M69.04 4.516A60.101 60.101 0 0046.198 0a60.101 60.101 0 00-22.844 4.498 1.442 1.442 0 00-.711.517 1.413 1.413 0 00-.273.83 59.089 59.089 0 001.323 12.543A59.933 59.933 0 00.992 22.822a1.442 1.442 0 00-.713.52 1.414 1.414 0 00-.271.832 54.457 54.457 0 005.374 24.517 55.132 55.132 0 0015.834 19.611 4.354 4.354 0 005.194 0 53.898 53.898 0 0015.748-19.44c.537.438 1.02.816 1.422 1.117a4.354 4.354 0 002.594.855c.935 0 1.845-.3 2.593-.855a55.13 55.13 0 0015.838-19.614 54.456 54.456 0 005.374-24.522 1.413 1.413 0 00-.26-.809 1.44 1.44 0 00-.68-.52zM24.666 66.03a1.44 1.44 0 01-1.708 0 52.188 52.188 0 01-14.78-18.172 51.552 51.552 0 01-5.273-22.723 57.267 57.267 0 0121.485-3.897 54.74 54.74 0 0015.517 25.657 51.03 51.03 0 01-15.24 19.135zM47.03 47.705a1.43 1.43 0 01-1.707 0 52.181 52.181 0 01-14.78-18.17 51.545 51.545 0 01-5.274-22.723 57.207 57.207 0 0141.824 0 51.539 51.539 0 01-5.277 22.724 52.174 52.174 0 01-14.788 18.169h.002z" fill="#0B0B0B"/><path d="M41.55 31.302a1.39 1.39 0 00-.916-.58 1.415 1.415 0 00-1.059.245 1.456 1.456 0 00-.353 2.023 8.334 8.334 0 003.02 2.664 8.45 8.45 0 003.932.953 8.44 8.44 0 003.914-.945 8.325 8.325 0 003.098-2.768 1.371 1.371 0 00-.433-1.93 1.505 1.505 0 00-2.03.427 5.396 5.396 0 01-1.972 1.75 5.471 5.471 0 01-2.577.615 5.527 5.527 0 01-2.63-.644 5.45 5.45 0 01-1.995-1.81zM23.812 48.974a8.44 8.44 0 00-3.913.945 8.325 8.325 0 00-3.012 2.644l-.086.124a1.373 1.373 0 00.024 1.554c.107.15.244.278.401.376a1.504 1.504 0 002.03-.428 5.399 5.399 0 011.976-1.75 5.474 5.474 0 012.58-.615 5.536 5.536 0 012.63.645 5.458 5.458 0 011.996 1.81 1.39 1.39 0 00.915.579 1.414 1.414 0 001.058-.244 1.457 1.457 0 00.354-2.023 8.342 8.342 0 00-3.02-2.664 8.457 8.457 0 00-3.933-.953z" fill="#0B0B0B"/></svg>