<svg width="87" height="80" fill="none" xmlns="http://www.w3.org/2000/svg"><path d="M86.142 26.452c0-3.256-3.968-5.807-9.032-5.807-4.726 0-8.492 2.22-8.977 5.162H25.497a3.871 3.871 0 00-3.871 3.87V76.13a3.871 3.871 0 003.87 3.87H77.11c5.064 0 9.032-2.55 9.032-5.806V26.452zm-15.484 0c0-1.527 2.649-3.226 6.452-3.226 3.802 0 6.451 1.7 6.451 3.226v43.643a13.032 13.032 0 00-12.903 0V26.453zm6.452 50.967c-3.803 0-6.452-1.699-6.452-3.225 0-1.527 2.649-3.226 6.452-3.226 3.802 0 6.451 1.7 6.451 3.226s-2.649 3.225-6.451 3.225z" fill="#E07275"/><path d="M71.26 72.688c-1.419 0-2.58.675-2.58 1.505 0 .832 1.161 1.506 2.58 1.506 1.42 0 2.581-.674 2.581-1.505 0-.831-1.155-1.506-2.58-1.506z" fill="#E07275"/><path d="M58.357 0h-41.29a6.46 6.46 0 00-6.452 6.452v45.16H2.873a2.58 2.58 0 00-2.58 2.581v3.872a6.46 6.46 0 006.451 6.451h41.29a6.459 6.459 0 006.452-6.452v-45.16h7.742a2.58 2.58 0 002.58-2.581V6.452A6.46 6.46 0 0058.358 0zM6.744 61.935a3.871 3.871 0 01-3.87-3.87v-3.871h38.709v3.87a6.385 6.385 0 001.324 3.871H6.744zM51.905 6.453v51.613a3.871 3.871 0 01-7.742 0v-3.871a2.58 2.58 0 00-2.58-2.581H13.196V6.452a3.87 3.87 0 013.87-3.871H53.23a6.384 6.384 0 00-1.324 3.87zm10.323 3.87h-7.742v-3.87a3.871 3.871 0 017.742 0v3.87z" fill="#0B0B0B"/><path d="M15.776 16.774a1.29 1.29 0 001.29 1.29h3.872V36.13h-3.871a1.29 1.29 0 100 2.58h3.87v5.162a1.29 1.29 0 102.581 0V38.71h18.065v5.16a1.29 1.29 0 002.58 0v-5.16h3.871a1.29 1.29 0 100-2.581h-3.87V18.065h3.87a1.29 1.29 0 000-2.581h-3.87v-5.162a1.29 1.29 0 00-2.581 0v5.162H23.518v-5.162a1.29 1.29 0 10-2.58 0v5.162h-3.871a1.29 1.29 0 00-1.29 1.29zm7.742 1.29h18.065V36.13H23.518V18.065z" fill="#0B0B0B"/></svg>