<svg width="87" height="80" fill="none" xmlns="http://www.w3.org/2000/svg"><path d="M86.166 68.562L75.132 79.596a1.38 1.38 0 01-2.027-.083l-9.076-10.551-4.675 6.096a4.138 4.138 0 01-7.269-1.503L43.7 42.205a4.137 4.137 0 015.076-5.076l31.35 8.386a4.138 4.138 0 011.462 7.282l-6.055 4.662 10.593 9.075a1.378 1.378 0 01.041 2.028z" fill="#E07275"/><path d="M64.824 0H4.138A4.138 4.138 0 000 4.138v45.514a4.138 4.138 0 004.138 4.138h60.686a4.137 4.137 0 004.138-4.138V4.138A4.138 4.138 0 0064.824 0zM4.138 2.758h60.686a1.38 1.38 0 011.38 1.38v4.137H2.757V4.138a1.38 1.38 0 011.38-1.38zm60.686 48.274H4.138a1.38 1.38 0 01-1.38-1.38V11.034h63.445v38.618a1.38 1.38 0 01-1.379 1.38zM22.068 17.93h-3.283l-1.007-2a1.379 1.379 0 00-1.227-.758h-5.517a1.38 1.38 0 00-1.38 1.379v11.034a1.38 1.38 0 001.38 1.379h11.034a1.38 1.38 0 001.379-1.38V19.31a1.38 1.38 0 00-1.38-1.379zm-1.38 8.276h-8.275V17.93h3.283l1.007 2a1.379 1.379 0 001.227.759h2.759v5.517zm19.31-8.276h-3.283l-1.007-2a1.379 1.379 0 00-1.227-.758h-5.517a1.38 1.38 0 00-1.38 1.379v11.034a1.38 1.38 0 001.38 1.379h11.034a1.38 1.38 0 001.379-1.38V19.31a1.38 1.38 0 00-1.38-1.379zm-1.38 8.276h-8.275V17.93h3.283l1.007 2a1.38 1.38 0 001.227.759h2.759v5.517zm19.31-8.276h-3.283l-1.007-2a1.379 1.379 0 00-1.227-.758h-5.517a1.38 1.38 0 00-1.38 1.379v11.034a1.38 1.38 0 001.38 1.379h11.034a1.38 1.38 0 001.38-1.38V19.31a1.38 1.38 0 00-1.38-1.379zm-1.38 8.276h-8.275V17.93h3.283l1.007 2a1.379 1.379 0 001.227.759h2.759v5.517zm-34.48 8.275h-3.283l-1.007-2a1.379 1.379 0 00-1.227-.759h-5.517a1.38 1.38 0 00-1.38 1.38v11.034a1.38 1.38 0 001.38 1.379h11.034a1.38 1.38 0 001.379-1.38V35.86a1.38 1.38 0 00-1.38-1.38zm-1.38 8.275h-8.275v-8.275h3.283l1.007 2a1.38 1.38 0 001.227.758h2.759v5.517zm19.31-8.275h-3.283l-1.007-2a1.379 1.379 0 00-1.227-.759h-5.517a1.379 1.379 0 00-1.38 1.38v11.034a1.38 1.38 0 001.38 1.379h11.034a1.38 1.38 0 001.379-1.38V35.86a1.38 1.38 0 00-1.38-1.38zm-1.38 8.275h-8.275v-8.275h3.283l1.007 2a1.38 1.38 0 001.227.758h2.759v5.517zm19.31-8.275h-3.283l-1.007-2a1.379 1.379 0 00-1.227-.759h-5.517a1.38 1.38 0 00-1.38 1.38v11.034a1.38 1.38 0 001.38 1.379h11.034a1.38 1.38 0 001.38-1.38V35.86a1.38 1.38 0 00-1.38-1.38zm-1.38 8.275h-8.275v-8.275h3.283l1.007 2a1.38 1.38 0 001.227.758h2.759v5.517z" fill="#0B0B0B"/></svg>