<svg width="169" height="157" fill="none" xmlns="http://www.w3.org/2000/svg"><g opacity=".1"><path d="M168.479 51.911c0-6.388-7.786-11.395-17.725-11.395-9.273 0-16.665 4.358-17.617 10.13H49.464a7.597 7.597 0 00-7.597 7.596v91.161A7.598 7.598 0 0049.464 157h101.29c9.939 0 17.725-5.006 17.725-11.395V51.911zm-30.387 0c0-2.995 5.199-6.33 12.662-6.33 7.462 0 12.661 3.335 12.661 6.33v85.651a25.575 25.575 0 00-25.323 0v-85.65zm12.662 100.025c-7.463 0-12.662-3.335-12.662-6.331 0-2.996 5.199-6.331 12.662-6.331 7.462 0 12.661 3.335 12.661 6.331 0 2.996-5.199 6.331-12.661 6.331z" fill="#E07275"/><path d="M139.274 142.649c-2.785 0-5.065 1.325-5.065 2.956 0 1.63 2.28 2.955 5.065 2.955 2.785 0 5.064-1.325 5.064-2.955 0-1.631-2.266-2.956-5.064-2.956z" fill="#E07275"/><path d="M113.951 0H32.919a12.677 12.677 0 00-12.661 12.661v88.629H5.065A5.064 5.064 0 000 106.355v7.596a12.678 12.678 0 0012.661 12.662h81.032a12.68 12.68 0 0012.662-12.662V25.323h15.193a5.063 5.063 0 005.065-5.065v-7.597A12.679 12.679 0 00113.951 0zM12.661 121.548a7.595 7.595 0 01-7.596-7.597v-7.596h75.967v7.596a12.53 12.53 0 002.598 7.597H12.661zM101.29 12.661v101.29a7.595 7.595 0 01-7.597 7.597 7.595 7.595 0 01-7.596-7.597v-7.596a5.063 5.063 0 00-5.065-5.065h-55.71V12.661a7.597 7.597 0 017.597-7.596h70.969a12.527 12.527 0 00-2.598 7.596zm20.258 7.597h-15.193v-7.597a7.595 7.595 0 1115.193 0v7.597z" fill="#0B0B0B"/><path d="M30.387 32.92a2.532 2.532 0 002.532 2.531h7.597v35.452H32.92a2.532 2.532 0 000 5.064h7.596v10.13a2.532 2.532 0 005.065 0v-10.13h35.451v10.13a2.532 2.532 0 005.065 0v-10.13h7.597a2.532 2.532 0 100-5.064h-7.597V35.45h7.597a2.532 2.532 0 100-5.064h-7.597v-10.13a2.532 2.532 0 00-5.065 0v10.13H45.581v-10.13a2.532 2.532 0 00-5.065 0v10.13H32.92a2.533 2.533 0 00-2.533 2.532zm15.194 2.531h35.451v35.452H45.581V35.45z" fill="#0B0B0B"/></g></svg>