<svg width="307" height="175" fill="none" xmlns="http://www.w3.org/2000/svg"><path d="M4.983 171.733l56.19-46.318 13.253 9.929-52.61 29.282 54.264-21.561 6.024-2.506 25.923 22.222-26.682 1.703-76.362 7.249z" fill="#D84E52"/><path d="M75.318 143.446l-.893-8.102-52.61 29.282 53.503-21.18zm4.19 21.213l-74.526 7.074 74.687 1.407-.161-8.481z" fill="#D84E52"/><path d="M1 166.15l52.485-41.612 12.014 9.362-48.894 26.008 50.28-18.879 5.584-2.198 23.45 20.889-24.567 1.1L1 166.15z" stroke="#000" stroke-width="2" stroke-linecap="round" stroke-linejoin="round"/><path d="M66.02 141.183l-.52-7.282-48.895 26.007 49.415-18.725zm3.64 19.766L1 166.15l68.66 2.601v-7.802z" stroke="#000" stroke-width="2" stroke-linecap="round" stroke-linejoin="round"/><path d="M103.5 138.538c55.5 19 127.9 2.2 121.5-47-8-61.5-85.499-102-119-87-59.5 26.641 66 95 146.5 54 19.98-10.177 38.474-10.492 55-4.035" stroke="#000" stroke-width="2" stroke-linecap="round" stroke-dasharray="4 6"/></svg>