<svg width="293" height="184" fill="none" xmlns="http://www.w3.org/2000/svg"><path d="M194.5 134.041c-58-12-50.069 40.207-96.5 47.498-60.5 9.5-83.63-75.826 9.5-85.498 100 0 79.5-83.003 43-93.003C94.762-12.233 45.05 62.724-.913 81.767" stroke="#000" stroke-width="2" stroke-linecap="round" stroke-linejoin="round" stroke-dasharray="4 6"/><path d="M223.1 165.741l-13.821-43.915 69.106-20.585 13.822 43.915-69.107 20.585z" fill="#CA4246"/><path d="M202 117.123l13.821 43.914M202 117.123l69.107-20.585M202 117.123l33.171 12.593m-19.35 31.321l69.107-20.585m-69.107 20.585l19.35-31.321m49.757 10.736l-13.821-43.914m13.821 43.914l-29.025-16.468m15.204-27.446l-15.204 27.446m-20.732 5.732l13.821 5.247 6.911-10.979" stroke="#000" stroke-width="2" stroke-linecap="round" stroke-linejoin="round"/></svg>